<?xml version="1.0" encoding="UTF-8" standalone="no"?>
<!-- Created with Inkscape (http://www.inkscape.org/) -->

<svg
   xmlns:dc="http://purl.org/dc/elements/1.1/"
   xmlns:cc="http://creativecommons.org/ns#"
   xmlns:rdf="http://www.w3.org/1999/02/22-rdf-syntax-ns#"
   xmlns:svg="http://www.w3.org/2000/svg"
   xmlns="http://www.w3.org/2000/svg"
   xmlns:sodipodi="http://sodipodi.sourceforge.net/DTD/sodipodi-0.dtd"
   xmlns:inkscape="http://www.inkscape.org/namespaces/inkscape"
   width="53.408909mm"
   height="37.752449mm"
   viewBox="0 0 53.408909 37.752449"
   version="1.1"
   id="svg8"
   sodipodi:docname="console.svg"
   inkscape:version="0.92.3 (2405546, 2018-03-11)">
  <defs
     id="defs2" />
  <sodipodi:namedview
     id="base"
     pagecolor="#ffffff"
     bordercolor="#666666"
     borderopacity="1.0"
     inkscape:pageopacity="0.0"
     inkscape:pageshadow="2"
     inkscape:zoom="3.959798"
     inkscape:cx="84.187178"
     inkscape:cy="76.485291"
     inkscape:document-units="mm"
     inkscape:current-layer="layer1"
     showgrid="false"
     inkscape:window-width="1600"
     inkscape:window-height="845"
     inkscape:window-x="0"
     inkscape:window-y="27"
     inkscape:window-maximized="1"
     fit-margin-top="0"
     fit-margin-left="0"
     fit-margin-right="0"
     fit-margin-bottom="0" />
  <metadata
     id="metadata5">
    <rdf:RDF>
      <cc:Work
         rdf:about="">
        <dc:format>image/svg+xml</dc:format>
        <dc:type
           rdf:resource="http://purl.org/dc/dcmitype/StillImage" />
        <dc:title></dc:title>
      </cc:Work>
    </rdf:RDF>
  </metadata>
  <g
     inkscape:label="Layer 1"
     inkscape:groupmode="layer"
     id="layer1"
     transform="translate(-55.902445,-83.772679)">
    <path
       style="fill:#000000;stroke-width:0.26458332"
       id="path228"
       d="m 58.035322,87.160594 c 0.418629,0.530823 -0.01455,-0.08919 0.315436,0.730348 0.08143,0.202242 0.240522,0.3698 0.307462,0.577289 0.21554,0.668112 0.14928,1.291412 0.224221,1.983322 0.04964,0.458311 0.134702,0.91209 0.202054,1.368134 0.03521,3.369688 0.03198,-0.08303 -0.07907,3.700176 -0.02262,0.770978 -0.02021,1.542484 -0.03031,2.313726 -0.03916,0.853813 -0.09206,1.707105 -0.117486,2.561441 -0.02693,0.905 0.01513,1.81218 -0.03956,2.71593 -0.05531,0.91416 -0.193389,1.82143 -0.290084,2.73215 -0.01545,0.89172 -0.01476,1.78388 -0.04639,2.67518 -0.02985,0.84073 -0.121325,1.67891 -0.138028,2.52001 -0.05358,2.69784 0.106061,1.82664 0.132471,4.40092 0.03128,3.04878 -0.205277,0.57831 0.136356,3.27209 0.06216,1.15796 -1.57544,1.24587 -1.637604,0.0879 v 0 c -0.306893,-3.39388 -0.02886,0.53012 -0.0241,-3.33751 0.0047,-3.87018 -0.228203,-0.3116 -0.276812,-4.46101 -0.02082,-1.77658 0.206259,-3.45947 0.388358,-5.22255 0.0043,-0.91958 0.0086,-1.83917 0.01294,-2.75875 0.09325,-0.89777 0.250021,-1.79119 0.279757,-2.69329 0.02798,-0.848779 -0.107185,-1.696228 -0.107066,-2.545467 1.09e-4,-0.761278 0.06126,-1.521433 0.107757,-2.281293 0.167579,-2.738821 0.236932,-1.097103 -0.0085,-3.552312 0.07461,-1.790835 0.148318,-0.785365 -0.168132,-2.298371 -0.03515,-0.168066 -0.177837,-1.211128 -0.276085,-1.398268 -0.02302,-0.04385 -0.07972,-0.05877 -0.119583,-0.08816 -0.708269,-0.885335 0.543787,-1.886979 1.252056,-1.001643 z"
       inkscape:connector-curvature="0" />
    <path
       style="fill:#000000;stroke-width:0.26458332"
       id="path230"
       d="m 56.249032,86.648075 c 0.07314,-0.04782 0.146275,-0.09564 0.219414,-0.143463 0.06127,-0.07556 0.104386,-0.1705 0.183798,-0.226689 0.280416,-0.198409 0.433689,-0.133951 0.756711,-0.203859 0.408982,-0.08851 0.625713,-0.193059 1.021675,-0.347808 0.831088,-0.04957 1.664478,0.132585 2.494153,0.09684 0.373364,-0.01609 0.740262,-0.111133 1.113438,-0.131098 0.957916,-0.05126 1.757291,0.03826 2.717903,0.10628 6.736154,-0.301283 -3.936902,0.05423 3.602601,0.259874 0.746353,0.02035 1.482424,-0.24049 2.228829,-0.222282 0.851604,0.02077 1.681737,0.308264 2.533058,0.338434 0.971105,0.03442 1.940086,-0.12188 2.911514,-0.145473 1.093968,-0.02657 2.188578,-0.0033 3.282866,-0.005 0.302892,-0.01191 7.457781,-0.292293 7.576875,-0.301477 1.371494,-0.105757 2.730733,-0.338725 4.100801,-0.46156 1.374619,-0.123246 2.755876,-0.160875 4.131159,-0.276493 2.573464,-0.216347 4.999543,-0.528481 7.558933,-0.835117 3.99584,-0.04628 2.10848,0.103081 5.66744,-0.374317 1.21182,-0.0717 1.31322,1.642065 0.10141,1.71377 v 0 c -3.54814,-0.134027 -1.68261,-0.236429 -5.58807,0.435351 -2.61865,0.204274 -4.976005,0.380513 -7.600389,0.618124 -1.381366,0.125072 -2.757712,0.30978 -4.141819,0.399632 -1.381543,0.08969 -2.768388,0.06813 -4.151043,0.138721 -7.842159,0.4004 -0.190126,0.218996 -7.633221,0.330796 -2.168186,0.174503 -4.07493,0.379325 -6.243285,0.366464 -4.046225,-0.024 -1.055886,-0.176642 -4.772261,-0.350616 -0.643908,-0.03014 -1.289129,0.01593 -1.933694,0.02389 -0.559199,-0.03887 -1.118399,-0.07775 -1.677598,-0.11662 -3.221321,0.47144 0.164237,0.143825 -2.725304,-0.03579 -0.360487,-0.02241 -0.717915,0.08297 -1.078388,0.105619 -0.303007,0.01905 -0.607222,0.03093 -0.910606,0.01939 -2.839757,-0.108048 1.00422,-0.07634 -1.277602,-0.08312 -0.256505,0.08259 -0.727591,0.266507 -0.998664,0.29641 -0.08276,0.0091 -0.175123,-0.05044 -0.249447,-0.01291 -0.105844,0.05344 -0.09384,0.235061 -0.211883,0.285718 -0.892107,0.713685 -1.90141,-0.547944 -1.009304,-1.261631 z"
       inkscape:connector-curvature="0" />
    <path
       style="fill:#000000;stroke-width:0.26458332"
       id="path232"
       d="m 57.54399,119.573 c 0.174842,0.40697 -0.04721,-0.0736 0.451334,0.0575 0.177562,0.0467 0.266981,0.28394 0.446472,0.32255 0.19812,0.0426 1.612156,-0.20903 1.689864,-0.22162 0.862129,0.004 1.719369,0.15718 2.58146,0.15777 0.552321,2.6e-4 1.102649,-0.0694 1.654707,-0.0864 0.644411,-0.0199 1.289294,-0.0216 1.934006,-0.0246 0.746591,-0.004 1.49569,0.066 2.239788,0.005 0.854978,-0.0701 1.695138,-0.26482 2.54271,-0.39723 0.946306,-0.0676 1.892612,-0.13517 2.838918,-0.20275 1.030293,0.0324 2.06185,0.15765 3.090881,0.0972 1.087242,-0.0638 2.145699,-0.41654 3.233571,-0.46856 1.115972,-0.0534 2.231019,0.14286 3.348212,0.15382 11.354564,0.11136 -4.528302,-0.34866 6.641872,0.0206 2.027693,-0.17868 4.059203,0.1484 6.086142,0.0611 6.980953,-0.30067 -1.285767,-0.41116 5.138283,-0.23842 1.08326,-0.0461 1.14853,1.48583 0.0653,1.53197 v 0 c -6.986938,0.41009 2.36155,-0.0493 -5.198196,0.008 -8.833326,0.067 3.177807,0.40263 -6.079503,0.0657 -1.088345,0.10173 -2.172362,0.27508 -3.265035,0.3052 -9.460765,0.26087 2.740011,-0.56563 -6.676414,-0.06 -1.077825,0.0579 -2.146231,0.25963 -3.22521,0.28904 -6.600534,0.17987 0.318646,-0.55774 -5.908117,0.24944 -4.581622,0.0465 -0.596979,-0.0246 -4.813061,0.12965 -0.647222,0.0237 -1.295231,0.0228 -1.942325,0.0497 -0.557157,0.0232 -1.112298,0.10833 -1.669889,0.10074 -0.480256,-0.007 -0.95354,-0.15015 -1.433785,-0.14299 -0.416877,0.006 -0.824891,0.12188 -1.237337,0.18283 -2.021731,-0.0128 -0.156191,0.0999 -1.892639,-0.26387 -0.574868,-0.12044 -1.359294,0.0727 -1.808763,-0.42609 -0.09143,-0.10147 -0.09118,-0.25749 -0.136776,-0.38624 -0.614508,-0.92176 0.68906,-1.79081 1.30357,-0.86905 z"
       inkscape:connector-curvature="0" />
    <path
       style="fill:#000000;stroke-width:0.26458332"
       id="path238"
       d="m 104.16258,85.761162 c -0.15023,-0.410789 -0.1096,-0.08568 0.0526,-0.407384 0.0233,-0.04613 0.01,-0.103169 0.022,-0.153411 0.1484,-0.620829 0.88254,-0.190942 1.60065,0.203732 0.15039,0.08266 -0.0131,0.342964 -0.0197,0.514445 7.9e-4,0.577789 -0.30212,1.094767 -0.3739,1.656133 -0.0562,0.439629 0.0239,0.890021 -0.0362,1.329132 -0.0735,0.536387 -0.26376,1.05089 -0.36262,1.583182 -0.0431,0.232024 -0.54093,3.696134 -0.56072,3.833106 -0.88305,4.182284 -0.0384,-0.0527 -0.73795,4.210717 -0.11621,0.708289 -0.31368,1.403402 -0.39783,2.116216 -0.0824,0.69826 -0.0384,1.40657 -0.1007,2.10692 -0.34532,2.60881 -0.2075,1.32475 -0.42027,3.85143 -0.32809,4.50704 0.17969,-0.94786 -0.51212,3.05058 -0.0661,0.38192 -0.0339,0.77445 -0.0508,1.16167 -0.1119,1.11425 -1.68768,0.956 -1.57578,-0.15825 v 0 c -0.0217,-0.40057 -0.10949,-0.80303 -0.0651,-1.20173 0.11486,-1.03118 0.72155,-1.97649 0.59836,-3.05461 0.16348,-3.14309 -0.003,-0.60367 0.31326,-3.87372 0.0682,-0.70502 0.0633,-1.4189 0.18282,-2.11706 0.12268,-0.716822 0.41179,-1.39791 0.5412,-2.113547 0.97837,-5.410266 -0.61572,1.056227 0.77393,-4.214886 0.0406,-0.673698 0.0462,-1.350428 0.12192,-2.021092 0.32315,-2.863559 0.22518,-0.769172 0.72112,-3.38315 0.0815,-0.429358 0.0927,-0.869124 0.13471,-1.304113 0.10068,-1.04145 0.0798,-0.750585 0.10347,-1.623634 0.005,-0.09529 -0.0771,-0.266848 0.0164,-0.285866 0.51336,-0.104381 1.0473,-0.03891 1.57116,-0.03694 0.0591,2.22e-4 0.10505,0.111043 0.0989,0.14786 -0.0113,0.06711 -0.0954,0.108714 -0.0879,0.184266 0,1.096653 -1.5509,1.096653 -1.5509,0 z"
       inkscape:connector-curvature="0" />
    <path
       style="fill:#000000;stroke-width:0.26458332"
       id="path240"
       d="m 63.273077,90.609062 c 0.05374,-0.0078 0.108016,-0.03411 0.161231,-0.02331 0.07294,0.01482 0.133282,0.06636 0.20115,0.0969 0.230129,0.103552 0.392208,0.150063 0.605039,0.299712 0.121086,0.08514 0.21736,0.20271 0.339796,0.285895 0.136792,0.09294 0.289483,0.159996 0.434224,0.239993 0.51077,0.391785 1.001834,0.793337 1.441259,1.265365 0.166669,0.179035 0.297754,0.393374 0.48523,0.550486 0.197765,0.165741 0.443595,0.264184 0.658061,0.40766 0.214357,0.143407 0.418417,0.301641 0.627626,0.452461 0.538284,0.496472 1.107059,0.947825 1.710505,1.361051 0.167444,0.114663 0.323098,0.249738 0.504341,0.341043 0.165425,0.08334 0.354869,0.108159 0.526354,0.178194 0.144894,0.05918 0.280445,0.139049 0.420669,0.208574 0.133815,0.202477 0.201684,0.418883 0.465251,0.474368 0.08953,0.01884 0.193503,-0.0704 0.273296,-0.02564 0.09918,0.05566 0.137909,0.182587 0.188206,0.284594 0.305231,0.619035 0.218633,0.441674 0.05718,1.146948 -0.08659,0.08607 -0.451165,0.458779 -0.568497,0.537919 -0.110498,0.07453 -0.238146,0.119771 -0.356645,0.180782 -0.165386,0.08515 -0.325056,0.182049 -0.494998,0.257704 -0.208225,0.09269 -0.430684,0.15136 -0.637773,0.246568 -0.251743,0.115739 -0.49103,0.256849 -0.736544,0.385273 -0.296109,0.113863 -0.602401,0.204134 -0.888323,0.341588 -0.305401,0.14681 -0.572802,0.36601 -0.880195,0.50861 -0.30027,0.13929 -0.631941,0.20117 -0.935304,0.3336 -0.281324,0.1228 -0.534067,0.30474 -0.814253,0.43011 -1.354754,0.60618 -0.18497,-0.0922 -1.260335,0.6011 -0.135257,0.23441 -0.423521,0.20445 -0.611912,0.34294 -0.0297,0.0218 -0.02795,0.0682 -0.04193,0.10235 -0.763307,0.87989 -2.007661,-0.19959 -1.244354,-1.07948 v 0 c 0.09433,-0.11258 0.166619,-0.24812 0.282977,-0.33775 0.07523,-0.058 0.895935,-0.42125 0.94051,-0.44135 1.353026,-0.880538 -0.337971,0.15476 1.310846,-0.619164 0.276177,-0.129632 0.508227,-0.343466 0.787273,-0.466802 0.302913,-0.133884 0.640969,-0.173778 0.947224,-0.299828 0.309621,-0.127434 1.382377,-0.727673 1.694418,-0.899329 0.647568,-0.331814 0.676709,-0.389134 1.334172,-0.580708 0.155292,-0.04525 0.337397,-0.01778 0.473819,-0.104682 0.136604,-0.08701 0.108352,-0.385797 0.332205,-0.375211 0.02914,0.0013 -0.042,0.04049 -0.063,0.06073 0.01355,0.156025 0.02927,0.311872 0.04064,0.468069 0.01064,0.146201 -0.05125,0.314082 0.0254,0.439026 0.03702,0.06033 0.172734,-0.0066 0.199761,-0.07203 0.02101,-0.05085 -0.116245,0.01312 -0.164518,-0.01328 -0.192942,-0.105481 -0.282782,-0.355013 -0.489138,-0.442627 -0.29909,-0.176493 -0.591299,-0.364535 -0.89126,-0.539543 -0.575251,-0.335627 -0.655817,-0.324649 -1.202875,-0.737884 -0.20778,-0.156953 -0.375952,-0.366384 -0.597445,-0.503303 -0.234537,-0.144979 -0.50455,-0.222562 -0.756825,-0.333844 -1.061579,-1.231328 0.01373,-0.05071 -1.122568,-1.113969 -0.537877,-0.503294 -0.409311,-0.531863 -1.008335,-0.926349 -0.155208,-0.102211 -0.349272,-0.141587 -0.494422,-0.257633 -0.134792,-0.107765 -0.218948,-0.266814 -0.328419,-0.400219 -1.138576,-0.308285 0.132596,0.10636 -0.740291,-0.374806 -0.09712,-0.05354 -0.227338,-0.0263 -0.321813,-0.08438 -0.08526,-0.05241 -0.118139,-0.163203 -0.191572,-0.231214 -0.101166,-0.09369 -0.286062,-0.178141 -0.408098,-0.240347 -0.922742,-0.553646 -0.139769,-1.858603 0.782973,-1.304957 z"
       inkscape:connector-curvature="0" />
  </g>
</svg>
