<?xml version="1.0" encoding="UTF-8" standalone="no"?>
<!-- Created with Inkscape (http://www.inkscape.org/) -->

<svg
   xmlns:dc="http://purl.org/dc/elements/1.1/"
   xmlns:cc="http://creativecommons.org/ns#"
   xmlns:rdf="http://www.w3.org/1999/02/22-rdf-syntax-ns#"
   xmlns:svg="http://www.w3.org/2000/svg"
   xmlns="http://www.w3.org/2000/svg"
   xmlns:sodipodi="http://sodipodi.sourceforge.net/DTD/sodipodi-0.dtd"
   xmlns:inkscape="http://www.inkscape.org/namespaces/inkscape"
   width="210mm"
   height="297mm"
   viewBox="0 0 210 297"
   version="1.1"
   id="svg8"
   inkscape:version="0.92.3 (2405546, 2018-03-11)"
   sodipodi:docname="person-alarm.svg">
  <defs
     id="defs2" />
  <sodipodi:namedview
     id="base"
     pagecolor="#ffffff"
     bordercolor="#666666"
     borderopacity="1.0"
     inkscape:pageopacity="0.0"
     inkscape:pageshadow="2"
     inkscape:zoom="1.979899"
     inkscape:cx="299.65271"
     inkscape:cy="731.82782"
     inkscape:document-units="mm"
     inkscape:current-layer="layer1"
     showgrid="false"
     inkscape:window-width="1600"
     inkscape:window-height="845"
     inkscape:window-x="0"
     inkscape:window-y="27"
     inkscape:window-maximized="1" />
  <metadata
     id="metadata5">
    <rdf:RDF>
      <cc:Work
         rdf:about="">
        <dc:format>image/svg+xml</dc:format>
        <dc:type
           rdf:resource="http://purl.org/dc/dcmitype/StillImage" />
        <dc:title></dc:title>
      </cc:Work>
    </rdf:RDF>
  </metadata>
  <g
     inkscape:label="Layer 1"
     inkscape:groupmode="layer"
     id="layer1">
    <path
       style="fill:#000000;stroke-width:0.26458332"
       id="path54"
       d="m 100.77124,111.97975 c 0.40927,1.42561 0.21894,0.16414 -0.28939,2.04506 -0.16006,0.59224 -0.22865,1.20574 -0.32148,1.81216 -0.31577,2.06285 -0.236405,2.83669 -0.990457,4.87335 -0.328556,0.8874 -0.811996,1.70951 -1.217991,2.56426 -1.43801,3.00262 -0.946694,2.11954 -2.572372,4.95968 -0.43056,0.75221 -0.714803,1.6165 -1.311329,2.24528 -0.575731,0.60686 -1.412132,0.89735 -2.109035,1.36002 -3.088064,2.05019 -0.504006,0.46984 -3.564218,2.27802 -2.406458,0.78994 -1.392578,0.73632 -3.941628,0.44258 -0.675958,-0.0779 -1.384601,-0.044 -2.021537,-0.28338 -0.686222,-0.2579 -1.198548,-0.85696 -1.859027,-1.17506 -4.017519,-1.93489 -0.434178,0.68222 -4.05405,-2.33635 -0.391264,-0.80742 -0.631663,-1.70734 -1.173789,-2.42227 -3.181927,-4.19617 -1.06863,0.83477 -3.504687,-4.18558 -0.945083,-1.94767 -1.191284,-3.53642 -1.700802,-5.6182 -0.235935,-0.964 -0.479667,-1.92607 -0.7195,-2.88911 0.07806,-1.00889 0.168267,-2.01692 0.234193,-3.02668 0.064,-0.98035 0.130467,-1.9611 0.155572,-2.94322 0.04715,-1.84469 -0.151612,-3.94343 0.265303,-5.77234 0.395907,-1.73676 1.398277,-3.41862 2.210061,-4.972847 1.53919,-4.103376 -0.04941,-0.96858 2.82048,-4.198226 0.566087,-0.637052 0.813498,-1.567122 1.502641,-2.068491 0.730538,-0.531485 1.734391,-0.522613 2.56074,-0.887723 4.514324,-1.9946 -0.05479,-0.775011 5.039386,-1.822274 1.001051,-0.107745 2.000544,-0.415625 3.003144,-0.323296 1.095955,0.100878 2.144479,0.516488 3.178891,0.892368 1.086151,0.394685 2.182627,0.805852 3.165824,1.413167 1.898761,1.172837 4.222389,3.440294 5.333611,5.371835 0.688076,1.196014 1.012697,2.567116 1.519046,3.850677 0.40428,1.39477 0.98345,2.75035 1.21282,4.18429 0.52916,3.3081 0.19805,6.02762 -0.66946,9.24029 -0.40162,1.48731 -1.087812,2.88396 -1.563357,4.34932 -0.442857,1.36463 -0.7936,2.75745 -1.190402,4.13617 -0.420537,1.065 -1.92667,0.47027 -1.506133,-0.59473 v 0 c 0.100485,-0.26119 3.074697,-7.98305 3.087472,-8.05391 0.26234,-1.45559 -0.137525,-2.96076 -0.04498,-4.4369 0.41683,-6.64882 1.4593,-2.14384 -0.856664,-8.1423 -0.891245,-2.231105 -1.645663,-4.68171 -3.26756,-6.548616 -1.834903,-2.112101 -3.054253,-2.35449 -5.57785,-3.143436 -0.931971,-0.291355 -1.853987,-0.666811 -2.82404,-0.778442 -0.888108,-0.102208 -1.785311,0.09685 -2.677967,0.145274 -0.836939,0.109461 -1.707643,0.06891 -2.510793,0.328519 -0.745043,0.240786 -1.376969,0.746627 -2.050532,1.145862 -0.349359,0.20707 -3.615534,2.264263 -3.887255,2.514467 -1.144333,1.053726 -1.880067,2.598295 -2.627151,3.91737 -0.829839,3.237662 -0.306438,1.629622 -1.587801,4.818352 -0.243046,0.87141 -0.322843,1.78079 -0.448534,2.67668 -0.129337,0.9219 -0.26395,1.84535 -0.316293,2.77481 -0.05965,1.0592 0.04148,4.59724 0.06537,5.65175 0.994478,4.98439 -0.01649,0.56252 1.449166,5.36143 0.267504,0.87587 0.337131,1.81722 0.707524,2.65478 1.019839,2.30594 3.258163,3.79009 4.341256,6.05925 0.57365,0.45113 1.14722,0.90235 1.720953,1.35337 1.163594,0.91472 1.916663,1.66093 3.324662,2.18064 0.552477,0.20393 1.141084,0.32922 1.729019,0.36311 1.153417,0.0665 2.294226,-0.45962 3.45783,-0.2378 0.507838,-0.3313 1.031793,-0.63911 1.523512,-0.99389 1.194624,-0.86194 2.097625,-1.69311 3.181965,-2.70058 0.612264,-0.56886 1.437031,-0.9837 1.816187,-1.72848 0.417497,-0.82011 0.300248,-1.81587 0.450371,-2.7238 0.501672,-0.76666 1.003344,-1.53332 1.505013,-2.29998 1.391137,-2.55115 1.388468,-2.11654 2.014919,-4.8938 0.163377,-0.72431 0.230383,-1.46712 0.359537,-2.19831 0.10205,-0.57775 0.256741,-1.14653 0.334002,-1.72813 0.05413,-0.40744 -0.04923,-0.83517 0.05919,-1.23163 0.07187,-0.26281 0.308019,-0.44951 0.462025,-0.67426 0.04939,-0.82475 1.215759,-0.75491 1.166379,0.0699 z"
       inkscape:connector-curvature="0" />
    <path
       style="fill:#000000;stroke-width:0.26458332"
       id="path64"
       d="m 78.151034,107.77642 c -0.266486,0.42758 0.546571,0.39619 0.463325,0.83328 -0.02959,0.15539 -0.251997,0.20451 -0.32729,0.34363 -0.05029,0.0929 -0.01558,0.21084 -0.02948,0.31557 -0.01519,0.11449 -0.03848,0.22774 -0.05772,0.34162 -0.111189,1.22933 -1.849729,1.07208 -1.73854,-0.15725 v 0 c 0.443029,-0.54034 0.04517,0.0909 0.04995,-0.53256 7.94e-4,-0.10665 0.151299,-0.17685 0.148392,-0.28346 -0.0024,-0.0889 -0.126371,-0.13042 -0.161907,-0.2119 -0.215103,-0.49322 0.171545,-0.01 -0.172283,-0.38813 -0.18441,-1.29087 1.641155,-1.55167 1.825564,-0.2608 z"
       inkscape:connector-curvature="0" />
    <path
       style="fill:#000000;stroke-width:0.26458332"
       id="path66"
       d="m 89.44082,107.86908 c -0.162131,0.12743 -0.378245,0.25368 -0.415811,0.48803 -0.01765,0.11004 0.07299,0.21252 0.0852,0.32329 0.0118,0.10699 -0.0093,0.21507 -0.014,0.3226 0.0136,0.10754 0.02718,0.21508 0.04077,0.32261 -0.0727,1.18425 -1.747488,1.08143 -1.674783,-0.10282 v 0 c -0.10967,-0.45522 -0.137297,-0.23683 0.09068,-0.65413 -0.03454,-0.14713 -0.276031,-0.17561 -0.321408,-0.31977 -0.02564,-0.0814 0.368917,-0.36725 0.384705,-0.37981 0,-1.29021 1.82463,-1.29021 1.82463,0 z"
       inkscape:connector-curvature="0" />
    <path
       style="fill:#000000;stroke-width:0.26458332"
       id="path68"
       d="m 83.469423,110.73623 c -0.0044,0.0701 -0.03816,0.62035 -0.04462,0.63347 -0.06915,0.14039 -0.242446,0.20681 -0.322268,0.34142 -0.09609,0.16205 -0.120226,0.35756 -0.194812,0.53057 -0.08534,0.19794 -0.240734,0.36971 -0.284319,0.58081 -0.05222,0.25292 0.003,0.51651 0.0044,0.77476 -0.334915,0.46084 -0.115025,1.03673 -0.275826,1.52903 -0.0796,0.24372 -0.289766,0.42572 -0.398287,0.658 -0.108797,0.23288 -0.271529,0.90849 -0.360215,1.17119 -0.04983,0.14762 -0.114998,0.28962 -0.172497,0.43442 0.03452,0.11476 0.202154,0.50235 0.09824,0.66783 -0.05514,0.0878 -0.242459,0.0689 -0.259805,0.17111 -0.02299,0.13543 0.376825,0.18245 0.214235,0.29807 -0.08224,0.0585 -0.194622,0.0534 -0.291935,0.0802 0.07169,0.0757 0.198336,0.12421 0.215053,0.22712 0.01032,0.0636 -0.113557,0.0633 -0.160748,0.10716 -0.02614,0.0243 -0.05824,0.0569 -0.05414,0.0924 0.0145,0.12529 0.263284,0.24395 0.108569,-0.12543 -0.06283,-0.15 -0.195442,-0.25998 -0.293161,-0.38997 0.146905,0.46574 -0.102912,-0.53272 -0.210275,-0.41913 -0.02768,0.0293 0.02188,0.079 0.04444,0.11244 0.124331,0.18413 0.246494,0.129 0.436174,0.091 0.168865,-0.0227 0.191085,-0.24148 0.327377,-0.29812 0.0786,-0.0327 0.169907,0.0107 0.254934,0.0146 0.123764,0.006 0.248737,-0.003 0.371414,0.0145 0.134771,0.0191 0.261207,0.0929 0.397312,0.0943 0.136551,0.001 0.267012,-0.0574 0.400521,-0.0862 0.966202,-0.17641 1.215691,1.19001 0.249486,1.36642 v 0 c -0.119253,0.0545 -0.240279,0.10534 -0.357759,0.16359 -0.224859,0.11149 -0.413772,0.27946 -0.687076,0.24163 -0.134069,-0.0186 -0.243009,-0.15046 -0.378322,-0.14746 -0.113988,0.003 -0.200639,0.10836 -0.300958,0.16254 -0.09367,-0.0152 -0.18733,-0.0303 -0.280996,-0.0455 -0.06236,0.0406 -0.125968,0.0793 -0.187097,0.12169 -0.06038,0.0419 -0.103804,0.12921 -0.177271,0.13108 -0.07132,0.002 -0.104584,-0.11761 -0.175786,-0.1221 -0.0729,-0.005 -0.134774,0.13904 -0.195649,0.0987 -0.115089,-0.0763 -0.134311,-0.24131 -0.201465,-0.36196 -0.118088,-0.0609 -0.236175,-0.12178 -0.354263,-0.18268 -0.08472,-0.17321 -0.209624,-0.33202 -0.254141,-0.51962 -0.02368,-0.0999 0.01826,-0.20802 0.05914,-0.30214 0.01042,-0.024 0.09147,0.01 0.07752,-0.0124 -0.02816,-0.0447 -0.09255,-0.0512 -0.136268,-0.0809 -0.01558,-0.0105 -0.02188,-0.039 -0.0407,-0.0391 -0.02207,-1.4e-4 -0.03586,0.0257 -0.05379,0.0385 0.64934,-0.3083 0.02859,0.0786 -0.03748,-0.31509 -0.01699,-0.10127 0.224843,-0.0865 0.244587,-0.1873 0.02019,-0.10311 -0.148281,-0.17011 -0.15402,-0.27503 -0.01312,-0.23971 0.346485,-0.4185 0.183251,-0.69651 0.13344,-1.40123 -0.175165,0.58947 0.628274,-0.97248 0.10767,-0.20931 0.0035,-0.47138 0.02627,-0.70566 0.02429,-0.24987 0.05415,-0.50071 0.1147,-0.74434 0.327826,-1.31902 0.319029,-0.19106 0.167492,-1.65402 0.580112,-0.65273 0.614799,-0.49055 0.725495,-1.32911 0.02975,-0.22534 -0.08203,-0.47731 0.01749,-0.68166 0.08557,-0.17572 0.356095,-0.18615 0.479092,-0.33805 0.0835,-0.10311 0.04537,-0.26553 0.105454,-0.38383 0.04076,-0.0803 0.125326,-0.12924 0.187987,-0.19387 0.4675,-0.81812 1.624505,-0.15698 1.157004,0.66115 z"
       inkscape:connector-curvature="0" />
    <path
       style="fill:#000000;stroke-width:0.26458332"
       id="path80"
       d="m 73.688841,126.46429 c -0.05637,0.11971 -0.03807,0.37742 -0.169119,0.35912 -0.158898,-0.0222 -0.08134,-0.42798 -0.241366,-0.41642 -0.182803,0.0132 -0.14169,0.37719 -0.307131,0.45606 -0.166216,0.0792 -0.377499,-0.11064 -0.550383,-0.0473 -2.273314,0.83341 1.569429,0.21047 -1.555039,0.57557 -0.509611,0.64112 -1.237183,1.0432 -1.810475,1.61294 -0.331388,0.32933 -0.629753,0.69184 -0.913516,1.06299 -0.294232,0.38485 -0.444727,0.89232 -0.817745,1.20141 -3.321394,2.75214 0.326538,-1.5212 -2.165776,1.62015 -0.203017,0.20202 -1.254204,1.21952 -1.453832,1.51829 -0.768324,1.1499 0.153651,0.38807 -0.731079,1.01516 -0.804489,1.03854 -2.27321,-0.0992 -1.46872,-1.13772 v 0 c 1.410086,-0.33858 0.150196,0.1748 0.986544,-0.94252 2.19561,-2.93324 -0.749729,2.18837 1.344522,-1.6858 0.40386,-0.22486 0.837586,-0.40294 1.211586,-0.67458 0.675663,-0.49076 1.521581,-1.47181 2.047451,-2.09877 0.32162,-0.38345 0.518269,-0.8989 0.936813,-1.17329 0.410226,-0.26894 0.982467,-0.15875 1.423265,-0.37394 0.363683,-0.17756 0.62221,-0.5177 0.933315,-0.77655 0.232503,-0.30977 0.377373,-0.7113 0.697505,-0.92931 0.248817,-0.16944 0.607066,-0.0497 0.89022,-0.15192 0.230529,-0.0832 0.388096,-0.31746 0.621091,-0.39347 0.322503,-0.10521 0.932826,0.1439 1.273432,-0.0726 1.027062,0.12838 0.845502,1.58087 -0.181563,1.45249 z"
       inkscape:connector-curvature="0" />
    <path
       style="fill:#000000;stroke-width:0.26458332"
       id="path82"
       d="m 96.928103,126.96953 c -0.08996,0.0386 -0.190932,-0.14566 -0.279107,-0.10083 -0.083,0.0422 -0.08129,0.20807 -0.173796,0.21868 -0.08716,0.01 -0.113451,-0.14504 -0.195427,-0.17631 -0.230315,0.0389 -0.132498,0.0653 -0.300736,-0.044 0.01445,-0.13139 0.135173,-0.29913 0.04331,-0.39418 -0.07896,-0.0817 -0.212384,0.088 -0.32507,0.10264 -0.321535,0.0417 -0.313957,-0.048 -0.490064,-0.30672 -0.03842,-0.0564 -0.09127,-0.11078 -0.100573,-0.17841 -0.0095,-0.069 0.03207,-0.13544 0.04811,-0.20316 0.258557,-0.17476 0.395886,-0.14018 0.331227,-0.47105 -0.0296,-0.15148 -0.177731,-0.31198 -0.108773,-0.45006 0.02968,-0.0594 0.898816,-0.43833 0.936329,-0.45519 0.167359,-0.0414 0.331631,-0.1503 0.502076,-0.12432 0.19771,0.0301 0.346633,0.20129 0.529794,0.2816 0.476279,0.20885 0.997926,0.30379 1.471157,0.51946 0.892524,0.40675 0.975775,0.57881 1.74163,1.23713 0.37804,0.17026 0.78746,0.28333 1.13411,0.51078 0.36509,0.23955 0.65524,0.57749 0.97601,0.87376 0.26799,0.24751 1.63812,1.58106 1.93735,1.80499 1.6143,1.20808 0.84568,-0.0148 1.60727,1.87751 0.31132,0.20551 0.65751,0.36609 0.93396,0.61654 0.24274,0.21991 0.40151,0.51763 0.603,0.77587 0.64931,0.83217 0.33803,0.47541 1.00884,1.16893 0.73918,0.76841 -0.34752,1.81377 -1.08669,1.04536 v 0 c -1.64508,-1.17527 0.43772,0.44542 -1.03524,-1.20376 -1.72991,-1.93687 0.12923,0.99629 -1.331,-1.53777 -1.31522,-2.28701 0.35738,0.0467 -1.96927,-1.3911 -0.36274,-0.22416 -0.51711,-0.67967 -0.80521,-0.99406 -0.28299,-0.30881 -0.60108,-0.58356 -0.90482,-0.87199 -1.13506,-1.0778 -0.55699,-0.67525 -1.926507,-1.32421 -2.482651,-0.35878 0.173805,0.33115 -1.527723,-1.17981 -0.186364,-0.16549 -0.506277,0.0204 -0.746236,-0.047 -0.35048,-0.0984 -0.531495,-0.50232 -0.893834,-0.55864 0.08172,0.0716 0.142785,0.25091 0.245169,0.21464 0.123735,-0.0438 0.04132,-0.42227 0.08158,-0.52517 0.01466,-0.0375 0.135851,-0.0721 0.09564,-0.0737 -0.07671,-0.003 -0.178483,0.004 -0.219843,0.0686 -0.03096,0.0484 0.114896,0.004 0.172345,0.006 0.177056,-0.18387 -0.01008,0.0508 -0.08526,-0.10194 -0.0389,-0.079 0.01241,-0.176 0.0099,-0.26404 -0.0019,-0.0676 0.04448,-0.2068 -0.02294,-0.20155 -0.137871,0.0107 -0.206872,0.23339 -0.34513,0.23024 -0.09,-0.002 0.08864,-0.15672 0.132966,-0.23508 -0.01376,0.10692 -0.124425,0.25212 -0.0413,0.32076 0.168148,0.13886 0.10084,-0.40493 0.207039,-0.38766 0.264691,0.043 0.01886,0.74194 0.401029,0.5164 0.998569,0.16643 0.763203,1.57862 -0.235366,1.41219 z"
       inkscape:connector-curvature="0" />
    <path
       style="fill:#000000;stroke-width:0.26458332"
       id="path119"
       d="m 83.60407,127.1824 c -0.06653,0.68712 -0.149654,0.26995 -0.621927,0.36761 -0.104595,0.0216 -0.200091,0.14395 -0.301165,0.10942 -0.865618,-0.29574 0.246923,-0.40943 -0.608319,-0.24948 -0.130067,-0.009 -0.273383,0.031 -0.3902,-0.0269 -0.120599,-0.0598 -0.164819,-0.21625 -0.269959,-0.30028 -0.10844,-0.0867 -0.243107,-0.13421 -0.362416,-0.20517 -0.132408,-0.0788 -0.361289,-0.0931 -0.392581,-0.24392 0.271381,-0.71155 0.283067,-0.38293 0.09672,-0.98172 -0.381661,-0.72602 -0.214313,-0.12258 0.02873,-0.88879 0.0487,-0.15353 -0.01148,-0.33122 0.04826,-0.4808 0.06177,-0.15468 0.268004,-0.2347 0.302583,-0.39762 0.04371,-0.20592 -0.21282,-0.45818 -0.08538,-0.62573 0.146579,-0.19272 0.468209,-0.12359 0.702312,-0.18538 0.706859,-1.0427 -0.153331,-0.0884 0.981591,-0.37881 0.208347,-0.0533 0.290867,-0.38245 0.505087,-0.40141 0.216141,-0.0191 0.391584,0.18934 0.574609,0.30589 0.498393,0.31739 0.463857,0.3512 0.813856,0.80344 0.670131,0.23673 0.716447,0.0643 0.829074,0.82165 0.02959,0.19896 -0.0587,0.4067 -0.01588,0.60324 0.04471,0.20516 0.241824,0.36064 0.271243,0.56855 0.05041,0.35623 -0.208431,0.77116 -0.353274,1.06481 -0.186351,0.0865 -0.477613,0.071 -0.559051,0.25961 -0.09576,0.2218 0.250875,0.4965 0.139967,0.71112 -0.163764,0.3169 -0.940956,0.015 -1.129136,0.0647 -0.203607,0.0538 -0.350388,0.23369 -0.525582,0.35053 -1.36259,-0.22707 -1.041463,-2.15407 0.321131,-1.92699 v 0 c -0.09175,-0.0678 -0.189093,-0.15548 -0.0064,0.25049 0.113607,0.25249 0.145717,-0.0349 0.167034,-0.0493 0.08586,-0.0579 0.194019,-0.0724 0.291031,-0.10859 -0.430419,-0.71962 -0.105214,0.0681 0.155578,-0.60556 0.02733,-0.0706 -0.22003,-0.52464 -0.207746,-0.653 0.01479,-0.15458 0.276125,-0.32274 0.168233,-0.43442 -0.118925,-0.12311 -0.337701,0.0561 -0.506553,0.0842 0.06674,-0.61849 0.139764,-0.21613 -0.142779,-0.37456 -0.07093,-0.0398 -0.09504,-0.18606 -0.1748,-0.1702 -0.08205,0.0163 -0.02713,0.20579 -0.108199,0.22644 -0.347808,0.0886 -0.3043,-0.49425 -0.251044,0.17859 -0.217318,0.0196 -0.373804,-0.007 -0.535366,0.18861 -0.05863,0.0711 -0.05855,0.17479 -0.08786,0.26216 -0.09518,0.28372 -0.142052,0.39124 0.04596,0.64614 -0.01267,0.0168 -0.262866,0.3392 -0.237254,0.34887 0.104209,0.0393 0.198858,-0.14546 0.308811,-0.12766 0.06026,0.01 -0.06924,0.10462 -0.08008,0.16469 -0.0067,0.037 -0.0066,0.11324 0.03078,0.10865 0.05657,-0.007 0.07665,-0.0844 0.114978,-0.12656 0.02747,0.0369 0.063,0.0689 0.08242,0.11058 0.04012,0.0861 0.03177,0.19744 0.09441,0.26881 0.02751,0.0314 0.08224,-0.0273 0.123407,-0.0206 0.05733,0.009 0.102825,0.0687 0.160893,0.067 0.158853,-0.005 0.175183,-0.57385 0.09604,-0.46699 1.056891,-0.3523 1.555112,1.14237 0.498223,1.49466 z"
       inkscape:connector-curvature="0" />
    <path
       style="fill:#000000;stroke-width:0.26458332"
       id="path143"
       d="m 84.822082,85.851591 c -0.32901,-0.176993 -0.09832,-0.345495 -0.10242,-0.617288 -0.0016,-0.108284 -0.05041,-0.21064 -0.07562,-0.31596 0.26579,-1.14762 1.888771,-0.771737 1.622981,0.375883 v 0 c -0.0088,-0.0271 -0.0068,-0.06049 -0.02627,-0.08129 -0.111511,-0.119272 -0.160335,0.225819 -0.0088,0.168679 0.332322,0.996969 -1.077605,1.466946 -1.409927,0.469974 z"
       inkscape:connector-curvature="0" />
    <path
       style="fill:#000000;stroke-width:0.26458332"
       id="path145"
       d="m 84.670801,80.812591 c 0.01513,-0.102057 0.03028,-0.204118 0.04542,-0.306175 -0.06088,-0.176851 -0.191841,-0.343739 -0.182644,-0.530548 0.01169,-0.237424 0.190291,-0.438825 0.241792,-0.670891 0.06029,-0.271645 0.05709,-0.553611 0.09124,-0.829762 0.199212,-1.610831 0.07122,-0.246494 0.205189,-1.905416 -0.0054,-0.333975 -0.03924,-1.470967 0.01331,-1.828691 0.03669,-0.249883 0.175913,-0.478311 0.206446,-0.729023 0.02479,-0.20357 -0.04524,-0.408662 -0.04291,-0.613724 0.06633,-0.52622 0.05891,-0.288772 0.04703,-0.711132 -0.0463,-1.15771 1.590951,-1.223184 1.637247,-0.06548 v 0 c 0.10073,1.14822 0.01249,-0.423516 -0.105685,0.906275 -0.01849,0.208195 0.05999,0.417353 0.0423,0.62562 -0.02148,0.253066 -0.136348,0.492226 -0.158705,0.745212 -0.05434,0.61499 0.09503,1.237181 0.01021,1.852129 -0.09508,0.312753 -0.217916,0.618378 -0.285224,0.93826 -0.267464,1.271124 0.01143,0.545695 -0.112191,1.74835 -0.02315,0.225145 -0.139539,0.436663 -0.1471,0.662869 -0.0058,0.173667 0.07193,0.34 0.107894,0.51 -0.0123,0.119931 -0.02461,0.239861 -0.03691,0.359791 -0.11149,1.114886 -1.688174,0.957218 -1.576687,-0.157668 z"
       inkscape:connector-curvature="0" />
  </g>
</svg>
