<?xml version="1.0" encoding="UTF-8" standalone="no"?>
<!-- Created with Inkscape (http://www.inkscape.org/) -->

<svg
   xmlns:dc="http://purl.org/dc/elements/1.1/"
   xmlns:cc="http://creativecommons.org/ns#"
   xmlns:rdf="http://www.w3.org/1999/02/22-rdf-syntax-ns#"
   xmlns:svg="http://www.w3.org/2000/svg"
   xmlns="http://www.w3.org/2000/svg"
   xmlns:sodipodi="http://sodipodi.sourceforge.net/DTD/sodipodi-0.dtd"
   xmlns:inkscape="http://www.inkscape.org/namespaces/inkscape"
   width="210mm"
   height="297mm"
   viewBox="0 0 210 297"
   version="1.1"
   id="svg8"
   inkscape:export-filename="/home/rflec028/bitmap.png"
   inkscape:export-xdpi="96"
   inkscape:export-ydpi="96"
   inkscape:version="0.92.3 (2405546, 2018-03-11)"
   sodipodi:docname="R02.svg">
  <defs
     id="defs2" />
  <sodipodi:namedview
     id="base"
     pagecolor="#ffffff"
     bordercolor="#666666"
     borderopacity="1.0"
     inkscape:pageopacity="0.0"
     inkscape:pageshadow="2"
     inkscape:zoom="6.6263345"
     inkscape:cx="393.00671"
     inkscape:cy="661.25"
     inkscape:document-units="mm"
     inkscape:current-layer="layer1"
     showgrid="false"
     inkscape:window-width="1600"
     inkscape:window-height="845"
     inkscape:window-x="0"
     inkscape:window-y="27"
     inkscape:window-maximized="1" />
  <metadata
     id="metadata5">
    <rdf:RDF>
      <cc:Work
         rdf:about="">
        <dc:format>image/svg+xml</dc:format>
        <dc:type
           rdf:resource="http://purl.org/dc/dcmitype/StillImage" />
        <dc:title></dc:title>
      </cc:Work>
    </rdf:RDF>
  </metadata>
  <g
     inkscape:label="Layer 1"
     inkscape:groupmode="layer"
     id="layer1">
    <path
       id="path95"
       d="m 100.24694,112.7527 c -3.489123,2.08497 -2.750063,1.61131 -2.047451,1.17986 0.019,-0.0112 0.03749,-0.0232 0.05607,-0.035 0.02066,-0.0128 0.04118,-0.0259 0.06213,-0.0382 0.720903,-0.43466 1.446089,-0.8634 2.187201,-1.26269 0.0246,-0.0141 0.0494,-0.0279 0.0745,-0.0411 0.0251,-0.0139 0.0508,-0.0266 0.0762,-0.0398 0.0266,-0.0142 0.054,-0.0269 0.081,-0.0401 0.0288,-0.0141 0.0581,-0.0272 0.0871,-0.0407 0.0293,-0.0135 0.0584,-0.0274 0.0883,-0.0395 0.0307,-0.0118 0.062,-0.0219 0.0934,-0.0315 0.0332,-0.01 0.0671,-0.0162 0.10114,-0.0222 0.0325,-0.006 0.065,-0.011 0.0975,-0.0162 0.031,-0.006 0.0624,-0.009 0.0939,-0.011 0.0319,-0.002 0.064,-0.002 0.096,-2.7e-4 0.0315,8e-4 0.0627,0.005 0.0939,0.009 0.0313,0.005 0.0622,0.0117 0.0929,0.0198 0.0309,0.008 0.0613,0.0188 0.0915,0.0292 0.031,0.0104 0.0608,0.0235 0.0901,0.0377 0.0303,0.0143 0.0592,0.0311 0.0877,0.0486 0.0294,0.0182 0.0574,0.0383 0.0848,0.0592 0.0282,0.0224 0.0548,0.0467 0.0808,0.0716 0.0266,0.0263 0.0514,0.0543 0.0755,0.0828 0.025,0.0307 0.0487,0.0625 0.0715,0.0949 0.024,0.0341 0.0463,0.0695 0.068,0.10519 0.0232,0.0387 0.0437,0.0789 0.0632,0.11951 0.021,0.0449 0.0397,0.0909 0.0578,0.13698 0.0202,0.0511 0.0374,0.10325 0.0541,0.15558 0.0176,0.0556 0.0333,0.11187 0.0481,0.16832 0.0164,0.0631 0.0298,0.12691 0.0427,0.19082 0.0138,0.0677 0.0239,0.13607 0.0353,0.20421 0.0118,0.0693 0.023,0.13875 0.0336,0.20828 0.0115,0.0721 0.0199,0.14458 0.0278,0.21712 0.008,0.0773 0.0161,0.15476 0.0222,0.23232 0.006,0.0843 0.0111,0.16862 0.016,0.25298 0.005,0.0883 0.009,0.17652 0.0138,0.2648 0.005,0.0932 0.007,0.18651 0.009,0.27979 0.002,0.0986 0.002,0.19723 0.003,0.29585 8e-4,0.0996 0.001,0.19916 0.002,0.29873 7.9e-4,0.10437 -5.3e-4,0.20875 -10e-4,0.31312 -7.9e-4,0.10726 -0.002,0.21452 -0.003,0.32179 -8e-4,0.10575 -0.002,0.21149 -0.003,0.31723 -0.002,0.11016 -0.004,0.22033 -0.006,0.33049 -0.002,0.10874 -0.004,0.21748 -0.006,0.32622 -0.001,0.11586 -0.005,0.23165 -0.0111,0.34736 -0.007,0.12148 -0.0141,0.24294 -0.0211,0.36441 -0.006,0.11581 -0.0134,0.23156 -0.0211,0.34728 -0.008,0.11433 -0.0145,0.22874 -0.0219,0.3431 -0.008,0.12925 -0.0183,0.25836 -0.029,0.38742 -0.0116,0.13751 -0.0225,0.27509 -0.0333,0.41267 -0.0104,0.13229 -0.0203,0.26461 -0.0301,0.39694 -0.01,0.13132 -0.0185,0.26269 -0.0276,0.39405 -0.0101,0.15252 -0.0246,0.30468 -0.0396,0.45678 -0.0154,0.1548 -0.0307,0.30961 -0.0457,0.46444 -0.0141,0.14599 -0.0277,0.29202 -0.0409,0.43809 -0.0124,0.1429 -0.0255,0.28575 -0.039,0.42856 -0.0147,0.15108 -0.0307,0.30202 -0.0466,0.45298 -0.0152,0.1448 -0.03,0.28964 -0.0446,0.4345 -0.0135,0.13709 -0.0284,0.27404 -0.0427,0.41104 -0.0137,0.13085 -0.0267,0.26176 -0.0393,0.39271 -0.0118,0.12844 -0.0247,0.25678 -0.0372,0.38515 -0.0122,0.12648 -0.0238,0.25301 -0.0352,0.37957 -0.0111,0.12145 -0.0207,0.24302 -0.0316,0.36448 -0.0108,0.11623 -0.0216,0.23246 -0.0318,0.34874 -0.01,0.11901 -0.0206,0.23796 -0.0319,0.35685 -0.0113,0.11752 -0.0226,0.23504 -0.0338,0.35258 -0.0104,0.10928 -0.0203,0.21858 -0.0302,0.3279 -0.009,0.1014 -0.0181,0.20283 -0.0268,0.30427 -0.008,0.0953 -0.0161,0.19058 -0.0238,0.28589 -0.007,0.0926 -0.0144,0.18526 -0.0211,0.27792 -0.007,0.0917 -0.0127,0.18346 -0.0188,0.27522 -0.006,0.0883 -0.0113,0.17657 -0.0166,0.26488 -0.006,0.0876 -0.0124,0.17522 -0.0185,0.26284 -0.006,0.088 -0.0114,0.17605 -0.0181,0.26401 -0.007,0.0839 -0.0131,0.16773 -0.0195,0.25161 -0.006,0.0808 -0.0134,0.1615 -0.0205,0.24222 -0.007,0.0765 -0.0132,0.15307 -0.0196,0.22963 -0.007,0.0728 -0.0141,0.14561 -0.0212,0.21842 -0.007,0.069 -0.0132,0.13798 -0.0195,0.207 -0.006,0.0669 -0.0134,0.13375 -0.0204,0.20059 -0.007,0.0639 -0.0132,0.12787 -0.0195,0.19184 -0.006,0.0633 -0.0127,0.12646 -0.0197,0.18963 -0.007,0.0613 -0.0133,0.12263 -0.0196,0.18397 -0.007,0.0602 -0.014,0.12028 -0.0221,0.18028 -0.008,0.0593 -0.0158,0.11872 -0.0247,0.17795 -0.008,0.0581 -0.0175,0.11608 -0.0271,0.174 -0.009,0.0556 -0.0198,0.11085 -0.03,0.16621 -0.009,0.0537 -0.0208,0.10695 -0.0332,0.15998 -0.0124,0.0534 -0.0274,0.10606 -0.0421,0.15883 -0.0147,0.052 -0.031,0.10346 -0.0474,0.15492 -0.0156,0.0501 -0.0327,0.0997 -0.0507,0.14903 -0.0178,0.05 -0.0384,0.0989 -0.0594,0.14767 -0.0202,0.0475 -0.0423,0.0942 -0.0651,0.14045 -0.024,0.048 -0.0501,0.0949 -0.076,0.14188 -0.0264,0.0472 -0.0538,0.0937 -0.0819,0.13983 -0.0288,0.0461 -0.0586,0.0915 -0.0896,0.13613 -0.0317,0.0453 -0.0654,0.0891 -0.0996,0.13255 -0.0322,0.0405 -0.0659,0.0797 -0.0999,0.11869 -0.0305,0.0349 -0.0613,0.0695 -0.0911,0.10499 0,0 -2.109354,1.21784 -2.109354,1.21784 v 0 c 0.02981,-0.0355 0.06056,-0.0701 0.09108,-0.10499 0.03399,-0.039 0.06769,-0.0782 0.09992,-0.1187 0.03417,-0.0434 0.06781,-0.0873 0.09955,-0.13254 0.03096,-0.0446 0.06085,-0.09 0.08959,-0.13613 0.02814,-0.0461 0.0556,-0.0927 0.08194,-0.13983 0.02595,-0.047 0.05202,-0.0939 0.07605,-0.14188 0.02283,-0.0463 0.04487,-0.093 0.06512,-0.14046 0.02096,-0.0487 0.04162,-0.0976 0.05938,-0.14766 0.01804,-0.0493 0.03514,-0.0989 0.05074,-0.14904 0.01638,-0.0515 0.03269,-0.10294 0.0474,-0.15491 0.01466,-0.0528 0.02971,-0.10546 0.04207,-0.15883 0.01243,-0.053 0.02381,-0.10632 0.0332,-0.15998 0.01024,-0.0554 0.02096,-0.11065 0.03001,-0.16621 0.0095,-0.0579 0.01863,-0.11591 0.02705,-0.174 0.0089,-0.0592 0.01662,-0.11861 0.02466,-0.17795 0.0081,-0.06 0.01529,-0.12012 0.02212,-0.18028 0.0063,-0.0614 0.01286,-0.12267 0.01958,-0.18397 0.0069,-0.0632 0.014,-0.12633 0.01966,-0.18964 0.0063,-0.064 0.01278,-0.12791 0.01953,-0.19183 0.007,-0.0668 0.01445,-0.13365 0.02037,-0.2006 0.0064,-0.069 0.01286,-0.13801 0.01953,-0.207 0.0071,-0.0728 0.01442,-0.14558 0.02117,-0.21841 0.0064,-0.0766 0.01288,-0.1531 0.0196,-0.22963 0.0071,-0.0807 0.01455,-0.16141 0.02048,-0.24223 0.0063,-0.0839 0.01291,-0.16774 0.01945,-0.2516 0.0067,-0.088 0.01222,-0.176 0.01812,-0.26402 0.0061,-0.0876 0.01254,-0.17521 0.01852,-0.26283 0.0053,-0.0883 0.0108,-0.17661 0.01664,-0.26489 0.006,-0.0918 0.0122,-0.18349 0.01876,-0.27521 0.0067,-0.0927 0.01365,-0.18531 0.02114,-0.27792 0.0077,-0.0953 0.01558,-0.19062 0.02381,-0.28589 0.0087,-0.10145 0.01765,-0.20287 0.02682,-0.30427 0.0099,-0.10932 0.01987,-0.21863 0.03021,-0.32791 0.01117,-0.11753 0.02244,-0.23505 0.03377,-0.35258 0.01132,-0.11888 0.02196,-0.23783 0.0319,-0.35684 0.01024,-0.11628 0.02098,-0.23252 0.03182,-0.34875 0.01093,-0.12145 0.02058,-0.24303 0.03166,-0.36447 0.01135,-0.12656 0.02291,-0.2531 0.03517,-0.37957 0.01252,-0.12838 0.02545,-0.25671 0.03724,-0.38516 0.01265,-0.13094 0.02564,-0.26186 0.03931,-0.3927 0.0143,-0.13701 0.0291,-0.27396 0.0427,-0.41104 0.0145,-0.14487 0.0294,-0.2897 0.0446,-0.4345 0.0158,-0.15096 0.0319,-0.30191 0.0465,-0.45298 0.0135,-0.14281 0.0266,-0.28566 0.039,-0.42857 0.0132,-0.14606 0.0268,-0.2921 0.0409,-0.43808 0.015,-0.15484 0.0302,-0.30965 0.0457,-0.46444 0.015,-0.1521 0.0294,-0.30426 0.0395,-0.45678 0.009,-0.13136 0.018,-0.26273 0.0276,-0.39405 0.01,-0.13234 0.0197,-0.26466 0.0301,-0.39694 0.0108,-0.13759 0.0217,-0.27516 0.0333,-0.41267 0.0106,-0.12907 0.0208,-0.25818 0.029,-0.38743 0.007,-0.11435 0.014,-0.22876 0.0219,-0.34309 0.008,-0.11572 0.0148,-0.23148 0.0211,-0.34729 0.007,-0.12147 0.0144,-0.24292 0.0211,-0.36441 0.006,-0.1157 0.01,-0.2315 0.0111,-0.34735 0.002,-0.10875 0.004,-0.21749 0.006,-0.32623 0.002,-0.11016 0.004,-0.22032 0.006,-0.33048 0.002,-0.10574 0.003,-0.21148 0.003,-0.31724 8e-4,-0.10726 0.002,-0.21452 0.003,-0.32179 7.9e-4,-0.10437 0.002,-0.20874 10e-4,-0.31311 -5.3e-4,-0.0996 -10e-4,-0.19916 -0.002,-0.29873 -7.9e-4,-0.0986 -0.001,-0.19724 -0.003,-0.29585 -0.002,-0.0933 -0.005,-0.18659 -0.009,-0.27979 -0.004,-0.0883 -0.009,-0.17656 -0.0138,-0.2648 -0.005,-0.0844 -0.01,-0.16872 -0.016,-0.25299 -0.006,-0.0776 -0.0139,-0.15496 -0.0222,-0.23232 -0.008,-0.0725 -0.0163,-0.14504 -0.0278,-0.21712 -0.0106,-0.0695 -0.0217,-0.13895 -0.0336,-0.20827 -0.0113,-0.0682 -0.0215,-0.13651 -0.0353,-0.20422 -0.0129,-0.0639 -0.0263,-0.12771 -0.0427,-0.19081 -0.0148,-0.0564 -0.0305,-0.11268 -0.0481,-0.16832 -0.0166,-0.0523 -0.0339,-0.10449 -0.0541,-0.15559 -0.0181,-0.0461 -0.0368,-0.0921 -0.0578,-0.13698 -0.0195,-0.0406 -0.0399,-0.0809 -0.0632,-0.1195 -0.0216,-0.0357 -0.0439,-0.071 -0.0679,-0.10519 -0.0228,-0.0324 -0.0465,-0.0642 -0.0715,-0.0949 -0.02416,-0.0285 -0.04897,-0.0565 -0.07555,-0.0828 -0.02598,-0.0249 -0.05258,-0.0492 -0.08079,-0.0716 -0.02742,-0.0209 -0.05546,-0.0411 -0.08483,-0.0592 -0.02855,-0.0174 -0.05743,-0.0343 -0.08771,-0.0486 -0.02936,-0.0142 -0.05919,-0.0274 -0.09015,-0.0377 -0.03029,-0.0104 -0.0606,-0.0208 -0.09155,-0.0292 -0.03064,-0.008 -0.0615,-0.0152 -0.09286,-0.0198 -0.03115,-0.004 -0.06237,-0.009 -0.09386,-0.009 -0.03197,-0.001 -0.06401,-0.002 -0.09596,2.7e-4 -0.03149,0.002 -0.06284,0.005 -0.09389,0.011 -0.03254,0.005 -0.06509,0.0105 -0.09755,0.0162 -0.034,0.006 -0.06795,0.0125 -0.101135,0.0222 -0.03142,0.01 -0.06275,0.0196 -0.09342,0.0315 -0.0299,0.012 -0.059,0.0259 -0.08826,0.0395 -0.02908,0.0135 -0.05835,0.0266 -0.08715,0.0407 -0.02706,0.0133 -0.05443,0.0259 -0.08103,0.0401 -0.02543,0.0132 -0.05112,0.0259 -0.07619,0.0398 -0.02514,0.0132 -0.04989,0.027 -0.07453,0.0411 -0.757486,0.40812 2.816489,-1.64432 2.031509,-1.17297 -0.021,0.0123 -0.0415,0.0254 -0.0621,0.0382 -0.0186,0.0119 -0.0371,0.0239 -0.0561,0.035 -0.712532,0.43754 -1.413445,0.88747 -2.171262,1.2558 0,0 2.109362,-1.21783 2.109362,-1.21783 z"
       inkscape:connector-curvature="0"
       style="stroke-width:0.26458332" />
    <path
       id="path97"
       d="m 101.49124,113.84921 c 0.0144,-0.0112 0.0293,-0.0218 0.044,-0.0326 0.0174,-0.0129 0.035,-0.0255 0.0525,-0.0383 0.0198,-0.0143 0.0398,-0.0282 0.0601,-0.0419 0.0221,-0.0157 0.0441,-0.0316 0.0664,-0.0472 0.0213,-0.0149 0.0428,-0.0296 0.064,-0.0445 0.0225,-0.016 0.045,-0.0322 0.0674,-0.0483 0.0246,-0.0181 0.049,-0.0363 0.0735,-0.0546 0.025,-0.0187 0.0499,-0.0376 0.0754,-0.0557 0.0285,-0.02 0.057,-0.0399 0.0863,-0.0587 0.0309,-0.0206 0.0626,-0.0398 0.0942,-0.0592 0.0321,-0.0199 0.0647,-0.0389 0.0973,-0.058 0.72925,-0.4416 1.46161,-0.87135 2.21115,-1.27343 0.0343,-0.0186 0.069,-0.0362 0.10407,-0.0533 0.0342,-0.0168 0.0689,-0.0325 0.10385,-0.0477 0.0348,-0.015 0.07,-0.0289 0.1054,-0.0423 0.0347,-0.0131 0.0696,-0.0255 0.10468,-0.0375 0.0348,-0.012 0.0699,-0.023 0.10525,-0.0333 0.0366,-0.0105 0.0734,-0.0202 0.11048,-0.0286 0.0357,-0.008 0.0718,-0.0148 0.108,-0.0205 0.0365,-0.005 0.0734,-0.007 0.11023,-0.009 0.0365,-0.002 0.0731,-10e-4 0.10954,5.3e-4 0.0362,0.002 0.0722,0.006 0.10812,0.0111 0.0356,0.006 0.0709,0.0135 0.10559,0.0232 0.0364,0.009 0.0712,0.0235 0.10535,0.039 0.0356,0.0168 0.0698,0.0362 0.10331,0.0567 0.0348,0.0207 0.0681,0.0438 0.0997,0.0691 0.0347,0.0282 0.065,0.0612 0.0936,0.0954 0.0343,0.0414 0.0611,0.0879 0.086,0.13533 0.0298,0.059 0.0516,0.12147 0.0707,0.18461 0.0233,0.0792 0.0341,0.16105 0.0438,0.24275 0.0103,0.0971 0.0174,0.19444 0.0234,0.29186 0.007,0.10629 0.01,0.21275 0.0123,0.3192 0.003,0.11475 0.003,0.22954 0.002,0.34431 -5.3e-4,0.11905 -0.003,0.23807 -0.006,0.3571 -0.002,0.12096 -0.007,0.24187 -0.0103,0.36279 -0.003,0.12599 -0.008,0.25193 -0.013,0.37788 -0.005,0.13471 -0.0121,0.26934 -0.019,0.40398 -0.007,0.14265 -0.0155,0.28524 -0.0244,0.4278 -0.009,0.14402 -0.0179,0.28804 -0.0265,0.43209 -0.008,0.14284 -0.0173,0.28556 -0.029,0.42813 -0.0125,0.1522 -0.0276,0.30416 -0.0424,0.45614 -0.0151,0.14762 -0.0309,0.29517 -0.0463,0.44276 -0.0145,0.13785 -0.028,0.27582 -0.0423,0.41369 -0.0146,0.14003 -0.0334,0.27959 -0.0534,0.41894 -0.0212,0.14507 -0.0448,0.28977 -0.0679,0.43452 -0.0218,0.13633 -0.0431,0.27274 -0.0639,0.40923 -0.0197,0.12942 -0.0384,0.25898 -0.0568,0.3886 -0.018,0.12826 -0.0352,0.25663 -0.052,0.38504 -0.0171,0.13032 -0.0332,0.26075 -0.0489,0.39124 -0.0158,0.13328 -0.0307,0.26666 -0.0462,0.39997 -0.0158,0.13308 -0.0315,0.26617 -0.0469,0.39931 -0.0144,0.1249 -0.0283,0.24986 -0.042,0.37483 -0.0128,0.11621 -0.0252,0.23245 -0.0373,0.34872 -0.0117,0.11544 -0.0245,0.23077 -0.0382,0.34599 -0.0139,0.11407 -0.028,0.22811 -0.0418,0.34219 -0.0128,0.10628 -0.0254,0.2126 -0.0376,0.31895 -0.0119,0.10307 -0.023,0.20623 -0.0334,0.30946 -0.0113,0.10747 -0.0224,0.21496 -0.0334,0.32246 -0.0105,0.10332 -0.0207,0.20666 -0.0303,0.31006 -0.009,0.10868 -0.0174,0.21741 -0.0255,0.32615 -0.009,0.118 -0.018,0.23594 -0.0271,0.35391 -0.009,0.11575 -0.0173,0.23155 -0.0255,0.34735 -0.008,0.11731 -0.0156,0.23468 -0.0236,0.35201 -0.009,0.12618 -0.0198,0.2522 -0.0304,0.37824 -0.0103,0.12235 -0.0202,0.24473 -0.03,0.36712 -0.009,0.11567 -0.0181,0.23137 -0.0267,0.34709 -0.008,0.11328 -0.0161,0.22661 -0.0246,0.33987 -0.009,0.11241 -0.017,0.22483 -0.0252,0.33726 -0.008,0.10662 -0.0153,0.21327 -0.0226,0.31992 -0.007,0.10268 -0.0139,0.2053 -0.0217,0.30789 -0.008,0.099 -0.0149,0.19804 -0.022,0.29709 -0.007,0.0974 -0.013,0.19484 -0.02,0.29223 -0.007,0.0943 -0.0144,0.18866 -0.0215,0.283 -0.006,0.091 -0.014,0.18187 -0.0217,0.27275 -0.007,0.0862 -0.0145,0.17246 -0.0214,0.25872 -0.007,0.0842 -0.0154,0.16829 -0.0228,0.25246 -0.007,0.0827 -0.0157,0.16534 -0.024,0.24797 -0.008,0.0777 -0.0152,0.15548 -0.0237,0.23313 -0.008,0.0775 -0.0174,0.15489 -0.0267,0.23226 -0.009,0.0737 -0.0175,0.14751 -0.027,0.22117 -0.009,0.0722 -0.0183,0.14443 -0.0283,0.21653 -0.01,0.0692 -0.0191,0.13838 -0.0296,0.20744 -0.01,0.0677 -0.021,0.13516 -0.0331,0.20247 -0.0115,0.0667 -0.0255,0.1329 -0.0397,0.19906 -0.0131,0.0633 -0.0283,0.12616 -0.0447,0.1887 -0.0159,0.0614 -0.0348,0.12187 -0.054,0.18225 -0.0183,0.0582 -0.0386,0.11583 -0.0593,0.17324 -0.02,0.055 -0.0425,0.10905 -0.0658,0.16271 -0.0231,0.0519 -0.0468,0.1036 -0.0713,0.15486 -0.0233,0.0487 -0.0483,0.0966 -0.0741,0.14406 -0.0259,0.0477 -0.055,0.0936 -0.0852,0.13877 -0.0302,0.0442 -0.0619,0.0873 -0.0939,0.13022 -0.0315,0.0415 -0.063,0.083 -0.0958,0.12345 -0.0311,0.0384 -0.0627,0.0764 -0.0942,0.11464 -0.0306,0.0366 -0.0617,0.0728 -0.0933,0.10856 -0.0306,0.0351 -0.0626,0.0688 -0.0941,0.10295 -0.0304,0.0324 -0.0612,0.0645 -0.0919,0.0966 -0.019,0.0193 -0.01,0.01 -0.0282,0.0285 0,0 -2.10935,1.21784 -2.10935,1.21784 v 0 c 0.0186,-0.0187 0.009,-0.009 0.0282,-0.0285 0.0307,-0.0321 0.0615,-0.0642 0.0919,-0.0966 0.0316,-0.0341 0.0636,-0.0679 0.0941,-0.10295 0.0315,-0.0358 0.0627,-0.0719 0.0933,-0.10856 0.0314,-0.0382 0.063,-0.0762 0.0942,-0.11464 0.0328,-0.0405 0.0643,-0.0819 0.0958,-0.12345 0.0319,-0.0429 0.0637,-0.086 0.0939,-0.13023 0.0301,-0.0452 0.0592,-0.091 0.0852,-0.13876 0.0258,-0.0474 0.0507,-0.0954 0.074,-0.14406 0.0246,-0.0513 0.0483,-0.10293 0.0713,-0.15487 0.0233,-0.0537 0.0458,-0.1077 0.0658,-0.1627 0.0207,-0.0574 0.041,-0.11502 0.0593,-0.17325 0.0192,-0.0604 0.0382,-0.12088 0.054,-0.18225 0.0164,-0.0625 0.0316,-0.12538 0.0447,-0.1887 0.0142,-0.0661 0.0281,-0.13237 0.0397,-0.19905 0.0121,-0.0673 0.0234,-0.13476 0.0331,-0.20247 0.0105,-0.0691 0.0199,-0.13827 0.0296,-0.20744 0.01,-0.0721 0.0189,-0.14434 0.0283,-0.21653 0.009,-0.0737 0.0181,-0.14743 0.027,-0.22118 0.009,-0.0774 0.0188,-0.15473 0.0267,-0.23225 0.008,-0.0777 0.016,-0.1554 0.0237,-0.23313 0.008,-0.0826 0.017,-0.16523 0.024,-0.24797 0.007,-0.0842 0.0153,-0.1683 0.0228,-0.25246 0.007,-0.0863 0.014,-0.1725 0.0214,-0.25872 0.008,-0.0909 0.0155,-0.18176 0.0217,-0.27275 0.007,-0.0943 0.0143,-0.18867 0.0215,-0.28301 0.007,-0.0974 0.0129,-0.19485 0.02,-0.29223 0.007,-0.099 0.0144,-0.19807 0.022,-0.29708 0.008,-0.1026 0.0151,-0.20521 0.0217,-0.30789 0.007,-0.10666 0.0148,-0.2133 0.0226,-0.31992 0.008,-0.11243 0.0167,-0.22485 0.0252,-0.33726 0.009,-0.11327 0.0163,-0.22659 0.0247,-0.33987 0.009,-0.11572 0.0174,-0.23143 0.0267,-0.34709 0.01,-0.12239 0.0197,-0.24477 0.03,-0.36712 0.0106,-0.12605 0.0215,-0.25207 0.0304,-0.37825 0.008,-0.11733 0.0153,-0.2347 0.0236,-0.352 0.008,-0.11581 0.0166,-0.2316 0.0255,-0.34736 0.009,-0.11796 0.0185,-0.2359 0.0271,-0.3539 0.008,-0.10875 0.0166,-0.21747 0.0255,-0.32615 0.01,-0.1034 0.0198,-0.20675 0.0303,-0.31006 0.0109,-0.10751 0.0221,-0.21499 0.0334,-0.32247 0.0104,-0.10323 0.0215,-0.20639 0.0334,-0.30945 0.0122,-0.10636 0.0247,-0.21268 0.0376,-0.31896 0.0139,-0.11407 0.0279,-0.22812 0.0418,-0.34219 0.0137,-0.11521 0.0264,-0.23055 0.0382,-0.34598 0.0121,-0.11627 0.0245,-0.23251 0.0373,-0.34872 0.0137,-0.12498 0.0276,-0.24993 0.042,-0.37484 0.0154,-0.13313 0.0311,-0.26622 0.0469,-0.39931 0.0155,-0.1333 0.0304,-0.26669 0.0462,-0.39996 0.0157,-0.13049 0.0319,-0.26093 0.0489,-0.39124 0.0168,-0.12841 0.034,-0.25679 0.052,-0.38505 0.0184,-0.12961 0.0371,-0.25917 0.0568,-0.38859 0.0208,-0.13649 0.042,-0.2729 0.0639,-0.40923 0.0232,-0.14476 0.0467,-0.28946 0.0679,-0.43452 0.02,-0.13936 0.0387,-0.27891 0.0534,-0.41894 0.0144,-0.13788 0.0278,-0.27584 0.0423,-0.4137 0.0154,-0.14758 0.0312,-0.29513 0.0463,-0.44275 0.0148,-0.15198 0.0299,-0.30395 0.0424,-0.45614 0.0118,-0.14257 0.0214,-0.28529 0.0291,-0.42814 0.009,-0.14404 0.0175,-0.28807 0.0265,-0.43209 0.009,-0.14255 0.0172,-0.28514 0.0244,-0.4278 0.007,-0.13463 0.0136,-0.26926 0.019,-0.40397 0.005,-0.12595 0.01,-0.25189 0.013,-0.37788 0.004,-0.12092 0.008,-0.24184 0.0103,-0.3628 0.002,-0.11902 0.005,-0.23804 0.006,-0.35709 7.9e-4,-0.11477 7.9e-4,-0.22956 -0.002,-0.34431 -0.002,-0.10646 -0.006,-0.21291 -0.0123,-0.31921 -0.006,-0.0974 -0.0131,-0.19478 -0.0234,-0.29185 -0.01,-0.0817 -0.0206,-0.16359 -0.0438,-0.24276 -0.0191,-0.0631 -0.0409,-0.1256 -0.0707,-0.1846 -0.0249,-0.0474 -0.0517,-0.094 -0.086,-0.13533 -0.0287,-0.0342 -0.0589,-0.0672 -0.0936,-0.0954 -0.0316,-0.0253 -0.0649,-0.0485 -0.0997,-0.0691 -0.0335,-0.0206 -0.0678,-0.0399 -0.1033,-0.0567 -0.0341,-0.0155 -0.069,-0.0296 -0.10536,-0.0391 -0.0347,-0.01 -0.07,-0.0175 -0.10559,-0.0232 -0.0359,-0.005 -0.0719,-0.009 -0.10812,-0.0111 -0.0365,-0.002 -0.073,-0.002 -0.10954,-5.3e-4 -0.0368,0.002 -0.0737,0.004 -0.11023,0.009 -0.0362,0.006 -0.0723,0.0122 -0.108,0.0205 -0.0371,0.008 -0.0739,0.0181 -0.11048,0.0286 -0.0353,0.0103 -0.0705,0.0213 -0.10525,0.0333 -0.0351,0.012 -0.07,0.0245 -0.10468,0.0375 -0.0354,0.0134 -0.0706,0.0273 -0.10539,0.0423 -0.035,0.0151 -0.0697,0.0308 -0.10386,0.0477 -0.035,0.0171 -0.0698,0.0347 -0.10406,0.0533 -0.73717,0.39544 -1.53978,0.86362 2.00755,-1.16224 -0.0326,0.0191 -0.0652,0.0381 -0.0973,0.058 -0.0316,0.0194 -0.0633,0.0386 -0.0942,0.0592 -0.0293,0.0188 -0.0578,0.0387 -0.0862,0.0587 -0.0255,0.0181 -0.0504,0.037 -0.0754,0.0557 -0.0244,0.0183 -0.0489,0.0365 -0.0735,0.0546 -0.0224,0.0161 -0.0448,0.0323 -0.0674,0.0483 -0.0213,0.0149 -0.0427,0.0296 -0.064,0.0445 -0.0223,0.0155 -0.0443,0.0315 -0.0664,0.0472 -0.0202,0.0136 -0.0403,0.0276 -0.0601,0.0419 -0.0175,0.0127 -0.0351,0.0254 -0.0525,0.0383 -0.0147,0.0109 -0.0296,0.0214 -0.044,0.0326 0,0 -2.10936,1.21783 -2.10936,1.21783 z"
       inkscape:connector-curvature="0"
       style="stroke-width:0.26458332" />
    <path
       id="path99"
       d="m 104.60571,115.24557 c 0.0157,-0.014 0.0325,-0.0269 0.0494,-0.0393 0.0217,-0.0156 0.0434,-0.0312 0.0654,-0.0464 0.0266,-0.0175 0.0532,-0.0351 0.0801,-0.0523 0.0297,-0.0194 0.0602,-0.0375 0.0901,-0.0566 0.0309,-0.0195 0.0619,-0.0388 0.0926,-0.0585 0.0299,-0.0192 0.0598,-0.0384 0.0898,-0.0574 0.0305,-0.0187 0.061,-0.0374 0.0915,-0.0562 0.0298,-0.019 0.0599,-0.0376 0.09,-0.0563 0.0306,-0.0188 0.061,-0.0377 0.0912,-0.0572 0.032,-0.0201 0.0638,-0.0403 0.0959,-0.0602 0.0349,-0.0211 0.0702,-0.0415 0.10543,-0.062 0.70922,-0.40946 1.41845,-0.81893 2.12767,-1.22839 0.006,-0.003 0.0244,-0.014 0.0183,-0.0105 -0.69693,0.40241 -2.78894,1.60756 -2.09085,1.20715 0.70828,-0.40627 1.44096,-0.84065 2.16687,-1.25058 1.46532,-0.83247 -7.04552,4.05434 0.061,-0.035 0.69667,-0.40088 -1.39218,0.80379 -2.08828,1.20566 -0.007,0.004 0.014,-0.008 0.0211,-0.0122 0.71018,-0.41 1.42039,-0.81998 2.13059,-1.22996 -0.69608,0.40183 -1.39215,0.80368 -2.08824,1.20549 -0.007,0.004 0.0142,-0.008 0.0212,-0.0123 0.71027,-0.41003 1.41969,-0.82153 2.13084,-1.23005 0.69685,-0.40031 -2.78369,1.60768 -2.08797,1.20542 2.0133,-1.16406 1.41766,-0.82825 2.15266,-1.24251 0.045,-0.0253 0.0899,-0.0507 0.135,-0.0757 0.0459,-0.0253 0.0915,-0.0511 0.1375,-0.0762 0.0456,-0.0254 0.0913,-0.0505 0.13699,-0.0756 0.0455,-0.0254 0.0911,-0.0506 0.13666,-0.076 0.0447,-0.0249 0.0896,-0.0496 0.13422,-0.0745 0.0445,-0.025 0.089,-0.0499 0.13317,-0.0754 -3.53648,2.06277 -2.70421,1.57019 -1.97827,1.14039 0.0425,-0.0249 0.0849,-0.0499 0.12736,-0.0748 0.0415,-0.0247 0.0831,-0.0491 0.12491,-0.0733 7.07943,-4.07314 -4.97651,2.85886 2.2353,-1.29044 0.0433,-0.0248 0.087,-0.0491 0.13039,-0.0738 0.007,-0.004 0.0287,-0.0164 0.0216,-0.0123 -4.70851,2.71882 -0.78176,0.44476 0.10627,-0.0614 0.80644,-0.46099 -2.81597,1.64147 -1.98521,1.14574 0.0419,-0.0247 0.0833,-0.0502 0.1251,-0.075 0.0408,-0.0243 0.0815,-0.0487 0.12252,-0.0725 7.17179,-4.14104 -4.8667,2.80858 2.23717,-1.29233 0.0441,-0.0254 0.0889,-0.0496 0.13317,-0.0745 0.0434,-0.0239 0.0868,-0.048 0.13023,-0.072 0.0434,-0.024 0.087,-0.0477 0.13024,-0.0719 0.0445,-0.0245 0.0885,-0.0499 0.1331,-0.0742 0.0446,-0.025 0.0898,-0.0488 0.13472,-0.0731 0.0439,-0.0238 0.0885,-0.0465 0.13285,-0.0694 0.044,-0.0233 0.0888,-0.045 0.13373,-0.0665 0.0474,-0.0221 0.0949,-0.0437 0.14262,-0.0651 0.0468,-0.0208 0.094,-0.0406 0.14139,-0.0601 0.0461,-0.0185 0.0921,-0.0369 0.13836,-0.055 0.0468,-0.0181 0.0941,-0.035 0.14153,-0.0516 0.0465,-0.0162 0.0935,-0.0313 0.14057,-0.0459 0.0476,-0.0144 0.0952,-0.0292 0.14277,-0.0438 0.0454,-0.0141 0.0911,-0.0272 0.13684,-0.0403 0.0452,-0.0129 0.0907,-0.0246 0.13625,-0.0358 0.0461,-0.0114 0.0928,-0.02 0.13941,-0.0287 0.0456,-0.008 0.0915,-0.0141 0.13761,-0.0183 0.0451,-0.004 0.0904,-0.005 0.13561,-0.003 0.0461,0.001 0.0911,0.0107 0.13559,0.0224 0.0462,0.0126 0.0906,0.0305 0.1343,0.0499 0.0459,0.0207 0.0891,0.0469 0.13092,0.0747 0.0446,0.0299 0.0859,0.0643 0.12557,0.1004 0.0424,0.0396 0.0816,0.0823 0.11919,0.12635 0.0393,0.0471 0.0759,0.0962 0.11063,0.1467 0.0381,0.0559 0.0699,0.11552 0.10037,0.17571 0.0332,0.0663 0.0619,0.13459 0.0892,0.20349 0.03,0.0757 0.0553,0.15309 0.0791,0.23092 0.0262,0.0872 0.0487,0.17542 0.0702,0.26387 0.0231,0.0956 0.0431,0.19198 0.0623,0.28847 0.0203,0.10252 0.038,0.20552 0.0553,0.30856 0.0173,0.10409 0.0335,0.20837 0.0491,0.31274 0.016,0.10616 0.0302,0.21258 0.0436,0.3191 0.0142,0.11039 0.026,0.22105 0.0371,0.3318 0.0107,0.10717 0.0207,0.21441 0.0292,0.32178 0.009,0.10612 0.0149,0.2124 0.0198,0.31875 0.005,0.10678 0.008,0.21359 0.0106,0.32043 0.002,0.10358 0.004,0.20717 0.006,0.31076 0.001,0.10153 0.001,0.20308 0.001,0.30462 -5.3e-4,0.10676 -0.002,0.21351 -0.004,0.32026 -10e-4,0.10363 -0.003,0.20725 -0.004,0.31088 -0.001,0.10129 -0.002,0.20257 -0.004,0.30384 -0.002,0.10999 -0.007,0.21994 -0.0103,0.3299 -0.004,0.10775 -0.007,0.21551 -0.0108,0.32327 -0.003,0.10614 -0.007,0.21221 -0.0129,0.31824 -0.006,0.1124 -0.0146,0.22463 -0.0229,0.33687 -0.008,0.10659 -0.0155,0.21326 -0.0238,0.31984 -0.008,0.10191 -0.0163,0.20386 -0.0253,0.30572 -0.009,0.0954 -0.0177,0.19072 -0.0266,0.28609 -0.008,0.0883 -0.0177,0.17632 -0.027,0.26443 -0.008,0.0829 -0.0187,0.16571 -0.0284,0.24852 -0.009,0.0771 -0.0183,0.15402 -0.0283,0.23092 -0.009,0.0733 -0.0191,0.14651 -0.0295,0.21966 -0.0103,0.0703 -0.0193,0.14086 -0.0295,0.21123 -0.0103,0.0693 -0.0202,0.13869 -0.03,0.20809 -0.009,0.0673 -0.0199,0.13446 -0.03,0.20166 -0.01,0.0644 -0.0206,0.12866 -0.0311,0.19296 -0.0107,0.0617 -0.0218,0.1233 -0.0338,0.18476 -0.0114,0.0596 -0.0235,0.11899 -0.0357,0.17841 -0.0125,0.0591 -0.0264,0.11787 -0.0411,0.17644 -0.0142,0.057 -0.03,0.11346 -0.0464,0.16979 -0.0168,0.0568 -0.0361,0.11279 -0.0568,0.16826 -0.0222,0.0586 -0.0463,0.11644 -0.0717,0.17372 -0.0268,0.0607 -0.0573,0.11961 -0.0891,0.17778 -0.0323,0.0589 -0.0668,0.11648 -0.10198,0.17366 -0.0349,0.057 -0.0735,0.11153 -0.11268,0.16561 -0.0418,0.0558 -0.0858,0.10979 -0.13046,0.16329 -0.0461,0.0551 -0.0939,0.10879 -0.14145,0.1626 -0.0467,0.0539 -0.095,0.10629 -0.14458,0.15751 -0.0496,0.0513 -0.10023,0.10158 -0.15143,0.15129 -0.0495,0.0486 -0.0998,0.0964 -0.14992,0.14429 -0.048,0.0465 -0.097,0.0919 -0.14589,0.13746 -0.0485,0.0447 -0.0983,0.088 -0.14833,0.13096 -0.0497,0.0429 -0.10031,0.0846 -0.15156,0.12556 -0.05,0.0397 -0.10028,0.0791 -0.15066,0.1184 -0.0493,0.0379 -0.098,0.0765 -0.14726,0.11457 -0.0487,0.0384 -0.0981,0.0759 -0.14744,0.11352 -0.0514,0.0389 -0.10335,0.077 -0.15481,0.11583 -0.0508,0.0381 -0.10201,0.0757 -0.15317,0.11336 -0.0514,0.0382 -0.10365,0.0752 -0.15609,0.11195 -0.0541,0.0385 -0.10827,0.077 -0.16235,0.11562 -0.0532,0.0379 -0.10675,0.0751 -0.16015,0.11269 -0.0566,0.0388 -0.11326,0.0773 -0.16994,0.11594 -0.0557,0.0375 -0.11138,0.0751 -0.16744,0.11203 -0.055,0.0368 -0.11047,0.0729 -0.16601,0.1088 -0.0568,0.0368 -0.11396,0.0732 -0.1708,0.10997 -0.0553,0.0356 -0.11116,0.0704 -0.16681,0.10543 -0.053,0.0333 -0.1065,0.066 -0.15975,0.099 -0.051,0.0311 -0.1021,0.0621 -0.15289,0.0935 -0.0489,0.0301 -0.0976,0.0603 -0.1464,0.0906 -0.0478,0.0295 -0.0955,0.0593 -0.14281,0.0896 -0.0519,0.0336 -0.1039,0.067 -0.15601,0.10024 -0.0536,0.0344 -0.10755,0.0684 -0.16129,0.10262 -0.0514,0.0334 -0.1043,0.0644 -0.15683,0.0959 -0.0504,0.0302 -0.10062,0.0607 -0.15053,0.0917 -0.0486,0.0296 -0.0965,0.0602 -0.1444,0.0909 -0.0473,0.0308 -0.0943,0.0622 -0.14122,0.0936 -0.0463,0.0306 -0.0922,0.0617 -0.13807,0.0929 -0.0444,0.0304 -0.0883,0.0615 -0.13199,0.0929 -0.0433,0.0315 -0.0859,0.064 -0.1287,0.0962 -0.0417,0.0308 -0.0827,0.0625 -0.12387,0.094 -0.0396,0.0313 -0.0799,0.0616 -0.11978,0.0925 -0.0391,0.0298 -0.0782,0.0595 -0.11776,0.0886 -0.0387,0.029 -0.0781,0.0569 -0.11729,0.0851 -0.038,0.0274 -0.076,0.0546 -0.1142,0.0817 -0.0379,0.0269 -0.0756,0.054 -0.11302,0.0814 -0.0369,0.027 -0.0736,0.0542 -0.11048,0.0812 -0.0349,0.0254 -0.0699,0.0507 -0.10536,0.0753 -0.006,0.004 -0.0116,0.008 -0.0173,0.0113 0,0 -2.10936,1.21783 -2.10936,1.21783 v 0 c 0.006,-0.004 0.0116,-0.008 0.0173,-0.0113 0.0354,-0.0247 0.0705,-0.0499 0.10535,-0.0753 0.0369,-0.027 0.0736,-0.0542 0.11048,-0.0812 0.0375,-0.0274 0.0752,-0.0545 0.11302,-0.0814 0.0382,-0.0271 0.0762,-0.0543 0.11421,-0.0816 0.0392,-0.0282 0.0786,-0.0561 0.11728,-0.0851 0.0396,-0.0291 0.0787,-0.0588 0.11776,-0.0886 0.0399,-0.0309 0.0802,-0.0612 0.11978,-0.0925 0.0412,-0.0315 0.0822,-0.0632 0.12388,-0.094 0.0428,-0.0322 0.0854,-0.0647 0.12869,-0.0962 0.0437,-0.0314 0.0876,-0.0626 0.13199,-0.0929 0.0458,-0.0313 0.0918,-0.0623 0.13807,-0.0929 0.0469,-0.0314 0.0939,-0.0628 0.14123,-0.0936 0.0479,-0.0307 0.0958,-0.0614 0.1444,-0.0909 0.0499,-0.031 0.10013,-0.0615 0.15052,-0.0917 0.0525,-0.0315 0.10544,-0.0625 0.15683,-0.0959 0.0538,-0.0342 0.10767,-0.0682 0.16129,-0.10263 0.0521,-0.0332 0.10416,-0.0666 0.15602,-0.10024 0.0473,-0.0303 0.095,-0.0601 0.1428,-0.0896 0.0488,-0.0302 0.0975,-0.0605 0.1464,-0.0906 0.0508,-0.0315 0.10187,-0.0625 0.15289,-0.0935 0.0533,-0.033 0.10671,-0.0657 0.15976,-0.099 0.0556,-0.0351 0.1115,-0.0698 0.1668,-0.10543 0.0569,-0.0368 0.11398,-0.0731 0.17081,-0.10997 0.0555,-0.036 0.11104,-0.072 0.166,-0.10881 0.0561,-0.037 0.11172,-0.0746 0.16744,-0.11202 0.0567,-0.0386 0.11337,-0.0772 0.16994,-0.11594 0.0534,-0.0375 0.10698,-0.0748 0.16016,-0.11269 0.0541,-0.0386 0.10821,-0.0771 0.16234,-0.11562 0.0525,-0.0367 0.10468,-0.0738 0.15609,-0.11195 0.0512,-0.0376 0.10237,-0.0752 0.15317,-0.11337 0.0515,-0.0388 0.10343,-0.0769 0.15481,-0.11583 0.0493,-0.0376 0.0987,-0.0751 0.14745,-0.11351 0.0492,-0.038 0.098,-0.0766 0.14725,-0.11458 0.0504,-0.0393 0.10063,-0.0787 0.15066,-0.11839 0.0513,-0.041 0.10187,-0.0827 0.15156,-0.12557 0.0501,-0.0429 0.0999,-0.0862 0.14833,-0.13096 0.0489,-0.0455 0.0979,-0.091 0.1459,-0.13745 0.0501,-0.0479 0.10038,-0.0957 0.14992,-0.14429 0.0512,-0.0497 0.10179,-0.10003 0.15142,-0.1513 0.0496,-0.0512 0.0979,-0.10361 0.14458,-0.1575 0.0476,-0.0538 0.0953,-0.1075 0.14145,-0.1626 0.0446,-0.0535 0.0887,-0.10753 0.13047,-0.16329 0.0392,-0.0541 0.0777,-0.10865 0.11268,-0.16561 0.0352,-0.0572 0.0697,-0.1148 0.10198,-0.17366 0.0318,-0.0582 0.0623,-0.11709 0.0891,-0.17779 0.0254,-0.0573 0.0495,-0.11512 0.0717,-0.17371 0.0208,-0.0555 0.04,-0.11147 0.0568,-0.16826 0.0165,-0.0563 0.0323,-0.11285 0.0464,-0.1698 0.0147,-0.0586 0.0286,-0.11736 0.0411,-0.17643 0.0122,-0.0594 0.0244,-0.11883 0.0357,-0.17841 0.0119,-0.0615 0.0231,-0.12306 0.0338,-0.18476 0.0105,-0.0643 0.0216,-0.12852 0.0311,-0.19297 0.0101,-0.0672 0.0208,-0.13432 0.03,-0.20165 0.01,-0.0694 0.0197,-0.13877 0.03,-0.2081 0.0101,-0.0704 0.0192,-0.14089 0.0295,-0.21122 0.0104,-0.0731 0.0204,-0.14635 0.0296,-0.21966 0.0101,-0.0769 0.0196,-0.15385 0.0283,-0.23092 0.01,-0.0828 0.0199,-0.16558 0.0284,-0.24852 0.009,-0.0881 0.019,-0.17619 0.027,-0.26444 0.009,-0.0954 0.0178,-0.19072 0.0266,-0.28609 0.009,-0.10185 0.0169,-0.20381 0.0253,-0.30571 0.008,-0.10658 0.0156,-0.21325 0.0238,-0.31985 0.008,-0.11224 0.017,-0.22447 0.0229,-0.33687 0.005,-0.10603 0.0101,-0.21209 0.0129,-0.31823 0.003,-0.10776 0.007,-0.21552 0.0108,-0.32328 0.004,-0.10995 0.008,-0.2199 0.0103,-0.32989 0.002,-0.10127 0.003,-0.20256 0.004,-0.30384 0.001,-0.10363 0.003,-0.20726 0.004,-0.31088 10e-4,-0.10675 0.003,-0.2135 0.004,-0.32026 -9e-5,-0.10154 -2e-5,-0.20309 -10e-4,-0.30463 -0.002,-0.10358 -0.003,-0.20717 -0.006,-0.31075 -0.002,-0.10685 -0.006,-0.21366 -0.0106,-0.32043 -0.005,-0.10635 -0.0112,-0.21264 -0.0198,-0.31876 -0.008,-0.10737 -0.0184,-0.21461 -0.0292,-0.32178 -0.0111,-0.11074 -0.0229,-0.22141 -0.0371,-0.33179 -0.0134,-0.10652 -0.0276,-0.21295 -0.0436,-0.31911 -0.0156,-0.10436 -0.0318,-0.20864 -0.0491,-0.31273 -0.0174,-0.10305 -0.0351,-0.20604 -0.0553,-0.30856 -0.0192,-0.0965 -0.0393,-0.19282 -0.0623,-0.28847 -0.0215,-0.0884 -0.044,-0.17669 -0.0702,-0.26387 -0.0238,-0.0778 -0.0491,-0.15524 -0.0791,-0.23093 -0.0272,-0.0689 -0.056,-0.13719 -0.0891,-0.20348 -0.0305,-0.0602 -0.0623,-0.11987 -0.10037,-0.17571 -0.0347,-0.0505 -0.0713,-0.0996 -0.11063,-0.1467 -0.0376,-0.0441 -0.0768,-0.0868 -0.11919,-0.12635 -0.0397,-0.0361 -0.0809,-0.0705 -0.12558,-0.1004 -0.0419,-0.0278 -0.085,-0.054 -0.13091,-0.0747 -0.0437,-0.0193 -0.0881,-0.0373 -0.1343,-0.0499 -0.0444,-0.0117 -0.0895,-0.021 -0.13559,-0.0224 -0.0452,-0.001 -0.0905,-0.001 -0.13562,0.003 -0.0461,0.004 -0.092,0.0102 -0.1376,0.0183 -0.0466,0.009 -0.0933,0.0174 -0.13942,0.0287 -0.0456,0.0112 -0.0911,0.0229 -0.13625,0.0358 -0.0457,0.0131 -0.0914,0.0262 -0.13684,0.0403 -0.0476,0.0145 -0.0951,0.0294 -0.14277,0.0438 -0.0471,0.0146 -0.094,0.0296 -0.14057,0.0459 -0.0474,0.0166 -0.0947,0.0335 -0.14153,0.0516 -0.0462,0.0181 -0.0923,0.0365 -0.13835,0.055 -0.0474,0.0194 -0.0946,0.0393 -0.1414,0.0601 -0.0477,0.0213 -0.0953,0.043 -0.14262,0.0651 -0.0449,0.0215 -0.0897,0.0432 -0.13373,0.0665 -0.0444,0.023 -0.0889,0.0456 -0.13284,0.0694 -0.045,0.0243 -0.0902,0.0481 -0.13473,0.0731 -0.0446,0.0243 -0.0886,0.0496 -0.1331,0.0741 -0.0433,0.0242 -0.0869,0.0478 -0.13024,0.0719 -0.0434,0.024 -0.0868,0.048 -0.13022,0.072 -0.0443,0.025 -0.0891,0.0491 -0.13317,0.0745 6.95926,-4.01844 -4.94234,2.85295 2.02358,-1.16816 0.0141,-0.008 -0.056,0.0328 -0.042,0.0248 -0.0411,0.0238 -0.0818,0.0482 -0.12252,0.0725 -0.0418,0.0248 -0.0832,0.0503 -0.12511,0.075 -0.73827,0.44054 -1.48684,0.86373 -2.23349,1.28994 -0.71905,0.40985 -0.0483,0.0276 2.06724,-1.19373 0.0142,-0.008 -0.0283,0.0166 -0.0426,0.0248 -2.12511,1.22705 -1.41837,0.82448 -2.15254,1.24261 -0.0434,0.0247 -0.0871,0.049 -0.13039,0.0738 -1.3313,0.76597 6.79314,-3.92572 -0.10501,0.0606 -0.69598,0.4022 1.39228,-0.80387 2.08843,-1.2058 -0.0418,0.0242 -0.0834,0.0486 -0.12491,0.0733 -0.0425,0.0249 -0.0849,0.0499 -0.12736,0.0748 -0.7423,0.43948 -1.48413,0.87941 -2.24045,1.29528 -0.0442,0.0254 -0.0887,0.0504 -0.13316,0.0754 -0.0447,0.025 -0.0895,0.0496 -0.13422,0.0745 -0.0455,0.0254 -0.0911,0.0506 -0.13667,0.076 -0.0457,0.0251 -0.0914,0.0502 -0.13698,0.0756 -0.046,0.0251 -0.0916,0.051 -0.1375,0.0762 -0.0451,0.0251 -0.0901,0.0504 -0.135,0.0757 -0.69282,0.39048 2.75453,-1.59123 2.06605,-1.19316 -7.07242,4.08918 4.9047,-2.83592 -2.19458,1.26714 0.69604,-0.4019 1.39207,-0.80382 2.08812,-1.20571 0.007,-0.004 -0.014,0.008 -0.0211,0.0122 -0.71013,0.41002 -1.4197,0.82103 -2.13043,1.23001 -0.69681,0.40097 2.78534,-1.60717 2.08866,-1.20598 -2.58884,1.4908 -1.41292,0.82196 -2.1496,1.24093 -0.68775,0.38838 2.73696,-1.57807 2.05183,-1.18509 -0.71044,0.4075 -1.41856,0.81905 -2.12786,1.22853 -0.006,0.004 -0.0244,0.014 -0.0183,0.0105 0.69699,-0.40246 1.39402,-0.80486 2.09103,-1.20728 -0.0352,0.0206 -0.0705,0.0409 -0.10543,0.062 -0.0321,0.0199 -0.064,0.0401 -0.0959,0.0602 -0.0302,0.0194 -0.0606,0.0384 -0.0912,0.0572 -0.0301,0.0186 -0.0602,0.0372 -0.09,0.0563 -0.0305,0.0188 -0.0609,0.0376 -0.0915,0.0562 -0.03,0.0191 -0.0599,0.0382 -0.0898,0.0574 -0.0308,0.0197 -0.0617,0.039 -0.0926,0.0585 -0.0299,0.019 -0.0604,0.0372 -0.0901,0.0566 -0.0268,0.0172 -0.0534,0.0347 -0.0801,0.0523 -0.022,0.0152 -0.0437,0.0308 -0.0654,0.0464 -0.017,0.0125 -0.0338,0.0253 -0.0495,0.0393 0,0 -2.10936,1.21784 -2.10936,1.21784 z"
       inkscape:connector-curvature="0"
       style="stroke-width:0.26458332" />
    <path
       id="path101"
       d="m 104.08586,125.14952 c 0.013,-0.0103 0.0247,-0.022 0.0373,-0.0326 0.0152,-0.0135 0.0314,-0.0257 0.0477,-0.0378 0.0224,-0.0164 0.0443,-0.0334 0.0662,-0.0505 0.0246,-0.0188 0.0495,-0.0373 0.0745,-0.0555 0.0276,-0.02 0.055,-0.0401 0.0827,-0.06 0.0294,-0.0212 0.0584,-0.0429 0.0879,-0.064 0.0305,-0.0222 0.0607,-0.0446 0.0912,-0.0668 0.0331,-0.0241 0.0662,-0.0483 0.0999,-0.0716 0.0347,-0.0238 0.0695,-0.0475 0.10462,-0.0706 0.0375,-0.0243 0.0755,-0.0478 0.11402,-0.0705 0.76941,-0.37763 1.47912,-0.86357 2.22527,-1.28372 0.0382,-0.0217 0.077,-0.042 0.11644,-0.0613 0.0408,-0.0195 0.0823,-0.0376 0.12445,-0.0541 0.0423,-0.0166 0.0855,-0.0302 0.12916,-0.0427 0.0443,-0.0131 0.0892,-0.0235 0.13433,-0.0331 0.0456,-0.009 0.0916,-0.016 0.1379,-0.0208 0.0478,-0.004 0.0958,-0.005 0.14372,-0.004 0.0479,10e-4 0.0957,0.005 0.14335,0.009 0.047,0.004 0.0936,0.0122 0.13974,0.0219 0.0447,0.01 0.0887,0.022 0.13237,0.0355 0.0425,0.0131 0.0842,0.0288 0.12556,0.0452 0.0411,0.0159 0.0807,0.0351 0.12,0.0548 0.0379,0.0194 0.0747,0.0408 0.11071,0.0635 0.036,0.023 0.0693,0.0497 0.1021,0.0769 0.0329,0.0272 0.0643,0.0562 0.0955,0.0853 0.0324,0.0302 0.0626,0.0625 0.0919,0.0956 0.0314,0.0356 0.0596,0.0738 0.0879,0.11183 0.0287,0.0387 0.0557,0.0786 0.0827,0.11852 0.0269,0.0405 0.0529,0.0817 0.0786,0.12299 0.0256,0.0421 0.0504,0.0847 0.0754,0.12711 0.0256,0.0436 0.0498,0.088 0.0738,0.13245 0.0245,0.0466 0.0481,0.0936 0.072,0.14053 0.0243,0.0488 0.0488,0.0974 0.0722,0.14652 0.0238,0.0498 0.0472,0.0997 0.0697,0.15006 0.0232,0.051 0.0456,0.10234 0.0681,0.15368 0.0233,0.0541 0.0457,0.10869 0.0668,0.16372 0.0216,0.0586 0.0425,0.11751 0.0633,0.17641 0.0211,0.0607 0.0412,0.12185 0.0606,0.18317 0.0206,0.0666 0.0387,0.13393 0.0576,0.20101 0.0189,0.0662 0.0371,0.13265 0.0546,0.19926 0.0177,0.0674 0.0348,0.13493 0.052,0.20244 0.0177,0.0683 0.0347,0.13676 0.0514,0.20533 0.0175,0.0676 0.0337,0.13557 0.0501,0.20346 0.0171,0.0719 0.034,0.14384 0.0506,0.21584 0.018,0.0764 0.0357,0.15292 0.0534,0.22942 0.0177,0.0777 0.0362,0.15521 0.054,0.23289 0.0192,0.0809 0.038,0.16191 0.0556,0.24321 0.0184,0.0855 0.0378,0.17073 0.0576,0.25592 0.0189,0.0814 0.0371,0.16301 0.0546,0.24472 0.0166,0.0795 0.0334,0.15903 0.0502,0.23852 0.0165,0.0769 0.0318,0.15406 0.0477,0.23108 0.0165,0.0788 0.0329,0.15758 0.0489,0.23646 0.0172,0.0847 0.0334,0.16963 0.0496,0.25454 0.0151,0.0808 0.0315,0.16134 0.0475,0.24196 0.0153,0.0766 0.0293,0.15348 0.044,0.2302 0.0151,0.0753 0.029,0.15077 0.0432,0.22622 0.015,0.0798 0.0287,0.15991 0.0434,0.23981 0.0145,0.0767 0.028,0.15365 0.0426,0.23036 0.014,0.0718 0.0281,0.14367 0.0417,0.21559 0.0127,0.0677 0.025,0.13541 0.0384,0.20295 0.0129,0.0637 0.0253,0.12753 0.0374,0.1914 0.0124,0.0624 0.0246,0.12478 0.0381,0.18694 0.0133,0.0594 0.0253,0.1191 0.0383,0.17858 0.0132,0.0586 0.0253,0.1174 0.0383,0.17603 0.0127,0.056 0.0256,0.11202 0.0381,0.16811 0.0128,0.0544 0.0251,0.10896 0.0383,0.16328 0.013,0.053 0.026,0.10609 0.0394,0.15901 0.0131,0.0544 0.0289,0.10813 0.045,0.16174 0.0158,0.0531 0.0332,0.10575 0.051,0.15822 0.0168,0.0494 0.0348,0.0984 0.0537,0.14695 0.0177,0.0457 0.0372,0.0907 0.0571,0.13558 0.0195,0.0425 0.04,0.0846 0.0616,0.12603 0.0203,0.0394 0.0434,0.0772 0.0667,0.11483 0.0223,0.0359 0.0453,0.0713 0.0697,0.10579 0.024,0.0339 0.0491,0.067 0.0756,0.099 0.0292,0.0347 0.0591,0.0689 0.0896,0.10244 0.0297,0.0334 0.0608,0.0654 0.093,0.0964 0.0359,0.0335 0.0732,0.0653 0.11024,0.0975 0.0361,0.031 0.0732,0.061 0.10977,0.0914 0.0353,0.0299 0.0724,0.0573 0.11084,0.083 0.0393,0.0264 0.0815,0.0479 0.12395,0.0688 0.0419,0.0205 0.085,0.0387 0.12852,0.0554 0.044,0.0168 0.0891,0.0305 0.13475,0.042 0.0467,0.0119 0.0944,0.0194 0.14214,0.0254 0.0483,0.006 0.0968,0.009 0.14536,0.0114 0.0477,0.003 0.0955,2.7e-4 0.14308,-0.004 0.0468,-0.004 0.0932,-0.0121 0.13943,-0.0207 0.0457,-0.008 0.0909,-0.0184 0.13548,-0.0311 0.0449,-0.0134 0.0885,-0.0311 0.13169,-0.0492 0.0423,-0.018 0.0837,-0.038 0.12457,-0.059 0.80486,-0.44681 -2.80554,1.65386 -1.9949,1.14994 0.0364,-0.0227 0.0715,-0.0475 0.10535,-0.0738 0.0333,-0.0266 0.0657,-0.0544 0.098,-0.0823 0.031,-0.0273 0.0621,-0.0545 0.0921,-0.0829 0.0301,-0.0284 0.0587,-0.0583 0.0874,-0.088 0.0291,-0.0294 0.0565,-0.0604 0.0832,-0.092 0.0272,-0.0327 0.0528,-0.0668 0.078,-0.10111 0.0249,-0.0331 0.0497,-0.0663 0.0733,-0.1003 0.024,-0.0336 0.0469,-0.0679 0.0696,-0.10242 0.0224,-0.0335 0.0445,-0.0671 0.0662,-0.10106 0.02,-0.0328 0.0409,-0.0649 0.0618,-0.0971 0.0132,-0.0202 0.007,-0.0102 0.0197,-0.0301 0,0 2.10936,-1.21784 2.10936,-1.21784 v 0 c -0.0131,0.02 -0.007,0.01 -0.0197,0.0301 -0.021,0.0321 -0.0419,0.0643 -0.0619,0.0971 -0.0217,0.0339 -0.0438,0.0676 -0.0662,0.10106 -0.0227,0.0345 -0.0455,0.0689 -0.0696,0.10242 -0.0236,0.034 -0.0484,0.0672 -0.0733,0.10031 -0.0252,0.0343 -0.0508,0.0684 -0.078,0.10111 -0.0267,0.0316 -0.0541,0.0626 -0.0832,0.092 -0.0287,0.0297 -0.0574,0.0596 -0.0874,0.088 -0.03,0.0284 -0.0611,0.0556 -0.0921,0.0829 -0.0322,0.0279 -0.0646,0.0557 -0.0979,0.0823 -0.0339,0.0264 -0.0689,0.0511 -0.10535,0.0738 -0.7272,0.45205 -1.47444,0.87161 -2.2238,1.28573 -0.0409,0.021 -0.0823,0.041 -0.12457,0.059 -0.0432,0.018 -0.0867,0.0357 -0.1317,0.0492 -0.0446,0.0127 -0.0898,0.023 -0.13548,0.0311 -0.0462,0.009 -0.0926,0.0163 -0.13943,0.0207 -0.0476,0.004 -0.0953,0.006 -0.14308,0.004 -0.0486,-0.002 -0.0971,-0.006 -0.14535,-0.0114 -0.0478,-0.006 -0.0954,-0.0135 -0.14215,-0.0253 -0.0457,-0.0115 -0.0907,-0.0252 -0.13475,-0.042 -0.0436,-0.0167 -0.0866,-0.0349 -0.12852,-0.0554 -0.0424,-0.0209 -0.0846,-0.0424 -0.12395,-0.0688 -0.0384,-0.0257 -0.0755,-0.0531 -0.11084,-0.083 -0.0366,-0.0305 -0.0737,-0.0604 -0.10977,-0.0914 -0.037,-0.0322 -0.0744,-0.064 -0.11024,-0.0975 -0.0322,-0.0309 -0.0633,-0.063 -0.093,-0.0964 -0.0305,-0.0336 -0.0604,-0.0677 -0.0896,-0.10244 -0.0264,-0.032 -0.0516,-0.0651 -0.0756,-0.099 -0.0243,-0.0345 -0.0474,-0.0699 -0.0697,-0.10578 -0.0233,-0.0376 -0.0465,-0.0754 -0.0667,-0.11484 -0.0216,-0.0415 -0.042,-0.0835 -0.0616,-0.12603 -0.0199,-0.0448 -0.0394,-0.0898 -0.0571,-0.13558 -0.019,-0.0486 -0.0369,-0.0976 -0.0538,-0.14694 -0.0178,-0.0525 -0.0352,-0.10511 -0.051,-0.15823 -0.0161,-0.0536 -0.032,-0.1073 -0.045,-0.16174 -0.0135,-0.0529 -0.0264,-0.10597 -0.0394,-0.159 -0.0132,-0.0543 -0.0255,-0.10887 -0.0383,-0.16328 -0.0125,-0.0561 -0.0254,-0.11208 -0.0381,-0.16812 -0.013,-0.0586 -0.0251,-0.11744 -0.0383,-0.17602 -0.0129,-0.0595 -0.025,-0.11917 -0.0383,-0.17859 -0.0135,-0.0622 -0.0258,-0.12455 -0.0381,-0.18694 -0.0121,-0.0639 -0.0245,-0.12768 -0.0374,-0.1914 -0.0134,-0.0675 -0.0257,-0.13527 -0.0384,-0.20295 -0.0136,-0.0719 -0.0277,-0.14375 -0.0417,-0.21559 -0.0146,-0.0767 -0.0281,-0.15363 -0.0426,-0.23036 -0.0147,-0.0799 -0.0284,-0.15996 -0.0434,-0.23981 -0.0142,-0.0754 -0.0281,-0.15093 -0.0432,-0.22621 -0.0147,-0.0767 -0.0287,-0.1536 -0.044,-0.23021 -0.016,-0.0806 -0.0324,-0.16116 -0.0475,-0.24195 -0.0162,-0.0849 -0.0324,-0.16983 -0.0496,-0.25455 -0.016,-0.0789 -0.0324,-0.15769 -0.0489,-0.23646 -0.016,-0.077 -0.0312,-0.15418 -0.0477,-0.23108 -0.0168,-0.0795 -0.0337,-0.15897 -0.0502,-0.23852 -0.0176,-0.0817 -0.0358,-0.16329 -0.0546,-0.24472 -0.0197,-0.0852 -0.0392,-0.17043 -0.0576,-0.25592 -0.0175,-0.0813 -0.0363,-0.1623 -0.0556,-0.24321 -0.0178,-0.0777 -0.0363,-0.15518 -0.054,-0.23288 -0.0177,-0.0765 -0.0354,-0.15299 -0.0534,-0.22942 -0.0166,-0.072 -0.0335,-0.14396 -0.0506,-0.21584 -0.0164,-0.0679 -0.0326,-0.13585 -0.0501,-0.20347 -0.0166,-0.0686 -0.0337,-0.13703 -0.0513,-0.20533 -0.0173,-0.0675 -0.0343,-0.13506 -0.052,-0.20244 -0.0175,-0.0666 -0.0357,-0.13302 -0.0546,-0.19926 -0.0189,-0.0671 -0.037,-0.13443 -0.0576,-0.20101 -0.0194,-0.0613 -0.0395,-0.12241 -0.0606,-0.18316 -0.0208,-0.0589 -0.0416,-0.11781 -0.0633,-0.17641 -0.0211,-0.055 -0.0435,-0.10959 -0.0668,-0.16372 -0.0224,-0.0513 -0.0449,-0.10268 -0.0681,-0.15369 -0.0226,-0.0503 -0.0459,-0.1003 -0.0697,-0.15006 -0.0235,-0.0491 -0.048,-0.0978 -0.0723,-0.14651 -0.0238,-0.0469 -0.0474,-0.094 -0.072,-0.14053 -0.024,-0.0445 -0.0482,-0.0889 -0.0738,-0.13245 -0.025,-0.0425 -0.0498,-0.085 -0.0754,-0.12712 -0.0257,-0.0413 -0.0516,-0.0825 -0.0786,-0.12299 -0.027,-0.0399 -0.054,-0.0798 -0.0827,-0.11851 -0.0283,-0.038 -0.0564,-0.0763 -0.0879,-0.11184 -0.0293,-0.0332 -0.0595,-0.0654 -0.0919,-0.0956 -0.0312,-0.0291 -0.0626,-0.0581 -0.0955,-0.0853 -0.0328,-0.0272 -0.0661,-0.054 -0.10209,-0.0769 -0.036,-0.0226 -0.0728,-0.0441 -0.11072,-0.0634 -0.0393,-0.0197 -0.079,-0.0389 -0.11999,-0.0548 -0.0414,-0.0164 -0.083,-0.0321 -0.12557,-0.0452 -0.0437,-0.0135 -0.0877,-0.0259 -0.13236,-0.0356 -0.0462,-0.01 -0.0927,-0.0176 -0.13974,-0.0219 -0.0477,-0.005 -0.0955,-0.008 -0.14336,-0.009 -0.0479,-5.3e-4 -0.0959,-2.7e-4 -0.14371,0.004 -0.0463,0.005 -0.0923,0.0114 -0.1379,0.0208 -0.0451,0.01 -0.0901,0.02 -0.13433,0.0331 -0.0436,0.0125 -0.0869,0.0261 -0.12916,0.0427 -0.0421,0.0165 -0.0836,0.0346 -0.12446,0.0541 -0.0394,0.0193 -0.0783,0.0396 -0.11644,0.0613 -0.73173,0.41204 -1.52192,0.94041 1.99345,-1.15195 -0.0385,0.0228 -0.0765,0.0463 -0.11402,0.0705 -0.0352,0.0231 -0.0699,0.0468 -0.10463,0.0706 -0.0337,0.0233 -0.0667,0.0475 -0.0999,0.0716 -0.0305,0.0221 -0.0607,0.0446 -0.0912,0.0668 -0.0295,0.0211 -0.0585,0.0427 -0.0879,0.064 -0.0276,0.0199 -0.0551,0.04 -0.0827,0.06 -0.0251,0.0182 -0.0499,0.0367 -0.0745,0.0555 -0.0219,0.0171 -0.0438,0.0341 -0.0662,0.0505 -0.0163,0.0121 -0.0325,0.0243 -0.0477,0.0378 -0.0127,0.0107 -0.0244,0.0223 -0.0373,0.0326 0,0 -2.10935,1.21784 -2.10935,1.21784 z"
       inkscape:connector-curvature="0"
       style="stroke-width:0.26458332" />
    <path
       id="path103"
       d="m 104.92437,115.64563 c 0.0128,-0.0115 0.026,-0.0225 0.0393,-0.0333 0.014,-0.0117 0.0293,-0.0216 0.0444,-0.0317 0.0175,-0.0118 0.0354,-0.0232 0.0532,-0.0347 0.0207,-0.0129 0.041,-0.0264 0.0617,-0.0393 0.72204,-0.43075 1.46314,-0.84559 2.18464,-1.2621 0.78363,-0.44509 -2.78922,1.62755 -2.02684,1.16975 0.0248,-0.0145 0.049,-0.0299 0.0739,-0.0443 0.0256,-0.0151 0.051,-0.0304 0.0765,-0.0454 0.71977,-0.43819 1.46355,-0.84664 2.18895,-1.26542 -4.22753,2.46525 -1.32393,0.73734 0.084,-0.0478 0.0297,-0.0166 0.0595,-0.0332 0.0894,-0.0495 0.0292,-0.0159 0.0588,-0.0309 0.0881,-0.0465 0.0295,-0.0156 0.0594,-0.0304 0.0896,-0.0447 0.0302,-0.0141 0.0601,-0.0288 0.0903,-0.0429 0.0305,-0.014 0.0608,-0.0284 0.0911,-0.0429 0.0313,-0.0149 0.0622,-0.0306 0.0934,-0.0456 0.0348,-0.0163 0.0693,-0.0331 0.10396,-0.0497 0.0443,-0.0212 0.0877,-0.0439 0.13134,-0.0664 0.0474,-0.0249 0.0951,-0.0493 0.14228,-0.0747 0.0452,-0.0241 0.0905,-0.0478 0.13578,-0.0717 0.0451,-0.0235 0.0896,-0.048 0.13451,-0.0718 0.0451,-0.0245 0.0903,-0.0486 0.13553,-0.0729 0.0457,-0.0245 0.0916,-0.0486 0.1375,-0.0729 0.0462,-0.0242 0.0922,-0.0488 0.13853,-0.0727 0.0446,-0.0228 0.0889,-0.0463 0.13349,-0.0692 0.0429,-0.0221 0.0857,-0.0441 0.12856,-0.0663 0.0412,-0.0218 0.0828,-0.043 0.12425,-0.0644 0.0408,-0.021 0.0815,-0.042 0.12231,-0.0629 0.0414,-0.0211 0.0824,-0.0427 0.12342,-0.0643 0.0403,-0.021 0.0809,-0.0415 0.12128,-0.0623 0.0394,-0.0198 0.0785,-0.0403 0.11765,-0.0605 0.0385,-0.0202 0.0768,-0.0408 0.11508,-0.0613 0.0381,-0.0202 0.0761,-0.0405 0.11381,-0.0614 0.0366,-0.0205 0.0736,-0.0402 0.11052,-0.0601 0.73601,-0.40096 1.54553,-0.8899 -1.99993,1.15706 0.81878,-0.20309 1.47121,-0.8715 2.2198,-1.27994 0.0379,-0.0211 0.0759,-0.042 0.11391,-0.0628 0.0388,-0.0205 0.0774,-0.0412 0.11626,-0.0617 0.0383,-0.02 0.0773,-0.0386 0.11598,-0.0579 0.0383,-0.0191 0.0772,-0.0368 0.11582,-0.0552 0.0375,-0.0181 0.0754,-0.0354 0.11304,-0.0533 0.0369,-0.0176 0.0738,-0.0351 0.11058,-0.053 0.0364,-0.0175 0.0726,-0.0355 0.10883,-0.0532 0.0343,-0.0165 0.0688,-0.0326 0.10331,-0.0488 0.0321,-0.0159 0.0642,-0.0317 0.0965,-0.0471 0.0268,-0.013 0.0531,-0.027 0.0797,-0.0404 0,0 -2.10935,1.21783 -2.10935,1.21783 v 0 c -0.0266,0.0134 -0.0529,0.0275 -0.0797,0.0404 -0.0323,0.0153 -0.0644,0.0312 -0.0965,0.0471 -0.0345,0.0162 -0.069,0.0323 -0.10332,0.0488 -0.0363,0.0178 -0.0724,0.0357 -0.10882,0.0532 -0.0368,0.0179 -0.0737,0.0354 -0.11058,0.053 -0.0376,0.0179 -0.0756,0.0351 -0.11305,0.0533 -0.0386,0.0183 -0.0776,0.036 -0.11581,0.0552 -0.0387,0.0193 -0.0777,0.0379 -0.11599,0.0579 -0.0388,0.0204 -0.0775,0.0412 -0.11626,0.0617 -0.038,0.0208 -0.076,0.0417 -0.11391,0.0628 -0.73611,0.40164 -1.44532,1.07607 1.99891,-1.15573 -0.7345,0.42407 -1.46938,0.8703 -2.21878,1.27861 -0.0369,0.0199 -0.0739,0.0396 -0.11052,0.0601 -0.0377,0.0209 -0.0757,0.0412 -0.1138,0.0614 -0.0383,0.0205 -0.0766,0.0412 -0.11509,0.0613 -0.0392,0.0203 -0.0782,0.0408 -0.11765,0.0605 -0.0404,0.0209 -0.0809,0.0414 -0.12127,0.0623 -0.0411,0.0216 -0.0821,0.0433 -0.12342,0.0644 -0.0408,0.0208 -0.0816,0.0419 -0.12232,0.0629 -0.0414,0.0214 -0.083,0.0426 -0.12425,0.0644 -0.0428,0.0222 -0.0857,0.0442 -0.12855,0.0663 -0.0446,0.0229 -0.0889,0.0463 -0.13349,0.0692 -0.0464,0.0239 -0.0924,0.0484 -0.13853,0.0727 -0.0459,0.0242 -0.0918,0.0484 -0.13751,0.0729 -0.0452,0.0243 -0.0905,0.0483 -0.13552,0.0729 -0.0449,0.0238 -0.0894,0.0483 -0.13452,0.0718 -0.0453,0.0239 -0.0906,0.0476 -0.13578,0.0717 -0.0472,0.0254 -0.0949,0.0498 -0.14228,0.0747 -0.0436,0.0225 -0.0871,0.0453 -0.13134,0.0664 -0.0346,0.0166 -0.0692,0.0334 -0.10395,0.0497 -0.0312,0.015 -0.0621,0.0307 -0.0933,0.0456 -0.0303,0.0145 -0.0606,0.0289 -0.0911,0.0429 -0.0302,0.0141 -0.0601,0.0288 -0.0903,0.0429 -0.0302,0.0143 -0.0601,0.029 -0.0896,0.0447 -0.0293,0.0156 -0.059,0.0307 -0.0881,0.0465 -0.0299,0.0163 -0.0596,0.0329 -0.0894,0.0495 -1.45843,0.81327 6.91301,-3.96542 -0.084,0.0478 3.53873,-2.04324 2.74006,-1.60271 2.02976,-1.17026 -0.0256,0.015 -0.051,0.0304 -0.0765,0.0454 -0.0249,0.0144 -0.0491,0.0298 -0.0739,0.0443 -0.72334,0.43436 -1.45797,0.8497 -2.19188,1.26592 3.53849,-2.04313 2.74712,-1.59897 2.03408,-1.17357 -0.0207,0.0129 -0.041,0.0264 -0.0617,0.0393 -0.0178,0.0115 -0.0357,0.0228 -0.0532,0.0347 -0.0151,0.0101 -0.0305,0.02 -0.0444,0.0317 -0.0134,0.0108 -0.0266,0.0218 -0.0393,0.0333 0,0 -2.10935,1.21784 -2.10935,1.21784 z"
       inkscape:connector-curvature="0"
       style="stroke-width:0.26458332" />
    <path
       id="path105"
       d="m 103.88506,127.90308 c 0.0123,-0.0145 0.0259,-0.0279 0.0397,-0.0409 0.0192,-0.0175 0.0388,-0.0346 0.0584,-0.0517 0.0236,-0.0206 0.048,-0.0401 0.0725,-0.0595 0.028,-0.0224 0.0562,-0.0444 0.0841,-0.0669 0.0298,-0.0237 0.0595,-0.0477 0.09,-0.0706 0.0311,-0.0237 0.0627,-0.0467 0.094,-0.07 0.0314,-0.0242 0.0637,-0.0472 0.0959,-0.0704 0.032,-0.0232 0.0642,-0.0461 0.0966,-0.0687 0.0343,-0.0236 0.0683,-0.0478 0.10196,-0.0722 0.0349,-0.0253 0.07,-0.0505 0.10538,-0.0752 0.0363,-0.0259 0.0728,-0.0515 0.10935,-0.0771 0.0386,-0.0274 0.077,-0.0551 0.11568,-0.0824 0.0387,-0.0278 0.0777,-0.0552 0.11689,-0.0823 0.0399,-0.0282 0.0803,-0.0556 0.12122,-0.0825 0.0417,-0.0274 0.0835,-0.0547 0.12524,-0.0821 0.0375,-0.0246 0.0751,-0.0492 0.11264,-0.0738 0.0348,-0.0227 0.0697,-0.0454 0.10466,-0.0679 0.0351,-0.0232 0.0706,-0.0457 0.10613,-0.0681 0.0397,-0.0252 0.0794,-0.0505 0.11905,-0.0758 0.0426,-0.0269 0.0851,-0.0539 0.12753,-0.0811 0.0429,-0.0268 0.0849,-0.0548 0.12754,-0.0819 0.044,-0.0283 0.0878,-0.0568 0.1317,-0.0852 0.0461,-0.0306 0.0922,-0.0614 0.13825,-0.0921 0.0482,-0.0319 0.0956,-0.065 0.14324,-0.0978 0.049,-0.0341 0.0984,-0.0677 0.14738,-0.10182 0.0481,-0.0334 0.0962,-0.0668 0.14453,-0.1 0.0483,-0.0333 0.0967,-0.0663 0.14469,-0.10006 0.0483,-0.0336 0.0968,-0.067 0.14528,-0.10045 0.0479,-0.0331 0.0956,-0.0665 0.14311,-0.10015 0.0469,-0.0333 0.0937,-0.0667 0.14026,-0.10048 0.0453,-0.0325 0.0904,-0.0652 0.13533,-0.0981 0.0453,-0.0333 0.0905,-0.0666 0.13578,-0.1 0.0461,-0.0339 0.0917,-0.0684 0.1371,-0.10323 0.0464,-0.0358 0.0928,-0.0716 0.13872,-0.10793 0.0477,-0.0376 0.096,-0.0745 0.14377,-0.11198 0.0477,-0.0373 0.0952,-0.0749 0.14317,-0.11194 0.0472,-0.0361 0.0943,-0.0723 0.14128,-0.10863 0.0455,-0.0345 0.0907,-0.0692 0.13615,-0.10373 0.0436,-0.0325 0.0874,-0.0649 0.1316,-0.0967 0.0424,-0.0303 0.085,-0.0604 0.12776,-0.0904 0.0405,-0.0282 0.0818,-0.0554 0.12322,-0.0824 0.0393,-0.0257 0.0783,-0.0519 0.11808,-0.0769 0.0392,-0.0248 0.0784,-0.0498 0.11776,-0.0744 0.0389,-0.0242 0.0777,-0.0488 0.11629,-0.0735 0.0376,-0.0241 0.0753,-0.048 0.11285,-0.0721 0.0384,-0.0247 0.0765,-0.0498 0.11463,-0.0747 0.039,-0.026 0.0779,-0.0521 0.11659,-0.0786 0.0403,-0.027 0.0798,-0.0551 0.11991,-0.0825 0.0285,-0.0196 0.0571,-0.0391 0.0858,-0.0585 0,0 2.10935,-1.21784 2.10935,-1.21784 v 0 c -0.0287,0.0194 -0.0573,0.0389 -0.0858,0.0585 -0.0401,0.0274 -0.0796,0.0555 -0.1199,0.0825 -0.0387,0.0265 -0.0776,0.0526 -0.1166,0.0786 -0.0382,0.0249 -0.0763,0.05 -0.11462,0.0747 -0.0376,0.0241 -0.0753,0.048 -0.11285,0.0721 -0.0386,0.0247 -0.0774,0.0493 -0.1163,0.0735 -0.0394,0.0246 -0.0785,0.0495 -0.11775,0.0743 -0.0398,0.025 -0.0788,0.0512 -0.11809,0.0769 -0.0414,0.0269 -0.0827,0.0541 -0.12322,0.0824 -0.0427,0.0299 -0.0853,0.06 -0.12775,0.0904 -0.0442,0.0318 -0.088,0.0642 -0.13161,0.0967 -0.0454,0.0345 -0.0907,0.0692 -0.13615,0.10373 -0.047,0.0363 -0.0941,0.0725 -0.14127,0.10863 -0.048,0.037 -0.0954,0.0747 -0.14318,0.11195 -0.0478,0.0375 -0.0961,0.0744 -0.14376,0.11197 -0.0459,0.0364 -0.0923,0.0722 -0.13872,0.10793 -0.0454,0.0348 -0.091,0.0693 -0.13711,0.10324 -0.0452,0.0333 -0.0905,0.0667 -0.13578,0.1 -0.0449,0.0329 -0.0901,0.0656 -0.13533,0.0981 -0.0465,0.0338 -0.0934,0.0672 -0.14025,0.10048 -0.0475,0.0337 -0.0952,0.067 -0.14311,0.10015 -0.0484,0.0335 -0.097,0.0668 -0.14529,0.10045 -0.048,0.0337 -0.0964,0.0668 -0.14468,0.10007 -0.0483,0.0332 -0.0964,0.0666 -0.14454,0.1 -0.049,0.0341 -0.0984,0.0677 -0.14737,0.10182 -0.0476,0.0328 -0.095,0.0659 -0.14324,0.0978 -0.0461,0.0307 -0.0921,0.0615 -0.13826,0.0921 -0.0439,0.0284 -0.0877,0.0569 -0.13169,0.0852 -0.0426,0.0271 -0.0847,0.0552 -0.12755,0.0819 -0.0424,0.0272 -0.0849,0.0542 -0.12752,0.0811 -0.0397,0.0253 -0.0794,0.0506 -0.11906,0.0758 -0.0355,0.0224 -0.071,0.045 -0.10613,0.0681 -0.035,0.0225 -0.0698,0.0452 -0.10466,0.0679 -0.0375,0.0246 -0.0751,0.0492 -0.11264,0.0738 -0.0417,0.0274 -0.0835,0.0547 -0.12524,0.0821 -0.0409,0.0268 -0.0813,0.0542 -0.12122,0.0824 -0.0392,0.0272 -0.0782,0.0545 -0.11689,0.0823 -0.0386,0.0274 -0.0771,0.055 -0.11567,0.0824 -0.0365,0.0256 -0.073,0.0512 -0.10936,0.0771 -0.0354,0.0247 -0.0705,0.0498 -0.10537,0.0752 -0.0337,0.0245 -0.0677,0.0486 -0.10196,0.0722 -0.0324,0.0226 -0.0646,0.0456 -0.0966,0.0687 -0.0321,0.0232 -0.0645,0.0461 -0.0959,0.0704 -0.0314,0.0233 -0.063,0.0463 -0.0941,0.07 -0.0305,0.0228 -0.0601,0.0469 -0.09,0.0706 -0.0278,0.0225 -0.0561,0.0446 -0.0841,0.0669 -0.0246,0.0194 -0.049,0.0389 -0.0725,0.0595 -0.0196,0.0171 -0.0392,0.0342 -0.0584,0.0517 -0.0138,0.0131 -0.0273,0.0265 -0.0397,0.0409 0,0 -2.10935,1.21783 -2.10935,1.21783 z"
       inkscape:connector-curvature="0"
       style="stroke-width:0.26458332" />
    <path
       id="path107"
       d="m 100.8516,114.88736 c 0.67765,-0.47122 1.72012,-0.99589 2.15831,-1.24879 0.0216,-0.0121 0.0438,-0.0231 0.066,-0.034 0.0239,-0.0114 0.0475,-0.0233 0.0714,-0.0345 0.0267,-0.0127 0.0533,-0.0256 0.08,-0.0383 0.0298,-0.0144 0.0594,-0.0291 0.0889,-0.044 0.0309,-0.016 0.0624,-0.0309 0.0935,-0.0467 0.0314,-0.0155 0.0625,-0.0316 0.0935,-0.0479 0.0326,-0.0172 0.0657,-0.0335 0.0984,-0.0506 0.0357,-0.0183 0.0709,-0.0373 0.10592,-0.0568 0.7928,-0.45076 -2.8129,1.641 -2.00345,1.15627 0.0341,-0.0206 0.0683,-0.0413 0.10237,-0.0619 0.0347,-0.0207 0.0695,-0.0411 0.1041,-0.062 0.0364,-0.0213 0.0724,-0.0436 0.10854,-0.0654 0.0368,-0.0225 0.0733,-0.0456 0.10992,-0.0685 0.0346,-0.0214 0.0684,-0.0442 0.10227,-0.0668 0.03,-0.0197 0.0594,-0.04 0.0889,-0.0604 0.0172,-0.0129 0.0349,-0.0253 0.051,-0.0396 0.008,-0.009 -0.0121,0.001 -0.0145,0.002 -0.79872,0.41112 2.7711,-1.6298 2.03352,-1.1751 -0.0373,0.0235 -0.0735,0.0486 -0.10946,0.0741 -0.043,0.0304 -0.0857,0.0613 -0.12853,0.0918 -0.0416,0.0295 -0.0834,0.0587 -0.12514,0.088 -0.0356,0.0249 -0.0709,0.0503 -0.10732,0.074 -0.69733,0.42837 -2.8198,1.68951 -2.07394,1.18685 0.0387,-0.0252 0.0779,-0.0496 0.11675,-0.0746 0.0405,-0.0266 0.0814,-0.0526 0.12228,-0.0786 0.0357,-0.0223 0.0709,-0.0454 0.10612,-0.0684 0.0137,-0.009 0.0301,-0.0191 0.0409,-0.0292 -0.0225,0.009 -0.0436,0.0215 -0.0646,0.0336 3.49452,-2.13367 2.71476,-1.58217 1.99377,-1.1483 -0.0358,0.0209 -0.0706,0.0434 -0.10555,0.0658 -0.0117,0.008 -0.0272,0.0168 -0.0375,0.0236 0.001,-5.2e-4 0.002,-7.9e-4 0.003,-10e-4 0,0 -2.10936,1.21784 -2.10936,1.21784 v 0 c -0.001,5.3e-4 -0.002,7.9e-4 -0.003,0.001 0.0103,-0.007 0.0258,-0.0161 0.0375,-0.0236 0.0349,-0.0224 0.0697,-0.0449 0.10555,-0.0658 0.73435,-0.44192 1.42653,-0.94136 2.22494,-1.28737 0.021,-0.0121 0.0422,-0.0244 0.0646,-0.0336 -0.0107,0.0101 -0.0272,0.0206 -0.0409,0.0292 -0.0353,0.023 -0.0704,0.0462 -0.10612,0.0684 -0.0409,0.026 -0.0818,0.052 -0.12228,0.0786 -0.0389,0.0249 -0.0781,0.0493 -0.11675,0.0746 -0.67418,0.45436 -2.89515,1.70897 -2.14477,1.24883 0.0364,-0.0237 0.0717,-0.0491 0.10732,-0.074 0.0417,-0.0293 0.0835,-0.0586 0.12514,-0.088 0.0429,-0.0305 0.0855,-0.0614 0.12852,-0.0918 0.0359,-0.0255 0.0722,-0.0505 0.10947,-0.0741 0.7158,-0.44128 1.43625,-0.87911 2.18519,-1.26058 0.002,-10e-4 0.023,-0.0119 0.0145,-0.002 -0.0161,0.0143 -0.0337,0.0267 -0.0509,0.0396 -0.0295,0.0204 -0.0589,0.0408 -0.0889,0.0604 -0.0339,0.0226 -0.0676,0.0454 -0.10227,0.0668 -0.0366,0.0229 -0.0731,0.046 -0.10992,0.0685 -0.0362,0.0218 -0.0721,0.044 -0.10854,0.0654 -0.0346,0.0209 -0.0694,0.0413 -0.1041,0.062 -0.0341,0.0207 -0.0683,0.0413 -0.10237,0.0619 -0.73157,0.43809 -1.47368,0.85847 -2.21526,1.2794 -0.035,0.0196 -0.0702,0.0386 -0.10592,0.0568 -0.0327,0.0171 -0.0657,0.0334 -0.0984,0.0506 -0.031,0.0164 -0.062,0.0324 -0.0935,0.0479 -0.0311,0.0158 -0.0625,0.0307 -0.0935,0.0467 -0.0295,0.0149 -0.0591,0.0296 -0.0889,0.044 -0.0267,0.0127 -0.0533,0.0256 -0.08,0.0383 -0.0239,0.0113 -0.0476,0.0232 -0.0715,0.0345 -0.0222,0.011 -0.0444,0.0219 -0.0661,0.034 4.41633,-2.55077 2.71624,-1.65345 2.06041,-1.18688 0,0 -2.10935,1.21784 -2.10935,1.21784 z"
       inkscape:connector-curvature="0"
       style="stroke-width:0.26458332" />
  </g>
</svg>
