<?xml version="1.0" encoding="UTF-8" standalone="no"?>
<!-- Created with Inkscape (http://www.inkscape.org/) -->

<svg
   xmlns:dc="http://purl.org/dc/elements/1.1/"
   xmlns:cc="http://creativecommons.org/ns#"
   xmlns:rdf="http://www.w3.org/1999/02/22-rdf-syntax-ns#"
   xmlns:svg="http://www.w3.org/2000/svg"
   xmlns="http://www.w3.org/2000/svg"
   xmlns:sodipodi="http://sodipodi.sourceforge.net/DTD/sodipodi-0.dtd"
   xmlns:inkscape="http://www.inkscape.org/namespaces/inkscape"
   width="210mm"
   height="297mm"
   viewBox="0 0 210 297"
   version="1.1"
   id="svg146"
   inkscape:version="0.92.3 (2405546, 2018-03-11)"
   sodipodi:docname="R03.svg">
  <defs
     id="defs140" />
  <sodipodi:namedview
     id="base"
     pagecolor="#ffffff"
     bordercolor="#666666"
     borderopacity="1.0"
     inkscape:pageopacity="0.0"
     inkscape:pageshadow="2"
     inkscape:zoom="1.4"
     inkscape:cx="397.3601"
     inkscape:cy="798.89543"
     inkscape:document-units="mm"
     inkscape:current-layer="layer1"
     showgrid="false"
     inkscape:window-width="1600"
     inkscape:window-height="845"
     inkscape:window-x="0"
     inkscape:window-y="27"
     inkscape:window-maximized="1" />
  <metadata
     id="metadata143">
    <rdf:RDF>
      <cc:Work
         rdf:about="">
        <dc:format>image/svg+xml</dc:format>
        <dc:type
           rdf:resource="http://purl.org/dc/dcmitype/StillImage" />
        <dc:title></dc:title>
      </cc:Work>
    </rdf:RDF>
  </metadata>
  <g
     inkscape:label="Layer 1"
     inkscape:groupmode="layer"
     id="layer1">
    <path
       id="path3855"
       d="m 65.916896,51.518925 c 0.06716,-0.06155 0.138978,-0.117266 0.21299,-0.170243 0.09284,-0.06934 0.187672,-0.135972 0.283824,-0.200636 0.120981,-0.08044 0.242091,-0.160685 0.362831,-0.241496 0.132173,-0.0866 0.2657,-0.171109 0.397923,-0.257617 0.138205,-0.09142 0.2804,-0.17649 0.422256,-0.262057 3.378777,-2.002007 6.826036,-3.920476 10.203609,-5.892675 3.245151,-1.89488 -13.004025,7.53909 -9.764504,5.634598 3.451453,-2.040273 6.94023,-4.016306 10.417511,-6.011786 0.140346,-0.08089 0.281988,-0.159588 0.424778,-0.236082 0.139483,-0.07468 0.277823,-0.151397 0.417986,-0.224816 0.141142,-0.07274 0.284753,-0.140558 0.42925,-0.206328 0.144579,-0.06473 0.287742,-0.132527 0.432157,-0.197622 0.140446,-0.06304 0.282075,-0.123484 0.424394,-0.182174 0.138451,-0.05643 0.278122,-0.109887 0.41832,-0.161822 0.13436,-0.04993 0.269666,-0.09719 0.405259,-0.143639 0.13039,-0.045 0.261824,-0.08687 0.393629,-0.127503 0.129003,-0.03951 0.258643,-0.07697 0.388612,-0.113173 0.12396,-0.03385 0.247862,-0.06792 0.372173,-0.100457 0.117917,-0.03059 0.235995,-0.06054 0.354407,-0.08917 0.115168,-0.02784 0.230891,-0.05332 0.346522,-0.07915 0.10827,-0.02678 0.217768,-0.04657 0.328076,-0.06258 0.106881,-0.01392 0.213452,-0.03079 0.320807,-0.04063 0.105603,-0.008 0.211407,-0.01294 0.317185,-0.01799 0.107818,-0.0059 0.215897,-0.0021 0.323781,1.61e-4 0.112371,0.0052 0.224383,0.01503 0.335952,0.0292 0.113041,0.01495 0.225976,0.03013 0.338297,0.0498 0.113826,0.01852 0.22598,0.04535 0.338121,0.07194 0.111588,0.02561 0.221329,0.05839 0.330182,0.09368 0.115078,0.03505 0.228031,0.07646 0.341278,0.116928 0.109675,0.04401 0.219736,0.08734 0.328162,0.134374 0.110072,0.04529 0.217223,0.0968 0.324478,0.148264 0.108537,0.05417 0.214987,0.112197 0.32054,0.171929 0.106211,0.0565 0.210825,0.115607 0.314086,0.177313 0.103188,0.05859 0.204621,0.1202 0.304771,0.183825 0.102484,0.0668 0.202637,0.137186 0.30081,0.210166 0.09741,0.0726 0.193138,0.147415 0.288968,0.222081 0.09752,0.07461 0.191669,0.153257 0.284485,0.233587 0.09478,0.08003 0.184483,0.165629 0.275754,0.249537 0.09065,0.08489 0.179663,0.171458 0.265904,0.260829 0.08539,0.08884 0.170193,0.178191 0.252203,0.270176 0.08102,0.09585 0.161819,0.191868 0.241639,0.288727 0.08125,0.09807 0.152918,0.203306 0.226438,0.30711 0.07896,0.109627 0.150654,0.224049 0.218858,0.34059 0.06829,0.124754 0.136525,0.24956 0.203698,0.374922 0.06942,0.128718 0.133051,0.260419 0.193937,0.393348 0.06212,0.135642 0.118549,0.273778 0.172606,0.412798 0.05735,0.139547 0.115451,0.278778 0.170944,0.419079 0.05435,0.137276 0.105712,0.275706 0.155184,0.414808 0.04967,0.13933 0.09472,0.280236 0.137808,0.42172 0.04374,0.146682 0.08287,0.294677 0.122322,0.442552 0.0381,0.144815 0.07429,0.290116 0.108577,0.435875 0.03557,0.149677 0.06628,0.300434 0.09638,0.451284 0.03308,0.155977 0.05399,0.314044 0.07456,0.472035 0.02058,0.157387 0.03872,0.315076 0.05617,0.47284 0.01786,0.163097 0.03396,0.326376 0.04963,0.489698 0.01595,0.163878 0.03028,0.327904 0.04405,0.491975 0.01402,0.168857 0.02673,0.33782 0.0391,0.506806 0.0132,0.17095 0.01609,0.342498 0.02035,0.513848 0.0041,0.168481 0.0077,0.33697 0.0113,0.505465 0.0035,0.167648 0.0068,0.335301 0.0099,0.502957 0.0033,0.172032 0.0061,0.344075 0.0088,0.516115 2.64e-4,0.18466 0.0098,0.36907 0.01878,0.553455 0.0094,0.190175 0.0182,0.380376 0.0267,0.57059 0.0088,0.195101 0.01659,0.390242 0.02392,0.585401 0.0078,0.21046 0.01458,0.420952 0.02125,0.631449 0.0068,0.215551 0.01302,0.431118 0.01887,0.646698 0.0064,0.234545 0.01164,0.469119 0.01675,0.703696 0.0026,0.243078 0.01445,0.485868 0.02585,0.728649 0.01146,0.253132 0.02252,0.506249 0.03749,0.759201 0.01667,0.280376 0.03314,0.560763 0.0493,0.841171 0.01878,0.268507 0.0413,0.536742 0.06239,0.80508 0.02005,0.263678 0.03894,0.527402 0.06337,0.790717 0.02461,0.25834 0.04876,0.516721 0.0721,0.775179 0.02365,0.261668 0.04448,0.523579 0.06489,0.785517 0.02048,0.26426 0.03927,0.528648 0.05762,0.793062 0.0176,0.262614 0.03429,0.525253 0.05568,0.787587 0.02299,0.272476 0.04463,0.545063 0.06521,0.81773 0.02101,0.281709 0.0402,0.563552 0.05878,0.845431 0.01876,0.282255 0.03584,0.564618 0.05219,0.847021 0.01741,0.298505 0.03229,0.597149 0.04633,0.895831 0.01434,0.311595 0.0277,0.623234 0.04112,0.934869 0.01249,0.292166 0.02468,0.584342 0.0365,0.876535 0.01132,0.281935 0.02196,0.563896 0.0324,0.845862 0.0092,0.267854 0.0271,0.535316 0.04312,0.802823 0.02117,0.291513 0.02744,0.583631 0.02951,0.875797 0.0011,0.318368 7.94e-4,0.636738 5.29e-4,0.955106 2.65e-4,0.307875 5.29e-4,0.61571 -0.0052,0.923536 -0.0038,0.305057 -0.01783,0.609809 -0.03142,0.914546 -0.01098,0.290629 -0.02735,0.58093 -0.04647,0.871122 -0.01857,0.278183 -0.03675,0.556392 -0.0546,0.834623 -0.01707,0.267605 -0.03332,0.53526 -0.04892,0.802955 -0.01543,0.26408 -0.02968,0.528224 -0.04343,0.792395 -0.01291,0.262419 -0.03377,0.524372 -0.05291,0.786389 -0.01884,0.258342 -0.03652,0.516763 -0.05372,0.775219 -0.01688,0.25224 -0.03255,0.50456 -0.0478,0.756904 -0.01595,0.254016 -0.02991,0.508087 -0.0379,0.762479 -0.0072,0.260577 -0.01252,0.521203 -0.01786,0.781822 -0.0045,0.260271 -0.01201,0.520505 -0.01312,0.780818 2.64e-4,0.277058 0.0052,0.554082 0.0042,0.831143 -0.0011,0.399775 -0.02085,0.79919 -0.03751,1.198536 -0.01752,0.413195 -0.03485,0.8264 -0.05179,1.239618 -0.01572,0.393914 -0.03066,0.787834 -0.05089,1.181545 -0.02045,0.388477 -0.04091,0.776954 -0.06097,1.165449 -0.01894,0.367951 -0.03711,0.735939 -0.05501,1.10394 -0.01709,0.351028 -0.03329,0.702098 -0.04885,1.053198 -0.01884,0.351131 -0.04068,0.702093 -0.06109,1.053137 -0.02024,0.349176 -0.03933,0.698415 -0.05767,1.047697 -0.01535,0.342061 -0.03915,0.683627 -0.06224,1.025228 -0.02056,0.33636 -0.04613,0.67233 -0.07293,1.00824 -0.0281,0.339709 -0.06507,0.678524 -0.103463,1.017191 -0.03615,0.319111 -0.07191,0.638241 -0.113382,0.956707 -0.04006,0.299516 -0.07602,0.599559 -0.123311,0.898043 -0.04696,0.308076 -0.111641,0.613005 -0.178613,0.917231 -0.07347,0.316841 -0.150323,0.63287 -0.230968,0.94796 -0.07547,0.300343 -0.154881,0.599713 -0.23967,0.897563 -0.08201,0.28287 -0.169915,0.56399 -0.260276,0.84429 -0.08859,0.27024 -0.182702,0.5386 -0.282802,0.80479 -0.100206,0.26649 -0.222406,0.52378 -0.341524,0.78212 -0.124608,0.27017 -0.25209,0.53896 -0.379945,0.8076 -0.118533,0.24905 -0.237069,0.4981 -0.355602,0.74716 -0.105791,0.23043 -0.217525,0.45802 -0.327181,0.68662 -0.109064,0.23143 -0.233352,0.45507 -0.362077,0.676 -0.154655,0.25847 -0.314534,0.51374 -0.477147,0.76726 -0.16096,0.25273 -0.320646,0.50627 -0.480505,0.7597 -0.143629,0.22632 -0.284551,0.45437 -0.430236,0.67937 -0.134303,0.20288 -0.267774,0.40627 -0.399553,0.61079 -0.118221,0.18717 -0.23999,0.37196 -0.364085,0.55526 -0.112366,0.17251 -0.228481,0.34247 -0.343977,0.51288 -0.109183,0.16442 -0.22521,0.32414 -0.340913,0.48399 -0.111916,0.15439 -0.225115,0.30785 -0.339106,0.46071 -0.108394,0.1448 -0.217209,0.28929 -0.325966,0.43381 -0.01699,0.0226 -0.03398,0.0451 -0.05097,0.0677 0,0 -9.983779,5.76413 -9.983779,5.76413 v 0 c 0.01699,-0.0226 0.03398,-0.0451 0.05097,-0.0677 0.108757,-0.14453 0.217572,-0.28901 0.325967,-0.43381 0.113987,-0.15286 0.227189,-0.30632 0.339106,-0.46071 0.115699,-0.15986 0.23173,-0.31957 0.34091,-0.48399 0.115496,-0.17041 0.231611,-0.34037 0.343977,-0.51288 0.124097,-0.18331 0.245866,-0.36809 0.364085,-0.55526 0.131781,-0.20452 0.26525,-0.40791 0.399552,-0.61079 0.145688,-0.22501 0.286608,-0.45305 0.430239,-0.67937 0.159856,-0.25343 0.319543,-0.50697 0.480502,-0.7597 0.162616,-0.25353 0.322493,-0.50879 0.477147,-0.76726 0.128728,-0.22093 0.253013,-0.44458 0.362077,-0.676 0.109659,-0.2286 0.221393,-0.4562 0.327181,-0.68662 0.118536,-0.24906 0.23707,-0.49811 0.355603,-0.74716 0.127855,-0.26865 0.255339,-0.53744 0.379944,-0.80761 0.119121,-0.25833 0.241319,-0.51563 0.341527,-0.78212 0.1001,-0.26618 0.194207,-0.53454 0.2828,-0.80478 0.09036,-0.2803 0.178268,-0.56143 0.260276,-0.8443 0.08479,-0.29785 0.164203,-0.59721 0.23967,-0.89756 0.08065,-0.31509 0.157496,-0.63112 0.230971,-0.94796 0.06697,-0.30423 0.131648,-0.60916 0.178609,-0.91723 0.04729,-0.29848 0.08325,-0.59853 0.123312,-0.89804 0.04148,-0.31847 0.07723,-0.6376 0.113382,-0.95671 0.03839,-0.33867 0.07537,-0.67748 0.103465,-1.01719 0.0268,-0.33591 0.05236,-0.67188 0.07293,-1.008239 0.0231,-0.341601 0.0469,-0.683165 0.06224,-1.025229 0.01834,-0.349279 0.03742,-0.698521 0.05767,-1.047697 0.0204,-0.351041 0.04226,-0.702003 0.06109,-1.053137 0.01556,-0.351099 0.03176,-0.702167 0.04885,-1.053195 0.01791,-0.368001 0.03606,-0.735991 0.05501,-1.103939 0.02005,-0.388499 0.0405,-0.776976 0.06097,-1.16545 0.02024,-0.393713 0.03518,-0.78763 0.05089,-1.181547 0.01693,-0.413219 0.03427,-0.826421 0.05179,-1.239616 0.01667,-0.399346 0.03636,-0.798763 0.03752,-1.198538 0.0011,-0.277059 -0.0038,-0.554083 -0.0042,-0.831144 0.0011,-0.260313 0.0087,-0.520544 0.01312,-0.780814 0.0053,-0.26062 0.01061,-0.521248 0.01786,-0.781823 0.008,-0.254391 0.02196,-0.508465 0.0379,-0.762481 0.01524,-0.252344 0.03092,-0.504664 0.0478,-0.756904 0.0172,-0.258453 0.03489,-0.516877 0.05372,-0.775219 0.01916,-0.262017 0.04001,-0.52397 0.05291,-0.786387 0.01376,-0.264173 0.02802,-0.528317 0.04343,-0.792398 0.01558,-0.267694 0.03186,-0.535347 0.04892,-0.802955 0.01783,-0.27823 0.03602,-0.556437 0.05459,-0.83462 0.01913,-0.290192 0.03548,-0.580496 0.04647,-0.871124 0.0136,-0.304737 0.02761,-0.609487 0.03142,-0.914546 0.0057,-0.307827 0.0056,-0.615659 0.0052,-0.923536 2.06e-4,-0.318368 5.29e-4,-0.636738 -5.3e-4,-0.955103 -0.0021,-0.292169 -0.0083,-0.584288 -0.02951,-0.8758 -0.01601,-0.267507 -0.03398,-0.534969 -0.04312,-0.802823 -0.01045,-0.281966 -0.02109,-0.563928 -0.0324,-0.845862 -0.01183,-0.292193 -0.024,-0.58437 -0.0365,-0.876533 -0.01342,-0.311634 -0.02677,-0.623274 -0.04112,-0.934868 -0.01402,-0.298683 -0.02891,-0.597326 -0.04633,-0.895834 -0.01635,-0.282403 -0.03342,-0.564764 -0.05219,-0.847019 -0.01857,-0.281879 -0.03776,-0.563724 -0.05878,-0.845434 -0.02058,-0.272666 -0.04221,-0.54525 -0.06521,-0.817726 -0.02141,-0.262337 -0.03808,-0.524976 -0.05568,-0.787588 -0.01836,-0.264417 -0.03714,-0.528804 -0.05762,-0.793062 -0.0204,-0.26194 -0.04124,-0.523849 -0.0649,-0.785516 -0.02334,-0.258459 -0.04748,-0.516843 -0.0721,-0.775182 -0.02442,-0.263313 -0.04333,-0.527039 -0.06337,-0.790718 -0.02109,-0.268335 -0.04359,-0.536569 -0.06239,-0.805079 -0.01614,-0.280406 -0.03262,-0.560795 -0.04929,-0.841169 -0.01495,-0.252955 -0.02604,-0.506068 -0.03749,-0.759203 -0.0114,-0.242782 -0.02323,-0.485571 -0.02585,-0.728649 -0.0051,-0.234577 -0.01037,-0.469149 -0.01675,-0.703697 -0.0058,-0.215577 -0.01204,-0.431146 -0.01886,-0.646694 -0.0067,-0.210498 -0.01349,-0.420992 -0.02125,-0.631452 -0.0073,-0.19516 -0.01516,-0.3903 -0.02392,-0.585399 -0.0085,-0.190217 -0.0173,-0.380418 -0.02669,-0.57059 -0.009,-0.184388 -0.01844,-0.368794 -0.01878,-0.553455 -0.0027,-0.172043 -0.0055,-0.344083 -0.0088,-0.516115 -0.0031,-0.167656 -0.0064,-0.335312 -0.0099,-0.502959 -0.0036,-0.168492 -0.0072,-0.336984 -0.0113,-0.505466 -0.0043,-0.171349 -0.0071,-0.342897 -0.02035,-0.513847 -0.01236,-0.168984 -0.02506,-0.337947 -0.0391,-0.506804 -0.01376,-0.164074 -0.0281,-0.328099 -0.04405,-0.491977 -0.01566,-0.163319 -0.03177,-0.326602 -0.04963,-0.489699 -0.01746,-0.15776 -0.03558,-0.315449 -0.05617,-0.472837 -0.02056,-0.157993 -0.04148,-0.31606 -0.07456,-0.472035 -0.0301,-0.150852 -0.06081,-0.301609 -0.09638,-0.451284 -0.03429,-0.145761 -0.07048,-0.29106 -0.108577,-0.435874 -0.03946,-0.147879 -0.07858,-0.295873 -0.122325,-0.442556 -0.04309,-0.141483 -0.08814,-0.282389 -0.137805,-0.421719 -0.04948,-0.139099 -0.100838,-0.277532 -0.155184,-0.414808 -0.05549,-0.140298 -0.113596,-0.279533 -0.170947,-0.419077 -0.05405,-0.139022 -0.110482,-0.277159 -0.172604,-0.4128 -0.06089,-0.132927 -0.12452,-0.264628 -0.193939,-0.393345 -0.06717,-0.125363 -0.135409,-0.250172 -0.203698,-0.374925 -0.0682,-0.116541 -0.139893,-0.230963 -0.218855,-0.340591 -0.07352,-0.103804 -0.145193,-0.209039 -0.226441,-0.307109 -0.07982,-0.09686 -0.160615,-0.192879 -0.241636,-0.288727 -0.08201,-0.09198 -0.166809,-0.18133 -0.252203,-0.270177 -0.08624,-0.08937 -0.17525,-0.175932 -0.265907,-0.260829 -0.09127,-0.08391 -0.180975,-0.169505 -0.275751,-0.249536 -0.09282,-0.08033 -0.186965,-0.15898 -0.284488,-0.233587 -0.09583,-0.07467 -0.191558,-0.149474 -0.288965,-0.222081 -0.09817,-0.07298 -0.198326,-0.143359 -0.30081,-0.210167 -0.10015,-0.06362 -0.201583,-0.125237 -0.304771,-0.183821 -0.103261,-0.06171 -0.207878,-0.120817 -0.314089,-0.177316 -0.105553,-0.05973 -0.212,-0.117758 -0.32054,-0.171927 -0.107252,-0.05146 -0.214405,-0.102973 -0.324475,-0.148267 -0.108426,-0.04703 -0.218487,-0.09036 -0.328165,-0.134371 -0.113247,-0.04047 -0.226198,-0.08188 -0.341275,-0.11693 -0.108855,-0.03529 -0.218594,-0.06808 -0.330185,-0.09368 -0.112138,-0.02659 -0.224292,-0.05341 -0.338119,-0.07194 -0.112321,-0.01966 -0.225255,-0.03486 -0.338296,-0.0498 -0.111572,-0.01418 -0.223581,-0.024 -0.335955,-0.0292 -0.107881,-0.0021 -0.21596,-0.0061 -0.323781,-1.61e-4 -0.105775,0.0051 -0.211582,0.01 -0.317185,0.01799 -0.107352,0.0098 -0.213923,0.0267 -0.320805,0.04063 -0.11031,0.01601 -0.219807,0.0358 -0.328075,0.06258 -0.115633,0.02582 -0.231354,0.05131 -0.346522,0.07915 -0.118412,0.02863 -0.23649,0.05857 -0.354409,0.08917 -0.12431,0.03254 -0.248214,0.06661 -0.372171,0.100457 -0.129969,0.03621 -0.259609,0.07366 -0.388612,0.113175 -0.131808,0.04063 -0.26324,0.0825 -0.393629,0.1275 -0.135596,0.04645 -0.270899,0.09371 -0.405262,0.143643 -0.140195,0.05193 -0.279866,0.105394 -0.41832,0.161821 -0.142316,0.05869 -0.283945,0.119132 -0.424391,0.182174 -0.144415,0.06509 -0.287579,0.13289 -0.432157,0.19762 -0.1445,0.06577 -0.288108,0.133588 -0.42925,0.206327 -0.140166,0.07342 -0.278503,0.150143 -0.417986,0.224819 -0.142793,0.07649 -0.284435,0.155186 -0.424781,0.23608 -3.907067,2.242119 13.077487,-7.599082 9.550046,-5.516488 -3.38608,1.990656 -6.796249,3.904408 -10.203053,5.893675 -3.294063,1.923439 6.606791,-3.814728 9.910257,-5.721966 0.04905,-0.02832 -0.195366,0.113054 -0.146309,0.08637 -0.141857,0.08557 -0.284049,0.17064 -0.422257,0.262056 -0.132223,0.08651 -0.26575,0.171022 -0.39792,0.257617 -0.12074,0.08081 -0.241853,0.161052 -0.362831,0.241493 -0.09615,0.06466 -0.190979,0.131294 -0.283824,0.200639 -0.07401,0.05298 -0.145836,0.108693 -0.212992,0.170243 0,0 -9.983777,5.764136 -9.983777,5.764136 z"
       inkscape:connector-curvature="0"
       style="stroke-width:0.26458332" />
    <path
       id="path3871"
       d="m 90.463684,44.064824 c 3.499511,-1.665988 7.951422,-4.572182 -9.702909,5.620137 5.983597,-3.455967 20.950965,-12.094824 0.365496,-0.211879 0.111395,-0.0634 0.2193,-0.132596 0.329422,-0.198141 0.102759,-0.06089 0.2033,-0.125439 0.305107,-0.187902 0.110593,-0.0696 0.218051,-0.143999 0.325771,-0.217926 0.109712,-0.07193 0.218919,-0.144669 0.329295,-0.21558 0.114816,-0.07145 0.230306,-0.141817 0.345644,-0.21244 0.115879,-0.06931 0.229285,-0.142623 0.344434,-0.213116 0.117843,-0.07125 0.234715,-0.144031 0.353322,-0.214006 33.023254,-19.118574 -6.386798,3.744444 0.357722,-0.207941 0.139422,-0.07731 0.27419,-0.162205 0.409025,-0.247102 0.117168,-0.07233 0.233058,-0.146683 0.348906,-0.221099 0.117128,-0.07685 0.234108,-0.153977 0.349755,-0.23304 0.129066,-0.08843 0.260265,-0.173659 0.390631,-0.260146 0.136676,-0.09157 0.27613,-0.17888 0.414038,-0.268545 0.141177,-0.09062 0.282951,-0.180279 0.42367,-0.2716 0.140671,-0.08806 0.277198,-0.182483 0.416118,-0.273235 0.137885,-0.08791 0.275555,-0.176202 0.415263,-0.261204 33.770006,-19.497465 -23.115777,13.341744 10.412413,-6.013813 0.142057,-0.08107 0.286065,-0.158565 0.430675,-0.234955 0.139219,-0.07202 0.276072,-0.14846 0.415539,-0.220001 0.145304,-0.07461 0.294801,-0.140536 0.442658,-0.209839 0.144601,-0.06905 0.290034,-0.136271 0.436044,-0.202279 0.141166,-0.06172 0.281311,-0.125698 0.422162,-0.188121 0.148558,-0.0665 0.297894,-0.131199 0.447074,-0.196279 0.151291,-0.06673 0.302301,-0.134051 0.454341,-0.199062 0.14509,-0.06353 0.29255,-0.121306 0.43947,-0.1804 0.15945,-0.06538 0.32236,-0.121619 0.48521,-0.17779 0.16328,-0.0557 0.3277,-0.107942 0.49231,-0.159567 0.15851,-0.05028 0.31813,-0.09697 0.4783,-0.141672 0.16635,-0.04839 0.33525,-0.08564 0.50532,-0.11808 0.1759,-0.03333 0.3523,-0.06339 0.52974,-0.08718 0.17104,-0.02434 0.3429,-0.04047 0.51511,-0.05347 0.17303,-0.01424 0.34671,-0.01622 0.52021,-0.01455 0.187,0.0035 0.37319,0.02196 0.55933,0.03881 0.18211,0.0196 0.36371,0.04329 0.54473,0.07119 0.1852,0.02666 0.36794,0.06643 0.54994,0.109305 0.19292,0.04798 0.38397,0.102785 0.57461,0.159028 0.1838,0.05391 0.36565,0.114191 0.54774,0.17355 0.17585,0.05906 0.35056,0.1215 0.52352,0.188572 0.18064,0.06801 0.35712,0.146155 0.53378,0.22371 0.17395,0.07976 0.34761,0.160118 0.52011,0.24297 0.17315,0.08414 0.34304,0.174794 0.51252,0.266054 0.16873,0.08965 0.33415,0.185211 0.49782,0.283731 0.16002,0.09894 0.31785,0.201179 0.47344,0.306941 0.15376,0.103788 0.30412,0.212415 0.4528,0.323307 0.14497,0.107707 0.28987,0.215498 0.43127,0.327882 0.14258,0.1093 0.27788,0.227561 0.40777,0.35155 0.1336,0.124605 0.25971,0.256934 0.38326,0.391406 0.12505,0.131545 0.24372,0.268824 0.36144,0.406892 0.11464,0.131376 0.22121,0.269256 0.32432,0.409752 0.10356,0.142515 0.19593,0.292598 0.28977,0.44155 0.0977,0.153972 0.18796,0.312309 0.27483,0.472549 0.0896,0.168031 0.1693,0.341124 0.24571,0.515485 0.0766,0.177334 0.15041,0.355981 0.21631,0.537593 0.0644,0.18051 0.1197,0.36404 0.17438,0.547659 0.0585,0.187809 0.10307,0.379301 0.14204,0.571984 0.0465,0.244671 0.0814,0.491344 0.11604,0.737915 0.0338,0.261694 0.071,0.522859 0.11043,0.783762 0.0397,0.256376 0.0763,0.513207 0.11112,0.770284 0.0319,0.261932 0.0566,0.524663 0.0814,0.787342 0.0261,0.284493 0.0497,0.569235 0.067,0.854403 0.0163,0.300746 0.029,0.601673 0.0418,0.902583 0.0149,0.29514 0.0228,0.590458 0.0276,0.885905 0.005,0.314949 0.002,0.630041 -0.005,0.944943 -0.009,0.325112 -0.0191,0.650166 -0.0291,0.975236 -0.007,0.316322 -0.0202,0.63241 -0.0354,0.948438 -0.0139,0.312928 -0.037,0.625338 -0.0634,0.937425 -0.0265,0.306339 -0.0533,0.61264 -0.0793,0.919019 -0.0274,0.306523 -0.062,0.612294 -0.0968,0.918038 -0.035,0.30739 -0.0689,0.6149 -0.1025,0.922441 -0.0349,0.291052 -0.0727,0.581747 -0.10923,0.872606 -0.0339,0.277352 -0.067,0.554776 -0.10494,0.831612 -0.0373,0.265671 -0.0737,0.53145 -0.109,0.797391 -0.0316,0.257781 -0.0707,0.514522 -0.10864,0.771416 -0.0368,0.250423 -0.0716,0.501126 -0.11099,0.751158 -0.0406,0.246771 -0.0756,0.494426 -0.11636,0.741158 -0.0411,0.239647 -0.0821,0.47932 -0.12182,0.719199 -0.0426,0.233973 -0.0838,0.468257 -0.12945,0.701656 -0.0455,0.226801 -0.0917,0.453446 -0.136,0.680487 -0.0459,0.219618 -0.0939,0.438793 -0.14027,0.6583 -0.0419,0.213087 -0.0914,0.424539 -0.13898,0.636389 -0.0465,0.204777 -0.0905,0.41008 -0.13342,0.615629 -0.0414,0.203238 -0.0884,0.405265 -0.13303,0.607799 -0.0419,0.197831 -0.086,0.395144 -0.13252,0.591949 -0.0434,0.193027 -0.0903,0.38517 -0.13851,0.577033 -0.046,0.189772 -0.0947,0.378833 -0.14418,0.567729 -0.0498,0.192117 -0.10374,0.383159 -0.16044,0.573358 -0.0577,0.195193 -0.12033,0.388868 -0.18431,0.582065 -0.0677,0.194439 -0.13702,0.388294 -0.20944,0.581027 -0.0686,0.18755 -0.149,0.370393 -0.22819,0.553625 -0.0817,0.183864 -0.17094,0.364305 -0.26497,0.542142 -0.0942,0.185348 -0.20129,0.363569 -0.31155,0.53971 -0.11774,0.186889 -0.24061,0.370369 -0.36918,0.549963 -0.13465,0.188127 -0.27814,0.369636 -0.42016,0.552191 -0.14426,0.182459 -0.29172,0.362357 -0.43949,0.541983 -0.14631,0.178734 -0.29523,0.355295 -0.44635,0.529976 -0.14987,0.17372 -0.30463,0.343091 -0.45778,0.513898 -0.15076,0.166404 -0.30217,0.33215 -0.45579,0.495924 -0.14936,0.159927 -0.30137,0.317347 -0.45488,0.473287 -0.14963,0.153 -0.30256,0.302696 -0.45389,0.453996 -0.14937,0.146081 -0.29875,0.292131 -0.44931,0.437001 -0.14651,0.141674 -0.29416,0.282165 -0.44318,0.421198 -0.14612,0.135041 -0.29265,0.269627 -0.43907,0.404339 -0.13444,0.125672 -0.27135,0.248555 -0.40971,0.36988 -0.0219,0.01918 -0.0439,0.03834 -0.0658,0.05751 0,0 -9.983775,5.764136 -9.983775,5.764136 v 0 c 0.02193,-0.01918 0.04389,-0.03834 0.06583,-0.05751 0.138356,-0.121325 0.275265,-0.244208 0.409702,-0.36988 0.146421,-0.134713 0.292957,-0.269296 0.439071,-0.404339 0.149027,-0.13903 0.296669,-0.279524 0.443185,-0.421198 0.150553,-0.144867 0.299937,-0.29092 0.44931,-0.437002 0.151334,-0.151299 0.304255,-0.300992 0.453885,-0.453993 0.153514,-0.15594 0.30552,-0.313362 0.454885,-0.473287 0.153619,-0.163777 0.305027,-0.329522 0.455787,-0.495927 0.153151,-0.170807 0.307909,-0.340177 0.457782,-0.513895 0.151119,-0.174683 0.30004,-0.351242 0.446349,-0.529979 0.147765,-0.179625 0.29523,-0.359523 0.439492,-0.541983 0.142017,-0.182554 0.285517,-0.364061 0.420157,-0.55219 0.12858,-0.179594 0.25145,-0.363072 0.36919,-0.549961 0.11025,-0.176141 0.2173,-0.354361 0.31155,-0.539713 0.094,-0.177837 0.18327,-0.358277 0.26496,-0.542141 0.0792,-0.183232 0.15956,-0.366073 0.2282,-0.553622 0.0724,-0.192736 0.14172,-0.386591 0.20943,-0.581031 0.064,-0.193196 0.12667,-0.386868 0.18432,-0.582062 0.0567,-0.190201 0.11058,-0.381243 0.16043,-0.57336 0.0495,-0.188897 0.0982,-0.377955 0.14418,-0.567727 0.0483,-0.191863 0.0951,-0.384006 0.13851,-0.577035 0.0465,-0.196802 0.0906,-0.394115 0.13252,-0.591947 0.0446,-0.202533 0.0917,-0.404561 0.13303,-0.607798 0.0429,-0.205552 0.087,-0.410856 0.13343,-0.61563 0.0476,-0.211852 0.0971,-0.423302 0.13897,-0.636389 0.0464,-0.219506 0.0944,-0.438685 0.14027,-0.658302 0.0443,-0.227042 0.0905,-0.453686 0.13601,-0.680484 0.0457,-0.2334 0.0868,-0.467686 0.12945,-0.70166 0.0397,-0.239879 0.0807,-0.479552 0.12181,-0.719198 0.0408,-0.246732 0.0758,-0.494384 0.11636,-0.741156 0.0394,-0.250034 0.0742,-0.500735 0.111,-0.751157 0.0379,-0.256898 0.077,-0.513639 0.10863,-0.77142 0.0353,-0.265938 0.0717,-0.531719 0.109,-0.797388 0.0379,-0.276838 0.071,-0.554262 0.10494,-0.831611 0.0365,-0.290862 0.0743,-0.581557 0.10923,-0.872609 0.0336,-0.307539 0.0675,-0.615048 0.1025,-0.922441 0.0348,-0.305742 0.0694,-0.611516 0.0968,-0.918038 0.026,-0.30638 0.0529,-0.61268 0.0793,-0.919017 0.0264,-0.312087 0.0495,-0.624499 0.0634,-0.937424 0.0152,-0.316032 0.028,-0.632116 0.0354,-0.948441 0.01,-0.32507 0.0205,-0.650124 0.0291,-0.975233 0.007,-0.314905 0.009,-0.629995 0.005,-0.944944 -0.005,-0.295447 -0.0127,-0.590767 -0.0276,-0.885904 -0.0128,-0.300911 -0.0255,-0.60184 -0.0418,-0.902587 -0.0173,-0.285168 -0.0409,-0.569909 -0.067,-0.8544 -0.0247,-0.262681 -0.0495,-0.525412 -0.0814,-0.787342 -0.0348,-0.25708 -0.0714,-0.513911 -0.11112,-0.770287 -0.0394,-0.2609 -0.0766,-0.522065 -0.11043,-0.783759 -0.0346,-0.24657 -0.0695,-0.493247 -0.11604,-0.737918 -0.039,-0.192682 -0.0835,-0.384175 -0.14204,-0.571984 -0.0547,-0.183618 -0.11002,-0.367146 -0.17438,-0.547658 -0.0659,-0.18161 -0.13968,-0.360257 -0.21631,-0.537591 -0.0764,-0.17436 -0.15607,-0.347454 -0.24571,-0.515485 -0.0869,-0.160242 -0.17718,-0.31858 -0.27483,-0.472551 -0.0938,-0.148953 -0.1862,-0.299032 -0.28976,-0.441547 -0.10312,-0.1405 -0.20969,-0.278379 -0.32433,-0.409755 -0.11772,-0.138068 -0.23639,-0.275347 -0.36143,-0.40689 -0.12356,-0.134474 -0.24967,-0.2668 -0.38326,-0.391409 -0.1299,-0.123989 -0.2652,-0.242247 -0.40778,-0.351549 -0.1414,-0.112384 -0.2863,-0.220175 -0.43126,-0.327882 -0.14869,-0.11089 -0.29905,-0.21952 -0.4528,-0.323308 -0.15559,-0.105759 -0.31343,-0.207994 -0.473452,-0.30694 -0.163666,-0.09852 -0.329089,-0.194083 -0.497814,-0.283731 -0.169479,-0.09126 -0.339373,-0.181912 -0.512527,-0.266055 -0.172498,-0.08285 -0.346154,-0.163208 -0.520102,-0.242969 -0.176665,-0.07755 -0.353145,-0.155694 -0.533784,-0.223711 -0.172958,-0.06707 -0.347665,-0.129508 -0.52352,-0.188571 -0.182089,-0.05936 -0.363945,-0.119639 -0.547741,-0.173551 -0.19064,-0.05624 -0.38169,-0.111043 -0.574611,-0.159025 -0.181996,-0.04288 -0.364736,-0.08265 -0.549942,-0.109305 -0.181012,-0.0279 -0.362619,-0.05158 -0.544727,-0.07119 -0.186134,-0.01685 -0.372329,-0.03525 -0.559326,-0.03881 -0.173503,-0.0016 -0.347184,2.64e-4 -0.520216,0.01455 -0.172209,0.01299 -0.344069,0.02912 -0.515104,0.05346 -0.177437,0.02379 -0.353846,0.05385 -0.529746,0.08718 -0.170064,0.03244 -0.338968,0.06969 -0.505317,0.118081 -0.160168,0.04471 -0.319786,0.09139 -0.478303,0.141668 -0.164608,0.05163 -0.329023,0.103868 -0.492308,0.15957 -0.162848,0.05617 -0.325758,0.112411 -0.485209,0.177787 -0.146917,0.05909 -0.294378,0.116875 -0.43947,0.180401 -0.15204,0.06501 -0.303048,0.132337 -0.45434,0.199062 -0.14918,0.06508 -0.298519,0.129781 -0.447074,0.196281 -0.140854,0.06242 -0.280996,0.126405 -0.422164,0.188122 -0.14601,0.06601 -0.291441,0.133225 -0.436041,0.202279 -0.147857,0.0693 -0.297358,0.135226 -0.442661,0.209836 -0.139465,0.07154 -0.276318,0.147976 -0.415539,0.220001 -0.144611,0.07639 -0.288616,0.153887 -0.430676,0.234955 33.037284,-19.076036 -23.362216,13.48985 9.69727,-5.598245 0.04762,-0.0275 -0.189952,0.109543 -0.142126,0.08378 -0.139705,0.08501 -0.277376,0.173297 -0.415261,0.261207 -0.138922,0.09075 -0.275447,0.185172 -0.416118,0.273236 -0.140721,0.09132 -0.282495,0.180983 -0.423669,0.271597 -0.137912,0.08967 -0.277366,0.176977 -0.414039,0.268544 -0.130365,0.08649 -0.261567,0.171718 -0.390633,0.260147 -0.115647,0.07906 -0.232627,0.156188 -0.349756,0.233042 -0.115847,0.07441 -0.231737,0.14877 -0.348906,0.221099 -0.134831,0.08489 -0.269602,0.169788 -0.409024,0.2471 -6.592586,3.863353 -20.419499,11.74079 -0.357722,0.207944 -0.118608,0.06997 -0.235479,0.142758 -0.353322,0.214005 -0.115147,0.07049 -0.228555,0.143801 -0.344435,0.213114 -0.115337,0.07062 -0.230825,0.140997 -0.345643,0.212439 -0.110374,0.07091 -0.219583,0.143651 -0.329296,0.215583 -0.107719,0.07392 -0.215175,0.148323 -0.32577,0.217924 -0.101804,0.06246 -0.202348,0.127016 -0.305107,0.187904 -0.110123,0.06554 -0.218028,0.134742 -0.329422,0.198142 -29.984734,17.314682 3.063583,-1.770111 -0.365496,0.211878 -2.988601,1.725538 -6.712749,4.205041 -10.264645,5.908135 0,0 9.983777,-5.764136 9.983777,-5.764136 z"
       inkscape:connector-curvature="0"
       style="stroke-width:0.26458332" />
    <path
       id="path3879"
       d="m 86.514775,88.378889 c 0.06874,-0.05023 0.139591,-0.0975 0.211479,-0.143087 3.396967,-2.064173 6.860452,-4.020275 10.32824,-5.964285 0.133448,-0.07327 0.268663,-0.143317 0.404117,-0.212799 0.157382,-0.08009 0.313563,-0.162385 0.468082,-0.24787 5.584507,-2.836724 -31.477349,17.788758 0.488667,-0.276225 0.16401,-0.0897 0.328425,-0.178726 0.494059,-0.265398 0.179618,-0.09247 0.361368,-0.180636 0.543579,-0.267848 0.197061,-0.092 0.394435,-0.183277 0.593112,-0.271743 0.21446,-0.09809 0.43118,-0.190979 0.64839,-0.282779 0.23302,-0.09767 0.46752,-0.191743 0.70158,-0.286877 0.23682,-0.09595 0.47484,-0.189 0.71356,-0.280154 0.24748,-0.0944 0.49881,-0.178083 0.74912,-0.264528 0.24718,-0.08621 0.49458,-0.171886 0.74411,-0.251081 0.23585,-0.07259 0.47301,-0.140785 0.71071,-0.20701 0.23032,-0.06519 0.46211,-0.124577 0.69554,-0.177488 0.23049,-0.05091 0.46205,-0.09686 0.69379,-0.141724 0.2265,-0.04064 0.45421,-0.07409 0.68191,-0.107175 0.22515,-0.03494 0.4518,-0.05802 0.67843,-0.08069 0.21946,-0.02339 0.43988,-0.03537 0.66039,-0.04265 0.22147,-0.01021 0.44298,5.3e-4 0.66398,0.01479 0.22245,0.01709 0.44343,0.04888 0.66374,0.08333 0.21023,0.03294 0.41942,0.07278 0.62646,0.121944 0.20735,0.04639 0.40901,0.112961 0.60718,0.188881 0.20371,0.07994 0.39913,0.179126 0.5914,0.283162 0.19239,0.108009 0.37716,0.228672 0.55819,0.354598 0.18507,0.133403 0.36419,0.274904 0.53961,0.420711 0.18192,0.151064 0.3545,0.312777 0.52633,0.475078 0.17737,0.167931 0.3391,0.351446 0.4971,0.537429 0.16125,0.195541 0.31386,0.398153 0.46385,0.602409 0.14945,0.202578 0.28975,0.411676 0.42532,0.623734 0.13685,0.215045 0.25981,0.438356 0.37799,0.664062 0.12117,0.230635 0.22739,0.468437 0.32786,0.70866 0.10484,0.247179 0.19005,0.50169 0.27024,0.757698 0.0795,0.265163 0.14469,0.53418 0.20406,0.804449 0.0603,0.271701 0.10386,0.546659 0.14254,0.822135 0.0394,0.270891 0.0661,0.543319 0.092,0.815761 0.0238,0.270182 0.0378,0.541004 0.0434,0.812138 0.003,0.274003 -0.002,0.548151 -0.0121,0.821981 -0.01,0.26856 -0.0272,0.536752 -0.0502,0.804476 -0.0226,0.269018 -0.0575,0.536774 -0.098,0.803622 -0.0395,0.267272 -0.0894,0.532749 -0.14196,0.797716 -0.0533,0.274526 -0.1129,0.547791 -0.17804,0.819737 -0.0706,0.2789 -0.14751,0.556163 -0.22721,0.832578 -0.0797,0.275363 -0.16264,0.549799 -0.24793,0.823489 -0.0859,0.279485 -0.17797,0.556969 -0.27365,0.833229 -0.0986,0.288012 -0.19669,0.57613 -0.29794,0.863205 -0.10466,0.2935 -0.20558,0.588307 -0.3088,0.882309 -0.10404,0.29926 -0.21008,0.597816 -0.31518,0.896705 -0.10883,0.312446 -0.21756,0.624922 -0.32636,0.937376 -0.11229,0.322977 -0.22115,0.647081 -0.32957,0.97137 -0.11327,0.343075 -0.22356,0.687113 -0.32894,1.032688 -0.11156,0.356602 -0.21851,0.714592 -0.32162,1.073712 -0.0999,0.35711 -0.206,0.71243 -0.30173,1.07069 -0.0896,0.34221 -0.17362,0.68583 -0.25702,1.02959 -0.0766,0.32195 -0.15468,0.64357 -0.22468,0.96703 -0.0665,0.3018 -0.11953,0.60626 -0.17079,0.91095 -0.0451,0.2884 -0.0836,0.57777 -0.1221,0.86711 -0.0378,0.26597 -0.0658,0.53312 -0.0937,0.80025 -0.0273,0.24029 -0.0425,0.48168 -0.0492,0.72336 -0.006,0.22337 10e-4,0.44679 0.0129,0.66985 0.01,0.20014 0.0301,0.39955 0.0552,0.59827 0.0211,0.17741 0.0539,0.35311 0.0965,0.52656 0.0398,0.15171 0.0981,0.2976 0.16574,0.43881 0.0581,0.12312 0.13168,0.23751 0.21424,0.34544 0.072,0.0943 0.16331,0.16974 0.25996,0.23724 0.0923,0.0619 0.19331,0.10864 0.29622,0.1496 0.10171,0.0433 0.21029,0.0632 0.31916,0.078 0.11123,0.017 0.22336,0.0212 0.33566,0.02 0.11644,5.3e-4 0.23182,-0.0152 0.34685,-0.0313 0.11936,-0.0189 0.23709,-0.0459 0.35448,-0.0742 0.12355,-0.0317 0.24568,-0.0682 0.36609,-0.11021 0.13084,-0.0443 0.25576,-0.10353 0.38048,-0.16241 0.13256,-0.0644 0.26046,-0.13773 0.39008,-0.20771 0.12909,-0.074 0.25956,-0.14546 0.38907,-0.21867 3.52738,-2.03242 -13.37605,7.88138 -9.58987,5.52662 0.12879,-0.0788 0.2549,-0.16184 0.38189,-0.2435 0.11768,-0.0756 0.23541,-0.15118 0.35313,-0.22675 0.0541,-0.0351 0.10861,-0.0697 0.16345,-0.10376 0,0 9.98378,-5.76413 9.98378,-5.76413 v 0 c -0.0548,0.034 -0.10932,0.0686 -0.16346,0.10375 -0.11772,0.0756 -0.23544,0.15113 -0.35312,0.22676 -0.12699,0.0816 -0.25311,0.16468 -0.38189,0.24349 -3.39331,2.11043 -6.90964,4.01665 -10.37769,6.00165 -0.12951,0.0732 -0.25998,0.14471 -0.38907,0.21867 -0.12962,0.07 -0.25752,0.14329 -0.39008,0.20772 -0.12471,0.0589 -0.24964,0.11807 -0.38048,0.16241 -0.12041,0.042 -0.24254,0.0785 -0.36609,0.11021 -0.11739,0.0283 -0.23512,0.0553 -0.35448,0.0742 -0.11503,0.0161 -0.23041,0.0318 -0.34684,0.0313 -0.11231,0.001 -0.22443,-0.003 -0.33566,-0.0201 -0.10888,-0.0148 -0.21745,-0.0346 -0.31916,-0.0779 -0.10292,-0.041 -0.20397,-0.0877 -0.29623,-0.1496 -0.0967,-0.0675 -0.18795,-0.14299 -0.25996,-0.23724 -0.0826,-0.10794 -0.15611,-0.22233 -0.21424,-0.34545 -0.0676,-0.14121 -0.12597,-0.2871 -0.16573,-0.4388 -0.0426,-0.17345 -0.0753,-0.34915 -0.0965,-0.52657 -0.0252,-0.19872 -0.0455,-0.39813 -0.0552,-0.59826 -0.0115,-0.22306 -0.0184,-0.44649 -0.0129,-0.66986 0.007,-0.24168 0.0219,-0.48307 0.0492,-0.72335 0.0279,-0.26714 0.0559,-0.53429 0.0937,-0.80025 0.0385,-0.28934 0.077,-0.57872 0.12211,-0.86712 0.0513,-0.30469 0.10429,-0.60914 0.17079,-0.91095 0.07,-0.32346 0.1481,-0.64508 0.22468,-0.96702 0.0834,-0.34376 0.16745,-0.68738 0.25702,-1.0296 0.0957,-0.35826 0.20187,-0.71357 0.30173,-1.07069 0.10311,-0.35912 0.21005,-0.71711 0.32161,-1.07371 0.10539,-0.34557 0.21568,-0.68961 0.32895,-1.03269 0.10842,-0.32428 0.21728,-0.64839 0.32957,-0.97136 0.1088,-0.31246 0.21754,-0.62493 0.32636,-0.93738 0.1051,-0.29889 0.21114,-0.59745 0.31518,-0.89671 0.10322,-0.294 0.20414,-0.58881 0.3088,-0.8823 0.10125,-0.28708 0.19939,-0.5752 0.29794,-0.86321 0.0957,-0.276259 0.18779,-0.553746 0.27365,-0.833231 0.0853,-0.273687 0.16819,-0.548126 0.24793,-0.823489 0.0797,-0.276415 0.15665,-0.553675 0.22721,-0.832577 0.0651,-0.271947 0.12475,-0.545211 0.17804,-0.819735 0.0525,-0.26497 0.10242,-0.530445 0.14196,-0.797716 0.0405,-0.266851 0.0754,-0.534604 0.0979,-0.803622 0.023,-0.267724 0.0406,-0.535916 0.0502,-0.804479 0.01,-0.27383 0.0156,-0.547976 0.0121,-0.821978 -0.006,-0.271135 -0.0196,-0.541957 -0.0434,-0.812141 -0.0259,-0.272442 -0.0526,-0.544867 -0.092,-0.815758 -0.0387,-0.275479 -0.0823,-0.550434 -0.14254,-0.822137 -0.0594,-0.27027 -0.12457,-0.539287 -0.20406,-0.80445 -0.0802,-0.256008 -0.1654,-0.510519 -0.27024,-0.757695 -0.10047,-0.240226 -0.20669,-0.478026 -0.32786,-0.708663 -0.11818,-0.225703 -0.24114,-0.449016 -0.37799,-0.664062 -0.13557,-0.212055 -0.27587,-0.421156 -0.42532,-0.623731 -0.15,-0.204256 -0.3026,-0.406869 -0.46385,-0.602409 -0.158,-0.185986 -0.31973,-0.369501 -0.4971,-0.537432 -0.17183,-0.162298 -0.34441,-0.324012 -0.52633,-0.475075 -0.17542,-0.14581 -0.35454,-0.287311 -0.53961,-0.420712 -0.18103,-0.125928 -0.3658,-0.246589 -0.55819,-0.3546 -0.19227,-0.104036 -0.38769,-0.203223 -0.5914,-0.283159 -0.19817,-0.07592 -0.399833,-0.142489 -0.607182,-0.188881 -0.207036,-0.04916 -0.416229,-0.089 -0.626456,-0.121944 -0.220316,-0.03445 -0.441299,-0.06624 -0.663745,-0.08334 -0.220998,-0.01423 -0.442505,-0.02503 -0.663977,-0.01479 -0.220509,0.0073 -0.440928,0.01926 -0.660387,0.04265 -0.226634,0.02268 -0.453284,0.04575 -0.678431,0.08069 -0.227698,0.03309 -0.455411,0.06654 -0.681908,0.107175 -0.23174,0.04486 -0.463298,0.09082 -0.693798,0.141726 -0.233421,0.05291 -0.46522,0.112303 -0.695534,0.177486 -0.237699,0.06622 -0.474864,0.134419 -0.710708,0.20701 -0.249534,0.07919 -0.496933,0.164875 -0.744117,0.251081 -0.250309,0.08644 -0.501639,0.170133 -0.74912,0.264528 -0.238715,0.09115 -0.476734,0.184203 -0.71356,0.280157 -0.234064,0.09513 -0.468561,0.189209 -0.701582,0.286874 -0.2172,0.0918 -0.43393,0.184685 -0.648383,0.282782 -0.198678,0.08846 -0.396052,0.179739 -0.593114,0.27174 -0.18221,0.08721 -0.363961,0.175384 -0.543578,0.267848 -0.165635,0.08667 -0.33005,0.175705 -0.494059,0.265398 -3.291285,1.860008 13.100779,-7.552742 9.821309,-5.671978 -3.438705,1.972085 -6.845017,4.015555 -10.309979,5.948206 -0.154519,0.08548 -0.310698,0.167778 -0.46808,0.247867 -0.135453,0.06948 -0.270668,0.139528 -0.404116,0.212799 -3.550071,1.990138 13.302235,-7.780078 9.639313,-5.563986 -0.07189,0.04559 -0.142735,0.09285 -0.211476,0.143086 0,0 -9.98378,5.764136 -9.98378,5.764136 z"
       inkscape:connector-curvature="0"
       style="stroke-width:0.26458332" />
    <path
       id="path3909"
       d="m 89.620306,45.625906 c -0.07996,0.05818 -0.155475,0.122115 -0.230719,0.186179 -0.104339,0.08792 -0.207309,0.177506 -0.313063,0.263723 -0.117782,0.100222 -0.241898,0.192569 -0.364779,0.286351 -0.129947,0.0964 -0.260477,0.191987 -0.392723,0.285208 -0.134406,0.0961 -0.270357,0.189997 -0.404543,0.286406 -0.134676,0.0938 -0.268655,0.188634 -0.404064,0.281379 -0.135588,0.09303 -0.271076,0.186251 -0.406178,0.280003 -0.131029,0.09075 -0.260569,0.183639 -0.392281,0.273394 -0.123058,0.08317 -0.246862,0.165185 -0.372396,0.244562 -0.122772,0.07534 -0.244285,0.152699 -0.367027,0.228098 -0.124889,0.07126 -0.246082,0.148616 -0.368806,0.223467 -0.12092,0.07672 -0.241893,0.153313 -0.362275,0.230867 -0.121502,0.0778 -0.243224,0.155321 -0.362027,0.237204 -0.119912,0.08032 -0.237506,0.163944 -0.355648,0.24682 -0.117633,0.08603 -0.23632,0.170603 -0.354081,0.256458 -0.119943,0.08796 -0.240006,0.175829 -0.356695,0.268081 -0.11973,0.09617 -0.24062,0.190849 -0.359087,0.288586 -0.119489,0.09843 -0.238996,0.196734 -0.356672,0.297344 -0.116636,0.09731 -0.234273,0.193453 -0.349782,0.292103 -0.119094,0.103751 -0.238096,0.207571 -0.355875,0.312817 -0.11765,0.101602 -0.236011,0.202345 -0.352131,0.305702 -0.118113,0.10528 -0.233614,0.21341 -0.34762,0.323106 -0.1196,0.11425 -0.235268,0.232392 -0.349682,0.351796 -0.115001,0.120631 -0.226118,0.244652 -0.33265,0.372811 -0.112389,0.132498 -0.216244,0.271515 -0.316526,0.413276 -0.103968,0.148942 -0.205288,0.299588 -0.302197,0.453221 -0.09723,0.154077 -0.187724,0.312253 -0.275113,0.472078 -0.08796,0.162499 -0.167582,0.329234 -0.244325,0.497257 -0.07717,0.171009 -0.146116,0.34552 -0.218694,0.518481 -0.07217,0.168224 -0.143155,0.336946 -0.211743,0.506663 -0.06734,0.166198 -0.129685,0.334357 -0.189709,0.503317 -0.06353,0.169506 -0.126283,0.339286 -0.186153,0.51012 -0.05938,0.168952 -0.115681,0.338941 -0.16868,0.509995 -0.05837,0.190325 -0.09711,0.385868 -0.135429,0.580988 -0.04171,0.218881 -0.08034,0.438388 -0.111636,0.659008 -0.03187,0.24298 -0.05688,0.486793 -0.08135,0.730607 -0.02574,0.260286 -0.04253,0.521483 -0.05427,0.782757 -0.01238,0.268078 -0.01545,0.536342 -0.01609,0.804658 -0.0028,0.27894 0.0049,0.557787 0.0117,0.83661 0.0057,0.299688 0.01714,0.599234 0.03368,0.898512 0.0168,0.311089 0.04018,0.621699 0.06545,0.932193 0.0259,0.312388 0.04981,0.624933 0.07319,0.937519 0.02315,0.310431 0.04442,0.620999 0.06546,0.931577 0.01995,0.297275 0.0393,0.594588 0.05811,0.891937 0.01818,0.287811 0.03492,0.575709 0.05158,0.863611 0.01529,0.275431 0.02996,0.550854 0.05032,0.825963 0.02032,0.262945 0.04076,0.525883 0.06045,0.788879 0.01897,0.256714 0.03695,0.513503 0.05456,0.770315 0.01696,0.24697 0.03294,0.494004 0.04844,0.741067 0.01442,0.238871 0.02811,0.477739 0.04754,0.716261 0.01926,0.229312 0.03907,0.458576 0.05798,0.687917 0.01844,0.222546 0.03544,0.445206 0.05236,0.667872 0.01619,0.215119 0.03154,0.430302 0.04649,0.645511 0.01445,0.206688 0.02804,0.413433 0.04127,0.620202 0.01291,0.200697 0.025,0.401447 0.03663,0.602224 0.01127,0.196437 0.02201,0.392903 0.03252,0.589383 0.01016,0.193447 0.01963,0.386932 0.02886,0.580427 0.0099,0.194241 0.0099,0.388834 0.01127,0.583279 0.0013,0.200509 0.0024,0.401021 0.0032,0.601533 0.0011,0.209053 0.0019,0.418108 0.0028,0.62716 7.93e-4,0.216387 0.0016,0.432774 0.0024,0.649161 7.94e-4,0.215765 0.0016,0.43153 0.0021,0.647295 -7.1e-5,0.216437 0.0031,0.432885 1.06e-4,0.649306 -0.0048,0.219779 -0.01143,0.439513 -0.01754,0.659257 -0.0061,0.222446 -0.0118,0.444905 -0.01733,0.667369 -0.0055,0.224348 -0.01053,0.44871 -0.0154,0.673074 -0.005,0.227798 -0.0094,0.455607 -0.01368,0.683421 -0.0043,0.233204 -0.0083,0.466416 -0.01214,0.699627 -0.0038,0.227584 -0.0073,0.455173 -0.01077,0.682765 -0.0034,0.224285 -0.0065,0.448572 -0.0096,0.672862 -0.003,0.221906 -0.0058,0.443815 -0.0085,0.665726 -0.0027,0.222367 -0.0051,0.444736 -0.0075,0.667105 -0.0024,0.22035 -0.0046,0.4407 -0.0067,0.661056 -0.0021,0.225224 -0.004,0.450453 -0.0059,0.67568 -0.0019,0.222448 -0.0036,0.444897 -0.0053,0.667348 -0.0016,0.222348 -0.0032,0.444695 -0.0047,0.667043 -0.0013,0.216017 -0.0028,0.432033 -0.0042,0.64805 -0.0013,0.211899 -0.0024,0.423799 -0.0037,0.635701 -0.0011,0.203959 -0.0021,0.407918 -0.0033,0.611878 -0.0011,0.202808 -0.0019,0.405619 -0.0029,0.608428 -7.94e-4,0.199181 -0.0019,0.398364 -0.0026,0.597545 -7.94e-4,0.198335 -0.0016,0.396666 -0.0024,0.595001 -7.93e-4,0.193757 -0.0013,0.387514 -0.0021,0.581271 -7.94e-4,0.195278 -0.0013,0.390559 -0.0019,0.585837 4.2e-5,0.197372 -2.36e-4,0.394671 -0.0061,0.591961 -0.0066,0.198694 -0.01418,0.397356 -0.02125,0.596037 -0.0069,0.193739 -0.01341,0.387493 -0.01974,0.58125 -0.0061,0.187642 -0.01191,0.375295 -0.01754,0.562954 -0.0094,0.201432 -0.0222,0.402664 -0.03784,0.603702 -0.01804,0.225227 -0.03568,0.450483 -0.05282,0.675781 -0.01685,0.222424 -0.03251,0.444933 -0.04784,0.667469 -0.01238,0.215442 -0.033,0.430236 -0.05347,0.645025 -0.02006,0.209479 -0.03928,0.419037 -0.05747,0.628685 -0.01799,0.206936 -0.03484,0.413967 -0.05125,0.621032 -0.0163,0.206595 -0.03137,0.413285 -0.04549,0.620038 -0.01241,0.215307 -0.02928,0.430226 -0.04805,0.645057 -0.01897,0.213251 -0.03765,0.426527 -0.05575,0.639854 -0.01765,0.20743 -0.03407,0.41495 -0.04994,0.62252 -0.01519,0.20856 -0.0293,0.41715 -0.04888,0.62535 -0.02016,0.20661 -0.03998,0.41325 -0.05917,0.61995 -0.01714,0.20756 -0.03817,0.41469 -0.06109,0.62168 -0.02304,0.20748 -0.04567,0.41499 -0.06734,0.62261 -0.01937,0.20539 -0.04266,0.41031 -0.0679,0.61505 -0.02559,0.20619 -0.05015,0.4125 -0.07338,0.61896 -0.02365,0.20965 -0.04509,0.41953 -0.06559,0.6295 -0.02437,0.21404 -0.05074,0.42785 -0.07596,0.6418 -0.02445,0.21295 -0.0473,0.42604 -0.07541,0.63855 -0.02697,0.21368 -0.05894,0.42669 -0.09559,0.63892 -0.03605,0.21096 -0.08133,0.42015 -0.12437,0.62975 -0.04529,0.2083 -0.09374,0.41586 -0.144677,0.62285 -0.0504,0.2092 -0.108661,0.41641 -0.171772,0.6221 -0.06785,0.21337 -0.143457,0.42412 -0.225984,0.63223 -0.08477,0.21422 -0.180072,0.42402 -0.281516,0.6308 -0.104968,0.21178 -0.220694,0.41789 -0.336304,0.62396 -0.118332,0.20467 -0.235355,0.41009 -0.35804,0.6122 -0.12038,0.20092 -0.248126,0.3973 -0.377076,0.5928 -0.124256,0.19015 -0.25246,0.37759 -0.383974,0.56279 -0.131582,0.1871 -0.269523,0.36964 -0.415123,0.54604 -0.165386,0.19558 -0.336304,0.38639 -0.506918,0.5774 -0.08617,0.0979 -0.174913,0.19343 -0.263422,0.28919 0,0 -9.983779,5.76414 -9.983779,5.76414 v 0 c 0.08851,-0.0958 0.177252,-0.19132 0.263424,-0.2892 0.170614,-0.19101 0.34153,-0.38181 0.506918,-0.5774 0.145598,-0.17639 0.283538,-0.35894 0.415123,-0.54603 0.131514,-0.1852 0.259715,-0.37264 0.383974,-0.5628 0.128948,-0.19549 0.256696,-0.39187 0.377074,-0.5928 0.122687,-0.2021 0.23971,-0.40753 0.358039,-0.6122 0.11561,-0.20607 0.231339,-0.41217 0.336304,-0.62395 0.101444,-0.20679 0.196747,-0.41658 0.281517,-0.63081 0.08253,-0.20811 0.158131,-0.41885 0.225986,-0.63223 0.06311,-0.20569 0.121378,-0.41289 0.171773,-0.62209 0.05093,-0.20699 0.09938,-0.41455 0.144677,-0.62285 0.04305,-0.2096 0.08832,-0.4188 0.124367,-0.62976 0.03665,-0.21222 0.06861,-0.42524 0.09559,-0.63892 0.0281,-0.2125 0.05097,-0.42559 0.0754,-0.63854 0.02521,-0.21395 0.0516,-0.42776 0.07596,-0.6418 0.02051,-0.20997 0.04195,-0.41986 0.06559,-0.6295 0.02323,-0.20647 0.0478,-0.41277 0.07338,-0.61896 0.02524,-0.20474 0.04852,-0.40966 0.0679,-0.61505 0.02167,-0.20762 0.0443,-0.41514 0.06734,-0.62261 0.02291,-0.20699 0.04394,-0.41412 0.06109,-0.62169 0.01918,-0.2067 0.03902,-0.41333 0.05917,-0.61994 0.01958,-0.2082 0.03369,-0.41679 0.04888,-0.62535 0.01587,-0.20757 0.03231,-0.4151 0.04994,-0.62253 0.0181,-0.21332 0.03679,-0.4266 0.05575,-0.63985 0.01876,-0.21483 0.03565,-0.42975 0.04805,-0.64506 0.01413,-0.20675 0.0292,-0.41344 0.04549,-0.62003 0.0164,-0.20707 0.03325,-0.4141 0.05125,-0.62104 0.0182,-0.20964 0.03742,-0.4192 0.05747,-0.62868 0.02048,-0.21479 0.04109,-0.42958 0.05346,-0.64503 0.01532,-0.22253 0.031,-0.44504 0.04784,-0.66746 0.01714,-0.2253 0.03478,-0.45056 0.05282,-0.67579 0.01564,-0.20103 0.02844,-0.40226 0.03784,-0.6037 0.0056,-0.187653 0.0114,-0.375306 0.01754,-0.562949 0.0063,-0.193759 0.01281,-0.387511 0.01974,-0.58125 0.0071,-0.198681 0.01458,-0.397346 0.02122,-0.59604 0.0059,-0.197286 0.0062,-0.394589 0.0061,-0.591957 5.29e-4,-0.195281 0.0011,-0.39056 0.0019,-0.585838 5.29e-4,-0.193757 0.0013,-0.387517 0.0021,-0.581274 7.93e-4,-0.198331 0.0016,-0.396666 0.0024,-0.594997 7.94e-4,-0.199184 0.0016,-0.398365 0.0026,-0.597549 7.93e-4,-0.202808 0.0019,-0.405616 0.0029,-0.608428 0.0011,-0.203959 0.0021,-0.407918 0.0033,-0.611878 0.0011,-0.211899 0.0024,-0.423801 0.0037,-0.635701 0.0013,-0.216016 0.0027,-0.432033 0.0042,-0.648046 0.0016,-0.222351 0.003,-0.444699 0.0047,-0.667047 0.0016,-0.222448 0.0034,-0.444897 0.0053,-0.667345 0.0019,-0.225229 0.0038,-0.450456 0.0059,-0.675682 0.0021,-0.220353 0.0043,-0.440706 0.0067,-0.661056 0.0024,-0.222369 0.0049,-0.444739 0.0075,-0.667105 0.0027,-0.221909 0.0055,-0.443817 0.0085,-0.665723 0.003,-0.22429 0.0062,-0.44858 0.0096,-0.672865 0.0034,-0.227592 0.007,-0.455181 0.01077,-0.682765 0.0039,-0.233212 0.0078,-0.466421 0.01214,-0.699627 0.0042,-0.227812 0.0087,-0.455623 0.01368,-0.683419 0.0049,-0.224364 0.0099,-0.448725 0.0154,-0.673073 0.0055,-0.222465 0.01119,-0.444924 0.01733,-0.667372 0.0061,-0.219745 0.01275,-0.439476 0.01754,-0.659255 0.003,-0.216421 -1.77e-4,-0.432871 -1.03e-4,-0.649308 -7.94e-4,-0.215765 -0.0013,-0.43153 -0.0021,-0.647295 -7.94e-4,-0.216387 -0.0016,-0.432774 -0.0024,-0.649158 -7.93e-4,-0.209056 -0.0019,-0.418108 -0.0028,-0.627163 -0.0011,-0.200512 -0.0019,-0.401021 -0.0032,-0.601533 -0.0013,-0.194445 -0.0013,-0.389038 -0.01127,-0.583279 -0.0092,-0.193495 -0.01871,-0.386977 -0.02886,-0.580427 -0.0105,-0.196477 -0.02125,-0.392944 -0.03252,-0.589381 -0.01164,-0.200776 -0.02371,-0.401526 -0.03663,-0.602226 -0.01323,-0.206767 -0.02682,-0.413512 -0.04127,-0.620199 -0.01495,-0.21521 -0.03029,-0.430395 -0.0465,-0.645512 -0.01693,-0.222668 -0.03393,-0.445328 -0.05236,-0.667875 -0.01892,-0.22934 -0.03871,-0.458605 -0.05798,-0.687914 -0.01942,-0.238524 -0.03313,-0.47739 -0.04753,-0.716264 -0.0155,-0.247062 -0.03148,-0.494096 -0.04844,-0.741063 -0.01762,-0.256813 -0.03558,-0.513601 -0.05456,-0.770319 -0.01968,-0.262996 -0.04013,-0.525931 -0.06045,-0.788879 -0.02037,-0.275108 -0.03503,-0.550529 -0.05032,-0.825963 -0.01667,-0.287901 -0.03341,-0.575797 -0.05158,-0.863608 -0.01881,-0.297349 -0.03817,-0.594664 -0.05811,-0.891937 -0.02103,-0.310581 -0.0423,-0.621149 -0.06546,-0.931579 -0.02339,-0.312584 -0.04728,-0.625131 -0.07319,-0.937517 -0.02527,-0.310496 -0.04864,-0.621106 -0.06545,-0.932195 -0.01654,-0.299279 -0.02796,-0.598821 -0.03368,-0.89851 -0.0068,-0.278823 -0.01445,-0.55767 -0.0117,-0.836609 5.29e-4,-0.268317 0.0037,-0.536581 0.01609,-0.804662 0.01175,-0.261271 0.02853,-0.52247 0.05427,-0.782754 0.02447,-0.243816 0.04947,-0.487627 0.08135,-0.730607 0.0313,-0.220623 0.06993,-0.440126 0.111633,-0.659008 0.03832,-0.19512 0.07706,-0.390663 0.135429,-0.580991 0.053,-0.17105 0.109305,-0.341042 0.168683,-0.509992 0.05987,-0.170836 0.122623,-0.340614 0.18615,-0.510122 0.06003,-0.16896 0.122367,-0.337116 0.189709,-0.503317 0.06859,-0.169714 0.139578,-0.338439 0.211746,-0.506661 0.07258,-0.172961 0.141523,-0.347472 0.218694,-0.518483 0.07674,-0.168021 0.156358,-0.334759 0.244321,-0.497258 0.08739,-0.159824 0.177885,-0.317997 0.275117,-0.472077 0.09691,-0.153633 0.198226,-0.304279 0.302194,-0.453218 0.100282,-0.141761 0.204136,-0.280781 0.316526,-0.413277 0.106532,-0.128161 0.217651,-0.252182 0.33265,-0.372814 0.114416,-0.119401 0.230082,-0.237543 0.349681,-0.351792 0.114009,-0.109696 0.229508,-0.217829 0.347623,-0.323109 0.11612,-0.103355 0.234482,-0.2041 0.352129,-0.305703 0.117782,-0.105246 0.236781,-0.209063 0.355875,-0.312814 0.115509,-0.09865 0.233145,-0.194794 0.349784,-0.292105 0.117674,-0.100608 0.237183,-0.198909 0.356672,-0.297344 0.118467,-0.09774 0.239358,-0.192413 0.359084,-0.288584 0.116692,-0.09225 0.236755,-0.180123 0.356696,-0.268084 0.117763,-0.08585 0.23645,-0.170423 0.354081,-0.256455 0.118145,-0.08288 0.235736,-0.1665 0.35565,-0.246822 0.118804,-0.08188 0.240523,-0.159406 0.362027,-0.237201 0.120383,-0.07756 0.241353,-0.154152 0.362276,-0.230868 0.122721,-0.07485 0.243916,-0.152207 0.368805,-0.223467 0.122743,-0.0754 0.244255,-0.152757 0.367025,-0.2281 0.125536,-0.07938 0.24934,-0.16139 0.372395,-0.24456 0.131715,-0.08975 0.261255,-0.182647 0.392282,-0.273396 0.135104,-0.09375 0.27059,-0.186968 0.406181,-0.280003 0.135405,-0.09274 0.269385,-0.187577 0.404063,-0.281379 0.134186,-0.09641 0.270137,-0.190302 0.404543,-0.286407 0.132247,-0.09322 0.262773,-0.188809 0.392721,-0.285207 0.122883,-0.09378 0.246999,-0.186127 0.364778,-0.286351 0.105757,-0.08622 0.208727,-0.175805 0.313063,-0.263721 0.07525,-0.06406 0.150762,-0.128 0.23072,-0.186179 0,0 9.983779,-5.764138 9.983779,-5.764138 z"
       inkscape:connector-curvature="0"
       style="stroke-width:0.26458332" />
  </g>
</svg>
