<?xml version="1.0" encoding="UTF-8" standalone="no"?>
<!-- Created with Inkscape (http://www.inkscape.org/) -->

<svg
   xmlns:dc="http://purl.org/dc/elements/1.1/"
   xmlns:cc="http://creativecommons.org/ns#"
   xmlns:rdf="http://www.w3.org/1999/02/22-rdf-syntax-ns#"
   xmlns:svg="http://www.w3.org/2000/svg"
   xmlns="http://www.w3.org/2000/svg"
   xmlns:sodipodi="http://sodipodi.sourceforge.net/DTD/sodipodi-0.dtd"
   xmlns:inkscape="http://www.inkscape.org/namespaces/inkscape"
   width="210mm"
   height="297mm"
   viewBox="0 0 210 297"
   version="1.1"
   id="svg3950"
   inkscape:version="0.92.3 (2405546, 2018-03-11)"
   sodipodi:docname="R04.svg">
  <defs
     id="defs3944" />
  <sodipodi:namedview
     id="base"
     pagecolor="#ffffff"
     bordercolor="#666666"
     borderopacity="1.0"
     inkscape:pageopacity="0.0"
     inkscape:pageshadow="2"
     inkscape:zoom="1.2825342"
     inkscape:cx="397.00796"
     inkscape:cy="506.89067"
     inkscape:document-units="mm"
     inkscape:current-layer="layer1"
     showgrid="false"
     inkscape:window-width="1600"
     inkscape:window-height="845"
     inkscape:window-x="0"
     inkscape:window-y="27"
     inkscape:window-maximized="1" />
  <metadata
     id="metadata3947">
    <rdf:RDF>
      <cc:Work
         rdf:about="">
        <dc:format>image/svg+xml</dc:format>
        <dc:type
           rdf:resource="http://purl.org/dc/dcmitype/StillImage" />
        <dc:title></dc:title>
      </cc:Work>
    </rdf:RDF>
  </metadata>
  <g
     inkscape:label="Layer 1"
     inkscape:groupmode="layer"
     id="layer1">
    <path
       id="path4194"
       d="m 27.599333,113.95566 c 0.486502,-0.3168 0.826722,-0.80881 1.340932,-1.08306 0.105637,-0.0563 0.228761,-0.0742 0.335232,-0.12893 0.08589,-0.0442 0.16332,-0.10315 0.244978,-0.15473 0.08166,-0.0731 0.158038,-0.15249 0.244978,-0.21919 0.135739,-0.10413 0.295203,-0.17439 0.431935,-0.27721 0.06883,-0.0518 0.257466,-0.22858 0.196627,-0.16762 -10.990547,11.01254 -19.876325,19.8117 0.39809,-0.32234 0.163242,-0.11201 0.348766,-0.18437 0.51816,-0.28527 0.107214,-0.0639 0.203988,-0.14437 0.311864,-0.2071 0.29513,-0.17162 0.642231,-0.28094 0.954728,-0.41461 0.198784,-0.0611 0.405148,-0.10411 0.579305,-0.22644 0.06861,-0.0482 0.23993,-0.23433 0.180509,-0.17517 -3.835447,3.81855 -15.278897,15.33627 -11.508614,11.45336 11.457611,-11.79986 6.307144,-11.21623 12.040853,-11.81962 0.237194,-0.11378 0.500118,-0.0815 0.747752,-0.12769 0.298807,-0.0557 0.602067,-0.20207 0.874739,-0.32876 0.135334,-0.0472 0.501131,-0.17121 0.616289,-0.22854 0.104275,-0.0519 0.19191,-0.13388 0.296955,-0.18422 0.348636,-0.16709 0.529796,-0.17481 0.852329,-0.42299 0.06121,-0.0362 0.124092,-0.0698 0.183634,-0.10867 0.208145,-0.13601 0.202186,-0.17368 0.462256,-0.29871 0.109278,-0.0525 0.581837,-0.19929 0.671258,-0.23884 0.110541,-0.0489 0.211701,-0.11671 0.317551,-0.17506 0.3508,-0.0951 0.685061,-0.2654 1.049451,-0.30944 0.110294,-0.0133 0.223128,0.007 0.333205,-0.008 0.11007,-0.015 0.371968,-0.10763 0.488334,-0.14675 0.05921,-0.0113 0.121359,-0.0122 0.177641,-0.0338 0.357294,-0.1369 -0.01302,-0.0726 0.363469,-0.18551 0.407535,-0.1222 -7.94e-4,0.0427 0.418221,-0.0253 0.075,-0.0122 0.14282,-0.0519 0.214231,-0.0778 0.474408,-0.18863 0.955511,-0.10575 1.443858,-0.0766 0.264726,0.0504 0.565528,-0.0742 0.826428,-0.0122 0.01479,0.004 0.401148,0.20008 0.415581,0.20738 0.06821,0.052 0.132207,0.11004 0.204619,0.15601 0.410001,0.26027 0.450704,0.23231 0.772075,0.60591 0.437388,0.21181 0.788482,0.51692 1.08944,0.89306 0.248481,0.24315 0.46871,0.4993 0.610897,0.82113 0.03061,0.0693 0.04405,0.14492 0.06607,0.21738 0.03465,0.0689 0.0693,0.1378 0.103947,0.20671 0.05802,0.067 0.129222,0.12466 0.174061,0.20116 0.0848,0.14467 0.311936,0.69833 0.337453,0.86855 0.133657,0.8916 -0.133959,-0.24656 0.08068,0.59572 0.176155,0.72392 0.06977,1.47235 0.05549,2.20791 -0.04738,0.62903 0.07653,1.27407 0.01135,1.9012 -0.0342,0.32908 -0.141438,0.64643 -0.207558,0.97061 -0.374099,0.85949 -0.238455,1.74427 -0.259133,2.64369 -0.0056,0.24304 -0.120441,1.49163 -0.141435,1.72819 -0.01505,0.28463 -0.01908,0.57006 -0.04514,0.8539 -0.02556,0.27834 -0.07846,0.55358 -0.109667,0.83136 -0.132429,1.17883 -0.260411,2.35765 -0.441685,3.53045 -0.07344,0.72329 -0.101896,0.80217 -0.09909,1.50052 7.94e-4,0.20274 0.03063,0.40519 0.02297,0.60779 -0.02545,0.67293 -0.153464,1.34438 -0.304419,1.99768 -0.0363,0.20722 -0.06759,0.41538 -0.108889,0.62166 -0.117401,0.58636 -0.17208,0.61478 -0.21934,1.21042 -0.07396,0.93216 0.04263,0.31224 0.01323,1.33235 -0.007,0.24276 -0.04595,0.48353 -0.06893,0.72529 -0.137671,0.62185 -0.09223,1.26015 -0.137417,1.88821 -0.04991,0.69367 -0.166899,1.37774 -0.207986,2.07366 5.29e-4,0.20843 0.01423,0.41724 0.0016,0.62529 -0.0041,0.0683 -0.158247,1.33272 -0.16419,1.40261 -0.02151,0.25308 -0.01691,0.50806 -0.04169,0.76084 -0.0483,0.49257 -0.132225,0.98109 -0.186306,1.47305 -0.06769,1.23435 -0.135186,2.4799 -0.334965,3.702 -0.39097,2.39163 -0.0284,-0.32593 -0.330102,2.08978 -0.125733,0.77572 -0.230775,1.55941 -0.206984,2.34718 0.01521,0.50328 0.06863,1.00515 0.08415,1.50911 -8.2e-5,1.2668 -0.02405,2.5333 -0.01863,3.80014 0.08734,1.02182 -0.116282,2.0221 -0.203579,3.0345 -0.06647,0.77089 -0.05211,0.90781 -0.05237,1.64363 0.0016,0.0456 0.05254,1.44387 0.05169,1.46582 -0.0092,0.23842 -0.17394,1.63691 -0.193201,1.85836 -0.07087,0.81479 -0.05778,0.87697 -0.0645,1.64494 0.07511,1.45222 0.06643,2.90559 0.05235,4.35908 -0.0079,0.85409 -1.72e-4,1.7082 -5e-6,2.56231 -0.0359,0.69825 0.04615,1.4045 -0.0011,2.10197 -0.04557,0.67445 -0.199991,1.34202 -0.25771,2.01711 1.9e-5,0.19271 -0.0046,0.38547 5.6e-5,0.57812 0.0039,0.16131 0.03422,0.32225 0.0258,0.48339 -0.01294,0.24752 -0.128135,0.72385 -0.167663,0.97216 -0.06518,0.40945 -0.05145,0.41437 -0.05804,0.81768 0.06427,0.81568 0.05703,1.63264 0.04595,2.44989 -0.04242,0.70158 0.04632,1.41104 -0.0011,2.11178 -0.04138,0.61277 -0.142806,1.22004 -0.205391,1.83101 -0.06892,0.44723 -0.214897,1.33625 -0.258527,1.81857 -0.0186,0.20565 -0.0055,0.41345 -0.02598,0.61893 -0.0353,0.35442 -0.138173,0.69092 -0.167476,1.04739 0.04093,0.6733 0.05033,1.34629 0.0419,2.0207 -0.05857,0.47368 0.05722,0.96916 -0.004,1.44136 -0.03725,0.28722 -0.138091,0.56256 -0.204888,0.84438 -0.115123,0.49384 0.01204,0.99102 0.01225,1.48987 -0.119747,0.31415 -0.249666,0.61007 -0.273907,0.95023 -0.0098,0.13742 0.01214,0.27608 -2.1e-5,0.4133 -7.2e-5,8e-4 -0.151342,0.88188 -0.151522,0.88292 -0.257408,0.61966 -0.484341,1.25652 -0.660984,1.90431 -0.04026,0.10805 -0.06905,0.2211 -0.12078,0.32415 -0.05089,0.10137 -0.134184,0.18417 -0.185243,0.28545 -0.0529,0.10493 -0.08324,0.21978 -0.124857,0.32967 -0.04513,0.13108 -0.07331,0.26929 -0.135382,0.39325 -0.07712,0.15399 -0.190135,0.28733 -0.279251,0.4347 -0.108929,0.18014 -0.209807,0.36502 -0.314709,0.54753 -0.196181,0.37826 -0.38409,0.69462 -0.502259,1.10863 -0.05845,0.20479 -0.118888,0.84247 -0.160956,1.0438 -0.0806,0.38576 -0.196961,0.64212 -0.338603,1.0122 -0.07888,0.16378 -0.147503,0.33291 -0.236646,0.49134 -0.190657,0.36488 -0.466733,0.67724 -0.668843,1.03477 -0.208084,0.3681 -0.35722,0.76723 -0.56084,1.13781 -0.119274,0.21708 -0.252444,0.42623 -0.378667,0.63935 -0.59392,0.8309 -1.127992,1.71241 -1.746387,2.52574 -0.429758,0.56524 -0.611622,0.71332 -1.119674,1.2252 -1.472819,1.62332 0.291163,-0.36079 -1.022446,1.23783 -0.106672,0.12981 -0.533413,0.54296 -0.648417,0.72519 -0.0286,0.0453 -0.0879,0.29207 -0.10541,0.361 -0.0021,0.017 -0.02283,0.0473 -0.0061,0.0511 0.104781,0.0237 0.311211,-0.16126 0.33949,-0.18091 0,0 -11.669937,11.66994 -11.669937,11.66994 v 0 c -0.02828,0.0197 -0.234708,0.2046 -0.339489,0.1809 -0.01673,-0.004 0.0041,-0.0341 0.0061,-0.0511 0.0175,-0.0689 0.07681,-0.31569 0.105409,-0.36101 0.115003,-0.18223 0.541746,-0.59537 0.648419,-0.72519 1.313606,-1.59861 -0.450376,0.38549 1.022445,-1.23783 0.508052,-0.51187 0.689915,-0.65995 1.119674,-1.22519 0.618394,-0.81334 1.152466,-1.69484 1.746387,-2.52574 0.126223,-0.21312 0.259391,-0.42227 0.378668,-0.63935 0.203618,-0.37059 0.352756,-0.76972 0.560837,-1.13782 0.20211,-0.35753 0.47819,-0.66989 0.668846,-1.03476 0.08914,-0.15843 0.157763,-0.32756 0.236643,-0.49134 0.141642,-0.37008 0.258001,-0.62645 0.338603,-1.0122 0.04207,-0.20134 0.102505,-0.83901 0.160957,-1.0438 0.118168,-0.41401 0.306081,-0.73037 0.502259,-1.10863 0.104902,-0.18251 0.205779,-0.36739 0.314708,-0.54753 0.08912,-0.14738 0.202134,-0.28071 0.279252,-0.43471 0.06208,-0.12395 0.09025,-0.26216 0.135382,-0.39324 0.04162,-0.10989 0.07196,-0.22474 0.124857,-0.32967 0.05106,-0.10129 0.134355,-0.18408 0.185245,-0.28545 0.05173,-0.10306 0.08052,-0.2161 0.120777,-0.32416 0.176644,-0.64778 0.403577,-1.28464 0.660988,-1.90431 1.77e-4,-0.001 0.151447,-0.88209 0.151521,-0.88291 0.01217,-0.13723 -0.0098,-0.27588 1.9e-5,-0.4133 0.02424,-0.34017 0.154159,-0.63608 0.273907,-0.95024 -1.85e-4,-0.49885 -0.127362,-0.99603 -0.01225,-1.48987 0.0668,-0.28182 0.16764,-0.55715 0.204891,-0.84438 0.06124,-0.47219 -0.05455,-0.96767 0.004,-1.44135 0.0084,-0.67442 -0.0011,-1.34741 -0.0419,-2.02071 0.0293,-0.35646 0.132178,-0.69297 0.167479,-1.04739 0.02048,-0.20547 0.0074,-0.41328 0.02598,-0.61893 0.04363,-0.48231 0.189611,-1.37134 0.258527,-1.81857 0.06258,-0.61096 0.16401,-1.21824 0.205391,-1.831 0.04732,-0.70074 -0.04142,-1.4102 0.0011,-2.11179 0.01109,-0.81725 0.01834,-1.63421 -0.04595,-2.44988 0.0066,-0.40331 -0.0071,-0.40823 0.05804,-0.81769 0.03953,-0.2483 0.154728,-0.72463 0.167664,-0.97215 0.0084,-0.16114 -0.02185,-0.32208 -0.0258,-0.48339 -0.0047,-0.19265 -4e-5,-0.38542 -5.8e-5,-0.57812 0.05772,-0.67509 0.212137,-1.34267 0.257709,-2.01711 0.04713,-0.69747 -0.03492,-1.40372 0.0011,-2.10197 -1.7e-4,-0.85411 -0.0079,-1.70823 2e-6,-2.56232 0.01408,-1.45348 0.02275,-2.90685 -0.05235,-4.35907 0.0067,-0.76797 -0.0064,-0.83015 0.0645,-1.64495 0.01926,-0.22144 0.183996,-1.61993 0.193204,-1.85836 7.94e-4,-0.0219 -0.05005,-1.4202 -0.0517,-1.46581 2.65e-4,-0.73582 -0.0141,-0.87274 0.05238,-1.64364 0.08729,-1.01239 0.29092,-2.01267 0.203576,-3.0345 -0.0054,-1.26683 0.01855,-2.53334 0.01863,-3.80014 -0.01553,-0.50395 -0.06894,-1.00582 -0.08415,-1.5091 -0.02379,-0.78778 0.08125,-1.57147 0.206984,-2.34718 0.301699,-2.41571 -0.06086,0.30184 0.330102,-2.08979 0.199779,-1.22209 0.267274,-2.46764 0.334968,-3.70199 0.05408,-0.49197 0.138001,-0.98049 0.186303,-1.47305 0.02479,-0.25278 0.02016,-0.50777 0.04168,-0.76085 0.006,-0.0699 0.160076,-1.33426 0.16419,-1.4026 0.01252,-0.20806 -0.0011,-0.41687 -0.0016,-0.6253 0.04109,-0.69592 0.158078,-1.37998 0.207986,-2.07366 0.04519,-0.62805 -2.51e-4,-1.26635 0.137417,-1.8882 0.02297,-0.24176 0.06193,-0.48254 0.06893,-0.72529 0.02941,-1.02012 -0.08719,-0.40019 -0.01323,-1.33236 0.04726,-0.59563 0.101941,-0.62406 0.21934,-1.21041 0.0413,-0.20628 0.07259,-0.41444 0.108889,-0.62167 0.150958,-0.65329 0.278971,-1.32475 0.304422,-1.99767 0.0077,-0.2026 -0.02215,-0.40505 -0.02297,-0.60779 -0.0028,-0.69836 0.02566,-0.77723 0.09909,-1.50052 0.181272,-1.17281 0.309253,-2.35162 0.441682,-3.53046 0.0312,-0.27777 0.0841,-0.55301 0.109668,-0.83136 0.02606,-0.28383 0.03009,-0.56926 0.04514,-0.85389 0.02101,-0.23657 0.135847,-1.48515 0.141435,-1.7282 0.02066,-0.89941 -0.114964,-1.7842 0.259133,-2.64369 0.06612,-0.32417 0.173355,-0.64152 0.207558,-0.9706 0.06518,-0.62713 -0.05872,-1.27218 -0.01135,-1.9012 0.01429,-0.73556 0.120664,-1.484 -0.05549,-2.20791 -0.214646,-0.84228 0.05297,0.29588 -0.08069,-0.59573 -0.02551,-0.17021 -0.252656,-0.72387 -0.337453,-0.86855 -0.04484,-0.0765 -0.11604,-0.13411 -0.174061,-0.20116 -0.03465,-0.0689 -0.0693,-0.1378 -0.103947,-0.2067 -0.02201,-0.0725 -0.03547,-0.14811 -0.06607,-0.21739 -0.142185,-0.32183 -0.362416,-0.57797 -0.610897,-0.82113 -0.300958,-0.37613 -0.652052,-0.68125 -1.08944,-0.89305 -0.321371,-0.37361 -0.362074,-0.34564 -0.772075,-0.60591 -0.07241,-0.046 -0.136412,-0.10401 -0.204619,-0.15601 -0.01442,-0.007 -0.400793,-0.20387 -0.415581,-0.20738 -0.260897,-0.062 -0.561702,0.0626 -0.826428,0.0122 -0.488347,-0.0292 -0.969449,-0.11208 -1.443858,0.0766 -0.07141,0.0259 -0.139232,0.0657 -0.214228,0.0778 -0.418991,0.068 -0.01069,-0.0969 -0.418224,0.0253 -0.376484,0.11289 -0.0062,0.0486 -0.363466,0.18552 -0.05628,0.0216 -0.118428,0.0225 -0.177641,0.0338 -0.116369,0.0391 -0.378267,0.13172 -0.488336,0.14675 -0.110078,0.015 -0.222909,-0.006 -0.333206,0.008 -0.36439,0.044 -0.698651,0.21439 -1.049451,0.30945 -0.10585,0.0584 -0.207008,0.12617 -0.317548,0.17506 -0.08942,0.0395 -0.561982,0.18631 -0.671261,0.23884 -0.260069,0.12503 -0.25411,0.1627 -0.462256,0.29871 -0.05954,0.0389 -0.122422,0.0724 -0.183633,0.10867 -0.322533,0.24818 -0.503693,0.25589 -0.85233,0.42299 -0.105044,0.0503 -0.192679,0.1323 -0.296955,0.18421 -0.115157,0.0573 -0.480955,0.18131 -0.616287,0.22855 -0.272672,0.12669 -0.575933,0.27306 -0.87474,0.32876 -0.247635,0.0461 -0.510557,0.0139 -0.747752,0.12768 -5.349267,0.56294 15.046035,-15.37919 11.29902,-11.52024 -3.894379,4.0107 -7.88649,7.92534 -11.831258,11.8865 -0.1781,0.17884 -0.179723,0.20272 -0.425186,0.29867 -0.108693,0.0425 -0.223085,0.0686 -0.334628,0.10295 -0.312497,0.13367 -0.6596,0.24299 -0.95473,0.41461 -0.107875,0.0627 -0.20465,0.14324 -0.311863,0.2071 -0.169396,0.10089 -0.354917,0.17326 -0.518161,0.28527 19.477326,-19.61692 11.110333,-11.16456 -0.398089,0.32234 -0.26312,0.26263 -0.626194,0.38267 -0.87354,0.66402 -0.08166,0.0516 -0.159089,0.11055 -0.244978,0.15472 -0.10647,0.0548 -0.229594,0.0726 -0.335233,0.12894 -0.514208,0.27424 -0.854429,0.76625 -1.340933,1.08306 0,0 11.669938,-11.66994 11.669938,-11.66994 z"
       inkscape:connector-curvature="0"
       style="stroke-width:0.26458332" />
    <path
       id="path4196"
       d="m 40.375623,129.54525 c 5.147463,-2.50521 8.035607,-9.9642 13.526613,-12.9593 1.09446,-0.59698 -0.0597,0.0498 1.031486,-0.43838 0.161565,-0.0723 0.309446,-0.17191 0.464169,-0.25787 0.314632,-0.20997 0.683237,-0.32092 1.005698,-0.51574 0.165303,-0.0999 0.669237,-0.49689 0.838083,-0.61245 0.346403,-0.23709 0.409551,-0.25313 0.780063,-0.43838 0.101,-0.0596 0.201935,-0.11937 0.302998,-0.1789 0.104162,-0.0613 0.214199,-0.11361 0.312669,-0.18373 0.229857,-0.16368 0.539287,-0.47683 0.784897,-0.61245 0.101624,-0.0561 0.627854,-0.22268 0.77442,-0.27036 0.10691,-0.0437 0.210267,-0.0974 0.320728,-0.13115 0.283554,-0.0866 0.583271,-0.11088 0.868706,-0.19109 1.197282,-0.33645 -0.103606,-0.005 1.022421,-0.40418 0.171525,-0.0609 0.352624,-0.0904 0.528937,-0.13553 0.484402,-0.0484 0.884621,-0.30907 1.319125,-0.48927 0.384344,-0.1594 0.796208,-0.25212 1.183704,-0.40994 1.000588,-0.21261 1.908487,-0.70104 2.851785,-1.07927 0.515138,-0.20424 1.025588,-0.42699 1.545957,-0.61769 0.329428,-0.12073 0.537999,-0.15193 0.832483,-0.35462 0.23699,-0.13951 0.482491,-0.26697 0.757232,-0.31279 0.0833,-0.0139 0.170106,0.003 0.253016,-0.0127 0.171272,-0.0331 0.332568,-0.10643 0.502091,-0.14756 0.665338,-0.0632 1.334874,0.0168 2.003245,0.0152 0.446191,0.0426 0.916345,-0.0763 1.360604,-0.011 0.273048,0.0401 0.533342,0.14225 0.801227,0.2086 0.750912,0.11241 1.533459,0.15551 2.268519,0.36089 0.46998,0.13132 0.557726,0.20524 0.968704,0.42538 0.123965,0.0795 0.247448,0.15982 0.371895,0.2386 0.120039,0.076 0.252804,0.13428 0.361543,0.22571 0.340672,0.28647 0.530405,0.72795 0.812247,1.06694 0.595468,0.4644 0.88401,1.16521 1.245224,1.80893 0.0679,0.12984 0.151699,0.25254 0.203708,0.38952 0.07463,0.19656 0.160541,0.76606 0.20274,0.93927 0.130492,0.53559 0.36903,1.0132 0.594439,1.51288 0.290772,1.01508 0.565954,2.02591 0.692915,3.07587 0.06545,0.43326 -0.02748,0.86655 -0.01119,1.29939 0.01714,0.456 0.115152,0.90553 0.157157,1.35992 0.06071,0.65667 0.04851,0.73333 0.05438,1.3771 -0.07762,0.91792 0.0048,1.85507 -0.05289,2.77123 -0.03553,0.56395 -0.132402,1.12237 -0.196474,1.6838 -0.11467,1.43456 0.01326,2.87151 0.01299,4.30785 -0.01969,0.77072 -0.01495,1.54161 -0.01222,2.31248 -0.24539,0.98043 -0.520049,1.94865 -0.670671,2.94979 0.03807,0.41241 -0.09818,0.80062 -0.16093,1.20166 -0.01474,0.0941 -0.0113,0.19108 -0.03223,0.28404 -0.04365,0.1938 -0.123661,0.37759 -0.18378,0.56692 -0.112725,0.32084 0.06325,0.66101 0.02014,0.9829 -0.02672,0.1995 -0.13598,0.37894 -0.199848,0.56982 -0.07723,0.61381 -0.420629,1.16098 -0.487288,1.77303 0.123256,0.26163 -0.140507,0.34857 -0.177602,0.53907 -0.08333,0.42792 0.124048,-0.16336 -0.09036,0.37467 -0.02763,0.0791 -0.0617,0.1562 -0.08291,0.23723 -0.01998,0.0763 -0.01651,0.158 -0.04021,0.23324 -0.05713,0.1813 -0.203057,0.36517 -0.286856,0.52522 -0.06799,0.12986 -0.228926,0.53419 -0.278667,0.656 -3.365913,5.36395 -8.05333,10.12334 -13.493414,13.38017 -0.517912,0.3811 -1.038069,0.75798 -1.51148,1.1948 -0.155575,0.14355 -0.287097,0.31326 -0.451609,0.44647 -0.03465,0.0281 -0.938668,0.60576 -0.988452,0.63766 -0.596823,0.56813 -1.30964,0.96797 -1.987016,1.4229 -0.324498,0.21794 -0.630806,0.46187 -0.950015,0.68748 0.116239,-0.29216 -1.113123,0.82764 -0.849924,0.56477 3.837752,-3.833 15.497297,-15.1804 11.522271,-11.48996 -16.114813,14.96111 -7.32059,8.48791 -12.225033,12.08546 -0.724334,0.48916 -1.498611,0.87839 -2.287847,1.24994 -0.835512,0.39744 -1.656509,0.82438 -2.483541,1.239 -0.424754,0.23376 -0.774334,0.57882 -1.189667,0.82493 -0.502301,0.26807 -0.262257,0.12971 -0.721516,0.41266 -0.245022,0.23101 -0.535683,0.40254 -0.79266,0.61888 -0.07798,0.0656 -0.150481,0.13753 -0.225724,0.20629 3.824415,-3.82121 15.68137,-14.85768 11.473246,-11.46364 -4.335311,3.49663 -7.904609,7.84873 -11.856915,11.77309 -0.440145,0.11849 -0.791316,0.43088 -1.169236,0.67047 -0.154308,0.0978 -0.323964,0.17255 -0.469001,0.28366 -0.239763,0.18367 -0.431046,0.42323 -0.64952,0.63178 -3.779592,3.59717 15.293297,-14.12738 11.060205,-11.07683 -4.513009,3.25227 -7.883927,7.85005 -11.850142,11.75052 -0.05211,0.0513 -0.134949,0.0577 -0.196779,0.0967 -0.07433,0.0469 -0.13988,0.10637 -0.209823,0.15956 -0.56883,0.60022 -1.307626,0.96928 -2.04979,1.30648 -0.111546,0.10087 -0.44124,0.40867 -0.334637,0.3026 3.81178,-3.7929 14.923161,-15.46908 11.450526,-11.36341 -11.31067,13.37252 -7.815559,8.22083 -12.608965,12.50003 -0.09881,0.0644 -0.379484,0.27703 -0.296423,0.19328 3.773064,-3.80449 7.57043,-7.58485 11.371876,-11.36098 0.129977,-0.12911 -0.237662,0.27888 -0.356147,0.41861 -0.246502,0.2907 -0.377754,0.46005 -0.648756,0.73156 -4.015674,4.02314 -8.039727,8.03791 -12.059589,12.05687 3.782126,-3.75295 7.548509,-7.52183 11.346378,-11.25885 0.128381,-0.12632 -0.20783,0.29641 -0.335029,0.42392 -4.001844,4.01182 -7.874042,8.16065 -12.049482,11.99147 -3.944067,3.61854 15.358047,-14.90699 11.354755,-11.35408 -0.509624,0.45229 -30.54103,30.41981 -0.608967,0.56486 -3.995883,3.98353 -8.045315,7.91405 -11.987646,11.95058 -3.74237,3.83179 7.579529,-7.56992 11.387711,-11.33631 0.122777,-0.12143 -0.226872,0.26086 -0.329668,0.39961 -0.104603,0.14119 -0.18197,0.30185 -0.291703,0.43909 -0.190783,0.23861 -0.421503,0.44254 -0.623634,0.67162 -3.784497,4.30007 -8.35365,8.40404 -12.153341,12.19984 -0.0088,0.009 0.01654,-0.0191 0.02103,-0.0307 0.02156,-0.0552 0.04279,-0.11085 0.05676,-0.16843 0.02045,-0.0843 0.03082,-0.17081 0.04624,-0.25621 0.150683,-0.56696 0.556242,-1.03281 0.875171,-1.51472 0,0 11.669937,-11.66994 11.669937,-11.66994 v 0 c -0.318929,0.48191 -0.724487,0.94777 -0.87517,1.51472 -0.996038,5.51946 -15.780451,16.44581 -11.310567,11.5954 0.202128,-0.22908 0.432847,-0.43302 0.623631,-0.67163 0.419274,-0.52438 0.14842,-0.36107 0.621374,-0.83869 2.463112,-2.48745 28.53678,-28.64234 0.599932,-0.61427 32.400237,-32.47984 0.07323,-0.0894 0.608967,-0.56486 4.225782,-3.75037 7.821851,-8.16615 11.985117,-11.9858 3.93192,-3.60739 -7.511923,7.58059 -11.29039,11.34841 -0.127534,0.12718 0.223354,-0.28262 0.335029,-0.42392 3.997833,-4.02701 7.995663,-8.05402 11.993493,-12.08103 -3.760094,3.761 -7.515767,7.52643 -11.280282,11.28301 -0.11733,0.11708 0.228512,-0.24026 0.338489,-0.36428 0.06585,-0.0743 0.620961,-0.74017 0.666414,-0.78589 11.879675,-11.95039 7.243527,-8.89838 12.264422,-12.17217 0.314028,-0.28035 0.09099,-0.0873 0.428805,-0.36347 0.08433,-0.0689 0.328707,-0.28543 0.251833,-0.20826 -3.796432,3.81126 -14.885556,15.51885 -11.411548,11.41156 3.632745,-4.29496 7.920635,-7.98987 11.889348,-11.97646 0.106101,-0.10658 0.223092,-0.20173 0.334637,-0.3026 0.742164,-0.3372 1.480958,-0.70626 2.049791,-1.30648 0.06994,-0.0532 0.135488,-0.11271 0.209822,-0.15956 0.06183,-0.039 0.248002,-0.14883 0.196779,-0.0967 -3.812694,3.88012 -15.903003,14.76975 -11.489732,11.58935 4.621037,-3.33011 8.080705,-8.29048 12.279667,-12.26304 0.218477,-0.20855 0.409757,-0.4481 0.649523,-0.63178 0.145034,-0.11111 0.314692,-0.18584 0.468997,-0.28366 0.377923,-0.23958 0.729094,-0.55198 1.169239,-0.67047 -18.474573,18.60944 -12.182504,12.24651 0.38367,-0.30945 0.311271,-0.31102 0.692187,-0.53215 1.018384,-0.82517 0.459258,-0.28294 0.219215,-0.14459 0.721516,-0.41266 0.415332,-0.24611 0.764913,-0.59117 1.189667,-0.82493 0.827032,-0.41461 1.648029,-0.84155 2.48354,-1.23899 0.789237,-0.37156 1.563513,-0.76079 2.287847,-1.24994 4.251441,-3.11856 -14.978874,14.84181 -11.114841,11.25441 2.443054,-2.26815 7.702859,-9.43655 12.667527,-12.41468 0.319209,-0.22562 0.625518,-0.46955 0.950016,-0.68748 0.677375,-0.45493 1.390192,-0.85478 1.987015,-1.42291 0.04978,-0.0319 0.953805,-0.6096 0.988452,-0.63765 0.164512,-0.13321 0.296034,-0.30293 0.451609,-0.44648 0.473411,-0.43682 0.993569,-0.8137 1.51148,-1.19479 0.154276,-0.0924 0.311158,-0.18051 0.462833,-0.27709 0.142375,-0.0907 0.53702,-0.40501 0.418965,-0.28437 -20.933621,21.39069 -13.605706,15.31632 -10.728259,10.52116 0.04974,-0.12181 0.210678,-0.52614 0.278667,-0.656 0.0838,-0.16005 0.22973,-0.34393 0.286859,-0.52522 0.02371,-0.0752 0.02024,-0.15692 0.04021,-0.23324 0.02122,-0.081 0.05527,-0.15815 0.08291,-0.23723 0.214402,-0.53804 0.007,0.0532 0.09036,-0.37468 0.03709,-0.1905 0.300858,-0.27743 0.177602,-0.53906 0.06666,-0.61205 0.410059,-1.15922 0.487288,-1.77303 0.06387,-0.19089 0.17313,-0.37032 0.199848,-0.56983 0.04311,-0.32188 -0.132869,-0.66205 -0.02014,-0.98289 0.06012,-0.18934 0.140137,-0.37312 0.18378,-0.56692 0.02093,-0.093 0.01752,-0.1899 0.03224,-0.28405 0.06275,-0.40104 0.198995,-0.78924 0.16093,-1.20166 0.150619,-1.00114 0.425278,-1.96935 0.670668,-2.94978 -0.0027,-0.77087 -0.0075,-1.54176 0.01222,-2.31248 2.65e-4,-1.43634 -0.127659,-2.87329 -0.01299,-4.30786 0.06407,-0.56143 0.160941,-1.11984 0.196477,-1.6838 0.05772,-0.91615 -0.02474,-1.8533 0.05288,-2.77122 -0.0059,-0.64378 0.0063,-0.72044 -0.05437,-1.3771 -0.04201,-0.45439 -0.140015,-0.90392 -0.157158,-1.35992 -0.01627,-0.43284 0.07665,-0.86613 0.01119,-1.2994 -0.12696,-1.04995 -0.402143,-2.06078 -0.692914,-3.07586 -0.22541,-0.49968 -0.463947,-0.97729 -0.594437,-1.51288 -0.0422,-0.17321 -0.128114,-0.74271 -0.20274,-0.93927 -0.05201,-0.13698 -0.135808,-0.25968 -0.20371,-0.38952 -0.361215,-0.64372 -0.649756,-1.34453 -1.245225,-1.80894 -0.281839,-0.33898 -0.471575,-0.78047 -0.812247,-1.06693 -0.108736,-0.0914 -0.241504,-0.14972 -0.361542,-0.22571 -0.124444,-0.0788 -0.247931,-0.15907 -0.371893,-0.2386 -0.410978,-0.22015 -0.498724,-0.29406 -0.968706,-0.42538 -0.735058,-0.20538 -1.517608,-0.24848 -2.268516,-0.3609 -0.267888,-0.0663 -0.52818,-0.16848 -0.801228,-0.2086 -0.444259,-0.0653 -0.914415,0.0536 -1.360606,0.011 -0.668372,0.002 -1.337905,-0.0784 -2.003245,-0.0152 -0.169521,0.0411 -0.330817,0.11446 -0.502089,0.14756 -0.08291,0.016 -0.169723,-10e-4 -0.253016,0.0127 -0.274741,0.0458 -0.520245,0.17329 -0.757235,0.3128 -0.294484,0.20268 -0.503055,0.23389 -0.832482,0.35462 -0.52037,0.1907 -1.03082,0.41344 -1.545958,0.61769 -0.943295,0.37823 -1.851197,0.86665 -2.851785,1.07926 -0.387495,0.15783 -0.799359,0.25055 -1.183703,0.40995 -0.434504,0.1802 -0.834724,0.44087 -1.319123,0.48926 -0.176313,0.0452 -0.357412,0.0747 -0.528939,0.13554 -1.126027,0.39964 0.174863,0.0677 -1.022422,0.40418 -0.285435,0.0802 -0.585152,0.10446 -0.868703,0.19109 -0.110464,0.0337 -0.213821,0.0874 -0.320728,0.13115 -0.146569,0.0477 -0.672796,0.21425 -0.774422,0.27036 -0.24561,0.13562 -0.555041,0.44877 -0.784897,0.61244 -0.09847,0.0701 -0.208508,0.12239 -0.312669,0.18374 -0.101063,0.0595 -0.201999,0.11926 -0.302998,0.1789 -0.370512,0.18525 -0.433658,0.20129 -0.780063,0.43838 -0.168847,0.11556 -0.672778,0.51257 -0.838081,0.61244 -0.322461,0.19482 -0.691068,0.30578 -1.0057,0.51575 -0.154723,0.0859 -0.302604,0.18559 -0.464169,0.25787 -1.09119,0.48816 0.06297,-0.1586 -1.031486,0.43838 -4.904002,2.67491 -10.111962,10.33763 9.81326,-10.38058 0,0 -11.669937,11.66994 -11.669937,11.66994 z"
       inkscape:connector-curvature="0"
       style="stroke-width:0.26458332" />
    <path
       id="path4198"
       d="m 54.816433,169.36062 c 0,-0.2063 -0.02053,-0.41361 0,-0.61889 0.0141,-0.14106 0.0042,-0.31107 0.103147,-0.41259 3.873574,-3.97451 7.822967,-7.87466 11.773085,-11.77309 0.02736,-0.027 0.04404,0.0654 0.05158,0.10315 0.01722,0.0862 -0.01675,0.28879 -0.0258,0.36102 0.317868,0.96239 0.510148,1.96269 0.647901,2.96552 0.03203,1.15225 0.219101,2.293 0.373512,3.43373 0.08037,1.06408 -0.03139,2.12797 -0.02625,3.19317 0.0081,0.40846 0.01461,0.81685 0.01315,1.22539 -2.64e-4,0.10553 -0.01876,0.21247 -0.0016,0.31659 0.01672,0.1011 0.06789,0.19337 0.101833,0.29006 0.190714,0.6283 0.03452,0.0363 0.15431,0.84053 0.06902,0.46342 0.135242,0.57776 0.181229,1.03455 0.04233,0.42045 0.02223,0.70459 0.01299,1.1308 -0.07493,1.32709 -0.04626,2.65626 -0.03723,3.9845 -0.06563,0.67976 -0.218808,1.34913 -0.258675,2.03174 -0.02045,0.35014 0.02318,0.69962 0.05016,1.04799 0.06088,0.40686 -0.03505,0.82744 0.0072,1.23343 0.03371,0.32349 0.160182,0.63252 0.196477,0.95573 0.0307,0.27338 0.03433,0.54913 0.0515,0.8237 -0.02358,1.13649 0.0273,2.28206 -0.04753,3.41729 -0.0535,0.81161 -0.206671,1.61464 -0.265102,2.42696 0.03162,0.67156 0.07643,1.33633 0.0637,2.00944 0.337924,1.18172 0.249336,2.40498 0.201512,3.61559 -0.03254,1.00367 0.0019,2.00766 0.0021,3.01149 -0.03041,0.23732 0.1353,0.42938 0.202406,0.64808 0.06623,0.21584 0.08676,0.37781 0.232826,0.559 0.475752,0.63669 0.981919,1.24665 1.434375,1.9031 0.207743,0.55359 0.533447,1.04706 0.831699,1.55322 0.06126,0.10396 0.305133,0.56281 0.426286,0.67613 0.08166,0.0764 0.190447,0.11719 0.285668,0.17578 0.36639,0.0382 0.717542,0.0901 1.061503,0.23087 0.152138,0.0622 0.289782,0.15791 0.444325,0.21392 0.230712,0.0836 0.964531,0.23829 1.179412,0.28619 0.80204,0.0823 0.537935,0.11305 1.332294,-0.0364 0.213643,-0.0402 0.43162,-0.0684 0.637098,-0.13941 0.583168,-0.20142 1.186381,-0.60011 1.726287,-0.90296 0.170397,-0.0743 0.346464,-0.13685 0.511191,-0.22303 0.161525,-0.0845 0.307131,-0.1967 0.465071,-0.28772 0.462984,-0.26683 0.593498,-0.27655 1.011608,-0.62117 0.191831,-0.15811 0.718561,-0.68723 0.542669,-0.51156 -3.68299,3.67836 -7.37611,7.34655 -11.064166,11.01983 0.249012,-0.26898 0.504576,-0.53203 0.747032,-0.80692 1.166141,-1.32215 0.337826,-0.47675 1.546265,-1.79806 4.478126,-4.89639 9.278162,-9.49716 14.083072,-14.07338 4.161277,-4.01019 9.554654,-9.31142 -10.017133,10.05125 -0.148079,0.14649 0.270825,-0.31835 0.382334,-0.49429 0.449524,-0.70926 0.357968,-0.67025 0.526809,-1.51618 0,0 11.669937,-11.66994 11.669937,-11.66994 v 0 c -0.05594,0.28028 -0.07402,0.57085 -0.167822,0.84082 -0.113163,0.32569 -0.483725,0.90967 -0.74132,1.16965 -4.402805,4.44352 -8.800553,8.94412 -13.32274,13.28863 -4.373271,4.16513 -1.947542,1.86664 10.085269,-10.13546 0.283345,-0.28262 -0.55838,0.57365 -0.828469,0.86896 -0.781367,0.85435 -1.478216,1.78113 -2.293297,2.60498 -4.091903,4.10668 -8.178525,8.21863 -12.275709,12.32005 -0.588224,0.58883 -0.859716,0.73244 -1.554273,1.13272 -0.811652,0.46777 -0.10577,0.13098 -0.976265,0.51075 -0.539904,0.30286 -1.143119,0.70155 -1.726285,0.90297 -0.20548,0.071 -0.423455,0.0992 -0.637101,0.1394 -0.794358,0.14942 -0.530254,0.11862 -1.332293,0.0364 -0.214881,-0.0479 -0.948698,-0.20258 -1.179409,-0.28619 -0.154546,-0.056 -0.29219,-0.15168 -0.444328,-0.21393 -0.343959,-0.14073 -0.695114,-0.19267 -1.061503,-0.23087 -0.09522,-0.0586 -0.20401,-0.0994 -0.285666,-0.17577 -0.121155,-0.11332 -0.365024,-0.57217 -0.426288,-0.67614 -0.298252,-0.50615 -0.623954,-0.99962 -0.831697,-1.55322 -0.452459,-0.65645 -0.958625,-1.2664 -1.434378,-1.9031 -0.14606,-0.18119 -0.166597,-0.34315 -0.232825,-0.55899 -0.06711,-0.2187 -0.232815,-0.41077 -0.202406,-0.64808 -5.29e-4,-1.00384 -0.03477,-2.00783 -0.0021,-3.01149 0.04782,-1.21062 0.136411,-2.43387 -0.201512,-3.61559 0.01273,-0.67312 -0.03208,-1.33788 -0.0637,-2.00945 0.05843,-0.81231 0.211601,-1.61534 0.265102,-2.42696 0.07483,-1.13523 0.02397,-2.2808 0.04753,-3.41728 -0.01717,-0.27457 -0.0208,-0.55032 -0.0515,-0.8237 -0.03629,-0.32321 -0.162769,-0.63224 -0.196477,-0.95573 -0.0423,-0.40599 0.05362,-0.82657 -0.0072,-1.23343 -0.02698,-0.34838 -0.07061,-0.69786 -0.05016,-1.048 0.03987,-0.68261 0.193048,-1.35197 0.258677,-2.03173 -0.009,-1.32824 -0.0377,-2.65741 0.03723,-3.9845 0.0092,-0.42621 0.02933,-0.71035 -0.01299,-1.1308 -0.04599,-0.45679 -0.112205,-0.57113 -0.181232,-1.03455 -0.11979,-0.80425 0.0364,-0.21223 -0.15431,-0.84054 -0.03394,-0.0967 -0.08512,-0.18896 -0.101833,-0.29005 -0.0172,-0.10412 0.0011,-0.21106 0.0016,-0.31659 0.0016,-0.40854 -0.0051,-0.81694 -0.01315,-1.22539 -0.0051,-1.06521 0.106611,-2.12909 0.02625,-3.19318 -0.154411,-1.14072 -0.341485,-2.28148 -0.37351,-3.43372 -0.137753,-1.00283 -0.330033,-2.00313 -0.647904,-2.96552 0.009,-0.0722 0.04302,-0.27486 0.0258,-0.36102 -0.0075,-0.0377 -0.07857,-0.0758 -0.05157,-0.10315 3.829781,-3.88124 7.711192,-7.71119 11.566787,-11.56679 -0.03438,0.13753 -0.08904,0.27153 -0.103148,0.41259 -0.02053,0.20528 0,0.4126 0,0.6189 0,0 -11.669937,11.66993 -11.669937,11.66993 z"
       inkscape:connector-curvature="0"
       style="stroke-width:0.26458332" />
    <path
       id="path4202"
       d="m 69.257243,218.25308 c 4.061893,-4.06189 8.123787,-8.12379 12.185678,-12.18568 0.223491,-0.22349 0.44698,-0.44698 0.670468,-0.67047 0.05157,-0.0516 0.206528,-0.20606 0.154723,-0.15472 -11.506465,11.40316 -15.509071,15.40592 -11.592576,11.48943 3.937257,-3.92007 7.849272,-7.86565 11.811767,-11.7602 0.05431,-0.0534 0.148413,-0.0363 0.219189,-0.0645 0.08664,-0.0344 0.172776,-0.0724 0.251426,-0.12249 0.08777,-0.0559 0.318418,-0.2671 0.244977,-0.19341 -11.804091,11.84485 -14.910993,15.55781 -11.244447,11.19288 3.822107,-4.36219 8.413424,-7.60642 12.263847,-12.30575 3.410784,-4.16277 -14.968968,15.45213 -11.462834,11.36935 0.332057,-0.38667 30.748579,-30.66135 0.520983,-0.56127 3.674848,-4.49477 8.857122,-8.96487 12.365685,-12.4362 0.0573,-0.0567 0.150797,-0.0596 0.218938,-0.10269 0.04488,-0.0284 0.0774,-0.0727 0.116094,-0.10905 -3.853389,3.83637 -7.697587,7.68199 -11.560165,11.5091 -0.028,0.0277 0.03037,-0.0732 0.05172,-0.10632 0.05483,-0.0851 0.105383,-0.13687 0.174114,-0.20494 3.931994,-3.89418 7.845928,-7.8067 11.797218,-11.6813 0.0495,-0.0485 0.12891,-0.0511 0.193365,-0.0766 4.220541,-3.15283 -14.911242,14.88852 -11.12316,11.22741 13.198742,-12.75633 7.230774,-8.55677 11.964477,-11.87615 4.851257,-3.96709 -15.598785,15.67464 -11.048405,11.05657 31.559335,-31.55314 -0.03543,0.0684 0.108665,-0.20629 3.918079,-3.91739 7.836159,-7.83478 11.754241,-11.75218 0.02416,-0.007 0.05002,-0.009 0.07248,-0.0205 0.358505,-0.17916 -0.139237,0.0159 0.333856,-0.15472 -3.84543,3.84525 -7.679951,7.70145 -11.53629,11.53577 -0.05748,0.0571 0.08985,-0.13497 0.136604,-0.20119 0.11512,-0.16306 0.238651,-0.33584 0.380704,-0.47706 11.671561,-11.60285 7.676832,-8.13831 12.014969,-11.89554 -3.852814,3.84098 -7.698184,7.68945 -11.558447,11.52295 -0.05936,0.059 0.100658,-0.13376 0.154355,-0.19792 0.153935,-0.18393 0.258554,-0.28848 0.429485,-0.45934 3.965956,-3.96438 7.931505,-7.92916 11.899935,-11.89106 0.03697,-0.0369 0.07742,-0.0702 0.116136,-0.10524 3.971329,-3.83325 8.209706,-8.01937 -11.215918,11.22115 -0.0624,0.0618 0.08354,-0.1545 0.125691,-0.23156 0.16878,-0.30855 0.07946,-0.16913 0.297608,-0.45419 3.959238,-3.95906 7.914108,-7.92248 11.877715,-11.87716 0.07378,-0.0736 0.166968,-0.12509 0.245861,-0.19321 0.05627,-0.0486 0.216599,-0.2037 0.164058,-0.1511 -11.861845,11.87518 -15.318528,15.51874 -11.443261,11.43651 0.02778,-0.10799 0.184851,-0.34934 0.26367,-0.42815 3.922647,-3.92209 7.589473,-8.12182 11.793686,-11.74045 0.271047,-0.2333 -31.503495,31.39089 0.211317,-0.18309 -0.138853,0.026 0.593249,-0.38258 0.444188,-0.23227 -3.84778,3.88003 -15.709836,15.18468 -11.598362,11.58526 4.171201,-3.65171 8.126695,-7.57084 11.777927,-11.74246 3.591309,-4.10316 -7.731823,7.69106 -11.597735,11.53659 32.640277,-32.57308 -0.950291,0.95664 0.20661,-0.23063 3.874262,-3.97597 7.854238,-7.84758 11.797663,-11.75496 0.05304,-0.0525 0.241019,-0.1742 0.188245,-0.12138 -3.837363,3.84047 -15.06116,15.62495 -11.545551,11.48791 3.601249,-4.23782 7.868896,-7.86085 11.803345,-11.79128 0.09631,-0.0311 0.173366,-0.0987 0.250931,-0.16076 -3.849521,3.84852 -7.679957,7.71622 -11.548565,11.54555 -0.09411,0.0932 0.122651,-0.23857 0.213151,-0.33524 2.96168,-4.88117 0.166606,-0.29988 11.879453,-11.8823 0.01939,-0.0192 0.05604,0.007 0.08181,-0.002 0.04436,-0.0154 0.156019,-0.10216 0.122772,-0.069 -11.630205,11.59409 -12.39416,16.87979 -11.567594,11.36201 2.864242,-4.73459 11.600635,-11.5648 11.959347,-11.91885 0.107735,-0.10634 0.297981,-0.18023 0.420261,-0.26681 -3.849595,3.82195 -7.680372,7.66293 -11.548779,11.46583 -0.06504,0.0639 0.0817,-0.1634 0.130217,-0.24063 0.126974,-0.20213 0.214373,-0.29714 0.383609,-0.46628 3.963532,-3.96124 7.927226,-7.92232 11.897519,-11.87678 0.0708,-0.0705 0.150211,-0.13181 0.225319,-0.19772 -22.78212,21.37757 -14.119836,15.77097 -11.306993,11.06461 0.104693,-0.17517 0.179322,-0.35529 0.302879,-0.52125 -0.01505,-0.14756 0.110676,-0.24046 0.164214,-0.35996 0.01807,-0.0403 0.0011,-0.0973 0.03216,-0.12865 1.594916,-1.60495 29.504724,-29.43248 0.183102,-0.19353 31.391012,-31.27597 0.304763,-0.27167 0.231973,-0.20006 -0.04488,0.0441 0.02551,-0.12402 0.02668,-0.18696 0.0026,-0.13658 -0.07795,-0.13439 0.04805,-0.26103 3.905441,-3.92512 7.832873,-7.82829 11.74931,-11.74244 4.534929,-3.30756 0.536239,-0.40258 -11.413514,11.38707 -0.06237,0.0615 0.09983,-0.14492 0.137488,-0.22403 0.09177,-0.19275 0.204531,-0.48052 0.277072,-0.68477 0.145743,-0.24446 0.09092,-0.18518 0.305821,-0.3998 3.964012,-3.95882 7.926615,-7.91906 11.898382,-11.87009 0.04,-0.0398 0.17569,-0.141 0.13571,-0.10119 -3.877162,3.86092 -7.749048,7.72723 -11.648451,11.56568 -0.01685,0.0166 -0.03091,-0.0358 -0.04637,-0.0537 0.159065,-0.42418 0.438901,-0.78643 0.608407,-1.20627 0.254764,-0.45057 0.466264,-0.92215 0.602366,-1.42421 0.194863,-0.46913 0.461126,-0.89342 0.722204,-1.32853 0.26503,-0.67605 0.02535,0.014 0.15495,-0.58047 0.07167,-0.32876 0.156716,-0.39406 0.141862,-0.76078 -0.117591,-0.361 0.08104,-0.25986 0.175347,-0.55784 0.03401,-0.10746 0.03675,-0.22241 0.05512,-0.33362 5.29e-4,-0.11547 -0.01294,-0.23182 0.0013,-0.34641 0.02919,-0.235 0.124692,-0.50057 0.294052,-0.66991 3.918667,-3.91828 8.092173,-7.59534 11.772763,-11.73806 3.63561,-4.09209 -7.758388,7.72394 -11.637582,11.5859 0.0048,-0.19499 -0.136948,-0.38904 -0.08809,-0.58721 0.03994,-0.162 0.14687,-0.29965 0.219871,-0.44968 0.0064,-0.26836 0.250616,-0.4695 0.262927,-0.73517 0.0039,-0.0851 -0.0264,-0.16832 -0.04079,-0.25228 0.02804,-0.069 0.04884,-0.14148 0.08411,-0.20712 0.06086,-0.11329 0.132078,-0.12815 0.15245,-0.26044 0.0845,-0.54864 -0.0735,0.0183 -0.01445,-0.58033 0.0094,-0.0955 0.05256,-0.18456 0.07884,-0.27684 0.126833,-0.25102 0.152178,-0.52525 0.144534,-0.80232 -0.0021,-0.0803 -0.03072,-0.16065 -0.01971,-0.24024 0.0094,-0.0678 0.140708,-0.32345 0.171479,-0.38609 0.109259,-0.5907 7.93e-4,-1.1934 -0.0016,-1.79085 0.01886,-0.77572 0.01402,-1.55167 0.01148,-2.32753 -0.09845,-0.50777 0.212286,-0.94365 0.25768,-1.43232 0.01596,-0.17163 -0.01177,-0.40077 -0.02556,-0.56721 -0.07071,-0.69031 -0.02866,-1.38576 -0.02275,-2.07818 0.0013,-0.42607 -0.0021,-0.85213 -0.0032,-1.27819 -5.3e-4,-0.14024 0.01897,-0.28189 -7.94e-4,-0.42073 -0.0011,-0.007 -0.202986,-0.60461 -0.205899,-0.61325 -0.128926,-0.39512 0.0013,-0.80727 -0.02519,-1.2057 -0.02021,-0.30318 -0.159663,-0.61909 -0.219443,-0.91828 -0.06492,-0.30078 0.06772,-0.61246 0.03551,-0.91159 -0.02363,-0.21929 -0.145243,-0.41768 -0.191778,-0.63328 -0.02806,-0.12999 -0.03761,-0.2633 -0.05642,-0.39494 -0.008,-0.64954 0.06544,-1.29262 0.05217,-1.94276 -0.04075,-0.22886 0.03001,-0.47725 -0.01021,-0.70457 -0.01796,-0.10147 -0.07088,-0.1936 -0.10174,-0.29192 -0.116713,-0.37183 -0.09372,-0.30732 -0.152254,-0.6687 0.0213,-0.30771 -0.01984,-0.64916 0.05091,-0.95306 0.05627,-0.24165 0.204918,-0.44921 0.264166,-0.69275 -0.04689,-0.59046 -0.07619,-1.17639 -0.06356,-1.76941 0.01632,-0.58656 0.0066,-1.17338 0.0047,-1.76005 7.94e-4,-0.58067 0.0011,-1.16133 0.0011,-1.742 -0.03015,-0.27969 0.03252,-0.56478 -1.43e-4,-0.84433 -0.0083,-0.0708 -0.192299,-0.79733 -0.206264,-0.87358 -0.06401,-0.34952 -0.05155,-0.395 -0.05154,-0.71726 -0.01511,-0.28355 0.107534,-0.58052 0.06445,-0.86417 -0.03865,-0.25449 -0.140126,-0.28902 -0.212746,-0.51937 -0.03039,-0.0964 -0.03868,-0.19843 -0.05802,-0.29764 0.03422,-0.78244 0.07058,-1.56278 0.05883,-2.34726 0.258148,-0.77504 0.263628,-1.45485 0.19985,-2.25267 -0.38622,-0.712 -0.249653,-1.51147 -0.203994,-2.28417 0.02479,-0.69949 -0.0072,-1.399 -0.0063,-2.09869 -0.195492,-0.65428 -0.408453,-1.31705 -0.460983,-2.0015 0.03779,-0.22653 0.03082,-0.33675 -0.148315,-0.4627 -0.0132,-0.009 -0.03816,-0.003 -0.04503,-0.0178 -0.03746,-0.0796 0.0067,-0.17602 0.01617,-0.26351 -0.250002,-0.7083 -0.238482,-1.42452 -0.1862,-2.16063 -0.01834,-0.27334 0.0695,-0.57967 0.0088,-0.8502 -0.01849,-0.0823 -0.07682,-0.15052 -0.108892,-0.22858 -0.123282,-0.30006 -0.101941,-0.27124 -0.158197,-0.57932 5.3e-4,-0.0799 -0.0039,-0.15991 0.0013,-0.23962 0.0088,-0.13594 0.06563,-0.3614 0.0538,-0.48794 -0.02384,-0.25504 -0.177662,-0.59807 -0.193648,-0.84898 -0.0099,-0.15559 0.02985,-0.31038 0.04477,-0.46556 0.02871,-0.32307 0.185621,-0.62784 0.19649,-0.95374 0.008,-0.2399 -0.03468,-0.48673 -0.05385,-0.72553 -0.0065,-0.67149 0.009,-1.34322 0.0079,-2.01495 -0.05059,-0.41985 0.05738,-0.8627 -0.0031,-1.2809 -0.03394,-0.23479 -0.200893,-0.58066 -0.257032,-0.85898 -0.0689,-0.1833 0.08244,-0.39077 0.05154,-0.57082 -0.0085,-0.0496 -0.181351,-0.36128 -0.1935,-0.40062 -0.03156,-0.10215 -0.03867,-0.2103 -0.05801,-0.31545 -0.006,-0.60927 0.06818,-1.21307 0.05241,-1.82324 -0.03828,-0.11322 0.02355,-0.24146 -0.01008,-0.35495 -0.02027,-0.0684 -0.07036,-0.12417 -0.103553,-0.18733 -0.11712,-0.22284 -0.151849,-0.38016 -0.150791,-0.63027 0.10182,-0.38645 0.0076,-0.80063 0.06359,-1.1881 0.02132,-0.14763 0.133292,-0.39599 0.193468,-0.54016 0.09827,-0.11504 0.02053,-0.23838 1.41e-4,-0.36871 -0.01775,-0.11347 -0.01212,-0.20883 -0.01212,-0.32534 0.0021,-0.0752 -0.009,-0.15188 0.006,-0.22556 0.0467,-0.22789 0.202467,-0.75688 0.370102,-0.92597 3.940635,-3.97467 8.164081,-7.68122 11.87472,-11.87141 3.60012,-4.06539 -7.695005,7.66418 -11.542509,11.49627 0.156244,-0.1729 0.210185,-0.34592 0.193024,-0.57596 -0.0054,-0.0721 -0.03845,-0.14249 -0.03186,-0.21446 0.0067,-0.0728 0.131315,-0.35898 0.158136,-0.42362 3.941522,-3.92427 7.881472,-7.85011 11.824569,-11.77279 3.81617,-3.79642 -7.592246,7.63315 -11.421881,11.41599 -0.0524,0.0518 0.0511,-0.13829 0.08139,-0.20542 0.122002,-0.27037 0.106055,-0.21912 0.294587,-0.46476 3.075101,-4.87267 9.646464,-9.83525 12.315324,-12.49567 0.072,-0.0718 0.29984,-0.27466 0.22775,-0.20295 -3.8113,3.7908 -7.630444,7.57369 -11.445662,11.36054 3.961162,-3.95928 7.914442,-7.92647 11.883492,-11.87785 0.12085,-0.12031 0.52627,-0.43231 0.40549,-0.31192 -3.84964,3.83729 -7.696448,7.67756 -11.571284,11.48941 -0.05453,0.0536 0.06179,-0.14042 0.101336,-0.20589 0.04622,-0.0765 0.103438,-0.14586 0.155157,-0.21878 0.196051,-0.31877 0.407789,-0.63019 0.673385,-0.896 3.958799,-3.96191 8.271746,-7.59711 11.889016,-11.87311 0.39501,-0.46694 -31.618934,31.50919 0.19924,-0.25309 5.70506,-4.46891 -15.416592,16.0653 -10.115369,9.95011 0.152567,-0.18851 0.310817,-0.37255 0.457703,-0.56551 0.158239,-0.20788 0.290242,-0.43566 0.4573,-0.63652 0.165516,-0.19901 0.359823,-0.37221 0.537898,-0.56007 0.542161,-0.57194 1.075939,-1.13721 1.57615,-1.74639 3.821348,-4.9882 7.563348,-7.70088 12.969518,-13.206768 3.68756,-3.755567 -14.991507,14.779838 -11.17718,11.153088 1.61987,-1.54021 29.39766,-29.298398 1.08443,-1.02358 32.23769,-32.108561 1.39607,-1.38781 1.0462,-1.04171 -0.1553,0.15362 0.28312,-0.33275 0.42675,-0.49733 0.28792,-0.32989 0.4551,-0.51792 0.76332,-0.82362 4.01799,-3.98503 8.04117,-7.964809 12.06176,-11.947214 0.0676,-0.02732 0.13517,-0.05465 0.20275,-0.08197 0,0 -11.66993,11.669944 -11.66993,11.669944 v 0 c -0.0676,0.0273 -0.13518,0.0546 -0.20276,0.082 3.75937,-3.79755 7.51725,-7.596583 11.27812,-11.392655 0.12754,-0.128736 -0.25494,0.257714 -0.37812,0.390628 -0.27979,0.301889 -0.52224,0.637934 -0.81196,0.930314 -0.34638,0.349581 -30.416542,30.531763 -1.04619,1.041715 -34.341936,34.384538 0.59929,-0.577352 -1.08444,1.023583 -4.15922,3.954695 -8.14169,8.091625 -12.16268,12.186785 -3.696803,3.76498 7.43481,-7.48952 11.19005,-11.19621 0.31846,-0.31435 -1.12112,1.43554 -0.8197,1.0631 -0.50021,0.60918 -1.03399,1.17445 -1.57615,1.7464 -0.17807,0.18786 -0.37238,0.36105 -0.5379,0.56006 -0.16705,0.20086 -0.29906,0.42864 -0.4573,0.63652 -0.14689,0.19296 -0.30513,0.37701 -0.4577,0.56551 -0.1378,0.15895 -0.2817,0.31282 -0.41339,0.47687 -0.1143,0.14236 -0.19607,0.31134 -0.32398,0.44161 -2.74084,2.79148 -7.829615,9.01886 -12.487139,12.47129 30.443149,-30.497523 0.194456,-0.2123 -0.199236,0.25309 -3.488709,4.12403 7.629625,-7.64878 11.450855,-11.46676 0.0819,-0.0818 -0.15958,0.16808 -0.23254,0.25797 -0.19058,0.23483 -0.27796,0.38532 -0.44084,0.63802 -0.0517,0.0729 -0.10894,0.14225 -0.15516,0.21878 -0.0396,0.0655 -0.0477,0.15138 -0.10133,0.20589 -3.90575,3.96709 -7.83806,7.90794 -11.768596,11.85046 -0.120399,0.12077 -0.525791,0.4328 -0.405495,0.31193 3.810608,-3.82884 7.637591,-7.64135 11.456381,-11.46202 -3.96473,3.99311 -7.925149,7.99051 -11.894211,11.97932 -3.740055,3.75867 7.478071,-7.51938 11.228951,-11.26725 0.063,-0.0629 -0.12309,0.12917 -0.17729,0.19983 -0.0992,0.12932 -0.17697,0.28417 -0.25486,0.42618 -0.18853,0.24563 -0.17258,0.19438 -0.29458,0.46475 -0.0303,0.0671 -0.0296,0.15304 -0.0814,0.20543 -3.915172,3.96125 -7.869584,7.88352 -11.806888,11.82277 -0.0354,0.0354 -0.146426,0.13661 -0.111112,0.10111 3.836667,-3.85746 7.676872,-7.7114 11.51531,-11.56709 -0.0268,0.0646 -0.15146,0.3508 -0.15814,0.42362 -0.007,0.072 0.0265,0.14239 0.0319,0.21446 0.0172,0.23004 -0.0368,0.40307 -0.19302,0.57596 -3.932459,3.94787 -8.103153,7.67196 -11.797365,11.8436 -3.583676,4.04682 7.625286,-7.66386 11.465155,-11.46845 0.072,-0.0714 -0.11367,0.16921 -0.15473,0.26193 -0.0942,0.21277 -0.16866,0.43607 -0.21538,0.66403 -0.0151,0.0737 -0.004,0.15038 -0.006,0.22557 10e-6,0.11651 -0.006,0.21187 0.0121,0.32533 0.0204,0.13033 0.0981,0.25367 -1.4e-4,0.36872 -0.0602,0.14416 -0.17213,0.39252 -0.19347,0.54015 -0.056,0.38748 0.0382,0.80166 -0.0636,1.18811 -10e-4,0.2501 0.0337,0.40742 0.15079,0.63026 0.0332,0.0632 0.0833,0.11893 0.10355,0.18734 0.0336,0.11348 -0.0282,0.24173 0.0101,0.35495 0.0158,0.61016 -0.0584,1.21397 -0.0524,1.82324 0.0193,0.10515 0.0265,0.2133 0.058,0.31545 0.0122,0.0393 0.185,0.35103 0.1935,0.40061 0.0309,0.18006 -0.12043,0.38752 -0.0515,0.57082 0.0561,0.27833 0.22309,0.62419 0.25703,0.85898 0.0605,0.4182 -0.0475,0.86106 0.003,1.2809 0.001,0.67173 -0.0144,1.34346 -0.008,2.01495 0.0192,0.23881 0.0618,0.48563 0.0538,0.72554 -0.0109,0.3259 -0.16777,0.63066 -0.19649,0.95373 -0.0149,0.15519 -0.0547,0.30997 -0.0448,0.46556 0.016,0.25091 0.16981,0.59395 0.19365,0.84899 0.0118,0.12653 -0.045,0.35199 -0.0538,0.48794 -0.005,0.0797 -7.9e-4,0.15974 -0.001,0.23962 0.0563,0.30807 0.0349,0.27926 0.1582,0.57931 0.0321,0.0781 0.0904,0.14624 0.10889,0.22859 0.0607,0.27053 -0.0271,0.57686 -0.009,0.85019 -0.0523,0.73612 -0.0638,1.45233 0.1862,2.16063 -0.009,0.0875 -0.0536,0.18389 -0.0162,0.26352 0.007,0.0146 0.0318,0.009 0.045,0.0178 0.17914,0.12595 0.1861,0.23617 0.14832,0.4627 0.0525,0.68446 0.26549,1.34723 0.46098,2.0015 -8e-4,0.69969 0.0311,1.3992 0.006,2.09869 -0.0457,0.7727 -0.18223,1.57217 0.20399,2.28417 0.0638,0.79782 0.0583,1.47763 -0.19985,2.25267 0.0118,0.78448 -0.0246,1.56482 -0.0588,2.34726 0.0193,0.0992 0.0276,0.20124 0.058,0.29764 0.0726,0.23035 0.17409,0.26488 0.21275,0.51937 0.0431,0.28365 -0.0796,0.58062 -0.0644,0.86417 -2e-5,0.32226 -0.0125,0.36774 0.0515,0.71726 0.014,0.0762 0.19799,0.80276 0.20626,0.87358 0.0327,0.27955 -0.03,0.56464 1.5e-4,0.84433 1.9e-4,0.58067 -2.6e-4,1.16134 -0.001,1.742 0.002,0.58667 0.0116,1.17349 -0.005,1.76005 -0.0126,0.59302 0.0167,1.17895 0.0636,1.76941 -0.0592,0.24354 -0.2079,0.4511 -0.26417,0.69275 -0.0708,0.3039 -0.0296,0.64535 -0.0509,0.95306 0.0585,0.36138 0.0355,0.29687 0.15225,0.6687 0.0309,0.0983 0.0838,0.19045 0.10174,0.29192 0.0402,0.22732 -0.0305,0.47571 0.0102,0.70458 0.0133,0.65013 -0.0602,1.29321 -0.0522,1.94275 0.0188,0.13165 0.0284,0.26495 0.0564,0.39494 0.0465,0.2156 0.16816,0.41399 0.19178,0.63328 0.0322,0.29913 -0.10043,0.61081 -0.0355,0.91159 0.0598,0.29919 0.19923,0.6151 0.21945,0.91828 0.0266,0.39843 -0.10375,0.81058 0.0252,1.2057 0.003,0.009 0.20496,0.60666 0.2059,0.61326 0.0198,0.13884 5.3e-4,0.28048 7.9e-4,0.42073 0.001,0.42605 0.004,0.85211 0.003,1.27818 -0.006,0.69242 -0.048,1.38787 0.0228,2.07818 0.0138,0.16644 0.0415,0.39558 0.0255,0.56721 -0.0454,0.48867 -0.35613,0.92455 -0.25768,1.43232 0.003,0.77586 0.007,1.55181 -0.0115,2.32753 0.002,0.59745 0.11074,1.20016 0.002,1.79085 -0.0308,0.0626 -0.1621,0.31828 -0.17148,0.38609 -0.011,0.0796 0.0175,0.15992 0.0197,0.24024 0.008,0.27707 -0.0177,0.5513 -0.14454,0.80232 -0.0263,0.0923 -0.0694,0.18136 -0.0788,0.27684 -0.059,0.59862 0.099,0.0317 0.0144,0.58034 -0.0204,0.13228 -0.0916,0.14714 -0.15246,0.26043 -0.0353,0.0656 -0.0561,0.13808 -0.0841,0.20713 0.0144,0.084 0.0447,0.16718 0.0408,0.25227 -0.0123,0.26567 -0.25659,0.46681 -0.26293,0.73517 -0.073,0.15003 -0.17993,0.28768 -0.21987,0.44968 -0.0489,0.19817 0.0929,0.39222 0.0881,0.58721 -3.900765,3.918 -8.030239,7.62086 -11.702293,11.75398 -3.627067,4.08247 7.705818,-7.74013 11.567113,-11.60182 0.0529,-0.0529 -0.10437,0.10926 -0.14094,0.17447 -0.14037,0.25023 -0.16858,0.56389 -0.1544,0.84185 -0.0184,0.11121 -0.0211,0.22616 -0.0551,0.33362 -0.0943,0.29799 -0.29294,0.19684 -0.17535,0.55784 0.0149,0.36672 -0.0702,0.43203 -0.14186,0.76079 -0.1296,0.59447 0.11008,-0.0956 -0.15495,0.58046 -0.26108,0.43511 -0.52734,0.8594 -0.7222,1.32853 -0.13611,0.50206 -0.34761,0.97364 -0.60237,1.42421 -0.16951,0.41984 -0.44934,0.78209 -0.60841,1.20627 0.0155,0.0179 0.063,0.0368 0.0464,0.0537 -5.43304,5.51833 -25.571977,25.62735 -0.385642,0.4056 0.11856,-0.11873 -0.448992,0.44416 -0.305821,0.3998 -0.06403,0.1803 -0.299469,0.79223 -0.414562,0.9088 -11.521231,11.66922 -7.282969,8.56614 -11.926359,11.9528 3.863523,-3.86581 7.715899,-7.74279 11.590565,-11.59743 0.03589,-0.0357 -0.05976,0.0856 -0.06893,0.13535 -0.01979,0.10748 0.102447,0.20267 -0.0058,0.31264 -0.07163,0.0728 -30.939385,31.02164 -0.231971,0.20006 -29.886044,29.9691 -1.62392,1.62507 -0.183102,0.19353 0.03136,-0.0312 -0.0141,0.0883 -0.03216,0.12865 -0.152305,0.33995 0.01378,-0.19756 -0.149987,0.25678 -0.01177,0.0327 -0.0095,0.0688 -0.01423,0.10318 -0.123558,0.16596 -0.198186,0.34608 -0.302879,0.52125 -2.933136,4.90763 -10.222791,7.09992 -12.032882,12.27527 -4.281308,3.75681 -0.407059,0.36596 11.217037,-11.26538 0.07258,-0.0726 -0.145595,0.14527 -0.210826,0.22456 -0.06293,0.0765 -0.120102,0.15786 -0.172786,0.24172 -0.04851,0.0772 -0.06625,0.17563 -0.130215,0.24063 -3.912356,3.97582 -7.860731,7.91603 -11.791095,11.87404 -5.339749,3.78099 14.274321,-16.4007 10.960267,-11.15421 -0.0068,0.0456 0.01183,0.10384 -0.02048,0.13671 -3.898003,3.96608 -7.825504,7.90309 -11.751802,11.84115 -0.05096,0.0511 -0.255325,0.12224 -0.204584,0.0709 3.835067,-3.87931 7.687829,-7.74112 11.545557,-11.59789 0.03869,-0.0387 -0.05676,0.0935 -0.08514,0.14031 -0.0426,0.0455 -0.09436,0.0839 -0.127807,0.13653 -0.03868,0.0608 -0.03462,0.14749 -0.08534,0.19871 -3.980032,4.01904 -7.192505,9.04419 -12.04224,11.95509 3.845509,-3.84953 15.060014,-15.69491 11.536529,-11.5486 -3.609145,4.24711 -7.851746,7.91242 -11.794321,11.85197 -0.05282,0.0528 -0.240789,0.17443 -0.188248,0.12138 3.835976,-3.87299 15.346484,-15.48906 11.542212,-11.58492 -1.29636,1.33039 -29.71651,29.80257 -0.20661,0.23064 -3.914048,3.93442 -8.087016,7.62721 -11.74214,11.80327 -3.595185,4.10759 15.66912,-15.19306 11.561948,-11.5974 -4.166894,3.64793 -7.809616,7.85453 -11.741513,11.75461 -0.0321,0.0318 -0.09188,0.007 -0.133466,0.0243 -0.114633,0.0489 -0.186473,0.17528 -0.310721,0.20799 30.538194,-30.67678 0.05819,-0.0489 -0.211318,0.18308 -4.134805,3.5589 7.688863,-7.74152 11.546189,-11.59941 0.03546,-0.0355 -0.04667,0.0894 -0.07745,0.12899 -0.192797,0.24804 -0.05331,-0.0348 -0.186216,0.29915 -3.942258,4.1528 -0.316916,0.33611 -11.896614,11.90337 -0.127752,0.12761 -0.157716,0.14618 -0.286618,0.24747 -0.04109,0.0323 -0.16021,0.13383 -0.123301,0.0968 3.816263,-3.82536 7.641439,-7.64181 11.462157,-11.46272 -0.05632,0.0736 -0.118165,0.14327 -0.168955,0.22078 -0.09682,0.14777 -0.129982,0.3395 -0.254341,0.46498 -3.884837,3.91984 -8.013875,8.15532 -12.123957,12.11871 -4.113369,3.7276 -0.194995,0.1802 11.323801,-11.34357 0.07657,-0.0766 -0.153757,0.15266 -0.227726,0.23177 -0.126318,0.13509 -0.225764,0.29428 -0.356111,0.42549 -3.920059,3.94603 -7.854286,7.87795 -11.781427,11.81692 -4.2153,3.65084 -0.377725,0.3325 11.324904,-11.44432 0.07455,-0.075 -0.141803,0.15714 -0.207774,0.23981 -0.111588,0.13983 -0.18338,0.31159 -0.309534,0.43843 -3.923903,3.9453 -7.869057,7.8694 -11.803583,11.8041 -0.473094,0.17058 0.02466,-0.0244 -0.333854,0.15473 -0.02246,0.0112 -0.09019,0.0382 -0.07248,0.0204 3.853159,-3.87127 14.122765,-16.42469 11.585631,-11.5877 -0.143119,0.27286 -30.797206,30.90094 -0.108662,0.2063 -4.063018,4.12345 -7.78139,8.66874 -12.29147,12.2833 -4.407614,3.09072 15.246268,-15.20485 11.375398,-11.46373 -4.028535,3.8935 -7.548226,8.8673 -12.216715,12.11246 -0.06445,0.0255 -0.241884,0.12609 -0.193365,0.0766 3.827481,-3.90596 7.694933,-7.77255 11.542657,-11.65857 0.02487,-0.0251 -0.05123,0.0489 -0.07413,0.0759 -0.06044,0.0711 -0.086,0.16907 -0.151715,0.23537 -3.917555,3.95254 -7.853137,7.88718 -11.779707,11.83078 -0.09629,0.0904 -0.427916,0.30568 -0.335032,0.21174 20.858197,-21.09623 14.461112,-15.23024 10.974187,-10.90368 -32.048312,32.17876 -0.199893,0.18738 -0.520981,0.56127 -0.938707,1.0931 -30.035317,30.10016 -0.409371,0.49963 0.138332,-0.13822 -0.55453,0.5751 -0.391641,0.43677 -0.06769,0.0806 -0.128816,0.16718 -0.203076,0.24175 -3.957818,3.9747 -7.91976,7.94532 -11.892351,11.90525 -0.150387,0.14991 -0.301768,0.23857 -0.496401,0.31589 -0.07078,0.0281 -0.272555,0.11881 -0.219191,0.0645 3.816342,-3.88596 7.685404,-7.71979 11.528107,-11.57968 -3.96806,3.96806 0.120491,-0.12064 -11.747299,11.85045 -0.136935,0.13812 -0.275063,0.27506 -0.412594,0.41259 -0.137533,0.13753 -0.550127,0.55012 -0.412594,0.41259 3.718063,-3.71806 7.436128,-7.43612 11.154193,-11.15419 0,0 -11.669937,11.66994 -11.669937,11.66994 z"
       inkscape:connector-curvature="0"
       style="stroke-width:0.26458332" />
    <path
       id="path4204"
       d="m 78.850066,171.62989 c 0.666041,-1.33208 0.129542,-0.33299 0.876763,-1.54723 0.280437,-0.4557 0.362434,-0.68742 0.696253,-1.08306 0.205862,-0.24398 0.446059,-0.45715 0.657575,-0.69625 4.093046,-4.58421 0.190478,-0.22787 12.372636,-12.32751 0.10781,-0.10708 0.42999,-0.42958 0.322339,-0.32234 -3.777364,3.76299 -15.152489,15.00824 -11.33148,11.28958 13.749078,-13.3808 7.587949,-8.39929 12.474173,-12.33074 0.859589,-0.82316 1.943899,-1.33922 2.975798,-1.90784 0.326676,-0.17861 0.69397,-0.26017 1.030176,-0.41522 0.737854,-0.34026 0.296606,-0.23136 1.021162,-0.4693 0.164259,-0.0539 0.992539,-0.27099 1.134959,-0.30879 1.05001,-0.24449 2.07486,-0.58415 3.12275,-0.83697 1.55527,-0.37523 0.35088,-0.0163 1.89471,-0.51928 0.91365,-0.26519 1.82193,-0.59333 2.76064,-0.76595 0.54721,-0.10063 1.24957,-0.15441 1.81192,-0.19532 0.63202,-0.0112 1.26328,0.0261 1.89499,0.0387 0.24708,0.005 0.49486,-0.008 0.74131,0.01 0.0715,0.005 1.41001,0.1874 1.5144,0.20152 1.25441,0.11797 2.51149,-0.0193 3.76762,-0.0172 0.82407,-0.25343 1.65243,-0.48112 2.46873,-0.76141 1.33178,-0.52 2.71444,-0.87771 4.07997,-1.29231 1.0326,-0.12319 1.96074,-0.55444 2.87215,-1.02926 0.31522,-0.18116 0.68294,-0.25179 1.00165,-0.42487 0.15743,-0.0855 0.29297,-0.20651 0.4441,-0.30271 0.13641,-0.0868 1.00763,-0.59449 1.10207,-0.66075 0.22654,-0.15895 0.43367,-0.3439 0.65051,-0.51584 0.88909,-0.72891 0.45236,-0.3499 1.30937,-1.13796 0,0 -11.66994,11.66994 -11.66994,11.66994 v 0 c -0.85701,0.78805 -0.42028,0.40905 -1.30937,1.13795 -0.21683,0.17195 -0.42397,0.3569 -0.65051,0.51585 -0.0944,0.0663 -0.96565,0.57392 -1.10207,0.66075 -0.15113,0.0962 -0.28667,0.2172 -0.4441,0.3027 -0.31871,0.17309 -0.68643,0.24372 -1.00164,0.42488 -0.91142,0.47481 -1.83956,0.90607 -2.87216,1.02926 -1.36553,0.4146 -2.74819,0.77231 -4.07997,1.29231 -0.81629,0.28029 -1.64465,0.50798 -2.46873,0.7614 -1.25613,-0.002 -2.51321,0.13518 -3.76762,0.0172 -0.10438,-0.0141 -1.44292,-0.19623 -1.5144,-0.20152 -0.24645,-0.0182 -0.49423,-0.005 -0.7413,-0.01 -0.63171,-0.0126 -1.262975,-0.0499 -1.894993,-0.0387 -0.562358,0.0409 -1.264711,0.0947 -1.811927,0.19532 -0.93871,0.17262 -1.846985,0.50076 -2.760636,0.76594 -1.543836,0.50301 -0.339437,0.14406 -1.894711,0.51929 -1.047895,0.25282 -2.072743,0.59247 -3.122744,0.83697 -0.142431,0.0378 -0.970709,0.25485 -1.134965,0.30879 -0.724553,0.23794 -0.283308,0.12904 -1.021159,0.4693 -0.336209,0.15505 -0.703504,0.23661 -1.030179,0.41522 -1.031899,0.56862 -2.116209,1.08468 -2.975798,1.90784 -4.017179,3.23222 14.560737,-14.6052 10.865699,-11.00914 -4.063844,3.95499 -8.005411,8.03372 -12.008392,12.0503 -0.107265,0.10763 -0.429377,0.43019 -0.322339,0.32234 11.425372,-11.51268 14.846596,-15.35725 10.967235,-11.01236 -0.211513,0.2391 -0.45171,0.45226 -0.657571,0.69625 -0.33382,0.39564 -0.415817,0.62735 -0.696254,1.08306 -0.74722,1.21423 -0.210722,0.21515 -0.876763,1.54723 0,0 -11.669937,11.66994 -11.669937,11.66994 z"
       inkscape:connector-curvature="0"
       style="stroke-width:0.26458332" />
    <path
       id="path4219"
       d="m 103.00099,113.13047 c -3.683684,3.68368 -14.879014,14.58456 -11.051046,11.05105 4.274624,-3.94581 8.245736,-8.20833 12.391976,-12.28883 0.1914,-0.18836 0.40096,-0.35884 0.61889,-0.51574 0.64402,-0.46369 0.72417,-0.40795 1.44408,-0.77362 0.28808,-0.14632 0.56732,-0.30944 0.85098,-0.46417 0.29225,-0.1977 0.57814,-0.40516 0.87676,-0.5931 1.51608,-0.95417 0.42092,-0.17362 1.90825,-1.14753 0.8655,-0.56673 1.66568,-1.21779 2.47235,-1.86312 0.52622,-0.34727 1.0153,-0.71222 1.61008,-0.94123 1.10513,-0.42552 2.60933,-0.52084 3.78709,-0.58505 2.20336,0.0636 4.40518,0.10171 6.60962,0.0821 2.14055,-0.0761 4.25119,0.31736 6.327,0.79424 0.37593,0.0773 0.75409,0.1445 1.1278,0.23188 0.97862,0.22884 1.57517,0.41152 2.53466,0.73385 0.63905,0.21469 2.02527,0.73636 2.66223,0.9153 0.47536,0.13353 0.96238,0.22143 1.44357,0.33215 0.4938,0.10319 0.98235,0.23584 1.48139,0.30957 0.52473,0.0775 1.05567,0.1064 1.5848,0.14349 2.61876,0.18358 5.24356,0.0944 7.86541,0.0503 2.71497,-0.0898 5.42203,-0.39487 8.03907,-1.14721 0.60259,-0.17323 1.20647,-0.35032 1.78694,-0.58736 0.61642,-0.25172 1.19696,-0.58367 1.79544,-0.87551 2.33171,-1.48175 1.17081,-0.6699 3.38178,-2.37627 0.53847,-0.41558 1.08068,-0.82634 1.61624,-1.24567 0.78196,-0.61225 1.67577,-1.37903 2.52325,-1.93072 0.26284,-0.1711 0.54942,-0.30263 0.82413,-0.45394 0,0 -11.66994,11.66994 -11.66994,11.66994 v 0 c -0.27471,0.15131 -0.56128,0.28283 -0.82412,0.45394 -0.84749,0.55168 -1.74129,1.31847 -2.52326,1.93072 -0.53556,0.41932 -1.07777,0.83009 -1.61624,1.24567 -2.21097,1.70637 -1.05007,0.89452 -3.38178,2.37627 -0.59848,0.29184 -1.17901,0.62379 -1.79544,0.87551 -0.58047,0.23703 -1.18435,0.41413 -1.78694,0.58736 -2.61704,0.75233 -5.32409,1.05744 -8.03907,1.1472 -2.62185,0.0441 -5.24664,0.13331 -7.8654,-0.0503 -0.52913,-0.0371 -1.06007,-0.066 -1.5848,-0.14349 -0.49905,-0.0737 -0.9876,-0.20638 -1.4814,-0.30957 -0.48119,-0.11072 -0.9682,-0.19862 -1.44357,-0.33216 -0.63696,-0.17893 -2.02318,-0.70061 -2.66223,-0.91529 -0.95949,-0.32233 -1.55604,-0.50501 -2.53466,-0.73385 -0.37371,-0.0874 -0.75186,-0.15459 -1.12779,-0.23189 -2.07581,-0.47687 -4.18646,-0.87037 -6.32701,-0.79424 -2.20443,0.0196 -4.40626,-0.0185 -6.60962,-0.0821 -1.17776,0.0642 -2.68196,0.15952 -3.78708,0.58504 -0.59479,0.22902 -1.08386,0.59397 -1.61009,0.94123 -0.80666,0.64534 -1.606846,1.29639 -2.472343,1.86313 -1.487331,0.97391 -0.392179,0.19335 -1.908252,1.14753 -0.298622,0.18794 -0.584507,0.3954 -0.876763,0.5931 -0.283657,0.15472 -0.562895,0.31784 -0.850976,0.46417 -0.719913,0.36567 -0.800063,0.30992 -1.44408,0.77361 -0.21793,0.15691 -0.806892,0.7075 -0.618893,0.51575 7.087778,-7.22934 23.481867,-23.585019 -1.340932,1.23778 0,0 11.669939,-11.66994 11.669939,-11.66994 z"
       inkscape:connector-curvature="0"
       style="stroke-width:0.26458332" />
    <path
       id="path4232"
       d="m 120.43311,109.82972 c -0.0785,0.62761 -0.13095,0.92908 -0.15472,1.54723 -0.008,0.20614 0.0134,0.41303 0,0.61889 -0.0399,0.61126 -0.17475,1.23292 -0.29656,1.83089 -0.0688,0.27506 -0.15089,0.54712 -0.20629,0.82519 -0.0733,0.36781 -0.21995,1.54114 -0.27077,1.88246 -0.0529,0.3552 -0.12537,0.70749 -0.17084,1.06372 -0.0912,0.71475 -0.14291,1.43403 -0.22403,2.15 -0.22861,1.47665 -0.43361,2.97109 -0.48632,4.46682 -0.0839,2.38187 0.083,-0.0318 -0.0836,2.08836 -0.17871,1.42637 -0.0745,2.86294 -0.0573,4.29452 -0.0829,0.65539 -0.23597,1.29832 -0.26753,1.96 -0.01,0.19994 0.0111,0.40076 -0.002,0.60049 -0.0268,0.40621 -0.10299,0.80765 -0.15341,1.21161 -0.0854,0.92253 0.0108,1.84564 0.0106,2.76948 -0.0141,1.01073 -0.012,2.02151 -0.01,3.0323 0.001,0.90317 -1.6e-4,1.80634 -1.6e-4,2.7095 2.1e-4,0.72237 1.8e-4,1.44473 1.5e-4,2.1671 -2e-5,0.65743 0,1.31486 0,1.97228 0.043,0.5212 -0.0606,1.05957 0,1.57871 0.005,0.0429 0.19386,0.80597 0.20629,0.85655 0.0172,0.10151 0.0603,0.20194 0.0516,0.30452 -0.0197,0.23108 -0.16314,0.43447 -0.23208,0.6559 -0.0993,0.31907 -0.0941,0.60171 -0.0645,0.92991 0.0902,0.47348 0.0463,0.95674 0.0354,1.43504 -0.037,0.37358 0.0528,0.76236 0.004,1.13416 -0.0383,0.29251 -0.13944,0.57331 -0.2065,0.8606 -0.0174,0.14712 -0.0259,0.29555 -0.0521,0.44138 -0.0781,0.43568 -0.13211,0.40252 -0.18086,0.83737 -0.0587,0.52312 -0.0108,1.05717 0.0132,1.58054 0.006,0.17201 0.0332,0.34445 0.0193,0.51602 -0.0195,0.24105 -0.15181,0.59071 -0.20313,0.82892 -0.0916,0.42541 -0.0592,0.83924 -0.0387,1.2703 0.0543,0.78898 0.0441,1.58012 0.0363,2.37028 -0.002,0.2144 -0.0222,0.42935 -0.007,0.64319 0.0155,0.21184 0.0663,0.41961 0.0995,0.62942 0.18804,0.93117 0.1664,1.87651 0.13271,2.81938 -0.008,0.23223 -0.036,0.46451 -0.0257,0.69666 0.0111,0.25139 0.0599,0.4997 0.0899,0.74955 0.0343,0.27127 0.0748,0.54182 0.10273,0.81381 0.0562,0.54683 0.0712,0.8608 0.0642,1.39951 -0.005,0.35142 -0.0742,0.70276 -0.0482,1.05324 0.01,0.12978 0.0591,0.25347 0.0887,0.3802 0.2487,0.61383 0.12774,1.24152 0.1033,1.87705 -0.0409,0.51647 0.0529,1.04238 0.0103,1.55778 -0.0418,0.50614 -0.19247,1.00671 -0.25528,1.51194 -0.019,0.48269 0.0496,0.96217 0.0622,1.44416 0.002,0.0716 0.0201,0.14607 2.7e-4,0.21493 -0.0182,0.0634 -0.0729,0.11002 -0.10937,0.16503 -0.0365,0.0536 -0.0871,0.0999 -0.10957,0.16071 -0.11094,0.30033 -0.0488,0.6557 -0.0276,0.96313 0.0377,0.54788 0.0257,0.35769 0.0411,0.97175 0,0.11433 0.002,1.2298 -0.007,1.326 -0.009,0.0936 -0.20101,0.99032 -0.21657,1.098 -0.0269,0.18577 -0.0344,0.37382 -0.0516,0.56073 -0.0338,0.20114 -0.0676,0.40228 -0.10144,0.60342 -0.14862,0.64526 -0.0511,1.3079 -0.0877,1.95774 -0.0108,0.19185 -0.0534,0.38059 -0.0778,0.57118 -0.10714,0.83586 -0.0757,0.55803 -0.12958,1.40956 -0.0222,0.63745 0.02,1.27409 0.0373,1.91095 0.005,0.19811 0.0277,0.39693 0.0113,0.59443 -0.003,0.0325 -0.20533,0.98944 -0.21035,1.0133 -0.13282,0.45514 -0.0106,0.92294 -0.0341,1.38126 -0.0181,0.35185 -0.12331,0.69414 -0.16509,1.04397 -0.0245,0.20503 -0.0339,0.41157 -0.0509,0.61736 0.0384,0.75392 -0.26771,1.44971 -0.18766,2.20462 0.0562,0.7635 0.0202,1.53091 0.0168,2.29587 -0.0344,0.17766 -0.0699,0.35509 -0.10305,0.53298 -0.0789,0.42353 -0.12967,0.65013 -0.15215,1.07344 -0.0144,0.27043 0.0518,0.5424 0.0264,0.81201 -0.006,0.0614 -0.0518,0.11183 -0.0777,0.16774 -28.404228,28.37783 -3.08413,3.06897 -0.1423,0.17856 0.0386,-0.0379 -0.008,0.10816 -0.006,0.16225 0.008,0.22882 0.0423,0.45811 0.055,0.68704 -0.0348,0.57849 0.0439,1.17072 -0.0121,1.7475 -0.015,0.15418 -0.16716,0.82878 -0.20549,1.00355 -0.0325,0.22171 -0.28116,0.36232 -0.28133,0.59101 -9e-5,0.11527 0.0642,0.22365 0.0894,0.33416 -0.15451,0.25281 -0.23998,0.54759 -0.2674,0.8421 -0.0119,0.12763 0.007,0.25703 -0.006,0.3845 -0.0341,0.3216 -0.10959,0.63755 -0.15473,0.95778 -0.34448,1.31841 0.0922,-0.28969 -0.34413,1.10799 -0.0771,0.24692 -0.12672,0.60644 -0.27077,0.84361 -0.0944,0.15548 -0.2528,0.26163 -0.37813,0.39347 -0.0626,0.16176 -0.176,0.29945 -0.24176,0.45957 -0.0281,0.0685 -0.0333,0.14489 -0.0603,0.21386 -0.11639,0.29742 -0.31786,0.55819 -0.50677,0.81066 -0.0809,0.11971 -0.16187,0.23942 -0.2428,0.35913 -0.11176,0.13776 -0.23532,0.26674 -0.33526,0.41329 -0.19126,0.28046 -0.50861,0.91649 -0.67269,1.18915 -0.43824,0.72827 -0.62884,0.95486 -1.14484,1.66357 -0.71324,1.02731 -1.43459,2.063 -2.02602,3.16774 -0.18657,0.34851 -0.32595,0.72085 -0.51091,1.07021 -0.26026,0.4916 -0.56708,0.95718 -0.84144,1.44104 -3.99079,3.98804 -7.981578,7.97607 -11.972368,11.9641 -0.07776,0.0312 -0.149897,0.0855 -0.233291,0.0935 -0.07214,0.007 -0.477522,-0.18321 -0.539221,-0.2275 -0.04307,-0.0309 -0.06427,-0.0844 -0.0964,-0.12652 -0.03614,-0.0643 -0.07228,-0.12859 -0.108415,-0.19289 0,0 11.669935,-11.66994 11.669935,-11.66994 v 0 c 0.0361,0.0643 0.0723,0.1286 0.10842,0.1929 0.0321,0.0422 0.0533,0.0956 0.0964,0.12651 0.0617,0.0443 0.46709,0.23437 0.53923,0.22751 0.0834,-0.008 0.15553,-0.0623 0.23329,-0.0935 -3.78917,3.79192 -7.578338,7.58385 -11.367507,11.37577 0.274359,-0.48387 0.581183,-0.94944 0.841443,-1.44104 0.18496,-0.34936 0.32434,-0.72171 0.510911,-1.07021 0.591423,-1.10474 1.31278,-2.14043 2.02602,-3.16775 0.515993,-0.7087 0.706593,-0.93529 1.144843,-1.66357 0.16407,-0.27265 0.48142,-0.90868 0.67268,-1.18914 0.0999,-0.14656 0.22351,-0.27553 0.33526,-0.41329 0.0809,-0.11971 0.16187,-0.23942 0.2428,-0.35913 0.18892,-0.25248 0.39038,-0.51324 0.50678,-0.81067 0.027,-0.069 0.0322,-0.14534 0.0603,-0.21386 0.0658,-0.16011 0.17916,-0.2978 0.24175,-0.45956 0.12533,-0.13184 0.28371,-0.23799 0.37814,-0.39347 0.14404,-0.23717 0.19368,-0.5967 0.27076,-0.84361 0.4363,-1.39768 -2.6e-4,0.21042 0.34413,-1.10799 0.0451,-0.32024 0.12063,-0.63619 0.15474,-0.95778 0.0135,-0.12747 -0.005,-0.25687 0.006,-0.3845 0.0274,-0.29451 0.1129,-0.5893 0.2674,-0.8421 -0.0252,-0.11051 -0.0895,-0.21889 -0.0894,-0.33417 1.7e-4,-0.22868 0.24882,-0.3693 0.28133,-0.591 0.0383,-0.17478 0.19051,-0.84937 0.20549,-1.00355 0.056,-0.57678 -0.0226,-1.16901 0.0121,-1.7475 -0.005,-0.0917 -0.0795,-0.81782 -0.0486,-0.84929 2.9336,-2.98437 28.10413,-28.16678 0.1423,-0.17856 0.0259,-0.0559 0.0719,-0.10639 0.0777,-0.16774 0.0255,-0.26962 -0.0407,-0.54158 -0.0264,-0.81201 0.0225,-0.42331 0.0733,-0.64991 0.15215,-1.07344 0.0331,-0.17789 0.0687,-0.35532 0.10304,-0.53298 0.003,-0.76496 0.0394,-1.53237 -0.0168,-2.29587 -0.0801,-0.75492 0.22602,-1.4507 0.18766,-2.20462 0.017,-0.20579 0.0264,-0.41234 0.0509,-0.61736 0.0418,-0.34983 0.14702,-0.69213 0.16509,-1.04398 0.0235,-0.45832 -0.0987,-0.92611 0.0341,-1.38125 0.005,-0.0239 0.20765,-0.98076 0.21036,-1.0133 0.0164,-0.1975 -0.006,-0.39633 -0.0113,-0.59444 -0.0173,-0.63685 -0.0595,-1.2735 -0.0373,-1.91094 0.0539,-0.85154 0.0224,-0.5737 0.12958,-1.40956 0.0244,-0.19059 0.067,-0.37934 0.0778,-0.57119 0.0366,-0.64983 -0.0609,-1.31247 0.0877,-1.95773 0.0338,-0.20114 0.0676,-0.40228 0.10144,-0.60342 0.0172,-0.18691 0.0247,-0.37497 0.0516,-0.56074 0.0156,-0.10767 0.20779,-1.00434 0.21658,-1.09799 0.009,-0.0962 0.007,-1.21167 0.007,-1.326 -0.0154,-0.61406 -0.003,-0.42388 -0.0411,-0.97176 -0.0212,-0.30743 -0.0833,-0.66279 0.0276,-0.96312 0.0225,-0.0608 0.0731,-0.10714 0.10957,-0.16071 0.0365,-0.055 0.0912,-0.10159 0.10938,-0.16503 0.0198,-0.0689 0.002,-0.14331 -5.3e-4,-0.21493 -0.0126,-0.48199 -0.0812,-0.96147 -0.0622,-1.44416 0.0628,-0.50523 0.21346,-1.0058 0.25529,-1.51194 0.0426,-0.5154 -0.0512,-1.04131 -0.0103,-1.55778 0.0244,-0.63553 0.1454,-1.26323 -0.10329,-1.87706 -0.0296,-0.12673 -0.0791,-0.25041 -0.0887,-0.38019 -0.0261,-0.35048 0.0436,-0.70182 0.0481,-1.05324 0.007,-0.53872 -0.008,-0.85268 -0.0642,-1.39951 -0.028,-0.27199 -0.0685,-0.54254 -0.10273,-0.81382 -0.03,-0.24984 -0.0787,-0.49815 -0.0899,-0.74954 -0.0103,-0.23215 0.0174,-0.46443 0.0257,-0.69666 0.0337,-0.94288 0.0553,-1.88821 -0.13272,-2.81939 -0.0332,-0.20981 -0.0841,-0.41757 -0.0995,-0.62942 -0.0156,-0.21384 0.005,-0.42878 0.007,-0.64318 0.008,-0.79016 0.0181,-1.5813 -0.0363,-2.37029 -0.0205,-0.43105 -0.053,-0.84488 0.0387,-1.27029 0.0513,-0.23821 0.18363,-0.58788 0.20313,-0.82893 0.0139,-0.17156 -0.0129,-0.34401 -0.0193,-0.51602 -0.024,-0.52337 -0.0718,-1.05741 -0.0132,-1.58053 0.0488,-0.43485 0.10273,-0.40169 0.18086,-0.83738 0.0262,-0.14582 0.0347,-0.29425 0.0521,-0.44138 0.0671,-0.28728 0.16817,-0.56809 0.2065,-0.86059 0.0487,-0.3718 -0.041,-0.76058 -0.004,-1.13416 0.0109,-0.47831 0.0547,-0.96156 -0.0355,-1.43504 -0.0296,-0.3282 -0.0349,-0.61084 0.0645,-0.92991 0.0689,-0.22144 0.2124,-0.42482 0.23208,-0.65591 0.009,-0.10257 -0.0344,-0.203 -0.0516,-0.30451 -0.0124,-0.0506 -0.20129,-0.81369 -0.2063,-0.85655 -0.0606,-0.51915 0.043,-1.05751 10e-6,-1.57871 0,-0.65743 -3e-5,-1.31486 -10e-6,-1.97229 4e-5,-0.72236 7e-5,-1.44473 -1.5e-4,-2.16709 0,-0.90317 0.001,-1.80634 1.7e-4,-2.70951 -0.003,-1.01078 -0.005,-2.02157 0.01,-3.03229 2.4e-4,-0.92385 -0.0959,-1.84695 -0.0106,-2.76949 0.0504,-0.40396 0.12661,-0.80539 0.15342,-1.2116 0.0132,-0.19973 -0.007,-0.40055 0.002,-0.60049 0.0316,-0.66168 0.18461,-1.30461 0.26753,-1.96001 -0.0172,-1.43157 -0.12142,-2.86815 0.0573,-4.29451 0.16663,-2.12014 -2.6e-4,0.29351 0.0836,-2.08836 0.0527,-1.49574 0.25771,-2.99018 0.48633,-4.46682 0.0811,-0.71597 0.1328,-1.43525 0.22403,-2.15 0.0455,-0.35623 0.11794,-0.70852 0.17083,-1.06372 0.0508,-0.34132 0.19748,-1.51465 0.27077,-1.88247 0.0554,-0.27806 0.13753,-0.55012 0.2063,-0.82519 0.12181,-0.59796 0.25668,-1.21962 0.29655,-1.83089 0.0134,-0.20585 -0.008,-0.41274 0,-0.61889 0.0238,-0.61814 0.0763,-0.91961 0.15472,-1.54723 0,0 11.66994,-11.66993 11.66994,-11.66993 z"
       inkscape:connector-curvature="0"
       style="stroke-width:0.26458332" />
  </g>
</svg>
