<?xml version="1.0" encoding="UTF-8" standalone="no"?>
<!-- Created with Inkscape (http://www.inkscape.org/) -->

<svg
   xmlns:dc="http://purl.org/dc/elements/1.1/"
   xmlns:cc="http://creativecommons.org/ns#"
   xmlns:rdf="http://www.w3.org/1999/02/22-rdf-syntax-ns#"
   xmlns:svg="http://www.w3.org/2000/svg"
   xmlns="http://www.w3.org/2000/svg"
   xmlns:sodipodi="http://sodipodi.sourceforge.net/DTD/sodipodi-0.dtd"
   xmlns:inkscape="http://www.inkscape.org/namespaces/inkscape"
   width="26.840849mm"
   height="36.342098mm"
   viewBox="0 0 26.840849 36.342098"
   version="1.1"
   id="svg213"
   inkscape:version="0.92.3 (2405546, 2018-03-11)"
   sodipodi:docname="R06.svg">
  <defs
     id="defs207" />
  <sodipodi:namedview
     id="base"
     pagecolor="#ffffff"
     bordercolor="#666666"
     borderopacity="1.0"
     inkscape:pageopacity="0.0"
     inkscape:pageshadow="2"
     inkscape:zoom="3.959798"
     inkscape:cx="86.49839"
     inkscape:cy="76.508003"
     inkscape:document-units="mm"
     inkscape:current-layer="layer1"
     showgrid="false"
     fit-margin-top="0"
     fit-margin-left="0"
     fit-margin-right="0"
     fit-margin-bottom="0"
     inkscape:window-width="1600"
     inkscape:window-height="845"
     inkscape:window-x="0"
     inkscape:window-y="27"
     inkscape:window-maximized="1" />
  <metadata
     id="metadata210">
    <rdf:RDF>
      <cc:Work
         rdf:about="">
        <dc:format>image/svg+xml</dc:format>
        <dc:type
           rdf:resource="http://purl.org/dc/dcmitype/StillImage" />
        <dc:title></dc:title>
      </cc:Work>
    </rdf:RDF>
  </metadata>
  <g
     inkscape:label="Layer 1"
     inkscape:groupmode="layer"
     id="layer1"
     transform="translate(-165.96352,-175.12287)">
    <path
       style="fill:#000000;stroke-width:0.32327327"
       id="path313"
       d="m 165.96352,183.74677 c 1.9807,-1.17506 4.05763,-2.28841 6.09211,-3.41215 0.0677,-0.0374 0.18613,-0.0423 0.26807,-0.0459 0.0499,-0.01 0.10359,-0.0131 0.14962,-0.0292 0.0631,-0.0221 0.38576,-0.18508 0.43015,-0.20671 0.277,-0.13499 0.54158,-0.27766 0.81124,-0.41918 -1.62573,0.91292 -6.51898,3.63871 -4.8772,2.73876 1.80759,-0.99087 3.58325,-2.00762 5.37476,-3.01151 0.078,-0.0437 0.31183,-0.17497 0.23377,-0.13128 -1.65456,0.92655 -6.62598,3.70005 -4.96348,2.77986 5.3687,-2.97157 3.02836,-2.60809 5.36922,-2.95976 0.0304,0.005 0.0598,0.0148 0.0911,0.0161 0.10065,0.004 0.24334,-0.041 0.32251,-0.072 0.0533,-0.0208 0.19897,-0.0974 0.15178,-0.0708 -1.66021,0.93497 -3.32758,1.86422 -4.99139,2.79633 1.75723,-0.98562 3.61096,-1.89882 5.27165,-2.95687 1.56426,-0.99662 -3.31878,1.85001 -4.98172,2.77216 -0.0563,0.0312 0.1054,-0.0679 0.16156,-0.0992 13.2485,-7.38518 2.82574,-2.20422 5.56364,-2.99486 0.30509,-0.0454 0.58189,-0.14787 0.89625,-0.16379 0.23498,-0.0821 0.46835,-0.0533 0.72322,-0.0459 0.37126,-0.004 0.70085,0.0976 0.97723,0.2573 0.26082,0.14309 0.56468,0.24189 0.79447,0.40893 0.0448,0.0223 0.0855,0.0488 0.13437,0.0668 0.0433,0.0159 0.093,0.022 0.13914,0.0339 0.18647,0.0485 0.28658,0.0981 0.35497,0.22622 0.0412,0.13121 0.21174,0.1879 0.33518,0.27753 0.0291,0.0212 0.0986,0.10557 0.12003,0.13056 0.0918,0.17032 0.26391,0.31147 0.38965,0.46901 0.0407,0.0512 0.0676,0.10689 0.10699,0.15856 0.16266,0.16764 0.30586,0.3421 0.42461,0.52607 1e-4,0.13204 0.14421,0.22912 0.19952,0.34934 7.8e-4,0.0504 -0.0468,0.10205 -0.0348,0.15266 0.008,0.0341 0.0831,0.11751 0.0975,0.14937 0.0153,0.0338 0.0192,0.0695 0.0288,0.10423 0.003,0.1703 -0.0342,0.33852 -0.0266,0.50924 -0.13437,0.15423 -0.126,0.1386 -0.0966,0.30582 -0.006,0.11085 0.0278,0.22759 0.003,0.33806 -0.0262,0.11964 -0.0649,0.12977 -0.10438,0.23962 -0.012,0.035 -0.0167,0.071 -0.0249,0.10654 0.0102,0.19402 0.0355,0.38534 0.0295,0.57988 -0.008,0.15932 -0.005,0.31874 -0.005,0.4781 2.9e-4,0.0475 0.009,0.0953 7.9e-4,0.14242 -0.008,0.0474 -0.033,0.0928 -0.0495,0.13927 -0.0166,0.045 -0.0293,0.0907 -0.0499,0.13489 -0.0633,0.13529 -0.0919,0.12391 -0.1251,0.26351 -0.0313,0.13204 2.5e-4,0.26798 0.0187,0.39957 0.005,0.0336 0.0182,0.0673 0.012,0.10078 -0.0135,0.0754 -0.0752,0.1435 -0.0998,0.21759 -0.0149,0.0439 -0.0164,0.0894 -0.0295,0.13353 -0.0705,0.18848 -0.0401,0.0939 -0.0911,0.28375 -0.005,0.0459 -0.003,0.0922 -0.012,0.13779 -0.0365,0.18327 -0.0381,0.0772 -0.0792,0.23183 -0.0515,0.1942 0.0191,-0.002 -0.012,0.21406 -0.006,0.0452 -0.0261,0.0891 -0.0392,0.13362 -0.0476,0.0807 -0.034,0.16867 -0.0617,0.2516 -0.0597,0.17823 -0.0484,0.0302 -0.0906,0.22159 -0.0221,0.0999 -0.0149,0.14155 -0.009,0.23778 -0.0629,0.11692 -0.0624,0.24303 -0.0984,0.36277 -0.0102,0.0367 -0.0356,0.071 -0.0512,0.10704 -0.0469,0.10905 -0.0378,0.0908 -0.0555,0.19342 9.6e-4,0.0334 0.0102,0.0669 0.006,0.10009 -0.012,0.0675 -0.0568,0.13055 -0.0767,0.19711 -0.0337,0.11177 -0.0775,0.21972 -0.11298,0.33168 -0.005,0.0468 -0.0135,0.0934 -0.015,0.14031 -9.6e-4,0.0477 0.0102,0.0956 0.006,0.14322 -0.006,0.0477 -0.0657,0.22661 -0.0767,0.27499 -0.0276,0.1211 -0.0214,0.14147 -0.0225,0.2632 0.003,0.0329 0.0149,0.0659 0.009,0.0987 -0.0119,0.0744 -0.0613,0.14402 -0.0845,0.21721 -0.0358,0.11315 -0.0261,0.22051 -0.0169,0.33517 0.003,0.057 0.009,0.11406 0.0102,0.17112 0.003,0.0584 0.0135,0.11703 0.006,0.17524 -0.0102,0.0856 -0.0754,0.20704 -0.10167,0.29221 -0.0361,0.11748 -0.0278,0.12888 -0.0293,0.24749 0.005,0.0315 0.0163,0.063 0.012,0.0945 -0.009,0.0749 -0.0573,0.14536 -0.0797,0.21898 -0.0313,0.10325 -0.0288,0.20047 -0.0185,0.30484 -0.0484,0.12146 -0.0952,0.2419 -0.10699,0.36799 -0.005,0.0479 0.005,0.0962 -0.003,0.14405 -8e-5,5.3e-4 -0.078,0.33975 -0.0789,0.34379 -0.0822,0.15159 -0.13049,0.30862 -0.13302,0.47013 -7.9e-4,0.0583 0.0135,0.11657 0.0102,0.17483 -9.6e-4,0.02 -0.0676,0.32702 -0.0701,0.33929 -0.0479,0.1298 -0.13465,0.25822 -0.14017,0.39411 -0.003,0.0868 0.0288,0.17856 0.0402,0.26486 9.6e-4,0.0503 0.0102,0.29513 9.6e-4,0.33859 -0.009,0.045 -0.037,0.0873 -0.0543,0.13118 -0.0563,0.14322 -0.12734,0.28114 -0.17831,0.42524 -0.005,0.0447 -0.008,0.0895 -0.012,0.13425 0.005,0.0438 0.0163,0.0876 0.0135,0.13144 -0.008,0.1 -0.0505,0.1974 -0.0685,0.29679 -0.0273,0.15222 -0.0221,0.16938 -0.0253,0.31777 -0.0135,0.21079 0.0582,0.45723 0.0234,0.66488 -0.0172,0.10283 -0.0712,0.20141 -0.10404,0.30252 -0.009,0.0522 -0.0134,0.10482 -0.0262,0.15659 -0.0654,0.25655 -0.051,0.0284 -0.0871,0.34147 -0.0281,0.24484 -0.005,0.49194 0.008,0.73684 0.0309,0.22799 -0.0154,0.45756 -0.0892,0.68016 -0.0684,0.20609 -0.0943,0.16717 -0.13017,0.37631 -0.0102,0.0642 -0.009,0.12918 -0.0135,0.19377 0.005,0.0556 0.0162,0.11109 0.0135,0.16668 -9.6e-4,0.0221 -0.065,0.27776 -0.0672,0.29012 -0.0331,0.19228 -0.0252,0.38438 -0.0173,0.57732 -0.006,0.226 -0.1661,0.43225 -0.2109,0.65251 -0.0195,0.22704 -9.7e-4,0.11561 -0.0536,0.33439 -0.0102,0.0586 -0.0239,0.11708 -0.0313,0.17592 -0.008,0.0538 -9.6e-4,0.10823 -0.012,0.16178 -0.0173,0.0904 -0.0657,0.17712 -0.0864,0.26719 -0.0232,0.1007 -0.0172,0.12208 -0.0135,0.21626 0.005,0.0328 0.0158,0.0657 0.012,0.0985 -0.0102,0.0849 -0.0583,0.14045 -0.0854,0.22157 -0.0449,0.13441 -0.0266,0.27063 -0.0187,0.40683 -0.0712,0.53177 -0.23582,1.05423 -0.31259,1.58557 -9.6e-4,0.0778 -0.008,0.15557 -0.006,0.23337 9.7e-4,0.0663 0.0171,0.13238 0.0135,0.19859 -0.006,0.10631 -0.0454,0.16473 -0.0737,0.26499 -0.0331,0.11742 -0.0238,0.12845 -0.0266,0.2595 -0.006,0.18533 0.0433,0.37284 0.0243,0.55805 -0.006,0.0558 -0.0901,0.3662 -0.1011,0.42261 -0.0135,0.0676 -0.0183,0.1357 -0.0275,0.20354 -0.006,0.0208 -0.0812,0.25807 -0.089,0.29602 -0.008,0.0379 -9.6e-4,0.077 -0.012,0.11461 -0.0187,0.0671 -0.0751,0.12533 -0.0956,0.19249 9.6e-4,0.0294 0.009,0.0591 0.003,0.0883 -0.0149,0.0733 -0.0622,0.14221 -0.0797,0.21516 -0.0102,0.0455 -0.008,0.0923 -0.021,0.13762 -0.0216,0.0751 -0.0636,0.14689 -0.0908,0.22114 -0.012,0.0671 -0.0225,0.0895 -0.009,0.15302 7.9e-4,0.004 0.0252,0.0401 0.0227,0.0449 -0.009,0.0171 -0.0326,0.0293 -0.0461,0.045 -0.0188,0.0217 -0.0342,0.0447 -0.0512,0.0671 -0.063,0.0546 -0.0135,0.0903 7.9e-4,0.13335 -1.72292,0.96663 -3.44587,1.93327 -5.1688,2.89991 1.68895,-0.94435 3.37788,-1.88869 5.06681,-2.83304 -0.0346,0.0598 -0.0447,0.12613 0.003,0.17818 -1.70842,0.94807 -3.41685,1.89614 -5.12528,2.8442 -9.6e-4,-0.0176 -0.008,-0.0947 -0.003,-0.10579 0.0102,-0.0259 0.0342,-0.0482 0.0512,-0.0724 0,0 5.11956,-2.87761 5.11956,-2.87761 v 0 c -0.0459,0.0649 -0.0649,0.10673 -0.0479,0.17818 -1.70461,0.97033 -3.40923,1.94067 -5.11383,2.91101 -0.0473,-0.0521 -0.0373,-0.11839 -0.003,-0.17818 1.7241,-0.97406 3.44821,-1.94812 5.17233,-2.92218 -1.69012,0.95177 -3.3738,1.90868 -5.07034,2.85531 -0.0153,0.008 -0.0322,-0.0787 -0.0288,-0.0888 0.006,-0.0157 0.0187,-0.0297 0.0281,-0.0445 0.0171,-0.0224 0.0323,-0.0454 0.0512,-0.0671 0.0135,-0.0157 0.037,-0.0279 0.0461,-0.045 0.003,-0.005 -0.0218,-0.0409 -0.0227,-0.0449 -0.0135,-0.0636 -9.6e-4,-0.0859 0.009,-0.15302 0.0271,-0.0742 0.0691,-0.14608 0.0908,-0.22114 0.0135,-0.0453 0.0102,-0.0921 0.021,-0.13762 0.0176,-0.073 0.0654,-0.14189 0.0797,-0.21516 0.006,-0.0292 -9.5e-4,-0.0589 -0.003,-0.0883 0.0205,-0.0672 0.0769,-0.12544 0.0956,-0.19249 0.0102,-0.0376 0.005,-0.0767 0.012,-0.11461 0.008,-0.0379 0.0826,-0.27518 0.089,-0.29602 0.009,-0.0678 0.0149,-0.13597 0.0275,-0.20354 0.0102,-0.0564 0.0952,-0.36679 0.1011,-0.42261 0.0191,-0.18521 -0.0309,-0.37272 -0.0242,-0.55805 0.003,-0.13105 -0.006,-0.14207 0.0266,-0.2595 0.0282,-0.10026 0.0675,-0.15868 0.0737,-0.26499 0.005,-0.0662 -0.012,-0.13233 -0.0135,-0.19859 -9.7e-4,-0.0778 0.005,-0.15558 0.006,-0.23337 0.0767,-0.53134 0.24134,-1.0538 0.31259,-1.58557 -0.008,-0.1362 -0.0262,-0.27242 0.0187,-0.40683 0.0271,-0.0811 0.0743,-0.1367 0.0854,-0.22157 0.005,-0.0328 -0.008,-0.0657 -0.012,-0.0985 -0.003,-0.0942 -0.009,-0.11555 0.0135,-0.21625 0.0206,-0.0901 0.069,-0.17681 0.0864,-0.26719 0.0102,-0.0536 0.005,-0.10798 0.012,-0.16178 0.008,-0.0588 0.0209,-0.11728 0.0313,-0.17592 0.0524,-0.21879 0.034,-0.10736 0.0536,-0.33439 0.0448,-0.22025 0.2052,-0.42651 0.2109,-0.65252 -0.008,-0.19293 -0.016,-0.38503 0.0173,-0.57731 9.6e-4,-0.0124 0.066,-0.26802 0.0672,-0.29012 0.003,-0.0556 -0.009,-0.11113 -0.0135,-0.16669 0.005,-0.0646 0.003,-0.12953 0.0135,-0.19376 0.0358,-0.20914 0.0619,-0.17022 0.13018,-0.37631 0.0738,-0.2226 0.12018,-0.45217 0.0892,-0.68016 -0.012,-0.2449 -0.0354,-0.492 -0.008,-0.73684 0.0358,-0.31312 0.0216,-0.0849 0.087,-0.34147 0.0135,-0.0518 0.0175,-0.10439 0.0262,-0.15659 0.0328,-0.10112 0.0868,-0.19969 0.10404,-0.30252 0.0348,-0.20765 -0.0372,-0.45409 -0.0234,-0.66488 0.003,-0.14839 -9.7e-4,-0.16555 0.0253,-0.31777 0.0178,-0.0994 0.0619,-0.19678 0.0685,-0.29679 0.003,-0.0439 -0.009,-0.0876 -0.0135,-0.13144 0.005,-0.0447 0.008,-0.0895 0.012,-0.13425 0.051,-0.14411 0.12211,-0.28203 0.17831,-0.42524 0.0172,-0.0439 0.0461,-0.0861 0.0543,-0.13118 0.008,-0.0435 -4e-4,-0.28834 -9.6e-4,-0.33859 -0.012,-0.0863 -0.0438,-0.17805 -0.0401,-0.26487 0.006,-0.13588 0.0923,-0.2643 0.14017,-0.39411 0.003,-0.0122 0.0689,-0.31931 0.0701,-0.33928 0.005,-0.0583 -0.0102,-0.11652 -0.009,-0.17483 0.003,-0.16152 0.0508,-0.31855 0.13301,-0.47013 7.9e-4,-0.004 0.0789,-0.34315 0.0789,-0.3438 0.006,-0.0478 -0.003,-0.0961 0.003,-0.14404 0.012,-0.12609 0.0587,-0.24653 0.10699,-0.36799 -0.0102,-0.10437 -0.0135,-0.20159 0.0185,-0.30484 0.0224,-0.0736 0.0705,-0.14411 0.0797,-0.21898 0.005,-0.0315 -0.009,-0.063 -0.012,-0.0945 9.6e-4,-0.11861 -0.008,-0.13001 0.0293,-0.24749 0.0262,-0.0852 0.0905,-0.20657 0.10167,-0.29221 0.008,-0.0582 -0.003,-0.11685 -0.006,-0.17525 -0.003,-0.0571 -0.008,-0.11407 -0.0102,-0.17111 -0.009,-0.11466 -0.019,-0.22202 0.0169,-0.33517 0.0233,-0.0732 0.0729,-0.14278 0.0845,-0.21721 0.005,-0.0328 -0.006,-0.0658 -0.009,-0.0987 9.6e-4,-0.12173 -0.005,-0.1421 0.0225,-0.2632 0.0102,-0.0484 0.0715,-0.22733 0.0768,-0.27499 0.006,-0.0476 -0.008,-0.0955 -0.006,-0.14322 9.7e-4,-0.0469 0.0102,-0.0935 0.0151,-0.14031 0.0355,-0.11196 0.0793,-0.21991 0.11297,-0.33168 0.02,-0.0666 0.0656,-0.12963 0.0769,-0.19711 0.006,-0.0332 -0.003,-0.0667 -0.006,-0.10009 0.0177,-0.10263 0.009,-0.0844 0.0555,-0.19342 0.0154,-0.036 0.0402,-0.0703 0.0512,-0.10704 0.036,-0.11974 0.0355,-0.24585 0.0984,-0.36277 -0.005,-0.0962 -0.012,-0.1379 0.009,-0.23778 0.0423,-0.19141 0.0309,-0.0434 0.0906,-0.22159 0.0278,-0.0829 0.0135,-0.17085 0.0617,-0.2516 0.0135,-0.0445 0.0327,-0.0884 0.0392,-0.13363 0.0316,-0.21644 -0.0389,-0.0198 0.012,-0.21405 0.0409,-0.15466 0.0425,-0.0486 0.0792,-0.23183 0.009,-0.0456 0.008,-0.0919 0.012,-0.13779 0.051,-0.18987 0.0207,-0.0953 0.0911,-0.28375 0.0135,-0.0441 0.015,-0.0896 0.0297,-0.13353 0.0243,-0.0741 0.0868,-0.14221 0.0997,-0.21759 0.006,-0.0335 -0.009,-0.0672 -0.012,-0.10078 -0.0183,-0.13159 -0.05,-0.26753 -0.0187,-0.39957 0.0331,-0.1396 0.0617,-0.12822 0.12509,-0.26351 0.0207,-0.0442 0.0333,-0.0899 0.0499,-0.13488 0.0165,-0.0464 0.0414,-0.0919 0.0495,-0.13928 0.008,-0.0472 -4.1e-4,-0.0949 -7.9e-4,-0.14242 -8.1e-4,-0.15936 -0.003,-0.31878 0.005,-0.4781 0.006,-0.19455 -0.019,-0.38586 -0.0295,-0.57988 0.009,-0.0355 0.012,-0.0716 0.025,-0.10655 0.0393,-0.10984 0.078,-0.11997 0.10438,-0.23961 0.0243,-0.11048 -0.009,-0.22721 -0.003,-0.33807 -0.0294,-0.16721 -0.0378,-0.15158 0.0966,-0.30581 -0.008,-0.17072 0.0291,-0.33894 0.0263,-0.50925 -0.009,-0.0347 -0.0134,-0.0704 -0.0288,-0.10422 -0.0149,-0.0319 -0.0892,-0.11524 -0.0975,-0.14937 -0.012,-0.0506 0.0355,-0.10224 0.0348,-0.15266 -0.0554,-0.12022 -0.19942,-0.2173 -0.19953,-0.34934 -0.11883,-0.18397 -0.26194,-0.35843 -0.42461,-0.52607 -0.0395,-0.0517 -0.0663,-0.10741 -0.10699,-0.15857 -0.12568,-0.15754 -0.29786,-0.29868 -0.38967,-0.469 -0.0214,-0.025 -0.0908,-0.10938 -0.12002,-0.13056 -0.12346,-0.0896 -0.29398,-0.14632 -0.33517,-0.27753 -0.0683,-0.12816 -0.1685,-0.17767 -0.35498,-0.22622 -0.0459,-0.012 -0.0958,-0.018 -0.13913,-0.0339 -0.0488,-0.018 -0.0896,-0.0445 -0.13436,-0.0668 -0.2298,-0.16705 -0.53367,-0.26584 -0.79448,-0.40893 -0.27639,-0.15969 -0.60598,-0.2613 -0.97723,-0.25731 -0.25486,-0.007 -0.48825,-0.0361 -0.72323,0.0459 -0.31434,0.0159 -0.59115,0.11842 -0.89624,0.16379 -2.01918,0.58309 3.46831,-2.07551 4.67548,-2.76035 0.0559,-0.0316 -0.10586,0.0675 -0.16156,0.0992 -1.75066,0.99577 -3.59325,1.9228 -5.25741,2.98305 -1.56767,0.9988 3.31168,-1.86556 4.9675,-2.79834 -1.74925,0.9863 -3.49499,1.97539 -5.24775,2.95889 -0.11196,0.0628 -0.24541,0.11263 -0.38861,0.13383 -0.10121,0.015 -0.0746,0.0109 -0.17684,-0.007 -2.08598,0.31338 6.51789,-3.70762 4.86991,-2.79545 -1.77215,0.98087 -3.51696,1.98367 -5.27561,2.97535 -4.03732,2.27655 17.14282,-9.66754 -0.73137,0.40404 -0.26966,0.14151 -0.53424,0.28418 -0.81122,0.41917 -0.0443,0.0216 -0.36696,0.18461 -0.43017,0.20672 -0.046,0.0161 -0.0997,0.0195 -0.14962,0.0292 -0.0939,0.004 -0.0923,-2.6e-4 -0.1808,0.0209 -0.0299,0.007 -0.11139,0.0388 -0.0873,0.025 1.63389,-0.93617 3.28013,-1.86265 4.92006,-2.79409 0.10788,-0.0613 -0.21744,0.12148 -0.32417,0.18375 -0.15096,0.0881 -0.29925,0.17818 -0.44889,0.26727 0,0 -5.11954,2.87761 -5.11954,2.87761 z"
       inkscape:connector-curvature="0" />
    <path
       style="fill:#000000;stroke-width:0.34144968"
       id="path349"
       d="m 174.39008,199.73084 c 0.11129,-0.0668 0.22545,-0.13195 0.33383,-0.20046 0.068,-0.0429 0.13158,-0.0882 0.19474,-0.13363 0.0297,-0.0214 0.0589,-0.0432 0.0834,-0.0668 0.004,-0.002 -0.0175,0.002 -0.0134,0 5.71336,-2.88021 7.2748,-3.95516 5.60714,-2.81079 -1.89106,0.9425 -3.78105,1.88578 -5.6732,2.82749 -0.0208,0.0104 0.0385,-0.023 0.0592,-0.0334 1.93469,-0.97384 3.86918,-1.94783 5.80709,-2.91937 0.0199,-0.01 0.0859,-0.0351 0.0661,-0.0251 -5.75583,2.90811 -7.36271,3.88523 -5.54104,2.78156 0.25558,-0.16215 -0.004,0.0155 0.18213,-0.15034 0.0175,-0.0156 0.0459,-0.0257 0.065,-0.0407 0.0361,-0.0286 0.0322,-0.0264 0.0305,-0.0506 1.92993,-0.95494 3.85983,-1.90988 5.78976,-2.86482 -15.04232,7.57022 0.0498,-0.0263 0.1314,-0.0709 1.81738,-0.99183 -3.76225,1.896 -5.64756,2.841 -0.0368,0.0184 0.0728,-0.038 0.10144,-0.061 0.0288,-0.0232 0.0463,-0.0507 0.0694,-0.0761 0.0248,-0.0152 0.0496,-0.0304 0.0744,-0.0456 1.93558,-0.97285 4.02586,-1.84445 5.80676,-2.91856 1.72999,-1.0434 -7.29593,3.91918 -5.65334,2.82604 1.68356,-1.12042 3.84806,-1.94173 5.77753,-2.90869 0.0376,-0.0189 0.0365,-0.007 0.041,0.005 -0.005,0.004 -0.0167,0.008 -0.015,0.0129 0.001,0.005 0.0275,0.007 0.0207,0.0104 -1.88268,0.95258 -3.77145,1.90082 -5.66509,2.84553 -0.0184,0.009 0.0225,-0.0254 0.0361,-0.0373 0.0638,-0.0561 0.0927,-0.0705 0.17467,-0.12408 0.0755,-0.0792 0.0453,-0.0656 0.14639,-0.11629 1.93427,-0.97201 3.86701,-1.94514 5.8056,-2.91406 0.0166,-0.008 0.0392,-0.009 0.057,-0.0161 0.0235,-0.009 0.0868,-0.042 0.0655,-0.0312 -1.891,0.95181 -3.78295,1.90294 -5.67442,2.8544 1.57181,-1.20729 3.9018,-1.97602 5.87062,-2.9511 0.0313,-0.0155 0.0758,-0.0184 0.11028,-0.0315 0.0458,-0.0174 0.0858,-0.0396 0.12873,-0.0595 -1.86072,0.9335 -3.71578,1.87109 -5.58217,2.80049 -0.0463,0.0231 0.0804,-0.0538 0.12062,-0.0808 0.0374,-0.0252 0.0686,-0.054 0.11154,-0.0756 1.93414,-0.97475 3.74607,-2.04647 5.81835,-2.91285 0.13391,-0.056 -15.39579,7.72874 0.10447,-0.044 0.0101,7.9e-4 0.0192,0.004 0.0279,0.002 0.0213,-0.006 0.0746,-0.0336 0.0568,-0.0246 -0.52421,0.2641 -7.41319,3.99321 -5.56396,2.77728 15.36362,-7.70058 0.16105,-0.0585 0.12479,-0.0403 -0.0309,0.0154 0.0468,-0.0392 0.0713,-0.0583 0.0749,-0.0588 0.14989,-0.11443 0.23664,-0.16685 0.0459,-0.0501 0.21978,-0.0919 0.25687,-0.14416 0.0578,-0.0813 -0.0597,0.003 0.0454,-0.0627 1.93532,-0.97272 3.86808,-1.94727 5.80595,-2.91816 0.0223,-0.0112 0.0505,-0.0174 0.0739,-0.0277 2.24049,-0.9829 -7.4924,4.02369 -5.292,2.62638 0.066,-0.0737 0.16521,-0.13527 0.23236,-0.20855 0.0236,-0.0257 0.0302,-0.0564 0.0546,-0.0819 0.0114,-0.0129 0.0343,-0.0215 0.0532,-0.031 1.92989,-0.96785 3.81974,-1.96535 5.79311,-2.90104 1.92784,-0.9141 -3.77097,1.89083 -5.65646,2.83625 15.56838,-7.82894 -0.0182,0.0145 0.11204,-0.072 1.6848,-1.1181 4.05855,-1.80427 5.77451,-2.90516 1.68123,-1.07861 -7.39616,3.89031 -5.66957,2.83784 2.94604,-1.79581 3.72096,-2.09654 5.87816,-2.94313 0.0411,-0.02 0.0823,-0.04 0.12328,-0.0599 -1.86093,0.92354 -3.70803,1.85724 -5.58282,2.77062 -0.0573,0.0279 0.0801,-0.0743 0.12251,-0.11043 0.10321,-0.0877 0.22539,-0.16157 0.32914,-0.24907 1.61095,-1.25234 4.3165,-2.23621 6.04364,-3.10511 0.009,-0.004 0.0371,-0.0154 0.0285,-0.0111 -1.88432,0.94962 -3.77043,1.89794 -5.65566,2.84691 0.20386,-0.0961 0.29686,-0.23855 0.45152,-0.35823 0.0961,-0.078 0.25307,-0.1228 0.35562,-0.19628 0.0619,-0.0444 0.10107,-0.1131 0.1404,-0.16596 1.5395,-1.31111 -0.17286,0.81975 5.87501,-2.9956 1.69449,-1.06899 -3.76834,1.89529 -5.66212,2.83598 -0.0308,0.0153 0.0512,-0.0372 0.0702,-0.0583 0.0199,-0.0223 0.0303,-0.0473 0.0454,-0.0709 0.022,-0.025 0.03,-0.0568 0.066,-0.0752 3.12018,-1.5889 12.19428,-6.10346 0.16488,-0.0752 -0.028,0.014 0.0443,-0.0351 0.0722,-0.0491 1.93191,-0.97215 3.81473,-1.98113 5.80622,-2.90893 1.94037,-0.90397 -3.76848,1.89162 -5.65272,2.83742 0.0666,-0.0164 0.0558,-0.0712 0.1046,-0.0958 4.81758,-2.42529 10.49632,-5.24034 0.10082,-0.0322 -0.009,0.004 0.004,-0.0146 0.0113,-0.0189 1.91558,-0.96424 3.83846,-1.92324 5.7577,-2.88485 -1.89026,0.9488 -3.78052,1.89761 -5.67076,2.84642 0.0245,-0.0203 0.0413,-0.0448 0.0733,-0.061 1.93347,-0.979 3.87577,-1.9517 5.81997,-2.92299 0.0386,-0.0193 0.0863,-0.031 0.12756,-0.0483 0.0443,-0.0185 0.17035,-0.0799 0.12892,-0.059 -1.86195,0.93761 -3.72712,1.87289 -5.59067,2.80934 0.0858,-0.0401 0.13641,-0.10185 0.21918,-0.14363 1.95326,-0.98551 3.91171,-1.96733 5.87396,-2.94637 0.0508,-0.0254 0.11103,-0.0432 0.16454,-0.0664 0.0477,-0.0208 0.18407,-0.0882 0.13891,-0.0655 -1.86519,0.93818 -3.73279,1.87463 -5.59916,2.81195 1.93664,-0.97018 3.82666,-1.97493 5.80992,-2.91053 1.93635,-0.91348 -3.77224,1.90125 -5.66912,2.84411 -0.025,0.0124 0.024,-0.0379 0.0488,-0.0505 1.9245,-0.97546 3.85738,-1.94499 5.79465,-2.91131 0.015,-0.008 0.0743,-0.0163 0.0588,-0.008 -1.89229,0.95501 -3.79615,1.90172 -5.69422,2.85258 1.91831,-0.96614 3.83409,-1.93408 5.75491,-2.89841 0.0693,-0.0348 0.0403,0.0261 0.024,0.0408 -0.0166,0.0146 -0.043,0.0237 -0.0643,0.0355 -0.065,0.0578 -0.0415,0.0307 -0.077,0.0794 0,0 -5.71146,2.87761 -5.71146,2.87761 v 0 c 0.0353,-0.0487 0.0114,-0.0215 0.077,-0.0794 0.0209,-0.0116 0.15821,-0.10715 0.0402,-0.0762 1.88934,-0.95227 3.77868,-1.90454 5.668,-2.85681 -1.90955,0.96754 -3.81334,1.93922 -5.72869,2.90264 -0.015,0.008 -0.0743,0.0163 -0.0588,0.008 1.8702,-0.95214 3.74504,-1.90106 5.62824,-2.84391 0.0249,-0.0124 -0.024,0.0379 -0.0488,0.0505 -1.91093,0.97532 -3.78162,1.98074 -5.75377,2.9111 -1.92525,0.90823 3.74197,-1.89645 5.61298,-2.84468 -1.94125,0.98108 -3.88124,1.96308 -5.82376,2.94326 -0.0956,0.0482 -0.3987,0.18044 -0.30347,0.13194 1.84492,-0.93965 3.6945,-1.87599 5.54895,-2.80885 0.0829,-0.0417 -0.3034,0.1891 -0.21919,0.14363 -1.94407,0.98196 -3.88653,1.96509 -5.83224,2.94588 -0.0413,0.0208 -0.0845,0.0405 -0.12891,0.059 -0.0413,0.0172 -0.16588,0.0678 -0.12757,0.0483 1.86313,-0.94729 3.72865,-1.89291 5.60296,-2.83222 0.0319,-0.0161 -0.0415,0.0448 -0.0733,0.061 -1.91092,0.97419 -3.83476,1.9392 -5.75215,2.9088 15.02544,-7.61285 0,0.0181 -0.0983,0.0495 -0.58962,0.1887 7.1712,-4.15768 5.54709,-2.77296 -1.9234,0.9726 -3.78346,1.99222 -5.77018,2.9178 -1.93558,0.90175 3.74097,-1.90001 5.61669,-2.84629 0.0277,-0.014 -0.0443,0.035 -0.0722,0.0491 -1.92234,0.97351 -3.77529,1.99941 -5.77737,2.91315 -1.91244,0.87282 6.89972,-4.20869 5.54646,-2.76274 -0.0291,0.0455 -0.0498,0.0956 -0.11558,0.1292 -1.9141,0.97743 -4.02845,1.82637 -5.76079,2.91923 -1.65562,1.04446 6.9705,-3.9213 5.5479,-2.75962 -0.0392,0.0529 -0.0785,0.12155 -0.1404,0.16596 -0.10258,0.0735 -0.25953,0.11825 -0.3556,0.19629 -0.15473,0.11968 -0.24768,0.26215 -0.45152,0.35822 -1.92243,0.96944 -3.84394,1.93952 -5.76726,2.90832 -1.87677,0.94534 3.74865,-1.89419 5.6262,-2.83897 0.0202,-0.0101 -0.0389,0.0213 -0.0564,0.033 -0.0381,0.0252 -0.0755,0.0509 -0.11053,0.0776 -0.038,0.0289 -0.0723,0.0596 -0.10839,0.0893 -0.25024,0.21104 0.0317,-0.0178 -0.2152,0.15872 -0.0405,0.0289 -0.0776,0.0595 -0.11394,0.0904 -0.0424,0.0361 -0.0667,0.0815 -0.12251,0.11043 -4.45986,2.31497 -3.8823,2.03331 -5.96342,3.04453 -2.02514,0.79476 7.24251,-3.847 5.54474,-2.81209 -1.76152,1.07376 -3.83556,1.94492 -5.75335,2.91738 1.88281,-0.95002 7.29841,-3.94507 5.64841,-2.85006 -0.12874,0.0854 -15.01508,7.5952 -0.11204,0.072 -1.92216,0.97298 -3.7934,1.98343 -5.76646,2.91896 -1.92754,0.91395 3.7521,-1.90355 5.62981,-2.85417 0.0188,-0.01 -0.041,0.0181 -0.0533,0.031 -0.0243,0.0255 -0.031,0.0561 -0.0546,0.0819 -0.0671,0.0733 -0.16638,0.13482 -0.23235,0.20855 -1.84732,1.17311 -3.25113,1.67435 -6.04856,3.08798 -0.0274,0.0138 -0.0536,0.0282 -0.0823,0.0409 -0.0235,0.0103 -0.0961,0.039 -0.0739,0.0277 1.86966,-0.94758 3.74466,-1.89136 5.61695,-2.83705 -0.1051,0.0657 0.0114,-0.0186 -0.0454,0.0627 -0.0371,0.0522 -0.21083,0.0941 -0.25685,0.14416 -0.0868,0.0524 -0.16172,0.10804 -0.23665,0.16685 -0.0245,0.0191 -0.0406,0.0427 -0.0713,0.0583 -0.036,0.0183 -15.15125,7.65134 -0.12478,0.0403 -1.87893,1.23545 5.35481,-2.67216 -5.85897,2.97793 -0.0178,0.009 -0.0355,0.019 -0.0568,0.0246 -0.009,0.002 -0.0186,-0.002 -0.0278,-0.002 14.96747,-7.5772 0.0286,-0.0116 -0.10447,0.044 -2.00683,0.83902 3.73103,-1.89871 5.60455,-2.84236 0.043,-0.0216 -0.0743,0.0505 -0.11154,0.0756 -0.04,0.027 -0.0746,0.0574 -0.12063,0.0808 -1.9416,0.98868 -3.89382,1.96982 -5.84072,2.95473 -0.0429,0.0198 -0.0829,0.0421 -0.12874,0.0595 -0.0343,0.0131 -0.14122,0.0474 -0.11027,0.0315 1.87222,-0.9604 3.75816,-1.91114 5.63724,-2.86671 -0.0285,0.0186 -0.0691,0.0391 -0.0849,0.0626 -0.0101,0.005 -15.23233,7.67452 -0.25359,0.10695 0.0619,-0.0313 -0.30498,0.15493 -0.1464,0.11629 -0.0354,0.0231 -0.0724,0.0454 -0.10611,0.0694 -0.04,0.0284 -0.0574,0.068 -0.1046,0.092 -1.91411,0.97358 -3.83287,1.94386 -5.75784,2.90969 -0.006,0.003 -0.0192,-0.005 -0.0204,-0.0104 -0.001,-0.005 0.0101,-0.009 0.015,-0.0129 -10e-4,-0.003 0.001,-0.01 -0.004,-0.0102 -0.0114,-0.002 -0.0468,0.0102 -0.0371,0.005 1.87811,-0.95146 7.29147,-3.942 5.64536,-2.84652 -1.68711,1.12278 -3.99267,1.85749 -5.76954,2.92917 -1.70104,1.02595 7.43445,-3.94209 5.54173,-2.79103 -0.0704,0.0772 -0.0573,0.0796 -0.17093,0.13712 -1.92247,0.97329 -3.91449,1.89866 -5.77534,2.91422 -1.8275,0.99736 3.78312,-1.90669 5.67527,-2.8596 0.019,-0.01 -0.0374,0.0197 -0.0558,0.0296 -1.91696,0.96695 -3.83391,1.93389 -5.75086,2.90084 1.87773,-0.96346 3.75115,-1.92996 5.63316,-2.8904 0.0228,-0.0116 -0.0113,0.0363 -0.0304,0.0506 -0.14256,0.11257 0.0177,-0.0546 -0.1319,0.11797 -0.0328,0.0271 -0.0768,0.0487 -0.1152,0.0731 -1.86723,1.13127 -0.14074,0.0888 -5.88184,2.97366 -0.0199,0.01 -0.0859,0.0351 -0.0661,0.0251 14.89202,-7.54239 -0.13207,0.0856 -0.193,0.12528 2.44743,-1.67947 7.89668,-4.17419 5.21765,-2.54352 0,0 -5.71146,2.87761 -5.71146,2.87761 z"
       inkscape:connector-curvature="0" />
    <path
       style="fill:#000000;stroke-width:0.30397603"
       id="path351"
       d="m 182.92559,180.73553 c 0.0642,-0.0216 0.63877,-0.21288 0.7276,-0.25057 0.0783,-0.0332 0.28898,-0.16083 0.2205,-0.11693 -1.45581,0.93333 -2.91827,1.86071 -4.38329,2.78574 -0.03,0.0189 0.0473,-0.0478 0.0772,-0.0668 1.53631,-0.98073 3.0802,-1.9546 4.6203,-2.9319 0.15401,-0.0831 0.29822,-0.17861 0.46165,-0.25161 0.0619,-0.0276 0.13028,-0.0458 0.19362,-0.0715 -0.049,0.0538 0.31534,-0.16272 0.24219,-0.11615 -1.47126,0.93663 -5.93129,3.70366 -4.42118,2.80322 1.57479,-0.93901 3.07409,-1.94852 4.61531,-2.91898 0.0242,-0.0152 0.0535,-0.025 0.0801,-0.0376 0.0267,-0.0168 0.0532,-0.0335 0.0799,-0.0503 -1.48091,0.93756 -2.95796,1.87863 -4.44272,2.81269 -0.0335,0.0211 0.0547,-0.052 0.088,-0.0732 1.53524,-0.97613 3.07374,-1.94933 4.61682,-2.91832 0.0264,-0.0166 0.11655,-0.0543 0.0903,-0.0375 -4.7289,3.00406 -5.8871,3.84054 -4.43729,2.79521 12.2481,-7.78146 0.15294,-0.0972 0.15331,-0.0974 1.66524,-0.84679 2.96878,-2.0588 4.62556,-2.91507 1.60565,-0.82986 -2.97545,1.89534 -4.47149,2.83545 -0.0231,0.0145 0.0326,-0.0382 0.0498,-0.0568 0.0215,-0.0234 0.0442,-0.0461 0.0663,-0.0692 1.45192,-1.17459 3.4146,-2.19886 4.90005,-3.12688 0.0252,-0.0158 0.0609,-0.0188 0.0888,-0.0316 0.0306,-0.014 0.0574,-0.0324 0.0862,-0.0486 1.69569,-0.67281 5.28844,-3.29042 -4.26596,2.74399 -0.0331,0.0209 0.0595,-0.0473 0.0887,-0.0714 0.11787,-0.1 0.0587,-0.0505 0.17733,-0.14838 0.0146,-0.0229 0.0256,-0.0475 0.0441,-0.0688 0.0119,-0.0129 0.0314,-0.0201 0.0439,-0.0323 1.24947,-1.20551 2.97249,-2.17715 4.72483,-2.98229 0.0202,-0.003 0.0764,-0.019 0.0607,-0.009 -0.53061,0.33984 -11.57967,7.33695 0.08,-0.0548 0.0822,-0.0521 0.17804,-0.0785 0.27145,-0.11767 1.72397,-1.06172 -5.77052,3.66956 -4.33642,2.74451 1.52565,-0.98412 3.07235,-1.94937 4.61306,-2.91993 0.0694,-0.0437 0.17623,-0.0933 0.25771,-0.12309 -1.49403,0.94602 -5.90756,3.84297 -4.48208,2.83807 1.45528,-1.02589 3.04659,-1.93511 4.57156,-2.90116 0.0213,-0.0134 0.088,-0.0506 0.0668,-0.0372 -10.77054,6.78504 -1.03106,0.62301 0.17629,-0.14328 2.03789,-0.56162 -5.93076,3.66713 -4.37799,2.8181 1.61336,-0.88217 3.21793,-1.80143 4.57899,-2.90097 1.33549,-1.07888 -3.00107,1.89246 -4.50175,2.83856 -0.0144,0.009 0.031,-0.0164 0.0428,-0.0274 0.0132,-0.0122 0.0202,-0.0275 0.0304,-0.0413 12.39214,-7.86117 -0.0754,0.0513 0.0909,-0.0679 1.44646,-1.03693 3.05231,-1.9383 4.58206,-2.90418 0.0409,-0.0258 0.17424,-0.0922 0.1335,-0.0663 -1.48844,0.94726 -2.97996,1.89172 -4.46993,2.83758 1.32307,-1.17483 3.01469,-1.92888 4.6778,-2.97132 0.0531,-0.0333 0.14062,-0.0651 0.20931,-0.0735 -1.50041,0.95029 -2.99549,1.90545 -4.50124,2.85089 -0.008,0.005 10e-4,-0.0161 -0.003,-0.0234 -0.004,-0.007 -0.036,-0.003 -0.0284,-0.008 1.49054,-0.94722 2.98412,-1.89168 4.47617,-2.83752 0,0 -4.5266,2.87761 -4.5266,2.87761 v 0 c 1.52568,-0.97257 3.04984,-1.94651 4.57703,-2.9177 0.0199,-0.0126 0.0445,0.0226 0.0302,0.0317 -1.51198,0.97289 -3.03463,1.93622 -4.55196,2.90432 -0.0818,0.01 -0.0331,-0.001 -0.11325,0.0334 -0.0318,0.0137 -0.12394,0.0581 -0.0961,0.0401 7.39393,-4.77145 5.66293,-3.92685 4.3754,-2.7839 -1.52776,0.97255 -3.05398,1.94647 -4.58328,2.91764 -0.0408,0.0259 -0.17414,0.0923 -0.13349,0.0663 1.48782,-0.95265 5.8861,-3.8654 4.47114,-2.85104 -0.16603,0.11902 -11.85016,7.55956 -0.0909,0.0679 -0.0395,0.0537 -0.0144,0.031 -0.0731,0.0686 -1.51715,0.97222 -3.19216,1.81855 -4.55145,2.91666 -1.33372,1.07745 6.05517,-3.7187 4.47421,-2.85425 -6.0256,3.29471 -2.67071,2.42047 -4.67522,2.93712 1.48321,-0.94446 2.96529,-1.88995 4.44964,-2.83338 0.0195,-0.0124 -0.0356,0.0277 -0.055,0.0402 -1.52259,0.97975 -3.04605,1.95872 -4.57091,2.93643 -0.0211,0.0135 -0.0879,0.0507 -0.0668,0.0372 1.4927,-0.95241 5.91034,-3.86123 4.48164,-2.85406 -1.45851,1.02818 -3.04743,1.94477 -4.57114,2.91715 -0.16026,0.0587 -0.0168,1.4e-4 -0.17293,0.0837 -0.0271,0.0145 -0.11009,0.0557 -0.0847,0.0394 8.98634,-5.76863 2.76246,-1.72982 -0.27665,0.17542 -0.0641,0.0269 -0.13375,0.0459 -0.19704,0.0739 -0.0272,0.012 -0.0985,0.0591 -0.0745,0.0438 1.49246,-0.95153 5.92619,-3.84389 4.47974,-2.85243 -4.16927,2.8578 -2.61349,2.62225 -4.62036,2.91611 -1.96212,0.90153 5.61017,-4.00963 4.32837,-2.77292 -0.0132,0.0122 -0.0327,0.0194 -0.044,0.0323 -0.0185,0.0213 -0.0294,0.0459 -0.0441,0.0688 -1.49017,1.22942 -3.11829,2.42986 -5.05328,3.23097 -0.0286,0.0162 -0.0554,0.0345 -0.0862,0.0486 -0.028,0.0128 -0.11378,0.0477 -0.0888,0.0316 7.9626,-5.15658 5.53131,-3.757 4.15314,-2.62834 -1.28094,1.33674 0.38975,0.41641 -4.69772,3.04577 -1.59752,0.82565 6.03332,-3.65665 4.42765,-2.84014 -0.001,7.9e-4 -12.04946,7.66466 -0.15332,0.0974 -1.48728,1.07235 -0.26385,0.19149 -4.6159,2.96002 -0.0263,0.0167 -0.11642,0.0544 -0.0903,0.0375 11.45182,-7.37621 0.13735,-0.0151 -0.26217,0.17882 -0.0267,0.0168 -0.0519,0.0349 -0.0799,0.0503 -0.0255,0.014 -0.10401,0.053 -0.0801,0.0376 1.47629,-0.94811 5.95869,-3.74306 4.43789,-2.83624 -1.32542,0.7903 -3.07711,2.25409 -4.87422,3.06814 -0.0632,0.0257 -0.13173,0.0439 -0.19361,0.0715 -0.16343,0.073 -0.30764,0.1685 -0.46165,0.2516 1.47764,-0.9411 2.95136,-1.88573 4.4329,-2.82331 0.03,-0.019 -0.0474,0.0477 -0.0772,0.0668 -1.55285,0.99323 -3.10845,1.98402 -4.66991,2.96949 -0.0689,0.0435 -0.14221,0.0837 -0.22049,0.11693 -0.0888,0.0377 -0.66353,0.22898 -0.72761,0.25056 0,0 4.52661,-2.87761 4.52661,-2.87761 z"
       inkscape:connector-curvature="0" />
    <path
       style="fill:#000000;stroke-width:0.32644886"
       id="path365"
       d="m 188.10132,191.75098 c -0.0291,0.18324 0.0227,0.36895 0,0.55239 -0.008,0.058 -0.0816,0.23241 -0.0984,0.29347 -0.0349,0.1265 -0.0246,0.15766 -0.0246,0.29345 0.04,0.32804 -0.0715,0.65306 -0.14143,0.97532 -0.0446,0.2055 -0.0759,0.41233 -0.11696,0.6182 -0.0676,0.64208 -0.26039,1.27182 -0.33644,1.9134 -0.0451,0.2386 -0.0474,0.31185 -0.13656,0.54357 -0.03,0.0782 -0.0781,0.15268 -0.10691,0.23111 -0.0926,0.25188 -0.13214,0.51814 -0.20313,0.77344 -0.0521,0.27272 -0.0891,0.54694 -0.13861,0.81974 -0.041,0.22539 -0.0907,0.43972 -0.10212,0.66729 0.0249,0.34547 0.0368,0.69049 0.0285,1.03635 -0.0185,0.0858 0.0133,0.17386 -0.003,0.25968 -0.0231,0.12315 -0.0585,0.1252 -0.0971,0.23621 -0.0333,0.096 -0.024,0.12751 -0.0239,0.22855 0.004,0.0464 0.0169,0.0929 0.0118,0.13932 -0.01,0.1068 -0.0897,0.20707 -0.10502,0.31413 -0.01,0.069 0.001,0.16353 0.006,0.23055 0.0298,0.33891 0.0148,0.67867 0.0118,1.01794 -0.0189,0.16628 0.0238,0.33652 0.001,0.50248 -0.0163,0.12004 -0.0751,0.23565 -0.098,0.35517 -0.0133,0.067 -0.0165,0.13461 -0.0248,0.20192 -0.003,0.32887 0.0359,0.65639 0.0276,0.9853 -0.0218,0.1115 0.0155,0.22824 -0.004,0.33955 -0.0204,0.11316 -0.075,0.22236 -0.097,0.33537 -0.0133,0.0658 -0.0162,0.1324 -0.0241,0.1986 0.0238,0.1786 -0.038,0.3526 -0.0742,0.52779 -0.008,0.0351 -0.024,0.0704 -0.0185,0.10571 0.008,0.0484 0.0745,0.12537 0.1077,0.16783 0.0118,0.009 0.0226,0.0188 0.0339,0.0282 0,0 -5.05193,2.97371 -5.05193,2.97371 v 0 c -0.0118,-0.009 -0.0225,-0.0188 -0.0339,-0.0282 -0.0331,-0.0425 -0.10022,-0.11947 -0.1077,-0.16784 -0.006,-0.0353 0.0118,-0.0706 0.0185,-0.1057 0.0363,-0.17519 0.098,-0.34919 0.0742,-0.52779 0.008,-0.0662 0.0118,-0.13276 0.0242,-0.1986 0.022,-0.11301 0.0764,-0.22221 0.0969,-0.33537 0.02,-0.11131 -0.0171,-0.22805 0.004,-0.33956 0.009,-0.32891 -0.0308,-0.65642 -0.0276,-0.9853 0.009,-0.0673 0.0117,-0.13496 0.0248,-0.20191 0.0229,-0.11952 0.0816,-0.23513 0.098,-0.35517 0.0227,-0.16595 -0.0199,-0.33621 -0.001,-0.50248 0.003,-0.33927 0.0185,-0.67903 -0.0118,-1.01795 -0.004,-0.0671 -0.0162,-0.1615 -0.006,-0.23054 0.0153,-0.10706 0.0944,-0.20733 0.10502,-0.31413 0.004,-0.0464 -0.009,-0.0929 -0.0118,-0.13933 -1.4e-4,-0.10107 -0.009,-0.13258 0.0239,-0.22854 0.0386,-0.11101 0.074,-0.11307 0.0971,-0.23621 0.0162,-0.0858 -0.0155,-0.17388 0.003,-0.25968 0.009,-0.34586 -0.003,-0.69088 -0.0284,-1.03636 0.0118,-0.22757 0.0611,-0.44191 0.10211,-0.66728 0.0496,-0.2728 0.0866,-0.54702 0.13876,-0.81974 0.0709,-0.2553 0.11049,-0.52155 0.20312,-0.77344 0.0289,-0.0784 0.0769,-0.15291 0.10692,-0.23112 0.089,-0.23171 0.0913,-0.30496 0.13655,-0.54356 0.076,-0.64158 0.26885,-1.27132 0.33644,-1.9134 0.0411,-0.20587 0.0723,-0.4127 0.11681,-0.6182 0.0699,-0.32226 0.18142,-0.64728 0.14157,-0.97532 0,-0.13579 -0.01,-0.16695 0.0246,-0.29345 0.0169,-0.0611 0.0912,-0.23547 0.0984,-0.29347 0.0227,-0.18344 -0.0291,-0.36915 0,-0.55239 0,0 5.05193,-2.97371 5.05193,-2.97371 z"
       inkscape:connector-curvature="0" />
    <path
       style="fill:#000000;stroke-width:0.32405534"
       id="path369"
       d="m 192.80329,175.12287 c 0,0.27674 0.009,0.67178 -0.025,0.95215 -0.0291,0.23782 -0.1082,0.47214 -0.13786,0.70993 -0.0372,0.2973 -0.0236,0.44582 -0.0188,0.74752 -0.0272,0.37318 -0.0736,0.74551 -0.0846,1.11919 -0.003,0.11239 0.006,0.22492 -10e-4,0.33722 -0.015,0.21584 -0.0561,0.43047 -0.0838,0.64573 -0.0336,0.30173 -0.19056,0.58729 -0.28504,0.88037 -0.0799,0.24781 -0.1194,0.50428 -0.14746,0.75659 -0.0709,0.21313 -0.0615,0.43208 -0.091,0.64755 -0.0268,0.19584 -0.084,0.39248 -0.14896,0.58391 -0.0159,0.0555 -0.0291,0.11144 -0.0474,0.16663 -0.0606,0.1819 -0.0805,0.16221 -0.10467,0.35416 -0.0451,0.35736 0.023,0.0448 0.003,0.41035 -0.003,0.0698 -0.0226,0.13894 -0.0341,0.20841 -0.0483,0.22746 -0.0689,0.45666 -0.0659,0.68625 8e-4,0.0773 0.0135,0.15463 0.009,0.23187 -0.001,0.0198 -0.0831,0.52491 -0.0844,0.53367 -0.061,0.4895 -3.9e-4,0.97994 0.001,1.46992 -0.003,0.13547 -0.008,0.27091 -0.008,0.4064 7e-5,0.0296 0.009,0.0598 7.9e-4,0.0889 -0.008,0.0262 -0.033,0.0486 -0.0496,0.0729 -0.13891,0.25814 -0.0581,0.54176 -0.0437,0.81017 0.0566,0.1113 -0.10865,0.17711 -0.13306,0.25361 -0.009,0.0273 0.008,0.0846 0.0135,0.10814 0.035,0.16 0.015,0.32226 0.012,0.48325 -0.0508,0.12311 -0.15447,0.0897 -0.0984,0.20419 -0.005,0.0703 0.0294,0.19853 -2.7e-4,0.26176 -0.003,0.008 -0.0915,0.0662 -0.10172,0.0731 -0.008,0.005 -0.0207,0.008 -0.0243,0.0144 -0.009,0.0181 0.0323,0.13293 0.032,0.16827 0.11896,1.49837 -5.21635,4.56258 -5.14982,3.00861 0.63127,-1.96248 3.02938,-3.04474 5.29351,-2.85476 0,0 -5.14437,2.8776 -5.14437,2.8776 v 0 c -2.37795,-0.19953 4.75691,-3.03879 4.99523,-2.90045 -0.0689,1.60671 -5.40083,4.47118 -5.1389,2.74661 1.6e-4,-0.0353 -0.0416,-0.15021 -0.0322,-0.16827 0.003,-0.007 0.0163,-0.01 0.0243,-0.0144 0.0102,-0.007 0.098,-0.0651 0.10171,-0.0731 0.0297,-0.0632 -0.003,-0.19145 2.6e-4,-0.26176 -0.0561,-0.11447 0.0475,-0.0811 0.0984,-0.20419 0.003,-0.161 0.0233,-0.32325 -0.0121,-0.48326 -0.005,-0.0235 -0.022,-0.0808 -0.0135,-0.10813 0.0243,-0.0765 0.18953,-0.14231 0.13306,-0.25362 -0.0135,-0.2684 -0.0951,-0.55202 0.0438,-0.81016 0.0165,-0.0243 0.0416,-0.0468 0.0493,-0.0729 0.009,-0.029 -3.9e-4,-0.0593 -8e-4,-0.0889 -3.5e-4,-0.13549 0.005,-0.27093 0.008,-0.4064 -0.001,-0.48998 -0.0624,-0.98043 -0.001,-1.46992 0.001,-0.009 0.0833,-0.51386 0.0844,-0.53367 0.005,-0.0772 -0.008,-0.15456 -0.009,-0.23187 -0.003,-0.2296 0.0177,-0.45879 0.0659,-0.68625 0.012,-0.0695 0.0303,-0.13857 0.0341,-0.20841 0.0195,-0.36551 -0.0486,-0.053 -0.003,-0.41036 0.0243,-0.19194 0.0441,-0.17226 0.10467,-0.35415 0.0183,-0.0552 0.0317,-0.11109 0.0474,-0.16663 0.065,-0.19143 0.12211,-0.38808 0.14896,-0.58391 0.0297,-0.21547 0.0201,-0.43442 0.091,-0.64755 0.0282,-0.25231 0.0676,-0.50879 0.14746,-0.75659 0.0945,-0.29309 0.25147,-0.57864 0.28503,-0.88037 0.0277,-0.21526 0.0694,-0.4299 0.0836,-0.64573 0.008,-0.1123 -0.001,-0.22483 0.001,-0.33722 0.0102,-0.37368 0.0575,-0.74601 0.0845,-1.11919 -0.005,-0.3017 -0.0184,-0.45022 0.0188,-0.74752 0.0297,-0.2378 0.10876,-0.47211 0.13786,-0.70994 0.0343,-0.28036 0.0251,-0.6754 0.0251,-0.95214 0,0 5.14436,-2.87761 5.14436,-2.87761 z"
       inkscape:connector-curvature="0" />
    <path
       style="fill:#000000;stroke-width:0.25882688"
       id="path375"
       d="m 184.81895,206.93844 c 0.71053,-0.22292 1.38345,-0.52559 2.06487,-0.80791 0.36774,-0.15236 1.01329,-0.40257 1.37079,-0.54245 1.12581,-0.44705 2.22968,-0.93715 3.26976,-1.52638 0,0 -3.56235,2.65099 -3.56235,2.65099 v 0 c -1.04008,0.58923 -2.14394,1.07934 -3.26975,1.52638 -0.3575,0.13988 -1.00304,0.39009 -1.37079,0.54246 -0.68142,0.2823 -1.35434,0.58498 -2.06488,0.8079 0,0 3.56235,-2.65099 3.56235,-2.65099 z"
       inkscape:connector-curvature="0" />
  </g>
</svg>
