<?xml version="1.0" encoding="UTF-8" standalone="no"?>
<!-- Created with Inkscape (http://www.inkscape.org/) -->

<svg
   xmlns:dc="http://purl.org/dc/elements/1.1/"
   xmlns:cc="http://creativecommons.org/ns#"
   xmlns:rdf="http://www.w3.org/1999/02/22-rdf-syntax-ns#"
   xmlns:svg="http://www.w3.org/2000/svg"
   xmlns="http://www.w3.org/2000/svg"
   xmlns:sodipodi="http://sodipodi.sourceforge.net/DTD/sodipodi-0.dtd"
   xmlns:inkscape="http://www.inkscape.org/namespaces/inkscape"
   width="28.647985mm"
   height="42.212872mm"
   viewBox="0 0 28.647985 42.212872"
   version="1.1"
   id="svg448"
   inkscape:version="0.92.3 (2405546, 2018-03-11)"
   sodipodi:docname="R07.svg">
  <defs
     id="defs442" />
  <sodipodi:namedview
     id="base"
     pagecolor="#ffffff"
     bordercolor="#666666"
     borderopacity="1.0"
     inkscape:pageopacity="0.0"
     inkscape:pageshadow="2"
     inkscape:zoom="2.8"
     inkscape:cx="40.686568"
     inkscape:cy="119.07898"
     inkscape:document-units="mm"
     inkscape:current-layer="layer1"
     showgrid="false"
     fit-margin-top="0"
     fit-margin-left="0"
     fit-margin-right="0"
     fit-margin-bottom="0"
     inkscape:window-width="1600"
     inkscape:window-height="845"
     inkscape:window-x="0"
     inkscape:window-y="27"
     inkscape:window-maximized="1" />
  <metadata
     id="metadata445">
    <rdf:RDF>
      <cc:Work
         rdf:about="">
        <dc:format>image/svg+xml</dc:format>
        <dc:type
           rdf:resource="http://purl.org/dc/dcmitype/StillImage" />
        <dc:title></dc:title>
      </cc:Work>
    </rdf:RDF>
  </metadata>
  <g
     inkscape:label="Layer 1"
     inkscape:groupmode="layer"
     id="layer1"
     transform="translate(-87.565075,-115.79226)">
    <path
       style="fill:#000000;stroke-width:0.26458332"
       id="path458"
       d="m 87.565075,123.87123 c 0.01357,-0.017 0.0283,-0.0329 0.0431,-0.0488 0.02175,-0.0236 0.0446,-0.0461 0.06732,-0.0687 0.02861,-0.0288 0.05829,-0.0566 0.08843,-0.0838 1.162142,-1.01936 2.354984,-2.00374 3.552605,-2.98128 0.04255,-0.0339 0.08482,-0.0682 0.127344,-0.10212 0.04487,-0.0369 0.09094,-0.0722 0.137364,-0.1071 0.05154,-0.0379 0.104148,-0.0743 0.15726,-0.11 0.05844,-0.0396 0.118036,-0.0774 0.178255,-0.11424 0.06447,-0.0399 0.130376,-0.0774 0.196556,-0.11442 0.07102,-0.0398 0.143521,-0.0768 0.216321,-0.11318 0.07786,-0.0385 0.156938,-0.0745 0.23645,-0.10949 0.08226,-0.036 0.165286,-0.0701 0.248658,-0.10345 0.08529,-0.0341 0.171302,-0.0662 0.257871,-0.0969 0.08674,-0.0305 0.174739,-0.0571 0.263195,-0.082 0.08712,-0.0245 0.175148,-0.0457 0.263493,-0.0653 0.08744,-0.0196 0.175993,-0.0332 0.265022,-0.043 0.08592,-0.009 0.172342,-0.008 0.258522,-0.005 0.08581,0.003 0.170188,0.0176 0.25304,0.0394 0.08614,0.0247 0.164271,0.0685 0.240162,0.11502 0.08017,0.0503 0.156247,0.10661 0.230232,0.1655 0.07993,0.064 0.151503,0.13726 0.220761,0.21243 0.07392,0.0815 0.140822,0.16893 0.206081,0.2574 0.06883,0.0932 0.131424,0.19077 0.191463,0.28982 0.06492,0.10683 0.121465,0.21834 0.175676,0.33088 0.0578,0.12184 0.111138,0.24571 0.161528,0.37078 0.05319,0.13422 0.100343,0.27071 0.146711,0.40741 0.04809,0.14209 0.09371,0.285 0.136702,0.42871 0.04494,0.15106 0.08471,0.30357 0.122635,0.45652 0.03983,0.16047 0.07451,0.32215 0.107333,0.48418 0.03615,0.1709 0.06212,0.34359 0.08528,0.51664 0.02522,0.18943 0.04204,0.37979 0.05781,0.57019 0.01688,0.20078 0.0304,0.4018 0.03936,0.60308 0.0085,0.21695 0.0075,0.43411 0.0062,0.65117 -0.0021,0.2201 -0.0056,0.44018 -0.0087,0.66026 -0.0033,0.21936 -0.0078,0.43869 -0.01553,0.65795 -0.0085,0.22699 -0.02141,0.45377 -0.03461,0.68053 -0.01326,0.22666 -0.02646,0.45333 -0.04053,0.67994 -0.01363,0.2242 -0.02855,0.44833 -0.0432,0.67247 -0.01484,0.2266 -0.0302,0.45318 -0.04555,0.67975 -0.01646,0.252 -0.03813,0.5036 -0.06119,0.75506 -0.02532,0.26529 -0.05115,0.53052 -0.07652,0.7958 -0.02524,0.26283 -0.0482,0.52587 -0.07104,0.78892 -0.02156,0.25949 -0.04266,0.51901 -0.06412,0.7785 -0.02127,0.25507 -0.04148,0.51023 -0.06254,0.76532 -0.02098,0.2508 -0.0418,0.50163 -0.06222,0.75248 -0.02021,0.2502 -0.04115,0.50035 -0.06157,0.75053 -0.02096,0.24978 -0.0419,0.49956 -0.06245,0.74938 -0.02074,0.24994 -0.04239,0.49981 -0.06404,0.74968 -0.02207,0.24955 -0.04437,0.49908 -0.0673,0.74856 -0.02275,0.2447 -0.04461,0.48949 -0.06733,0.73419 -0.02244,0.23858 -0.04476,0.47716 -0.06685,0.71577 -0.02196,0.23165 -0.04437,0.46326 -0.06654,0.69489 -0.02146,0.22582 -0.04398,0.45154 -0.06595,0.67732 -0.02135,0.22152 -0.04381,0.44292 -0.06598,0.66436 -0.02146,0.21363 -0.04261,0.42728 -0.06352,0.64096 -0.02027,0.20902 -0.04161,0.41794 -0.06251,0.62689 -0.02043,0.20373 -0.04043,0.4075 -0.06021,0.61129 -0.01937,0.19951 -0.03816,0.39906 -0.05687,0.59863 -0.01786,0.19603 -0.03689,0.39195 -0.05561,0.5879 -0.01849,0.19348 -0.03643,0.38701 -0.05428,0.58055 -0.01691,0.18811 -0.03454,0.37615 -0.05262,0.56416 -0.01746,0.18121 -0.03484,0.36244 -0.052,0.54369 -0.01662,0.17549 -0.03293,0.35101 -0.04917,0.52654 -0.01564,0.16899 -0.03106,0.33801 -0.04643,0.50702 -0.01458,0.1644 -0.02973,0.32874 -0.04517,0.49306 -0.01519,0.16224 -0.03003,0.3245 -0.04575,0.48669 -0.01545,0.15764 -0.03078,0.3153 -0.04607,0.47296 -0.01437,0.15218 -0.02947,0.30429 -0.04498,0.45635 -0.01498,0.14755 -0.02981,0.2951 -0.04558,0.44256 -0.01532,0.14247 -0.0307,0.28493 -0.0459,0.42741 -0.01537,0.13762 -0.03078,0.27523 -0.04692,0.41277 -0.01627,0.13546 -0.03189,0.27099 -0.04833,0.40644 -0.0159,0.13383 -0.03344,0.26746 -0.05175,0.40099 -0.01775,0.1301 -0.03593,0.26013 -0.05539,0.38998 -0.01865,0.13079 -0.04397,0.26037 -0.07273,0.38927 -0.03068,0.13268 -0.06642,0.26412 -0.102819,0.39533 -0.03567,0.12822 -0.07292,0.25598 -0.112985,0.38289 -0.0399,0.12634 -0.08583,0.25064 -0.133819,0.3741 -0.04971,0.12447 -0.102592,0.24765 -0.156017,0.37056 -0.05192,0.12035 -0.106732,0.2394 -0.163025,0.35776 -0.05568,0.11708 -0.114851,0.23243 -0.175527,0.34698 -0.0602,0.11296 -0.12205,0.22503 -0.185899,0.33597 -0.06418,0.11127 -0.131414,0.22072 -0.199816,0.32942 -0.06741,0.10665 -0.135726,0.21271 -0.204645,0.31838 -0.06765,0.10526 -0.139777,0.20751 -0.21413,0.30811 -0.0804,0.10729 -0.165785,0.21071 -0.25273,0.31273 -0.04508,0.0531 -0.09191,0.1046 -0.138938,0.15594 0,0 -3.429402,2.87761 -3.429402,2.87761 v 0 c 0.04703,-0.0513 0.09386,-0.10287 0.138941,-0.15594 0.08694,-0.10202 0.172323,-0.20544 0.25273,-0.31273 0.07435,-0.10061 0.146476,-0.20285 0.214127,-0.30811 0.06892,-0.10568 0.137239,-0.21174 0.204647,-0.31838 0.0684,-0.10871 0.135634,-0.21816 0.199816,-0.32942 0.06385,-0.11094 0.125701,-0.22301 0.185899,-0.33597 0.06068,-0.11455 0.119848,-0.22991 0.175527,-0.34698 0.05629,-0.11836 0.111101,-0.23741 0.163023,-0.35776 0.05342,-0.12291 0.10631,-0.24609 0.15602,-0.37056 0.04798,-0.12346 0.09392,-0.24776 0.133815,-0.3741 0.04007,-0.12691 0.07732,-0.25467 0.112985,-0.38289 0.0364,-0.13121 0.07214,-0.26265 0.102823,-0.39533 0.02876,-0.1289 0.05408,-0.25848 0.07273,-0.38927 0.01945,-0.12985 0.03764,-0.25989 0.05539,-0.38998 0.01834,-0.13353 0.03586,-0.26716 0.05176,-0.401 0.01643,-0.13544 0.03206,-0.27097 0.04833,-0.40643 0.01614,-0.13754 0.03156,-0.27515 0.04692,-0.41277 0.01519,-0.14249 0.03057,-0.28495 0.0459,-0.42741 0.01577,-0.14746 0.0306,-0.29502 0.04558,-0.44256 0.01551,-0.15206 0.03061,-0.30417 0.04498,-0.45635 0.01529,-0.15766 0.03063,-0.31532 0.04607,-0.47297 0.01572,-0.16218 0.03056,-0.32445 0.04575,-0.48668 0.01545,-0.16432 0.03059,-0.32866 0.04517,-0.49306 0.01537,-0.16902 0.0308,-0.33803 0.04643,-0.50702 0.01624,-0.17553 0.03255,-0.35105 0.04918,-0.52654 0.01717,-0.18125 0.03453,-0.36248 0.052,-0.54369 0.01807,-0.18801 0.03571,-0.37605 0.05262,-0.56416 0.01786,-0.19354 0.03579,-0.38707 0.05428,-0.58055 0.01873,-0.19595 0.03775,-0.39187 0.05561,-0.5879 0.01871,-0.19956 0.0375,-0.39912 0.05687,-0.59863 0.01979,-0.20379 0.03979,-0.40756 0.06021,-0.61129 0.0209,-0.20896 0.04223,-0.41787 0.06251,-0.62689 0.0209,-0.21368 0.04206,-0.42734 0.06352,-0.64096 0.02217,-0.22144 0.04463,-0.44285 0.06599,-0.66436 0.02196,-0.22578 0.04448,-0.4515 0.06595,-0.67732 0.02217,-0.23163 0.04459,-0.46324 0.06654,-0.69489 0.02209,-0.23861 0.04442,-0.4772 0.06685,-0.71577 0.02273,-0.24471 0.04459,-0.48949 0.06734,-0.73419 0.02294,-0.24948 0.04522,-0.49901 0.0673,-0.74855 0.02164,-0.24987 0.04328,-0.49975 0.06404,-0.74969 0.02056,-0.24982 0.04149,-0.4996 0.06245,-0.74938 0.02043,-0.25019 0.04135,-0.50033 0.06157,-0.75053 0.02043,-0.25085 0.04124,-0.50168 0.06222,-0.75249 0.02106,-0.25508 0.04128,-0.51024 0.06255,-0.76531 0.02146,-0.25949 0.04254,-0.51902 0.06411,-0.7785 0.02283,-0.26304 0.04579,-0.52609 0.07104,-0.78892 0.02535,-0.26528 0.05119,-0.53051 0.07651,-0.7958 0.02307,-0.25146 0.04473,-0.50307 0.06119,-0.75506 0.01535,-0.22658 0.0307,-0.45315 0.04555,-0.67975 0.01466,-0.22414 0.02958,-0.44827 0.0432,-0.67247 0.01408,-0.22662 0.02728,-0.45328 0.04053,-0.67994 0.0132,-0.22675 0.02611,-0.45355 0.03461,-0.68054 0.0077,-0.21925 0.01228,-0.43858 0.01553,-0.65794 0.0031,-0.22008 0.0065,-0.44016 0.0087,-0.66026 0.0013,-0.21706 0.0024,-0.43422 -0.0062,-0.65117 -0.009,-0.20128 -0.02246,-0.4023 -0.03936,-0.60309 -0.01577,-0.19039 -0.03259,-0.38075 -0.05781,-0.57018 -0.02318,-0.17305 -0.04914,-0.34574 -0.08528,-0.51664 -0.03283,-0.16204 -0.06751,-0.32371 -0.107334,-0.48419 -0.03793,-0.15294 -0.07769,-0.30545 -0.122637,-0.45651 -0.043,-0.14371 -0.08861,-0.28662 -0.136699,-0.42872 -0.04637,-0.13669 -0.09352,-0.27318 -0.146715,-0.4074 -0.05039,-0.12506 -0.103729,-0.24894 -0.161525,-0.37079 -0.05421,-0.11253 -0.110763,-0.22404 -0.175678,-0.33087 -0.06004,-0.0991 -0.122629,-0.19658 -0.191463,-0.28982 -0.06526,-0.0885 -0.132154,-0.17591 -0.206081,-0.25741 -0.06926,-0.0752 -0.14083,-0.14841 -0.220761,-0.21242 -0.07398,-0.0589 -0.150061,-0.11524 -0.230232,-0.1655 -0.07589,-0.0465 -0.154025,-0.0904 -0.240163,-0.11502 -0.08285,-0.0218 -0.167232,-0.0363 -0.253037,-0.0394 -0.08618,-0.004 -0.172603,-0.004 -0.258524,0.005 -0.08903,0.01 -0.177583,0.0233 -0.26502,0.043 -0.08834,0.0196 -0.176374,0.0407 -0.263493,0.0653 -0.08846,0.025 -0.176459,0.0516 -0.263197,0.082 -0.08657,0.0307 -0.172585,0.0628 -0.257868,0.0969 -0.08337,0.0333 -0.166405,0.0675 -0.248658,0.10346 -0.07952,0.035 -0.158586,0.071 -0.236453,0.10949 -0.0728,0.0364 -0.145296,0.0734 -0.216321,0.11317 -0.06618,0.037 -0.132082,0.0745 -0.196556,0.11443 -0.06022,0.0368 -0.119809,0.0747 -0.178252,0.11424 -0.05311,0.0357 -0.105725,0.0721 -0.157261,0.11 -0.04643,0.0349 -0.0925,0.0702 -0.137364,0.1071 -0.04252,0.034 -0.08479,0.0682 -0.127346,0.10212 -1.260266,1.02867 4.539001,-3.85189 3.306196,-2.77394 -0.03014,0.0272 -0.05982,0.055 -0.08843,0.0838 -0.02273,0.0226 -0.04556,0.0452 -0.06732,0.0687 -0.01479,0.0159 -0.02952,0.0319 -0.0431,0.0488 0,0 -3.429402,2.87761 -3.429402,2.87761 z"
       inkscape:connector-curvature="0" />
    <path
       style="fill:#000000;stroke-width:0.26458332"
       id="path458-6"
       d="m 92.081317,120.14317 c 0.01357,-0.017 0.0283,-0.0329 0.0431,-0.0488 0.02175,-0.0236 0.0446,-0.0461 0.06732,-0.0687 0.02861,-0.0288 0.05829,-0.0566 0.08843,-0.0838 1.162142,-1.01936 2.354984,-2.00374 3.552605,-2.98128 0.04255,-0.0339 0.08482,-0.0682 0.127344,-0.10212 0.04487,-0.0369 0.09094,-0.0722 0.137364,-0.1071 0.05154,-0.0379 0.104148,-0.0743 0.157259,-0.11 0.05844,-0.0396 0.118037,-0.0774 0.178256,-0.11424 0.06447,-0.0399 0.130376,-0.0774 0.196556,-0.11442 0.07102,-0.0398 0.143521,-0.0768 0.216321,-0.11318 0.07786,-0.0385 0.156938,-0.0745 0.236449,-0.10949 0.08226,-0.036 0.165286,-0.0701 0.248659,-0.10345 0.08529,-0.0341 0.171302,-0.0662 0.257871,-0.0969 0.08674,-0.0305 0.174739,-0.0571 0.263195,-0.082 0.08712,-0.0245 0.175148,-0.0457 0.263493,-0.0653 0.08744,-0.0196 0.175993,-0.0332 0.265022,-0.043 0.08592,-0.009 0.172342,-0.008 0.258522,-0.005 0.08581,0.003 0.170188,0.0176 0.25304,0.0394 0.08614,0.0247 0.164271,0.0685 0.240162,0.11502 0.08017,0.0503 0.156247,0.10661 0.230232,0.1655 0.07993,0.064 0.151503,0.13726 0.220761,0.21243 0.07392,0.0815 0.140822,0.16893 0.206081,0.2574 0.06883,0.0932 0.131424,0.19077 0.191463,0.28982 0.06492,0.10683 0.121468,0.21834 0.175678,0.33088 0.0578,0.12184 0.11114,0.24571 0.16153,0.37078 0.0532,0.13422 0.10034,0.27071 0.14671,0.40741 0.0481,0.14209 0.0937,0.285 0.1367,0.42871 0.0449,0.15106 0.0847,0.30357 0.12263,0.45652 0.0398,0.16047 0.0745,0.32215 0.10734,0.48418 0.0361,0.1709 0.0621,0.34359 0.0853,0.51664 0.0252,0.18943 0.042,0.37979 0.0578,0.57019 0.0169,0.20078 0.0304,0.4018 0.0394,0.60308 0.009,0.21695 0.008,0.43411 0.006,0.65117 -0.002,0.2201 -0.006,0.44018 -0.009,0.66026 -0.003,0.21936 -0.008,0.43869 -0.0155,0.65795 -0.008,0.22699 -0.0214,0.45377 -0.0346,0.68053 -0.0133,0.22666 -0.0265,0.45333 -0.0405,0.67994 -0.0136,0.2242 -0.0285,0.44833 -0.0432,0.67247 -0.0148,0.2266 -0.0302,0.45318 -0.0455,0.67975 -0.0165,0.252 -0.0381,0.5036 -0.0612,0.75506 -0.0253,0.26529 -0.0512,0.53052 -0.0765,0.7958 -0.0252,0.26283 -0.0482,0.52587 -0.071,0.78892 -0.0216,0.25949 -0.0427,0.51901 -0.0641,0.7785 -0.0213,0.25507 -0.0415,0.51023 -0.0625,0.76532 -0.021,0.2508 -0.0418,0.50163 -0.0622,0.75248 -0.0202,0.2502 -0.0412,0.50035 -0.0616,0.75053 -0.021,0.24978 -0.0419,0.49956 -0.0624,0.74938 -0.0207,0.24994 -0.0424,0.49981 -0.064,0.74968 -0.0221,0.24955 -0.0444,0.49908 -0.0673,0.74856 -0.0228,0.2447 -0.0446,0.48949 -0.0673,0.73419 -0.0224,0.23858 -0.0448,0.47716 -0.0669,0.71577 -0.022,0.23165 -0.0444,0.46326 -0.06654,0.69489 -0.02146,0.22582 -0.04398,0.45154 -0.06595,0.67732 -0.02135,0.22152 -0.04381,0.44292 -0.06598,0.66436 -0.02146,0.21363 -0.04261,0.42728 -0.06352,0.64096 -0.02027,0.20902 -0.04161,0.41794 -0.06251,0.62689 -0.02043,0.20373 -0.04043,0.4075 -0.06021,0.61129 -0.01937,0.19951 -0.03816,0.39906 -0.05687,0.59863 -0.01786,0.19603 -0.03689,0.39195 -0.05561,0.5879 -0.01849,0.19348 -0.03643,0.38701 -0.05428,0.58055 -0.01691,0.18811 -0.03454,0.37615 -0.05262,0.56416 -0.01746,0.18121 -0.03484,0.36244 -0.052,0.54369 -0.01662,0.17549 -0.03293,0.35101 -0.04917,0.52654 -0.01564,0.169 -0.03106,0.33801 -0.04643,0.50702 -0.01458,0.1644 -0.02973,0.32874 -0.04517,0.49306 -0.01519,0.16224 -0.03003,0.3245 -0.04575,0.48669 -0.01545,0.15765 -0.03078,0.31531 -0.04607,0.47297 -0.01437,0.15218 -0.02947,0.30428 -0.04498,0.45634 -0.01498,0.14755 -0.02981,0.2951 -0.04558,0.44256 -0.01532,0.14247 -0.0307,0.28493 -0.0459,0.42741 -0.01537,0.13763 -0.03078,0.27523 -0.04692,0.41278 -0.01627,0.13545 -0.03189,0.27098 -0.04833,0.40644 -0.0159,0.13382 -0.03344,0.26745 -0.05175,0.40098 -0.01775,0.13011 -0.03593,0.26014 -0.05539,0.38998 -0.01865,0.13079 -0.04397,0.26038 -0.07273,0.38928 -0.03068,0.13267 -0.06642,0.26412 -0.102819,0.39533 -0.03567,0.12822 -0.07292,0.25597 -0.112985,0.38288 -0.0399,0.12635 -0.08583,0.25064 -0.133819,0.3741 -0.04971,0.12447 -0.102592,0.24765 -0.156017,0.37056 -0.05192,0.12035 -0.106732,0.2394 -0.163025,0.35777 -0.05568,0.11707 -0.114851,0.23242 -0.175527,0.34698 -0.0602,0.11295 -0.12205,0.22503 -0.185899,0.33597 -0.06418,0.11126 -0.131414,0.22071 -0.199816,0.32942 -0.06741,0.10664 -0.135726,0.2127 -0.204645,0.31837 -0.06765,0.10527 -0.139777,0.20751 -0.21413,0.30811 -0.0804,0.1073 -0.165785,0.21072 -0.25273,0.31274 -0.04508,0.0531 -0.09191,0.10459 -0.138938,0.15594 0,0 -3.429402,2.8776 -3.429402,2.8776 v 0 c 0.04703,-0.0513 0.09386,-0.10287 0.138941,-0.15594 0.08694,-0.10202 0.172323,-0.20543 0.25273,-0.31273 0.07435,-0.10061 0.146476,-0.20285 0.214127,-0.30811 0.06892,-0.10568 0.137239,-0.21174 0.204647,-0.31838 0.0684,-0.10871 0.135634,-0.21816 0.199816,-0.32942 0.06385,-0.11094 0.125701,-0.22301 0.185899,-0.33597 0.06068,-0.11454 0.119848,-0.22991 0.175527,-0.34698 0.05629,-0.11835 0.111101,-0.2374 0.163023,-0.35776 0.05342,-0.1229 0.10631,-0.24608 0.15602,-0.37055 0.04798,-0.12346 0.09392,-0.24777 0.133815,-0.3741 0.04007,-0.12691 0.07732,-0.25468 0.112985,-0.3829 0.0364,-0.13121 0.07214,-0.26265 0.102823,-0.39533 0.02876,-0.1289 0.05408,-0.25848 0.07273,-0.38926 0.01945,-0.12986 0.03764,-0.25989 0.05539,-0.38998 0.01834,-0.13353 0.03586,-0.26716 0.05176,-0.401 0.01643,-0.13544 0.03206,-0.27097 0.04833,-0.40644 0.01614,-0.13753 0.03156,-0.27514 0.04692,-0.41276 0.01519,-0.1425 0.03057,-0.28496 0.0459,-0.42741 0.01577,-0.14747 0.0306,-0.29503 0.04558,-0.44257 0.01551,-0.15205 0.03061,-0.30417 0.04498,-0.45635 0.01529,-0.15766 0.03063,-0.31532 0.04607,-0.47297 0.01572,-0.16217 0.03056,-0.32445 0.04575,-0.48668 0.01545,-0.16431 0.03059,-0.32866 0.04517,-0.49305 0.01537,-0.16903 0.0308,-0.33804 0.04643,-0.50703 0.01624,-0.17553 0.03255,-0.35104 0.04918,-0.52653 0.01717,-0.18125 0.03453,-0.36249 0.052,-0.54369 0.01807,-0.18801 0.03571,-0.37606 0.05262,-0.56416 0.01786,-0.19354 0.03579,-0.38707 0.05428,-0.58056 0.01873,-0.19595 0.03775,-0.39187 0.05561,-0.5879 0.01871,-0.19956 0.0375,-0.39912 0.05687,-0.59863 0.01979,-0.20379 0.03979,-0.40756 0.06021,-0.61129 0.0209,-0.20896 0.04223,-0.41787 0.06251,-0.62689 0.0209,-0.21368 0.04206,-0.42734 0.06352,-0.64096 0.02217,-0.22144 0.04463,-0.44285 0.06599,-0.66436 0.02196,-0.22578 0.04448,-0.4515 0.06595,-0.67732 0.02217,-0.23163 0.04459,-0.46324 0.06654,-0.69489 0.02209,-0.23861 0.04442,-0.4772 0.06685,-0.71577 0.02273,-0.24471 0.04459,-0.48949 0.06734,-0.73419 0.02294,-0.24948 0.04522,-0.49901 0.0673,-0.74855 0.02164,-0.24987 0.04328,-0.49975 0.06404,-0.74969 0.02056,-0.24982 0.04149,-0.4996 0.06245,-0.74938 0.02043,-0.25019 0.04135,-0.50033 0.06157,-0.75053 0.02043,-0.25085 0.04124,-0.50168 0.06222,-0.75249 0.02106,-0.25508 0.04128,-0.51024 0.06255,-0.76531 0.02146,-0.25949 0.04254,-0.51902 0.06411,-0.7785 0.02283,-0.26304 0.04579,-0.52609 0.07104,-0.78892 0.02535,-0.26528 0.05119,-0.53051 0.07651,-0.7958 0.02307,-0.25146 0.04473,-0.50307 0.06119,-0.75506 0.01535,-0.22658 0.0307,-0.45315 0.04555,-0.67975 0.01466,-0.22414 0.02958,-0.44827 0.0432,-0.67247 0.01408,-0.22662 0.02728,-0.45328 0.04053,-0.67994 0.0132,-0.22675 0.02611,-0.45355 0.03461,-0.68054 0.0077,-0.21925 0.01228,-0.43858 0.01553,-0.65794 0.0031,-0.22008 0.0065,-0.44016 0.0087,-0.66026 0.0013,-0.21706 0.0024,-0.43422 -0.0062,-0.65117 -0.009,-0.20128 -0.02246,-0.4023 -0.03936,-0.60309 -0.01577,-0.19039 -0.03259,-0.38075 -0.05781,-0.57018 -0.02318,-0.17305 -0.04914,-0.34574 -0.08528,-0.51664 -0.03283,-0.16204 -0.06751,-0.32371 -0.107334,-0.48419 -0.03793,-0.15294 -0.07769,-0.30545 -0.122637,-0.45651 -0.043,-0.14371 -0.08861,-0.28662 -0.1367,-0.42872 -0.04637,-0.13669 -0.09352,-0.27318 -0.146715,-0.4074 -0.05039,-0.12506 -0.103729,-0.24894 -0.161525,-0.37079 -0.05421,-0.11253 -0.110763,-0.22404 -0.175678,-0.33087 -0.06004,-0.0991 -0.122629,-0.19658 -0.191463,-0.28982 -0.06526,-0.0885 -0.132154,-0.17591 -0.206081,-0.25741 -0.06926,-0.0752 -0.14083,-0.14841 -0.220761,-0.21242 -0.07398,-0.0589 -0.150061,-0.11524 -0.230232,-0.1655 -0.07589,-0.0465 -0.154025,-0.0904 -0.240163,-0.11502 -0.08285,-0.0218 -0.167232,-0.0363 -0.253037,-0.0394 -0.08618,-0.004 -0.172603,-0.004 -0.258524,0.005 -0.08903,0.01 -0.177583,0.0233 -0.26502,0.043 -0.08834,0.0196 -0.176374,0.0407 -0.263493,0.0653 -0.08846,0.025 -0.176459,0.0516 -0.263197,0.082 -0.08657,0.0307 -0.172585,0.0628 -0.257868,0.0969 -0.08337,0.0333 -0.166405,0.0675 -0.248658,0.10346 -0.07952,0.035 -0.158586,0.071 -0.236453,0.10949 -0.0728,0.0364 -0.145295,0.0734 -0.21632,0.11317 -0.06618,0.037 -0.132082,0.0745 -0.196556,0.11443 -0.06022,0.0368 -0.119809,0.0747 -0.178252,0.11424 -0.05311,0.0357 -0.105725,0.0721 -0.157261,0.11 -0.04643,0.0349 -0.0925,0.0702 -0.137364,0.1071 -0.04252,0.034 -0.08479,0.0682 -0.127346,0.10212 -1.260266,1.02867 4.539001,-3.85189 3.306196,-2.77394 -0.03014,0.0272 -0.05982,0.055 -0.08843,0.0838 -0.02273,0.0226 -0.04556,0.0452 -0.06732,0.0687 -0.01479,0.0159 -0.02952,0.0319 -0.0431,0.0488 0,0 -3.429403,2.87761 -3.429403,2.87761 z"
       inkscape:connector-curvature="0" />
    <path
       style="fill:#000000;stroke-width:0.26458332"
       id="path475"
       d="m 100.62019,116.68854 c 0.0282,-0.005 0.0566,-0.008 0.085,-0.0116 0.0352,-0.004 0.0704,-0.007 0.10565,-0.0104 0.0421,-0.004 0.0843,-0.007 0.12653,-0.008 0.047,-0.002 0.0941,-0.004 0.14118,-0.006 0.0518,-0.002 0.10356,-0.005 0.15532,-0.008 0.0561,-0.003 0.11221,-0.006 0.16837,-0.008 0.0586,-0.002 0.11725,-0.003 0.17589,-0.005 0.0609,-0.001 0.12181,-0.003 0.18269,-0.005 0.0655,-0.002 0.13097,-0.006 0.19643,-0.009 0.0666,-0.004 0.1333,-0.007 0.19995,-0.0108 0.0665,-0.003 0.13283,-0.008 0.19919,-0.0122 0.0665,-0.005 0.13293,-0.009 0.19942,-0.0132 0.0664,-0.004 0.13279,-0.008 0.19919,-0.0125 0.0641,-0.004 0.12826,-0.008 0.1924,-0.0118 0.0625,-0.004 0.12508,-0.008 0.18763,-0.0112 0.0623,-0.004 0.1247,-0.007 0.18706,-0.0106 0.0645,-0.004 0.12908,-0.009 0.19362,-0.0131 0.0689,-0.004 0.13777,-0.009 0.20663,-0.0143 0.074,-0.005 0.14806,-0.0107 0.22211,-0.0158 0.0733,-0.005 0.14668,-0.0101 0.22002,-0.015 0.0721,-0.005 0.14416,-0.01 0.21626,-0.0142 0.0742,-0.005 0.14839,-0.0104 0.22256,-0.0159 0.0748,-0.006 0.14972,-0.0109 0.22459,-0.0162 0.0741,-0.005 0.14827,-0.0104 0.22242,-0.0153 0.0768,-0.005 0.15362,-0.01 0.23045,-0.0145 0.0782,-0.005 0.15642,-0.009 0.23465,-0.0136 0.0794,-0.004 0.15875,-0.009 0.23813,-0.0129 0.0808,-0.004 0.16173,-0.007 0.24262,-0.01 0.0804,-0.003 0.16088,-0.005 0.24132,-0.008 0.0789,-0.003 0.15771,-0.005 0.23658,-0.007 0.0777,-0.003 0.15553,-0.003 0.2333,-0.005 0.0753,-0.001 0.15067,-0.002 0.22599,-0.003 0.0738,-0.001 0.14753,-0.002 0.2213,-0.003 0.0727,-5.3e-4 0.14541,-0.002 0.2181,-0.004 0.0715,-0.002 0.14301,-0.004 0.21451,-0.006 0.0717,-0.001 0.14347,-0.002 0.21521,-0.002 0.0724,-2.6e-4 0.1447,10e-4 0.21701,0.004 0.0715,0.002 0.14301,0.006 0.21447,0.0101 0.0703,0.004 0.14058,0.009 0.21084,0.0146 0.0693,0.006 0.13856,0.0117 0.20777,0.0184 0.0689,0.007 0.13768,0.0144 0.20642,0.0225 0.0684,0.009 0.13683,0.0178 0.2051,0.0278 0.0668,0.01 0.13355,0.0198 0.20034,0.0297 0.0658,0.0101 0.13145,0.0207 0.19702,0.0321 0.0653,0.0111 0.13056,0.023 0.19574,0.035 0.0655,0.0124 0.13075,0.0262 0.19596,0.04 0.0648,0.0135 0.1293,0.0286 0.19369,0.0441 0.0647,0.0151 0.12891,0.0323 0.19287,0.0503 0.0644,0.0185 0.128,0.0395 0.19135,0.0613 0.0635,0.022 0.12609,0.0464 0.18787,0.0728 0.0622,0.026 0.12271,0.0556 0.18293,0.0858 0.0607,0.03 0.12002,0.0626 0.17839,0.0969 0.0595,0.0351 0.11674,0.0736 0.17334,0.1131 0.0573,0.0405 0.11293,0.0831 0.16802,0.12645 0.0548,0.0425 0.10742,0.0877 0.15896,0.13409 0.0524,0.0472 0.10197,0.0974 0.15008,0.14898 0.0507,0.0546 0.0979,0.1123 0.14304,0.17157 0.0495,0.0662 0.0953,0.13503 0.13989,0.20458 0.0465,0.0732 0.0906,0.14786 0.13335,0.22326 0.0456,0.0816 0.0907,0.1635 0.13591,0.24532 0.0488,0.0879 0.0984,0.17547 0.14796,0.26299 0.0502,0.0884 0.099,0.17756 0.147,0.26711 0.0487,0.091 0.0944,0.18359 0.13916,0.27657 0.0462,0.0962 0.0883,0.19424 0.12858,0.29304 0.0415,0.10343 0.0798,0.20807 0.11709,0.31309 0.0391,0.10937 0.0746,0.21991 0.10889,0.33085 0.0358,0.11674 0.0664,0.23498 0.0943,0.35381 0.0293,0.1252 0.0543,0.25133 0.078,0.37769 0.0235,0.12869 0.0446,0.25779 0.0638,0.38718 0.0195,0.13013 0.035,0.26079 0.0502,0.39147 0.0143,0.12919 0.0274,0.25853 0.0404,0.38786 0.0127,0.12948 0.023,0.25919 0.032,0.38897 0.009,0.13347 0.0144,0.26714 0.019,0.40082 0.004,0.13751 0.006,0.27509 0.007,0.41267 1.4e-4,0.1395 -0.001,0.27899 -0.004,0.41846 -0.002,0.13974 -0.008,0.27938 -0.0146,0.41897 -0.007,0.14339 -0.0179,0.28652 -0.0297,0.42957 -0.0123,0.14683 -0.0263,0.29352 -0.0398,0.44024 -0.0138,0.14432 -0.0282,0.2886 -0.0431,0.4328 -0.0153,0.14354 -0.0315,0.28698 -0.0489,0.43028 -0.0173,0.14259 -0.0363,0.28498 -0.0557,0.42729 -0.019,0.14229 -0.0399,0.2843 -0.0616,0.4262 -0.0224,0.14554 -0.0473,0.2907 -0.0733,0.43565 -0.0265,0.14749 -0.0559,0.29444 -0.0853,0.44139 -0.0293,0.14486 -0.0593,0.28958 -0.0905,0.43405 -0.0303,0.14167 -0.063,0.28281 -0.0964,0.42379 -0.0323,0.13682 -0.0663,0.27327 -0.10076,0.40957 -0.0336,0.13227 -0.0692,0.26404 -0.1053,0.39564 -0.0349,0.12777 -0.0714,0.25509 -0.10894,0.3821 -0.0368,0.1243 -0.076,0.24785 -0.11715,0.37078 -0.04,0.12125 -0.0834,0.24131 -0.12847,0.36076 -0.0447,0.11974 -0.0951,0.23725 -0.1469,0.35407 -0.0521,0.11762 -0.10907,0.23299 -0.16789,0.34737 -0.0597,0.11555 -0.12445,0.22839 -0.19003,0.34069 -0.0658,0.11221 -0.13456,0.22257 -0.20513,0.3318 -0.0713,0.1101 -0.14551,0.21827 -0.22114,0.32541 -0.0772,0.10895 -0.15649,0.21644 -0.23622,0.32357 -0.0806,0.10795 -0.16295,0.21454 -0.24575,0.32079 -0.084,0.10711 -0.16899,0.21348 -0.25522,0.31883 -0.0872,0.10653 -0.17654,0.21125 -0.26613,0.31576 -0.0903,0.10551 -0.18288,0.20899 -0.27574,0.31223 -0.094,0.10448 -0.19023,0.20698 -0.28701,0.30892 -0.0967,0.10147 -0.19487,0.20148 -0.29296,0.30158 -0.0968,0.0984 -0.19444,0.1959 -0.29225,0.29326 -0.0982,0.0964 -0.19691,0.19214 -0.29603,0.28753 -0.0973,0.0939 -0.19436,0.18797 -0.29143,0.28207 -0.0961,0.0925 -0.19229,0.18496 -0.28891,0.27694 -0.0949,0.0911 -0.19102,0.18094 -0.28671,0.27123 -0.0941,0.0885 -0.1885,0.1767 -0.28279,0.26502 -0.0926,0.0872 -0.18584,0.17352 -0.27906,0.25995 -0.0933,0.0867 -0.18725,0.17267 -0.28148,0.25834 -0.0937,0.0853 -0.18756,0.17035 -0.28215,0.25462 -0.0925,0.0829 -0.1858,0.16489 -0.27916,0.24682 -0.0926,0.081 -0.18604,0.16122 -0.27952,0.24131 -0.0921,0.0788 -0.18447,0.15735 -0.27689,0.23582 -1.23138,1.04228 -2.46457,2.08255 -3.70755,3.11099 -0.0929,0.0771 -0.1859,0.15408 -0.27851,0.23153 -0.0906,0.0754 -0.18121,0.15083 -0.27184,0.22621 -0.0897,0.0753 -0.17958,0.15047 -0.26968,0.22535 -0.0914,0.0762 -0.18313,0.15199 -0.27452,0.2282 -1.20234,1.00237 -2.621054,2.19826 3.15742,-2.65033 -1.27952,0.97934 -2.45879,2.07998 -3.70158,3.10387 -0.0942,0.0771 -0.18884,0.15367 -0.28341,0.23033 -0.0965,0.0782 -0.193,0.15641 -0.28931,0.23485 -0.09385,0.0766 -0.188031,0.15276 -0.281757,0.22949 -0.09126,0.0747 -0.182208,0.14974 -0.273502,0.22437 -0.08861,0.0729 -0.177361,0.14557 -0.265692,0.21878 -0.08799,0.0728 -0.176297,0.14526 -0.264215,0.21817 -0.08892,0.0741 -0.178346,0.14763 -0.267833,0.22106 -0.08816,0.072 -0.175633,0.14487 -0.263117,0.21771 6.902786,-5.79412 2.039606,-1.70905 -0.254974,0.21365 -1.261422,1.05839 4.65037,-3.90691 3.18182,-2.66901 -1.22115,1.03048 -2.441045,2.06255 -3.672067,3.08121 -0.0797,0.0663 -0.159797,0.13211 -0.239776,0.19807 -0.07947,0.066 -0.159636,0.13115 -0.240606,0.1953 -0.08337,0.0656 -0.167701,0.12994 -0.252154,0.19413 -0.04254,0.0321 -0.08472,0.0646 -0.126933,0.0971 0,0 3.429406,-2.8776 3.429406,-2.8776 v 0 c 0.0422,-0.0325 0.0844,-0.065 0.12693,-0.0971 0.0845,-0.0642 0.16879,-0.12853 0.25215,-0.19413 0.081,-0.0642 0.16114,-0.1293 0.24061,-0.1953 0.08,-0.066 0.16007,-0.13178 0.23978,-0.19806 1.34758,-1.11512 -4.589501,3.85668 -3.186744,2.67399 1.223489,-1.03131 2.450624,-2.05829 3.676984,-3.0862 2.66782,-2.23544 -11.172505,9.37263 0.25497,-0.21365 0.0875,-0.0728 0.17496,-0.14569 0.26312,-0.21771 0.0895,-0.0734 0.17891,-0.14694 0.26784,-0.22106 0.0879,-0.0729 0.17622,-0.14535 0.26421,-0.21817 0.0883,-0.0732 0.17708,-0.14591 0.26569,-0.21877 0.0913,-0.0746 0.18225,-0.1497 0.2735,-0.22438 0.0937,-0.0767 0.18791,-0.1529 0.28176,-0.22949 0.0963,-0.0784 0.19283,-0.15662 0.28931,-0.23485 0.0946,-0.0767 0.18923,-0.1532 0.28341,-0.23033 1.2081,-0.99531 2.57837,-2.24874 -3.15722,2.65135 1.23353,-1.03508 2.46447,-2.07366 3.70138,-3.10489 0.0914,-0.0762 0.18312,-0.152 0.27452,-0.2282 0.0901,-0.0749 0.17994,-0.15004 0.26968,-0.22535 0.0906,-0.0754 0.18119,-0.15085 0.27184,-0.22621 0.0926,-0.0774 0.18558,-0.15447 0.27852,-0.23153 1.37818,-1.1403 -4.58892,3.85929 -3.15126,2.64422 0.0924,-0.0785 0.1848,-0.15696 0.27689,-0.23581 0.0935,-0.0801 0.18688,-0.16027 0.27953,-0.24132 0.0934,-0.0819 0.18667,-0.1639 0.27915,-0.24681 0.0946,-0.0843 0.18846,-0.16935 0.28215,-0.25462 0.0942,-0.0857 0.18819,-0.17165 0.28148,-0.25834 0.0932,-0.0864 0.18651,-0.1728 0.27906,-0.25995 0.0943,-0.0883 0.18864,-0.17656 0.28279,-0.26502 0.0957,-0.0903 0.19178,-0.18015 0.28671,-0.27123 0.0966,-0.092 0.1928,-0.18443 0.28891,-0.27694 0.0971,-0.0941 0.19413,-0.18821 0.29143,-0.28208 0.0991,-0.0954 0.19786,-0.19117 0.29603,-0.28752 0.0978,-0.0974 0.19544,-0.19491 0.29225,-0.29326 0.0981,-0.1001 0.19628,-0.20011 0.29296,-0.30158 0.0968,-0.10194 0.19297,-0.20444 0.28701,-0.30892 0.0929,-0.10324 0.18546,-0.20672 0.27574,-0.31223 0.0896,-0.10451 0.17894,-0.20923 0.26613,-0.31576 0.0862,-0.10535 0.17119,-0.21172 0.25521,-0.31883 0.0828,-0.10625 0.16518,-0.21284 0.24576,-0.32079 0.0797,-0.10713 0.15898,-0.21462 0.23621,-0.32357 0.0756,-0.10715 0.14987,-0.2153 0.22115,-0.32541 0.0706,-0.10923 0.13938,-0.21959 0.20513,-0.3318 0.0656,-0.1123 0.1303,-0.22514 0.19002,-0.34069 0.0588,-0.11438 0.11579,-0.22975 0.1679,-0.34738 0.0518,-0.11681 0.10216,-0.23432 0.1469,-0.35406 0.0451,-0.11945 0.0885,-0.23952 0.12847,-0.36076 0.0411,-0.12293 0.0803,-0.24648 0.11715,-0.37078 0.0375,-0.12701 0.074,-0.25433 0.10894,-0.3821 0.0361,-0.1316 0.0717,-0.26337 0.1053,-0.39564 0.0345,-0.1363 0.0684,-0.27275 0.10076,-0.40958 0.0333,-0.14098 0.0661,-0.28211 0.0964,-0.42378 0.0312,-0.14447 0.0612,-0.28919 0.0905,-0.43405 0.0294,-0.14694 0.0587,-0.2939 0.0853,-0.4414 0.026,-0.14494 0.0508,-0.2901 0.0733,-0.43564 0.0216,-0.1419 0.0426,-0.28391 0.0616,-0.4262 0.0194,-0.14232 0.0384,-0.2847 0.0557,-0.42729 0.0174,-0.1433 0.0336,-0.28674 0.0489,-0.43028 0.015,-0.14421 0.0293,-0.28848 0.0431,-0.4328 0.0135,-0.14672 0.0275,-0.29341 0.0398,-0.44024 0.0118,-0.14305 0.0229,-0.28618 0.0297,-0.42957 0.007,-0.13959 0.0121,-0.27923 0.0146,-0.41897 0.003,-0.13947 0.004,-0.27896 0.004,-0.41847 -5.3e-4,-0.13757 -0.002,-0.27515 -0.007,-0.41266 -0.005,-0.13368 -0.01,-0.26735 -0.0189,-0.40082 -0.009,-0.12978 -0.0193,-0.25949 -0.032,-0.38897 -0.013,-0.12934 -0.026,-0.25867 -0.0404,-0.38786 -0.0152,-0.13069 -0.0307,-0.26135 -0.0502,-0.39148 -0.0193,-0.12938 -0.0403,-0.25848 -0.0638,-0.38717 -0.0237,-0.12637 -0.0487,-0.25249 -0.078,-0.37769 -0.028,-0.11883 -0.0585,-0.23707 -0.0943,-0.35381 -0.0343,-0.11094 -0.0698,-0.22148 -0.1089,-0.33086 -0.0372,-0.10501 -0.0756,-0.20965 -0.11709,-0.31308 -0.0402,-0.0988 -0.0823,-0.19688 -0.12857,-0.29304 -0.0448,-0.093 -0.0905,-0.18553 -0.13917,-0.27657 -0.048,-0.0896 -0.0968,-0.17872 -0.14699,-0.26711 -0.0496,-0.0875 -0.0991,-0.17506 -0.14797,-0.263 -0.0452,-0.0818 -0.0903,-0.1637 -0.13591,-0.24531 -0.0428,-0.0754 -0.0868,-0.15008 -0.13334,-0.22326 -0.0446,-0.0696 -0.0904,-0.13837 -0.13989,-0.20458 -0.0451,-0.0593 -0.0923,-0.11697 -0.14304,-0.17157 -0.0481,-0.0516 -0.0977,-0.10173 -0.15009,-0.14898 -0.0515,-0.0464 -0.10417,-0.0915 -0.15896,-0.1341 -0.0551,-0.0433 -0.11075,-0.086 -0.16801,-0.12645 -0.0566,-0.0395 -0.11389,-0.078 -0.17335,-0.11309 -0.0584,-0.0343 -0.11769,-0.0669 -0.17839,-0.0969 -0.0602,-0.0302 -0.12074,-0.0598 -0.18293,-0.0858 -0.0618,-0.0264 -0.12436,-0.0508 -0.18786,-0.0728 -0.0633,-0.0217 -0.12697,-0.0427 -0.19135,-0.0613 -0.064,-0.018 -0.12814,-0.0353 -0.19287,-0.0503 -0.0644,-0.0155 -0.12888,-0.0305 -0.19369,-0.0441 -0.0652,-0.0138 -0.13045,-0.0276 -0.19596,-0.04 -0.0652,-0.0121 -0.13039,-0.0239 -0.19575,-0.035 -0.0656,-0.0113 -0.13125,-0.022 -0.19702,-0.0321 -0.0668,-0.01 -0.13355,-0.0198 -0.20033,-0.0297 -0.0683,-0.01 -0.13665,-0.0192 -0.20511,-0.0278 -0.0687,-0.008 -0.13751,-0.0159 -0.20642,-0.0225 -0.0692,-0.007 -0.13848,-0.0126 -0.20777,-0.0184 -0.0703,-0.005 -0.14049,-0.0107 -0.21084,-0.0145 -0.0714,-0.004 -0.14293,-0.008 -0.21446,-0.0101 -0.0723,-0.003 -0.14465,-0.004 -0.21701,-0.004 -0.0717,8e-5 -0.14348,0.001 -0.21521,0.002 -0.0715,0.002 -0.14301,0.004 -0.21451,0.006 -0.0727,0.002 -0.14539,0.004 -0.21811,0.004 -0.0738,0.001 -0.14752,0.002 -0.22129,0.003 -0.0753,0.001 -0.15066,0.002 -0.22599,0.003 -0.0778,10e-4 -0.15556,0.002 -0.23331,0.005 -0.0789,0.002 -0.15772,0.005 -0.23657,0.007 -0.0804,0.003 -0.16088,0.005 -0.24132,0.008 -0.0809,0.003 -0.1618,0.005 -0.24263,0.01 -0.0794,0.004 -0.15876,0.008 -0.23812,0.0129 -0.0782,0.004 -0.15645,0.009 -0.23465,0.0136 -0.0768,0.005 -0.15365,0.009 -0.23045,0.0145 -0.0742,0.005 -0.1483,0.01 -0.22243,0.0153 -0.0749,0.005 -0.14974,0.0106 -0.22459,0.0162 -0.0742,0.005 -0.14832,0.0114 -0.22255,0.0159 -0.0721,0.005 -0.14419,0.009 -0.21626,0.0142 -0.0733,0.005 -0.14668,0.01 -0.22002,0.015 -0.074,0.005 -0.14809,0.0103 -0.22212,0.0158 -0.0688,0.005 -0.13771,0.01 -0.20663,0.0143 -0.0645,0.004 -0.129057,0.009 -0.19361,0.0131 -0.06236,0.003 -0.124717,0.007 -0.187066,0.0106 -0.06255,0.004 -0.12509,0.007 -0.187629,0.0112 -0.06413,0.004 -0.128268,0.008 -0.192397,0.0119 -0.0664,0.004 -0.132803,0.008 -0.199197,0.0125 -0.06648,0.004 -0.132953,0.009 -0.199409,0.0132 -0.06637,0.005 -0.132733,0.009 -0.199191,0.0121 -0.06666,0.004 -0.133305,0.007 -0.199954,0.0108 -0.06546,0.004 -0.130908,0.007 -0.196429,0.009 -0.06089,0.002 -0.121788,0.004 -0.182697,0.005 -0.05863,0.001 -0.117261,0.003 -0.175882,0.005 -0.05616,0.002 -0.112268,0.005 -0.168368,0.008 -0.05177,0.003 -0.103513,0.006 -0.155321,0.008 -0.04707,0.002 -0.09413,0.004 -0.141187,0.006 -0.04223,0.002 -0.08443,0.004 -0.126524,0.008 -0.03525,0.003 -0.07049,0.006 -0.105658,0.0104 -0.02842,0.003 -0.05683,0.007 -0.08503,0.0116 0,0 3.429399,-2.87761 3.429399,-2.87761 z"
       inkscape:connector-curvature="0" />
    <path
       style="fill:#000000;stroke-width:0.26458332"
       id="path477"
       d="m 106.15027,137.15295 c 0,0.0222 0,0.0444 0,0.0667 0,0.0322 0,0.0643 0,0.0965 0,0.0378 0,0.0756 0,0.11345 0,0.0413 0,0.0826 0,0.12384 0,0.0455 0,0.0911 0,0.13658 0,0.0505 0,0.10099 0,0.15148 2.6e-4,0.0585 -2.7e-4,0.11698 -0.001,0.17546 -7.9e-4,0.065 -0.003,0.13003 -0.005,0.19503 -0.002,0.0698 -0.006,0.13957 -0.01,0.2093 -0.004,0.074 -0.009,0.14791 -0.0145,0.2218 -0.006,0.0771 -0.0113,0.15415 -0.0167,0.23125 -0.005,0.08 -0.0121,0.15995 -0.0185,0.23991 -0.006,0.081 -0.013,0.16194 -0.0183,0.243 -0.005,0.0834 -0.01,0.16683 -0.0142,0.25026 -0.005,0.0844 -0.0108,0.16879 -0.0162,0.25318 -0.006,0.0856 -0.0108,0.17113 -0.016,0.25671 -0.005,0.0877 -0.0102,0.17548 -0.0151,0.26323 -0.005,0.0902 -0.01,0.18034 -0.0142,0.27052 -0.005,0.0927 -0.009,0.18543 -0.0134,0.27816 -0.004,0.0936 -0.007,0.1872 -0.01,0.28081 -0.003,0.0968 -0.006,0.19362 -0.008,0.29044 -0.003,0.10042 -0.006,0.20083 -0.008,0.30126 -0.002,0.10227 -0.003,0.20454 -0.004,0.30681 -0.001,0.10505 -0.004,0.21008 -0.006,0.31511 -0.002,0.10938 -0.005,0.21873 -0.009,0.32807 -0.004,0.11374 -0.007,0.22749 -0.0101,0.34124 -0.003,0.11609 -0.007,0.23218 -0.01,0.34828 -0.003,0.117 -0.006,0.234 -0.009,0.35101 -0.003,0.11689 -0.006,0.23379 -0.009,0.35069 -0.002,0.11879 -0.006,0.23755 -0.01,0.3563 -0.004,0.11786 -0.008,0.23572 -0.0112,0.35358 -0.004,0.1171 -0.006,0.23424 -0.008,0.35138 -0.002,0.11985 -0.004,0.2397 -0.006,0.35955 -0.002,0.11954 -0.004,0.23906 -0.006,0.3586 -10e-4,0.11768 -0.002,0.23536 -0.002,0.35305 2.6e-4,0.11973 5.3e-4,0.23945 0.002,0.35918 0.002,0.12034 0.003,0.24069 0.005,0.36103 10e-4,0.11737 0.004,0.2347 0.007,0.35204 0.003,0.11468 0.008,0.2293 0.0129,0.34391 0.004,0.11237 0.0116,0.2246 0.0198,0.33675 0.008,0.11301 0.0221,0.22545 0.0368,0.33776 0.0152,0.11172 0.032,0.22323 0.0499,0.33455 0.0172,0.10811 0.0373,0.21573 0.0583,0.32316 0.0208,0.10459 0.0443,0.20857 0.0698,0.3121 0.0252,0.10118 0.0536,0.20153 0.0845,0.30109 0.0303,0.0991 0.069,0.19522 0.11008,0.29023 0.0417,0.0948 0.0895,0.18679 0.13831,0.2781 0.0478,0.0894 0.10007,0.17633 0.15308,0.26274 0.0515,0.0844 0.10805,0.16545 0.16627,0.24525 0.0564,0.0772 0.11741,0.151 0.18026,0.22308 0.0608,0.0698 0.12574,0.13565 0.19339,0.19873 0.0654,0.061 0.13736,0.11412 0.21027,0.16563 0.071,0.0496 0.14481,0.0949 0.21944,0.13867 0.0724,0.0418 0.14651,0.0804 0.22113,0.11801 0.0726,0.0365 0.14674,0.0697 0.22152,0.10136 0.0724,0.0308 0.14578,0.0589 0.21929,0.0868 0.0721,0.0272 0.14512,0.0517 0.2187,0.0745 0.0728,0.0221 0.14646,0.0414 0.22063,0.0585 0.0736,0.0174 0.14828,0.0297 0.22309,0.0406 0.0757,0.0106 0.15193,0.0165 0.2282,0.0208 0.077,0.004 0.15411,0.005 0.2312,0.004 0.0772,-7.9e-4 0.15423,-0.005 0.23126,-0.009 0.0773,-0.004 0.15432,-0.0112 0.23132,-0.0187 0.0777,-0.008 0.15511,-0.018 0.23233,-0.0296 0.0779,-0.012 0.15527,-0.0275 0.23259,-0.0429 0.0771,-0.0154 0.15376,-0.0328 0.23027,-0.0508 0.0763,-0.0181 0.15175,-0.0392 0.22723,-0.0603 0.0747,-0.0211 0.14902,-0.0435 0.22289,-0.0674 0.0749,-0.0244 0.14852,-0.0523 0.22208,-0.0803 0.0737,-0.0282 0.14663,-0.0585 0.21924,-0.0894 0.0729,-0.031 0.1452,-0.0634 0.21714,-0.0966 0.072,-0.0329 0.14317,-0.0675 0.21416,-0.10242 0.0719,-0.0357 0.14285,-0.0734 0.21345,-0.11159 0.0702,-0.0376 0.13975,-0.0763 0.20875,-0.11602 0.0684,-0.0393 0.13678,-0.0788 0.20484,-0.11877 0.0683,-0.0404 0.13546,-0.0826 0.20235,-0.12527 0.0668,-0.0424 0.13306,-0.0857 0.19845,-0.13024 0.0668,-0.0457 0.13228,-0.0933 0.19761,-0.14112 0.0654,-0.0478 0.12937,-0.0974 0.19304,-0.14742 0.0632,-0.0502 0.12541,-0.10167 0.18764,-0.15308 1.23326,-1.03742 -4.61586,3.90708 -3.24641,2.72165 0.0594,-0.0519 0.11819,-0.10448 0.1767,-0.15738 0.058,-0.0524 0.11507,-0.10588 0.172,-0.15948 0.0565,-0.0535 0.1125,-0.10766 0.16823,-0.16203 0.0564,-0.0549 0.11092,-0.11181 0.1648,-0.16925 0.0545,-0.0588 0.10843,-0.11813 0.16197,-0.1778 0.0534,-0.0592 0.10572,-0.11941 0.15694,-0.18052 0.0511,-0.0615 0.10207,-0.12311 0.15252,-0.18514 0.0502,-0.0617 0.0981,-0.12518 0.14602,-0.18859 0.0479,-0.0636 0.0945,-0.12818 0.14068,-0.19305 0.0455,-0.0643 0.0895,-0.12954 0.13297,-0.19517 0.0428,-0.0641 0.0838,-0.12936 0.12422,-0.19502 0.0401,-0.0636 0.0768,-0.12922 0.11305,-0.19507 0.0357,-0.065 0.0689,-0.13132 0.10237,-0.19748 0.0326,-0.0646 0.0642,-0.12967 0.0954,-0.19494 0.0306,-0.0645 0.0583,-0.1303 0.0856,-0.19624 0.0266,-0.064 0.0514,-0.12866 0.0751,-0.19376 0.0233,-0.0645 0.0445,-0.12965 0.0652,-0.19503 0.0196,-0.0633 0.0396,-0.12652 0.0586,-0.19003 0.0185,-0.0615 0.034,-0.1238 0.0479,-0.18646 0.0136,-0.061 0.025,-0.12243 0.0364,-0.18385 0.0114,-0.0593 0.0209,-0.11887 0.0303,-0.17847 0.009,-0.0583 0.0167,-0.11683 0.0243,-0.17534 0.007,-0.0566 0.0147,-0.11311 0.0209,-0.16981 0.006,-0.055 0.0109,-0.11023 0.0142,-0.16552 0.003,-0.0547 0.005,-0.1094 0.006,-0.16414 10e-4,-0.0547 5.3e-4,-0.10935 -0.002,-0.16398 -0.003,-0.056 -0.008,-0.11181 -0.0124,-0.16765 -0.004,-0.0544 -0.0103,-0.10863 -0.0159,-0.1629 -0.005,-0.0531 -0.0122,-0.10598 -0.0188,-0.15892 -0.007,-0.0516 -0.0144,-0.10328 -0.0224,-0.1548 -0.008,-0.0517 -0.0169,-0.10315 -0.0262,-0.15458 -0.009,-0.0511 -0.0181,-0.10221 -0.0281,-0.15314 -0.01,-0.049 -0.0197,-0.0979 -0.0294,-0.14691 -0.0101,-0.0481 -0.0206,-0.096 -0.0311,-0.14404 -0.0106,-0.0469 -0.0219,-0.0937 -0.033,-0.14045 -0.0106,-0.0444 -0.0212,-0.0888 -0.0318,-0.13324 -0.0103,-0.0417 -0.0203,-0.0835 -0.0276,-0.12582 -7.9e-4,-0.007 -0.002,-0.0135 -0.003,-0.0203 0,0 3.4294,-2.87761 3.4294,-2.87761 v 0 c 7.9e-4,0.007 0.002,0.0135 0.003,0.0203 0.007,0.0423 0.0173,0.0841 0.0276,0.12581 0.0106,0.0444 0.0212,0.0888 0.0318,0.13324 0.0112,0.0468 0.0224,0.0935 0.0331,0.14045 0.0105,0.048 0.0209,0.096 0.0311,0.14404 0.01,0.049 0.0197,0.0979 0.0294,0.14691 0.01,0.0509 0.0189,0.10206 0.0281,0.15314 0.009,0.0514 0.0183,0.10291 0.0262,0.15458 0.008,0.0515 0.0153,0.10315 0.0224,0.15481 0.007,0.0529 0.0134,0.10584 0.0188,0.15892 0.006,0.0543 0.0115,0.10851 0.0159,0.16289 0.005,0.0558 0.01,0.11168 0.0124,0.16765 0.002,0.0546 0.003,0.1093 0.002,0.16398 -10e-4,0.0547 -0.003,0.10948 -0.006,0.16414 -0.003,0.0553 -0.008,0.11049 -0.0142,0.16552 -0.006,0.0567 -0.0135,0.11326 -0.0209,0.16981 -0.008,0.0585 -0.015,0.11706 -0.0243,0.17534 -0.009,0.0596 -0.0189,0.11921 -0.0303,0.17847 -0.0115,0.0614 -0.0228,0.12286 -0.0364,0.18386 -0.0139,0.0626 -0.0294,0.12497 -0.0479,0.18646 -0.019,0.0635 -0.0389,0.12671 -0.0586,0.19002 -0.0206,0.0654 -0.0419,0.13055 -0.0652,0.19503 -0.0237,0.0651 -0.0485,0.1298 -0.0751,0.19377 -0.0273,0.0659 -0.055,0.13172 -0.0856,0.19623 -0.0312,0.0653 -0.0628,0.13037 -0.0954,0.19494 -0.0335,0.0662 -0.0667,0.13248 -0.10237,0.19748 -0.0362,0.0659 -0.073,0.13144 -0.11305,0.19507 -0.0404,0.0657 -0.0814,0.13089 -0.12422,0.19502 -0.0435,0.0656 -0.0875,0.13091 -0.13297,0.19517 -0.0462,0.0649 -0.0927,0.12947 -0.14068,0.19306 -0.048,0.0634 -0.0958,0.12689 -0.14602,0.18858 -0.0504,0.062 -0.10138,0.12367 -0.15252,0.18514 -0.0512,0.0611 -0.10354,0.12129 -0.15694,0.18052 -0.0535,0.0597 -0.10749,0.11898 -0.16198,0.1778 -0.0539,0.0574 -0.10834,0.11432 -0.16479,0.16926 -0.0557,0.0544 -0.1117,0.10848 -0.16823,0.16202 -0.0569,0.0536 -0.11395,0.10709 -0.172,0.15947 -0.0585,0.0529 -0.11728,0.10551 -0.1767,0.15739 -1.18886,1.02911 -2.40707,2.02385 -3.61239,3.03357 -0.0622,0.0514 -0.12442,0.10287 -0.18764,0.15308 -0.0637,0.05 -0.12767,0.0996 -0.19304,0.14741 -0.0653,0.0478 -0.13081,0.0954 -0.19761,0.14113 -0.0654,0.0446 -0.13161,0.0879 -0.19845,0.13024 -0.0669,0.0426 -0.13408,0.0849 -0.20235,0.12527 -0.0681,0.04 -0.1364,0.0794 -0.20484,0.11877 -0.069,0.0397 -0.13855,0.0785 -0.20875,0.11602 -0.0706,0.0382 -0.14152,0.0759 -0.21345,0.11159 -0.071,0.035 -0.14221,0.0695 -0.21416,0.10242 -0.0719,0.0332 -0.14423,0.0656 -0.21714,0.0966 -0.0726,0.0309 -0.14553,0.0612 -0.21924,0.0894 -0.0736,0.028 -0.14722,0.0559 -0.22207,0.0803 -0.0739,0.0238 -0.14819,0.0463 -0.22291,0.0674 -0.0755,0.0211 -0.15096,0.0422 -0.22721,0.0603 -0.0765,0.018 -0.15319,0.0354 -0.23028,0.0509 -0.0773,0.0154 -0.15466,0.0309 -0.23259,0.0429 -0.0772,0.0116 -0.15461,0.0219 -0.23232,0.0296 -0.077,0.007 -0.15408,0.0143 -0.23133,0.0187 -0.077,0.004 -0.1541,0.008 -0.23126,0.009 -0.0771,10e-4 -0.15421,1.7e-4 -0.2312,-0.004 -0.0763,-0.004 -0.15251,-0.0102 -0.2282,-0.0208 -0.0748,-0.011 -0.14947,-0.0232 -0.22309,-0.0406 -0.0742,-0.0171 -0.14779,-0.0364 -0.22063,-0.0585 -0.0736,-0.0228 -0.14661,-0.0473 -0.2187,-0.0745 -0.0735,-0.0279 -0.14694,-0.056 -0.21929,-0.0868 -0.0748,-0.0317 -0.14893,-0.0649 -0.22152,-0.10136 -0.0746,-0.0376 -0.14873,-0.0763 -0.22113,-0.11802 -0.0746,-0.0438 -0.14844,-0.0891 -0.21944,-0.13866 -0.0729,-0.0515 -0.14491,-0.10462 -0.21027,-0.16563 -0.0676,-0.0631 -0.13259,-0.12897 -0.19339,-0.19873 -0.0628,-0.0721 -0.12381,-0.14584 -0.18026,-0.22309 -0.0582,-0.0798 -0.11479,-0.16088 -0.16627,-0.24524 -0.053,-0.0864 -0.10527,-0.17332 -0.15309,-0.26274 -0.0488,-0.0913 -0.0966,-0.18326 -0.1383,-0.2781 -0.0411,-0.095 -0.0798,-0.19111 -0.11008,-0.29024 -0.031,-0.0995 -0.0593,-0.1999 -0.0845,-0.30108 -0.0255,-0.10353 -0.049,-0.20751 -0.0698,-0.3121 -0.021,-0.10743 -0.041,-0.21505 -0.0583,-0.32316 -0.018,-0.11132 -0.0347,-0.22283 -0.0499,-0.33455 -0.0146,-0.11231 -0.0287,-0.22475 -0.0368,-0.33776 -0.008,-0.11215 -0.0153,-0.22438 -0.0198,-0.33675 -0.005,-0.11461 -0.01,-0.22923 -0.0129,-0.34391 -0.003,-0.11734 -0.006,-0.23468 -0.007,-0.35204 -0.002,-0.12034 -0.004,-0.24069 -0.005,-0.36103 -0.001,-0.11973 -0.001,-0.23946 -0.002,-0.35918 3e-5,-0.11769 10e-4,-0.23537 0.002,-0.35305 0.001,-0.11954 0.004,-0.23906 0.006,-0.3586 0.002,-0.11985 0.004,-0.2397 0.006,-0.35956 0.002,-0.11713 0.004,-0.23428 0.008,-0.35137 0.004,-0.11786 0.007,-0.23572 0.0112,-0.35358 0.004,-0.11875 0.008,-0.23751 0.01,-0.3563 0.003,-0.1169 0.006,-0.2338 0.009,-0.35069 0.003,-0.11701 0.006,-0.23401 0.009,-0.35101 0.003,-0.1161 0.006,-0.23219 0.01,-0.34829 0.003,-0.11374 0.007,-0.22749 0.0101,-0.34123 0.003,-0.10935 0.007,-0.21869 0.009,-0.32807 0.002,-0.10503 0.005,-0.21006 0.006,-0.31511 0.001,-0.10227 0.002,-0.20454 0.004,-0.30681 0.002,-0.10043 0.005,-0.20084 0.008,-0.30126 0.003,-0.0968 0.005,-0.19363 0.008,-0.29044 0.003,-0.0936 0.006,-0.18723 0.01,-0.28081 0.004,-0.0927 0.009,-0.18545 0.0134,-0.27816 0.005,-0.0902 0.009,-0.18036 0.0142,-0.27052 0.005,-0.0877 0.01,-0.1755 0.0151,-0.26323 0.005,-0.0856 0.0104,-0.17116 0.0159,-0.25671 0.005,-0.0844 0.0112,-0.16876 0.0162,-0.25318 0.004,-0.0834 0.009,-0.16687 0.0142,-0.25027 0.005,-0.0811 0.012,-0.16201 0.0183,-0.24299 0.006,-0.08 0.013,-0.15989 0.0185,-0.23992 0.005,-0.0771 0.011,-0.15417 0.0168,-0.23124 0.005,-0.0739 0.01,-0.14784 0.0144,-0.2218 0.004,-0.0697 0.007,-0.1395 0.01,-0.2093 0.002,-0.065 0.005,-0.13 0.006,-0.19503 10e-4,-0.0585 0.002,-0.11696 10e-4,-0.17546 0,-0.0505 0,-0.10098 0,-0.15148 0,-0.0455 0,-0.091 0,-0.13658 0,-0.0413 0,-0.0826 0,-0.12384 0,-0.0378 0,-0.0756 0,-0.11345 0,-0.0322 0,-0.0643 0,-0.0965 0,-0.0222 0,-0.0444 0,-0.0667 0,0 3.4294,-2.87761 3.4294,-2.87761 z"
       inkscape:connector-curvature="0" />
    <path
       style="fill:#000000;stroke-width:0.26458332"
       id="path483"
       d="m 112.20231,145.8175 c -0.0115,-0.0188 -0.0204,-0.0392 -0.0292,-0.0594 -0.0111,-0.0268 -0.0209,-0.054 -0.0305,-0.0813 -0.013,-0.0371 -0.0263,-0.074 -0.0398,-0.11089 -0.015,-0.0409 -0.0296,-0.0819 -0.0437,-0.12313 -0.0163,-0.048 -0.0326,-0.0961 -0.0499,-0.1438 -0.0183,-0.0508 -0.0378,-0.10112 -0.0574,-0.15144 -0.0193,-0.0492 -0.038,-0.0986 -0.0565,-0.1481 -0.018,-0.0489 -0.0357,-0.0979 -0.0534,-0.14697 -0.0166,-0.0471 -0.0343,-0.0938 -0.0517,-0.14064 -0.0182,-0.0473 -0.0364,-0.0946 -0.0543,-0.14199 -0.017,-0.0455 -0.0343,-0.091 -0.0519,-0.13628 -0.0159,-0.0407 -0.0325,-0.081 -0.049,-0.12145 -0.0105,-0.0256 -0.0209,-0.0512 -0.0312,-0.0769 0,0 3.4294,-2.87761 3.4294,-2.87761 v 0 c 0.0103,0.0257 0.0206,0.0514 0.0312,0.0769 0.0165,0.0404 0.0331,0.0808 0.049,0.12146 0.0177,0.0453 0.0349,0.0907 0.0519,0.13627 0.0179,0.0474 0.0361,0.0947 0.0543,0.142 0.0174,0.0468 0.0351,0.0935 0.0517,0.14063 0.0177,0.049 0.0354,0.0981 0.0534,0.14697 0.0185,0.0495 0.0372,0.0989 0.0565,0.1481 0.0196,0.0503 0.0391,0.10065 0.0574,0.15144 0.0173,0.0477 0.0336,0.0958 0.0499,0.1438 0.0141,0.0412 0.0287,0.0822 0.0437,0.12313 0.0135,0.0369 0.0268,0.0738 0.0398,0.11089 0.01,0.0273 0.0195,0.0546 0.0305,0.0813 0.009,0.0202 0.0177,0.0405 0.0292,0.0594 0,0 -3.4294,2.87761 -3.4294,2.87761 z"
       inkscape:connector-curvature="0" />
    <path
       style="fill:#000000;stroke-width:0.26458332"
       id="path489"
       d="m 111.20222,143.50288 c -0.004,-0.0216 -0.008,-0.0435 -0.012,-0.0651 -0.004,-0.0237 -0.0105,-0.0471 -0.0165,-0.0705 -0.008,-0.0296 -0.0158,-0.0593 -0.0239,-0.089 -0.009,-0.0323 -0.0179,-0.0646 -0.0265,-0.097 -0.009,-0.0343 -0.0183,-0.0685 -0.0281,-0.10255 -0.0104,-0.0355 -0.0207,-0.071 -0.0309,-0.10664 -0.0107,-0.036 -0.0218,-0.0718 -0.0326,-0.10772 -0.0115,-0.0381 -0.0217,-0.0766 -0.0314,-0.11517 -0.0106,-0.0419 -0.0203,-0.084 -0.0296,-0.12623 -0.0105,-0.0467 -0.0195,-0.0936 -0.0272,-0.14086 -0.009,-0.0526 -0.0148,-0.10558 -0.021,-0.15853 -0.007,-0.0547 -0.0116,-0.10952 -0.0152,-0.16447 -0.004,-0.0581 -0.004,-0.11628 -0.003,-0.17445 6e-5,-0.0589 0.001,-0.11768 0.005,-0.17643 0.004,-0.0619 0.0122,-0.1233 0.0223,-0.18442 0.0107,-0.0628 0.0221,-0.12542 0.0333,-0.18809 0.0106,-0.0613 0.0228,-0.12218 0.037,-0.1827 0.0144,-0.0618 0.0312,-0.12303 0.0482,-0.18417 0.0168,-0.0597 0.0329,-0.11951 0.0507,-0.1789 0.0179,-0.061 0.0388,-0.12106 0.0607,-0.18071 0.0227,-0.0623 0.0465,-0.12419 0.0703,-0.18606 0.0238,-0.0607 0.0484,-0.12105 0.0741,-0.18099 0.0262,-0.0606 0.0547,-0.12015 0.083,-0.17979 0.0284,-0.0593 0.0583,-0.11793 0.089,-0.17607 0.032,-0.0602 0.0669,-0.11875 0.10211,-0.17707 0.0351,-0.058 0.0704,-0.11589 0.1064,-0.17333 0.0348,-0.0555 0.0697,-0.11099 0.10567,-0.16578 0.036,-0.0541 0.0731,-0.10734 0.11086,-0.16022 0.0379,-0.0533 0.077,-0.10567 0.11675,-0.15754 0.0397,-0.0522 0.08,-0.10398 0.12047,-0.1556 0.0401,-0.0509 0.0805,-0.10146 0.12129,-0.15173 0.0405,-0.0499 0.0821,-0.0989 0.1247,-0.14708 0.0436,-0.05 0.0884,-0.099 0.13358,-0.14768 0.0459,-0.0494 0.0935,-0.0971 0.14175,-0.1441 0.04,-0.0395 0.0809,-0.0781 0.12216,-0.11627 0,0 3.4294,-2.87761 3.4294,-2.87761 v 0 c -0.0413,0.0381 -0.0822,0.0767 -0.12216,0.11627 -0.0483,0.047 -0.0959,0.0947 -0.14175,0.1441 -0.0451,0.0487 -0.09,0.0976 -0.13358,0.14768 -0.0426,0.0482 -0.0841,0.0972 -0.1247,0.14708 -0.0408,0.0503 -0.0812,0.10086 -0.12129,0.15173 -0.0405,0.0516 -0.0808,0.10339 -0.12048,0.15561 -0.0398,0.0519 -0.0789,0.10426 -0.11674,0.15753 -0.0377,0.0529 -0.0748,0.10617 -0.11086,0.16022 -0.036,0.0548 -0.0709,0.11023 -0.10567,0.16578 -0.036,0.0574 -0.0713,0.11533 -0.10639,0.17333 -0.0352,0.0583 -0.0701,0.11689 -0.10213,0.17707 -0.0307,0.0581 -0.0606,0.11675 -0.089,0.17607 -0.0283,0.0596 -0.0568,0.11919 -0.083,0.17979 -0.0256,0.0599 -0.0502,0.12032 -0.0741,0.18099 -0.0238,0.0619 -0.0476,0.12377 -0.0703,0.18606 -0.0219,0.0597 -0.0428,0.11971 -0.0607,0.18071 -0.0178,0.0594 -0.0339,0.11923 -0.0507,0.1789 -0.017,0.0611 -0.0338,0.12235 -0.0482,0.18417 -0.0142,0.0605 -0.0265,0.12144 -0.037,0.1827 -0.0112,0.0627 -0.0226,0.12533 -0.0333,0.18809 -0.01,0.0611 -0.0185,0.12255 -0.0223,0.18442 -0.003,0.0588 -0.005,0.11758 -0.005,0.17643 -2.7e-4,0.0582 -5.3e-4,0.11637 0.003,0.17445 0.004,0.0549 0.008,0.10981 0.0152,0.16447 0.006,0.0529 0.0123,0.10592 0.021,0.15853 0.008,0.0472 0.0167,0.0942 0.0272,0.14086 0.009,0.0422 0.0191,0.0843 0.0296,0.12623 0.01,0.0386 0.0199,0.0771 0.0314,0.11517 0.0108,0.0359 0.0219,0.0718 0.0326,0.10772 0.0101,0.0356 0.0204,0.0711 0.0309,0.10664 0.01,0.0341 0.0191,0.0683 0.0281,0.10255 0.009,0.0324 0.0174,0.0648 0.0265,0.097 0.008,0.0296 0.0156,0.0594 0.0239,0.089 0.006,0.0234 0.0121,0.0467 0.0165,0.0705 0.004,0.0216 0.008,0.0435 0.012,0.0651 0,0 -3.4294,2.87761 -3.4294,2.87761 z"
       inkscape:connector-curvature="0" />
  </g>
</svg>
