<?xml version="1.0" encoding="UTF-8" standalone="no"?>
<!-- Created with Inkscape (http://www.inkscape.org/) -->

<svg
   xmlns:dc="http://purl.org/dc/elements/1.1/"
   xmlns:cc="http://creativecommons.org/ns#"
   xmlns:rdf="http://www.w3.org/1999/02/22-rdf-syntax-ns#"
   xmlns:svg="http://www.w3.org/2000/svg"
   xmlns="http://www.w3.org/2000/svg"
   xmlns:sodipodi="http://sodipodi.sourceforge.net/DTD/sodipodi-0.dtd"
   xmlns:inkscape="http://www.inkscape.org/namespaces/inkscape"
   width="210mm"
   height="297mm"
   viewBox="0 0 210 297"
   version="1.1"
   id="svg527"
   inkscape:version="0.92.3 (2405546, 2018-03-11)"
   sodipodi:docname="R08.svg">
  <defs
     id="defs521" />
  <sodipodi:namedview
     id="base"
     pagecolor="#ffffff"
     bordercolor="#666666"
     borderopacity="1.0"
     inkscape:pageopacity="0.0"
     inkscape:pageshadow="2"
     inkscape:zoom="0.7"
     inkscape:cx="432.21288"
     inkscape:cy="606.92547"
     inkscape:document-units="mm"
     inkscape:current-layer="layer1"
     showgrid="false"
     inkscape:window-width="800"
     inkscape:window-height="845"
     inkscape:window-x="800"
     inkscape:window-y="27"
     inkscape:window-maximized="0" />
  <metadata
     id="metadata524">
    <rdf:RDF>
      <cc:Work
         rdf:about="">
        <dc:format>image/svg+xml</dc:format>
        <dc:type
           rdf:resource="http://purl.org/dc/dcmitype/StillImage" />
        <dc:title></dc:title>
      </cc:Work>
    </rdf:RDF>
  </metadata>
  <g
     inkscape:label="Layer 1"
     inkscape:groupmode="layer"
     id="layer1">
    <path
       style="fill:#000000;stroke-width:0.27397272"
       id="path627"
       d="m 40.860612,75.083076 c 0.04548,-0.02993 0.09351,-0.05629 0.140661,-0.08384 0.07071,-0.03888 0.139059,-0.0813 0.208766,-0.121703 0.09916,-0.05586 0.193019,-0.119248 0.288601,-0.18015 0.102462,-0.06462 0.205648,-0.128233 0.309063,-0.191518 0.114265,-0.06841 0.228253,-0.137237 0.341535,-0.207055 0.119768,-0.07451 0.239275,-0.149358 0.360157,-0.222293 0.126832,-0.07392 0.254756,-0.146203 0.381394,-0.220419 0.128081,-0.07686 0.256782,-0.152765 0.386189,-0.22766 0.130234,-0.07532 0.258756,-0.153197 0.388314,-0.229532 0.141853,-0.08293 0.281635,-0.168878 0.422806,-0.252806 0.141963,-0.08455 0.285573,-0.166654 0.428232,-0.250161 0.148729,-0.0872 0.300356,-0.169993 0.452438,-0.251971 65.304542,-35.226273 -13.288478,7.21972 0.481581,-0.260334 6.676631,-3.627316 13.320955,-7.309281 20.07569,-10.808361 0.162013,-0.08409 0.324939,-0.166593 0.488898,-0.247338 0.166947,-0.08123 0.332777,-0.164412 0.49953,-0.245981 0.16784,-0.08294 0.338174,-0.161348 0.508655,-0.239421 0.170214,-0.07688 0.341226,-0.152218 0.51291,-0.226208 0.173085,-0.07367 0.345652,-0.148376 0.519129,-0.22125 0.177422,-0.07546 0.354295,-0.152043 0.531247,-0.228457 0.168447,-0.07496 0.339093,-0.145188 0.510987,-0.212937 0.167885,-0.06618 0.337053,-0.129484 0.506615,-0.191818 0.165606,-0.06116 0.331335,-0.121864 0.499119,-0.177649 0.16469,-0.05401 0.330252,-0.105719 0.496094,-0.156572 0.166573,-0.05099 0.334007,-0.09948 0.501676,-0.147214 0.171066,-0.04919 0.343234,-0.09494 0.515889,-0.138983 0.185276,-0.04667 0.371845,-0.08869 0.558245,-0.131223 0.181273,-0.04361 0.364077,-0.08075 0.548008,-0.113078 0.174892,-0.0307 0.35235,-0.04436 0.529697,-0.05517 0.166767,-0.0091 0.333841,-0.0071 0.500784,-0.0057 0.15784,-7.94e-4 0.31543,0.0055 0.472829,0.01582 0.149726,0.01127 0.298107,0.03405 0.445076,0.06252 0.139241,0.02736 0.276978,0.06074 0.412623,0.100777 0.135405,0.04129 0.264677,0.09704 0.389996,0.159758 0.123473,0.06269 0.232855,0.144484 0.335953,0.232841 0.107258,0.09186 0.187032,0.204669 0.257768,0.322231 0.07631,0.130929 0.134287,0.270012 0.187735,0.410146 0.06342,0.158647 0.108162,0.32248 0.146287,0.487747 0.0435,0.200448 0.06956,0.403637 0.09618,0.606485 0.03184,0.229571 0.04968,0.460471 0.06191,0.691579 0.01438,0.300598 0.002,0.601385 -0.01163,0.901761 -0.01626,0.335851 -0.03339,0.671668 -0.04995,1.007509 -0.01577,0.364181 -0.03688,0.728104 -0.06008,1.09193 -0.02834,0.399704 -0.05941,0.799232 -0.08967,1.198812 -0.03128,0.407381 -0.06076,0.814874 -0.08808,1.222501 -0.02927,0.472607 -0.06456,0.944854 -0.09973,1.417101 -0.03959,0.505137 -0.07346,1.0106 -0.103513,1.516298 -0.03265,0.55948 -0.06076,1.119174 -0.08821,1.678892 -0.02858,0.61227 -0.0592,1.224457 -0.09253,1.836518 -0.03717,0.663789 -0.07313,1.327634 -0.108292,1.991519 -0.03417,0.683159 -0.07361,1.36607 -0.11194,2.049031 -0.04021,0.704644 -0.08611,1.408975 -0.132416,2.113285 -0.04668,0.722387 -0.0982,1.444493 -0.151882,2.166456 -0.05404,0.745072 -0.116127,1.489602 -0.177374,2.234179 -0.06409,0.770699 -0.132858,1.541039 -0.202386,2.311323 -0.0686,0.768477 -0.137629,1.536914 -0.21112,2.305 -0.07521,0.788347 -0.152021,1.576557 -0.228698,2.364779 -0.07584,0.798256 -0.15634,1.596113 -0.23574,2.394064 -0.0794,0.797306 -0.155295,1.594909 -0.230545,2.392564 -0.0737,0.794123 -0.149405,1.588082 -0.227419,2.381845 -0.07947,0.819327 -0.165831,1.638045 -0.252159,2.456765 -0.08551,0.81045 -0.170374,1.62096 -0.254628,2.43152 -0.08339,0.79724 -0.163159,1.5948 -0.240852,2.39254 -0.08026,0.80513 -0.161138,1.6102 -0.240781,2.41538 -0.07883,0.79524 -0.15496,1.59071 -0.229923,2.38627 -0.07388,0.78579 -0.145696,1.57175 -0.217127,2.35774 -0.07011,0.77006 -0.138011,1.5403 -0.205003,2.3106 -0.0665,0.76339 -0.130529,1.52696 -0.193557,2.2906 -0.06289,0.76462 -0.123669,1.52939 -0.182748,2.29427 -0.06009,0.80329 -0.119601,1.60662 -0.185492,2.40952 -0.06927,0.82896 -0.13888,1.6579 -0.208023,2.48687 -0.068,0.80916 -0.134412,1.61842 -0.195165,2.42809 -0.05881,0.79661 -0.11592,1.59333 -0.172344,2.39009 -0.05668,0.79625 -0.109939,1.5927 -0.162064,2.38922 -0.05122,0.79825 -0.10816,1.59618 -0.163789,2.39418 -0.05488,0.78354 -0.10815,1.56718 -0.159772,2.35091 -0.05003,0.7909 -0.102377,1.58166 -0.156659,2.37232 -0.05379,0.77838 -0.106612,1.55681 -0.157851,2.33534 -0.05154,0.7927 -0.100018,1.58557 -0.152747,2.37821 -0.05255,0.77317 -0.102999,1.54646 -0.157531,2.31951 -0.05434,0.75331 -0.108968,1.5066 -0.162717,2.25994 -0.05228,0.73312 -0.103792,1.46629 -0.154948,2.19948 -0.04828,0.71533 -0.09941,1.43048 -0.152038,2.14554 -0.05175,0.69885 -0.102902,1.39774 -0.153493,2.09666 -0.04799,0.68596 -0.09874,1.37174 -0.150974,2.05743 -0.04973,0.67543 -0.103031,1.3506 -0.158217,2.02566 -0.05409,0.65554 -0.107274,1.31116 -0.159652,1.96682 -0.05132,0.64483 -0.101294,1.28975 -0.151079,1.93468 -0.04849,0.62849 -0.09592,1.25705 -0.142648,1.88566 -0.04585,0.61798 -0.0906,1.23603 -0.134682,1.85413 -0.04386,0.60914 -0.08415,1.21849 -0.128514,1.8276 -0.04466,0.59825 -0.08999,1.19646 -0.134656,1.7947 -0.04345,0.5811 -0.08597,1.16225 -0.128446,1.7434 -0.04063,0.56178 -0.08058,1.1236 -0.12467,1.68515 -0.0424,0.55236 -0.08863,1.10443 -0.135387,1.65648 -0.05005,0.56579 -0.101359,1.13149 -0.151801,1.69725 -0.04961,0.55573 -0.09833,1.11152 -0.146253,1.66738 -0.04748,0.55073 -0.09297,1.10162 -0.138137,1.65253 -0.04461,0.54107 -0.08771,1.08224 -0.130426,1.62344 -0.04198,0.53201 -0.08293,1.06409 -0.123141,1.59622 -0.04068,0.53935 -0.07876,1.07888 -0.116263,1.61843 -0.03745,0.54178 -0.0737,1.08363 -0.109774,1.62549 -0.0352,0.52801 -0.06972,1.05605 -0.103642,1.58414 -0.0331,0.51561 -0.06573,1.03125 -0.09785,1.54692 -0.03159,0.50669 -0.0621,1.01343 -0.09239,1.52019 -0.03028,0.50223 -0.0591,1.00454 -0.08723,1.50688 -0.02806,0.50707 -0.05528,1.01418 -0.08236,1.5213 -0.02867,0.49476 -0.06014,0.98937 -0.09113,1.48401 -0.02187,0.32015 -0.01029,0.16068 -0.03482,0.47841 0,0 -19.606359,10.55715 -19.606359,10.55715 v 0 c 0.02457,-0.31773 0.01293,-0.15826 0.03482,-0.47841 0.031,-0.49464 0.06246,-0.98926 0.09113,-1.48402 0.0271,-0.50712 0.05431,-1.01423 0.08236,-1.5213 0.02811,-0.50234 0.05696,-1.00464 0.08724,-1.50688 0.03028,-0.50675 0.06081,-1.0135 0.09239,-1.52018 0.03212,-0.51567 0.06475,-1.03131 0.09785,-1.54693 0.03393,-0.52808 0.06844,-1.05613 0.103642,-1.58414 0.03608,-0.54186 0.07231,-1.08371 0.109774,-1.62549 0.03751,-0.53955 0.07558,-1.07907 0.116264,-1.61843 0.04021,-0.53212 0.08116,-1.0642 0.123141,-1.59621 0.04271,-0.5412 0.0858,-1.08238 0.130423,-1.62344 0.04516,-0.55091 0.09066,-1.1018 0.138136,-1.65254 0.04793,-0.55585 0.09664,-1.11165 0.146257,-1.66737 0.05045,-0.56576 0.101755,-1.13146 0.151796,-1.69725 0.04676,-0.55205 0.09299,-1.10413 0.135388,-1.65649 0.0441,-0.56155 0.08405,-1.12336 0.124671,-1.68514 0.04247,-0.58116 0.085,-1.16231 0.128445,-1.7434 0.04467,-0.59825 0.09,-1.19645 0.134659,-1.7947 0.04437,-0.60911 0.08466,-1.21847 0.128515,-1.8276 0.04408,-0.6181 0.08883,-1.23615 0.134681,-1.85414 0.04672,-0.6286 0.09416,-1.25716 0.142648,-1.88565 0.04978,-0.64493 0.09976,-1.28985 0.151076,-1.93468 0.05238,-0.65567 0.105561,-1.31128 0.159655,-1.96683 0.05519,-0.67505 0.108488,-1.35023 0.158214,-2.02566 0.05224,-0.68569 0.102988,-1.37146 0.150977,-2.05742 0.05059,-0.69893 0.101744,-1.39781 0.153491,-2.09666 0.05264,-0.71506 0.10376,-1.43021 0.152041,-2.14554 0.05116,-0.73319 0.102666,-1.46636 0.154949,-2.19948 0.05375,-0.75335 0.108377,-1.50664 0.162713,-2.25994 0.05453,-0.77305 0.104972,-1.54634 0.157533,-2.31951 0.05273,-0.79264 0.101197,-1.58551 0.152744,-2.37822 0.05124,-0.77852 0.10406,-1.55696 0.157854,-2.33533 0.05428,-0.79066 0.106634,-1.58142 0.156659,-2.37232 0.05162,-0.78374 0.104897,-1.56737 0.159772,-2.35092 0.05563,-0.79799 0.112567,-1.59592 0.163789,-2.39418 0.05212,-0.79651 0.10539,-1.59297 0.162061,-2.38922 0.05642,-0.79676 0.113534,-1.59348 0.172347,-2.39008 0.06075,-0.80967 0.12717,-1.61893 0.195166,-2.42809 0.06914,-0.82898 0.138755,-1.65791 0.208022,-2.48688 0.06589,-0.8029 0.125405,-1.60622 0.185492,-2.40951 0.05908,-0.76489 0.119864,-1.52965 0.182748,-2.29427 0.06303,-0.76364 0.127059,-1.52721 0.193557,-2.2906 0.06699,-0.77031 0.134891,-1.54054 0.205001,-2.3106 0.07143,-0.78599 0.143249,-1.57195 0.217129,-2.35775 0.07496,-0.79556 0.151085,-1.59102 0.229923,-2.38626 0.07965,-0.80518 0.160527,-1.61025 0.240779,-2.41538 0.07769,-0.79774 0.157471,-1.5953 0.240852,-2.39254 0.08426,-0.81057 0.169121,-1.62107 0.254628,-2.43153 0.08633,-0.81871 0.172687,-1.63743 0.252162,-2.45676 0.07802,-0.79377 0.153729,-1.58772 0.227418,-2.38185 0.07525,-0.79765 0.151145,-1.59526 0.230545,-2.39256 0.0794,-0.79795 0.159905,-1.59581 0.235738,-2.39406 0.07668,-0.78823 0.153498,-1.57643 0.2287,-2.36478 0.07349,-0.768085 0.142515,-1.536525 0.21112,-2.305002 0.06952,-0.770284 0.138299,-1.540624 0.202384,-2.311321 0.06125,-0.74458 0.123332,-1.489106 0.177377,-2.234181 0.05369,-0.721961 0.105197,-1.444067 0.151879,-2.166456 0.04631,-0.70431 0.09221,-1.408642 0.132418,-2.113283 0.03833,-0.682963 0.07776,-1.365874 0.11194,-2.049031 0.03516,-0.663884 0.07112,-1.327732 0.108289,-1.991521 0.03335,-0.612061 0.06396,-1.224246 0.09253,-1.836518 0.02744,-0.559716 0.05556,-1.119412 0.08821,-1.67889 0.03005,-0.505698 0.06393,-1.011161 0.103513,-1.516298 0.03518,-0.472247 0.07046,-0.944496 0.09974,-1.4171 0.02732,-0.407628 0.05681,-0.815121 0.08808,-1.222502 0.03027,-0.399579 0.06133,-0.799111 0.08968,-1.198814 0.02318,-0.363823 0.04428,-0.72775 0.06007,-1.09193 0.01657,-0.335838 0.03368,-0.671655 0.04995,-1.00751 0.01356,-0.300376 0.02604,-0.601159 0.01163,-0.901758 -0.01222,-0.231108 -0.03008,-0.46201 -0.06191,-0.691578 -0.02663,-0.202848 -0.05268,-0.406038 -0.09618,-0.606489 -0.03813,-0.165264 -0.08287,-0.329096 -0.14629,-0.487743 -0.05344,-0.140137 -0.111422,-0.27922 -0.187732,-0.410149 -0.07074,-0.11756 -0.15051,-0.230376 -0.257772,-0.322228 -0.103095,-0.08836 -0.212476,-0.170157 -0.335951,-0.232844 -0.125318,-0.06271 -0.25459,-0.118473 -0.389995,-0.159756 -0.135645,-0.04004 -0.273382,-0.07341 -0.412622,-0.100777 -0.146969,-0.02847 -0.295353,-0.05124 -0.445076,-0.06252 -0.1574,-0.01037 -0.314993,-0.01651 -0.47283,-0.01582 -0.166946,-0.0013 -0.334019,-0.0034 -0.500784,0.0057 -0.177346,0.01082 -0.354804,0.02447 -0.529696,0.05517 -0.183935,0.03233 -0.366736,0.06947 -0.548009,0.11308 -0.186402,0.04254 -0.372969,0.08455 -0.558245,0.13122 -0.172656,0.04405 -0.344823,0.0898 -0.515888,0.138983 -0.16767,0.04774 -0.335103,0.09623 -0.501676,0.147214 -0.165842,0.05085 -0.331404,0.102558 -0.496095,0.156573 -0.167783,0.05579 -0.333512,0.116488 -0.499122,0.177649 -0.169562,0.06234 -0.338726,0.125635 -0.506611,0.191818 -0.171895,0.06775 -0.342543,0.137975 -0.510988,0.212936 -0.176951,0.07641 -0.353827,0.152996 -0.531247,0.22846 -0.173477,0.07287 -0.346043,0.147582 -0.519132,0.22125 -0.17168,0.07399 -0.342692,0.14932 -0.512906,0.226208 -0.170484,0.07807 -0.340815,0.156477 -0.508655,0.239422 -0.166753,0.08157 -0.332585,0.16475 -0.499534,0.24598 -0.163955,0.08074 -0.326881,0.163243 -0.488895,0.247335 -6.984377,3.61804 26.164265,-14.121701 19.137022,-10.305928 -13.058735,7.093656 -39.812318,21.379839 -0.481581,0.260332 -0.15208,0.08198 -0.303705,0.164777 -0.452435,0.25197 -0.142661,0.08351 -0.286271,0.165611 -0.428235,0.250161 -0.141167,0.08393 -0.280952,0.169876 -0.422806,0.252809 -0.129554,0.07633 -0.258077,0.154205 -0.388312,0.229529 -0.129408,0.0749 -0.25811,0.150805 -0.386189,0.227661 -0.12664,0.07422 -0.254564,0.146502 -0.381395,0.220422 -0.12088,0.07293 -0.240387,0.14778 -0.360154,0.222289 -0.113286,0.06982 -0.227274,0.138647 -0.341538,0.207058 -0.103417,0.06329 -0.206601,0.126899 -0.309064,0.191516 -0.09558,0.0609 -0.189437,0.124293 -0.2886,0.180152 -0.06971,0.0404 -0.138049,0.08282 -0.208765,0.121703 -0.04716,0.02755 -0.09518,0.05391 -0.140663,0.08384 0,0 -19.606356,10.557147 -19.606356,10.557147 z"
       inkscape:connector-curvature="0" />
    <path
       style="fill:#000000;stroke-width:0.28066617"
       id="path648"
       d="m 67.176304,76.244425 c 0.03263,-0.02529 0.06911,-0.04641 0.104256,-0.06886 0.04628,-0.03028 0.09148,-0.06186 0.136898,-0.09317 0.05444,-0.03612 0.108678,-0.0725 0.164072,-0.107469 0.07003,-0.04569 0.139513,-0.092 0.20958,-0.137641 0.07319,-0.04837 0.147194,-0.09565 0.223412,-0.140168 0.08487,-0.0498 0.17155,-0.09698 0.259314,-0.142606 5.849631,-5.744702 13.880883,-7.177174 20.86612,-10.701916 0.103952,-0.05257 0.209383,-0.10281 0.313599,-0.154964 0.112886,-0.0563 0.226115,-0.112017 0.340331,-0.166145 6.975852,-3.489489 14.186304,-7.275486 -20.224913,10.379831 0.128481,-0.06767 0.257052,-0.13522 0.385556,-0.202866 0.136148,-0.07179 0.272081,-0.143891 0.408246,-0.215654 13.729534,-7.048357 41.663235,-21.378124 0.434035,-0.225528 7.001551,-3.615061 13.966246,-7.288657 21.040101,-10.79077 0.167087,-0.08208 0.333337,-0.165475 0.499073,-0.24969 7.069548,-3.553163 -27.200691,13.953879 -20.399283,10.467309 6.890151,-3.532064 13.777264,-7.06881 20.66596,-10.603117 0.02999,-0.01537 0.120081,-0.06135 0.0901,-0.04596 C 72.124257,73.598354 65.39642,77.083864 72.299186,73.507883 140.7362,38.158891 58.411277,80.876822 72.86157,73.215206 c 0.199799,-0.103934 0.396138,-0.212939 0.593245,-0.320813 0.196017,-0.106518 0.391623,-0.213646 0.588522,-0.318881 69.544893,-35.6851 -47.682064,24.461965 21.16608,-10.861789 0.204464,-0.10352 0.408777,-0.20725 0.614464,-0.308848 0.20636,-0.105002 0.414233,-0.207597 0.622561,-0.309472 0.210254,-0.104193 0.421057,-0.207513 0.632181,-0.310309 0.220356,-0.107619 0.442829,-0.211722 0.665479,-0.315521 0.237297,-0.108812 0.474719,-0.217413 0.712295,-0.325747 0.231236,-0.105386 0.462507,-0.210709 0.693775,-0.316039 0.223122,-0.102442 0.448147,-0.201549 0.674306,-0.298572 0.227422,-0.09674 0.453862,-0.195281 0.681322,-0.291962 0.22652,-0.0957 0.45465,-0.188339 0.68305,-0.280443 0.22346,-0.08898 0.44549,-0.180755 0.6675,-0.272531 0.21968,-0.09098 0.44175,-0.177226 0.66271,-0.265671 0.22346,-0.09048 0.44812,-0.178596 0.67285,-0.266565 0.23063,-0.09221 0.46089,-0.185171 0.69195,-0.276521 0.22489,-0.08842 0.45007,-0.176231 0.67522,-0.264131 0.21866,-0.08717 0.44171,-0.165039 0.6652,-0.241763 0.22227,-0.07338 0.44686,-0.141015 0.67138,-0.208698 0.21976,-0.06321 0.44099,-0.122312 0.66198,-0.182005 0.20877,-0.05423 0.41854,-0.105351 0.62815,-0.156916 0.20328,-0.04947 0.40685,-0.09802 0.61069,-0.145695 0.19981,-0.04704 0.40015,-0.09226 0.60049,-0.13752 0.19284,-0.04543 0.38691,-0.08615 0.58168,-0.124503 0.19363,-0.03572 0.38842,-0.06616 0.5839,-0.09266 0.19391,-0.02572 0.38812,-0.04971 0.58233,-0.07361 0.19161,-0.02267 0.38418,-0.03761 0.57731,-0.04429 0.18852,-0.0059 0.3765,0.009 0.56356,0.02807 0.18399,0.0182 0.36611,0.04846 0.54606,0.08666 0.17334,0.03807 0.33559,0.103362 0.49083,0.180459 0.15716,0.08053 0.30037,0.179596 0.44154,0.280241 0.14631,0.105101 0.27771,0.224568 0.40195,0.349726 0.14125,0.144092 0.25369,0.307232 0.35804,0.473589 0.11549,0.186811 0.20806,0.383487 0.29957,0.580189 0.097,0.20897 0.17527,0.423949 0.24684,0.640667 0.0759,0.238887 0.13396,0.481737 0.18957,0.724874 0.0596,0.262352 0.11308,0.525753 0.16491,0.789394 0.0564,0.286576 0.10679,0.573988 0.15175,0.862145 0.045,0.296908 0.088,0.594051 0.13072,0.891223 0.0425,0.294193 0.0834,0.588581 0.12274,0.883126 0.0404,0.304641 0.0782,0.609544 0.11586,0.914466 0.0377,0.304438 0.0739,0.609023 0.10938,0.91368 0.0389,0.315569 0.0631,0.632315 0.086,0.949056 0.0201,0.332959 0.0371,0.666088 0.0499,0.999336 0.0114,0.331372 0.0207,0.662797 0.0299,0.994222 0.009,0.343313 0.007,0.686705 6e-4,1.030036 -0.007,0.360498 -0.0265,0.72063 -0.0488,1.08059 -0.0217,0.373478 -0.0555,0.746295 -0.0952,1.118574 -0.0421,0.399211 -0.095,0.797422 -0.14802,1.195583 -0.054,0.396672 -0.10432,0.793729 -0.15934,1.190287 -0.0542,0.393795 -0.11263,0.787127 -0.17092,1.180467 -0.0614,0.397182 -0.12498,0.794102 -0.1872,1.191189 -0.0612,0.392311 -0.12059,0.784823 -0.18338,1.176933 -0.0634,0.397192 -0.13143,0.793773 -0.19707,1.190672 -0.0653,0.403956 -0.13214,0.807723 -0.20218,1.211054 -0.0716,0.409644 -0.14918,0.818419 -0.22429,1.227555 -0.0746,0.40571 -0.14708,0.811739 -0.21868,1.217885 -0.0693,0.404159 -0.14048,0.808064 -0.2126,1.21184 -0.0728,0.401748 -0.14143,0.804066 -0.21258,1.206036 -0.0725,0.416608 -0.14847,0.832702 -0.22367,1.248921 -0.0746,0.411858 -0.14794,0.823915 -0.22054,1.236065 -0.071,0.405664 -0.14011,0.811593 -0.21197,1.217144 -0.0712,0.401592 -0.14227,0.803211 -0.21622,1.20442 -0.0735,0.395468 -0.14594,0.791083 -0.21739,1.186847 -0.0677,0.386138 -0.14113,0.771451 -0.21459,1.156753 -0.0707,0.369094 -0.14124,0.738203 -0.2106,1.107495 -0.0713,0.366171 -0.13355,0.733597 -0.19301,1.101413 -0.0581,0.364763 -0.11516,0.729636 -0.1718,1.094571 -0.0559,0.36145 -0.10983,0.723151 -0.16186,1.085056 -0.0523,0.370367 -0.10893,0.740249 -0.16413,1.110287 -0.0548,0.365329 -0.10825,0.730811 -0.16035,1.096441 -0.0529,0.374759 -0.10893,0.749152 -0.16282,1.123789 -0.0539,0.378677 -0.11336,0.7567 -0.17042,1.135003 -0.0571,0.37971 -0.11174,0.75969 -0.16637,1.13967 -0.0528,0.36941 -0.10476,0.73892 -0.16072,1.10796 -0.0558,0.36101 -0.11028,0.72216 -0.1643,1.08338 -0.0515,0.35974 -0.10825,0.71888 -0.16444,1.07807 -0.0558,0.35492 -0.11016,0.71001 -0.16326,1.06526 -0.0513,0.359 -0.10746,0.71742 -0.16294,1.07592 -0.0548,0.3525 -0.10892,0.70507 -0.16183,1.0578 -0.0536,0.35137 -0.10195,0.70333 -0.1544,1.05481 -0.0534,0.34936 -0.10713,0.6987 -0.15976,1.04815 -0.0531,0.34904 -0.10161,0.69861 -0.15362,1.04778 -0.0537,0.35327 -0.1069,0.70658 -0.15905,1.06001 -0.0513,0.34518 -0.1,0.69067 -0.15296,1.03565 -0.0527,0.33429 -0.10601,0.6685 -0.15842,1.00283 -0.0509,0.32381 -0.10107,0.64772 -0.15095,0.97166 -0.0485,0.31575 -0.0955,0.63168 -0.14254,0.94761 -0.0452,0.30562 -0.0898,0.61131 -0.13458,0.91699 -0.0414,0.29617 -0.0866,0.59189 -0.13307,0.88747 -0.0461,0.29321 -0.0912,0.58652 -0.13607,0.87988 -0.0435,0.28347 -0.0866,0.56697 -0.12883,0.85059 -0.0393,0.27651 -0.0826,0.55251 -0.12764,0.82832 -0.0441,0.26822 -0.0875,0.53652 -0.13095,0.80481 -0.0418,0.25724 -0.0834,0.51451 -0.12398,0.7719 -0.0392,0.25017 -0.0781,0.50037 -0.11707,0.75058 -0.0349,0.23736 -0.077,0.47378 -0.11916,0.71019 -0.0313,0.18836 -0.0724,0.37526 -0.11692,0.56146 0,0 -20.576068,10.55715 -20.576068,10.55715 v 0 c 0.0445,-0.18621 0.08558,-0.3731 0.116914,-0.56146 0.04216,-0.23641 0.08428,-0.47283 0.119159,-0.7102 0.03895,-0.2502 0.07785,-0.50041 0.117067,-0.75057 0.04058,-0.2574 0.08214,-0.51466 0.123988,-0.7719 0.04348,-0.26829 0.08686,-0.5366 0.130946,-0.80481 0.04501,-0.27581 0.08834,-0.55181 0.127644,-0.82832 0.04221,-0.28362 0.08536,-0.56713 0.128824,-0.8506 0.04486,-0.29335 0.08999,-0.58667 0.136076,-0.87987 0.04647,-0.29558 0.09162,-0.5913 0.133072,-0.88747 0.04474,-0.30568 0.0894,-0.61137 0.134581,-0.917 0.04706,-0.31592 0.09403,-0.63185 0.142539,-0.9476 0.04987,-0.32394 0.100037,-0.64785 0.150948,-0.97166 0.0524,-0.33433 0.105674,-0.66855 0.158421,-1.00283 0.05297,-0.34498 0.101645,-0.69048 0.152959,-1.03565 0.0522,-0.35344 0.105438,-0.70674 0.159049,-1.06001 0.05197,-0.34917 0.10052,-0.69874 0.153627,-1.04778 0.05265,-0.34946 0.106326,-0.69879 0.159754,-1.04816 0.05249,-0.35148 0.100891,-0.70343 0.154395,-1.0548 0.05289,-0.35273 0.107024,-0.7053 0.161835,-1.0578 0.05546,-0.35851 0.111638,-0.71693 0.162946,-1.07593 0.05304,-0.35525 0.107463,-0.71034 0.163256,-1.06526 0.0562,-0.35919 0.11288,-0.71832 0.16444,-1.07807 0.05399,-0.36122 0.108532,-0.72237 0.164294,-1.08337 0.05602,-0.36905 0.107913,-0.73855 0.160722,-1.10797 0.05468,-0.37998 0.109365,-0.75995 0.166378,-1.13966 0.05705,-0.37831 0.116545,-0.75633 0.17042,-1.13501 0.05392,-0.37463 0.109972,-0.74903 0.162809,-1.12379 0.05214,-0.36563 0.105595,-0.73111 0.160353,-1.09644 0.05521,-0.37004 0.111795,-0.73992 0.164133,-1.11029 0.05208,-0.3619 0.10591,-0.7236 0.161862,-1.08505 0.05665,-0.36494 0.113779,-0.72981 0.1718,-1.09457 0.05946,-0.36782 0.121671,-0.73525 0.193013,-1.10142 0.06935,-0.36929 0.139926,-0.7384 0.210597,-1.10749 0.07345,-0.3853 0.14686,-0.77061 0.214586,-1.15675 0.07144,-0.39576 0.143904,-0.79138 0.217391,-1.18685 0.07395,-0.401209 0.14497,-0.802825 0.216225,-1.204418 0.07186,-0.405553 0.140926,-0.81148 0.21197,-1.217147 0.0726,-0.412149 0.145876,-0.824203 0.22054,-1.236061 0.07519,-0.416219 0.151242,-0.832316 0.223667,-1.248924 0.07115,-0.401971 0.139827,-0.804285 0.212583,-1.206034 0.07212,-0.403778 0.143233,-0.80768 0.212598,-1.211839 0.0716,-0.406146 0.144019,-0.812176 0.218689,-1.217885 0.0751,-0.409136 0.15274,-0.817912 0.22428,-1.227556 0.07004,-0.403333 0.136865,-0.807098 0.202183,-1.211056 0.06563,-0.396899 0.133701,-0.79348 0.197062,-1.19067 0.06279,-0.39211 0.122214,-0.784624 0.183385,-1.176935 0.06222,-0.397087 0.125766,-0.794004 0.187205,-1.191186 0.05829,-0.393343 0.11661,-0.786673 0.170908,-1.180471 0.05503,-0.396557 0.105358,-0.793615 0.159339,-1.190283 0.05301,-0.398161 0.105888,-0.796372 0.148024,-1.195586 0.03966,-0.372277 0.07343,-0.745093 0.09519,-1.118571 0.02239,-0.359961 0.0417,-0.720095 0.04884,-1.080593 0.006,-0.343329 0.0088,-0.686721 -5.95e-4,-1.030036 -0.0093,-0.331422 -0.01858,-0.662847 -0.02998,-0.99422 -0.01277,-0.333248 -0.02978,-0.666379 -0.04989,-0.999336 -0.02287,-0.316741 -0.047,-0.633487 -0.08596,-0.949055 -0.03542,-0.30466 -0.07166,-0.609243 -0.109399,-0.913683 -0.03762,-0.304919 -0.07545,-0.609825 -0.115864,-0.914464 -0.03936,-0.294544 -0.08015,-0.588936 -0.122732,-0.883126 -0.04272,-0.297172 -0.08572,-0.594315 -0.130722,-0.891225 -0.04494,-0.288155 -0.09536,-0.575567 -0.151752,-0.862142 -0.05183,-0.263642 -0.10528,-0.527045 -0.16491,-0.789395 -0.05561,-0.243139 -0.113556,-0.485987 -0.189566,-0.724874 -0.07158,-0.216717 -0.149864,-0.431697 -0.246845,-0.640667 -0.09151,-0.196705 -0.184075,-0.393377 -0.299569,-0.580192 -0.104346,-0.166354 -0.216791,-0.329496 -0.358035,-0.473585 -0.124244,-0.125161 -0.255646,-0.244629 -0.401957,-0.349727 -0.141158,-0.100644 -0.284374,-0.199712 -0.441532,-0.280244 -0.155238,-0.0771 -0.317493,-0.14239 -0.490826,-0.180459 -0.179958,-0.03821 -0.362083,-0.06847 -0.546072,-0.08666 -0.18705,-0.01905 -0.375043,-0.03399 -0.563558,-0.02807 -0.193124,0.0067 -0.385691,0.02162 -0.577301,0.0443 -0.194216,0.02389 -0.388417,0.04789 -0.582339,0.07361 -0.195487,0.02651 -0.390262,0.05694 -0.583901,0.09266 -0.194764,0.03835 -0.388834,0.07907 -0.581686,0.124502 -0.200329,0.04526 -0.400675,0.09047 -0.600485,0.13752 -0.203833,0.04767 -0.407404,0.09622 -0.610691,0.145695 -0.209615,0.05156 -0.419381,0.10269 -0.628147,0.156914 -0.220993,0.05969 -0.44222,0.118793 -0.661981,0.182004 -0.224521,0.06769 -0.449108,0.135319 -0.671376,0.208701 -0.223497,0.07672 -0.44654,0.154593 -0.66521,0.241763 -0.225141,0.0879 -0.450327,0.175707 -0.675208,0.264131 -0.231069,0.09135 -0.461326,0.184309 -0.691956,0.276519 -0.224724,0.08797 -0.449386,0.176083 -0.672848,0.266565 -0.220957,0.08844 -0.443032,0.174696 -0.662701,0.26567 -0.222017,0.09178 -0.444041,0.183553 -0.667502,0.272532 -0.228398,0.09211 -0.456528,0.18474 -0.683053,0.280442 -0.227458,0.09668 -0.453894,0.195226 -0.681322,0.291963 -0.226158,0.09702 -0.451183,0.19613 -0.674305,0.298571 -0.231268,0.105331 -0.46254,0.210654 -0.693775,0.316043 -0.237577,0.108331 -0.475002,0.216931 -0.712299,0.325744 -0.222649,0.103801 -0.445122,0.207902 -0.665479,0.315521 -0.211124,0.102796 -0.421923,0.206118 -0.632178,0.310311 -0.208331,0.101873 -0.416203,0.204468 -0.62256,0.309473 -0.205691,0.101597 -0.41,0.205324 -0.614464,0.308848 68.288053,-35.03794 -48.011972,24.634436 20.27876,-10.405414 0.09801,-0.05029 -0.392422,0.200485 -0.292707,0.15291 -0.196896,0.105233 -0.392502,0.212363 -0.588522,0.318879 -0.197104,0.107873 -0.393446,0.216881 -0.593244,0.320812 -13.612027,7.217164 -41.938296,21.306338 -0.562385,0.29268 -6.963481,3.607435 -0.113776,0.05909 -20.758562,10.65145 -0.02999,0.0154 -0.120082,0.06135 -0.09009,0.04596 6.828682,-3.503793 27.316433,-14.01254 20.486174,-10.511176 -21.622007,11.08398 -13.736866,7.121964 -20.752851,10.646981 -0.165736,0.08421 -0.331986,0.167611 -0.499073,0.24969 -7.428214,3.67755 27.333374,-14.050923 20.112033,-10.323523 -68.579556,35.188758 13.93342,-7.150931 -0.434032,0.225528 -0.136168,0.07176 -0.272102,0.143862 -0.408249,0.215654 -0.128505,0.06765 -0.257072,0.135192 -0.385556,0.20287 -6.933512,3.557508 -13.909018,7.223759 -20.92722,10.73446 -0.11422,0.05413 -0.227449,0.10985 -0.340331,0.166143 -0.104222,0.05215 -0.209645,0.102393 -0.313602,0.154966 -6.951277,3.507608 -15.350625,5.097145 20.286015,-10.412378 -0.08776,0.04563 -0.174444,0.09281 -0.259314,0.142608 -0.07621,0.04452 -0.15023,0.0918 -0.22341,0.140165 -0.07007,0.04564 -0.13956,0.09195 -0.209582,0.137645 -0.0554,0.03497 -0.109623,0.07135 -0.164072,0.107468 -0.0454,0.03131 -0.09061,0.06288 -0.136897,0.09317 -0.03514,0.02246 -0.07164,0.04355 -0.104256,0.06886 0,0 -20.57607,10.557145 -20.57607,10.557145 z"
       inkscape:connector-curvature="0" />
    <path
       style="fill:#000000;stroke-width:0.27105373"
       id="path658"
       d="m 75.838575,130.52688 c 6.564302,-3.3926 -25.466826,14.35075 -18.999175,10.44161 0.06242,-0.0371 0.125088,-0.0738 0.187925,-0.11025 0.07635,-0.0439 0.15212,-0.0888 0.227988,-0.1335 0.08562,-0.0497 0.170961,-0.0999 0.25754,-0.14802 63.710517,-35.33868 -12.699553,7.30557 0.290925,-0.16294 0.104069,-0.0578 0.205207,-0.12024 0.307936,-0.18016 0.10842,-0.0626 0.216467,-0.12571 0.324557,-0.18879 0.115008,-0.0695 0.230611,-0.13804 0.346117,-0.20675 0.111169,-0.0661 0.222346,-0.13221 0.333523,-0.19831 0.109853,-0.065 0.220829,-0.12833 0.331169,-0.19262 6.465579,-3.66652 12.935966,-7.33319 19.549592,-10.75143 0.143048,-0.0759 0.28696,-0.15016 0.43114,-0.22403 0.158908,-0.0819 0.31921,-0.16127 0.479292,-0.24104 0.15348,-0.0764 0.30697,-0.15283 0.460461,-0.22923 0.145441,-0.0721 0.290336,-0.14518 0.436207,-0.21646 0.155957,-0.0741 0.312313,-0.14736 0.466811,-0.22418 0.177587,-0.0897 0.354524,-0.18061 0.532626,-0.26943 0.1872,-0.095 0.37458,-0.18975 0.561571,-0.28518 0.203552,-0.10271 0.406527,-0.20647 0.610173,-0.309 0.214614,-0.10696 0.430792,-0.211 0.646287,-0.31631 0.226369,-0.11188 0.454448,-0.22055 0.68217,-0.3299 0.231165,-0.11333 0.464849,-0.22185 0.698028,-0.33133 0.233705,-0.11013 0.468029,-0.21905 0.703066,-0.32658 0.228919,-0.10489 0.458929,-0.20757 0.689265,-0.30957 0.223304,-0.0998 0.44793,-0.19678 0.673259,-0.29232 0.225603,-0.0942 0.449704,-0.19157 0.67517,-0.28604 0.225487,-0.0931 0.449893,-0.18851 0.674939,-0.28253 0.222611,-0.0927 0.44306,-0.1899 0.664989,-0.28399 0.223651,-0.0948 0.449389,-0.18507 0.674698,-0.27622 0.232592,-0.0932 0.464942,-0.18699 0.697755,-0.2797 0.229695,-0.0919 0.460083,-0.18219 0.690776,-0.27179 0.227071,-0.09 0.454101,-0.1801 0.68154,-0.26925 0.225277,-0.0873 0.4509,-0.17386 0.678549,-0.25537 0.221352,-0.0792 0.444394,-0.15374 0.66966,-0.22213 0.210794,-0.0663 0.426016,-0.11763 0.643485,-0.15934 0.20118,-0.036 0.404134,-0.0617 0.60791,-0.0796 0.19101,-0.0159 0.38253,-0.0179 0.57396,-0.01 0.1756,0.006 0.34589,0.041 0.51187,0.0937 0.15487,0.0503 0.297248,0.12641 0.433188,0.21203 0.13913,0.0896 0.26334,0.19735 0.38169,0.31027 0.12382,0.1183 0.22504,0.25425 0.31883,0.39469 0.0992,0.15181 0.17504,0.3155 0.24936,0.47921 0.08,0.17306 0.13281,0.35512 0.17537,0.53928 0.0448,0.20528 0.0688,0.41371 0.0875,0.62237 0.0184,0.22709 0.0284,0.45479 0.0355,0.68244 0.007,0.23383 0.006,0.46777 0.005,0.70167 -0.003,0.23602 -0.009,0.47195 -0.02,0.70778 -0.009,0.24505 -0.0281,0.48968 -0.0508,0.73393 -0.025,0.25927 -0.0506,0.51849 -0.0798,0.77738 -0.0289,0.26173 -0.0597,0.52322 -0.0956,0.78416 -0.0347,0.27403 -0.0867,0.54554 -0.14121,0.8165 -0.06,0.29138 -0.12403,0.58198 -0.18755,0.87267 -0.0648,0.29752 -0.12784,0.59535 -0.19388,0.89262 -0.0682,0.30743 -0.13921,0.61432 -0.20901,0.92143 -0.0761,0.34543 -0.15043,0.69122 -0.22276,1.03738 -0.0763,0.36685 -0.1475,0.73465 -0.21852,1.10245 -0.0704,0.3661 -0.139129,0.73249 -0.206489,1.0991 -0.0682,0.37075 -0.13298,0.74206 -0.19496,1.1138 -0.0643,0.39236 -0.12433,0.78533 -0.18407,1.17834 -0.059,0.38779 -0.11668,0.77576 -0.17379,1.16381 -0.0553,0.38018 -0.10952,0.76048 -0.1674,1.14031 -0.0571,0.3708 -0.11367,0.74166 -0.16974,1.11259 -0.054,0.36275 -0.11365,0.72468 -0.17148,1.08688 -0.0578,0.36455 -0.11296,0.72948 -0.170233,1.09412 -0.05877,0.37383 -0.116013,0.74787 -0.172518,1.12201 -0.05573,0.36916 -0.109999,0.73852 -0.163524,1.10798 -0.05111,0.36395 -0.104951,0.72753 -0.160008,1.09095 -0.05499,0.35949 -0.10812,0.71922 -0.160806,1.07902 -0.05562,0.36168 -0.111279,0.72335 -0.165234,1.08526 -0.05615,0.37325 -0.108173,0.74703 -0.155254,1.12142 -0.04639,0.37509 -0.09078,0.75042 -0.134914,1.12575 -0.04292,0.36674 -0.08512,0.73356 -0.126739,1.10043 -0.04062,0.35894 -0.08029,0.71797 -0.119644,1.07704 -0.03852,0.35521 -0.07609,0.71051 -0.116275,1.06555 -0.04282,0.37518 -0.08239,0.75068 -0.121481,1.12621 -0.03915,0.37746 -0.07745,0.755 -0.115351,1.13257 -0.03694,0.3696 -0.07315,0.73926 -0.108908,1.10896 -0.03421,0.36737 -0.07116,0.73448 -0.108435,1.10158 -0.04072,0.39255 -0.08522,0.78472 -0.1308,1.17679 -0.04586,0.39372 -0.09162,0.78746 -0.136079,1.18133 -0.04534,0.40254 -0.08742,0.80539 -0.128859,1.2083 -0.04166,0.40825 -0.08186,0.81664 -0.121669,1.22506 -0.03736,0.40803 -0.06948,0.81647 -0.101803,1.22488 -0.03002,0.40337 -0.05562,0.80699 -0.07714,1.21083 -0.01994,0.40064 -0.03064,0.80158 -0.03988,1.20255 -0.0094,0.39408 -0.01333,0.78829 -0.0094,1.18246 0.0042,0.38356 0.01469,0.767 0.03379,1.15014 0.02036,0.37777 0.05751,0.75438 0.09865,1.13052 0.04188,0.36459 0.09036,0.72842 0.144297,1.09156 0.0509,0.34947 0.114428,0.69708 0.178826,1.04447 0.06255,0.33475 0.132721,0.66813 0.211025,0.99985 0.07389,0.32697 0.169537,0.64868 0.271277,0.96859 0.104636,0.31938 0.221068,0.63512 0.33961,0.95 0.115184,0.30666 0.240925,0.60933 0.377267,0.90796 0.139343,0.30325 0.294177,0.59971 0.451803,0.89461 0.153952,0.29102 0.31672,0.57757 0.485733,0.86087 0.174976,0.28563 0.363526,0.56343 0.554176,0.83972 0.18891,0.27227 0.3825,0.54161 0.58117,0.80751 0.19591,0.26459 0.400929,0.52274 0.612599,0.77602 0.22158,0.26162 0.46048,0.50923 0.70214,0.75396 0.24424,0.24617 0.49397,0.48733 0.74502,0.72717 0.2487,0.23667 0.50372,0.46716 0.76325,0.69301 0.25221,0.21985 0.510845,0.43281 0.771515,0.64347 0.25644,0.20812 0.52182,0.40581 0.7905,0.59927 0.271248,0.19607 0.552598,0.37866 0.835668,0.55869 0.28332,0.18337 0.57961,0.34703 0.87818,0.50647 0.29276,0.15575 0.5938,0.29623 0.89723,0.43186 0.29675,0.13142 0.59967,0.24928 0.90428,0.36295 0.30285,0.11404 0.60997,0.21698 0.91858,0.31585 0.30953,0.0995 0.62222,0.18985 0.93645,0.27492 0.31644,0.0838 0.63677,0.15313 0.95678,0.22316 0.3137,0.0679 0.62929,0.12675 0.94611,0.17954 0.3107,0.052 0.62353,0.0895 0.93759,0.11658 0.31566,0.0236 0.63224,0.0334 0.94868,0.0411 0.3111,0.008 0.62219,-0.001 0.93244,-0.0231 0.31313,-0.0257 0.62479,-0.0645 0.93604,-0.10547 0.31088,-0.0393 0.62074,-0.0852 0.93001,-0.13471 0.30772,-0.0504 0.61345,-0.11095 0.91822,-0.17543 0.30247,-0.0633 0.60363,-0.13196 0.903,-0.2074 0.29744,-0.0744 0.59191,-0.15889 0.88627,-0.24355 0.29375,-0.0868 0.58714,-0.17458 0.87857,-0.26824 0.30067,-0.0956 0.59816,-0.1999 0.89553,-0.30434 0.29315,-0.10388 0.58439,-0.21237 0.87415,-0.32454 0.29145,-0.11365 0.57897,-0.23613 0.86691,-0.35756 0.28753,-0.12231 0.57291,-0.2491 0.85709,-0.37831 0.28251,-0.12942 0.56315,-0.26252 0.84352,-0.39611 0.27417,-0.13267 0.54651,-0.2688 0.81716,-0.40789 0.26272,-0.13407 0.52109,-0.27564 0.78067,-0.41508 7.24013,-3.92274 -25.417373,14.05134 -18.43489,10.14132 0.2484,-0.1399 0.49383,-0.28446 0.73856,-0.43012 0.24386,-0.14727 0.48809,-0.29399 0.73306,-0.43962 0.1581,-0.0939 0.31629,-0.18771 0.47447,-0.28153 0,0 19.19079,-10.55714 19.19079,-10.55714 v 0 c -0.15818,0.0938 -0.31636,0.18761 -0.47447,0.28152 -0.24495,0.14563 -0.48919,0.29235 -0.73307,0.43963 -0.24472,0.14565 -0.49015,0.29021 -0.73856,0.43012 -6.61903,3.7065 -13.2703,7.3612 -19.94667,10.97296 -0.2596,0.13945 -0.51796,0.28101 -0.78068,0.41509 -0.27065,0.13909 -0.54298,0.27521 -0.81716,0.40789 -0.28037,0.13359 -0.561008,0.26668 -0.843518,0.3961 -0.28417,0.12922 -0.56956,0.256 -0.85708,0.37832 -0.287945,0.12142 -0.575455,0.24391 -0.866915,0.35755 -0.28976,0.11217 -0.581,0.22066 -0.87416,0.32455 -0.29737,0.10444 -0.59485,0.20876 -0.89553,0.30434 -0.29142,0.0936 -0.584809,0.18147 -0.878569,0.26824 -0.29435,0.0847 -0.58883,0.16917 -0.886272,0.24354 -0.299372,0.0755 -0.600529,0.14413 -0.902986,0.2074 -0.304767,0.0645 -0.61051,0.12508 -0.918236,0.17544 -0.309269,0.0495 -0.619116,0.0954 -0.930001,0.13471 -0.311253,0.041 -0.622915,0.0798 -0.936046,0.10547 -0.310245,0.0219 -0.62134,0.031 -0.932436,0.0231 -0.316448,-0.008 -0.633021,-0.0175 -0.948671,-0.0411 -0.314076,-0.0271 -0.626903,-0.0646 -0.9376,-0.11658 -0.316825,-0.0528 -0.632412,-0.11168 -0.94611,-0.17954 -0.320017,-0.07 -0.640337,-0.13938 -0.956785,-0.22316 -0.314223,-0.0851 -0.626903,-0.17539 -0.936445,-0.27492 -0.308608,-0.0989 -0.615736,-0.20181 -0.918592,-0.31585 -0.30461,-0.11367 -0.607529,-0.23153 -0.904278,-0.36295 -0.303434,-0.13563 -0.604475,-0.27611 -0.897224,-0.43186 -0.298575,-0.15944 -0.594862,-0.3231 -0.878177,-0.50647 -0.283073,-0.18003 -0.564436,-0.36262 -0.835671,-0.55869 -0.268695,-0.19346 -0.534063,-0.39115 -0.79051,-0.59927 -0.260667,-0.21066 -0.519293,-0.42362 -0.771515,-0.64347 -0.259516,-0.22585 -0.514545,-0.45634 -0.763245,-0.69301 -0.251056,-0.23984 -0.500779,-0.481 -0.745025,-0.72717 -0.241656,-0.24474 -0.480541,-0.49234 -0.702129,-0.75397 -0.211674,-0.25327 -0.416696,-0.51142 -0.612601,-0.77602 -0.198668,-0.26589 -0.392257,-0.53523 -0.581173,-0.8075 -0.190645,-0.27629 -0.379194,-0.55409 -0.554179,-0.83972 -0.169,-0.2833 -0.331768,-0.56985 -0.485732,-0.86087 -0.157622,-0.29491 -0.312457,-0.59136 -0.451793,-0.89461 -0.136344,-0.29863 -0.262087,-0.6013 -0.37727,-0.90796 -0.118548,-0.31488 -0.234961,-0.63062 -0.339609,-0.95 -0.101739,-0.31991 -0.197418,-0.64162 -0.271281,-0.96859 -0.0783,-0.33172 -0.148433,-0.66511 -0.211023,-0.99985 -0.0644,-0.34739 -0.127902,-0.695 -0.178829,-1.04447 -0.0539,-0.36314 -0.10238,-0.72698 -0.144292,-1.09156 -0.04114,-0.37614 -0.07828,-0.75275 -0.09868,-1.13052 -0.01913,-0.38314 -0.03009,-0.76658 -0.03381,-1.15014 -0.0038,-0.39418 2.78e-4,-0.78838 0.0095,-1.18246 0.0092,-0.40097 0.01996,-0.80191 0.0399,-1.20255 0.02158,-0.40384 0.0472,-0.80747 0.07718,-1.21083 0.03234,-0.40841 0.06447,-0.81685 0.101791,-1.22489 0.03979,-0.40841 0.07998,-0.8168 0.12167,-1.22505 0.04146,-0.40291 0.08356,-0.80576 0.128859,-1.2083 0.04444,-0.39387 0.09023,-0.78761 0.136086,-1.18134 0.04556,-0.39206 0.09006,-0.78423 0.130797,-1.17678 0.03726,-0.3671 0.07426,-0.73421 0.108432,-1.10158 0.03579,-0.3697 0.07193,-0.73937 0.108916,-1.10896 0.03794,-0.37757 0.07615,-0.75511 0.115343,-1.13257 0.03909,-0.37554 0.07869,-0.75103 0.121484,-1.12621 0.04022,-0.35504 0.07781,-0.71034 0.116271,-1.06555 0.03936,-0.35907 0.07902,-0.7181 0.11965,-1.07704 0.04158,-0.36688 0.08381,-0.73369 0.126738,-1.10043 0.04416,-0.37534 0.0885,-0.75066 0.134917,-1.12575 0.04707,-0.37439 0.09907,-0.74817 0.155247,-1.12142 0.05395,-0.36191 0.109612,-0.72358 0.165235,-1.08526 0.05269,-0.3598 0.105816,-0.71954 0.160806,-1.07902 0.05509,-0.36342 0.108874,-0.727 0.160009,-1.09095 0.05353,-0.36946 0.107766,-0.73882 0.163527,-1.10798 0.05649,-0.37414 0.11375,-0.74819 0.172515,-1.12202 0.05727,-0.36463 0.112348,-0.72956 0.170233,-1.09411 0.05783,-0.3622 0.117565,-0.72413 0.171472,-1.08688 0.05608,-0.37094 0.112701,-0.74179 0.16975,-1.11259 0.05788,-0.37983 0.112084,-0.76014 0.167393,-1.14031 0.05711,-0.38805 0.114775,-0.77603 0.173796,-1.16381 0.05973,-0.39301 0.119778,-0.78598 0.184073,-1.17834 0.06197,-0.37174 0.126701,-0.74306 0.194961,-1.1138 0.06735,-0.36661 0.136072,-0.733 0.206486,-1.0991 0.07102,-0.3678 0.142177,-0.7356 0.218512,-1.10245 0.07233,-0.34616 0.146658,-0.69195 0.222765,-1.03738 0.0698,-0.30711 0.140758,-0.614 0.209009,-0.92143 0.06605,-0.29727 0.129109,-0.5951 0.193883,-0.89262 0.06352,-0.29069 0.127509,-0.58129 0.187541,-0.87267 0.0545,-0.27096 0.106441,-0.54247 0.141221,-0.81651 0.03593,-0.26093 0.0668,-0.52242 0.0956,-0.78415 0.02913,-0.2589 0.05472,-0.51811 0.07973,-0.77739 0.02261,-0.24424 0.04108,-0.48887 0.05078,-0.73392 0.01018,-0.23583 0.01697,-0.47177 0.01999,-0.70778 8.34e-4,-0.2339 0.0022,-0.46784 -0.0056,-0.70167 -0.007,-0.22765 -0.01713,-0.45535 -0.03549,-0.68244 -0.01878,-0.20867 -0.04276,-0.41709 -0.08757,-0.62237 -0.04256,-0.18416 -0.09541,-0.36623 -0.175364,-0.53928 -0.07433,-0.16371 -0.15019,-0.3274 -0.249359,-0.47921 -0.09381,-0.14044 -0.19501,-0.27639 -0.318832,-0.39469 -0.118353,-0.11292 -0.242567,-0.22069 -0.381691,-0.31027 -0.135937,-0.0856 -0.278313,-0.16173 -0.433187,-0.21203 -0.165982,-0.0526 -0.336282,-0.0882 -0.511877,-0.0937 -0.191423,-0.008 -0.382944,-0.006 -0.573965,0.01 -0.203771,0.0179 -0.406724,0.0437 -0.607902,0.0796 -0.21747,0.0417 -0.432693,0.093 -0.643484,0.15934 -0.22527,0.0684 -0.448307,0.14295 -0.669659,0.22213 -0.227653,0.0815 -0.45327,0.16809 -0.67855,0.25537 -0.227442,0.0892 -0.454472,0.17924 -0.681545,0.26925 -0.23069,0.0896 -0.461082,0.17988 -0.69077,0.27179 -0.232815,0.0927 -0.465163,0.18648 -0.697759,0.2797 -0.225305,0.0912 -0.451047,0.1814 -0.674693,0.27622 -0.221934,0.0941 -0.442383,0.19134 -0.664987,0.28399 -0.225054,0.094 -0.449452,0.18946 -0.674941,0.28253 -0.225472,0.0945 -0.449571,0.19186 -0.675171,0.28604 -0.225325,0.0955 -0.449954,0.19254 -0.673255,0.29232 -0.230345,0.102 -0.460352,0.20469 -0.689269,0.30958 -0.235033,0.10752 -0.469363,0.21644 -0.703064,0.32657 -0.233181,0.10949 -0.466862,0.21801 -0.698032,0.33133 -0.227719,0.10935 -0.455794,0.21802 -0.682166,0.3299 -0.215495,0.10531 -0.431679,0.20935 -0.646287,0.31631 -0.203655,0.10253 -0.406627,0.20629 -0.610182,0.309 -0.186986,0.0954 -0.374368,0.19015 -0.561576,0.28518 -0.178092,0.0888 -0.355031,0.17972 -0.53262,0.26943 -0.1545,0.0768 -0.310857,0.15009 -0.466806,0.22418 -0.145881,0.0713 -0.290776,0.14436 -0.436206,0.21646 -0.153492,0.0764 -0.30699,0.1528 -0.460461,0.22923 -0.160084,0.0798 -0.32039,0.15916 -0.479297,0.24104 -0.144181,0.0739 -0.288092,0.14818 -0.431141,0.22403 -6.893578,3.56294 25.46584,-14.12095 18.832005,-10.36286 -0.11034,0.0643 -0.221316,0.12758 -0.331167,0.19262 -0.111179,0.0661 -0.222354,0.1322 -0.333524,0.19831 -0.115507,0.0687 -0.231109,0.13728 -0.346118,0.20675 -0.10809,0.0631 -0.216136,0.12622 -0.324557,0.18879 -0.102726,0.0599 -0.203866,0.12233 -0.307936,0.18016 -12.44461,7.15468 -39.068956,21.23007 -0.290925,0.16294 -0.08658,0.0482 -0.171922,0.0983 -0.25754,0.14802 -0.07587,0.0447 -0.151636,0.0895 -0.227986,0.1335 -0.06283,0.0365 -0.125501,0.0732 -0.187927,0.11025 -6.300999,3.80841 -12.823721,7.27953 -19.382421,10.67268 0,0 19.190799,-10.55714 19.190799,-10.55714 z"
       inkscape:connector-curvature="0" />
  </g>
</svg>
