<?xml version="1.0" encoding="UTF-8" standalone="no"?>
<!-- Created with Inkscape (http://www.inkscape.org/) -->

<svg
   xmlns:dc="http://purl.org/dc/elements/1.1/"
   xmlns:cc="http://creativecommons.org/ns#"
   xmlns:rdf="http://www.w3.org/1999/02/22-rdf-syntax-ns#"
   xmlns:svg="http://www.w3.org/2000/svg"
   xmlns="http://www.w3.org/2000/svg"
   xmlns:sodipodi="http://sodipodi.sourceforge.net/DTD/sodipodi-0.dtd"
   xmlns:inkscape="http://www.inkscape.org/namespaces/inkscape"
   width="44.22485mm"
   height="41.694233mm"
   viewBox="0 0 44.22485 41.694233"
   version="1.1"
   id="svg880"
   inkscape:version="0.92.3 (2405546, 2018-03-11)"
   sodipodi:docname="R09.svg">
  <defs
     id="defs874" />
  <sodipodi:namedview
     id="base"
     pagecolor="#ffffff"
     bordercolor="#666666"
     borderopacity="1.0"
     inkscape:pageopacity="0.0"
     inkscape:pageshadow="2"
     inkscape:zoom="1.979899"
     inkscape:cx="120.55351"
     inkscape:cy="72.509006"
     inkscape:document-units="mm"
     inkscape:current-layer="layer1"
     showgrid="false"
     inkscape:window-width="1600"
     inkscape:window-height="845"
     inkscape:window-x="0"
     inkscape:window-y="27"
     inkscape:window-maximized="1"
     fit-margin-top="0"
     fit-margin-left="0"
     fit-margin-right="0"
     fit-margin-bottom="0" />
  <metadata
     id="metadata877">
    <rdf:RDF>
      <cc:Work
         rdf:about="">
        <dc:format>image/svg+xml</dc:format>
        <dc:type
           rdf:resource="http://purl.org/dc/dcmitype/StillImage" />
        <dc:title></dc:title>
      </cc:Work>
    </rdf:RDF>
  </metadata>
  <g
     inkscape:label="Layer 1"
     inkscape:groupmode="layer"
     id="layer1"
     transform="translate(-96.216039,-73.273328)">
    <path
       style="fill:#000000;stroke-width:0.26458332"
       id="path888"
       d="m 100.78744,86.80575 c 0.0273,-0.0071 0.0535,-0.01767 0.0795,-0.02831 0.0447,-0.01812 0.0873,-0.04106 0.1295,-0.06441 1.66858,-0.947465 -6.092547,3.572957 -4.394507,2.535407 0.06673,-0.0407 0.132147,-0.08347 0.197533,-0.126265 0.07205,-0.04778 0.144412,-0.09509 0.217165,-0.141801 0.07732,-0.04973 0.155006,-0.09889 0.233156,-0.147304 0.08334,-0.05121 0.166579,-0.102579 0.249965,-0.153715 0.08866,-0.05402 0.177983,-0.106934 0.26729,-0.159872 0.09404,-0.05539 0.188201,-0.11058 0.282525,-0.165483 1.617705,-0.941033 3.234263,-1.884244 4.862703,-2.806579 0.10029,-0.0566 0.20123,-0.112037 0.30248,-0.166901 0.10535,-0.05647 0.21142,-0.111559 0.31747,-0.166706 0.10803,-0.05654 0.21627,-0.112708 0.3246,-0.168667 0.10781,-0.05523 0.21547,-0.110744 0.32288,-0.16674 0.10735,-0.05582 0.21456,-0.111916 0.32207,-0.167447 0.10932,-0.0567 0.21905,-0.112625 0.32873,-0.168619 0.11548,-0.05864 0.22992,-0.119298 0.34424,-0.180158 0.11868,-0.06356 0.23743,-0.126986 0.35625,-0.190272 0.12198,-0.06442 0.24378,-0.129188 0.36546,-0.194165 0.12403,-0.06627 0.24777,-0.13309 0.37192,-0.199125 0.1247,-0.06573 0.2493,-0.13163 0.37449,-0.196421 0.12664,-0.06576 0.25351,-0.131099 0.38041,-0.196363 0.12915,-0.06603 0.25857,-0.131554 0.38808,-0.196885 0.13203,-0.06683 0.26431,-0.133144 0.39612,-0.200398 0.13433,-0.06826 0.2688,-0.136223 0.40319,-0.204369 0.13497,-0.06836 0.26941,-0.137761 0.40376,-0.207325 0.13405,-0.06973 0.26816,-0.139332 0.40224,-0.208992 0.13274,-0.06847 0.26534,-0.1372 0.39801,-0.205798 0.13117,-0.06766 0.26178,-0.136406 0.39243,-0.205047 0.12868,-0.06793 0.25751,-0.135549 0.38605,-0.203729 0.12731,-0.06729 0.25447,-0.134871 0.38146,-0.202753 0.12595,-0.06708 0.25202,-0.133932 0.37814,-0.200676 0.12601,-0.06664 0.25175,-0.133744 0.37677,-0.202231 0.12588,-0.06959 0.25129,-0.140021 0.37665,-0.210532 0.12666,-0.07172 0.25353,-0.143087 0.3801,-0.214969 0.12775,-0.0723 0.25518,-0.145174 0.38271,-0.217858 0.12964,-0.0741 0.25899,-0.148711 0.38856,-0.222935 1.60683,-0.920176 3.52685,-2.034902 -4.18117,2.415302 1.66002,-0.940575 3.30333,-1.910186 4.95718,-2.861501 0.128,-0.0739 0.25625,-0.147362 0.38488,-0.220151 0.12942,-0.07291 0.25916,-0.145257 0.38884,-0.217708 0.13,-0.07228 0.25977,-0.144973 0.3895,-0.217746 0.12773,-0.07152 0.2561,-0.141902 0.38433,-0.21254 0.12548,-0.06959 0.25131,-0.138546 0.37709,-0.207582 0.12448,-0.06791 0.24932,-0.135146 0.37424,-0.202244 0.12537,-0.06764 0.25102,-0.134777 0.37688,-0.201502 0.12712,-0.06729 0.25484,-0.133437 0.38246,-0.199776 0.12866,-0.06657 0.25714,-0.133517 0.38534,-0.200978 0.12874,-0.06774 0.25752,-0.135416 0.38625,-0.203192 0.12898,-0.0673 0.25732,-0.135823 0.38573,-0.204208 0.1278,-0.06776 0.25579,-0.135167 0.38348,-0.203136 0.12701,-0.06758 0.25338,-0.136377 0.37966,-0.20532 0.12515,-0.0682 0.25045,-0.136144 0.37563,-0.204292 0.12266,-0.06697 0.24517,-0.134218 0.36765,-0.201507 0.11991,-0.06558 0.23993,-0.130977 0.3597,-0.196818 0.11672,-0.06384 0.23318,-0.12817 0.34979,-0.192225 0.11355,-0.0623 0.2271,-0.124622 0.34035,-0.187458 0.11041,-0.0609 0.22063,-0.122142 0.33108,-0.182972 0.1073,-0.05924 0.21468,-0.118343 0.32202,-0.177536 0.10439,-0.05754 0.20868,-0.115228 0.31278,-0.173299 0.10019,-0.05615 0.20095,-0.111268 0.30134,-0.167055 0.0986,-0.05439 0.19711,-0.108932 0.29615,-0.162513 0.0973,-0.05303 0.19478,-0.105732 0.29223,-0.158482 0.0932,-0.05121 0.18635,-0.102352 0.2796,-0.153398 0.0887,-0.04847 0.17727,-0.09719 0.2661,-0.145447 0.0852,-0.04595 0.16973,-0.09298 0.25439,-0.139848 0.0806,-0.04487 0.16147,-0.08905 0.2424,-0.133236 0.0769,-0.04195 0.15376,-0.08388 0.23065,-0.125817 0.0724,-0.03945 0.14484,-0.07889 0.21702,-0.11879 0.0674,-0.03733 0.13475,-0.07475 0.20211,-0.112157 0.0636,-0.0353 0.12712,-0.0706 0.19068,-0.105894 0.0601,-0.03331 0.1201,-0.06688 0.18034,-0.09998 0.0577,-0.03158 0.11556,-0.06297 0.17338,-0.0944 0.0547,-0.02971 0.10933,-0.05942 0.164,-0.08913 0.0516,-0.02805 0.10323,-0.0561 0.15484,-0.08415 0.0487,-0.02648 0.0975,-0.05297 0.1462,-0.07945 0.046,-0.025 0.092,-0.05001 0.13804,-0.07501 0.0434,-0.0236 0.0869,-0.04722 0.13033,-0.07083 0.041,-0.02228 0.082,-0.04458 0.12305,-0.06687 0.0386,-0.02093 0.0771,-0.04207 0.11586,-0.06282 0.0346,-0.01902 0.0703,-0.03609 0.1066,-0.05157 0.0337,-0.01416 0.0683,-0.02551 0.10346,-0.0354 0.0328,-0.0092 0.0666,-0.01328 0.10048,-0.01617 0.0334,-0.0028 0.0666,-5.29e-4 0.0995,0.0049 0.0342,0.006 0.0671,0.01733 0.0996,0.02937 0.0343,0.01289 0.067,0.02942 0.0994,0.04637 0.0335,0.01807 0.0659,0.03796 0.0979,0.05844 0.0312,0.02019 0.0621,0.04071 0.0926,0.06191 0.031,0.02141 0.061,0.04414 0.0909,0.06695 0.0309,0.02315 0.0605,0.04799 0.0898,0.07302 0.0308,0.02611 0.0605,0.05347 0.0896,0.08145 0.0301,0.0301 0.0598,0.06062 0.0891,0.09153 0.0304,0.03246 0.0595,0.06597 0.0882,0.09989 0.0314,0.03741 0.0611,0.07623 0.0905,0.115255 0.0316,0.04227 0.062,0.08545 0.0923,0.128667 0.0328,0.04718 0.0645,0.0951 0.0956,0.143457 0.0346,0.05363 0.0676,0.108281 0.0997,0.163433 0.0349,0.05997 0.0688,0.120529 0.10257,0.18115 0.0356,0.06387 0.0704,0.128124 0.10525,0.192413 0.036,0.06704 0.0714,0.134358 0.10673,0.201742 0.0369,0.07 0.0738,0.139957 0.11011,0.210272 0.0375,0.07179 0.0746,0.143754 0.11154,0.215816 0.0379,0.0732 0.0752,0.146711 0.11308,0.219908 0.0386,0.07464 0.0768,0.149458 0.11513,0.224216 0.0388,0.07577 0.0774,0.151598 0.11698,0.226983 0.0404,0.07776 0.082,0.154887 0.12401,0.231778 0.043,0.07896 0.0866,0.15761 0.13061,0.236053 0.0447,0.0801 0.0895,0.160068 0.13463,0.239901 0.0465,0.08211 0.0934,0.164015 0.14083,0.245612 0.049,0.08395 0.0984,0.167706 0.14786,0.251415 0.0517,0.08607 0.10384,0.171821 0.15559,0.257826 0.0539,0.08925 0.10824,0.178255 0.16212,0.267528 0.0545,0.09015 0.10904,0.180295 0.16331,0.27059 0.0554,0.09194 0.11112,0.183673 0.16631,0.275733 0.0572,0.09509 0.11433,0.19024 0.17139,0.285424 0.0576,0.09659 0.11581,0.192784 0.17316,0.28951 0.0576,0.09734 0.11507,0.194791 0.17187,0.292618 0.0568,0.09763 0.11319,0.195491 0.16975,0.293254 0.0561,0.0957 0.11122,0.191939 0.16671,0.287973 0.0546,0.09474 0.10864,0.189806 0.16254,0.284948 0.0539,0.09429 0.10711,0.188944 0.16086,0.2833 0.0535,0.09363 0.1061,0.187806 0.15878,0.281916 0.0519,0.0929 0.10314,0.186211 0.15443,0.279477 0.0499,0.09178 0.0998,0.183594 0.14961,0.275415 0.0496,0.0916 0.0984,0.183587 0.14696,0.275725 0.0502,0.09445 0.099,0.189667 0.14817,0.284657 0.049,0.09475 0.0975,0.189773 0.14634,0.284599 0.0482,0.09207 0.0964,0.18415 0.14474,0.276172 0.0471,0.09003 0.0945,0.179944 0.14187,0.269833 0.0469,0.08761 0.0934,0.175459 0.14048,0.262988 0.0456,0.08579 0.0922,0.171106 0.13803,0.256762 0.0454,0.08373 0.0907,0.167571 0.13617,0.251257 0.0446,0.08261 0.09,0.164771 0.1353,0.246951 0.0455,0.08161 0.0912,0.163132 0.13634,0.24492 0.0445,0.08092 0.0896,0.161499 0.13513,0.241839 0.0444,0.07896 0.0889,0.157856 0.13389,0.236527 0.0444,0.07775 0.089,0.155461 0.1337,0.23305 0.0443,0.07671 0.0888,0.153319 0.13369,0.22972 0.0441,0.07527 0.0889,0.1501 0.13338,0.225163 0.044,0.07373 0.0884,0.147243 0.1325,0.220937 0.0441,0.07295 0.0886,0.145606 0.13342,0.218102 0.0444,0.07222 0.0897,0.143893 0.13485,0.215654 0.0445,0.07112 0.089,0.142269 0.13388,0.213143 0.0446,0.07083 0.0894,0.141576 0.13418,0.212304 0.0449,0.07205 0.0904,0.143769 0.13544,0.215712 0.0455,0.07165 0.0904,0.143589 0.13549,0.21549 0.0445,0.07063 0.0882,0.14178 0.13142,0.213201 0.0419,0.06958 0.0837,0.139261 0.12393,0.209884 0.0391,0.06925 0.0767,0.139313 0.11391,0.209616 0.037,0.06988 0.0736,0.139935 0.10975,0.210232 0.0356,0.06941 0.0717,0.138557 0.10734,0.207963 0.0353,0.06849 0.0678,0.138364 0.10004,0.208306 0.0319,0.06972 0.0606,0.140814 0.0888,0.212096 0.0272,0.07015 0.0527,0.140935 0.0762,0.212428 0.0241,0.07269 0.0419,0.147109 0.0561,0.222301 0.0145,0.07943 0.0207,0.159996 0.026,0.240469 0.005,0.08253 0.005,0.1652 0.001,0.247764 -0.004,0.08511 -0.016,0.16956 -0.0308,0.253415 -0.0147,0.08489 -0.0379,0.167891 -0.0648,0.249634 -0.028,0.08543 -0.0667,0.166423 -0.10983,0.245063 -0.0483,0.08577 -0.10715,0.164708 -0.16858,0.241347 -0.0685,0.08452 -0.1431,0.163679 -0.21882,0.24166 -0.0792,0.08072 -0.1602,0.15962 -0.24155,0.238159 -0.0791,0.07692 -0.16004,0.152017 -0.24121,0.226788 -0.0815,0.07496 -0.16422,0.148587 -0.24763,0.221422 -0.0864,0.07519 -0.17426,0.148791 -0.26305,0.221199 -0.0941,0.07675 -0.19049,0.150628 -0.2875,0.223666 -0.10432,0.07833 -0.20998,0.154845 -0.31601,0.230849 -0.11342,0.0814 -0.22837,0.160634 -0.34282,0.240575 -0.12152,0.08458 -0.24262,0.169765 -0.36401,0.25455 -0.12808,0.09006 -0.25675,0.179282 -0.38583,0.267917 -0.13523,0.09328 -0.27234,0.183761 -0.40956,0.274077 -0.1418,0.09305 -0.28486,0.184121 -0.42809,0.274942 -0.14738,0.09286 -0.29567,0.18429 -0.44383,0.275899 -0.15038,0.0931 -0.3005,0.186606 -0.45072,0.279956 -0.14875,0.09252 -0.29752,0.184999 -0.44648,0.27718 -0.14656,0.09019 -0.29332,0.180068 -0.43994,0.270163 -0.14416,0.0891 -0.28846,0.178004 -0.43252,0.267277 -0.14278,0.0886 -0.28574,0.176911 -0.42864,0.265311 -0.14511,0.0897 -0.29007,0.179636 -0.43492,0.269761 -0.14815,0.09213 -0.29617,0.184468 -0.44408,0.276993 -0.15058,0.09459 -0.30178,0.188185 -0.45286,0.281993 -0.15322,0.09501 -0.3067,0.189611 -0.4601,0.284342 -0.1567,0.09675 -0.31345,0.193413 -0.47049,0.289618 -0.16201,0.09929 -0.32469,0.197464 -0.48727,0.295812 -0.16625,0.100611 -0.33334,0.199843 -0.50037,0.299165 -0.16895,0.10043 -0.3389,0.199175 -0.50843,0.298616 -0.17051,0.09998 -0.3413,0.199483 -0.51184,0.299413 -0.17086,0.1005 -0.34203,0.200459 -0.51314,0.300535 -0.16995,0.09959 -0.33977,0.199382 -0.5098,0.298834 -0.16941,0.09951 -0.3389,0.198879 -0.50846,0.298143 -0.16813,0.09871 -0.33624,0.197437 -0.50438,0.296119 -0.16555,0.09735 -0.33072,0.195342 -0.49614,0.292899 -0.16189,0.09545 -0.32394,0.190651 -0.48572,0.28629 -0.15855,0.09327 -0.31703,0.186679 -0.47565,0.279836 -0.15666,0.09188 -0.31316,0.184045 -0.46986,0.27586 -1.67663,0.976583 -3.36015,1.941513 -5.04044,2.911593 -0.15475,0.0893 -0.30998,0.17771 -0.46557,0.2655 -0.15358,0.0876 -0.3087,0.17244 -0.46388,0.25714 -0.15411,0.084 -0.30904,0.1665 -0.46407,0.24881 -0.15304,0.0811 -0.30603,0.16224 -0.45902,0.24341 -0.14825,0.0789 -0.29647,0.15781 -0.44456,0.23698 -0.14333,0.0766 -0.28642,0.15367 -0.42939,0.23094 -0.14116,0.0768 -0.28235,0.15364 -0.42322,0.231 -0.14267,0.0784 -0.28497,0.1575 -0.42706,0.23696 -0.14074,0.0791 -0.28155,0.15809 -0.42236,0.23707 -0.13881,0.0777 -0.27828,0.15418 -0.41779,0.23058 -0.13908,0.0762 -0.27814,0.15249 -0.41728,0.22859 -0.13845,0.0754 -0.27715,0.1504 -0.41579,0.2255 -0.14046,0.0757 -0.28142,0.1504 -0.42248,0.22496 -0.14252,0.0754 -0.28523,0.15032 -0.42765,0.22584 -0.14026,0.0741 -0.27986,0.14941 -0.41956,0.22453 -0.1356,0.0733 -0.27126,0.14651 -0.40686,0.21982 -0.13354,0.0717 -0.2667,0.14417 -0.40005,0.21626 -0.13234,0.072 -0.26532,0.14277 -0.39807,0.21401 -0.12913,0.0691 -0.258,0.13865 -0.38672,0.2085 -0.12457,0.0676 -0.24943,0.13468 -0.37409,0.20211 -0.12033,0.0648 -0.2402,0.13044 -0.3602,0.19586 -0.11609,0.063 -0.23193,0.12648 -0.3481,0.18937 -0.1127,0.0611 -0.22512,0.12282 -0.33754,0.18448 -0.10924,0.0592 -0.21797,0.11932 -0.32693,0.17904 -0.10417,0.057 -0.20824,0.11418 -0.31256,0.17091 -0.10039,0.0546 -0.20057,0.10955 -0.30108,0.16392 -0.0991,0.0532 -0.19814,0.10636 -0.2969,0.16012 -0.0982,0.0534 -0.19542,0.10865 -0.29245,0.1642 -1.66295,0.95763 6.17627,-3.58412 4.29262,-2.47665 -0.0876,0.0516 -0.1752,0.10325 -0.26326,0.1541 -1.65726,0.83926 -3.20317,1.87773 -4.82438,2.78201 -0.0822,0.0455 -0.16412,0.0915 -0.24625,0.13712 -0.0787,0.0437 -0.15736,0.0874 -0.2363,0.13066 -0.0757,0.0412 -0.1508,0.0836 -0.22597,0.12589 -0.0708,0.0402 -0.14206,0.0797 -0.21351,0.11873 -0.0676,0.0374 -0.13547,0.0743 -0.20564,0.10673 0,0 4.57138,-2.63929 4.57138,-2.63929 v 0 c 0.0702,-0.0324 0.13803,-0.0693 0.20563,-0.10673 0.0715,-0.0391 0.14269,-0.0785 0.21352,-0.11873 0.0752,-0.0422 0.15025,-0.0846 0.22597,-0.12589 0.0789,-0.0433 0.15763,-0.0869 0.2363,-0.13066 0.0821,-0.0456 0.16407,-0.0916 0.24625,-0.13711 1.58966,-0.88669 3.31096,-2.01787 -4.31838,2.49655 0.0881,-0.0508 0.17565,-0.10248 0.26326,-0.1541 1.60953,-0.94629 3.2309,-1.87235 4.85014,-2.80192 0.097,-0.0556 0.19422,-0.1108 0.29245,-0.16419 0.0988,-0.0538 0.19782,-0.10697 0.2969,-0.16013 0.10051,-0.0544 0.20069,-0.10933 0.30108,-0.16392 0.10432,-0.0567 0.20838,-0.11392 0.31256,-0.1709 0.10895,-0.0597 0.21769,-0.11984 0.32693,-0.17905 0.11242,-0.0617 0.22484,-0.12333 0.33754,-0.18448 0.11616,-0.0629 0.23201,-0.12636 0.3481,-0.18937 0.11999,-0.0654 0.23987,-0.13105 0.3602,-0.19586 0.12466,-0.0674 0.24952,-0.13451 0.37409,-0.20211 0.12872,-0.0699 0.25759,-0.13942 0.38672,-0.2085 0.13274,-0.0712 0.26573,-0.14203 0.39807,-0.21401 0.13335,-0.0721 0.26651,-0.14453 0.40005,-0.21626 0.1356,-0.0733 0.27126,-0.1465 0.40686,-0.21982 0.1397,-0.0751 0.27929,-0.15045 0.41956,-0.22452 0.14242,-0.0755 0.28514,-0.1505 0.42765,-0.22584 0.14106,-0.0746 0.28202,-0.14929 0.42248,-0.22496 0.13864,-0.0751 0.27734,-0.15008 0.41579,-0.22551 0.13914,-0.0761 0.2782,-0.15236 0.41728,-0.22859 0.13951,-0.0764 0.27898,-0.1529 0.41778,-0.23058 0.14082,-0.079 0.28163,-0.15796 0.42237,-0.23707 0.14209,-0.0795 0.28439,-0.15854 0.42706,-0.23696 0.14087,-0.0774 0.28205,-0.15416 0.42322,-0.231 0.14297,-0.0773 0.28606,-0.15432 0.42938,-0.23093 0.1481,-0.0792 0.29632,-0.15811 0.44457,-0.23699 0.15299,-0.0812 0.30598,-0.16234 0.45902,-0.24341 0.15503,-0.0823 0.30996,-0.1648 0.46407,-0.24881 0.15518,-0.0847 0.31029,-0.16954 0.46388,-0.257129 0.15559,-0.0878 0.31082,-0.176224 0.46556,-0.265505 -7.72557,4.460554 -5.71716,3.307644 -4.10231,2.366974 0.1567,-0.0918 0.3132,-0.18398 0.46986,-0.27586 0.15863,-0.0932 0.3171,-0.18657 0.47565,-0.27984 0.16179,-0.0956 0.32383,-0.19084 0.48572,-0.28629 0.16542,-0.0975 0.33059,-0.19555 0.49613,-0.29289 0.16815,-0.0987 0.33627,-0.19742 0.50439,-0.29613 0.16956,-0.0993 0.33905,-0.19863 0.50847,-0.29814 0.17002,-0.0995 0.33985,-0.19924 0.50979,-0.29883 0.17111,-0.100072 0.34228,-0.200034 0.51314,-0.300531 0.17054,-0.09993 0.34133,-0.199432 0.51184,-0.299416 0.16953,-0.09944 0.33948,-0.198186 0.50844,-0.298614 0.16702,-0.09932 0.33411,-0.198556 0.50036,-0.299167 0.16258,-0.09834 0.32526,-0.196522 0.48727,-0.295809 0.15704,-0.0962 0.31379,-0.192868 0.4705,-0.289618 0.15339,-0.09474 0.30687,-0.189336 0.46009,-0.284346 0.15107,-0.09381 0.30228,-0.187399 0.45286,-0.281992 0.14791,-0.09252 0.29593,-0.184865 0.44408,-0.276993 0.14485,-0.09012 0.28981,-0.180057 0.43492,-0.269758 0.1429,-0.0884 0.28586,-0.176713 0.42864,-0.265311 0.14406,-0.08927 0.28836,-0.178176 0.43252,-0.26728 0.14662,-0.09009 0.29338,-0.179967 0.43994,-0.27016 0.14896,-0.09218 0.29773,-0.184658 0.44648,-0.277183 0.15022,-0.09335 0.30034,-0.18686 0.45072,-0.279953 0.14817,-0.09161 0.29645,-0.183036 0.44383,-0.2759 0.14323,-0.09082 0.2863,-0.181893 0.42809,-0.274944 0.13722,-0.09031 0.27433,-0.180801 0.40956,-0.274074 0.12908,-0.08864 0.25775,-0.177858 0.38584,-0.26792 0.12138,-0.08478 0.24248,-0.169971 0.364,-0.25455 0.11445,-0.07994 0.2294,-0.159176 0.34282,-0.240575 0.10603,-0.076 0.21169,-0.152519 0.31601,-0.230849 0.097,-0.07304 0.19339,-0.146915 0.2875,-0.223663 0.0888,-0.07241 0.17661,-0.146005 0.26305,-0.221202 0.0834,-0.07283 0.16612,-0.146458 0.24763,-0.221419 0.0812,-0.07477 0.16207,-0.149866 0.24122,-0.226788 0.0813,-0.07854 0.16236,-0.157435 0.24155,-0.238159 0.0757,-0.07798 0.15036,-0.157144 0.21881,-0.24166 0.0614,-0.07664 0.12031,-0.155581 0.16858,-0.241348 0.0431,-0.07864 0.0819,-0.159636 0.10983,-0.245065 0.0269,-0.08174 0.0501,-0.164743 0.0648,-0.249634 0.0148,-0.08385 0.0265,-0.168299 0.0308,-0.253413 0.004,-0.08256 0.004,-0.165238 -0.001,-0.247764 -0.005,-0.08047 -0.0114,-0.161038 -0.026,-0.240469 -0.0142,-0.07519 -0.032,-0.149611 -0.0561,-0.2223 -0.0234,-0.0715 -0.0489,-0.14228 -0.0762,-0.212431 -0.0282,-0.07128 -0.0569,-0.142373 -0.0888,-0.212093 -0.0323,-0.06994 -0.0648,-0.139811 -0.10004,-0.208307 -0.0356,-0.06941 -0.0717,-0.138551 -0.10733,-0.207965 -0.0362,-0.07029 -0.0728,-0.140348 -0.10976,-0.21023 -0.0372,-0.0703 -0.0748,-0.140366 -0.11391,-0.209619 -0.0402,-0.07062 -0.082,-0.1403 -0.12393,-0.209883 -0.0432,-0.07142 -0.0869,-0.142571 -0.13142,-0.213198 -0.0451,-0.0719 -0.09,-0.143844 -0.13549,-0.21549 -0.0451,-0.07194 -0.0905,-0.143664 -0.13544,-0.215713 -0.0448,-0.07073 -0.0896,-0.141472 -0.13418,-0.212304 -0.0449,-0.07088 -0.0894,-0.142023 -0.13388,-0.213143 -0.0452,-0.07176 -0.0904,-0.143436 -0.13484,-0.215656 -0.0448,-0.07249 -0.0894,-0.145156 -0.13343,-0.218102 -0.0441,-0.07369 -0.0885,-0.147201 -0.1325,-0.220937 -0.0445,-0.07506 -0.0893,-0.149892 -0.13338,-0.225161 -0.0448,-0.0764 -0.0894,-0.153008 -0.13369,-0.229719 -0.0447,-0.07759 -0.0892,-0.1553 -0.1337,-0.233053 -0.0449,-0.07867 -0.0895,-0.157559 -0.13389,-0.236524 -0.0455,-0.08034 -0.0907,-0.160915 -0.13513,-0.24184 -0.0452,-0.08179 -0.0909,-0.163309 -0.13634,-0.244922 -0.0453,-0.08218 -0.0907,-0.164338 -0.1353,-0.246949 -0.0455,-0.08369 -0.0907,-0.167534 -0.13616,-0.251256 -0.0459,-0.08566 -0.0924,-0.170969 -0.13804,-0.256765 -0.0471,-0.08753 -0.0936,-0.175374 -0.14048,-0.262985 -0.0474,-0.08989 -0.0947,-0.179806 -0.14187,-0.269836 -0.0483,-0.09202 -0.0965,-0.184099 -0.14474,-0.276169 -0.0489,-0.09483 -0.0973,-0.189852 -0.14634,-0.284599 -0.0492,-0.09499 -0.0979,-0.190204 -0.14817,-0.284657 -0.0485,-0.09214 -0.0974,-0.184129 -0.14696,-0.275725 -0.0498,-0.09182 -0.0997,-0.183637 -0.14961,-0.275416 -0.0513,-0.09327 -0.10249,-0.186576 -0.15443,-0.279479 -0.0527,-0.09411 -0.10524,-0.188286 -0.15878,-0.281914 -0.0538,-0.09436 -0.10698,-0.189013 -0.16086,-0.283302 -0.0539,-0.09514 -0.10794,-0.190201 -0.16254,-0.284946 -0.0555,-0.09604 -0.11065,-0.192267 -0.16671,-0.287972 -0.0566,-0.09777 -0.11296,-0.195625 -0.16975,-0.293257 -0.0568,-0.09783 -0.11425,-0.195275 -0.17187,-0.292618 -0.0573,-0.09673 -0.11559,-0.192913 -0.17316,-0.28951 -0.0571,-0.09518 -0.11416,-0.190336 -0.17139,-0.285422 -0.0552,-0.09206 -0.11093,-0.183787 -0.1663,-0.275733 -0.0543,-0.0903 -0.1088,-0.18044 -0.16332,-0.270592 -0.0539,-0.08927 -0.10819,-0.178276 -0.16211,-0.267525 -0.0518,-0.08601 -0.10394,-0.17176 -0.1556,-0.257826 -0.0495,-0.08371 -0.0988,-0.167463 -0.14786,-0.251415 -0.0474,-0.0816 -0.0943,-0.163502 -0.14082,-0.245613 -0.0451,-0.07984 -0.09,-0.159808 -0.13463,-0.2399 -0.044,-0.07845 -0.0876,-0.157094 -0.13062,-0.236056 -0.042,-0.07689 -0.0836,-0.154011 -0.12401,-0.231775 -0.0395,-0.07539 -0.0782,-0.151217 -0.11698,-0.226986 -0.0383,-0.07476 -0.0766,-0.149572 -0.11512,-0.224213 -0.0379,-0.0732 -0.0752,-0.146709 -0.11309,-0.219911 -0.0369,-0.07206 -0.0741,-0.144021 -0.11154,-0.215816 -0.0363,-0.07031 -0.0732,-0.140277 -0.11011,-0.210272 -0.0353,-0.06738 -0.0708,-0.134705 -0.10673,-0.201742 -0.0348,-0.06429 -0.0697,-0.128543 -0.10525,-0.192413 -0.0338,-0.06062 -0.0677,-0.121177 -0.10256,-0.181147 -0.0321,-0.05515 -0.0651,-0.109802 -0.0997,-0.163433 -0.0311,-0.04836 -0.0628,-0.09628 -0.0956,-0.14346 -0.0303,-0.04321 -0.0607,-0.08639 -0.0923,-0.128664 -0.0294,-0.03903 -0.059,-0.07785 -0.0905,-0.115255 -0.0287,-0.03393 -0.0579,-0.06743 -0.0882,-0.09989 -0.0293,-0.03091 -0.059,-0.06143 -0.0891,-0.09153 -0.0291,-0.02798 -0.0588,-0.05533 -0.0896,-0.08145 -0.0294,-0.02503 -0.0589,-0.04986 -0.0898,-0.07302 -0.0299,-0.02281 -0.0599,-0.04553 -0.0909,-0.06695 -0.0305,-0.02119 -0.0614,-0.04173 -0.0926,-0.06191 -0.032,-0.02048 -0.0645,-0.04037 -0.0979,-0.05844 -0.0324,-0.01696 -0.0651,-0.03348 -0.0994,-0.04637 -0.0325,-0.01204 -0.0654,-0.02339 -0.0996,-0.02937 -0.0329,-0.0054 -0.0662,-0.0078 -0.0995,-0.0049 -0.0339,0.0029 -0.0677,0.007 -0.10049,0.01617 -0.0351,0.0099 -0.0698,0.02125 -0.10345,0.0354 -0.0363,0.01548 -0.072,0.03256 -0.10661,0.05157 -0.0387,0.02074 -0.0772,0.0419 -0.11586,0.06282 -0.041,0.02228 -0.082,0.04458 -0.12305,0.06687 -0.0434,0.0236 -0.0869,0.04721 -0.13033,0.07082 -0.046,0.025 -0.092,0.05001 -0.13804,0.07501 -0.0487,0.02649 -0.0975,0.05297 -0.1462,0.07945 -0.0516,0.02805 -0.10323,0.0561 -0.15484,0.08415 -0.0547,0.02971 -0.10933,0.05941 -0.164,0.08912 -0.0578,0.03142 -0.11564,0.06283 -0.17338,0.0944 -0.0602,0.0331 -0.12022,0.06667 -0.18034,0.09998 -0.0636,0.0353 -0.12712,0.0706 -0.19067,0.105894 -0.0674,0.03741 -0.13472,0.07483 -0.20212,0.112157 -0.0722,0.03989 -0.1446,0.07934 -0.21702,0.11879 -0.0769,0.04193 -0.15377,0.08387 -0.23065,0.125818 -0.0809,0.04418 -0.16185,0.08837 -0.2424,0.133236 -0.0847,0.04687 -0.16923,0.0939 -0.25439,0.139848 -0.0888,0.04825 -0.1774,0.09697 -0.2661,0.145447 -0.0932,0.05105 -0.18644,0.102184 -0.2796,0.153394 -0.0974,0.05275 -0.19493,0.105455 -0.29223,0.158486 -0.099,0.05358 -0.19755,0.108119 -0.29615,0.162512 -0.10039,0.05579 -0.20115,0.110903 -0.30134,0.167053 -0.10409,0.05807 -0.20839,0.115763 -0.31278,0.173302 -0.10733,0.05919 -0.21472,0.118295 -0.32202,0.177533 -0.11045,0.06083 -0.22067,0.122068 -0.33108,0.182975 -0.11325,0.06283 -0.22679,0.125158 -0.34034,0.187457 -0.11661,0.06406 -0.23307,0.128384 -0.3498,0.192223 -0.11977,0.06584 -0.23979,0.131233 -0.3597,0.196821 -0.12248,0.06729 -0.24499,0.134535 -0.36765,0.201506 -0.12518,0.06815 -0.25047,0.136094 -0.37563,0.204293 -0.12628,0.06894 -0.25264,0.137734 -0.37966,0.205317 -0.12769,0.06797 -0.25568,0.135382 -0.38348,0.203139 -0.12841,0.06838 -0.25675,0.136911 -0.38573,0.204208 -0.12873,0.06778 -0.25751,0.135448 -0.38625,0.203189 -0.1282,0.06746 -0.25667,0.134409 -0.38534,0.20098 -0.12762,0.06634 -0.25533,0.132491 -0.38246,0.199777 -0.12586,0.06672 -0.25151,0.133855 -0.37688,0.201498 -0.12492,0.0671 -0.24976,0.134335 -0.37424,0.202245 -0.12578,0.06904 -0.25161,0.137991 -0.37709,0.207584 -0.12822,0.07064 -0.25659,0.141021 -0.38433,0.21254 -0.12973,0.07277 -0.2595,0.145465 -0.3895,0.217747 -0.12968,0.07245 -0.25942,0.144796 -0.38884,0.217707 -0.12863,0.07279 -0.25688,0.146251 -0.38488,0.220149 -1.60398,0.922629 -3.51322,2.044388 4.18557,-2.417072 -1.65364,0.954739 -3.30458,1.914314 -4.96158,2.863271 -0.12957,0.07423 -0.25892,0.148833 -0.38856,0.222938 -0.12753,0.07268 -0.25496,0.145558 -0.38271,0.217855 -0.12657,0.07188 -0.25343,0.143251 -0.3801,0.214971 -0.12536,0.07051 -0.25077,0.140941 -0.37665,0.210529 -0.12501,0.06849 -0.25076,0.135594 -0.37677,0.202232 -0.12612,0.06675 -0.25219,0.133596 -0.37813,0.200679 -0.127,0.06788 -0.25416,0.135461 -0.38147,0.20275 -0.12853,0.06818 -0.25737,0.135805 -0.38604,0.203729 -0.13066,0.06864 -0.26126,0.13739 -0.39244,0.205049 -0.13267,0.0686 -0.26526,0.13733 -0.398,0.205799 -0.13409,0.06966 -0.2682,0.139263 -0.40225,0.208991 -0.13435,0.06957 -0.26878,0.13897 -0.40376,0.207325 -0.13438,0.06815 -0.26886,0.136107 -0.40318,0.20437 -0.13181,0.06725 -0.2641,0.133567 -0.39613,0.200395 -0.12951,0.06533 -0.25892,0.13085 -0.38808,0.196887 -0.1269,0.06526 -0.25377,0.130601 -0.38041,0.196363 -0.12519,0.06479 -0.24979,0.130694 -0.37448,0.196422 -0.12416,0.06603 -0.2479,0.132852 -0.37193,0.199125 -0.12168,0.06497 -0.24347,0.129749 -0.36545,0.194164 -0.11883,0.06329 -0.23758,0.126709 -0.35626,0.190273 -0.11432,0.06086 -0.22875,0.12152 -0.34423,0.180155 -0.10969,0.056 -0.21942,0.111921 -0.328741,0.168621 -0.107505,0.05553 -0.214717,0.111625 -0.322072,0.167445 -0.107407,0.056 -0.215069,0.111511 -0.322871,0.16674 -0.108339,0.05596 -0.216575,0.112122 -0.324607,0.168669 -0.106045,0.05515 -0.212121,0.110231 -0.317465,0.166706 -0.101251,0.05486 -0.202195,0.1103 -0.302485,0.166902 -1.847485,1.046401 6.037361,-3.493228 4.280051,-2.471994 -0.0943,0.0549 -0.18848,0.110096 -0.28252,0.165481 -0.0893,0.05294 -0.17863,0.105849 -0.26729,0.159872 -0.0834,0.05114 -0.16663,0.102502 -0.24996,0.153715 -0.0782,0.04842 -0.15584,0.09757 -0.23316,0.147304 -0.0727,0.04671 -0.14511,0.09402 -0.21717,0.141801 -0.0654,0.0428 -0.1308,0.08557 -0.19753,0.126264 -1.559736,0.953045 -3.158176,1.841624 -4.748248,2.743166 -0.04219,0.02334 -0.08475,0.04628 -0.129503,0.0644 -0.02606,0.01064 -0.05221,0.02122 -0.07952,0.02831 0,0 4.571381,-2.639288 4.571381,-2.639288 z"
       inkscape:connector-curvature="0" />
    <path
       style="fill:#000000;stroke-width:0.26458332"
       id="path890"
       d="m 127.44852,94.895701 c 0.0151,0.0013 0.0301,0.0033 0.0451,0.0059 0.013,0.0019 0.0258,0.0051 0.0386,0.0083 0.0141,0.0036 0.0279,0.0083 0.0417,0.01275 0.0152,0.0055 0.0302,0.01119 0.0455,0.01643 0.0168,0.0063 0.0335,0.01291 0.0503,0.01926 0.0177,0.0067 0.0356,0.01286 0.0535,0.01879 0.0198,0.0062 0.0396,0.01214 0.0594,0.01855 0.0212,0.0069 0.0425,0.01363 0.0636,0.02109 0.0223,0.0079 0.0447,0.01545 0.0672,0.02283 0.0229,0.0073 0.0457,0.01495 0.0684,0.02307 0.0237,0.0079 0.047,0.01714 0.0703,0.02601 0.0245,0.0091 0.0487,0.01923 0.0726,0.02971 0.0258,0.01114 0.0511,0.02313 0.0764,0.03538 0.0265,0.01265 0.0525,0.0263 0.0787,0.03948 0.027,0.01413 0.054,0.02838 0.0806,0.04313 0.0276,0.01564 0.055,0.03147 0.0822,0.04758 0.0279,0.01651 0.0555,0.03353 0.0828,0.05104 0.0287,0.01828 0.057,0.03727 0.0847,0.057 0.0288,0.02058 0.0569,0.04211 0.0848,0.06396 0.0287,0.02244 0.0564,0.04604 0.0842,0.0696 0.0289,0.02416 0.0569,0.04931 0.085,0.07445 0.0285,0.02559 0.0562,0.05196 0.0831,0.07916 0.028,0.02859 0.0552,0.058 0.0816,0.08812 0.0277,0.0324 0.055,0.0651 0.0814,0.09863 0.0285,0.03627 0.0541,0.07462 0.0777,0.114136 0.0256,0.04373 0.0481,0.08914 0.0703,0.134617 0.0232,0.0483 0.0453,0.09713 0.0674,0.145936 0.0235,0.05173 0.0451,0.10428 0.066,0.157086 0.0218,0.05488 0.0422,0.110297 0.0624,0.165775 0.0206,0.05752 0.041,0.115088 0.0608,0.172876 0.0209,0.06056 0.0405,0.121592 0.0592,0.182885 0.0199,0.06631 0.038,0.133157 0.0559,0.200038 0.0185,0.06957 0.0359,0.139422 0.0536,0.209214 0.0187,0.07402 0.0363,0.148326 0.0534,0.222732 0.018,0.07805 0.0344,0.156437 0.0505,0.234894 0.0171,0.08037 0.0341,0.160748 0.0508,0.241181 0.017,0.08231 0.0329,0.164825 0.0494,0.247227 0.0176,0.08686 0.0338,0.174008 0.0494,0.261239 0.0168,0.09275 0.032,0.185758 0.0468,0.278839 0.0154,0.09825 0.0299,0.196659 0.0442,0.295076 0.014,0.09911 0.0284,0.198147 0.0431,0.297162 0.0152,0.101674 0.0294,0.203494 0.043,0.305393 0.0141,0.107412 0.0275,0.214926 0.0407,0.322453 0.0134,0.1093 0.0262,0.21869 0.0384,0.32814 0.0123,0.11694 0.0228,0.23408 0.0331,0.35121 0.0105,0.11982 0.0207,0.23967 0.0307,0.35953 0.0101,0.12098 0.0197,0.242 0.029,0.36304 0.009,0.12239 0.0183,0.24481 0.0273,0.36722 0.009,0.11981 0.0174,0.23963 0.0258,0.35947 0.009,0.12356 0.0152,0.24727 0.0219,0.37096 0.007,0.12551 0.0131,0.25103 0.0194,0.37655 0.006,0.12365 0.0124,0.24731 0.0183,0.37097 0.006,0.12342 0.0116,0.24685 0.0173,0.37028 0.006,0.12134 0.011,0.24269 0.0164,0.36404 0.005,0.12259 0.0112,0.24511 0.0174,0.36763 0.006,0.1238 0.013,0.24753 0.0201,0.37126 0.007,0.12429 0.0153,0.24847 0.0249,0.37258 0.01,0.12722 0.0215,0.25425 0.0351,0.38111 0.0138,0.13121 0.031,0.26203 0.0491,0.39272 0.0181,0.13135 0.0374,0.26254 0.0575,0.39359 0.0199,0.12867 0.0426,0.25686 0.0679,0.38457 0.0271,0.13374 0.0598,0.26623 0.0935,0.39842 0.0345,0.13355 0.071,0.26658 0.10871,0.39924 0.0377,0.13197 0.0804,0.26246 0.12405,0.39256 0.0444,0.13077 0.0933,0.2599 0.14373,0.38843 0.0499,0.12669 0.10364,0.25178 0.1595,0.37593 0.0558,0.12374 0.11698,0.24484 0.18023,0.36487 0.0624,0.11763 0.13034,0.23213 0.20008,0.34551 0.0684,0.11182 0.14178,0.22036 0.21898,0.32623 0.0795,0.10865 0.16828,0.20984 0.26024,0.30801 0.0957,0.10045 0.19716,0.19508 0.29947,0.28869 0.0984,0.0911 0.20278,0.17537 0.31044,0.25525 0.10731,0.0777 0.22012,0.14724 0.3334,0.21576 0.11001,0.0667 0.22237,0.12938 0.33642,0.18893 0.11442,0.0597 0.23414,0.10761 0.35551,0.15096 0.1217,0.0426 0.24553,0.0786 0.36999,0.11221 0.12213,0.0327 0.24632,0.0563 0.37124,0.0751 0.12548,0.0184 0.25211,0.0256 0.37878,0.0285 0.12747,0.003 0.25471,-0.006 0.38164,-0.0167 0.12511,-0.0109 0.24985,-0.0254 0.3743,-0.0421 0.12203,-0.0165 0.2433,-0.0378 0.36419,-0.0611 0.1189,-0.0229 0.2367,-0.051 0.3543,-0.0798 0.11638,-0.0286 0.23183,-0.0607 0.34668,-0.0949 0.11719,-0.0356 0.2334,-0.0743 0.34956,-0.11314 0.11505,-0.0382 0.22961,-0.0778 0.3436,-0.11904 0.11248,-0.041 0.22362,-0.0856 0.33465,-0.13038 0.10953,-0.0444 0.21845,-0.0904 0.32648,-0.13841 0.10864,-0.0488 0.21573,-0.10091 0.32248,-0.15369 0.10506,-0.0525 0.21002,-0.10529 0.31471,-0.15857 0.10096,-0.0516 0.20084,-0.10532 0.301,-0.15846 1.58931,-0.86892 3.34134,-1.92406 -4.33072,2.50471 0,0 4.57137,-2.63929 4.57137,-2.63929 v 0 c -1.58994,0.9181 -3.18808,1.88588 -4.81203,2.77386 -0.10016,0.0532 -0.20003,0.10684 -0.30099,0.15846 -0.10469,0.0533 -0.20965,0.10603 -0.31472,0.15857 -0.10675,0.0528 -0.21384,0.10489 -0.32248,0.1537 -0.10803,0.048 -0.21695,0.0939 -0.32648,0.13841 -0.11103,0.0448 -0.22217,0.0893 -0.33465,0.13037 -0.11399,0.0413 -0.22855,0.0809 -0.3436,0.11905 -0.11616,0.0388 -0.23236,0.0776 -0.34956,0.11313 -0.11484,0.0342 -0.2303,0.0663 -0.34668,0.0949 -0.11759,0.0288 -0.2354,0.0568 -0.3543,0.0798 -0.12089,0.0233 -0.24216,0.0446 -0.36419,0.0611 -0.12445,0.0167 -0.24918,0.0312 -0.37429,0.0421 -0.12694,0.0106 -0.25418,0.0192 -0.38165,0.0167 -0.12667,-0.003 -0.2533,-0.0101 -0.37877,-0.0285 -0.12492,-0.0189 -0.24912,-0.0425 -0.37124,-0.0751 -0.12446,-0.0336 -0.2483,-0.0696 -0.37,-0.11221 -0.12136,-0.0433 -0.24109,-0.0913 -0.35551,-0.15096 -0.11404,-0.0596 -0.22641,-0.12218 -0.33642,-0.18892 -0.11327,-0.0685 -0.22609,-0.13811 -0.3334,-0.21576 -0.10766,-0.0799 -0.21199,-0.16415 -0.31044,-0.25525 -0.1023,-0.0936 -0.20378,-0.18824 -0.29947,-0.2887 -0.092,-0.0982 -0.18071,-0.19936 -0.26024,-0.30801 -0.0772,-0.10587 -0.15061,-0.21441 -0.21898,-0.32623 -0.0697,-0.11337 -0.13768,-0.22788 -0.20008,-0.3455 -0.0632,-0.12004 -0.12448,-0.24114 -0.18023,-0.36488 -0.0559,-0.12415 -0.10962,-0.24924 -0.1595,-0.37593 -0.0504,-0.12853 -0.0994,-0.25766 -0.14373,-0.38842 -0.0436,-0.13011 -0.0863,-0.26059 -0.12405,-0.39256 -0.0378,-0.13267 -0.0742,-0.2657 -0.10871,-0.39925 -0.0337,-0.13219 -0.0664,-0.26468 -0.0935,-0.39841 -0.0253,-0.12772 -0.048,-0.2559 -0.0679,-0.38458 -0.0202,-0.13105 -0.0394,-0.26224 -0.0575,-0.39359 -0.018,-0.13069 -0.0353,-0.2615 -0.0491,-0.39272 -0.0136,-0.12686 -0.0255,-0.25389 -0.0352,-0.38111 -0.01,-0.1241 -0.0182,-0.24829 -0.0249,-0.37258 -0.007,-0.12373 -0.0143,-0.24745 -0.0201,-0.37125 -0.006,-0.12253 -0.0125,-0.24505 -0.0173,-0.36764 -0.005,-0.12135 -0.0108,-0.2427 -0.0164,-0.36404 -0.006,-0.12342 -0.0114,-0.24686 -0.0173,-0.37027 -0.006,-0.12367 -0.012,-0.24733 -0.0183,-0.37097 -0.006,-0.12553 -0.0128,-0.25105 -0.0194,-0.37656 -0.007,-0.12369 -0.0131,-0.24739 -0.0219,-0.37095 -0.008,-0.11984 -0.017,-0.23967 -0.0258,-0.35947 -0.009,-0.12242 -0.018,-0.24484 -0.0273,-0.36723 -0.009,-0.12104 -0.0189,-0.24206 -0.029,-0.36304 -0.01,-0.11986 -0.0201,-0.23971 -0.0307,-0.35952 -0.0104,-0.11714 -0.0208,-0.23427 -0.0331,-0.35122 -0.0122,-0.10944 -0.0249,-0.21883 -0.0384,-0.32813 -0.0132,-0.10753 -0.0266,-0.21504 -0.0407,-0.32246 -0.0136,-0.1019 -0.0278,-0.20372 -0.043,-0.30539 -0.0146,-0.099 -0.0291,-0.19805 -0.0431,-0.29716 -0.0143,-0.0984 -0.0288,-0.19682 -0.0442,-0.29508 -0.0148,-0.0931 -0.0301,-0.18608 -0.0468,-0.27884 -0.0157,-0.0872 -0.0318,-0.17438 -0.0494,-0.26124 -0.0165,-0.0824 -0.0324,-0.16492 -0.0494,-0.24722 -0.0168,-0.0804 -0.0338,-0.16082 -0.0508,-0.24118 -0.0161,-0.0785 -0.0326,-0.15685 -0.0505,-0.2349 -0.0171,-0.0744 -0.0346,-0.14871 -0.0534,-0.222731 -0.0177,-0.06979 -0.0351,-0.139639 -0.0536,-0.209214 -0.0179,-0.06688 -0.036,-0.133731 -0.0559,-0.200038 -0.0187,-0.06129 -0.0382,-0.122325 -0.0592,-0.182888 -0.0198,-0.05778 -0.0403,-0.115348 -0.0608,-0.172874 -0.0202,-0.05548 -0.0406,-0.110897 -0.0623,-0.165777 -0.0209,-0.0528 -0.0425,-0.105352 -0.066,-0.157086 -0.0221,-0.04881 -0.0442,-0.09763 -0.0674,-0.145936 -0.0222,-0.04547 -0.0447,-0.09088 -0.0703,-0.134615 -0.0237,-0.03952 -0.0493,-0.07787 -0.0777,-0.114138 -0.0263,-0.03353 -0.0537,-0.06623 -0.0814,-0.09863 -0.0264,-0.03012 -0.0536,-0.05952 -0.0816,-0.08812 -0.0269,-0.0272 -0.0547,-0.05358 -0.0831,-0.07916 -0.028,-0.02514 -0.0561,-0.0503 -0.085,-0.07445 -0.0277,-0.02355 -0.0555,-0.04716 -0.0842,-0.0696 -0.0279,-0.02186 -0.056,-0.04338 -0.0848,-0.06396 -0.0277,-0.01974 -0.056,-0.03872 -0.0847,-0.057 -0.0273,-0.01752 -0.0549,-0.03452 -0.0828,-0.05104 -0.0273,-0.01611 -0.0547,-0.03195 -0.0822,-0.04758 -0.0267,-0.01474 -0.0536,-0.029 -0.0807,-0.04313 -0.0262,-0.01318 -0.0522,-0.02683 -0.0786,-0.03948 -0.0252,-0.01225 -0.0506,-0.02424 -0.0764,-0.03538 -0.024,-0.01048 -0.0481,-0.02064 -0.0726,-0.02971 -0.0234,-0.0089 -0.0466,-0.01807 -0.0703,-0.02601 -0.0226,-0.0081 -0.0454,-0.01577 -0.0684,-0.02307 -0.0225,-0.0074 -0.0449,-0.01492 -0.0672,-0.02283 -0.0211,-0.0075 -0.0424,-0.01416 -0.0636,-0.02109 -0.0197,-0.0064 -0.0396,-0.0123 -0.0594,-0.01855 -0.018,-0.0059 -0.0358,-0.01206 -0.0535,-0.01878 -0.0168,-0.0063 -0.0335,-0.01289 -0.0503,-0.01926 -0.0152,-0.0052 -0.0303,-0.01095 -0.0455,-0.01643 -0.0138,-0.0045 -0.0276,-0.0092 -0.0417,-0.01275 -0.0128,-0.0033 -0.0255,-0.0063 -0.0386,-0.0083 -0.015,-0.0026 -0.03,-0.0046 -0.0451,-0.0059 0,0 4.57138,-2.639285 4.57138,-2.639285 z"
       inkscape:connector-curvature="0" />
    <path
       style="fill:#000000;stroke-width:0.26458332"
       id="path894"
       d="m 104.89885,80.552649 c 0.0148,-0.01418 0.0304,-0.02752 0.0459,-0.041 0.0189,-0.01617 0.0378,-0.03241 0.0568,-0.04846 0.0235,-0.02074 0.0473,-0.04122 0.0709,-0.06182 0.0288,-0.0254 0.0584,-0.0498 0.0876,-0.07464 0.0305,-0.02606 0.0611,-0.0519 0.0919,-0.07754 0.0337,-0.02866 0.0683,-0.05618 0.10281,-0.08381 0.0394,-0.0318 0.08,-0.06207 0.12104,-0.09174 0.0438,-0.03186 0.0884,-0.06261 0.13308,-0.09314 0.049,-0.03405 0.0988,-0.06673 0.14875,-0.09935 0.0524,-0.03411 0.10543,-0.06712 0.15828,-0.100465 0.0536,-0.03357 0.10766,-0.06659 0.16182,-0.09934 1.5659,-0.933429 3.14949,-1.837121 4.73574,-2.735556 0.0553,-0.03204 0.11122,-0.06312 0.16699,-0.09441 0.0559,-0.03166 0.11243,-0.06231 0.16856,-0.09363 0.0555,-0.0308 0.11112,-0.06135 0.16697,-0.09151 0.0563,-0.03032 0.11218,-0.06125 0.16843,-0.09159 0.0559,-0.03073 0.11173,-0.06149 0.16775,-0.09197 0.0551,-0.03018 0.11091,-0.0592 0.16664,-0.08828 0.0558,-0.02924 0.11201,-0.05768 0.16821,-0.08615 0.0547,-0.02737 0.10954,-0.05462 0.16454,-0.08149 0.0538,-0.02582 0.10837,-0.04981 0.16296,-0.07382 0.0539,-0.02297 0.10736,-0.04697 0.1608,-0.07101 0.0515,-0.02347 0.10329,-0.04633 0.15523,-0.06882 0.052,-0.02294 0.10407,-0.04555 0.15618,-0.06813 0.0506,-0.02201 0.10146,-0.04343 0.15194,-0.06571 0.0503,-0.0222 0.10096,-0.04365 0.15171,-0.06484 0.0508,-0.02111 0.10184,-0.04147 0.1531,-0.06137 0.0521,-0.01953 0.10489,-0.03729 0.15772,-0.05483 0.0523,-0.0177 0.10517,-0.03382 0.1583,-0.04894 0.0513,-0.01431 0.10273,-0.02775 0.15417,-0.04131 0.0496,-0.01326 0.0997,-0.02514 0.1501,-0.03504 0.0501,-0.0099 0.10085,-0.01614 0.15155,-0.02215 0.05,-0.0063 0.10017,-0.01064 0.15034,-0.015 0.048,-0.0042 0.0961,-0.0072 0.14424,-0.0094 0.0472,-0.0021 0.0944,-5.29e-4 0.14157,0.0021 0.047,0.0038 0.0939,0.0082 0.14077,0.01355 0.0461,0.0052 0.0919,0.01249 0.13754,0.02111 0.0453,0.0084 0.0895,0.02077 0.13302,0.03567 0.0448,0.01564 0.0877,0.03599 0.1299,0.05756 0.0424,0.02172 0.0837,0.04566 0.12389,0.07121 0.0414,0.02617 0.0795,0.05702 0.11699,0.08833 0.0374,0.0322 0.074,0.06522 0.11077,0.09817 0.0372,0.03259 0.0732,0.06644 0.108,0.101568 0.0371,0.03791 0.0716,0.07828 0.10617,0.118512 0.0355,0.04229 0.0708,0.08473 0.10526,0.127913 0.0356,0.04444 0.0701,0.08975 0.10383,0.135589 0.0337,0.04642 0.0677,0.09262 0.10119,0.139163 0.0334,0.04628 0.0657,0.09339 0.0973,0.140882 0.0321,0.04723 0.0617,0.09602 0.0906,0.145209 0.029,0.04962 0.0563,0.100211 0.0832,0.151016 0.0269,0.05131 0.0529,0.1031 0.0785,0.155062 0.0268,0.0525 0.0525,0.105542 0.0772,0.159017 0.0254,0.05543 0.0496,0.111411 0.0735,0.1675 0.0235,0.05504 0.0467,0.110188 0.0694,0.165565 0.023,0.05503 0.0442,0.11075 0.0642,0.166905 0.0203,0.05715 0.0396,0.114639 0.0583,0.172334 0.0193,0.06074 0.0372,0.121877 0.055,0.183075 0.0179,0.06164 0.035,0.123487 0.0519,0.185412 0.017,0.06226 0.0331,0.124775 0.049,0.187328 0.0162,0.06357 0.0316,0.127349 0.0463,0.191294 0.0155,0.06786 0.0298,0.135993 0.0437,0.204192 0.0137,0.07021 0.0259,0.140679 0.0381,0.211143 0.0131,0.07463 0.0245,0.149529 0.0354,0.224507 0.0117,0.08148 0.0226,0.163073 0.0334,0.244668 0.0104,0.08169 0.022,0.163195 0.0335,0.244739 0.0114,0.08187 0.0225,0.16378 0.0334,0.245724 0.0111,0.08352 0.0214,0.167135 0.0315,0.250772 0.0104,0.08707 0.0202,0.174223 0.0298,0.261388 0.01,0.08812 0.019,0.176286 0.0281,0.264474 0.01,0.09405 0.0172,0.188333 0.0237,0.282657 0.007,0.100534 0.0123,0.201118 0.0181,0.301697 0.006,0.100999 0.0115,0.202012 0.016,0.303088 0.005,0.107029 0.007,0.21414 0.01,0.321231 0.003,0.107582 0.005,0.215164 0.008,0.322749 0.003,0.107011 0.005,0.214027 0.007,0.321043 0.002,0.109524 0.005,0.219051 0.007,0.328578 0.002,0.108003 0.004,0.216019 0.007,0.324011 0.003,0.112461 0.006,0.224917 0.01,0.337378 0.003,0.114893 0.006,0.229807 0.01,0.344686 0.004,0.116279 0.008,0.232553 0.0123,0.348835 0.004,0.121999 0.008,0.243967 0.0132,0.365924 0.005,0.122293 0.0101,0.244591 0.0148,0.366898 0.005,0.128262 0.01,0.25654 0.0141,0.38482 0.004,0.133691 0.009,0.267351 0.0146,0.401003 0.006,0.138255 0.0109,0.276521 0.0161,0.414792 0.005,0.140669 0.0103,0.281342 0.0153,0.422019 0.005,0.140686 0.01,0.281342 0.0158,0.421984 0.006,0.141562 0.0116,0.28313 0.0172,0.424703 0.006,0.141259 0.011,0.282522 0.0164,0.423789 0.005,0.139187 0.0102,0.278376 0.0162,0.417528 0.006,0.138856 0.0122,0.277717 0.0181,0.416584 0.006,0.138057 0.0114,0.276119 0.018,0.414139 0.007,0.135647 0.0133,0.271288 0.0198,0.40694 0.007,0.135927 0.0147,0.271833 0.022,0.407749 0.007,0.134686 0.0144,0.269386 0.0214,0.404088 0.006,0.133045 0.0144,0.266012 0.0221,0.398991 0.008,0.136488 0.0153,0.273 0.0226,0.409522 0.007,0.137962 0.0144,0.275934 0.0214,0.413912 0.007,0.137673 0.0135,0.27536 0.021,0.413004 0.008,0.137107 0.0151,0.274214 0.0226,0.411324 0.007,0.136205 0.0146,0.272423 0.0215,0.408657 0.008,0.138697 0.0155,0.27737 0.0234,0.416052 0.008,0.136512 0.015,0.273066 0.023,0.409572 0.008,0.138417 0.0167,0.276839 0.0249,0.415274 0.008,0.138031 0.016,0.276072 0.0238,0.414115 0.008,0.134732 0.0149,0.269468 0.0233,0.404154 0.008,0.131411 0.0166,0.262827 0.0247,0.394245 0.008,0.128352 0.0158,0.256717 0.0235,0.385085 0.008,0.12487 0.0149,0.249743 0.0222,0.374627 0.007,0.122819 0.0141,0.245655 0.0209,0.36849 0.007,0.121616 0.0133,0.243242 0.0198,0.364874 0.006,0.119835 0.0139,0.239585 0.0212,0.359357 0.007,0.119726 0.0143,0.239469 0.0212,0.359219 0.007,0.120275 0.0137,0.240504 0.0214,0.360709 0.008,0.118372 0.0151,0.236747 0.0225,0.355132 0.007,0.117628 0.0143,0.235273 0.0213,0.352922 0.007,0.115144 0.0132,0.230328 0.0204,0.345451 0.007,0.112564 0.015,0.225118 0.0224,0.33768 0.007,0.109601 0.0144,0.219212 0.0215,0.328827 0.007,0.106664 0.0136,0.213338 0.0203,0.320013 0.007,0.10469 0.0129,0.2094 0.0192,0.3141 0.006,0.10394 0.0122,0.2079 0.0181,0.31185 0.006,0.1016 0.0115,0.2032 0.0171,0.3048 0.006,0.10027 0.0109,0.20054 0.0161,0.30083 0.006,0.0999 0.0121,0.19973 0.0183,0.29958 0.006,0.0972 0.012,0.19441 0.0179,0.29162 0.006,0.095 0.0114,0.19002 0.0169,0.28503 0.005,0.0932 0.0108,0.18633 0.016,0.2795 0.005,0.0922 0.0101,0.18448 0.0151,0.27673 0.005,0.0913 0.0109,0.18256 0.0168,0.27382 0.006,0.0895 0.0114,0.17911 0.017,0.26867 0.006,0.0881 0.0105,0.17635 0.0164,0.26449 0.006,0.0882 0.0124,0.1764 0.0186,0.2646 0.006,0.0868 0.0119,0.17357 0.0187,0.26029 0.007,0.0854 0.0137,0.17076 0.0204,0.25615 0.007,0.0844 0.013,0.16887 0.0194,0.25331 0.007,0.0831 0.0143,0.16613 0.0215,0.24919 0.007,0.0826 0.014,0.16528 0.0208,0.24793 0.007,0.0815 0.0132,0.16293 0.0197,0.2444 0.006,0.0793 0.0125,0.15864 0.0186,0.23797 0.006,0.0773 0.0117,0.15459 0.0176,0.23188 0.006,0.0732 0.0111,0.14648 0.0166,0.21972 0.005,0.0707 0.0113,0.14131 0.0176,0.21191 0.006,0.0702 0.0124,0.14048 0.0184,0.21075 0.006,0.0697 0.0117,0.13951 0.0174,0.20927 0.006,0.0696 0.011,0.1392 0.0164,0.20881 0.005,0.0682 0.0104,0.13649 0.0155,0.20474 0.005,0.0674 0.01,0.13477 0.0146,0.20217 0.005,0.0666 0.009,0.13319 0.0138,0.19979 0.004,0.0651 0.009,0.13015 0.013,0.19524 0.004,0.0636 0.008,0.12716 0.0123,0.19075 0.004,0.063 0.008,0.12605 0.0116,0.18909 0.004,0.0613 0.007,0.12257 0.011,0.18385 0.004,0.0586 0.007,0.11715 0.0104,0.17572 0.003,0.0569 0.007,0.11386 0.01,0.17079 0.003,0.0553 0.006,0.11054 0.009,0.16581 0.003,0.054 0.006,0.10794 0.009,0.16187 0.004,0.0522 0.008,0.10446 0.0116,0.15668 0.004,0.0499 0.008,0.0998 0.0113,0.14975 0.004,0.0486 0.007,0.0973 0.0107,0.14588 0.003,0.0386 0.005,0.0772 0.007,0.11579 0,0 -4.57138,2.63929 -4.57138,2.63929 v 0 c -0.002,-0.0386 -0.004,-0.0772 -0.007,-0.1158 -0.004,-0.0486 -0.007,-0.0973 -0.0107,-0.14587 -0.004,-0.0499 -0.008,-0.0998 -0.0113,-0.14976 -0.004,-0.0522 -0.008,-0.10444 -0.0117,-0.15668 -0.004,-0.0539 -0.006,-0.10791 -0.009,-0.16186 -0.003,-0.0553 -0.006,-0.11054 -0.009,-0.16581 -0.003,-0.0569 -0.006,-0.11387 -0.01,-0.1708 -0.003,-0.0586 -0.007,-0.11714 -0.0104,-0.17571 -0.004,-0.0613 -0.007,-0.12257 -0.011,-0.18386 -0.004,-0.063 -0.008,-0.12606 -0.0116,-0.18909 -0.004,-0.0636 -0.008,-0.12716 -0.0123,-0.19074 -0.004,-0.0651 -0.009,-0.13017 -0.013,-0.19524 -0.005,-0.0666 -0.009,-0.1332 -0.0138,-0.19979 -0.005,-0.0674 -0.01,-0.13479 -0.0146,-0.20217 -0.005,-0.0683 -0.0102,-0.13651 -0.0155,-0.20474 -0.005,-0.0696 -0.0107,-0.13922 -0.0164,-0.20881 -0.006,-0.0698 -0.0115,-0.13953 -0.0174,-0.20928 -0.006,-0.0703 -0.012,-0.14052 -0.0184,-0.21075 -0.006,-0.0706 -0.0127,-0.14119 -0.0176,-0.21191 -0.006,-0.0732 -0.0111,-0.14647 -0.0166,-0.21971 -0.006,-0.0773 -0.0117,-0.15459 -0.0176,-0.23189 -0.006,-0.0793 -0.0123,-0.15865 -0.0186,-0.23796 -0.006,-0.0815 -0.013,-0.16295 -0.0197,-0.2444 -0.007,-0.0827 -0.0138,-0.1653 -0.0208,-0.24793 -0.007,-0.0831 -0.0146,-0.1661 -0.0215,-0.24919 -0.006,-0.0844 -0.0128,-0.16888 -0.0194,-0.25332 -0.007,-0.0854 -0.0135,-0.17077 -0.0204,-0.25615 -0.007,-0.0867 -0.0127,-0.1735 -0.0187,-0.26028 -0.006,-0.0882 -0.0125,-0.1764 -0.0186,-0.2646 -0.006,-0.0881 -0.0107,-0.17634 -0.0164,-0.26449 -0.006,-0.0896 -0.0112,-0.17913 -0.017,-0.26868 -0.006,-0.0913 -0.012,-0.18249 -0.0168,-0.27381 -0.005,-0.0922 -0.01,-0.1845 -0.0151,-0.27673 -0.005,-0.0932 -0.0105,-0.18635 -0.016,-0.2795 -0.006,-0.095 -0.0112,-0.19003 -0.0169,-0.28503 -0.006,-0.0972 -0.0118,-0.19442 -0.0179,-0.29162 -0.006,-0.0998 -0.0126,-0.1997 -0.0183,-0.29959 -0.005,-0.10028 -0.0106,-0.20056 -0.0161,-0.30082 -0.006,-0.10161 -0.0113,-0.20321 -0.0171,-0.3048 -0.006,-0.10396 -0.0119,-0.20791 -0.0181,-0.31185 -0.006,-0.10471 -0.0126,-0.20941 -0.0191,-0.3141 -0.007,-0.10668 -0.0134,-0.21336 -0.0203,-0.32002 -0.007,-0.10961 -0.0142,-0.21923 -0.0215,-0.32883 -0.007,-0.11256 -0.015,-0.22511 -0.0224,-0.33767 -0.007,-0.11513 -0.0135,-0.23031 -0.0204,-0.34545 -0.007,-0.11765 -0.014,-0.2353 -0.0213,-0.35293 -0.007,-0.11838 -0.0149,-0.23676 -0.0225,-0.35513 -0.008,-0.12021 -0.0149,-0.24044 -0.0214,-0.36071 -0.007,-0.11975 -0.0139,-0.23949 -0.0212,-0.359216 -0.007,-0.119771 -0.015,-0.239524 -0.0212,-0.359357 -0.006,-0.121631 -0.013,-0.24326 -0.0198,-0.364873 -0.007,-0.122839 -0.0138,-0.245671 -0.021,-0.368494 -0.007,-0.12488 -0.0147,-0.249756 -0.0222,-0.374623 -0.008,-0.128371 -0.0155,-0.256733 -0.0235,-0.385088 -0.008,-0.131419 -0.0164,-0.262832 -0.0247,-0.394242 -0.008,-0.134686 -0.0157,-0.269423 -0.0233,-0.404157 -0.008,-0.138043 -0.0157,-0.276084 -0.0238,-0.414112 -0.008,-0.138436 -0.0165,-0.276858 -0.0249,-0.415277 -0.008,-0.136504 -0.0151,-0.273061 -0.023,-0.409572 -0.008,-0.138682 -0.0159,-0.277353 -0.0234,-0.416052 -0.007,-0.136232 -0.0141,-0.272452 -0.0215,-0.408655 -0.007,-0.137112 -0.0151,-0.274219 -0.0226,-0.411324 -0.007,-0.137644 -0.0141,-0.27533 -0.021,-0.413006 -0.007,-0.137975 -0.0141,-0.27595 -0.0214,-0.413909 -0.007,-0.136522 -0.0147,-0.273037 -0.0226,-0.409522 -0.008,-0.13298 -0.0156,-0.265949 -0.0221,-0.398994 -0.007,-0.134702 -0.0141,-0.269399 -0.0213,-0.404088 -0.007,-0.135916 -0.0149,-0.27182 -0.022,-0.407747 -0.007,-0.135652 -0.0132,-0.271295 -0.0198,-0.406939 -0.007,-0.138023 -0.0122,-0.276083 -0.018,-0.414139 -0.006,-0.138867 -0.012,-0.277728 -0.0181,-0.416584 -0.006,-0.139155 -0.0111,-0.278342 -0.0162,-0.417529 -0.005,-0.141266 -0.0107,-0.282532 -0.0163,-0.423788 -0.006,-0.141573 -0.0113,-0.283144 -0.0172,-0.424704 -0.006,-0.140642 -0.0112,-0.281297 -0.0158,-0.421984 -0.005,-0.140676 -0.01,-0.281353 -0.0153,-0.422018 -0.005,-0.138271 -0.0105,-0.276537 -0.0161,-0.414795 -0.005,-0.133652 -0.0104,-0.267312 -0.0146,-0.401 -0.004,-0.128284 -0.009,-0.256561 -0.0141,-0.384821 -0.005,-0.122306 -0.01,-0.244605 -0.0148,-0.3669 -0.005,-0.121955 -0.01,-0.243922 -0.0133,-0.365924 -0.004,-0.116282 -0.008,-0.232553 -0.0123,-0.348832 -0.004,-0.114882 -0.006,-0.229794 -0.01,-0.344686 -0.003,-0.112461 -0.006,-0.22492 -0.01,-0.337378 -0.003,-0.107995 -0.005,-0.216011 -0.007,-0.324012 -0.002,-0.109529 -0.005,-0.219056 -0.007,-0.32858 -0.002,-0.107016 -0.005,-0.21403 -0.007,-0.321041 -0.003,-0.107584 -0.005,-0.215169 -0.008,-0.322749 -0.003,-0.10709 -0.005,-0.214201 -0.01,-0.321231 -0.004,-0.101076 -0.01,-0.202088 -0.016,-0.303088 -0.006,-0.100578 -0.0115,-0.201165 -0.0181,-0.301696 -0.007,-0.09433 -0.014,-0.188603 -0.0237,-0.282657 -0.009,-0.08819 -0.0184,-0.176353 -0.0281,-0.264478 -0.01,-0.08716 -0.0193,-0.174315 -0.0298,-0.261384 -0.0101,-0.08364 -0.0205,-0.167249 -0.0315,-0.250772 -0.0109,-0.08194 -0.022,-0.163857 -0.0334,-0.245724 -0.0114,-0.08155 -0.0231,-0.163052 -0.0335,-0.24474 -0.0108,-0.08159 -0.0217,-0.163189 -0.0334,-0.24467 -0.0109,-0.07497 -0.0223,-0.149876 -0.0354,-0.224507 -0.0122,-0.07046 -0.0245,-0.140933 -0.0381,-0.21114 -0.0139,-0.0682 -0.0282,-0.13633 -0.0437,-0.204195 -0.0147,-0.06395 -0.0301,-0.127717 -0.0463,-0.191291 -0.0159,-0.06255 -0.032,-0.125072 -0.049,-0.187331 -0.0169,-0.06193 -0.034,-0.123766 -0.0519,-0.185409 -0.0178,-0.0612 -0.0357,-0.122333 -0.055,-0.183079 -0.0187,-0.0577 -0.038,-0.115186 -0.0583,-0.172331 -0.0201,-0.05616 -0.0412,-0.111881 -0.0642,-0.166907 -0.0227,-0.05537 -0.0459,-0.110521 -0.0694,-0.165563 -0.0239,-0.05609 -0.0481,-0.112072 -0.0735,-0.167499 -0.0248,-0.05347 -0.0504,-0.106514 -0.0772,-0.15902 -0.0256,-0.05196 -0.0516,-0.103746 -0.0785,-0.155059 -0.0269,-0.05081 -0.0542,-0.101397 -0.0832,-0.151019 -0.0289,-0.04918 -0.0585,-0.09798 -0.0906,-0.145206 -0.0317,-0.04749 -0.0639,-0.0946 -0.0973,-0.140886 -0.0335,-0.04655 -0.0675,-0.09274 -0.10119,-0.13916 -0.0338,-0.04584 -0.0682,-0.09115 -0.10382,-0.135588 -0.0344,-0.04319 -0.0697,-0.08563 -0.10526,-0.127916 -0.0346,-0.04024 -0.069,-0.08059 -0.10617,-0.118509 -0.0348,-0.03513 -0.0708,-0.06898 -0.10801,-0.101571 -0.0367,-0.03295 -0.0734,-0.06597 -0.11077,-0.09817 -0.0375,-0.03132 -0.0756,-0.06216 -0.11699,-0.08834 -0.0402,-0.02556 -0.0814,-0.04949 -0.12388,-0.07121 -0.0422,-0.02156 -0.0851,-0.04193 -0.1299,-0.05756 -0.0435,-0.0149 -0.0878,-0.02723 -0.13303,-0.03567 -0.0456,-0.0086 -0.0914,-0.01595 -0.13754,-0.02109 -0.0468,-0.0053 -0.0938,-0.0097 -0.14076,-0.01355 -0.0472,-0.0027 -0.0944,-0.0041 -0.14157,-0.0021 -0.0481,0.0021 -0.0962,0.0053 -0.14424,0.0094 -0.0502,0.0044 -0.10037,0.0087 -0.15034,0.015 -0.0507,0.006 -0.10142,0.01225 -0.15155,0.02215 -0.0504,0.0099 -0.10045,0.02178 -0.15011,0.03505 -0.0514,0.01357 -0.10292,0.02701 -0.15416,0.04131 -0.0531,0.01511 -0.10598,0.03123 -0.15831,0.04894 -0.0528,0.01754 -0.10559,0.03531 -0.15772,0.05483 -0.0512,0.0199 -0.10232,0.04027 -0.1531,0.06137 -0.0507,0.02119 -0.10139,0.04264 -0.1517,0.06484 -0.0505,0.02228 -0.10134,0.0437 -0.15194,0.06571 -0.0521,0.02257 -0.10422,0.04519 -0.15618,0.06813 -0.0519,0.02249 -0.10372,0.04535 -0.15524,0.06881 -0.0534,0.02405 -0.10689,0.04804 -0.1608,0.07102 -0.0546,0.02402 -0.1092,0.048 -0.16296,0.07382 -0.055,0.02687 -0.10979,0.05412 -0.16454,0.08149 -0.0562,0.02846 -0.1124,0.05691 -0.1682,0.08615 -0.0557,0.02907 -0.11151,0.0581 -0.16665,0.08828 -0.056,0.03048 -0.11187,0.06124 -0.16775,0.09197 -0.0562,0.03034 -0.11216,0.06127 -0.16842,0.09159 -0.0558,0.03015 -0.11148,0.0607 -0.16698,0.09151 -0.0561,0.03132 -0.11262,0.06198 -0.16856,0.09363 -0.0558,0.03128 -0.11164,0.06237 -0.16698,0.09441 -1.61626,0.915432 6.13765,-3.571221 4.40701,-2.543018 -0.0542,0.03274 -0.10817,0.06576 -0.16182,0.09934 -0.0528,0.03334 -0.10592,0.06635 -0.15827,0.100465 -0.0499,0.03262 -0.0998,0.0653 -0.14876,0.09935 -0.0447,0.03054 -0.0893,0.06129 -0.13308,0.09314 -0.041,0.02967 -0.0816,0.05994 -0.12104,0.09174 -0.0345,0.02763 -0.0691,0.05515 -0.10281,0.08381 -0.0308,0.02564 -0.0614,0.05149 -0.0919,0.07754 -0.0292,0.02484 -0.0588,0.04923 -0.0876,0.07463 -0.0237,0.02061 -0.0474,0.04108 -0.0709,0.06182 -0.019,0.01603 -0.0379,0.0323 -0.0568,0.04846 -0.0155,0.01347 -0.031,0.02682 -0.0458,0.04099 0,0 -4.57138,2.639287 -4.57138,2.639287 z"
       inkscape:connector-curvature="0" />
    <path
       style="fill:#000000;stroke-width:0.26458332"
       id="path896"
       d="m 117.37132,112.96255 c -0.0161,-0.007 -0.0314,-0.0156 -0.0462,-0.0249 -0.0153,-0.0101 -0.0307,-0.02 -0.046,-0.03 -0.0194,-0.0125 -0.039,-0.0249 -0.0582,-0.0377 -0.0223,-0.0147 -0.0443,-0.0297 -0.0663,-0.0448 -0.0246,-0.0172 -0.0494,-0.034 -0.0741,-0.0509 -0.0272,-0.0189 -0.055,-0.0368 -0.0825,-0.0552 -0.0295,-0.02 -0.0598,-0.0389 -0.0902,-0.0574 -0.0347,-0.0212 -0.0699,-0.0416 -0.10512,-0.0618 -0.0372,-0.0214 -0.075,-0.0416 -0.11301,-0.0614 -0.0399,-0.0206 -0.0806,-0.0395 -0.12152,-0.0581 -0.0438,-0.02 -0.0886,-0.0378 -0.13338,-0.0556 -0.0483,-0.0191 -0.0969,-0.0373 -0.14565,-0.0553 -0.0488,-0.018 -0.0978,-0.0357 -0.14702,-0.0524 -0.0539,-0.0179 -0.10824,-0.0345 -0.16264,-0.0508 -0.0604,-0.0178 -0.1213,-0.034 -0.18217,-0.0503 -0.0618,-0.0164 -0.12382,-0.0322 -0.18591,-0.0475 -0.0654,-0.0161 -0.13093,-0.032 -0.19655,-0.0474 -0.0695,-0.0164 -0.13967,-0.0301 -0.20984,-0.0434 -0.0723,-0.0131 -0.14491,-0.025 -0.21749,-0.0367 -0.072,-0.0116 -0.144,-0.0229 -0.21604,-0.034 -0.0712,-0.011 -0.14245,-0.0216 -0.21372,-0.0321 -0.0705,-0.0104 -0.14105,-0.0204 -0.21162,-0.0303 -0.0714,-0.01 -0.14266,-0.0198 -0.21396,-0.03 -0.0773,-0.0109 -0.15463,-0.0209 -0.23205,-0.0306 -0.081,-0.01 -0.16203,-0.0195 -0.24308,-0.029 -0.0808,-0.01 -0.16165,-0.0186 -0.24252,-0.0274 -0.0835,-0.009 -0.16691,-0.0189 -0.25036,-0.0284 -0.0854,-0.009 -0.17094,-0.0173 -0.25653,-0.0245 -0.0864,-0.007 -0.17285,-0.0134 -0.25938,-0.0187 -0.0863,-0.005 -0.17259,-0.01 -0.25889,-0.0146 -0.0833,-0.005 -0.1666,-0.009 -0.24995,-0.0122 -0.0808,-0.004 -0.1617,-0.005 -0.24258,-0.007 -0.0796,-0.002 -0.15924,-0.002 -0.23887,-0.002 -0.0811,5.2e-4 -0.16208,0.004 -0.24296,0.01 -0.087,0.006 -0.17346,0.0174 -0.25971,0.03 -0.0888,0.0132 -0.17726,0.0284 -0.26564,0.044 -0.0879,0.016 -0.17565,0.0329 -0.26317,0.0509 -0.0878,0.0178 -0.17495,0.0385 -0.26203,0.0595 -0.0887,0.0216 -0.17701,0.045 -0.26489,0.0698 -0.0921,0.0263 -0.18353,0.0552 -0.275,0.0837 -0.0911,0.0281 -0.18192,0.0575 -0.2726,0.087 -0.0925,0.0297 -0.18457,0.0609 -0.27611,0.0935 -0.1,0.036 -0.19889,0.0748 -0.29783,0.11356 -0.0993,0.0387 -0.19833,0.078 -0.29716,0.11791 -0.10046,0.0401 -0.20042,0.0814 -0.30013,0.12333 -0.10429,0.0436 -0.20809,0.0883 -0.3118,0.1332 -0.10352,0.0445 -0.2069,0.0893 -0.31022,0.13435 -0.10482,0.0456 -0.20957,0.0914 -0.31417,0.13748 -0.10757,0.0474 -0.21517,0.0948 -0.32269,0.14232 -0.10696,0.0467 -0.21363,0.0941 -0.32062,0.1408 -0.10579,0.0455 -0.21146,0.0913 -0.31726,0.13681 -0.10284,0.0444 -0.20602,0.0879 -0.3094,0.13099 -0.10123,0.0418 -0.20249,0.0836 -0.3039,0.12504 -0.10267,0.0416 -0.20569,0.0823 -0.30865,0.12309 -0.10466,0.0411 -0.20913,0.0827 -0.31329,0.12501 -0.10403,0.0422 -0.20771,0.0853 -0.3111,0.12902 -0.10363,0.0435 -0.20668,0.0883 -0.30957,0.13347 -0.10287,0.0453 -0.20498,0.0922 -0.30696,0.13941 -0.10346,0.0481 -0.2061,0.0979 -0.30842,0.14834 -0.1036,0.0516 -0.20674,0.10409 -0.30955,0.15724 -0.10046,0.0523 -0.20109,0.10423 -0.30169,0.15622 -0.0957,0.0496 -0.19159,0.0989 -0.2876,0.14792 -0.0156,0.008 -0.0311,0.0157 -0.0467,0.0235 0,0 4.57137,-2.63929 4.57137,-2.63929 v 0 c 0.0156,-0.008 0.0312,-0.0157 0.0467,-0.0235 0.096,-0.049 0.19191,-0.0983 0.2876,-0.14791 0.1006,-0.052 0.20123,-0.10394 0.30169,-0.15622 0.1028,-0.0532 0.20595,-0.10565 0.30955,-0.15724 0.10231,-0.0505 0.20495,-0.10028 0.30842,-0.14834 0.10198,-0.0472 0.20409,-0.0941 0.30696,-0.13942 0.10289,-0.0452 0.20594,-0.09 0.30956,-0.13347 0.1034,-0.0437 0.20708,-0.0868 0.31111,-0.12901 0.10416,-0.0423 0.20863,-0.0839 0.31329,-0.12502 0.10296,-0.0408 0.20597,-0.0815 0.30865,-0.12309 0.10141,-0.0414 0.20267,-0.0832 0.3039,-0.12504 0.10338,-0.0431 0.20655,-0.0866 0.3094,-0.13099 0.1058,-0.0455 0.21147,-0.0913 0.31726,-0.13681 0.10699,-0.0467 0.21366,-0.094 0.32062,-0.14079 0.10752,-0.0475 0.21512,-0.0949 0.32269,-0.14232 0.1046,-0.0461 0.20935,-0.0919 0.31417,-0.13749 0.10331,-0.045 0.2067,-0.0898 0.31022,-0.13435 0.10371,-0.0449 0.20751,-0.0896 0.3118,-0.13319 0.0997,-0.0419 0.19967,-0.0833 0.30013,-0.12334 0.0988,-0.0399 0.19787,-0.0792 0.29716,-0.11791 0.0989,-0.0387 0.19786,-0.0776 0.29783,-0.11356 0.0915,-0.0326 0.18357,-0.0638 0.27611,-0.0935 0.0907,-0.0296 0.18145,-0.0589 0.2726,-0.087 0.0915,-0.0285 0.18286,-0.0574 0.275,-0.0837 0.0879,-0.0248 0.17615,-0.0483 0.26489,-0.0698 0.0871,-0.021 0.17422,-0.0418 0.26203,-0.0595 0.0875,-0.018 0.17526,-0.0349 0.26317,-0.0509 0.0884,-0.0157 0.17686,-0.0308 0.26564,-0.044 0.0862,-0.0126 0.17275,-0.0236 0.25971,-0.03 0.0809,-0.006 0.16187,-0.009 0.24296,-0.01 0.0796,-5.3e-4 0.15926,-2.6e-4 0.23887,0.002 0.0809,0.002 0.16176,0.004 0.24258,0.007 0.0834,0.003 0.16667,0.007 0.24995,0.0122 0.0863,0.005 0.1726,0.009 0.25889,0.0145 0.0865,0.005 0.17299,0.0115 0.25938,0.0187 0.0856,0.007 0.17109,0.0156 0.25652,0.0245 0.0835,0.009 0.16686,0.0194 0.25037,0.0284 0.0809,0.009 0.16172,0.0179 0.24252,0.0274 0.081,0.009 0.16209,0.019 0.24308,0.029 0.0774,0.01 0.1548,0.0197 0.23205,0.0306 0.0713,0.0102 0.14259,0.0203 0.21396,0.03 0.0706,0.01 0.14112,0.0199 0.21162,0.0303 0.0713,0.0105 0.14252,0.0212 0.21372,0.0321 0.072,0.0112 0.14407,0.0224 0.21604,0.034 0.0726,0.0117 0.14515,0.0236 0.21749,0.0367 0.0702,0.0134 0.14031,0.027 0.20984,0.0434 0.0656,0.0154 0.13109,0.0313 0.19655,0.0474 0.0621,0.0154 0.12407,0.0312 0.18591,0.0475 0.0609,0.0162 0.12173,0.0325 0.18217,0.0503 0.0544,0.0163 0.10873,0.0329 0.16264,0.0508 0.0493,0.0167 0.0982,0.0344 0.14702,0.0524 0.0487,0.018 0.0973,0.0363 0.14565,0.0553 0.0448,0.0178 0.0895,0.0356 0.13338,0.0556 0.0409,0.0186 0.0816,0.0375 0.12153,0.0581 0.038,0.0198 0.0758,0.0401 0.113,0.0614 0.0353,0.0202 0.0705,0.0406 0.10512,0.0618 0.0305,0.0185 0.0607,0.0374 0.0902,0.0574 0.0275,0.0184 0.0553,0.0364 0.0825,0.0552 0.0247,0.017 0.0495,0.0338 0.0741,0.0509 0.022,0.0151 0.044,0.0302 0.0663,0.0448 0.0192,0.0129 0.0387,0.0252 0.0582,0.0377 0.0153,0.01 0.0307,0.0199 0.046,0.03 0.0148,0.009 0.0301,0.018 0.0462,0.0249 0,0 -4.57137,2.63928 -4.57137,2.63928 z"
       inkscape:connector-curvature="0" />
  </g>
</svg>
