<?xml version="1.0" encoding="UTF-8" standalone="no"?>
<!-- Created with Inkscape (http://www.inkscape.org/) -->

<svg
   xmlns:dc="http://purl.org/dc/elements/1.1/"
   xmlns:cc="http://creativecommons.org/ns#"
   xmlns:rdf="http://www.w3.org/1999/02/22-rdf-syntax-ns#"
   xmlns:svg="http://www.w3.org/2000/svg"
   xmlns="http://www.w3.org/2000/svg"
   xmlns:sodipodi="http://sodipodi.sourceforge.net/DTD/sodipodi-0.dtd"
   xmlns:inkscape="http://www.inkscape.org/namespaces/inkscape"
   width="68.772331mm"
   height="62.873116mm"
   viewBox="0 0 68.772331 62.873116"
   version="1.1"
   id="svg960"
   inkscape:version="0.92.3 (2405546, 2018-03-11)"
   sodipodi:docname="R10.svg">
  <defs
     id="defs954" />
  <sodipodi:namedview
     id="base"
     pagecolor="#ffffff"
     bordercolor="#666666"
     borderopacity="1.0"
     inkscape:pageopacity="0.0"
     inkscape:pageshadow="2"
     inkscape:zoom="1.979899"
     inkscape:cx="132.07141"
     inkscape:cy="152.52541"
     inkscape:document-units="mm"
     inkscape:current-layer="layer1"
     showgrid="false"
     fit-margin-top="0"
     fit-margin-left="0"
     fit-margin-right="0"
     fit-margin-bottom="0"
     inkscape:window-width="1600"
     inkscape:window-height="845"
     inkscape:window-x="0"
     inkscape:window-y="27"
     inkscape:window-maximized="1" />
  <metadata
     id="metadata957">
    <rdf:RDF>
      <cc:Work
         rdf:about="">
        <dc:format>image/svg+xml</dc:format>
        <dc:type
           rdf:resource="http://purl.org/dc/dcmitype/StillImage" />
        <dc:title></dc:title>
      </cc:Work>
    </rdf:RDF>
  </metadata>
  <g
     inkscape:label="Layer 1"
     inkscape:groupmode="layer"
     id="layer1"
     transform="translate(-66.945855,-117.56946)">
    <path
       style="fill:#000000;stroke-width:0.26458332"
       id="path981"
       d="m 87.796731,132.97781 c 0.05554,-0.0387 0.112086,-0.0759 0.166955,-0.11563 0.08058,-0.0588 0.157321,-0.12261 0.23359,-0.18686 0.105397,-0.0899 0.211905,-0.17845 0.320297,-0.26474 0.129312,-0.10208 0.260485,-0.20177 0.391864,-0.30117 0.142168,-0.10574 0.285046,-0.21052 0.428823,-0.31405 0.159202,-0.11443 0.320596,-0.22575 0.482428,-0.3364 0.168167,-0.11568 0.33837,-0.22834 0.508505,-0.34108 0.175832,-0.11602 0.352073,-0.23142 0.529506,-0.34498 0.184237,-0.11792 0.368816,-0.2353 0.553841,-0.35197 0.182838,-0.11701 0.366742,-0.23233 0.550522,-0.34785 0.183774,-0.11519 0.36817,-0.22938 0.552053,-0.3444 0.182964,-0.11334 0.365365,-0.22758 0.547841,-0.34171 0.180049,-0.11148 0.359341,-0.22416 0.538318,-0.33735 0.179131,-0.11217 0.357354,-0.22579 0.535848,-0.33898 0.175585,-0.11279 0.35202,-0.22425 0.527563,-0.33712 0.173733,-0.11183 0.347318,-0.2239 0.52074,-0.33621 0.171219,-0.11084 0.341503,-0.2231 0.512333,-0.33453 0.169802,-0.11084 0.338921,-0.22272 0.508686,-0.33361 0.167489,-0.10929 0.334549,-0.21923 0.501824,-0.32884 0.164526,-0.10841 0.328801,-0.21721 0.493517,-0.32533 0.161142,-0.10564 0.321609,-0.21231 0.482579,-0.31821 0.157504,-0.10361 0.314529,-0.20794 0.471784,-0.31192 0.153384,-0.10135 0.306059,-0.20377 0.459242,-0.30542 0.148754,-0.0995 0.296881,-0.19998 0.444355,-0.3014 0.148092,-0.10103 0.295963,-0.20238 0.443394,-0.30437 0.149471,-0.1042 0.299286,-0.2079 0.448977,-0.31179 0.151064,-0.10478 0.303864,-0.20703 0.456944,-0.30883 0.15206,-0.10147 0.30605,-0.20001 0.46103,-0.29694 0.15191,-0.0958 0.30678,-0.18682 0.46226,-0.27669 3.42858,-0.81856 6.34232,-3.83872 9.61849,-5.53628 0.16087,-0.0844 0.32449,-0.16327 0.48969,-0.23876 0.163,-0.0751 0.3294,-0.14242 0.49704,-0.2064 0.16342,-0.0621 0.32948,-0.11685 0.49656,-0.16821 0.16088,-0.0498 0.32377,-0.0927 0.48758,-0.13163 0.15752,-0.0376 0.31741,-0.0631 0.47755,-0.0863 0.15337,-0.0233 0.30794,-0.0347 0.46285,-0.0405 0.14968,-0.006 0.29927,0.003 0.4482,0.0172 0.14317,0.0143 0.28451,0.0415 0.42395,0.0763 0.13525,0.0345 0.26379,0.0885 0.38802,0.15136 0.12104,0.0632 0.23635,0.13645 0.34981,0.21222 0.11389,0.0765 0.22259,0.16021 0.32926,0.24636 0.10733,0.0888 0.21359,0.17886 0.31918,0.26971 0.11383,0.0986 0.22532,0.19984 0.33457,0.30349 0.1212,0.11573 0.237,0.2369 0.35191,0.35883 0.12091,0.12887 0.23585,0.26303 0.34947,0.39831 0.11813,0.14186 0.23074,0.28818 0.34166,0.4357 0.1146,0.15443 0.22536,0.31164 0.33447,0.46998 0.11251,0.16395 0.22547,0.32759 0.3373,0.49201 0.11636,0.17258 0.23188,0.34573 0.34658,0.51943 0.11847,0.18246 0.24266,0.36105 0.36689,0.53961 0.12734,0.18268 0.25395,0.36589 0.38157,0.54838 0.12777,0.18226 0.25611,0.36412 0.38418,0.54618 0.12713,0.18142 0.25556,0.36192 0.38509,0.54164 0.12836,0.17903 0.25723,0.35769 0.38669,0.53592 0.13156,0.18001 0.26226,0.36066 0.39201,0.54198 0.13026,0.18135 0.26059,0.36267 0.3902,0.54449 0.12836,0.17942 0.25698,0.35864 0.38696,0.53688 0.1307,0.17761 0.2603,0.35602 0.3904,0.53407 0.12828,0.17624 0.25614,0.35279 0.38443,0.52903 0.12548,0.17201 0.24982,0.34485 0.37383,0.51793 0.12467,0.17395 0.24587,0.35033 0.3675,0.52641 0.1206,0.17556 0.24137,0.35101 0.36126,0.52706 0.11766,0.1738 0.23474,0.34799 0.35037,0.52315 0.11402,0.17124 0.22719,0.34305 0.33952,0.51539 0.11047,0.16813 0.21931,0.33729 0.32868,0.50612 0.10688,0.16482 0.21378,0.32963 0.32043,0.49459 0.10415,0.1624 0.20735,0.32541 0.31047,0.48846 0.10222,0.16122 0.20466,0.3223 0.30684,0.48355 0.0998,0.15914 0.19984,0.31805 0.30017,0.47682 0.0987,0.15658 0.1985,0.31248 0.29876,0.46808 0.0996,0.15464 0.20112,0.30799 0.30353,0.46075 0.10034,0.14963 0.20045,0.29942 0.29998,0.4496 0.099,0.14817 0.19419,0.29878 0.28827,0.45008 0.0937,0.15122 0.18371,0.3047 0.27077,0.45985 0.0871,0.15459 0.1663,0.31341 0.24175,0.47396 0.075,0.16306 0.13898,0.33081 0.20013,0.49945 0.0601,0.16707 0.1143,0.33614 0.16537,0.50615 0.0506,0.16419 0.0917,0.33096 0.12833,0.49874 0.035,0.16255 0.0538,0.3277 0.0664,0.49329 0.0113,0.16357 0.007,0.32749 -0.005,0.49084 -0.0117,0.16719 -0.0429,0.3318 -0.0793,0.49511 -0.0391,0.17187 -0.0949,0.33916 -0.15518,0.5046 -0.0651,0.17499 -0.14305,0.34461 -0.22602,0.5117 -0.089,0.17582 -0.19028,0.34491 -0.29461,0.51194 -0.10982,0.17467 -0.22829,0.3436 -0.34796,0.51159 -0.1216,0.17112 -0.25173,0.3359 -0.38427,0.49862 -0.13553,0.1664 -0.27973,0.32538 -0.42673,0.48165 -0.14981,0.15917 -0.30408,0.31405 -0.46047,0.46674 -0.15853,0.15361 -0.32187,0.30213 -0.48555,0.45021 -0.16349,0.14733 -0.32965,0.29167 -0.49761,0.43388 -0.16711,0.14175 -0.3347,0.28295 -0.50236,0.42405 -0.16839,0.14096 -0.33846,0.27989 -0.50874,0.41856 -0.17343,0.14005 -0.3472,0.27968 -0.52203,0.41798 -0.17299,0.1378 -0.34713,0.27413 -0.52137,0.41034 -0.17446,0.13672 -0.35013,0.27187 -0.52654,0.40606 -0.18227,0.13905 -0.36729,0.27442 -0.55314,0.40862 -0.19016,0.13622 -0.38092,0.2716 -0.57233,0.40606 -0.19881,0.1391 -0.39848,0.27695 -0.5981,0.41488 -0.21772,0.14926 -0.43591,0.29783 -0.65461,0.44564 -0.22352,0.14983 -0.44665,0.30025 -0.6704,0.44972 -0.22342,0.14927 -0.44726,0.29791 -0.67167,0.44568 -0.22692,0.14948 -0.45412,0.29852 -0.68088,0.44824 -0.22396,0.14719 -0.44738,0.2952 -0.67111,0.44274 -0.22559,0.14843 -0.45236,0.29505 -0.67919,0.44157 -0.23429,0.1521 -0.46915,0.30329 -0.70483,0.45322 -0.23576,0.15108 -0.4726,0.30045 -0.70852,0.45129 -0.23197,0.14817 -0.46412,0.29604 -0.69621,0.44402 -0.23051,0.14771 -0.46103,0.2954 -0.69115,0.44371 -0.22716,0.14615 -0.45385,0.29305 -0.68102,0.43918 -0.22472,0.14392 -0.44885,0.28875 -0.6738,0.43231 -0.22107,0.14178 -0.44251,0.283 -0.66335,0.42514 -0.22139,0.1412 -0.44138,0.28458 -0.66214,0.42675 -0.2234,0.14477 -0.44777,0.28801 -0.67182,0.43176 -0.22352,0.14227 -0.44567,0.28669 -0.66736,0.4318 -0.22562,0.14784 -0.4513,0.2956 -0.67693,0.44346 -0.22357,0.14706 -0.44718,0.29407 -0.67047,0.44157 -0.22735,0.1502 -0.45562,0.29902 -0.68477,0.44646 -0.22832,0.14647 -0.45706,0.29229 -0.68553,0.43854 -0.22542,0.14405 -0.45054,0.28856 -0.67446,0.43494 -0.2226,0.14614 -0.44438,0.29353 -0.66762,0.43871 -0.17677,0.11407 -0.3531,0.22881 -0.52859,0.34483 0,0 -9.142761,5.27857 -9.142761,5.27857 v 0 c 0.175496,-0.11602 0.351827,-0.23076 0.528598,-0.34483 0.223234,-0.14518 0.445013,-0.29256 0.667615,-0.43871 0.223917,-0.14638 0.449043,-0.29089 0.674465,-0.43494 0.228466,-0.14624 0.457206,-0.29207 0.685528,-0.43854 0.229153,-0.14744 0.457417,-0.29626 0.684765,-0.44646 0.22329,-0.1475 0.4469,-0.29451 0.670478,-0.44157 0.225621,-0.14785 0.451302,-0.29561 0.676922,-0.44346 0.22169,-0.14511 0.44384,-0.28953 0.66737,-0.43179 0.22404,-0.14375 0.44842,-0.28699 0.67181,-0.43176 0.22077,-0.14217 0.44076,-0.28556 0.66215,-0.42676 0.22084,-0.14214 0.44227,-0.28335 0.66335,-0.42513 0.22494,-0.14356 0.44907,-0.2884 0.67379,-0.43232 0.22718,-0.14613 0.45386,-0.29302 0.68102,-0.43918 0.23012,-0.14831 0.46065,-0.296 0.69115,-0.4437 0.23209,-0.14799 0.46425,-0.29586 0.69622,-0.44402 0.23591,-0.15084 0.47275,-0.30021 0.70851,-0.4513 0.23568,-0.14993 0.47054,-0.30112 0.70483,-0.45322 0.22684,-0.14651 0.45361,-0.29314 0.67919,-0.44157 0.22374,-0.14754 0.44715,-0.29555 0.67111,-0.44274 0.22677,-0.14971 0.45396,-0.29876 0.68088,-0.44824 0.22442,-0.14776 0.44825,-0.29641 0.67167,-0.44567 0.22376,-0.14948 0.44688,-0.2999 0.6704,-0.44973 0.2187,-0.14781 0.4369,-0.29638 0.65462,-0.44564 0.19961,-0.13793 0.39929,-0.27578 0.59809,-0.41488 0.19141,-0.13446 0.38217,-0.26984 0.57233,-0.40606 0.18586,-0.1342 0.37087,-0.26957 0.55314,-0.40861 0.17641,-0.13419 0.35209,-0.26935 0.52655,-0.40606 0.17423,-0.13622 0.34838,-0.27255 0.52136,-0.41034 0.17483,-0.1383 0.3486,-0.27794 0.52203,-0.41799 0.17028,-0.13866 0.34035,-0.2776 0.50874,-0.41856 0.16767,-0.1411 0.33525,-0.2823 0.50236,-0.42405 0.16797,-0.14221 0.33412,-0.28654 0.49762,-0.43387 0.16367,-0.14809 0.32702,-0.2966 0.48555,-0.45022 0.15639,-0.15268 0.31066,-0.30757 0.46047,-0.46674 0.14699,-0.15627 0.29119,-0.31525 0.42673,-0.48165 0.13254,-0.16271 0.26266,-0.3275 0.38426,-0.49862 0.11968,-0.16798 0.23814,-0.33692 0.34796,-0.51159 0.10433,-0.16703 0.20563,-0.33611 0.29461,-0.51194 0.083,-0.16709 0.16097,-0.33671 0.22602,-0.5117 0.0602,-0.16543 0.11608,-0.33272 0.15518,-0.5046 0.0364,-0.1633 0.0675,-0.32792 0.0793,-0.49511 0.0119,-0.16335 0.016,-0.32727 0.005,-0.49084 -0.0125,-0.16559 -0.0314,-0.33074 -0.0664,-0.49328 -0.0366,-0.16779 -0.0778,-0.33455 -0.12832,-0.49875 -0.0511,-0.17 -0.10532,-0.33908 -0.16538,-0.50615 -0.0611,-0.16864 -0.12515,-0.33639 -0.20013,-0.49945 -0.0754,-0.16055 -0.15463,-0.31937 -0.24175,-0.47396 -0.0871,-0.15514 -0.17704,-0.30863 -0.27077,-0.45985 -0.0941,-0.1513 -0.18931,-0.3019 -0.28827,-0.45007 -0.0995,-0.15018 -0.19964,-0.29997 -0.29998,-0.4496 -0.10241,-0.15277 -0.20397,-0.30611 -0.30353,-0.46076 -0.10026,-0.15559 -0.20004,-0.31149 -0.29876,-0.46807 -0.10032,-0.15878 -0.20042,-0.31769 -0.30017,-0.47683 -0.10218,-0.16124 -0.20462,-0.32233 -0.30684,-0.48355 -0.10312,-0.16305 -0.20632,-0.32606 -0.31047,-0.48845 -0.10666,-0.16497 -0.21355,-0.32978 -0.32043,-0.49459 -0.10937,-0.16883 -0.21822,-0.338 -0.32868,-0.50612 -0.11233,-0.17235 -0.2255,-0.34416 -0.33952,-0.5154 -0.11563,-0.17515 -0.23271,-0.34934 -0.35037,-0.52314 -0.11989,-0.17606 -0.24065,-0.35151 -0.36126,-0.52707 -0.12163,-0.17608 -0.24283,-0.35246 -0.3675,-0.52641 -0.12401,-0.17308 -0.24835,-0.34592 -0.37383,-0.51793 -0.12829,-0.17624 -0.25615,-0.35279 -0.38443,-0.52903 -0.1301,-0.17804 -0.2597,-0.35646 -0.3904,-0.53407 -0.12998,-0.17824 -0.2586,-0.35746 -0.38696,-0.53688 -0.12961,-0.18182 -0.25994,-0.36313 -0.3902,-0.54449 -0.12975,-0.18132 -0.26045,-0.36197 -0.39201,-0.54198 -0.12946,-0.17823 -0.25833,-0.35689 -0.38669,-0.53592 -0.12953,-0.17971 -0.25796,-0.36022 -0.38509,-0.54164 -0.12807,-0.18205 -0.2564,-0.36392 -0.38418,-0.54618 -0.12763,-0.18249 -0.25422,-0.36569 -0.38157,-0.54838 -0.12423,-0.17856 -0.24842,-0.35715 -0.36689,-0.53961 -0.11469,-0.17369 -0.23022,-0.34684 -0.34658,-0.51942 -0.11183,-0.16442 -0.22479,-0.32807 -0.3373,-0.49202 -0.10911,-0.15833 -0.21987,-0.31555 -0.33447,-0.46997 -0.11092,-0.14753 -0.22353,-0.29385 -0.34166,-0.43571 -0.11362,-0.13528 -0.22856,-0.26944 -0.34947,-0.39831 -0.1149,-0.12192 -0.2307,-0.2431 -0.35191,-0.35883 -0.10925,-0.10365 -0.22074,-0.20487 -0.33457,-0.30349 -0.10559,-0.0908 -0.21185,-0.18092 -0.31918,-0.2697 -0.10667,-0.0862 -0.21537,-0.16988 -0.32926,-0.24637 -0.11346,-0.0758 -0.22877,-0.149 -0.34981,-0.21221 -0.12422,-0.0628 -0.25276,-0.11685 -0.38801,-0.15136 -0.13945,-0.0349 -0.28079,-0.0621 -0.42395,-0.0764 -0.14894,-0.0144 -0.29853,-0.0228 -0.44821,-0.0172 -0.1549,0.006 -0.30948,0.0172 -0.46285,0.0405 -0.16014,0.0232 -0.32003,0.0488 -0.47755,0.0863 -0.16381,0.0389 -0.3267,0.0818 -0.48758,0.13163 -0.16709,0.0514 -0.33314,0.10607 -0.49656,0.16821 -0.16764,0.064 -0.33404,0.13126 -0.49704,0.2064 -0.1652,0.0755 -0.32882,0.1544 -0.48969,0.23877 -3.225096,1.67109 -6.336143,4.62393 8.66702,-5.02088 -0.15548,0.0899 -0.31035,0.18086 -0.46225,0.2767 -0.15499,0.0969 -0.30897,0.19547 -0.46103,0.29694 -0.15309,0.10179 -0.30589,0.20405 -0.45695,0.30883 -0.14969,0.10388 -0.29951,0.20759 -0.44898,0.31179 -0.14743,0.10199 -0.2953,0.20334 -0.44339,0.30436 -0.14748,0.10142 -0.2956,0.20188 -0.44436,0.30141 -0.15318,0.10165 -0.30585,0.20407 -0.45924,0.30541 -0.15725,0.10399 -0.31428,0.20832 -0.47178,0.31192 -0.16097,0.10591 -0.32144,0.21257 -0.48258,0.31821 -0.16472,0.10813 -0.32899,0.21692 -0.49352,0.32533 -0.16727,0.10962 -0.33433,0.21956 -0.50182,0.32885 -0.16977,0.11089 -0.33889,0.22277 -0.50869,0.33361 -0.17083,0.11142 -0.34111,0.22369 -0.51233,0.33453 -0.17342,0.11231 -0.34701,0.22438 -0.52074,0.33621 -0.17554,0.11286 -0.35198,0.22432 -0.52756,0.33712 -0.1785,0.11318 -0.35672,0.2268 -0.53585,0.33898 -0.17898,0.11319 -0.35827,0.22587 -0.53832,0.33735 -0.18248,0.11412 -0.36488,0.22837 -0.54784,0.34171 -0.18388,0.11502 -0.36828,0.2292 -0.55205,0.3444 -0.18378,0.11552 -0.36769,0.23084 -0.55053,0.34785 -0.18502,0.11667 -0.3696,0.23405 -0.55384,0.35196 -0.177427,0.11357 -0.353669,0.22897 -0.529503,0.34499 -0.170135,0.11274 -0.340339,0.2254 -0.508503,0.34108 -0.161835,0.11065 -0.323228,0.22197 -0.48243,0.33639 -0.143778,0.10354 -0.286655,0.20832 -0.428821,0.31405 -0.131382,0.0994 -0.262551,0.1991 -0.391867,0.30118 -0.108389,0.0863 -0.214899,0.17482 -0.320296,0.26474 -0.07627,0.0643 -0.153011,0.12802 -0.23359,0.18685 -0.05487,0.0397 -0.111414,0.0769 -0.166955,0.11564 0,0 -9.142756,5.27857 -9.142756,5.27857 z"
       inkscape:connector-curvature="0" />
    <path
       style="fill:#000000;stroke-width:0.26458332"
       id="path983"
       d="m 112.29298,150.45941 c 0.0144,0.0269 0.0298,0.0533 0.0465,0.0788 0.0173,0.0275 0.0371,0.0533 0.0561,0.0796 0.0231,0.0312 0.0472,0.0616 0.071,0.0922 0.0308,0.0391 0.062,0.0778 0.0932,0.11644 0.036,0.0447 0.072,0.0893 0.10682,0.13488 0.0393,0.0522 0.0755,0.10657 0.11183,0.16081 0.0412,0.0607 0.0825,0.12135 0.12435,0.18165 0.045,0.065 0.0889,0.13071 0.13139,0.1974 0.0479,0.0754 0.0947,0.15152 0.14104,0.22794 0.0511,0.0841 0.10243,0.16802 0.15437,0.2516 0.0545,0.0872 0.10695,0.17561 0.16042,0.26342 0.0565,0.0926 0.11226,0.18567 0.16749,0.27905 0.058,0.0983 0.11559,0.19677 0.17251,0.29566 0.0591,0.10168 0.11684,0.20414 0.17493,0.3064 0.0586,0.10397 0.11683,0.20815 0.1747,0.31252 0.0593,0.10431 0.11775,0.20912 0.17679,0.3136 0.0594,0.10513 0.11897,0.21018 0.17895,0.31499 0.0609,0.10774 0.12246,0.21514 0.18319,0.32299 0.0599,0.10803 0.12125,0.21524 0.18103,0.32334 0.061,0.11109 0.12332,0.22148 0.18622,0.33152 0.0653,0.11262 0.1295,0.22583 0.19403,0.33887 0.0652,0.11568 0.13252,0.23015 0.19966,0.34472 0.071,0.11923 0.14153,0.23876 0.21372,0.35728 0.0743,0.12192 0.14948,0.2433 0.2245,0.36477 0.0747,0.12041 0.1487,0.24127 0.22316,0.36183 0.0753,0.12053 0.15141,0.24057 0.22765,0.36052 0.0789,0.12372 0.15937,0.2464 0.23958,0.36926 0.0823,0.12621 0.16557,0.25184 0.24913,0.37724 0.0828,0.12467 0.16709,0.24839 0.25067,0.37256 0.0851,0.12665 0.16976,0.25358 0.25389,0.38087 0.0851,0.12667 0.16859,0.25437 0.25278,0.38162 0.0871,0.13201 0.17378,0.26434 0.2578,0.39835 0.0913,0.1459 0.18202,0.2921 0.27129,0.43923 0.093,0.1517 0.18486,0.30405 0.27695,0.45628 0.0909,0.15028 0.18016,0.30151 0.2703,0.45223 0.0897,0.14966 0.17839,0.29993 0.26714,0.45015 0.0918,0.15629 0.18153,0.31377 0.27235,0.47062 0.0915,0.15803 0.18353,0.31582 0.27623,0.47318 0.0932,0.15913 0.18622,0.31833 0.27858,0.47793 0.0902,0.15718 0.18161,0.31369 0.27123,0.47121 0.0906,0.15815 0.18128,0.31627 0.27135,0.47473 0.092,0.16076 0.18292,0.32217 0.27443,0.48323 0.0897,0.15948 0.17936,0.31896 0.26897,0.47848 0.0893,0.15695 0.17788,0.31429 0.26672,0.4715 0.0877,0.15547 0.17685,0.31013 0.26537,0.46515 0.0906,0.15797 0.18036,0.31643 0.2705,0.47467 0.0922,0.16035 0.18334,0.32136 0.27389,0.48268 0.0919,0.16098 0.18209,0.32294 0.27265,0.48468 0.0903,0.16206 0.18162,0.32355 0.27168,0.48575 0.0923,0.16658 0.18594,0.33245 0.27926,0.49848 0.0928,0.16499 0.18861,0.32829 0.2871,0.48997 0.10116,0.16448 0.21038,0.32373 0.32533,0.47881 0.12262,0.16327 0.25502,0.31875 0.39077,0.47114 0.14466,0.16104 0.29878,0.31309 0.45654,0.46118 0.16335,0.15189 0.33803,0.29072 0.5145,0.42689 0.17758,0.13756 0.36698,0.25838 0.56001,0.3728 0.20003,0.11819 0.40963,0.21851 0.62079,0.3149 0.21378,0.0975 0.4331,0.18174 0.65453,0.25997 0.22225,0.0775 0.44988,0.13759 0.67902,0.19062 0.22974,0.0525 0.46225,0.0906 0.69585,0.12094 0.2348,0.0293 0.47085,0.0459 0.70716,0.0563 0.2396,0.01 0.47929,0.002 0.71854,-0.0113 0.24399,-0.0151 0.48701,-0.0416 0.72938,-0.073 0.24914,-0.0326 0.49575,-0.0807 0.74129,-0.13349 0.2589,-0.0566 0.51426,-0.12756 0.76842,-0.20225 0.26414,-0.0791 0.52566,-0.1665 0.78619,-0.25665 0.26043,-0.0896 0.51722,-0.18912 0.77148,-0.29487 0.25354,-0.10689 0.50393,-0.22104 0.75423,-0.33524 0.24527,-0.11148 0.49091,-0.22211 0.73491,-0.33634 0.23772,-0.11243 0.47365,-0.22856 0.70965,-0.34455 0.11396,-0.0564 0.22758,-0.11352 0.34123,-0.17056 0,0 -9.14276,5.27857 -9.14276,5.27857 v 0 c -0.11365,0.057 -0.22727,0.11414 -0.34123,0.17057 -0.236,0.11598 -0.47193,0.23211 -0.70965,0.34454 -0.244,0.11423 -0.48964,0.22486 -0.7349,0.33634 -0.25031,0.1142 -0.5007,0.22835 -0.75424,0.33525 -0.25425,0.10574 -0.51104,0.20525 -0.77147,0.29487 -0.26054,0.0901 -0.52206,0.17756 -0.7862,0.25664 -0.25416,0.0747 -0.50952,0.14562 -0.76841,0.20225 -0.24554,0.0528 -0.49216,0.10086 -0.7413,0.1335 -0.24237,0.0314 -0.48539,0.0579 -0.72938,0.073 -0.23925,0.0139 -0.47893,0.0213 -0.71854,0.0113 -0.23631,-0.0104 -0.47236,-0.0269 -0.70716,-0.0563 -0.23359,-0.0303 -0.46611,-0.0685 -0.69585,-0.12094 -0.22914,-0.053 -0.45677,-0.11313 -0.67901,-0.19062 -0.22144,-0.0782 -0.44075,-0.1625 -0.65454,-0.25997 -0.21115,-0.0964 -0.42075,-0.19671 -0.62079,-0.3149 -0.19303,-0.11442 -0.38243,-0.23524 -0.56001,-0.3728 -0.17647,-0.13616 -0.35114,-0.275 -0.51449,-0.42689 -0.15777,-0.14808 -0.31188,-0.30014 -0.45655,-0.46118 -0.13575,-0.15239 -0.26815,-0.30786 -0.39077,-0.47113 -0.11495,-0.15509 -0.22417,-0.31434 -0.32533,-0.47881 -0.0985,-0.16169 -0.19426,-0.32498 -0.28709,-0.48998 -0.0933,-0.16603 -0.18694,-0.3319 -0.27927,-0.49848 -0.0901,-0.16219 -0.18138,-0.32368 -0.27168,-0.48574 -0.0906,-0.16175 -0.18075,-0.3237 -0.27265,-0.48469 -0.0905,-0.16132 -0.18164,-0.32233 -0.27389,-0.48267 -0.0901,-0.15824 -0.17989,-0.3167 -0.27049,-0.47468 -0.0885,-0.15501 -0.17767,-0.30968 -0.26538,-0.46515 -0.0888,-0.1572 -0.17743,-0.31455 -0.26672,-0.47149 -0.0896,-0.15953 -0.17928,-0.31901 -0.26896,-0.47849 -0.0915,-0.16105 -0.1824,-0.32247 -0.27443,-0.48323 -0.0901,-0.15846 -0.18074,-0.31658 -0.27136,-0.47473 -0.0896,-0.15752 -0.18101,-0.31402 -0.27123,-0.47121 -0.0923,-0.1596 -0.18542,-0.31879 -0.27858,-0.47792 -0.0927,-0.15737 -0.18468,-0.31515 -0.27623,-0.47318 -0.0908,-0.15686 -0.18056,-0.31434 -0.27234,-0.47062 -0.0888,-0.15023 -0.17743,-0.3005 -0.26715,-0.45015 -0.0901,-0.15073 -0.17943,-0.30196 -0.2703,-0.45224 -0.0921,-0.15223 -0.18398,-0.30458 -0.27695,-0.45628 -0.0893,-0.14713 -0.18003,-0.29332 -0.27128,-0.43922 -0.084,-0.13402 -0.17067,-0.26634 -0.2578,-0.39836 -0.0842,-0.12725 -0.16771,-0.25495 -0.25278,-0.38161 -0.0841,-0.12729 -0.16881,-0.25423 -0.2539,-0.38087 -0.0836,-0.12418 -0.16782,-0.2479 -0.25066,-0.37257 -0.0836,-0.1254 -0.1668,-0.25103 -0.24913,-0.37724 -0.0802,-0.12286 -0.16071,-0.24554 -0.23959,-0.36926 -0.0762,-0.11995 -0.15233,-0.23999 -0.22764,-0.36052 -0.0745,-0.12056 -0.14845,-0.24141 -0.22317,-0.36182 -0.075,-0.12148 -0.1502,-0.24286 -0.2245,-0.36478 -0.0722,-0.11852 -0.14271,-0.23804 -0.21372,-0.35728 -0.0671,-0.11457 -0.13445,-0.22903 -0.19966,-0.34471 -0.0645,-0.11305 -0.12877,-0.22625 -0.19403,-0.33888 -0.0629,-0.11004 -0.12518,-0.22042 -0.18621,-0.33152 -0.0598,-0.10809 -0.12113,-0.21531 -0.18104,-0.32333 -0.0607,-0.10786 -0.12224,-0.21526 -0.18319,-0.32299 -0.06,-0.10482 -0.11953,-0.20987 -0.17895,-0.315 -0.059,-0.10448 -0.11747,-0.20928 -0.17678,-0.3136 -0.0579,-0.10437 -0.11611,-0.20855 -0.17471,-0.31252 -0.0581,-0.10226 -0.11583,-0.20472 -0.17493,-0.3064 -0.0569,-0.0989 -0.11449,-0.1974 -0.17251,-0.29565 -0.0552,-0.0934 -0.11103,-0.18642 -0.16749,-0.27905 -0.0535,-0.0878 -0.10591,-0.17626 -0.16042,-0.26343 -0.0519,-0.0836 -0.10325,-0.16753 -0.15437,-0.2516 -0.0463,-0.0764 -0.0931,-0.15253 -0.14104,-0.22794 -0.0425,-0.0667 -0.0864,-0.13242 -0.13139,-0.1974 -0.0418,-0.0603 -0.0832,-0.1209 -0.12435,-0.18165 -0.0364,-0.0542 -0.0725,-0.10865 -0.11183,-0.16081 -0.0348,-0.0456 -0.0708,-0.0902 -0.10681,-0.13488 -0.0313,-0.0387 -0.0625,-0.0774 -0.0932,-0.11644 -0.0238,-0.0306 -0.048,-0.061 -0.071,-0.0922 -0.019,-0.0263 -0.0387,-0.0522 -0.0561,-0.0796 -0.0167,-0.0255 -0.0322,-0.0519 -0.0465,-0.0788 0,0 9.14275,-5.27857 9.14275,-5.27857 z"
       inkscape:connector-curvature="0" />
    <path
       style="fill:#000000;stroke-width:0.26458332"
       id="path985"
       d="m 86.783248,121.6945 c 0.04796,-0.02 0.09435,-0.0434 0.140213,-0.0677 0.05917,-0.0314 0.118115,-0.0633 0.177395,-0.0945 0.07097,-0.0384 0.143378,-0.0741 0.215829,-0.10967 0.08503,-0.0416 0.170024,-0.0833 0.254865,-0.12533 0.09393,-0.0461 0.188232,-0.0915 0.282151,-0.13758 0.09853,-0.0483 0.197197,-0.0963 0.296397,-0.14316 0.104445,-0.0508 0.209833,-0.0997 0.315307,-0.14832 0.108752,-0.0502 0.218186,-0.0988 0.327848,-0.14697 0.111717,-0.0492 0.224943,-0.0948 0.338688,-0.13911 0.121438,-0.0474 0.244647,-0.0899 0.368718,-0.12976 0.127264,-0.0417 0.256698,-0.0761 0.386373,-0.10925 0.1293,-0.0333 0.259684,-0.0621 0.390404,-0.0892 0.128934,-0.0271 0.258902,-0.0488 0.389268,-0.0677 0.129564,-0.0183 0.259768,-0.0316 0.389869,-0.0453 0.129566,-0.0131 0.259511,-0.022 0.38954,-0.0289 0.127768,-0.007 0.255688,-0.01 0.383636,-0.0109 0.125571,1.6e-4 0.251097,0.003 0.376523,0.009 0.122804,0.007 0.245284,0.0186 0.367551,0.0318 0.120319,0.0121 0.239993,0.0287 0.358931,0.0505 0.117213,0.0216 0.231884,0.054 0.346075,0.0877 0.113218,0.0341 0.225338,0.0717 0.335926,0.11357 0.107122,0.0389 0.209732,0.0882 0.310068,0.14197 0.100282,0.0536 0.194593,0.11701 0.28658,0.18361 0.09341,0.0682 0.182431,0.142 0.270262,0.21717 0.08901,0.0753 0.172048,0.15708 0.252494,0.24136 0.08274,0.087 0.155498,0.18254 0.224859,0.28034 0.07241,0.1031 0.138282,0.21052 0.202467,0.31886 0.06426,0.10934 0.126873,0.21966 0.186804,0.33144 0.06076,0.11428 0.116462,0.23111 0.170082,0.34888 0.05596,0.12442 0.108482,0.25035 0.159972,0.37667 0.05217,0.12774 0.101971,0.25642 0.15103,0.38538 0.04988,0.13112 0.09657,0.26343 0.142594,0.39594 0.04621,0.13311 0.09079,0.26677 0.134634,0.40068 0.04483,0.1386 0.08808,0.27772 0.129783,0.4173 0.04438,0.15314 0.08686,0.30684 0.129839,0.46038 0.0446,0.15845 0.08672,0.31758 0.127381,0.47708 0.04463,0.17274 0.08197,0.34719 0.117758,0.52193 0.03698,0.18236 0.07215,0.36507 0.106548,0.54794 0.03565,0.19047 0.06443,0.3821 0.09154,0.57394 0.02961,0.20506 0.05333,0.41088 0.07675,0.61671 0.02394,0.21164 0.04654,0.42343 0.06874,0.63525 0.024,0.21932 0.04393,0.43903 0.06215,0.65889 0.01778,0.23341 0.0327,0.46703 0.04781,0.70063 0.01537,0.23505 0.02978,0.47015 0.04378,0.70529 0.01413,0.24308 0.02763,0.48619 0.04288,0.7292 0.01553,0.2431 0.0309,0.4862 0.04606,0.72932 0.01434,0.24332 0.03133,0.48647 0.04763,0.72967 0.01672,0.24979 0.03276,0.49962 0.04853,0.74947 0.01566,0.25213 0.03372,0.5041 0.05093,0.75612 0.01738,0.2542 0.03399,0.50844 0.05047,0.7627 0.01627,0.25145 0.03221,0.50292 0.0477,0.75442 0.01495,0.25699 0.03212,0.51385 0.04887,0.77073 0.01701,0.26095 0.03343,0.52195 0.04969,0.78296 0.01601,0.26081 0.0345,0.52145 0.05202,0.78217 0.01704,0.26845 0.03634,0.53675 0.05535,0.80507 0.01844,0.26886 0.03828,0.5376 0.05851,0.80632 0.02088,0.27632 0.04066,0.55272 0.05996,0.82915 0.02069,0.28114 0.04203,0.56223 0.063,0.84334 0.02064,0.27726 0.04083,0.55455 0.06069,0.83186 0.02077,0.27485 0.04237,0.54963 0.06356,0.82445 0.0208,0.27068 0.04109,0.54139 0.06122,0.81212 0.01987,0.26733 0.03899,0.53471 0.05782,0.80211 0.02035,0.27258 0.04083,0.54515 0.06082,0.81775 0.01995,0.27201 0.03931,0.54407 0.05863,0.81612 0.01908,0.26477 0.03656,0.52965 0.05601,0.79438 0.0199,0.26402 0.0397,0.52805 0.0591,0.7921 0.01921,0.26267 0.03788,0.52537 0.0564,0.78808 0.01834,0.25601 0.03511,0.51213 0.0539,0.7681 0.01887,0.25053 0.03819,0.50103 0.0571,0.75156 0.01865,0.24784 0.03663,0.49573 0.05452,0.74363 0.01707,0.24095 0.03709,0.48168 0.05651,0.72246 0.01889,0.23424 0.03747,0.46852 0.05575,0.70282 0.01765,0.22906 0.03498,0.45814 0.05425,0.68707 0.0191,0.22389 0.03819,0.44777 0.0568,0.6717 0.01916,0.2292 0.03669,0.45852 0.05394,0.68787 0.01643,0.23299 0.03574,0.46576 0.05476,0.69856 0.01916,0.22949 0.03654,0.45912 0.05589,0.6886 0.0195,0.22468 0.03951,0.44931 0.05905,0.67398 0.01953,0.2247 0.03796,0.4495 0.05637,0.67429 0.01805,0.22105 0.03575,0.44213 0.05323,0.66323 0.01714,0.21714 0.03381,0.43431 0.05026,0.65149 0.01614,0.21316 0.03189,0.42634 0.04745,0.63953 0.01442,0.20829 0.0305,0.41645 0.04747,0.62454 0.01667,0.20203 0.0331,0.40409 0.04946,0.60615 0.01587,0.19677 0.03143,0.39357 0.04685,0.59038 0.01418,0.19246 0.03124,0.38468 0.04807,0.57692 0.01677,0.19135 0.03294,0.38275 0.04893,0.57416 0.01577,0.18942 0.0311,0.37889 0.04628,0.56837 0.01498,0.18594 0.02939,0.37193 0.0437,0.55793 0.01402,0.18312 0.0277,0.36626 0.04126,0.54941 0.01323,0.17889 0.02614,0.35781 0.03895,0.53673 0.01246,0.17498 0.02471,0.34997 0.03678,0.52498 0.01183,0.17291 0.02334,0.34584 0.03472,0.51878 0.01117,0.16897 0.02204,0.33797 0.03278,0.50697 0.01056,0.16539 0.02077,0.3308 0.03095,0.49621 0.01005,0.16308 0.01971,0.32618 0.02923,0.48929 0.0094,0.16145 0.01852,0.32291 0.02759,0.48438 0.0078,0.15922 0.01371,0.31852 0.01982,0.47781 0.006,0.1575 0.01177,0.31501 0.01752,0.47252 0.0057,0.15597 0.01111,0.31196 0.01651,0.46795 0.0054,0.15599 0.01048,0.31199 0.01558,0.46798 0.005,0.15405 0.0099,0.30811 0.01471,0.46217 0.0048,0.15265 0.0094,0.30532 0.01389,0.45798 0.0045,0.15295 0.0088,0.30591 0.01312,0.45887 0.004,0.15272 0.01098,0.30534 0.01741,0.45797 0.0064,0.15121 0.01262,0.30242 0.01884,0.45364 0.0061,0.14874 0.01198,0.29748 0.01783,0.44623 0.0057,0.14614 0.0113,0.29228 0.01683,0.43843 0.004,0.1398 0.0079,0.27962 0.0074,0.41949 -5.29e-4,0.0213 -7.94e-4,0.0426 -0.0013,0.0639 0,0 -9.142757,5.27858 -9.142757,5.27858 v 0 c 5.3e-4,-0.0213 7.94e-4,-0.0426 0.0013,-0.0639 5.3e-4,-0.13986 -0.0034,-0.27968 -0.0075,-0.41949 -0.0055,-0.14614 -0.01109,-0.29229 -0.01683,-0.43843 -0.0058,-0.14874 -0.01172,-0.29749 -0.01783,-0.44623 -0.0062,-0.15121 -0.01246,-0.30243 -0.01884,-0.45363 -0.0064,-0.15264 -0.01341,-0.30525 -0.01741,-0.45797 -0.0043,-0.15296 -0.0086,-0.30592 -0.01312,-0.45888 -0.0045,-0.15266 -0.0091,-0.30532 -0.01389,-0.45798 -0.0048,-0.15406 -0.0097,-0.30811 -0.01471,-0.46216 -0.0051,-0.156 -0.01021,-0.312 -0.01558,-0.46799 -0.0054,-0.15599 -0.01079,-0.31197 -0.01651,-0.46795 -0.0057,-0.15751 -0.01154,-0.31502 -0.01752,-0.47252 -0.0061,-0.15929 -0.01201,-0.31859 -0.01982,-0.47781 -0.009,-0.16146 -0.0182,-0.32293 -0.02759,-0.48437 -0.0095,-0.16312 -0.01918,-0.32622 -0.02922,-0.4893 -0.01019,-0.16541 -0.02037,-0.33082 -0.03095,-0.49621 -0.01077,-0.169 -0.02162,-0.33799 -0.03279,-0.50697 -0.01138,-0.17294 -0.02289,-0.34587 -0.03472,-0.51878 -0.01206,-0.175 -0.02432,-0.35 -0.03678,-0.52498 -0.01281,-0.17892 -0.02572,-0.35783 -0.03896,-0.53673 -0.01355,-0.18315 -0.02724,-0.36629 -0.04125,-0.54941 -0.01431,-0.186 -0.02872,-0.37199 -0.0437,-0.55793 -0.01519,-0.18948 -0.0305,-0.37894 -0.04628,-0.56837 -0.01598,-0.19141 -0.03217,-0.38281 -0.04893,-0.57416 -0.01683,-0.19224 -0.0339,-0.38446 -0.04807,-0.57691 -0.0154,-0.19681 -0.03097,-0.39361 -0.04685,-0.59039 -0.01635,-0.20206 -0.03278,-0.40411 -0.04945,-0.60615 -0.01696,-0.20809 -0.03304,-0.41625 -0.04747,-0.62453 -0.01556,-0.2132 -0.03131,-0.42638 -0.04745,-0.63953 -0.01643,-0.21719 -0.0331,-0.43436 -0.05026,-0.65149 -0.01749,-0.2211 -0.03518,-0.44218 -0.05323,-0.66324 -0.01842,-0.22479 -0.03685,-0.44958 -0.05637,-0.67428 -0.01955,-0.22467 -0.03956,-0.44931 -0.05905,-0.67398 -0.01934,-0.22948 -0.03673,-0.45912 -0.05589,-0.68861 -0.01902,-0.23279 -0.03833,-0.46557 -0.05476,-0.69856 -0.01725,-0.22934 -0.03479,-0.45867 -0.05393,-0.68787 -0.0186,-0.22393 -0.03769,-0.44781 -0.0568,-0.6717 -0.01926,-0.22893 -0.0366,-0.45801 -0.05425,-0.68707 -0.01828,-0.2343 -0.03687,-0.46857 -0.05575,-0.70282 -0.01942,-0.24077 -0.03944,-0.48151 -0.05651,-0.72246 -0.01789,-0.2479 -0.03586,-0.49579 -0.05452,-0.74363 -0.01892,-0.25053 -0.03823,-0.50103 -0.0571,-0.75156 -0.01879,-0.25597 -0.03557,-0.51209 -0.0539,-0.76809 -0.01852,-0.26272 -0.03721,-0.52542 -0.0564,-0.78808 -0.01939,-0.26406 -0.03921,-0.52808 -0.0591,-0.7921 -0.01945,-0.26474 -0.03693,-0.52962 -0.05601,-0.79438 -0.01931,-0.27206 -0.03869,-0.54412 -0.05863,-0.81613 -0.02,-0.2726 -0.04047,-0.54517 -0.06082,-0.81774 -0.01881,-0.26741 -0.03795,-0.53479 -0.05782,-0.80211 -0.02013,-0.27073 -0.04042,-0.54145 -0.06122,-0.81212 -0.02119,-0.27482 -0.04278,-0.54961 -0.06356,-0.82446 -0.01987,-0.27731 -0.04005,-0.5546 -0.06069,-0.83185 -0.02096,-0.28112 -0.04232,-0.56221 -0.063,-0.84334 -0.01929,-0.27644 -0.03907,-0.55283 -0.05996,-0.82915 -0.02024,-0.26872 -0.04008,-0.53747 -0.05851,-0.80632 -0.019,-0.26832 -0.0383,-0.53663 -0.05535,-0.80508 -0.01752,-0.26071 -0.03603,-0.52136 -0.05202,-0.78217 -0.01627,-0.26101 -0.03267,-0.522 -0.04969,-0.78296 -0.01675,-0.25688 -0.03391,-0.51373 -0.04887,-0.77072 -0.0155,-0.2515 -0.03141,-0.50298 -0.0477,-0.75443 -0.01648,-0.25425 -0.0331,-0.5085 -0.05048,-0.76269 -0.0172,-0.25203 -0.03527,-0.504 -0.05092,-0.75613 -0.01577,-0.24985 -0.0318,-0.49968 -0.04853,-0.74947 -0.0163,-0.24319 -0.03329,-0.48634 -0.04763,-0.72966 -0.01516,-0.24313 -0.03055,-0.48623 -0.04606,-0.72933 -0.01527,-0.24301 -0.02874,-0.48612 -0.04288,-0.7292 -0.014,-0.23513 -0.02841,-0.47024 -0.04377,-0.70529 -0.01511,-0.2336 -0.03003,-0.46721 -0.04781,-0.70062 -0.01823,-0.21987 -0.03815,-0.43957 -0.06215,-0.65889 -0.0222,-0.21183 -0.0448,-0.42362 -0.06874,-0.63526 -0.02341,-0.20583 -0.04715,-0.41165 -0.07675,-0.6167 -0.02711,-0.19185 -0.05589,-0.38347 -0.09154,-0.57395 -0.0344,-0.18286 -0.06957,-0.36558 -0.106548,-0.54794 -0.03579,-0.17474 -0.07313,-0.34918 -0.117758,-0.52192 -0.04066,-0.15951 -0.08278,-0.31863 -0.127381,-0.47709 -0.04298,-0.15354 -0.08546,-0.30724 -0.129839,-0.46038 -0.0417,-0.13958 -0.08495,-0.27869 -0.129784,-0.4173 -0.04384,-0.1339 -0.08842,-0.26757 -0.134633,-0.40068 -0.04602,-0.13251 -0.09271,-0.26481 -0.142597,-0.39594 -0.04906,-0.12896 -0.09886,-0.25763 -0.151027,-0.38537 -0.05149,-0.12633 -0.104013,-0.25226 -0.159972,-0.37668 -0.05362,-0.11776 -0.109321,-0.2346 -0.170082,-0.34888 -0.05993,-0.11177 -0.122547,-0.2221 -0.186804,-0.33144 -0.06418,-0.10834 -0.130061,-0.21575 -0.20247,-0.31885 -0.06936,-0.0978 -0.142115,-0.19331 -0.224856,-0.28035 -0.08045,-0.0843 -0.163489,-0.16604 -0.252494,-0.24136 -0.08783,-0.0752 -0.176853,-0.14895 -0.270262,-0.21717 -0.09199,-0.0666 -0.186298,-0.12998 -0.286581,-0.18361 -0.100335,-0.0537 -0.202946,-0.10307 -0.310067,-0.14196 -0.110588,-0.0419 -0.222708,-0.0795 -0.335926,-0.11357 -0.114191,-0.0336 -0.228865,-0.0661 -0.346075,-0.0877 -0.118941,-0.0217 -0.238612,-0.0384 -0.358931,-0.0505 -0.122269,-0.0132 -0.24475,-0.0248 -0.367551,-0.0318 -0.125426,-0.006 -0.250955,-0.009 -0.376524,-0.009 -0.127947,7.9e-4 -0.255867,0.004 -0.383635,0.0108 -0.130029,0.007 -0.259977,0.0158 -0.389541,0.0289 -0.1301,0.0138 -0.260305,0.0271 -0.389871,0.0453 -0.130363,0.0189 -0.260331,0.0406 -0.389268,0.0677 -0.130718,0.0271 -0.261104,0.0559 -0.390401,0.0892 -0.129675,0.0332 -0.259109,0.0676 -0.386376,0.10925 -0.124069,0.0399 -0.247277,0.0824 -0.368716,0.12977 -0.113744,0.0443 -0.22697,0.0899 -0.338687,0.1391 -0.109662,0.0481 -0.219097,0.0968 -0.327848,0.14698 -0.105474,0.0486 -0.210865,0.0975 -0.315307,0.14831 -0.0992,0.0469 -0.197871,0.0949 -0.296399,0.14316 -0.09392,0.0461 -0.188217,0.0915 -0.282149,0.13758 -0.08484,0.042 -0.169831,0.0837 -0.254866,0.12534 -0.07245,0.0355 -0.144856,0.0712 -0.215828,0.10967 -0.05928,0.0312 -0.118227,0.063 -0.177395,0.0945 -0.04586,0.0243 -0.09225,0.0478 -0.140214,0.0677 0,0 9.142757,-5.27858 9.142757,-5.27858 z"
       inkscape:connector-curvature="0" />
    <path
       style="fill:#000000;stroke-width:0.23390594"
       id="path991"
       d="m 103.01733,170.64326 c -0.0233,0.0279 -0.0465,0.056 -0.0694,0.0842 -0.0254,0.0319 -0.0513,0.0635 -0.0782,0.0943 -0.0308,0.0345 -0.0609,0.0695 -0.0917,0.10411 -0.0344,0.038 -0.0687,0.0761 -0.10405,0.11328 -0.0376,0.0398 -0.077,0.0777 -0.11635,0.11572 -0.0414,0.0412 -0.0836,0.0817 -0.12564,0.1223 -0.044,0.0411 -0.0879,0.0823 -0.13217,0.12324 -0.0472,0.0436 -0.0943,0.0872 -0.14132,0.13085 -0.0506,0.0469 -0.10048,0.0945 -0.15082,0.14163 -0.0508,0.0481 -0.10237,0.0953 -0.15427,0.1422 -0.0545,0.0496 -0.10959,0.0987 -0.16449,0.14791 -0.0569,0.051 -0.1152,0.10042 -0.17402,0.14923 -0.0616,0.051 -0.12513,0.0999 -0.18858,0.14872 -0.0645,0.0504 -0.1313,0.0979 -0.19846,0.14478 -0.0682,0.0468 -0.13719,0.0926 -0.20751,0.13628 -2.754491,1.65233 -5.489731,3.35324 -8.368951,4.78133 -0.07318,0.0364 -0.148744,0.0679 -0.225505,0.0961 -0.07673,0.0286 -0.155831,0.05 -0.234964,0.0708 -0.08029,0.0218 -0.161586,0.0394 -0.243285,0.0552 -0.08215,0.0161 -0.164926,0.0284 -0.247735,0.0406 -0.08375,0.0126 -0.168017,0.0215 -0.252371,0.029 -0.08571,0.008 -0.171623,0.0134 -0.257585,0.0179 -0.08526,0.005 -0.170645,0.007 -0.256021,0.009 -0.08579,0.003 -0.171649,0.003 -0.25746,0.002 -0.08642,-0.002 -0.172697,-0.004 -0.258908,-0.0102 -0.08535,-0.005 -0.17053,-0.0135 -0.255622,-0.0221 -0.08428,-0.009 -0.168265,-0.0204 -0.251918,-0.0341 -0.0857,-0.0138 -0.170769,-0.0313 -0.255488,-0.0503 -0.08864,-0.0197 -0.176649,-0.0421 -0.26437,-0.0656 -0.08668,-0.0227 -0.172551,-0.0483 -0.25865,-0.073 -0.09097,-0.0263 -0.181394,-0.0543 -0.271743,-0.0826 -0.09855,-0.0307 -0.197053,-0.0615 -0.295364,-0.093 -0.101969,-0.0318 -0.203332,-0.0655 -0.304878,-0.0985 -0.102507,-0.0341 -0.205053,-0.0679 -0.307087,-0.10334 -0.101993,-0.035 -0.203772,-0.0708 -0.30514,-0.10754 -0.103649,-0.0384 -0.206774,-0.0781 -0.309748,-0.11825 -0.103185,-0.0398 -0.205635,-0.0815 -0.308596,-0.12183 -0.103615,-0.0415 -0.207332,-0.0829 -0.311063,-0.12415 -0.108112,-0.0429 -0.217129,-0.0835 -0.326472,-0.12324 -0.110698,-0.0401 -0.221963,-0.0787 -0.333452,-0.11664 -0.111733,-0.0387 -0.2245,-0.0743 -0.337935,-0.10778 -0.119528,-0.0359 -0.240818,-0.0654 -0.362201,-0.0943 -0.124553,-0.0301 -0.249997,-0.0563 -0.375439,-0.0824 -0.123567,-0.0256 -0.247343,-0.0503 -0.371175,-0.0746 -0.122899,-0.0249 -0.246506,-0.046 -0.370138,-0.0671 -0.122359,-0.021 -0.245354,-0.0383 -0.368277,-0.0557 -0.12582,-0.0179 -0.252326,-0.0299 -0.378976,-0.0402 -0.135304,-0.01 -0.270897,-0.0155 -0.406502,-0.0194 -0.138655,-0.004 -0.277331,-0.006 -0.416002,-0.008 -0.137464,-0.002 -0.274939,-0.002 -0.41241,-0.002 -0.144297,-0.002 -0.288533,0.003 -0.432712,0.008 -0.157912,0.006 -0.315584,0.017 -0.473184,0.0285 -0.165558,0.0121 -0.330912,0.0268 -0.496306,0.0409 -0.163422,0.0132 -0.326699,0.028 -0.489924,0.0435 -0.164937,0.0156 -0.329951,0.0304 -0.494836,0.0466 -0.169831,0.0165 -0.339692,0.0326 -0.509405,0.0503 -0.168657,0.0176 -0.337318,0.0352 -0.505841,0.0541 -0.169133,0.0199 -0.338087,0.0412 -0.506749,0.0647 -0.170284,0.0235 -0.339956,0.051 -0.509576,0.0787 -0.167431,0.0274 -0.334634,0.0562 -0.501621,0.0862 -0.164081,0.0296 -0.327632,0.0619 -0.491019,0.0949 -0.16232,0.0333 -0.323923,0.0698 -0.485261,0.10746 -0.159945,0.0374 -0.318872,0.0788 -0.477585,0.12109 -0.158942,0.0419 -0.317255,0.086 -0.475282,0.13112 -0.160194,0.0456 -0.319708,0.0935 -0.479155,0.14163 -0.159651,0.0485 -0.31832,0.10001 -0.476939,0.15169 -0.164787,0.0536 -0.328075,0.11146 -0.491035,0.1702 -0.172201,0.062 -0.343106,0.12749 -0.513979,0.19301 -0.169527,0.0657 -0.338946,0.13169 -0.508058,0.19844 -0.166159,0.0655 -0.331776,0.13226 -0.497255,0.19938 -0.166038,0.0671 -0.331145,0.13655 -0.495652,0.20731 -0.164276,0.0705 -0.328119,0.14201 -0.491867,0.21371 -0.164983,0.0725 -0.329522,0.14602 -0.493169,0.22143 -0.170665,0.0791 -0.339931,0.16111 -0.509087,0.24333 -0.170395,0.0824 -0.339945,0.16636 -0.508807,0.25172 -0.167543,0.0848 -0.334614,0.17062 -0.501279,0.25714 -0.169978,0.0891 -0.339299,0.1794 -0.508551,0.26983 -0.169943,0.0911 -0.339002,0.18374 -0.508537,0.27555 -0.165727,0.0904 -0.331643,0.18056 -0.4978,0.27023 -0.163185,0.0882 -0.325978,0.17721 -0.489337,0.26515 -0.130708,0.0703 -0.261136,0.14104 -0.393256,0.20869 0,0 8.119959,-4.64513 8.119959,-4.64513 v 0 c 0.13212,-0.0677 0.26255,-0.13841 0.393256,-0.20868 0.163359,-0.0879 0.326151,-0.17691 0.489336,-0.26516 0.166158,-0.0897 0.332073,-0.17978 0.497801,-0.27023 0.169534,-0.0918 0.338593,-0.18448 0.508539,-0.27554 0.169253,-0.0904 0.33857,-0.18074 0.508549,-0.26983 0.166665,-0.0865 0.333737,-0.1723 0.501278,-0.25715 0.168865,-0.0854 0.338413,-0.16939 0.508807,-0.25171 0.169156,-0.0822 0.338422,-0.16422 0.50909,-0.24334 0.163645,-0.0754 0.328184,-0.14893 0.493166,-0.22142 0.163749,-0.0717 0.327592,-0.1432 0.491867,-0.21371 0.164509,-0.0708 0.329616,-0.14014 0.495653,-0.20732 0.165481,-0.0671 0.331098,-0.13392 0.497256,-0.19937 0.16911,-0.0668 0.338532,-0.13273 0.508057,-0.19845 0.170874,-0.0656 0.34178,-0.13096 0.513979,-0.19301 0.162959,-0.0587 0.326248,-0.11664 0.491036,-0.1702 0.158619,-0.0516 0.31729,-0.1032 0.476938,-0.15168 0.159446,-0.0481 0.318961,-0.096 0.479154,-0.14163 0.158027,-0.0451 0.316343,-0.0893 0.475285,-0.13112 0.158711,-0.0422 0.317638,-0.0837 0.477582,-0.1211 0.161338,-0.0377 0.322941,-0.0742 0.485262,-0.10745 0.163387,-0.0331 0.326939,-0.0654 0.491019,-0.0949 0.166987,-0.0299 0.33419,-0.0588 0.501621,-0.0861 0.169619,-0.0277 0.339295,-0.0553 0.509579,-0.0787 0.168662,-0.0235 0.337613,-0.0448 0.506748,-0.0647 0.168524,-0.0188 0.337181,-0.0364 0.505839,-0.0541 0.169716,-0.0177 0.339574,-0.0339 0.509404,-0.0503 0.164887,-0.0161 0.3299,-0.0309 0.494838,-0.0465 0.163224,-0.0154 0.326501,-0.0302 0.489925,-0.0435 0.165394,-0.0141 0.330742,-0.0288 0.496307,-0.0409 0.157599,-0.0115 0.315269,-0.0222 0.473178,-0.0285 0.144179,-0.005 0.288421,-0.009 0.432715,-0.008 0.137474,2.3e-4 0.274947,2.3e-4 0.412412,0.002 0.138673,0.003 0.277346,0.005 0.416,0.008 0.135609,0.004 0.2712,0.009 0.406498,0.0194 0.126656,0.0102 0.253161,0.0223 0.378983,0.0402 0.122917,0.0174 0.245914,0.0347 0.368272,0.0557 0.123636,0.0209 0.247237,0.0421 0.370137,0.067 0.123832,0.0244 0.247611,0.049 0.371176,0.0746 0.125449,0.0261 0.250888,0.0524 0.37544,0.0825 0.121383,0.029 0.242673,0.0584 0.362193,0.0943 0.11344,0.0334 0.22621,0.0691 0.33795,0.10779 0.11148,0.0379 0.22275,0.0765 0.33344,0.11664 0.10936,0.0397 0.21837,0.0803 0.32649,0.12323 0.10372,0.0413 0.20744,0.0826 0.31105,0.12417 0.10296,0.0404 0.20542,0.082 0.3086,0.12182 0.10297,0.0401 0.2061,0.0798 0.30975,0.11825 0.10137,0.0368 0.20315,0.0725 0.30514,0.10754 0.10203,0.0354 0.20458,0.0693 0.30709,0.10334 0.10154,0.0331 0.2029,0.0667 0.30488,0.0985 0.0983,0.0314 0.19682,0.0623 0.29535,0.093 0.0904,0.0282 0.18078,0.0563 0.27175,0.0826 0.0861,0.0247 0.17196,0.0503 0.25864,0.073 0.0877,0.0234 0.17574,0.0459 0.26438,0.0656 0.0847,0.0188 0.16976,0.0364 0.25549,0.0503 0.0837,0.0136 0.16764,0.025 0.25192,0.0341 0.0851,0.009 0.17025,0.0166 0.25561,0.0221 0.0862,0.005 0.17254,0.009 0.25891,0.0102 0.0858,0.002 0.17167,8.8e-4 0.25746,-0.002 0.0854,-0.002 0.17078,-0.004 0.25603,-0.009 0.086,-0.004 0.17186,-0.01 0.25758,-0.018 0.0844,-0.007 0.16861,-0.0165 0.25238,-0.0289 0.0828,-0.0121 0.1656,-0.0244 0.24773,-0.0405 0.0817,-0.0158 0.163001,-0.0334 0.243291,-0.0552 0.0791,-0.0209 0.15824,-0.0422 0.23496,-0.0708 0.0767,-0.0282 0.1523,-0.0597 0.22551,-0.0961 3.05838,-1.51696 -10.718036,6.21234 -7.870983,4.50892 0.07034,-0.0436 0.139285,-0.0895 0.207502,-0.13629 0.06714,-0.0469 0.133948,-0.0943 0.198462,-0.14477 0.06341,-0.0488 0.126923,-0.0977 0.188594,-0.14872 0.05879,-0.0488 0.117074,-0.0983 0.174024,-0.14923 0.0549,-0.0492 0.10991,-0.0983 0.16447,-0.14791 0.0519,-0.0469 0.10352,-0.0941 0.15429,-0.1422 0.0503,-0.0472 0.10023,-0.0947 0.1508,-0.14163 0.0471,-0.0436 0.0942,-0.0873 0.14133,-0.13085 0.0442,-0.0409 0.0881,-0.0822 0.13217,-0.12324 0.042,-0.0406 0.0842,-0.0811 0.12564,-0.12231 0.0393,-0.038 0.0788,-0.0759 0.11634,-0.11571 0.0353,-0.0371 0.0697,-0.0752 0.10406,-0.11328 0.0307,-0.0346 0.0608,-0.0696 0.0917,-0.10411 0.0268,-0.0308 0.0527,-0.0624 0.0782,-0.0943 0.0229,-0.0282 0.046,-0.0563 0.0694,-0.0842 0,0 8.119951,-4.64512 8.119951,-4.64512 z"
       inkscape:connector-curvature="0" />
  </g>
</svg>
