<?xml version="1.0" encoding="UTF-8" standalone="no"?>
<!-- Created with Inkscape (http://www.inkscape.org/) -->

<svg
   xmlns:dc="http://purl.org/dc/elements/1.1/"
   xmlns:cc="http://creativecommons.org/ns#"
   xmlns:rdf="http://www.w3.org/1999/02/22-rdf-syntax-ns#"
   xmlns:svg="http://www.w3.org/2000/svg"
   xmlns="http://www.w3.org/2000/svg"
   xmlns:sodipodi="http://sodipodi.sourceforge.net/DTD/sodipodi-0.dtd"
   xmlns:inkscape="http://www.inkscape.org/namespaces/inkscape"
   width="64.801125mm"
   height="65.942093mm"
   viewBox="0 0 64.801124 65.942094"
   version="1.1"
   id="svg960"
   inkscape:version="0.92.3 (2405546, 2018-03-11)"
   sodipodi:docname="R11.svg">
  <defs
     id="defs954" />
  <sodipodi:namedview
     id="base"
     pagecolor="#ffffff"
     bordercolor="#666666"
     borderopacity="1.0"
     inkscape:pageopacity="0.0"
     inkscape:pageshadow="2"
     inkscape:zoom="1"
     inkscape:cx="120.19361"
     inkscape:cy="117.67487"
     inkscape:document-units="mm"
     inkscape:current-layer="layer1"
     showgrid="false"
     fit-margin-top="1"
     fit-margin-left="1"
     fit-margin-right="1"
     fit-margin-bottom="1"
     inkscape:window-width="1600"
     inkscape:window-height="845"
     inkscape:window-x="0"
     inkscape:window-y="27"
     inkscape:window-maximized="1" />
  <metadata
     id="metadata957">
    <rdf:RDF>
      <cc:Work
         rdf:about="">
        <dc:format>image/svg+xml</dc:format>
        <dc:type
           rdf:resource="http://purl.org/dc/dcmitype/StillImage" />
        <dc:title></dc:title>
      </cc:Work>
    </rdf:RDF>
  </metadata>
  <g
     inkscape:label="Layer 1"
     inkscape:groupmode="layer"
     id="layer1"
     transform="translate(-70.088522,-117.23769)">
    <path
       style="fill:#000000;stroke-width:0.26458332"
       id="path981"
       d="m 89.037486,131.51461 c 0.05846,-0.0341 0.117798,-0.0667 0.17567,-0.10191 0.08503,-0.0522 0.166625,-0.10963 0.247789,-0.16757 0.11225,-0.0812 0.2255,-0.16093 0.340448,-0.23827 0.137063,-0.0914 0.27579,-0.18029 0.4147,-0.26886 0.150171,-0.094 0.300972,-0.18705 0.45257,-0.27874 0.167846,-0.10133 0.337628,-0.19938 0.507792,-0.29673 0.176882,-0.10186 0.355552,-0.20054 0.53416,-0.29931 0.184549,-0.10159 0.369457,-0.20252 0.555405,-0.30152 0.19308,-0.1028 0.386457,-0.20504 0.580222,-0.30654 0.191612,-0.10201 0.384152,-0.20225 0.576583,-0.3027 0.1924,-0.10012 0.38534,-0.19919 0.577834,-0.29913 0.191444,-0.0983 0.382399,-0.19763 0.57342,-0.29679 0.18839,-0.0967 0.376121,-0.1947 0.563579,-0.29321 0.18753,-0.0975 0.37427,-0.19648 0.561247,-0.29503 0.184045,-0.0984 0.36883,-0.19537 0.55284,-0.29384 0.182122,-0.0976 0.364115,-0.1954 0.545966,-0.29347 0.179536,-0.0968 0.358255,-0.19507 0.537451,-0.29248 0.178124,-0.0969 0.355651,-0.19489 0.533743,-0.29185 0.175694,-0.0955 0.351014,-0.19176 0.526521,-0.28764 0.17267,-0.0949 0.345122,-0.19021 0.517959,-0.28481 0.169077,-0.0924 0.337562,-0.1859 0.506488,-0.27859 0.165287,-0.0907 0.330155,-0.18211 0.495223,-0.27318 0.161004,-0.0888 0.321374,-0.17863 0.482204,-0.2677 0.15624,-0.0873 0.31193,-0.17559 0.46704,-0.26489 0.1557,-0.0889 0.3112,-0.17806 0.46632,-0.26793 0.15733,-0.0919 0.31496,-0.18329 0.47248,-0.27487 0.15896,-0.0924 0.31945,-0.18206 0.48018,-0.27129 0.15969,-0.089 0.32107,-0.17489 0.48331,-0.25911 0.15909,-0.0833 0.32074,-0.16168 0.48291,-0.23882 3.48307,-0.54168 6.62907,-3.31908 10.03054,-4.74912 0.1671,-0.0713 0.33651,-0.13679 0.50722,-0.19883 0.16848,-0.0618 0.33973,-0.11561 0.51195,-0.16598 0.16787,-0.0488 0.33777,-0.0901 0.50843,-0.12794 0.16435,-0.0368 0.33015,-0.0665 0.49654,-0.0922 0.16003,-0.0249 0.32145,-0.0375 0.48293,-0.0478 0.15474,-0.011 0.30973,-0.01 0.4646,-0.003 0.14968,0.006 0.29808,0.0269 0.44539,0.053 0.14157,0.0257 0.28028,0.0641 0.41649,0.10997 0.13206,0.0452 0.25587,0.10932 0.37467,0.18191 0.1156,0.0727 0.22468,0.15492 0.33171,0.23953 0.10741,0.0854 0.20906,0.1775 0.3085,0.27191 0.0999,0.0971 0.1986,0.19537 0.29658,0.29437 0.10558,0.10739 0.20861,0.21723 0.30922,0.32928 0.11156,0.12506 0.21729,0.2551 0.32208,0.38583 0.11021,0.13813 0.21405,0.28106 0.31649,0.42499 0.1064,0.15086 0.20695,0.30572 0.30571,0.46164 0.10188,0.1631 0.19971,0.32867 0.2958,0.49523 0.099,0.17242 0.19854,0.34457 0.29686,0.51741 0.10219,0.18134 0.20348,0.36317 0.30392,0.54549 0.1035,0.19135 0.213,0.37931 0.32255,0.56723 0.11232,0.19228 0.22387,0.38503 0.33648,0.57715 0.11278,0.19189 0.22616,0.38344 0.33926,0.57516 0.11221,0.19101 0.22579,0.3812 0.34053,0.57071 0.11362,0.18872 0.22779,0.37712 0.34258,0.56513 0.11674,0.18996 0.23257,0.38049 0.3474,0.57161 0.11533,0.19118 0.23074,0.38235 0.34539,0.57395 0.1136,0.18912 0.22747,0.37805 0.34277,0.56612 0.11608,0.18749 0.23099,0.3757 0.34643,0.56359 0.11377,0.18593 0.2271,0.37214 0.34088,0.55808 0.11132,0.1815 0.22143,0.36373 0.3312,0.54618 0.11036,0.18336 0.21706,0.36887 0.32421,0.55412 0.10617,0.18464 0.21252,0.36919 0.31794,0.55427 0.10338,0.18265 0.20615,0.36565 0.3074,0.5495 0.1,0.17981 0.19902,0.36012 0.29721,0.5409 0.0967,0.17642 0.19162,0.35375 0.28714,0.53079 0.0934,0.17284 0.18672,0.34567 0.27984,0.51863 0.0908,0.17021 0.18065,0.34096 0.2704,0.51173 0.089,0.16888 0.17822,0.33764 0.26717,0.50655 0.0867,0.16661 0.17376,0.33302 0.26107,0.4993 0.0859,0.16398 0.17287,0.32736 0.26036,0.49048 0.0869,0.16211 0.17584,0.32309 0.2657,0.48356 0.0881,0.15717 0.17585,0.31449 0.26305,0.47215 0.0868,0.15562 0.16967,0.31336 0.25134,0.4717 0.0813,0.15823 0.15875,0.31842 0.23312,0.48004 0.0745,0.16106 0.1407,0.3257 0.20306,0.49177 0.0617,0.16854 0.11207,0.34087 0.15954,0.51386 0.0465,0.17135 0.087,0.34421 0.12435,0.51776 0.0373,0.16771 0.0649,0.33723 0.088,0.50741 0.0219,0.16483 0.0274,0.33095 0.0267,0.49702 -0.002,0.16395 -0.0192,0.327 -0.0443,0.48886 -0.025,0.16572 -0.0693,0.32731 -0.11865,0.48718 -0.0527,0.1682 -0.12173,0.33049 -0.19505,0.49057 -0.0789,0.16923 -0.17016,0.33207 -0.26623,0.49198 -0.10278,0.16814 -0.21726,0.32859 -0.33461,0.48674 -0.12344,0.16532 -0.25505,0.32423 -0.38777,0.48211 -0.1349,0.16085 -0.2778,0.31469 -0.42293,0.46629 -0.1484,0.15502 -0.30486,0.30196 -0.46389,0.44597 -0.16206,0.14667 -0.32823,0.28872 -0.49633,0.42841 -0.17031,0.14043 -0.34501,0.27541 -0.52001,0.40992 -0.17475,0.13378 -0.35192,0.26437 -0.53072,0.39269 -0.17791,0.12792 -0.35626,0.25527 -0.53467,0.3825 -0.17913,0.12704 -0.35977,0.25192 -0.54059,0.37652 -0.18408,0.12573 -0.36846,0.25101 -0.5538,0.37489 -0.18346,0.12352 -0.36794,0.24548 -0.55252,0.36731 -0.18484,0.12233 -0.37076,0.243 -0.55734,0.36264 -0.1928,0.12403 -0.38806,0.24416 -0.58405,0.36307 -0.20045,0.12057 -0.40143,0.24025 -0.60298,0.35897 -0.2093,0.12275 -0.41936,0.24419 -0.62937,0.36571 -0.22896,0.13136 -0.45834,0.262 -0.68816,0.39185 -0.23479,0.13147 -0.46924,0.26355 -0.70423,0.39465 -0.23464,0.13092 -0.46965,0.26117 -0.70517,0.39052 -0.23815,0.13085 -0.47654,0.26124 -0.71455,0.39234 -0.23502,0.1288 -0.46956,0.25846 -0.70438,0.38763 -0.23674,0.12991 -0.47451,0.25792 -0.71233,0.38583 -0.24571,0.13287 -0.49191,0.26479 -0.73883,0.39538 -0.24709,0.13174 -0.49512,0.26169 -0.74235,0.39317 -0.24308,0.12914 -0.48631,0.25796 -0.7295,0.3869 -0.24158,0.1288 -0.48318,0.25758 -0.72442,0.387 -0.23813,0.12752 -0.47584,0.25581 -0.71397,0.3833 -0.23552,0.12548 -0.47051,0.25192 -0.70623,0.37703 -0.2317,0.12364 -0.46373,0.24669 -0.69523,0.37071 -0.23197,0.12304 -0.46273,0.24836 -0.69415,0.37241 -0.23427,0.12644 -0.46938,0.25127 -0.70421,0.37664 -0.23418,0.12393 -0.46717,0.25012 -0.69976,0.37703 -0.23673,0.12932 -0.4735,0.25855 -0.71024,0.38789 -0.23461,0.1287 -0.46927,0.25736 -0.70364,0.38652 -0.23864,0.13153 -0.47808,0.26162 -0.71829,0.39025 -0.23931,0.12774 -0.47898,0.25479 -0.71841,0.3823 -0.23622,0.12556 -0.47218,0.25159 -0.7071,0.37959 -0.23357,0.12787 -0.46643,0.25705 -0.70057,0.3839 -0.18533,0.0996 -0.37027,0.19983 -0.55448,0.30144 0,0 -9.535714,4.53029 -9.535714,4.53029 v 0 c 0.184214,-0.1016 0.369159,-0.20187 0.554488,-0.30144 0.234132,-0.12685 0.46699,-0.25602 0.70057,-0.38389 0.234909,-0.128 0.470873,-0.25404 0.707096,-0.3796 0.239432,-0.12749 0.479104,-0.25456 0.718411,-0.38229 0.240213,-0.12864 0.47965,-0.25872 0.718285,-0.39026 0.234373,-0.12916 0.469027,-0.25781 0.703652,-0.38652 0.236725,-0.12933 0.473503,-0.25856 0.710227,-0.38789 0.232587,-0.12691 0.465575,-0.2531 0.699775,-0.37702 0.23482,-0.12537 0.46994,-0.2502 0.70419,-0.37663 0.23144,-0.12406 0.46219,-0.24939 0.69417,-0.37243 0.2315,-0.12402 0.46352,-0.24706 0.69523,-0.3707 0.2357,-0.12511 0.4707,-0.25156 0.70621,-0.37704 0.23814,-0.12749 0.47585,-0.25577 0.71397,-0.38329 0.24125,-0.12943 0.48285,-0.25821 0.72443,-0.38699 0.24319,-0.12895 0.48643,-0.25778 0.72951,-0.38691 0.24722,-0.13148 0.49525,-0.26143 0.74234,-0.39318 0.24692,-0.13059 0.49312,-0.26251 0.73883,-0.39538 0.23783,-0.1279 0.4756,-0.25592 0.71233,-0.38583 0.23483,-0.12916 0.46936,-0.25883 0.70438,-0.38763 0.23802,-0.13109 0.4764,-0.26149 0.71455,-0.39234 0.23552,-0.12933 0.47053,-0.2596 0.70517,-0.39051 0.235,-0.1311 0.46944,-0.26319 0.70423,-0.39466 0.22982,-0.12984 0.45921,-0.26048 0.68817,-0.39185 0.21,-0.12152 0.42007,-0.24295 0.62936,-0.36571 0.20155,-0.11871 0.40253,-0.2384 0.60298,-0.35897 0.196,-0.1189 0.39124,-0.23904 0.58405,-0.36306 0.18658,-0.11964 0.37251,-0.24032 0.55735,-0.36263 0.18456,-0.12185 0.36906,-0.24381 0.55251,-0.36732 0.18533,-0.12387 0.36972,-0.24917 0.55379,-0.37489 0.18083,-0.1246 0.36147,-0.24949 0.54059,-0.37653 0.17842,-0.12723 0.35676,-0.25457 0.53468,-0.3825 0.1788,-0.12832 0.35597,-0.2589 0.53073,-0.39268 0.17499,-0.13452 0.3497,-0.26949 0.52001,-0.40993 0.1681,-0.13968 0.33426,-0.28174 0.49633,-0.42841 0.15902,-0.14401 0.31547,-0.29095 0.46389,-0.44597 0.14513,-0.15159 0.28802,-0.30544 0.42291,-0.46629 0.13274,-0.15786 0.26433,-0.31679 0.38777,-0.48211 0.11736,-0.15815 0.23186,-0.31859 0.33462,-0.48673 0.0961,-0.15992 0.18739,-0.32276 0.26623,-0.49198 0.0732,-0.16009 0.14232,-0.32237 0.19505,-0.49057 0.0493,-0.15987 0.0935,-0.32147 0.11865,-0.48718 0.0249,-0.16188 0.0421,-0.32495 0.0443,-0.48887 7.8e-4,-0.16606 -0.005,-0.33219 -0.0267,-0.49701 -0.0231,-0.17018 -0.0508,-0.3397 -0.088,-0.50742 -0.0373,-0.17354 -0.0779,-0.34642 -0.12436,-0.51776 -0.0474,-0.17298 -0.0978,-0.34532 -0.15954,-0.51385 -0.0623,-0.16607 -0.12859,-0.33072 -0.20306,-0.49178 -0.0744,-0.16161 -0.15179,-0.32181 -0.23312,-0.48004 -0.0817,-0.15834 -0.16455,-0.31608 -0.25134,-0.47169 -0.0872,-0.15766 -0.17501,-0.31498 -0.26306,-0.47215 -0.0899,-0.16048 -0.17883,-0.32145 -0.2657,-0.48357 -0.0875,-0.16311 -0.17448,-0.32649 -0.26036,-0.49047 -0.0873,-0.16629 -0.17436,-0.3327 -0.26106,-0.49931 -0.0889,-0.1689 -0.17818,-0.33766 -0.26718,-0.50655 -0.0897,-0.17077 -0.17957,-0.34151 -0.2704,-0.51172 -0.0931,-0.17297 -0.18648,-0.3458 -0.27984,-0.51863 -0.0955,-0.17704 -0.19048,-0.35438 -0.28714,-0.53079 -0.0982,-0.18079 -0.19724,-0.3611 -0.2972,-0.54091 -0.10125,-0.18384 -0.20402,-0.36684 -0.3074,-0.54949 -0.10542,-0.18509 -0.21176,-0.36964 -0.31794,-0.55428 -0.10716,-0.18525 -0.21386,-0.37076 -0.32421,-0.55412 -0.10977,-0.18245 -0.21989,-0.36468 -0.3312,-0.54618 -0.11378,-0.18593 -0.22711,-0.37215 -0.34088,-0.55808 -0.11544,-0.18788 -0.23036,-0.3761 -0.34643,-0.56359 -0.11531,-0.18807 -0.22918,-0.377 -0.34277,-0.56611 -0.11465,-0.19161 -0.23006,-0.38276 -0.3454,-0.57396 -0.11483,-0.19112 -0.23066,-0.38165 -0.3474,-0.5716 -0.11478,-0.18802 -0.22895,-0.37642 -0.34258,-0.56514 -0.11474,-0.1895 -0.22831,-0.3797 -0.34052,-0.57071 -0.1131,-0.19171 -0.22647,-0.38326 -0.33926,-0.57516 -0.11262,-0.19212 -0.22415,-0.38486 -0.33648,-0.57715 -0.10955,-0.18792 -0.21906,-0.37587 -0.32255,-0.56723 -0.10043,-0.1823 -0.20174,-0.36414 -0.30392,-0.54548 -0.0983,-0.17283 -0.19783,-0.345 -0.29686,-0.51742 -0.0961,-0.16655 -0.19392,-0.33213 -0.2958,-0.49522 -0.0988,-0.15593 -0.19931,-0.31079 -0.30572,-0.46164 -0.10243,-0.14394 -0.20627,-0.28686 -0.31648,-0.42499 -0.10478,-0.13072 -0.21052,-0.26078 -0.32208,-0.38583 -0.10061,-0.11206 -0.20365,-0.22188 -0.30922,-0.32929 -0.098,-0.0989 -0.1967,-0.19728 -0.29658,-0.29436 -0.0994,-0.0945 -0.2011,-0.18657 -0.3085,-0.27192 -0.10703,-0.0846 -0.21612,-0.16683 -0.33172,-0.23952 -0.11879,-0.0725 -0.2426,-0.13669 -0.37465,-0.18191 -0.13622,-0.0459 -0.27493,-0.0844 -0.41648,-0.11007 -0.14731,-0.0263 -0.29575,-0.0466 -0.4454,-0.053 -0.15489,-0.006 -0.30987,-0.008 -0.46461,0.003 -0.16148,0.0103 -0.32291,0.023 -0.48292,0.0478 -0.1664,0.0257 -0.3322,0.0554 -0.49655,0.0922 -0.17066,0.0379 -0.34056,0.0791 -0.50842,0.12795 -0.17222,0.0504 -0.34347,0.10411 -0.51196,0.16597 -0.17071,0.062 -0.34012,0.12761 -0.50722,0.19884 -3.34844,1.40774 -6.685724,4.10226 9.04088,-4.31149 -0.16217,0.0772 -0.32382,0.15546 -0.4829,0.23884 -0.16224,0.0842 -0.32362,0.17013 -0.48331,0.25911 -0.16074,0.0892 -0.32123,0.17893 -0.48019,0.27129 -0.15752,0.0916 -0.31515,0.18296 -0.47248,0.27487 -0.15511,0.0899 -0.31062,0.17907 -0.46631,0.26792 -0.15512,0.0893 -0.31081,0.17758 -0.46705,0.2649 -0.16082,0.0891 -0.3212,0.17895 -0.4822,0.26769 -0.16507,0.0911 -0.32994,0.18251 -0.49522,0.27318 -0.16893,0.0927 -0.33741,0.18618 -0.50649,0.27859 -0.17284,0.0946 -0.34529,0.18991 -0.51796,0.28481 -0.1755,0.0959 -0.35082,0.19211 -0.52652,0.28765 -0.1781,0.097 -0.35562,0.19495 -0.53375,0.29185 -0.17919,0.0974 -0.35791,0.19569 -0.53744,0.29248 -0.18185,0.0981 -0.36385,0.1959 -0.54597,0.29347 -0.18401,0.0985 -0.3688,0.19545 -0.55284,0.29384 -0.18698,0.0985 -0.37372,0.19754 -0.56125,0.29503 -0.18746,0.0985 -0.37519,0.19649 -0.56358,0.29321 -0.19102,0.0991 -0.38198,0.19845 -0.57342,0.29679 -0.19249,0.0999 -0.38543,0.199 -0.57783,0.29913 -0.19243,0.10045 -0.38497,0.20069 -0.57659,0.3027 -0.19376,0.1015 -0.38714,0.20373 -0.58022,0.30653 -0.18594,0.099 -0.37085,0.19994 -0.5554,0.30153 -0.17861,0.0988 -0.35728,0.19745 -0.53416,0.29931 -0.17017,0.0973 -0.33995,0.1954 -0.50779,0.29672 -0.1516,0.0917 -0.302402,0.18472 -0.45257,0.27874 -0.138913,0.0886 -0.277637,0.17746 -0.414704,0.26886 -0.114945,0.0774 -0.228195,0.15707 -0.340447,0.23827 -0.08117,0.058 -0.162762,0.11537 -0.247788,0.16757 -0.05787,0.0352 -0.117209,0.0677 -0.175671,0.10191 0,0 -9.535709,4.5303 -9.535709,4.5303 z"
       inkscape:connector-curvature="0" />
    <path
       style="fill:#000000;stroke-width:0.26458332"
       id="path983"
       d="m 112.05682,150.89973 c 0.0122,0.028 0.0254,0.0555 0.04,0.0823 0.015,0.0288 0.0327,0.0561 0.0496,0.0838 0.0205,0.0329 0.0421,0.0652 0.0634,0.0976 0.0276,0.0414 0.0556,0.0825 0.0836,0.12352 0.0323,0.0474 0.0646,0.0948 0.0957,0.143 0.035,0.0552 0.0667,0.11226 0.0986,0.16924 0.0362,0.0638 0.0725,0.12756 0.10942,0.19101 0.0396,0.0684 0.0782,0.1374 0.11518,0.20728 0.0417,0.079 0.0823,0.15861 0.12235,0.23849 0.0442,0.0879 0.0887,0.17568 0.13375,0.26314 0.0473,0.0913 0.0926,0.18361 0.13883,0.27541 0.0489,0.0968 0.097,0.19406 0.14463,0.29156 0.05,0.10262 0.0995,0.20538 0.14831,0.30851 0.0508,0.10608 0.10014,0.21283 0.14986,0.31941 0.0501,0.10832 0.0998,0.21683 0.14914,0.32549 0.0508,0.10872 0.10064,0.21787 0.15114,0.32674 0.0508,0.10955 0.10177,0.21902 0.15318,0.3283 0.0521,0.11226 0.10485,0.22424 0.15676,0.33661 0.0511,0.11247 0.10365,0.22424 0.15459,0.33678 0.0519,0.11561 0.1052,0.23064 0.1591,0.34535 0.0561,0.11749 0.11102,0.23547 0.1663,0.35331 0.0557,0.12052 0.11369,0.24001 0.17145,0.35959 0.0612,0.12452 0.12197,0.24931 0.18445,0.37323 0.0643,0.12747 0.12954,0.25448 0.1946,0.38156 0.0648,0.126 0.12893,0.25239 0.1935,0.37852 0.0654,0.12617 0.13168,0.25191 0.19808,0.37757 0.0688,0.12964 0.13915,0.25836 0.20928,0.38725 0.0719,0.13238 0.14489,0.26427 0.21815,0.39596 0.0726,0.13089 0.14669,0.26096 0.22007,0.39141 0.0747,0.13306 0.14893,0.26635 0.22261,0.39996 0.0747,0.13307 0.1477,0.26704 0.22144,0.40062 0.0763,0.13856 0.15208,0.27739 0.22511,0.4177 0.0793,0.15273 0.15807,0.30572 0.23528,0.45952 0.0806,0.15865 0.15995,0.31786 0.23957,0.47697 0.0786,0.15707 0.15546,0.31496 0.23325,0.47241 0.0774,0.15635 0.15383,0.31323 0.23028,0.47007 0.079,0.16314 0.15585,0.32729 0.23383,0.4909 0.0786,0.16484 0.15768,0.32949 0.23749,0.49376 0.0802,0.16608 0.16016,0.33221 0.23946,0.49868 0.0773,0.1639 0.15593,0.32722 0.23267,0.4914 0.0776,0.16489 0.1554,0.32976 0.2325,0.49492 0.0789,0.1676 0.15656,0.33577 0.2349,0.50363 0.0767,0.16614 0.15327,0.33229 0.22983,0.49846 0.0765,0.16359 0.15217,0.32751 0.22815,0.49133 0.075,0.16198 0.15147,0.32328 0.22731,0.48488 0.0777,0.16472 0.15447,0.32985 0.23166,0.49479 0.0791,0.16721 0.15705,0.335 0.2344,0.50304 0.0787,0.16782 0.15567,0.33648 0.23301,0.50494 0.077,0.16877 0.15515,0.33704 0.23195,0.50593 0.0787,0.17343 0.15875,0.34626 0.23849,0.51922 0.0793,0.17188 0.16174,0.34232 0.24698,0.51136 0.0877,0.17205 0.18381,0.33953 0.28599,0.5033 0.10917,0.17256 0.2287,0.33813 0.35183,0.50089 0.13131,0.1721 0.27278,0.33599 0.41818,0.49623 0.15068,0.16447 0.3137,0.31682 0.47871,0.46668 0.166,0.15132 0.34513,0.2869 0.52839,0.4164 0.18994,0.13381 0.39084,0.25058 0.59361,0.36355 0.2053,0.11429 0.41718,0.2158 0.63164,0.31149 0.21534,0.095 0.43743,0.17314 0.66159,0.24433 0.22481,0.0707 0.45352,0.12729 0.68395,0.17622 0.2317,0.048 0.46567,0.0834 0.70039,0.11268 0.23803,0.0291 0.47759,0.0403 0.71714,0.0462 0.24442,0.004 0.48878,-0.003 0.73288,-0.0144 0.25095,-0.0126 0.50062,-0.0408 0.7496,-0.0738 0.26259,-0.0357 0.52281,-0.086 0.78213,-0.14013 0.26962,-0.0577 0.5373,-0.12392 0.8042,-0.19294 0.26677,-0.0685 0.53069,-0.14714 0.7926,-0.23221 0.26128,-0.0863 0.51999,-0.18002 0.77863,-0.27383 0.2534,-0.0915 0.5071,-0.18213 0.75946,-0.27647 0.24595,-0.0931 0.49041,-0.18994 0.73494,-0.28668 0.1181,-0.0471 0.23593,-0.0949 0.35378,-0.14272 0,0 -9.53572,4.53029 -9.53572,4.53029 v 0 c -0.11784,0.0477 -0.23567,0.0956 -0.35378,0.14273 -0.24452,0.0967 -0.48898,0.19361 -0.73494,0.28667 -0.25235,0.0943 -0.50605,0.18497 -0.75945,0.27647 -0.25864,0.0938 -0.51736,0.18757 -0.77864,0.27384 -0.26189,0.0851 -0.52582,0.16372 -0.79258,0.23222 -0.26691,0.069 -0.53459,0.13523 -0.80421,0.19292 -0.25932,0.0541 -0.51954,0.1044 -0.78213,0.14014 -0.24897,0.033 -0.49865,0.0612 -0.7496,0.0738 -0.24411,0.0119 -0.48847,0.0189 -0.73288,0.0144 -0.2396,-0.005 -0.4791,-0.0171 -0.71714,-0.0462 -0.23473,-0.0293 -0.4687,-0.0646 -0.70039,-0.11268 -0.23042,-0.0489 -0.45914,-0.10557 -0.68395,-0.17622 -0.22417,-0.0712 -0.44626,-0.14931 -0.66159,-0.24432 -0.21447,-0.0957 -0.42633,-0.19724 -0.63164,-0.3115 -0.20276,-0.11298 -0.40367,-0.22974 -0.59361,-0.36355 -0.18326,-0.1295 -0.36239,-0.26508 -0.5284,-0.4164 -0.16501,-0.14984 -0.32801,-0.30221 -0.47869,-0.46668 -0.14542,-0.16023 -0.28687,-0.32413 -0.4182,-0.49622 -0.12312,-0.16277 -0.24266,-0.32833 -0.35183,-0.50088 -0.10217,-0.16379 -0.1983,-0.33127 -0.28598,-0.5033 -0.0853,-0.16906 -0.16764,-0.33948 -0.24698,-0.51138 -0.0797,-0.17296 -0.15979,-0.34579 -0.2385,-0.51922 -0.0768,-0.16888 -0.1549,-0.33715 -0.23195,-0.50592 -0.0774,-0.16848 -0.15428,-0.33712 -0.233,-0.50494 -0.0773,-0.16805 -0.15528,-0.33583 -0.2344,-0.50304 -0.0772,-0.16494 -0.15398,-0.33007 -0.23166,-0.49479 -0.0758,-0.1616 -0.15232,-0.3229 -0.22732,-0.48489 -0.0759,-0.1638 -0.1517,-0.32774 -0.22815,-0.49132 -0.0765,-0.16618 -0.15318,-0.33233 -0.22982,-0.49847 -0.0783,-0.16785 -0.15602,-0.33603 -0.23489,-0.50363 -0.0771,-0.16516 -0.15484,-0.33003 -0.23252,-0.49492 -0.0767,-0.16418 -0.15531,-0.32749 -0.23267,-0.49139 -0.0792,-0.16648 -0.15932,-0.33261 -0.23945,-0.49868 -0.0798,-0.16428 -0.15888,-0.32891 -0.2375,-0.49376 -0.078,-0.16362 -0.15483,-0.32777 -0.23382,-0.4909 -0.0765,-0.15685 -0.15282,-0.31373 -0.23028,-0.47007 -0.0777,-0.15746 -0.1547,-0.31535 -0.23326,-0.47242 -0.0796,-0.15911 -0.15902,-0.31832 -0.23956,-0.47697 -0.0773,-0.1538 -0.15599,-0.30678 -0.23528,-0.45951 -0.073,-0.14031 -0.14881,-0.27914 -0.2251,-0.41771 -0.0738,-0.13357 -0.14678,-0.26755 -0.22145,-0.40061 -0.0737,-0.1336 -0.14793,-0.26691 -0.22262,-0.39995 -0.0734,-0.13047 -0.14745,-0.26054 -0.22005,-0.39143 -0.0733,-0.13169 -0.14619,-0.26357 -0.21816,-0.39596 -0.0701,-0.12888 -0.14055,-0.25761 -0.20928,-0.38724 -0.0664,-0.12567 -0.13264,-0.25141 -0.19807,-0.37758 -0.0646,-0.12613 -0.12866,-0.25251 -0.19351,-0.37851 -0.065,-0.12709 -0.13029,-0.2541 -0.1946,-0.38157 -0.0625,-0.12392 -0.12321,-0.24869 -0.18446,-0.37323 -0.0577,-0.11957 -0.1157,-0.23905 -0.17144,-0.35958 -0.0553,-0.11785 -0.11026,-0.23583 -0.1663,-0.35331 -0.0539,-0.11472 -0.10715,-0.22973 -0.1591,-0.34536 -0.051,-0.11252 -0.10352,-0.22431 -0.15459,-0.33677 -0.0519,-0.11237 -0.10463,-0.22435 -0.15677,-0.33661 -0.0514,-0.10929 -0.10236,-0.21876 -0.15318,-0.32831 -0.0504,-0.10886 -0.10035,-0.218 -0.15112,-0.32673 -0.0494,-0.10867 -0.0991,-0.21717 -0.14915,-0.3255 -0.0497,-0.10658 -0.0991,-0.21333 -0.14986,-0.31941 -0.0488,-0.10313 -0.0983,-0.20593 -0.14831,-0.3085 -0.0476,-0.0975 -0.0958,-0.19471 -0.14463,-0.29156 -0.0463,-0.0918 -0.0915,-0.18416 -0.13884,-0.27541 -0.045,-0.0875 -0.0895,-0.17526 -0.13374,-0.26315 -0.04,-0.0799 -0.0806,-0.15949 -0.12236,-0.23849 -0.037,-0.0699 -0.0755,-0.13891 -0.11518,-0.20728 -0.0368,-0.0635 -0.0733,-0.12716 -0.10942,-0.19101 -0.0319,-0.0569 -0.0636,-0.1141 -0.0986,-0.16924 -0.0311,-0.0482 -0.0634,-0.0956 -0.0957,-0.14299 -0.0281,-0.0411 -0.0561,-0.0822 -0.0836,-0.12353 -0.0213,-0.0324 -0.043,-0.0646 -0.0634,-0.0976 -0.0168,-0.0277 -0.0344,-0.0551 -0.0495,-0.0838 -0.0146,-0.0268 -0.0279,-0.0543 -0.0401,-0.0823 0,0 9.53571,-4.53029 9.53571,-4.53029 z"
       inkscape:connector-curvature="0" />
    <path
       style="fill:#000000;stroke-width:0.26458332"
       id="path985"
       d="m 88.929844,120.18638 c 0.04941,-0.0161 0.09752,-0.0357 0.145179,-0.0563 0.06149,-0.0266 0.1228,-0.0537 0.184386,-0.08 0.07381,-0.0326 0.148846,-0.0624 0.22391,-0.0921 0.08809,-0.0347 0.176143,-0.0694 0.264074,-0.10455 0.09732,-0.0384 0.194949,-0.0761 0.292253,-0.11456 0.102078,-0.0403 0.204268,-0.0802 0.306899,-0.119 0.108174,-0.0423 0.217136,-0.0826 0.326161,-0.12262 0.112419,-0.0413 0.22539,-0.081 0.338554,-0.12027 0.115295,-0.0401 0.231806,-0.0765 0.348731,-0.11157 0.12484,-0.0375 0.251054,-0.07 0.377916,-0.0999 0.130192,-0.0314 0.261963,-0.0553 0.393874,-0.078 0.131549,-0.0228 0.263819,-0.0411 0.396288,-0.0577 0.130689,-0.0167 0.261976,-0.0279 0.393436,-0.0363 0.130613,-0.008 0.261464,-0.0107 0.392244,-0.014 0.130199,-0.003 0.260439,-0.001 0.390603,0.002 0.127919,0.003 0.255669,0.0105 0.383279,0.0198 0.125156,0.0102 0.250052,0.0231 0.374596,0.0391 0.121851,0.0168 0.24301,0.0382 0.36383,0.0611 0.118965,0.0217 0.236928,0.0478 0.353741,0.0791 0.115109,0.0309 0.226821,0.0724 0.33795,0.1151 0.110128,0.043 0.218881,0.0895 0.325765,0.14008 0.103667,0.0473 0.202004,0.10469 0.297717,0.16632 0.09567,0.0614 0.18461,0.1322 0.270974,0.20594 0.08766,0.0755 0.170488,0.15614 0.252024,0.2381 0.0827,0.0822 0.158931,0.17034 0.232378,0.26078 0.07551,0.0933 0.140397,0.19439 0.201713,0.29743 0.06393,0.10856 0.120998,0.22091 0.176311,0.33403 0.05531,0.11413 0.108895,0.22911 0.159692,0.34532 0.05142,0.11878 0.0976,0.23969 0.141629,0.36137 0.04583,0.1285 0.08811,0.25823 0.129328,0.38826 0.04178,0.13151 0.08113,0.26376 0.119718,0.39623 0.03923,0.13469 0.07519,0.27031 0.110465,0.40608 0.03541,0.13638 0.06916,0.27317 0.10215,0.41016 0.0336,0.14174 0.06558,0.28388 0.09599,0.42635 0.03199,0.1562 0.06204,0.3128 0.0926,0.46929 0.03178,0.16151 0.06104,0.3235 0.08881,0.48574 0.03067,0.17575 0.05393,0.35263 0.07563,0.52968 0.02227,0.18473 0.04272,0.36967 0.06238,0.5547 0.0203,0.19271 0.03366,0.38603 0.04533,0.57943 0.01311,0.20677 0.02029,0.41383 0.02717,0.62087 0.0069,0.21288 0.01252,0.4258 0.0177,0.63871 0.0064,0.22054 0.0087,0.44114 0.0092,0.66175 -9.48e-4,0.23409 -0.0048,0.46815 -0.0084,0.70221 -0.0035,0.23553 -0.0079,0.47103 -0.01278,0.70653 -0.0054,0.24343 -0.01135,0.48685 -0.01559,0.7303 -0.004,0.24356 -0.0081,0.48711 -0.01243,0.73066 -0.0052,0.24369 -0.0077,0.48742 -0.01089,0.73115 -0.0033,0.25032 -0.0073,0.50064 -0.01158,0.75095 -0.0046,0.25257 -0.0067,0.50518 -0.0097,0.75777 -0.003,0.25477 -0.0068,0.50953 -0.0107,0.76429 -0.0039,0.25195 -0.0081,0.50389 -0.0128,0.75582 -0.0057,0.25736 -0.0091,0.51477 -0.01294,0.77217 -0.0039,0.26147 -0.0084,0.52295 -0.0131,0.78442 -0.0049,0.26126 -0.0073,0.52254 -0.01072,0.78383 -0.0045,0.26895 -0.0067,0.53794 -0.0092,0.80692 -0.0031,0.26947 -0.0048,0.53894 -0.0062,0.80841 -0.0013,0.27711 -0.0037,0.5542 -0.0066,0.83129 -0.0019,0.2819 -0.0031,0.56379 -0.0047,0.84568 -0.0016,0.27802 -0.0037,0.55604 -0.006,0.83405 -0.0013,0.27563 -0.0017,0.55126 -0.0026,0.82689 -9.19e-4,0.27148 -0.0023,0.54294 -0.0039,0.81441 -0.0016,0.26807 -0.0039,0.53612 -0.0065,0.80417 -0.0015,0.27333 -0.0029,0.54667 -0.0048,0.81999 -0.0019,0.27274 -0.0043,0.54548 -0.0068,0.8182 -0.0022,0.26545 -0.0059,0.53088 -0.0077,0.79631 -0.0013,0.26477 -0.0027,0.52954 -0.0045,0.79429 -0.0019,0.26337 -0.0043,0.52672 -0.0068,0.79007 -0.0022,0.25666 -0.006,0.5133 -0.0077,0.76995 -0.0012,0.25124 -0.002,0.50248 -0.0032,0.75372 -0.0012,0.24854 -0.0031,0.49707 -0.0051,0.74561 -0.0023,0.24154 -0.0016,0.4831 -0.0015,0.72466 9.2e-5,0.235 -1.29e-4,0.47002 -6.5e-4,0.70503 -7.3e-4,0.22974 -0.0018,0.45947 -8.85e-4,0.68921 0.0011,0.2247 0.0022,0.44939 0.0029,0.67409 7.64e-4,0.23 -1.06e-4,0.45998 -0.0013,0.68998 -0.0023,0.23356 -0.0016,0.46712 -0.0013,0.7007 7.41e-4,0.23029 -3.04e-4,0.46057 6.28e-4,0.69086 0.0015,0.22552 0.0034,0.45104 0.0049,0.67655 0.0015,0.22554 0.0019,0.45109 0.0023,0.67664 3.09e-4,0.22178 2.67e-4,0.44357 5e-6,0.66536 -2.85e-4,0.21781 -10e-4,0.43562 -0.002,0.65342 -9.64e-4,0.21377 -0.0023,0.42753 -0.0039,0.64128 -0.0023,0.20877 -0.0029,0.41755 -0.0026,0.62633 4.55e-4,0.20272 6.69e-4,0.40545 8.13e-4,0.60817 7.9e-5,0.19741 -1.54e-4,0.39482 -5.27e-4,0.59223 -0.0013,0.19298 3.68e-4,0.38595 0.0018,0.57892 0.0014,0.19208 0.0022,0.38416 0.0028,0.57623 5.67e-4,0.19008 6.91e-4,0.38017 6.65e-4,0.57026 5.8e-5,0.18654 -4.56e-4,0.37308 -0.0011,0.55963 -6.73e-4,0.18366 -0.0017,0.3673 -0.0028,0.55095 -0.0011,0.17938 -0.0026,0.35876 -0.0041,0.53813 -0.0016,0.17541 -0.0034,0.35082 -0.0053,0.52624 -0.002,0.1733 -0.0044,0.3466 -0.0069,0.51989 -0.0024,0.16933 -0.0051,0.33865 -0.0079,0.50797 -0.0027,0.16571 -0.0058,0.3314 -0.0088,0.4971 -0.003,0.16336 -0.0064,0.32671 -0.01,0.49006 -0.0035,0.16168 -0.0074,0.32335 -0.01125,0.48503 -0.005,0.15934 -0.01181,0.3186 -0.01847,0.47787 -0.0066,0.15747 -0.01347,0.31494 -0.02033,0.4724 -0.0068,0.15593 -0.01388,0.31185 -0.02098,0.46777 -0.0071,0.15593 -0.01451,0.31183 -0.02191,0.46773 -0.0073,0.15396 -0.01478,0.30792 -0.02231,0.46187 -0.0074,0.15254 -0.01505,0.30509 -0.02279,0.45762 -0.0078,0.15282 -0.0157,0.30563 -0.02363,0.45845 -0.0082,0.15255 -0.01348,0.30524 -0.01928,0.45789 -0.0057,0.15124 -0.01161,0.30246 -0.01751,0.4537 -0.0058,0.14875 -0.01185,0.29748 -0.01792,0.44622 -0.006,0.14613 -0.01212,0.29225 -0.01829,0.43837 -0.0072,0.13968 -0.01449,0.27936 -0.02618,0.41874 -0.0022,0.0212 -0.0042,0.0424 -0.0064,0.0636 0,0 -9.535711,4.5303 -9.535711,4.5303 v 0 c 0.0022,-0.0212 0.0042,-0.0424 0.0064,-0.0636 0.01172,-0.13937 0.01898,-0.27905 0.02608,-0.41874 0.0062,-0.14611 0.01233,-0.29224 0.0183,-0.43837 0.0061,-0.14873 0.01211,-0.29748 0.01792,-0.44623 0.0059,-0.15122 0.01177,-0.30246 0.01751,-0.45368 0.0058,-0.15267 0.01105,-0.30535 0.01928,-0.4579 0.0079,-0.15281 0.0159,-0.30563 0.02363,-0.45846 0.0077,-0.15253 0.01535,-0.30507 0.02279,-0.45762 0.0075,-0.15395 0.01498,-0.3079 0.02231,-0.46186 0.0074,-0.1559 0.01478,-0.31181 0.02191,-0.46773 0.0071,-0.15592 0.0142,-0.31184 0.02098,-0.46777 0.0069,-0.15746 0.0137,-0.31494 0.02034,-0.47241 0.0067,-0.15927 0.01351,-0.31853 0.01847,-0.47787 0.0039,-0.16166 0.0077,-0.32335 0.01124,-0.48502 0.0036,-0.16336 0.007,-0.32671 0.01002,-0.49007 0.0031,-0.16569 0.0062,-0.33139 0.0088,-0.49709 0.0028,-0.16932 0.0055,-0.33864 0.0079,-0.50797 0.0025,-0.1733 0.0049,-0.3466 0.0069,-0.5199 0.002,-0.1754 0.0038,-0.35082 0.0053,-0.52624 0.0015,-0.17937 0.003,-0.35874 0.0041,-0.53812 0.0011,-0.18365 0.0021,-0.3673 0.0028,-0.55095 6.15e-4,-0.18655 0.0011,-0.3731 0.0011,-0.55964 1.6e-5,-0.19009 -9e-5,-0.38017 -6.66e-4,-0.57025 -6.17e-4,-0.19208 -0.0014,-0.38416 -0.0028,-0.57624 -0.0014,-0.19297 -0.003,-0.38594 -0.0018,-0.5789 3.93e-4,-0.19741 6.16e-4,-0.39483 5.28e-4,-0.59225 -1.34e-4,-0.20272 -3.49e-4,-0.40544 -8.04e-4,-0.60816 -2.59e-4,-0.20878 3.64e-4,-0.41756 0.0026,-0.62633 0.0015,-0.21376 0.0029,-0.42752 0.0039,-0.64127 9.97e-4,-0.21781 0.0018,-0.43562 0.002,-0.65343 2.52e-4,-0.22179 3.04e-4,-0.44357 -5e-6,-0.66537 -3.79e-4,-0.22554 -7.68e-4,-0.45109 -0.0023,-0.67663 -0.0015,-0.22551 -0.0035,-0.45103 -0.0049,-0.67654 -9.21e-4,-0.23029 1.15e-4,-0.46059 -6.26e-4,-0.69088 -3.38e-4,-0.23356 -9.65e-4,-0.46714 0.0013,-0.7007 0.0012,-0.22998 0.002,-0.45998 0.0013,-0.68998 -6.28e-4,-0.2247 -0.0017,-0.44939 -0.0029,-0.67409 -8.85e-4,-0.22974 1.56e-4,-0.45947 8.86e-4,-0.68921 5.21e-4,-0.23501 7.3e-4,-0.47001 6.49e-4,-0.70502 -9.7e-5,-0.24156 -7.96e-4,-0.48313 0.0015,-0.72467 0.002,-0.24854 0.0039,-0.49707 0.0051,-0.74561 0.0012,-0.25124 0.002,-0.50248 0.0032,-0.75372 0.0017,-0.25665 0.0055,-0.51329 0.0077,-0.76994 0.0026,-0.26336 0.0049,-0.52671 0.0068,-0.79006 0.0018,-0.26477 0.0032,-0.52953 0.0045,-0.79429 0.0018,-0.26545 0.0056,-0.53088 0.0077,-0.79632 0.0025,-0.27273 0.005,-0.54547 0.0068,-0.8182 0.0019,-0.27333 0.0033,-0.54666 0.0048,-0.81999 0.0026,-0.26805 0.005,-0.53611 0.0065,-0.80416 0.0016,-0.27147 0.003,-0.54295 0.0039,-0.81441 8.62e-4,-0.27564 0.0013,-0.55128 0.0026,-0.82691 0.0024,-0.27801 0.0044,-0.55602 0.006,-0.83404 0.0016,-0.28189 0.0028,-0.56379 0.0047,-0.84567 0.0029,-0.2771 0.0053,-0.55419 0.0066,-0.83129 0.0013,-0.26948 0.003,-0.53896 0.0062,-0.80842 0.0025,-0.26898 0.0048,-0.53797 0.0092,-0.80693 0.0034,-0.26127 0.0058,-0.52257 0.01072,-0.78382 0.0047,-0.26148 0.0092,-0.52294 0.0131,-0.78443 0.0039,-0.25739 0.0073,-0.51479 0.01294,-0.77216 0.0047,-0.25193 0.0089,-0.50388 0.0128,-0.75582 0.0039,-0.25476 0.0077,-0.50952 0.01069,-0.76429 0.003,-0.2526 0.0052,-0.5052 0.0097,-0.75778 0.0043,-0.25031 0.0083,-0.50062 0.01158,-0.75095 0.0032,-0.24371 0.0057,-0.48744 0.01089,-0.73113 0.0043,-0.24356 0.0084,-0.48712 0.01243,-0.73068 0.0042,-0.24345 0.01024,-0.48686 0.01559,-0.73029 0.0049,-0.2355 0.0093,-0.47101 0.01279,-0.70653 0.0036,-0.23406 0.0074,-0.46812 0.0084,-0.7022 -5.84e-4,-0.22063 -0.0029,-0.44122 -0.0092,-0.66175 -0.0052,-0.21293 -0.01077,-0.42585 -0.0177,-0.63873 -0.0069,-0.20704 -0.01407,-0.4141 -0.02717,-0.62086 -0.01168,-0.1934 -0.02504,-0.38671 -0.04533,-0.57943 -0.01966,-0.18503 -0.0401,-0.36998 -0.06238,-0.55471 -0.0217,-0.17704 -0.04496,-0.35391 -0.07563,-0.52967 -0.02777,-0.16225 -0.05703,-0.32423 -0.08881,-0.48575 -0.03056,-0.15648 -0.06061,-0.31309 -0.0926,-0.46929 -0.0304,-0.14247 -0.06239,-0.28459 -0.09599,-0.42634 -0.03299,-0.13698 -0.06673,-0.27379 -0.10215,-0.41017 -0.03527,-0.13576 -0.07123,-0.27138 -0.110467,-0.40608 -0.03859,-0.13247 -0.07793,-0.26471 -0.119716,-0.39621 -0.04122,-0.13005 -0.0835,-0.25977 -0.129327,-0.38827 -0.04403,-0.12167 -0.0902,-0.2426 -0.141629,-0.36137 -0.0508,-0.11621 -0.104388,-0.23119 -0.159692,-0.34532 -0.05531,-0.11313 -0.112386,-0.22546 -0.176316,-0.33403 -0.06131,-0.10303 -0.126196,-0.20405 -0.201709,-0.29743 -0.07345,-0.0905 -0.149683,-0.17859 -0.232377,-0.26079 -0.08153,-0.082 -0.164372,-0.16262 -0.252024,-0.23809 -0.08637,-0.0737 -0.175304,-0.14447 -0.270975,-0.20595 -0.09572,-0.0615 -0.194051,-0.11897 -0.297718,-0.16631 -0.106881,-0.0506 -0.215634,-0.0971 -0.325764,-0.14007 -0.111137,-0.0426 -0.222844,-0.0842 -0.337951,-0.11511 -0.116824,-0.0311 -0.234775,-0.0574 -0.353741,-0.079 -0.120821,-0.0229 -0.241982,-0.0443 -0.363829,-0.0611 -0.124544,-0.016 -0.249431,-0.029 -0.374598,-0.0391 -0.1276,-0.009 -0.255367,-0.0165 -0.383269,-0.0199 -0.130172,-0.003 -0.260408,-0.005 -0.390605,-0.002 -0.130787,0.003 -0.261638,0.006 -0.392245,0.014 -0.131457,0.008 -0.262744,0.0196 -0.393436,0.0363 -0.132467,0.0165 -0.264739,0.0348 -0.396285,0.0577 -0.131916,0.0227 -0.263687,0.0467 -0.393877,0.078 -0.126864,0.0298 -0.253076,0.0624 -0.377916,0.0999 -0.116923,0.0351 -0.233434,0.0715 -0.348728,0.11156 -0.113159,0.0392 -0.226139,0.079 -0.338555,0.12029 -0.109024,0.04 -0.217989,0.0803 -0.326161,0.12261 -0.102633,0.0388 -0.204828,0.0788 -0.306901,0.11899 -0.09731,0.0384 -0.194933,0.0761 -0.29225,0.11457 -0.08793,0.0351 -0.175982,0.0699 -0.264076,0.10455 -0.07506,0.0296 -0.150087,0.0594 -0.223909,0.0921 -0.06159,0.0264 -0.122888,0.0533 -0.184386,0.08 -0.04766,0.0206 -0.09578,0.0403 -0.14518,0.0563 0,0 9.535711,-4.5303 9.535711,-4.5303 z"
       inkscape:connector-curvature="0" />
    <path
       style="fill:#000000;stroke-width:0.25763333"
       id="path991"
       d="m 106.22457,169.97508 c -0.0227,0.0348 -0.0453,0.0697 -0.0676,0.10487 -0.0247,0.0397 -0.05,0.0791 -0.0762,0.11745 -0.03,0.043 -0.0593,0.0866 -0.0893,0.12967 -0.0335,0.0473 -0.0669,0.0948 -0.10136,0.14108 -0.0366,0.0496 -0.075,0.0968 -0.11333,0.14413 -0.0403,0.0513 -0.0814,0.10175 -0.12238,0.15232 -0.0429,0.0512 -0.0856,0.1025 -0.12874,0.15349 -0.046,0.0543 -0.0919,0.10861 -0.13766,0.16297 -0.0493,0.0584 -0.0979,0.1177 -0.14691,0.1764 -0.0495,0.0599 -0.0997,0.11869 -0.15027,0.1771 -0.0531,0.0618 -0.10674,0.12293 -0.16022,0.18422 -0.0554,0.0635 -0.11221,0.12507 -0.16951,0.18586 -0.06,0.0635 -0.12188,0.12442 -0.18369,0.18523 -0.0628,0.0628 -0.12789,0.12193 -0.19331,0.18032 -0.0664,0.0583 -0.13363,0.11533 -0.20213,0.16973 -2.68306,2.05792 -5.347373,4.17635 -8.151923,5.95499 -0.07128,0.0453 -0.144887,0.0846 -0.219657,0.11969 -0.07474,0.0356 -0.15179,0.0623 -0.228871,0.0882 -0.07821,0.0271 -0.157396,0.0491 -0.236976,0.0687 -0.08002,0.02 -0.160649,0.0354 -0.24131,0.0506 -0.08158,0.0157 -0.16366,0.0268 -0.245827,0.0361 -0.08349,0.01 -0.167172,0.0167 -0.250905,0.0223 -0.08305,0.006 -0.166219,0.009 -0.249381,0.0112 -0.08357,0.004 -0.167198,0.004 -0.250784,0.002 -0.08418,-0.002 -0.168218,-0.005 -0.252193,-0.0127 -0.08314,-0.006 -0.166108,-0.0168 -0.248993,-0.0275 -0.08209,-0.0112 -0.163902,-0.0254 -0.245385,-0.0425 -0.08348,-0.0172 -0.166341,-0.039 -0.248863,-0.0626 -0.08634,-0.0245 -0.172068,-0.0524 -0.257514,-0.0817 -0.08443,-0.0283 -0.168076,-0.0601 -0.251942,-0.0909 -0.08861,-0.0327 -0.17669,-0.0676 -0.264696,-0.10287 -0.09599,-0.0382 -0.191943,-0.0766 -0.287704,-0.11583 -0.09933,-0.0396 -0.198059,-0.0816 -0.296972,-0.12268 -0.09985,-0.0425 -0.199735,-0.0846 -0.299123,-0.12871 -0.09935,-0.0436 -0.198488,-0.0882 -0.297227,-0.13393 -0.100961,-0.0478 -0.201412,-0.0973 -0.301715,-0.14728 -0.100509,-0.0496 -0.200303,-0.10151 -0.300593,-0.15174 -0.100928,-0.0517 -0.201956,-0.10325 -0.302997,-0.15462 -0.105308,-0.0534 -0.211498,-0.104 -0.318005,-0.15349 -0.107828,-0.0499 -0.216207,-0.098 -0.324805,-0.14527 -0.108835,-0.0482 -0.218678,-0.0925 -0.329171,-0.13424 -0.116428,-0.0447 -0.234573,-0.0814 -0.352808,-0.11745 -0.121323,-0.0375 -0.243514,-0.0701 -0.365703,-0.10263 -0.120362,-0.0319 -0.240929,-0.0626 -0.361549,-0.0929 -0.119712,-0.031 -0.240114,-0.0573 -0.360539,-0.0836 -0.119186,-0.0262 -0.238992,-0.0477 -0.358727,-0.0694 -0.122557,-0.0223 -0.245782,-0.0372 -0.369148,-0.0501 -0.131795,-0.0125 -0.263872,-0.0193 -0.39596,-0.0242 -0.135059,-0.005 -0.270139,-0.007 -0.405214,-0.01 -0.133899,-0.002 -0.267809,-0.002 -0.401715,-0.002 -0.140555,-0.002 -0.28105,0.004 -0.42149,0.01 -0.153817,0.007 -0.3074,0.0212 -0.460913,0.0355 -0.161265,0.0151 -0.322331,0.0334 -0.483435,0.0509 -0.159184,0.0164 -0.318227,0.0349 -0.477219,0.0542 -0.16066,0.0194 -0.321395,0.0379 -0.482004,0.058 -0.165426,0.0206 -0.330882,0.0406 -0.496194,0.0627 -0.164283,0.0219 -0.32857,0.0438 -0.492723,0.0674 -0.164747,0.0248 -0.32932,0.0513 -0.493608,0.0806 -0.165868,0.0293 -0.331139,0.0635 -0.496361,0.098 -0.163089,0.0341 -0.325956,0.07 -0.488612,0.10736 -0.159826,0.0369 -0.319136,0.0771 -0.478286,0.11819 -0.15811,0.0415 -0.315522,0.0869 -0.472676,0.13384 -0.155797,0.0466 -0.310603,0.0981 -0.4652,0.15081 -0.15482,0.0522 -0.309028,0.10711 -0.462957,0.16331 -0.156039,0.0568 -0.311417,0.11645 -0.466729,0.1764 -0.15551,0.0604 -0.310065,0.12456 -0.46457,0.18892 -0.160514,0.0668 -0.319567,0.13882 -0.478301,0.21198 -0.167735,0.0772 -0.334208,0.15878 -0.50065,0.24039 -0.165131,0.0818 -0.330156,0.16401 -0.494883,0.24715 -0.16185,0.0816 -0.323172,0.16472 -0.484359,0.24832 -0.161732,0.0836 -0.322558,0.17007 -0.482798,0.2582 -0.160016,0.0878 -0.31961,0.17687 -0.479112,0.26617 -0.160704,0.0903 -0.320976,0.18186 -0.480379,0.27578 -0.16624,0.0985 -0.331116,0.20066 -0.495885,0.30306 -0.165976,0.10263 -0.331129,0.2072 -0.495612,0.31351 -0.163198,0.10562 -0.325937,0.2125 -0.48828,0.32026 -0.16557,0.11097 -0.3305,0.22344 -0.495362,0.33607 -0.165536,0.11346 -0.330211,0.22884 -0.495349,0.34318 -0.16143,0.11259 -0.323043,0.22489 -0.484891,0.33657 -0.158953,0.10985 -0.317524,0.22071 -0.476647,0.33023 -0.127318,0.0876 -0.254364,0.17566 -0.383058,0.25992 0,0 7.909384,-5.78536 7.909384,-5.78536 v 0 c 0.128694,-0.0843 0.255741,-0.17239 0.383058,-0.25991 0.159122,-0.10948 0.317693,-0.22033 0.476646,-0.33025 0.161849,-0.11172 0.323461,-0.22391 0.484891,-0.33656 0.165138,-0.11433 0.329813,-0.22976 0.495351,-0.34318 0.164864,-0.11259 0.32979,-0.2251 0.495361,-0.33606 0.162343,-0.10773 0.325082,-0.2146 0.488278,-0.32027 0.164486,-0.10637 0.329637,-0.21097 0.495612,-0.3135 0.16477,-0.10238 0.329646,-0.20453 0.495888,-0.30307 0.159401,-0.0939 0.319673,-0.18549 0.480377,-0.27577 0.159502,-0.0893 0.319096,-0.17836 0.479111,-0.26617 0.160243,-0.0882 0.321068,-0.17454 0.4828,-0.25821 0.161189,-0.0836 0.322511,-0.1668 0.48436,-0.24831 0.164725,-0.0832 0.329753,-0.16531 0.494882,-0.24717 0.166442,-0.0817 0.332916,-0.1631 0.50065,-0.24038 0.158733,-0.0731 0.317787,-0.14528 0.478302,-0.21198 0.154505,-0.0643 0.309061,-0.12854 0.464569,-0.18892 0.155311,-0.0599 0.31069,-0.11956 0.466728,-0.17639 0.153929,-0.0562 0.308139,-0.11122 0.46296,-0.16331 0.154595,-0.0526 0.3094,-0.10424 0.465196,-0.15082 0.157154,-0.047 0.314567,-0.0924 0.472678,-0.13383 0.15915,-0.0412 0.318461,-0.0814 0.478286,-0.11819 0.162656,-0.0372 0.325523,-0.0732 0.488612,-0.10724 0.16522,-0.0345 0.330496,-0.0689 0.496364,-0.098 0.164288,-0.0293 0.328858,-0.0558 0.493607,-0.0806 0.164153,-0.0234 0.328436,-0.0453 0.492721,-0.0674 0.165314,-0.022 0.330767,-0.0422 0.496193,-0.0626 0.160611,-0.02 0.321345,-0.0385 0.482006,-0.0579 0.158991,-0.0192 0.318033,-0.0376 0.477219,-0.0542 0.161105,-0.0176 0.322165,-0.0359 0.483437,-0.0509 0.153512,-0.0143 0.307093,-0.0276 0.460907,-0.0355 0.14044,-0.006 0.280941,-0.0112 0.421493,-0.01 0.133909,2.9e-4 0.267817,2.9e-4 0.401717,0.002 0.135077,0.004 0.270153,0.006 0.405212,0.01 0.132092,0.005 0.264167,0.0112 0.395956,0.0242 0.123371,0.0127 0.246596,0.0278 0.369155,0.0501 0.119729,0.0217 0.239536,0.0432 0.358721,0.0694 0.12043,0.026 0.240826,0.0524 0.360539,0.0834 0.12062,0.0304 0.241189,0.061 0.36155,0.0929 0.122196,0.0325 0.244382,0.0653 0.365704,0.10275 0.118235,0.0361 0.236379,0.0727 0.3528,0.11745 0.110498,0.0416 0.220343,0.0861 0.329186,0.13425 0.108589,0.0472 0.216973,0.0953 0.324793,0.14527 0.106524,0.0494 0.212707,0.10001 0.318023,0.15348 0.10103,0.0514 0.20206,0.10287 0.302983,0.15465 0.10029,0.0503 0.200093,0.10212 0.300597,0.15172 0.100302,0.0499 0.200752,0.0994 0.301722,0.14728 0.0987,0.0458 0.19788,0.0903 0.29723,0.13393 0.0994,0.0441 0.19927,0.0863 0.29912,0.12871 0.0989,0.0412 0.19764,0.0831 0.29698,0.12268 0.0958,0.0391 0.191713,0.0776 0.287693,0.11583 0.0881,0.0351 0.17609,0.0701 0.2647,0.10287 0.0839,0.0308 0.1675,0.0626 0.25193,0.0909 0.0854,0.0292 0.17118,0.0572 0.25753,0.0817 0.0825,0.0234 0.16535,0.0453 0.24886,0.0626 0.0815,0.0169 0.16329,0.0311 0.24539,0.0425 0.0829,0.0112 0.16583,0.0207 0.24898,0.0275 0.084,0.006 0.16806,0.0112 0.25219,0.0127 0.0836,0.002 0.16722,0.001 0.25079,-0.002 0.0832,-0.002 0.16635,-0.005 0.24939,-0.0112 0.0838,-0.005 0.1674,-0.0125 0.2509,-0.0224 0.0822,-0.009 0.16424,-0.0206 0.24583,-0.036 0.0807,-0.0151 0.16131,-0.0304 0.24131,-0.0504 0.0796,-0.0197 0.15877,-0.0416 0.23698,-0.0687 0.077,-0.026 0.15414,-0.0526 0.22887,-0.0882 0.0747,-0.0351 0.14835,-0.0744 0.21966,-0.11969 2.97906,-1.88933 -10.440093,7.73727 -7.666872,5.61572 0.06852,-0.0543 0.135672,-0.11147 0.20212,-0.16975 0.0654,-0.0584 0.130475,-0.11745 0.193316,-0.1803 0.06176,-0.0608 0.123631,-0.12169 0.183703,-0.18523 0.05727,-0.0608 0.114038,-0.12243 0.169511,-0.18586 0.05348,-0.0613 0.10706,-0.12243 0.160205,-0.18422 0.05055,-0.0584 0.100835,-0.1172 0.150288,-0.1771 0.049,-0.0588 0.09763,-0.11795 0.14689,-0.1764 0.04588,-0.0543 0.09176,-0.10873 0.137665,-0.16297 0.04305,-0.0509 0.08581,-0.10238 0.128742,-0.15349 0.04091,-0.0506 0.08202,-0.10101 0.122382,-0.15233 0.03828,-0.0473 0.07676,-0.0945 0.113323,-0.14412 0.03438,-0.0462 0.06789,-0.0937 0.101361,-0.14108 0.0299,-0.0431 0.05922,-0.0867 0.08932,-0.12967 0.02611,-0.0384 0.05133,-0.0777 0.07617,-0.11745 0.02231,-0.0351 0.04481,-0.0701 0.0676,-0.10487 0,0 7.909386,-5.78535 7.909386,-5.78535 z"
       inkscape:connector-curvature="0" />
  </g>
</svg>
