<?xml version="1.0" encoding="UTF-8" standalone="no"?>
<!-- Created with Inkscape (http://www.inkscape.org/) -->

<svg
   xmlns:dc="http://purl.org/dc/elements/1.1/"
   xmlns:cc="http://creativecommons.org/ns#"
   xmlns:rdf="http://www.w3.org/1999/02/22-rdf-syntax-ns#"
   xmlns:svg="http://www.w3.org/2000/svg"
   xmlns="http://www.w3.org/2000/svg"
   xmlns:sodipodi="http://sodipodi.sourceforge.net/DTD/sodipodi-0.dtd"
   xmlns:inkscape="http://www.inkscape.org/namespaces/inkscape"
   width="64.801125mm"
   height="65.942093mm"
   viewBox="0 0 64.801124 65.942094"
   version="1.1"
   id="svg960"
   inkscape:version="0.92.3 (2405546, 2018-03-11)"
   sodipodi:docname="R12.svg"
   inkscape:export-filename="/home/rflec028/Pictures/R/R12.large.svg.png"
   inkscape:export-xdpi="808.90265"
   inkscape:export-ydpi="808.90265">
  <defs
     id="defs954" />
  <sodipodi:namedview
     id="base"
     pagecolor="#ffffff"
     bordercolor="#666666"
     borderopacity="1.0"
     inkscape:pageopacity="0.0"
     inkscape:pageshadow="2"
     inkscape:zoom="2"
     inkscape:cx="102.28865"
     inkscape:cy="133.47338"
     inkscape:document-units="mm"
     inkscape:current-layer="layer1"
     showgrid="false"
     fit-margin-top="1"
     fit-margin-left="1"
     fit-margin-right="1"
     fit-margin-bottom="1"
     inkscape:window-width="1600"
     inkscape:window-height="845"
     inkscape:window-x="0"
     inkscape:window-y="27"
     inkscape:window-maximized="1" />
  <metadata
     id="metadata957">
    <rdf:RDF>
      <cc:Work
         rdf:about="">
        <dc:format>image/svg+xml</dc:format>
        <dc:type
           rdf:resource="http://purl.org/dc/dcmitype/StillImage" />
        <dc:title />
      </cc:Work>
    </rdf:RDF>
  </metadata>
  <g
     inkscape:label="Layer 1"
     inkscape:groupmode="layer"
     id="layer1"
     transform="translate(-70.088522,-117.23769)"
     style="display:inline">
    <path
       style="fill:#000000;stroke-width:0.26458332"
       id="path981"
       d="m 89.037486,131.51461 c 0.05846,-0.0341 0.117798,-0.0667 0.17567,-0.10191 0.08503,-0.0522 0.166625,-0.10963 0.247789,-0.16757 0.11225,-0.0812 0.2255,-0.16093 0.340448,-0.23827 0.137063,-0.0914 0.27579,-0.18029 0.4147,-0.26886 0.150171,-0.094 0.300972,-0.18705 0.45257,-0.27874 0.167846,-0.10133 0.337628,-0.19938 0.507792,-0.29673 0.176882,-0.10186 0.355552,-0.20054 0.53416,-0.29931 0.184549,-0.10159 0.369457,-0.20252 0.555405,-0.30152 0.19308,-0.1028 0.386457,-0.20504 0.580222,-0.30654 0.191612,-0.10201 0.384152,-0.20225 0.576583,-0.3027 0.1924,-0.10012 0.38534,-0.19919 0.577834,-0.29913 0.191444,-0.0983 0.382399,-0.19763 0.57342,-0.29679 0.18839,-0.0967 0.376121,-0.1947 0.563579,-0.29321 0.18753,-0.0975 0.37427,-0.19648 0.561247,-0.29503 0.184045,-0.0984 0.36883,-0.19537 0.55284,-0.29384 0.182122,-0.0976 0.364115,-0.1954 0.545966,-0.29347 0.179536,-0.0968 0.358255,-0.19507 0.537451,-0.29248 0.178124,-0.0969 0.355651,-0.19489 0.533743,-0.29185 0.175694,-0.0955 0.351014,-0.19176 0.526521,-0.28764 0.17267,-0.0949 0.345122,-0.19021 0.517959,-0.28481 0.169077,-0.0924 0.337562,-0.1859 0.506488,-0.27859 0.165287,-0.0907 0.330155,-0.18211 0.495223,-0.27318 0.161004,-0.0888 0.321374,-0.17863 0.482204,-0.2677 0.15624,-0.0873 0.31193,-0.17559 0.46704,-0.26489 0.1557,-0.0889 0.3112,-0.17806 0.46632,-0.26793 0.15733,-0.0919 0.31496,-0.18329 0.47248,-0.27487 0.15896,-0.0924 0.31945,-0.18206 0.48018,-0.27129 0.15969,-0.089 0.32107,-0.17489 0.48331,-0.25911 0.15909,-0.0833 0.32074,-0.16168 0.48291,-0.23882 3.48307,-0.54168 6.62907,-3.31908 10.03054,-4.74912 0.1671,-0.0713 0.33651,-0.13679 0.50722,-0.19883 0.16848,-0.0618 0.33973,-0.11561 0.51195,-0.16598 0.16787,-0.0488 0.33777,-0.0901 0.50843,-0.12794 0.16435,-0.0368 0.33015,-0.0665 0.49654,-0.0922 0.16003,-0.0249 0.32145,-0.0375 0.48293,-0.0478 0.15474,-0.011 0.30973,-0.01 0.4646,-0.003 0.14968,0.006 0.29808,0.0269 0.44539,0.053 0.14157,0.0257 0.28028,0.0641 0.41649,0.10997 0.13206,0.0452 0.25587,0.10932 0.37467,0.18191 0.1156,0.0727 0.22468,0.15492 0.33171,0.23953 0.10741,0.0854 0.20906,0.1775 0.3085,0.27191 0.0999,0.0971 0.1986,0.19537 0.29658,0.29437 0.10558,0.10739 0.20861,0.21723 0.30922,0.32928 0.11156,0.12506 0.21729,0.2551 0.32208,0.38583 0.11021,0.13813 0.21405,0.28106 0.31649,0.42499 0.1064,0.15086 0.20695,0.30572 0.30571,0.46164 0.10188,0.1631 0.19971,0.32867 0.2958,0.49523 0.099,0.17242 0.19854,0.34457 0.29686,0.51741 0.10219,0.18134 0.20348,0.36317 0.30392,0.54549 0.1035,0.19135 0.213,0.37931 0.32255,0.56723 0.11232,0.19228 0.22387,0.38503 0.33648,0.57715 0.11278,0.19189 0.22616,0.38344 0.33926,0.57516 0.11221,0.19101 0.22579,0.3812 0.34053,0.57071 0.11362,0.18872 0.22779,0.37712 0.34258,0.56513 0.11674,0.18996 0.23257,0.38049 0.3474,0.57161 0.11533,0.19118 0.23074,0.38235 0.34539,0.57395 0.1136,0.18912 0.22747,0.37805 0.34277,0.56612 0.11608,0.18749 0.23099,0.3757 0.34643,0.56359 0.11377,0.18593 0.2271,0.37214 0.34088,0.55808 0.11132,0.1815 0.22143,0.36373 0.3312,0.54618 0.11036,0.18336 0.21706,0.36887 0.32421,0.55412 0.10617,0.18464 0.21252,0.36919 0.31794,0.55427 0.10338,0.18265 0.20615,0.36565 0.3074,0.5495 0.1,0.17981 0.19902,0.36012 0.29721,0.5409 0.0967,0.17642 0.19162,0.35375 0.28714,0.53079 0.0934,0.17284 0.18672,0.34567 0.27984,0.51863 0.0908,0.17021 0.18065,0.34096 0.2704,0.51173 0.089,0.16888 0.17822,0.33764 0.26717,0.50655 0.0867,0.16661 0.17376,0.33302 0.26107,0.4993 0.0859,0.16398 0.17287,0.32736 0.26036,0.49048 0.0869,0.16211 0.17584,0.32309 0.2657,0.48356 0.0881,0.15717 0.17585,0.31449 0.26305,0.47215 0.0868,0.15562 0.16967,0.31336 0.25134,0.4717 0.0813,0.15823 0.15875,0.31842 0.23312,0.48004 0.0745,0.16106 0.1407,0.3257 0.20306,0.49177 0.0617,0.16854 0.11207,0.34087 0.15954,0.51386 0.0465,0.17135 0.087,0.34421 0.12435,0.51776 0.0373,0.16771 0.0649,0.33723 0.088,0.50741 0.0219,0.16483 0.0274,0.33095 0.0267,0.49702 -0.002,0.16395 -0.0192,0.327 -0.0443,0.48886 -0.025,0.16572 -0.0693,0.32731 -0.11865,0.48718 -0.0527,0.1682 -0.12173,0.33049 -0.19505,0.49057 -0.0789,0.16923 -0.17016,0.33207 -0.26623,0.49198 -0.10278,0.16814 -0.21726,0.32859 -0.33461,0.48674 -0.12344,0.16532 -0.25505,0.32423 -0.38777,0.48211 -0.1349,0.16085 -0.2778,0.31469 -0.42293,0.46629 -0.1484,0.15502 -0.30486,0.30196 -0.46389,0.44597 -0.16206,0.14667 -0.32823,0.28872 -0.49633,0.42841 -0.17031,0.14043 -0.34501,0.27541 -0.52001,0.40992 -0.17475,0.13378 -0.35192,0.26437 -0.53072,0.39269 -0.17791,0.12792 -0.35626,0.25527 -0.53467,0.3825 -0.17913,0.12704 -0.35977,0.25192 -0.54059,0.37652 -0.18408,0.12573 -0.36846,0.25101 -0.5538,0.37489 -0.18346,0.12352 -0.36794,0.24548 -0.55252,0.36731 -0.18484,0.12233 -0.37076,0.243 -0.55734,0.36264 -0.1928,0.12403 -0.38806,0.24416 -0.58405,0.36307 -0.20045,0.12057 -0.40143,0.24025 -0.60298,0.35897 -0.2093,0.12275 -0.41936,0.24419 -0.62937,0.36571 -0.22896,0.13136 -0.45834,0.262 -0.68816,0.39185 -0.23479,0.13147 -0.46924,0.26355 -0.70423,0.39465 -0.23464,0.13092 -0.46965,0.26117 -0.70517,0.39052 -0.23815,0.13085 -0.47654,0.26124 -0.71455,0.39234 -0.23502,0.1288 -0.46956,0.25846 -0.70438,0.38763 -0.23674,0.12991 -0.47451,0.25792 -0.71233,0.38583 -0.24571,0.13287 -0.49191,0.26479 -0.73883,0.39538 -0.24709,0.13174 -0.49512,0.26169 -0.74235,0.39317 -0.24308,0.12914 -0.48631,0.25796 -0.7295,0.3869 -0.24158,0.1288 -0.48318,0.25758 -0.72442,0.387 -0.23813,0.12752 -0.47584,0.25581 -0.71397,0.3833 -0.23552,0.12548 -0.47051,0.25192 -0.70623,0.37703 -0.2317,0.12364 -0.46373,0.24669 -0.69523,0.37071 -0.23197,0.12304 -0.46273,0.24836 -0.69415,0.37241 -0.23427,0.12644 -0.46938,0.25127 -0.70421,0.37664 -0.23418,0.12393 -0.46717,0.25012 -0.69976,0.37703 -0.23673,0.12932 -0.4735,0.25855 -0.71024,0.38789 -0.23461,0.1287 -0.46927,0.25736 -0.70364,0.38652 -0.23864,0.13153 -0.47808,0.26162 -0.71829,0.39025 -0.23931,0.12774 -0.47898,0.25479 -0.71841,0.3823 -0.23622,0.12556 -0.47218,0.25159 -0.7071,0.37959 -0.23357,0.12787 -0.46643,0.25705 -0.70057,0.3839 -0.18533,0.0996 -0.37027,0.19983 -0.55448,0.30144 0,0 -9.535714,4.53029 -9.535714,4.53029 v 0 c 0.184214,-0.1016 0.369159,-0.20187 0.554488,-0.30144 0.234132,-0.12685 0.46699,-0.25602 0.70057,-0.38389 0.234909,-0.128 0.470873,-0.25404 0.707096,-0.3796 0.239432,-0.12749 0.479104,-0.25456 0.718411,-0.38229 0.240213,-0.12864 0.47965,-0.25872 0.718285,-0.39026 0.234373,-0.12916 0.469027,-0.25781 0.703652,-0.38652 0.236725,-0.12933 0.473503,-0.25856 0.710227,-0.38789 0.232587,-0.12691 0.465575,-0.2531 0.699775,-0.37702 0.23482,-0.12537 0.46994,-0.2502 0.70419,-0.37663 0.23144,-0.12406 0.46219,-0.24939 0.69417,-0.37243 0.2315,-0.12402 0.46352,-0.24706 0.69523,-0.3707 0.2357,-0.12511 0.4707,-0.25156 0.70621,-0.37704 0.23814,-0.12749 0.47585,-0.25577 0.71397,-0.38329 0.24125,-0.12943 0.48285,-0.25821 0.72443,-0.38699 0.24319,-0.12895 0.48643,-0.25778 0.72951,-0.38691 0.24722,-0.13148 0.49525,-0.26143 0.74234,-0.39318 0.24692,-0.13059 0.49312,-0.26251 0.73883,-0.39538 0.23783,-0.1279 0.4756,-0.25592 0.71233,-0.38583 0.23483,-0.12916 0.46936,-0.25883 0.70438,-0.38763 0.23802,-0.13109 0.4764,-0.26149 0.71455,-0.39234 0.23552,-0.12933 0.47053,-0.2596 0.70517,-0.39051 0.235,-0.1311 0.46944,-0.26319 0.70423,-0.39466 0.22982,-0.12984 0.45921,-0.26048 0.68817,-0.39185 0.21,-0.12152 0.42007,-0.24295 0.62936,-0.36571 0.20155,-0.11871 0.40253,-0.2384 0.60298,-0.35897 0.196,-0.1189 0.39124,-0.23904 0.58405,-0.36306 0.18658,-0.11964 0.37251,-0.24032 0.55735,-0.36263 0.18456,-0.12185 0.36906,-0.24381 0.55251,-0.36732 0.18533,-0.12387 0.36972,-0.24917 0.55379,-0.37489 0.18083,-0.1246 0.36147,-0.24949 0.54059,-0.37653 0.17842,-0.12723 0.35676,-0.25457 0.53468,-0.3825 0.1788,-0.12832 0.35597,-0.2589 0.53073,-0.39268 0.17499,-0.13452 0.3497,-0.26949 0.52001,-0.40993 0.1681,-0.13968 0.33426,-0.28174 0.49633,-0.42841 0.15902,-0.14401 0.31547,-0.29095 0.46389,-0.44597 0.14513,-0.15159 0.28802,-0.30544 0.42291,-0.46629 0.13274,-0.15786 0.26433,-0.31679 0.38777,-0.48211 0.11736,-0.15815 0.23186,-0.31859 0.33462,-0.48673 0.0961,-0.15992 0.18739,-0.32276 0.26623,-0.49198 0.0732,-0.16009 0.14232,-0.32237 0.19505,-0.49057 0.0493,-0.15987 0.0935,-0.32147 0.11865,-0.48718 0.0249,-0.16188 0.0421,-0.32495 0.0443,-0.48887 7.8e-4,-0.16606 -0.005,-0.33219 -0.0267,-0.49701 -0.0231,-0.17018 -0.0508,-0.3397 -0.088,-0.50742 -0.0373,-0.17354 -0.0779,-0.34642 -0.12436,-0.51776 -0.0474,-0.17298 -0.0978,-0.34532 -0.15954,-0.51385 -0.0623,-0.16607 -0.12859,-0.33072 -0.20306,-0.49178 -0.0744,-0.16161 -0.15179,-0.32181 -0.23312,-0.48004 -0.0817,-0.15834 -0.16455,-0.31608 -0.25134,-0.47169 -0.0872,-0.15766 -0.17501,-0.31498 -0.26306,-0.47215 -0.0899,-0.16048 -0.17883,-0.32145 -0.2657,-0.48357 -0.0875,-0.16311 -0.17448,-0.32649 -0.26036,-0.49047 -0.0873,-0.16629 -0.17436,-0.3327 -0.26106,-0.49931 -0.0889,-0.1689 -0.17818,-0.33766 -0.26718,-0.50655 -0.0897,-0.17077 -0.17957,-0.34151 -0.2704,-0.51172 -0.0931,-0.17297 -0.18648,-0.3458 -0.27984,-0.51863 -0.0955,-0.17704 -0.19048,-0.35438 -0.28714,-0.53079 -0.0982,-0.18079 -0.19724,-0.3611 -0.2972,-0.54091 -0.10125,-0.18384 -0.20402,-0.36684 -0.3074,-0.54949 -0.10542,-0.18509 -0.21176,-0.36964 -0.31794,-0.55428 -0.10716,-0.18525 -0.21386,-0.37076 -0.32421,-0.55412 -0.10977,-0.18245 -0.21989,-0.36468 -0.3312,-0.54618 -0.11378,-0.18593 -0.22711,-0.37215 -0.34088,-0.55808 -0.11544,-0.18788 -0.23036,-0.3761 -0.34643,-0.56359 -0.11531,-0.18807 -0.22918,-0.377 -0.34277,-0.56611 -0.11465,-0.19161 -0.23006,-0.38276 -0.3454,-0.57396 -0.11483,-0.19112 -0.23066,-0.38165 -0.3474,-0.5716 -0.11478,-0.18802 -0.22895,-0.37642 -0.34258,-0.56514 -0.11474,-0.1895 -0.22831,-0.3797 -0.34052,-0.57071 -0.1131,-0.19171 -0.22647,-0.38326 -0.33926,-0.57516 -0.11262,-0.19212 -0.22415,-0.38486 -0.33648,-0.57715 -0.10955,-0.18792 -0.21906,-0.37587 -0.32255,-0.56723 -0.10043,-0.1823 -0.20174,-0.36414 -0.30392,-0.54548 -0.0983,-0.17283 -0.19783,-0.345 -0.29686,-0.51742 -0.0961,-0.16655 -0.19392,-0.33213 -0.2958,-0.49522 -0.0988,-0.15593 -0.19931,-0.31079 -0.30572,-0.46164 -0.10243,-0.14394 -0.20627,-0.28686 -0.31648,-0.42499 -0.10478,-0.13072 -0.21052,-0.26078 -0.32208,-0.38583 -0.10061,-0.11206 -0.20365,-0.22188 -0.30922,-0.32929 -0.098,-0.0989 -0.1967,-0.19728 -0.29658,-0.29436 -0.0994,-0.0945 -0.2011,-0.18657 -0.3085,-0.27192 -0.10703,-0.0846 -0.21612,-0.16683 -0.33172,-0.23952 -0.11879,-0.0725 -0.2426,-0.13669 -0.37465,-0.18191 -0.13622,-0.0459 -0.27493,-0.0844 -0.41648,-0.11007 -0.14731,-0.0263 -0.29575,-0.0466 -0.4454,-0.053 -0.15489,-0.006 -0.30987,-0.008 -0.46461,0.003 -0.16148,0.0103 -0.32291,0.023 -0.48292,0.0478 -0.1664,0.0257 -0.3322,0.0554 -0.49655,0.0922 -0.17066,0.0379 -0.34056,0.0791 -0.50842,0.12795 -0.17222,0.0504 -0.34347,0.10411 -0.51196,0.16597 -0.17071,0.062 -0.34012,0.12761 -0.50722,0.19884 -3.34844,1.40774 -6.685724,4.10226 9.04088,-4.31149 -0.16217,0.0772 -0.32382,0.15546 -0.4829,0.23884 -0.16224,0.0842 -0.32362,0.17013 -0.48331,0.25911 -0.16074,0.0892 -0.32123,0.17893 -0.48019,0.27129 -0.15752,0.0916 -0.31515,0.18296 -0.47248,0.27487 -0.15511,0.0899 -0.31062,0.17907 -0.46631,0.26792 -0.15512,0.0893 -0.31081,0.17758 -0.46705,0.2649 -0.16082,0.0891 -0.3212,0.17895 -0.4822,0.26769 -0.16507,0.0911 -0.32994,0.18251 -0.49522,0.27318 -0.16893,0.0927 -0.33741,0.18618 -0.50649,0.27859 -0.17284,0.0946 -0.34529,0.18991 -0.51796,0.28481 -0.1755,0.0959 -0.35082,0.19211 -0.52652,0.28765 -0.1781,0.097 -0.35562,0.19495 -0.53375,0.29185 -0.17919,0.0974 -0.35791,0.19569 -0.53744,0.29248 -0.18185,0.0981 -0.36385,0.1959 -0.54597,0.29347 -0.18401,0.0985 -0.3688,0.19545 -0.55284,0.29384 -0.18698,0.0985 -0.37372,0.19754 -0.56125,0.29503 -0.18746,0.0985 -0.37519,0.19649 -0.56358,0.29321 -0.19102,0.0991 -0.38198,0.19845 -0.57342,0.29679 -0.19249,0.0999 -0.38543,0.199 -0.57783,0.29913 -0.19243,0.10045 -0.38497,0.20069 -0.57659,0.3027 -0.19376,0.1015 -0.38714,0.20373 -0.58022,0.30653 -0.18594,0.099 -0.37085,0.19994 -0.5554,0.30153 -0.17861,0.0988 -0.35728,0.19745 -0.53416,0.29931 -0.17017,0.0973 -0.33995,0.1954 -0.50779,0.29672 -0.1516,0.0917 -0.302402,0.18472 -0.45257,0.27874 -0.138913,0.0886 -0.277637,0.17746 -0.414704,0.26886 -0.114945,0.0774 -0.228195,0.15707 -0.340447,0.23827 -0.08117,0.058 -0.162762,0.11537 -0.247788,0.16757 -0.05787,0.0352 -0.117209,0.0677 -0.175671,0.10191 0,0 -9.535709,4.5303 -9.535709,4.5303 z"
       inkscape:connector-curvature="0" />
    <path
       style="fill:#000000;stroke-width:0.26458332"
       id="path983"
       d="m 112.05682,150.89973 c 0.0122,0.028 0.0254,0.0555 0.04,0.0823 0.015,0.0288 0.0327,0.0561 0.0496,0.0838 0.0205,0.0329 0.0421,0.0652 0.0634,0.0976 0.0276,0.0414 0.0556,0.0825 0.0836,0.12352 0.0323,0.0474 0.0646,0.0948 0.0957,0.143 0.035,0.0552 0.0667,0.11226 0.0986,0.16924 0.0362,0.0638 0.0725,0.12756 0.10942,0.19101 0.0396,0.0684 0.0782,0.1374 0.11518,0.20728 0.0417,0.079 0.0823,0.15861 0.12235,0.23849 0.0442,0.0879 0.0887,0.17568 0.13375,0.26314 0.0473,0.0913 0.0926,0.18361 0.13883,0.27541 0.0489,0.0968 0.097,0.19406 0.14463,0.29156 0.05,0.10262 0.0995,0.20538 0.14831,0.30851 0.0508,0.10608 0.10014,0.21283 0.14986,0.31941 0.0501,0.10832 0.0998,0.21683 0.14914,0.32549 0.0508,0.10872 0.10064,0.21787 0.15114,0.32674 0.0508,0.10955 0.10177,0.21902 0.15318,0.3283 0.0521,0.11226 0.10485,0.22424 0.15676,0.33661 0.0511,0.11247 0.10365,0.22424 0.15459,0.33678 0.0519,0.11561 0.1052,0.23064 0.1591,0.34535 0.0561,0.11749 0.11102,0.23547 0.1663,0.35331 0.0557,0.12052 0.11369,0.24001 0.17145,0.35959 0.0612,0.12452 0.12197,0.24931 0.18445,0.37323 0.0643,0.12747 0.12954,0.25448 0.1946,0.38156 0.0648,0.126 0.12893,0.25239 0.1935,0.37852 0.0654,0.12617 0.13168,0.25191 0.19808,0.37757 0.0688,0.12964 0.13915,0.25836 0.20928,0.38725 0.0719,0.13238 0.14489,0.26427 0.21815,0.39596 0.0726,0.13089 0.14669,0.26096 0.22007,0.39141 0.0747,0.13306 0.14893,0.26635 0.22261,0.39996 0.0747,0.13307 0.1477,0.26704 0.22144,0.40062 0.0763,0.13856 0.15208,0.27739 0.22511,0.4177 0.0793,0.15273 0.15807,0.30572 0.23528,0.45952 0.0806,0.15865 0.15995,0.31786 0.23957,0.47697 0.0786,0.15707 0.15546,0.31496 0.23325,0.47241 0.0774,0.15635 0.15383,0.31323 0.23028,0.47007 0.079,0.16314 0.15585,0.32729 0.23383,0.4909 0.0786,0.16484 0.15768,0.32949 0.23749,0.49376 0.0802,0.16608 0.16016,0.33221 0.23946,0.49868 0.0773,0.1639 0.15593,0.32722 0.23267,0.4914 0.0776,0.16489 0.1554,0.32976 0.2325,0.49492 0.0789,0.1676 0.15656,0.33577 0.2349,0.50363 0.0767,0.16614 0.15327,0.33229 0.22983,0.49846 0.0765,0.16359 0.15217,0.32751 0.22815,0.49133 0.075,0.16198 0.15147,0.32328 0.22731,0.48488 0.0777,0.16472 0.15447,0.32985 0.23166,0.49479 0.0791,0.16721 0.15705,0.335 0.2344,0.50304 0.0787,0.16782 0.15567,0.33648 0.23301,0.50494 0.077,0.16877 0.15515,0.33704 0.23195,0.50593 0.0787,0.17343 0.15875,0.34626 0.23849,0.51922 0.0793,0.17188 0.16174,0.34232 0.24698,0.51136 0.0877,0.17205 0.18381,0.33953 0.28599,0.5033 0.10917,0.17256 0.2287,0.33813 0.35183,0.50089 0.13131,0.1721 0.27278,0.33599 0.41818,0.49623 0.15068,0.16447 0.3137,0.31682 0.47871,0.46668 0.166,0.15132 0.34513,0.2869 0.52839,0.4164 0.18994,0.13381 0.39084,0.25058 0.59361,0.36355 0.2053,0.11429 0.41718,0.2158 0.63164,0.31149 0.21534,0.095 0.43743,0.17314 0.66159,0.24433 0.22481,0.0707 0.45352,0.12729 0.68395,0.17622 0.2317,0.048 0.46567,0.0834 0.70039,0.11268 0.23803,0.0291 0.47759,0.0403 0.71714,0.0462 0.24442,0.004 0.48878,-0.003 0.73288,-0.0144 0.25095,-0.0126 0.50062,-0.0408 0.7496,-0.0738 0.26259,-0.0357 0.52281,-0.086 0.78213,-0.14013 0.26962,-0.0577 0.5373,-0.12392 0.8042,-0.19294 0.26677,-0.0685 0.53069,-0.14714 0.7926,-0.23221 0.26128,-0.0863 0.51999,-0.18002 0.77863,-0.27383 0.2534,-0.0915 0.5071,-0.18213 0.75946,-0.27647 0.24595,-0.0931 0.49041,-0.18994 0.73494,-0.28668 0.1181,-0.0471 0.23593,-0.0949 0.35378,-0.14272 0,0 -9.53572,4.53029 -9.53572,4.53029 v 0 c -0.11784,0.0477 -0.23567,0.0956 -0.35378,0.14273 -0.24452,0.0967 -0.48898,0.19361 -0.73494,0.28667 -0.25235,0.0943 -0.50605,0.18497 -0.75945,0.27647 -0.25864,0.0938 -0.51736,0.18757 -0.77864,0.27384 -0.26189,0.0851 -0.52582,0.16372 -0.79258,0.23222 -0.26691,0.069 -0.53459,0.13523 -0.80421,0.19292 -0.25932,0.0541 -0.51954,0.1044 -0.78213,0.14014 -0.24897,0.033 -0.49865,0.0612 -0.7496,0.0738 -0.24411,0.0119 -0.48847,0.0189 -0.73288,0.0144 -0.2396,-0.005 -0.4791,-0.0171 -0.71714,-0.0462 -0.23473,-0.0293 -0.4687,-0.0646 -0.70039,-0.11268 -0.23042,-0.0489 -0.45914,-0.10557 -0.68395,-0.17622 -0.22417,-0.0712 -0.44626,-0.14931 -0.66159,-0.24432 -0.21447,-0.0957 -0.42633,-0.19724 -0.63164,-0.3115 -0.20276,-0.11298 -0.40367,-0.22974 -0.59361,-0.36355 -0.18326,-0.1295 -0.36239,-0.26508 -0.5284,-0.4164 -0.16501,-0.14984 -0.32801,-0.30221 -0.47869,-0.46668 -0.14542,-0.16023 -0.28687,-0.32413 -0.4182,-0.49622 -0.12312,-0.16277 -0.24266,-0.32833 -0.35183,-0.50088 -0.10217,-0.16379 -0.1983,-0.33127 -0.28598,-0.5033 -0.0853,-0.16906 -0.16764,-0.33948 -0.24698,-0.51138 -0.0797,-0.17296 -0.15979,-0.34579 -0.2385,-0.51922 -0.0768,-0.16888 -0.1549,-0.33715 -0.23195,-0.50592 -0.0774,-0.16848 -0.15428,-0.33712 -0.233,-0.50494 -0.0773,-0.16805 -0.15528,-0.33583 -0.2344,-0.50304 -0.0772,-0.16494 -0.15398,-0.33007 -0.23166,-0.49479 -0.0758,-0.1616 -0.15232,-0.3229 -0.22732,-0.48489 -0.0759,-0.1638 -0.1517,-0.32774 -0.22815,-0.49132 -0.0765,-0.16618 -0.15318,-0.33233 -0.22982,-0.49847 -0.0783,-0.16785 -0.15602,-0.33603 -0.23489,-0.50363 -0.0771,-0.16516 -0.15484,-0.33003 -0.23252,-0.49492 -0.0767,-0.16418 -0.15531,-0.32749 -0.23267,-0.49139 -0.0792,-0.16648 -0.15932,-0.33261 -0.23945,-0.49868 -0.0798,-0.16428 -0.15888,-0.32891 -0.2375,-0.49376 -0.078,-0.16362 -0.15483,-0.32777 -0.23382,-0.4909 -0.0765,-0.15685 -0.15282,-0.31373 -0.23028,-0.47007 -0.0777,-0.15746 -0.1547,-0.31535 -0.23326,-0.47242 -0.0796,-0.15911 -0.15902,-0.31832 -0.23956,-0.47697 -0.0773,-0.1538 -0.15599,-0.30678 -0.23528,-0.45951 -0.073,-0.14031 -0.14881,-0.27914 -0.2251,-0.41771 -0.0738,-0.13357 -0.14678,-0.26755 -0.22145,-0.40061 -0.0737,-0.1336 -0.14793,-0.26691 -0.22262,-0.39995 -0.0734,-0.13047 -0.14745,-0.26054 -0.22005,-0.39143 -0.0733,-0.13169 -0.14619,-0.26357 -0.21816,-0.39596 -0.0701,-0.12888 -0.14055,-0.25761 -0.20928,-0.38724 -0.0664,-0.12567 -0.13264,-0.25141 -0.19807,-0.37758 -0.0646,-0.12613 -0.12866,-0.25251 -0.19351,-0.37851 -0.065,-0.12709 -0.13029,-0.2541 -0.1946,-0.38157 -0.0625,-0.12392 -0.12321,-0.24869 -0.18446,-0.37323 -0.0577,-0.11957 -0.1157,-0.23905 -0.17144,-0.35958 -0.0553,-0.11785 -0.11026,-0.23583 -0.1663,-0.35331 -0.0539,-0.11472 -0.10715,-0.22973 -0.1591,-0.34536 -0.051,-0.11252 -0.10352,-0.22431 -0.15459,-0.33677 -0.0519,-0.11237 -0.10463,-0.22435 -0.15677,-0.33661 -0.0514,-0.10929 -0.10236,-0.21876 -0.15318,-0.32831 -0.0504,-0.10886 -0.10035,-0.218 -0.15112,-0.32673 -0.0494,-0.10867 -0.0991,-0.21717 -0.14915,-0.3255 -0.0497,-0.10658 -0.0991,-0.21333 -0.14986,-0.31941 -0.0488,-0.10313 -0.0983,-0.20593 -0.14831,-0.3085 -0.0476,-0.0975 -0.0958,-0.19471 -0.14463,-0.29156 -0.0463,-0.0918 -0.0915,-0.18416 -0.13884,-0.27541 -0.045,-0.0875 -0.0895,-0.17526 -0.13374,-0.26315 -0.04,-0.0799 -0.0806,-0.15949 -0.12236,-0.23849 -0.037,-0.0699 -0.0755,-0.13891 -0.11518,-0.20728 -0.0368,-0.0635 -0.0733,-0.12716 -0.10942,-0.19101 -0.0319,-0.0569 -0.0636,-0.1141 -0.0986,-0.16924 -0.0311,-0.0482 -0.0634,-0.0956 -0.0957,-0.14299 -0.0281,-0.0411 -0.0561,-0.0822 -0.0836,-0.12353 -0.0213,-0.0324 -0.043,-0.0646 -0.0634,-0.0976 -0.0168,-0.0277 -0.0344,-0.0551 -0.0495,-0.0838 -0.0146,-0.0268 -0.0279,-0.0543 -0.0401,-0.0823 0,0 9.53571,-4.53029 9.53571,-4.53029 z"
       inkscape:connector-curvature="0" />
    <path
       style="fill:#000000;stroke-width:0.26458332"
       id="path985"
       d="m 88.929844,120.18638 c 0.04941,-0.0161 0.09752,-0.0357 0.145179,-0.0563 0.06149,-0.0266 0.1228,-0.0537 0.184386,-0.08 0.07381,-0.0326 0.148846,-0.0624 0.22391,-0.0921 0.08809,-0.0347 0.176143,-0.0694 0.264074,-0.10455 0.09732,-0.0384 0.194949,-0.0761 0.292253,-0.11456 0.102078,-0.0403 0.204268,-0.0802 0.306899,-0.119 0.108174,-0.0423 0.217136,-0.0826 0.326161,-0.12262 0.112419,-0.0413 0.22539,-0.081 0.338554,-0.12027 0.115295,-0.0401 0.231806,-0.0765 0.348731,-0.11157 0.12484,-0.0375 0.251054,-0.07 0.377916,-0.0999 0.130192,-0.0314 0.261963,-0.0553 0.393874,-0.078 0.131549,-0.0228 0.263819,-0.0411 0.396288,-0.0577 0.130689,-0.0167 0.261976,-0.0279 0.393436,-0.0363 0.130613,-0.008 0.261464,-0.0107 0.392244,-0.014 0.130199,-0.003 0.260439,-0.001 0.390603,0.002 0.127919,0.003 0.255669,0.0105 0.383279,0.0198 0.125156,0.0102 0.250052,0.0231 0.374596,0.0391 0.121851,0.0168 0.24301,0.0382 0.36383,0.0611 0.118965,0.0217 0.236928,0.0478 0.353741,0.0791 0.115109,0.0309 0.226821,0.0724 0.33795,0.1151 0.110128,0.043 0.218881,0.0895 0.325765,0.14008 0.103667,0.0473 0.202004,0.10469 0.297717,0.16632 0.09567,0.0614 0.18461,0.1322 0.270974,0.20594 0.08766,0.0755 0.170488,0.15614 0.252024,0.2381 0.0827,0.0822 0.158931,0.17034 0.232378,0.26078 0.07551,0.0933 0.140397,0.19439 0.201713,0.29743 0.06393,0.10856 0.120998,0.22091 0.176311,0.33403 0.05531,0.11413 0.108895,0.22911 0.159692,0.34532 0.05142,0.11878 0.0976,0.23969 0.141629,0.36137 0.04583,0.1285 0.08811,0.25823 0.129328,0.38826 0.04178,0.13151 0.08113,0.26376 0.119718,0.39623 0.03923,0.13469 0.07519,0.27031 0.110465,0.40608 0.03541,0.13638 0.06916,0.27317 0.10215,0.41016 0.0336,0.14174 0.06558,0.28388 0.09599,0.42635 0.03199,0.1562 0.06204,0.3128 0.0926,0.46929 0.03178,0.16151 0.06104,0.3235 0.08881,0.48574 0.03067,0.17575 0.05393,0.35263 0.07563,0.52968 0.02227,0.18473 0.04272,0.36967 0.06238,0.5547 0.0203,0.19271 0.03366,0.38603 0.04533,0.57943 0.01311,0.20677 0.02029,0.41383 0.02717,0.62087 0.0069,0.21288 0.01252,0.4258 0.0177,0.63871 0.0064,0.22054 0.0087,0.44114 0.0092,0.66175 -9.48e-4,0.23409 -0.0048,0.46815 -0.0084,0.70221 -0.0035,0.23553 -0.0079,0.47103 -0.01278,0.70653 -0.0054,0.24343 -0.01135,0.48685 -0.01559,0.7303 -0.004,0.24356 -0.0081,0.48711 -0.01243,0.73066 -0.0052,0.24369 -0.0077,0.48742 -0.01089,0.73115 -0.0033,0.25032 -0.0073,0.50064 -0.01158,0.75095 -0.0046,0.25257 -0.0067,0.50518 -0.0097,0.75777 -0.003,0.25477 -0.0068,0.50953 -0.0107,0.76429 -0.0039,0.25195 -0.0081,0.50389 -0.0128,0.75582 -0.0057,0.25736 -0.0091,0.51477 -0.01294,0.77217 -0.0039,0.26147 -0.0084,0.52295 -0.0131,0.78442 -0.0049,0.26126 -0.0073,0.52254 -0.01072,0.78383 -0.0045,0.26895 -0.0067,0.53794 -0.0092,0.80692 -0.0031,0.26947 -0.0048,0.53894 -0.0062,0.80841 -0.0013,0.27711 -0.0037,0.5542 -0.0066,0.83129 -0.0019,0.2819 -0.0031,0.56379 -0.0047,0.84568 -0.0016,0.27802 -0.0037,0.55604 -0.006,0.83405 -0.0013,0.27563 -0.0017,0.55126 -0.0026,0.82689 -9.19e-4,0.27148 -0.0023,0.54294 -0.0039,0.81441 -0.0016,0.26807 -0.0039,0.53612 -0.0065,0.80417 -0.0015,0.27333 -0.0029,0.54667 -0.0048,0.81999 -0.0019,0.27274 -0.0043,0.54548 -0.0068,0.8182 -0.0022,0.26545 -0.0059,0.53088 -0.0077,0.79631 -0.0013,0.26477 -0.0027,0.52954 -0.0045,0.79429 -0.0019,0.26337 -0.0043,0.52672 -0.0068,0.79007 -0.0022,0.25666 -0.006,0.5133 -0.0077,0.76995 -0.0012,0.25124 -0.002,0.50248 -0.0032,0.75372 -0.0012,0.24854 -0.0031,0.49707 -0.0051,0.74561 -0.0023,0.24154 -0.0016,0.4831 -0.0015,0.72466 9.2e-5,0.235 -1.29e-4,0.47002 -6.5e-4,0.70503 -7.3e-4,0.22974 -0.0018,0.45947 -8.85e-4,0.68921 0.0011,0.2247 0.0022,0.44939 0.0029,0.67409 7.64e-4,0.23 -1.06e-4,0.45998 -0.0013,0.68998 -0.0023,0.23356 -0.0016,0.46712 -0.0013,0.7007 7.41e-4,0.23029 -3.04e-4,0.46057 6.28e-4,0.69086 0.0015,0.22552 0.0034,0.45104 0.0049,0.67655 0.0015,0.22554 0.0019,0.45109 0.0023,0.67664 3.09e-4,0.22178 2.67e-4,0.44357 5e-6,0.66536 -2.85e-4,0.21781 -10e-4,0.43562 -0.002,0.65342 -9.64e-4,0.21377 -0.0023,0.42753 -0.0039,0.64128 -0.0023,0.20877 -0.0029,0.41755 -0.0026,0.62633 4.55e-4,0.20272 6.69e-4,0.40545 8.13e-4,0.60817 7.9e-5,0.19741 -1.54e-4,0.39482 -5.27e-4,0.59223 -0.0013,0.19298 3.68e-4,0.38595 0.0018,0.57892 0.0014,0.19208 0.0022,0.38416 0.0028,0.57623 5.67e-4,0.19008 6.91e-4,0.38017 6.65e-4,0.57026 5.8e-5,0.18654 -4.56e-4,0.37308 -0.0011,0.55963 -6.73e-4,0.18366 -0.0017,0.3673 -0.0028,0.55095 -0.0011,0.17938 -0.0026,0.35876 -0.0041,0.53813 -0.0016,0.17541 -0.0034,0.35082 -0.0053,0.52624 -0.002,0.1733 -0.0044,0.3466 -0.0069,0.51989 -0.0024,0.16933 -0.0051,0.33865 -0.0079,0.50797 -0.0027,0.16571 -0.0058,0.3314 -0.0088,0.4971 -0.003,0.16336 -0.0064,0.32671 -0.01,0.49006 -0.0035,0.16168 -0.0074,0.32335 -0.01125,0.48503 -0.005,0.15934 -0.01181,0.3186 -0.01847,0.47787 -0.0066,0.15747 -0.01347,0.31494 -0.02033,0.4724 -0.0068,0.15593 -0.01388,0.31185 -0.02098,0.46777 -0.0071,0.15593 -0.01451,0.31183 -0.02191,0.46773 -0.0073,0.15396 -0.01478,0.30792 -0.02231,0.46187 -0.0074,0.15254 -0.01505,0.30509 -0.02279,0.45762 -0.0078,0.15282 -0.0157,0.30563 -0.02363,0.45845 -0.0082,0.15255 -0.01348,0.30524 -0.01928,0.45789 -0.0057,0.15124 -0.01161,0.30246 -0.01751,0.4537 -0.0058,0.14875 -0.01185,0.29748 -0.01792,0.44622 -0.006,0.14613 -0.01212,0.29225 -0.01829,0.43837 -0.0072,0.13968 -0.01449,0.27936 -0.02618,0.41874 -0.0022,0.0212 -0.0042,0.0424 -0.0064,0.0636 0,0 -9.535711,4.5303 -9.535711,4.5303 v 0 c 0.0022,-0.0212 0.0042,-0.0424 0.0064,-0.0636 0.01172,-0.13937 0.01898,-0.27905 0.02608,-0.41874 0.0062,-0.14611 0.01233,-0.29224 0.0183,-0.43837 0.0061,-0.14873 0.01211,-0.29748 0.01792,-0.44623 0.0059,-0.15122 0.01177,-0.30246 0.01751,-0.45368 0.0058,-0.15267 0.01105,-0.30535 0.01928,-0.4579 0.0079,-0.15281 0.0159,-0.30563 0.02363,-0.45846 0.0077,-0.15253 0.01535,-0.30507 0.02279,-0.45762 0.0075,-0.15395 0.01498,-0.3079 0.02231,-0.46186 0.0074,-0.1559 0.01478,-0.31181 0.02191,-0.46773 0.0071,-0.15592 0.0142,-0.31184 0.02098,-0.46777 0.0069,-0.15746 0.0137,-0.31494 0.02034,-0.47241 0.0067,-0.15927 0.01351,-0.31853 0.01847,-0.47787 0.0039,-0.16166 0.0077,-0.32335 0.01124,-0.48502 0.0036,-0.16336 0.007,-0.32671 0.01002,-0.49007 0.0031,-0.16569 0.0062,-0.33139 0.0088,-0.49709 0.0028,-0.16932 0.0055,-0.33864 0.0079,-0.50797 0.0025,-0.1733 0.0049,-0.3466 0.0069,-0.5199 0.002,-0.1754 0.0038,-0.35082 0.0053,-0.52624 0.0015,-0.17937 0.003,-0.35874 0.0041,-0.53812 0.0011,-0.18365 0.0021,-0.3673 0.0028,-0.55095 6.15e-4,-0.18655 0.0011,-0.3731 0.0011,-0.55964 1.6e-5,-0.19009 -9e-5,-0.38017 -6.66e-4,-0.57025 -6.17e-4,-0.19208 -0.0014,-0.38416 -0.0028,-0.57624 -0.0014,-0.19297 -0.003,-0.38594 -0.0018,-0.5789 3.93e-4,-0.19741 6.16e-4,-0.39483 5.28e-4,-0.59225 -1.34e-4,-0.20272 -3.49e-4,-0.40544 -8.04e-4,-0.60816 -2.59e-4,-0.20878 3.64e-4,-0.41756 0.0026,-0.62633 0.0015,-0.21376 0.0029,-0.42752 0.0039,-0.64127 9.97e-4,-0.21781 0.0018,-0.43562 0.002,-0.65343 2.52e-4,-0.22179 3.04e-4,-0.44357 -5e-6,-0.66537 -3.79e-4,-0.22554 -7.68e-4,-0.45109 -0.0023,-0.67663 -0.0015,-0.22551 -0.0035,-0.45103 -0.0049,-0.67654 -9.21e-4,-0.23029 1.15e-4,-0.46059 -6.26e-4,-0.69088 -3.38e-4,-0.23356 -9.65e-4,-0.46714 0.0013,-0.7007 0.0012,-0.22998 0.002,-0.45998 0.0013,-0.68998 -6.28e-4,-0.2247 -0.0017,-0.44939 -0.0029,-0.67409 -8.85e-4,-0.22974 1.56e-4,-0.45947 8.86e-4,-0.68921 5.21e-4,-0.23501 7.3e-4,-0.47001 6.49e-4,-0.70502 -9.7e-5,-0.24156 -7.96e-4,-0.48313 0.0015,-0.72467 0.002,-0.24854 0.0039,-0.49707 0.0051,-0.74561 0.0012,-0.25124 0.002,-0.50248 0.0032,-0.75372 0.0017,-0.25665 0.0055,-0.51329 0.0077,-0.76994 0.0026,-0.26336 0.0049,-0.52671 0.0068,-0.79006 0.0018,-0.26477 0.0032,-0.52953 0.0045,-0.79429 0.0018,-0.26545 0.0056,-0.53088 0.0077,-0.79632 0.0025,-0.27273 0.005,-0.54547 0.0068,-0.8182 0.0019,-0.27333 0.0033,-0.54666 0.0048,-0.81999 0.0026,-0.26805 0.005,-0.53611 0.0065,-0.80416 0.0016,-0.27147 0.003,-0.54295 0.0039,-0.81441 8.62e-4,-0.27564 0.0013,-0.55128 0.0026,-0.82691 0.0024,-0.27801 0.0044,-0.55602 0.006,-0.83404 0.0016,-0.28189 0.0028,-0.56379 0.0047,-0.84567 0.0029,-0.2771 0.0053,-0.55419 0.0066,-0.83129 0.0013,-0.26948 0.003,-0.53896 0.0062,-0.80842 0.0025,-0.26898 0.0048,-0.53797 0.0092,-0.80693 0.0034,-0.26127 0.0058,-0.52257 0.01072,-0.78382 0.0047,-0.26148 0.0092,-0.52294 0.0131,-0.78443 0.0039,-0.25739 0.0073,-0.51479 0.01294,-0.77216 0.0047,-0.25193 0.0089,-0.50388 0.0128,-0.75582 0.0039,-0.25476 0.0077,-0.50952 0.01069,-0.76429 0.003,-0.2526 0.0052,-0.5052 0.0097,-0.75778 0.0043,-0.25031 0.0083,-0.50062 0.01158,-0.75095 0.0032,-0.24371 0.0057,-0.48744 0.01089,-0.73113 0.0043,-0.24356 0.0084,-0.48712 0.01243,-0.73068 0.0042,-0.24345 0.01024,-0.48686 0.01559,-0.73029 0.0049,-0.2355 0.0093,-0.47101 0.01279,-0.70653 0.0036,-0.23406 0.0074,-0.46812 0.0084,-0.7022 -5.84e-4,-0.22063 -0.0029,-0.44122 -0.0092,-0.66175 -0.0052,-0.21293 -0.01077,-0.42585 -0.0177,-0.63873 -0.0069,-0.20704 -0.01407,-0.4141 -0.02717,-0.62086 -0.01168,-0.1934 -0.02504,-0.38671 -0.04533,-0.57943 -0.01966,-0.18503 -0.0401,-0.36998 -0.06238,-0.55471 -0.0217,-0.17704 -0.04496,-0.35391 -0.07563,-0.52967 -0.02777,-0.16225 -0.05703,-0.32423 -0.08881,-0.48575 -0.03056,-0.15648 -0.06061,-0.31309 -0.0926,-0.46929 -0.0304,-0.14247 -0.06239,-0.28459 -0.09599,-0.42634 -0.03299,-0.13698 -0.06673,-0.27379 -0.10215,-0.41017 -0.03527,-0.13576 -0.07123,-0.27138 -0.110467,-0.40608 -0.03859,-0.13247 -0.07793,-0.26471 -0.119716,-0.39621 -0.04122,-0.13005 -0.0835,-0.25977 -0.129327,-0.38827 -0.04403,-0.12167 -0.0902,-0.2426 -0.141629,-0.36137 -0.0508,-0.11621 -0.104388,-0.23119 -0.159692,-0.34532 -0.05531,-0.11313 -0.112386,-0.22546 -0.176316,-0.33403 -0.06131,-0.10303 -0.126196,-0.20405 -0.201709,-0.29743 -0.07345,-0.0905 -0.149683,-0.17859 -0.232377,-0.26079 -0.08153,-0.082 -0.164372,-0.16262 -0.252024,-0.23809 -0.08637,-0.0737 -0.175304,-0.14447 -0.270975,-0.20595 -0.09572,-0.0615 -0.194051,-0.11897 -0.297718,-0.16631 -0.106881,-0.0506 -0.215634,-0.0971 -0.325764,-0.14007 -0.111137,-0.0426 -0.222844,-0.0842 -0.337951,-0.11511 -0.116824,-0.0311 -0.234775,-0.0574 -0.353741,-0.079 -0.120821,-0.0229 -0.241982,-0.0443 -0.363829,-0.0611 -0.124544,-0.016 -0.249431,-0.029 -0.374598,-0.0391 -0.1276,-0.009 -0.255367,-0.0165 -0.383269,-0.0199 -0.130172,-0.003 -0.260408,-0.005 -0.390605,-0.002 -0.130787,0.003 -0.261638,0.006 -0.392245,0.014 -0.131457,0.008 -0.262744,0.0196 -0.393436,0.0363 -0.132467,0.0165 -0.264739,0.0348 -0.396285,0.0577 -0.131916,0.0227 -0.263687,0.0467 -0.393877,0.078 -0.126864,0.0298 -0.253076,0.0624 -0.377916,0.0999 -0.116923,0.0351 -0.233434,0.0715 -0.348728,0.11156 -0.113159,0.0392 -0.226139,0.079 -0.338555,0.12029 -0.109024,0.04 -0.217989,0.0803 -0.326161,0.12261 -0.102633,0.0388 -0.204828,0.0788 -0.306901,0.11899 -0.09731,0.0384 -0.194933,0.0761 -0.29225,0.11457 -0.08793,0.0351 -0.175982,0.0699 -0.264076,0.10455 -0.07506,0.0296 -0.150087,0.0594 -0.223909,0.0921 -0.06159,0.0264 -0.122888,0.0533 -0.184386,0.08 -0.04766,0.0206 -0.09578,0.0403 -0.14518,0.0563 0,0 9.535711,-4.5303 9.535711,-4.5303 z"
       inkscape:connector-curvature="0" />
    <path
       style="fill:#000000;stroke-width:0.25763333"
       id="path991"
       d="m 106.22457,169.97508 c -0.0227,0.0348 -0.0453,0.0697 -0.0676,0.10487 -0.0247,0.0397 -0.05,0.0791 -0.0762,0.11745 -0.03,0.043 -0.0593,0.0866 -0.0893,0.12967 -0.0335,0.0473 -0.0669,0.0948 -0.10136,0.14108 -0.0366,0.0496 -0.075,0.0968 -0.11333,0.14413 -0.0403,0.0513 -0.0814,0.10175 -0.12238,0.15232 -0.0429,0.0512 -0.0856,0.1025 -0.12874,0.15349 -0.046,0.0543 -0.0919,0.10861 -0.13766,0.16297 -0.0493,0.0584 -0.0979,0.1177 -0.14691,0.1764 -0.0495,0.0599 -0.0997,0.11869 -0.15027,0.1771 -0.0531,0.0618 -0.10674,0.12293 -0.16022,0.18422 -0.0554,0.0635 -0.11221,0.12507 -0.16951,0.18586 -0.06,0.0635 -0.12188,0.12442 -0.18369,0.18523 -0.0628,0.0628 -0.12789,0.12193 -0.19331,0.18032 -0.0664,0.0583 -0.13363,0.11533 -0.20213,0.16973 -2.68306,2.05792 -5.347373,4.17635 -8.151923,5.95499 -0.07128,0.0453 -0.144887,0.0846 -0.219657,0.11969 -0.07474,0.0356 -0.15179,0.0623 -0.228871,0.0882 -0.07821,0.0271 -0.157396,0.0491 -0.236976,0.0687 -0.08002,0.02 -0.160649,0.0354 -0.24131,0.0506 -0.08158,0.0157 -0.16366,0.0268 -0.245827,0.0361 -0.08349,0.01 -0.167172,0.0167 -0.250905,0.0223 -0.08305,0.006 -0.166219,0.009 -0.249381,0.0112 -0.08357,0.004 -0.167198,0.004 -0.250784,0.002 -0.08418,-0.002 -0.168218,-0.005 -0.252193,-0.0127 -0.08314,-0.006 -0.166108,-0.0168 -0.248993,-0.0275 -0.08209,-0.0112 -0.163902,-0.0254 -0.245385,-0.0425 -0.08348,-0.0172 -0.166341,-0.039 -0.248863,-0.0626 -0.08634,-0.0245 -0.172068,-0.0524 -0.257514,-0.0817 -0.08443,-0.0283 -0.168076,-0.0601 -0.251942,-0.0909 -0.08861,-0.0327 -0.17669,-0.0676 -0.264696,-0.10287 -0.09599,-0.0382 -0.191943,-0.0766 -0.287704,-0.11583 -0.09933,-0.0396 -0.198059,-0.0816 -0.296972,-0.12268 -0.09985,-0.0425 -0.199735,-0.0846 -0.299123,-0.12871 -0.09935,-0.0436 -0.198488,-0.0882 -0.297227,-0.13393 -0.100961,-0.0478 -0.201412,-0.0973 -0.301715,-0.14728 -0.100509,-0.0496 -0.200303,-0.10151 -0.300593,-0.15174 -0.100928,-0.0517 -0.201956,-0.10325 -0.302997,-0.15462 -0.105308,-0.0534 -0.211498,-0.104 -0.318005,-0.15349 -0.107828,-0.0499 -0.216207,-0.098 -0.324805,-0.14527 -0.108835,-0.0482 -0.218678,-0.0925 -0.329171,-0.13424 -0.116428,-0.0447 -0.234573,-0.0814 -0.352808,-0.11745 -0.121323,-0.0375 -0.243514,-0.0701 -0.365703,-0.10263 -0.120362,-0.0319 -0.240929,-0.0626 -0.361549,-0.0929 -0.119712,-0.031 -0.240114,-0.0573 -0.360539,-0.0836 -0.119186,-0.0262 -0.238992,-0.0477 -0.358727,-0.0694 -0.122557,-0.0223 -0.245782,-0.0372 -0.369148,-0.0501 -0.131795,-0.0125 -0.263872,-0.0193 -0.39596,-0.0242 -0.135059,-0.005 -0.270139,-0.007 -0.405214,-0.01 -0.133899,-0.002 -0.267809,-0.002 -0.401715,-0.002 -0.140555,-0.002 -0.28105,0.004 -0.42149,0.01 -0.153817,0.007 -0.3074,0.0212 -0.460913,0.0355 -0.161265,0.0151 -0.322331,0.0334 -0.483435,0.0509 -0.159184,0.0164 -0.318227,0.0349 -0.477219,0.0542 -0.16066,0.0194 -0.321395,0.0379 -0.482004,0.058 -0.165426,0.0206 -0.330882,0.0406 -0.496194,0.0627 -0.164283,0.0219 -0.32857,0.0438 -0.492723,0.0674 -0.164747,0.0248 -0.32932,0.0513 -0.493608,0.0806 -0.165868,0.0293 -0.331139,0.0635 -0.496361,0.098 -0.163089,0.0341 -0.325956,0.07 -0.488612,0.10736 -0.159826,0.0369 -0.319136,0.0771 -0.478286,0.11819 -0.15811,0.0415 -0.315522,0.0869 -0.472676,0.13384 -0.155797,0.0466 -0.310603,0.0981 -0.4652,0.15081 -0.15482,0.0522 -0.309028,0.10711 -0.462957,0.16331 -0.156039,0.0568 -0.311417,0.11645 -0.466729,0.1764 -0.15551,0.0604 -0.310065,0.12456 -0.46457,0.18892 -0.160514,0.0668 -0.319567,0.13882 -0.478301,0.21198 -0.167735,0.0772 -0.334208,0.15878 -0.50065,0.24039 -0.165131,0.0818 -0.330156,0.16401 -0.494883,0.24715 -0.16185,0.0816 -0.323172,0.16472 -0.484359,0.24832 -0.161732,0.0836 -0.322558,0.17007 -0.482798,0.2582 -0.160016,0.0878 -0.31961,0.17687 -0.479112,0.26617 -0.160704,0.0903 -0.320976,0.18186 -0.480379,0.27578 -0.16624,0.0985 -0.331116,0.20066 -0.495885,0.30306 -0.165976,0.10263 -0.331129,0.2072 -0.495612,0.31351 -0.163198,0.10562 -0.325937,0.2125 -0.48828,0.32026 -0.16557,0.11097 -0.3305,0.22344 -0.495362,0.33607 -0.165536,0.11346 -0.330211,0.22884 -0.495349,0.34318 -0.16143,0.11259 -0.323043,0.22489 -0.484891,0.33657 -0.158953,0.10985 -0.317524,0.22071 -0.476647,0.33023 -0.127318,0.0876 -0.254364,0.17566 -0.383058,0.25992 0,0 7.909384,-5.78536 7.909384,-5.78536 v 0 c 0.128694,-0.0843 0.255741,-0.17239 0.383058,-0.25991 0.159122,-0.10948 0.317693,-0.22033 0.476646,-0.33025 0.161849,-0.11172 0.323461,-0.22391 0.484891,-0.33656 0.165138,-0.11433 0.329813,-0.22976 0.495351,-0.34318 0.164864,-0.11259 0.32979,-0.2251 0.495361,-0.33606 0.162343,-0.10773 0.325082,-0.2146 0.488278,-0.32027 0.164486,-0.10637 0.329637,-0.21097 0.495612,-0.3135 0.16477,-0.10238 0.329646,-0.20453 0.495888,-0.30307 0.159401,-0.0939 0.319673,-0.18549 0.480377,-0.27577 0.159502,-0.0893 0.319096,-0.17836 0.479111,-0.26617 0.160243,-0.0882 0.321068,-0.17454 0.4828,-0.25821 0.161189,-0.0836 0.322511,-0.1668 0.48436,-0.24831 0.164725,-0.0832 0.329753,-0.16531 0.494882,-0.24717 0.166442,-0.0817 0.332916,-0.1631 0.50065,-0.24038 0.158733,-0.0731 0.317787,-0.14528 0.478302,-0.21198 0.154505,-0.0643 0.309061,-0.12854 0.464569,-0.18892 0.155311,-0.0599 0.31069,-0.11956 0.466728,-0.17639 0.153929,-0.0562 0.308139,-0.11122 0.46296,-0.16331 0.154595,-0.0526 0.3094,-0.10424 0.465196,-0.15082 0.157154,-0.047 0.314567,-0.0924 0.472678,-0.13383 0.15915,-0.0412 0.318461,-0.0814 0.478286,-0.11819 0.162656,-0.0372 0.325523,-0.0732 0.488612,-0.10724 0.16522,-0.0345 0.330496,-0.0689 0.496364,-0.098 0.164288,-0.0293 0.328858,-0.0558 0.493607,-0.0806 0.164153,-0.0234 0.328436,-0.0453 0.492721,-0.0674 0.165314,-0.022 0.330767,-0.0422 0.496193,-0.0626 0.160611,-0.02 0.321345,-0.0385 0.482006,-0.0579 0.158991,-0.0192 0.318033,-0.0376 0.477219,-0.0542 0.161105,-0.0176 0.322165,-0.0359 0.483437,-0.0509 0.153512,-0.0143 0.307093,-0.0276 0.460907,-0.0355 0.14044,-0.006 0.280941,-0.0112 0.421493,-0.01 0.133909,2.9e-4 0.267817,2.9e-4 0.401717,0.002 0.135077,0.004 0.270153,0.006 0.405212,0.01 0.132092,0.005 0.264167,0.0112 0.395956,0.0242 0.123371,0.0127 0.246596,0.0278 0.369155,0.0501 0.119729,0.0217 0.239536,0.0432 0.358721,0.0694 0.12043,0.026 0.240826,0.0524 0.360539,0.0834 0.12062,0.0304 0.241189,0.061 0.36155,0.0929 0.122196,0.0325 0.244382,0.0653 0.365704,0.10275 0.118235,0.0361 0.236379,0.0727 0.3528,0.11745 0.110498,0.0416 0.220343,0.0861 0.329186,0.13425 0.108589,0.0472 0.216973,0.0953 0.324793,0.14527 0.106524,0.0494 0.212707,0.10001 0.318023,0.15348 0.10103,0.0514 0.20206,0.10287 0.302983,0.15465 0.10029,0.0503 0.200093,0.10212 0.300597,0.15172 0.100302,0.0499 0.200752,0.0994 0.301722,0.14728 0.0987,0.0458 0.19788,0.0903 0.29723,0.13393 0.0994,0.0441 0.19927,0.0863 0.29912,0.12871 0.0989,0.0412 0.19764,0.0831 0.29698,0.12268 0.0958,0.0391 0.191713,0.0776 0.287693,0.11583 0.0881,0.0351 0.17609,0.0701 0.2647,0.10287 0.0839,0.0308 0.1675,0.0626 0.25193,0.0909 0.0854,0.0292 0.17118,0.0572 0.25753,0.0817 0.0825,0.0234 0.16535,0.0453 0.24886,0.0626 0.0815,0.0169 0.16329,0.0311 0.24539,0.0425 0.0829,0.0112 0.16583,0.0207 0.24898,0.0275 0.084,0.006 0.16806,0.0112 0.25219,0.0127 0.0836,0.002 0.16722,0.001 0.25079,-0.002 0.0832,-0.002 0.16635,-0.005 0.24939,-0.0112 0.0838,-0.005 0.1674,-0.0125 0.2509,-0.0224 0.0822,-0.009 0.16424,-0.0206 0.24583,-0.036 0.0807,-0.0151 0.16131,-0.0304 0.24131,-0.0504 0.0796,-0.0197 0.15877,-0.0416 0.23698,-0.0687 0.077,-0.026 0.15414,-0.0526 0.22887,-0.0882 0.0747,-0.0351 0.14835,-0.0744 0.21966,-0.11969 2.97906,-1.88933 -10.440093,7.73727 -7.666872,5.61572 0.06852,-0.0543 0.135672,-0.11147 0.20212,-0.16975 0.0654,-0.0584 0.130475,-0.11745 0.193316,-0.1803 0.06176,-0.0608 0.123631,-0.12169 0.183703,-0.18523 0.05727,-0.0608 0.114038,-0.12243 0.169511,-0.18586 0.05348,-0.0613 0.10706,-0.12243 0.160205,-0.18422 0.05055,-0.0584 0.100835,-0.1172 0.150288,-0.1771 0.049,-0.0588 0.09763,-0.11795 0.14689,-0.1764 0.04588,-0.0543 0.09176,-0.10873 0.137665,-0.16297 0.04305,-0.0509 0.08581,-0.10238 0.128742,-0.15349 0.04091,-0.0506 0.08202,-0.10101 0.122382,-0.15233 0.03828,-0.0473 0.07676,-0.0945 0.113323,-0.14412 0.03438,-0.0462 0.06789,-0.0937 0.101361,-0.14108 0.0299,-0.0431 0.05922,-0.0867 0.08932,-0.12967 0.02611,-0.0384 0.05133,-0.0777 0.07617,-0.11745 0.02231,-0.0351 0.04481,-0.0701 0.0676,-0.10487 0,0 7.909386,-5.78535 7.909386,-5.78535 z"
       inkscape:connector-curvature="0" />
  </g>
  <g
     inkscape:groupmode="layer"
     id="layer2"
     inkscape:label="Layer 2">
    <path
       style="fill:#000000;stroke-width:0.08101432"
       id="path981-2"
       d="m 31.66949,15.85241 c 0.0179,-0.0104 0.03607,-0.02043 0.0538,-0.03121 0.02603,-0.016 0.05103,-0.03356 0.07588,-0.05131 0.03437,-0.02487 0.06904,-0.04927 0.104245,-0.07295 0.04196,-0.02799 0.08445,-0.0552 0.126977,-0.08233 0.04599,-0.02879 0.09216,-0.05727 0.138581,-0.08535 0.05139,-0.03102 0.103375,-0.06104 0.155483,-0.09086 0.05416,-0.0312 0.108869,-0.06141 0.163558,-0.09164 0.0565,-0.0311 0.113124,-0.06202 0.170063,-0.09232 0.05912,-0.03148 0.118337,-0.06279 0.177661,-0.09387 0.05867,-0.03123 0.11762,-0.06193 0.176549,-0.09268 0.05891,-0.03066 0.117986,-0.06099 0.17693,-0.09159 0.05861,-0.03009 0.117087,-0.06052 0.175578,-0.09087 0.05769,-0.02961 0.115162,-0.05961 0.172565,-0.08977 0.05742,-0.02985 0.1146,-0.06016 0.171852,-0.09033 0.05636,-0.03012 0.112928,-0.05982 0.169278,-0.08997 0.05576,-0.02988 0.111495,-0.05983 0.167171,-0.08986 0.05498,-0.02964 0.109697,-0.05972 0.164567,-0.08955 0.05454,-0.02967 0.108895,-0.05968 0.163431,-0.08936 0.0538,-0.02924 0.107476,-0.05871 0.161217,-0.08808 0.05286,-0.02905 0.105679,-0.05824 0.158596,-0.0872 0.05177,-0.0283 0.103361,-0.05692 0.155085,-0.08531 0.05061,-0.02778 0.101098,-0.05576 0.151636,-0.08365 0.0493,-0.02718 0.0984,-0.0547 0.147649,-0.08196 0.04784,-0.02673 0.09551,-0.05376 0.143006,-0.08111 0.04767,-0.02722 0.09528,-0.05453 0.142785,-0.08204 0.04817,-0.02813 0.09643,-0.05612 0.144671,-0.08417 0.04868,-0.0283 0.09781,-0.05575 0.14703,-0.08308 0.04889,-0.02725 0.09831,-0.05355 0.147986,-0.07933 0.04871,-0.02551 0.09821,-0.04951 0.147867,-0.07313 1.0665,-0.16586 2.029792,-1.016289 3.07131,-1.454163 0.05117,-0.02182 0.103036,-0.04189 0.155308,-0.06087 0.05159,-0.01892 0.10402,-0.0354 0.156758,-0.05082 0.05141,-0.01495 0.103416,-0.02759 0.155678,-0.03916 0.05033,-0.01124 0.101098,-0.02036 0.152038,-0.02824 0.049,-0.0076 0.09843,-0.01152 0.147872,-0.01464 0.04738,-0.0034 0.09483,-0.0031 0.142259,-9.6e-4 0.04582,0.0018 0.09128,0.0083 0.136376,0.01622 0.04333,0.0079 0.08582,0.01963 0.127525,0.03368 0.04043,0.01391 0.07836,0.03348 0.114726,0.0557 0.03539,0.02225 0.0688,0.04743 0.101562,0.07334 0.03289,0.02615 0.06401,0.05436 0.09446,0.08326 0.03059,0.02973 0.06081,0.05982 0.09082,0.09014 0.03233,0.03289 0.06389,0.06651 0.09468,0.100817 0.03415,0.03829 0.06654,0.07811 0.09863,0.118141 0.03375,0.04231 0.06554,0.08606 0.09691,0.130124 0.03258,0.0462 0.06336,0.09361 0.09361,0.141352 0.0312,0.04994 0.06116,0.100634 0.09058,0.151637 0.03033,0.05279 0.0608,0.10551 0.0909,0.15843 0.03128,0.05552 0.06231,0.111199 0.09306,0.167025 0.03169,0.05859 0.06522,0.116145 0.09877,0.173685 0.03439,0.05888 0.06855,0.1179 0.103024,0.176721 0.03453,0.05875 0.06925,0.11741 0.103881,0.176111 0.03437,0.05848 0.06914,0.116721 0.104272,0.174748 0.03478,0.05779 0.06976,0.115471 0.104893,0.173042 0.03573,0.05817 0.07122,0.116511 0.106366,0.175024 0.03531,0.05854 0.07065,0.117073 0.105763,0.175741 0.03478,0.05791 0.06965,0.115751 0.104947,0.173344 0.03554,0.0574 0.07072,0.115035 0.106072,0.172569 0.03484,0.05692 0.06955,0.113954 0.104372,0.170881 0.03409,0.05558 0.0678,0.111369 0.101408,0.167239 0.03379,0.05615 0.06647,0.112941 0.09927,0.16967 0.03251,0.05653 0.06507,0.113039 0.09734,0.169714 0.03166,0.05593 0.06312,0.111959 0.09412,0.168255 0.03061,0.05506 0.06095,0.110274 0.09101,0.165621 0.0296,0.05402 0.05867,0.10832 0.08792,0.162526 0.02861,0.05293 0.05717,0.105847 0.08569,0.158803 0.0278,0.05212 0.05531,0.1044 0.0828,0.156689 0.02725,0.05172 0.05457,0.103389 0.08181,0.155103 0.02656,0.05101 0.05321,0.101969 0.07993,0.152884 0.0263,0.05021 0.05293,0.100242 0.07972,0.150184 0.02662,0.04964 0.05383,0.09894 0.08136,0.148064 0.02697,0.04812 0.05385,0.09629 0.08055,0.14457 0.02658,0.04766 0.05195,0.09594 0.07696,0.144432 0.0249,0.04845 0.04861,0.0975 0.07138,0.146986 0.02281,0.04931 0.04307,0.09972 0.06218,0.150578 0.01889,0.0516 0.0343,0.104372 0.04885,0.157341 0.01423,0.05247 0.02664,0.105399 0.03807,0.158537 0.01138,0.05135 0.01986,0.103262 0.02695,0.155368 0.0067,0.05046 0.0085,0.101337 0.0081,0.152184 -6.44e-4,0.05019 -0.0059,0.100131 -0.01363,0.149687 -0.0076,0.05074 -0.02121,0.100212 -0.03633,0.149173 -0.01614,0.0515 -0.03727,0.101197 -0.05972,0.15021 -0.02416,0.05181 -0.05212,0.101674 -0.08151,0.150643 -0.03148,0.05148 -0.06652,0.100607 -0.102461,0.149037 -0.03779,0.05061 -0.0781,0.09927 -0.118731,0.147622 -0.0413,0.04925 -0.08505,0.09635 -0.129491,0.142775 -0.04543,0.04747 -0.09334,0.09246 -0.142041,0.136558 -0.04963,0.04491 -0.100507,0.08841 -0.151975,0.131179 -0.05215,0.043 -0.105636,0.08432 -0.159224,0.125515 -0.05352,0.04097 -0.107758,0.08095 -0.162505,0.120234 -0.05447,0.03916 -0.109078,0.07817 -0.163713,0.117114 -0.05485,0.0389 -0.11016,0.07715 -0.165526,0.115288 -0.05636,0.03849 -0.112817,0.07687 -0.169573,0.114782 -0.05617,0.03782 -0.11266,0.07516 -0.169179,0.112464 -0.05659,0.03745 -0.113518,0.0744 -0.170655,0.111045 -0.05904,0.03797 -0.118828,0.07475 -0.178834,0.111172 -0.06137,0.03692 -0.122917,0.07355 -0.18463,0.109922 -0.0641,0.03758 -0.12841,0.07477 -0.19271,0.111973 -0.07011,0.04022 -0.140338,0.08021 -0.210713,0.11998 -0.07189,0.04025 -0.143678,0.0807 -0.215631,0.120838 -0.07184,0.04008 -0.143806,0.07997 -0.21592,0.119572 -0.07292,0.04007 -0.145914,0.07999 -0.218794,0.120136 -0.07196,0.03944 -0.143775,0.07913 -0.215676,0.118688 -0.0725,0.03977 -0.145293,0.07897 -0.218113,0.11814 -0.07523,0.04069 -0.150621,0.08108 -0.226227,0.121063 -0.07566,0.04034 -0.151604,0.08013 -0.227304,0.120386 -0.07443,0.03955 -0.148907,0.07898 -0.22337,0.118464 -0.07397,0.03944 -0.147948,0.07887 -0.221815,0.118491 -0.07292,0.03904 -0.145701,0.07832 -0.218613,0.117368 -0.07212,0.03842 -0.14407,0.07715 -0.216246,0.115443 -0.07095,0.03786 -0.141992,0.07553 -0.212876,0.113503 -0.07103,0.03768 -0.141687,0.07604 -0.212547,0.114024 -0.07173,0.03873 -0.143722,0.07694 -0.215625,0.115331 -0.07171,0.03794 -0.143047,0.07658 -0.214264,0.115443 -0.07247,0.03958 -0.144984,0.07917 -0.217474,0.118771 -0.07184,0.03941 -0.143687,0.0788 -0.21545,0.118351 -0.07307,0.04028 -0.146386,0.08011 -0.219939,0.119489 -0.07328,0.03911 -0.146661,0.07802 -0.219973,0.117058 -0.07232,0.03846 -0.14458,0.07703 -0.216512,0.11623 -0.07152,0.03916 -0.142819,0.0787 -0.214512,0.11755 -0.05674,0.0305 -0.113377,0.06118 -0.169779,0.0923 0,0 -2.919796,1.387157 -2.919796,1.387157 v 0 c 0.05642,-0.0311 0.11304,-0.06182 0.169782,-0.0923 0.0717,-0.03884 0.142991,-0.07839 0.214512,-0.117551 0.07193,-0.0392 0.144179,-0.07779 0.21651,-0.116228 0.07331,-0.03905 0.146699,-0.07794 0.219974,-0.117059 0.07355,-0.0394 0.146867,-0.07923 0.219936,-0.119489 0.07177,-0.03955 0.143613,-0.07895 0.215457,-0.11835 0.07247,-0.03961 0.144984,-0.07917 0.217467,-0.118773 0.07122,-0.03886 0.142557,-0.07749 0.214268,-0.115442 0.07191,-0.03838 0.143894,-0.07661 0.21562,-0.115317 0.07086,-0.038 0.14152,-0.07636 0.212552,-0.114037 0.07089,-0.03797 0.141928,-0.07564 0.212877,-0.113504 0.07218,-0.03832 0.144125,-0.07703 0.216239,-0.115443 0.07292,-0.03904 0.145703,-0.07831 0.218615,-0.117367 0.07387,-0.03964 0.147846,-0.07905 0.221817,-0.118491 0.07446,-0.03948 0.148942,-0.07892 0.223372,-0.118464 0.07569,-0.04027 0.151645,-0.08005 0.227302,-0.120387 0.07561,-0.03998 0.150991,-0.08038 0.226226,-0.121063 0.07281,-0.03917 0.145627,-0.07836 0.218113,-0.11814 0.07191,-0.03955 0.143717,-0.07925 0.215678,-0.118688 0.07288,-0.04014 0.145872,-0.08007 0.218792,-0.120135 0.07212,-0.03961 0.144074,-0.07949 0.21592,-0.119574 0.07196,-0.04014 0.143741,-0.08059 0.215634,-0.120836 0.07037,-0.03976 0.140607,-0.07976 0.210714,-0.119982 0.06431,-0.0372 0.128621,-0.07439 0.192707,-0.111987 0.06171,-0.03634 0.123254,-0.073 0.184632,-0.10992 0.06001,-0.0364 0.119797,-0.0732 0.178831,-0.111172 0.05712,-0.03663 0.114066,-0.07359 0.17066,-0.111031 0.0565,-0.03731 0.112997,-0.07466 0.169175,-0.112478 0.05674,-0.03793 0.113209,-0.07629 0.169569,-0.114783 0.05537,-0.03815 0.11068,-0.0764 0.165527,-0.115287 0.05463,-0.03895 0.109233,-0.07794 0.163716,-0.117116 0.05475,-0.03929 0.108995,-0.07927 0.162508,-0.120232 0.05359,-0.04119 0.107069,-0.08252 0.159225,-0.125517 0.05148,-0.04277 0.102348,-0.08626 0.151973,-0.131177 0.04869,-0.0441 0.0966,-0.08908 0.142042,-0.136559 0.04444,-0.04642 0.08819,-0.09352 0.129492,-0.142775 0.04064,-0.04835 0.08094,-0.09699 0.118731,-0.147622 0.03594,-0.04843 0.07099,-0.09754 0.10246,-0.149034 0.02942,-0.04896 0.05738,-0.09882 0.08151,-0.150643 0.02241,-0.04902 0.04358,-0.09871 0.05972,-0.15021 0.0151,-0.04896 0.02864,-0.09843 0.03633,-0.149172 0.0076,-0.04957 0.01292,-0.0995 0.01363,-0.14969 2.43e-4,-0.05085 -0.0015,-0.101718 -0.0081,-0.152182 -0.007,-0.05211 -0.01555,-0.10402 -0.02695,-0.15537 -0.01138,-0.05314 -0.02386,-0.106072 -0.03807,-0.158537 -0.01451,-0.05296 -0.02995,-0.105735 -0.04885,-0.157339 -0.01908,-0.05085 -0.03937,-0.101267 -0.06218,-0.150581 -0.02279,-0.04949 -0.04648,-0.09854 -0.07138,-0.146986 -0.02502,-0.04848 -0.05038,-0.09678 -0.07696,-0.144429 -0.02669,-0.04828 -0.05359,-0.09645 -0.08055,-0.144571 -0.02752,-0.04915 -0.05477,-0.09843 -0.08136,-0.148067 -0.02679,-0.04994 -0.05343,-0.09997 -0.07972,-0.150179 -0.02673,-0.05092 -0.05339,-0.101872 -0.07993,-0.152887 -0.02722,-0.05171 -0.05456,-0.103389 -0.08181,-0.155104 -0.02746,-0.05229 -0.05499,-0.104569 -0.0828,-0.156686 -0.02851,-0.05296 -0.0571,-0.105889 -0.08568,-0.158802 -0.02924,-0.05421 -0.05832,-0.108516 -0.08792,-0.162526 -0.03006,-0.05535 -0.0604,-0.110568 -0.091,-0.165624 -0.03101,-0.05629 -0.06246,-0.112324 -0.09413,-0.168252 -0.03229,-0.05667 -0.06484,-0.113182 -0.09734,-0.169719 -0.03282,-0.05671 -0.06549,-0.113517 -0.09927,-0.169668 -0.03361,-0.05586 -0.06733,-0.111664 -0.101409,-0.16724 -0.03484,-0.05692 -0.06954,-0.113952 -0.104371,-0.17088 -0.03534,-0.05753 -0.07054,-0.115162 -0.106071,-0.17257 -0.03531,-0.05759 -0.07018,-0.115429 -0.104963,-0.17334 -0.03511,-0.05867 -0.07044,-0.1172 -0.105763,-0.175744 -0.03517,-0.05852 -0.07062,-0.116863 -0.10638,-0.175022 -0.03513,-0.05758 -0.07011,-0.11526 -0.104892,-0.173044 -0.03513,-0.05803 -0.06991,-0.116257 -0.104259,-0.174749 -0.03463,-0.0587 -0.06935,-0.117354 -0.10388,-0.176112 -0.03448,-0.05882 -0.06862,-0.117844 -0.103024,-0.176721 -0.03355,-0.05754 -0.06707,-0.115091 -0.09877,-0.173683 -0.03075,-0.05582 -0.06177,-0.111495 -0.09306,-0.167023 -0.03009,-0.05293 -0.06059,-0.105636 -0.0909,-0.158433 -0.02942,-0.051 -0.05939,-0.101702 -0.09058,-0.151634 -0.03025,-0.04774 -0.06102,-0.09517 -0.09361,-0.141352 -0.03135,-0.04407 -0.06316,-0.08784 -0.09691,-0.130125 -0.03209,-0.04003 -0.06445,-0.07986 -0.09863,-0.11814 -0.03081,-0.0343 -0.06235,-0.06794 -0.09468,-0.100832 -0.03001,-0.03027 -0.06023,-0.06041 -0.09082,-0.09012 -0.03043,-0.02894 -0.06157,-0.05712 -0.09447,-0.08326 -0.03278,-0.02591 -0.06617,-0.05109 -0.101575,-0.07334 -0.03638,-0.0222 -0.07428,-0.04185 -0.114712,-0.0557 -0.04171,-0.01405 -0.08418,-0.02584 -0.127526,-0.0337 -0.04512,-0.008 -0.09057,-0.01428 -0.136376,-0.01622 -0.04743,-0.0018 -0.09488,-0.0024 -0.142263,9.6e-4 -0.04944,0.0031 -0.09888,0.007 -0.147867,0.01464 -0.05095,0.0079 -0.101716,0.01695 -0.152042,0.02823 -0.05225,0.01166 -0.104273,0.02422 -0.155675,0.03918 -0.05273,0.01543 -0.105172,0.03188 -0.15676,0.05082 -0.05227,0.01898 -0.104147,0.03907 -0.15531,0.06088 -1.025278,0.431044 -2.047141,1.256095 2.768282,-1.320161 -0.04965,0.02364 -0.09915,0.0476 -0.147863,0.07313 -0.04967,0.02578 -0.09909,0.05209 -0.147987,0.07933 -0.04921,0.02731 -0.09836,0.05478 -0.147032,0.08308 -0.04823,0.02805 -0.0965,0.05602 -0.144673,0.08417 -0.0475,0.02752 -0.09512,0.05484 -0.14278,0.08203 -0.0475,0.02734 -0.09517,0.05437 -0.143011,0.08111 -0.04924,0.02729 -0.09835,0.05478 -0.147646,0.08196 -0.05054,0.02789 -0.101028,0.05589 -0.151635,0.08364 -0.05173,0.02838 -0.103318,0.05702 -0.155085,0.08531 -0.05293,0.02897 -0.105721,0.05814 -0.158598,0.0872 -0.05374,0.02936 -0.10742,0.05882 -0.161218,0.08808 -0.05454,0.0297 -0.108896,0.05969 -0.163432,0.08936 -0.05485,0.02983 -0.109583,0.05992 -0.164562,0.08955 -0.05568,0.03004 -0.111409,0.05997 -0.167173,0.08985 -0.05633,0.03016 -0.112927,0.05985 -0.169278,0.08997 -0.05725,0.03016 -0.114431,0.06048 -0.171853,0.09033 -0.0574,0.03016 -0.11488,0.06016 -0.172565,0.08977 -0.05849,0.03034 -0.11696,0.06076 -0.175578,0.09087 -0.05894,0.03059 -0.118014,0.06094 -0.176931,0.09159 -0.05892,0.03075 -0.117873,0.06144 -0.176548,0.09268 -0.05933,0.03107 -0.118547,0.06238 -0.177662,0.09387 -0.05695,0.03032 -0.11356,0.06122 -0.17006,0.09233 -0.0547,0.03026 -0.109402,0.06046 -0.163558,0.09164 -0.05212,0.0298 -0.104091,0.05983 -0.155482,0.09086 -0.04642,0.02809 -0.0926,0.05656 -0.138583,0.08535 -0.04254,0.02713 -0.08501,0.05434 -0.126977,0.08234 -0.03519,0.0237 -0.06987,0.04809 -0.104245,0.07296 -0.02485,0.01776 -0.04984,0.03532 -0.07587,0.05131 -0.01772,0.01082 -0.03588,0.02073 -0.0538,0.03121 0,0 -2.919794,1.38716 -2.919794,1.38716 z"
       inkscape:connector-curvature="0" />
    <path
       style="fill:#000000;stroke-width:0.08101432"
       id="path983-6"
       d="m 38.717916,21.788054 c 0.0038,0.0086 0.0077,0.017 0.01223,0.02521 0.0046,0.0088 0.0099,0.01717 0.01519,0.02565 0.0063,0.01011 0.01292,0.01997 0.01942,0.02988 0.0085,0.01264 0.01703,0.02525 0.0256,0.03782 0.0098,0.01451 0.01978,0.02903 0.02931,0.04379 0.01068,0.0169 0.02043,0.03438 0.03019,0.05181 0.0111,0.01952 0.0222,0.03906 0.03351,0.05848 0.01209,0.02094 0.02394,0.04207 0.03526,0.06348 0.01278,0.0242 0.02521,0.04857 0.03747,0.07302 0.01349,0.02692 0.02716,0.0538 0.04095,0.08057 0.01449,0.02796 0.02834,0.05623 0.04252,0.08433 0.01498,0.02964 0.0297,0.05941 0.04428,0.08927 0.01532,0.03142 0.03047,0.06288 0.0454,0.09447 0.01555,0.03248 0.03066,0.06518 0.04588,0.0978 0.01534,0.03317 0.03055,0.0664 0.04567,0.09966 0.01555,0.0333 0.03081,0.06671 0.04628,0.100042 0.01555,0.03355 0.03116,0.06705 0.0469,0.100523 0.01594,0.03438 0.03211,0.06866 0.04801,0.103065 0.01566,0.03443 0.03174,0.06866 0.04732,0.103121 0.01589,0.0354 0.03222,0.07062 0.04872,0.105749 0.01718,0.03598 0.034,0.07211 0.05092,0.108179 0.01706,0.03691 0.03482,0.07349 0.0525,0.110104 0.01874,0.03814 0.03734,0.07633 0.05649,0.114277 0.01969,0.03903 0.03966,0.07792 0.05959,0.116833 0.01984,0.03857 0.03948,0.07729 0.05925,0.115907 0.02002,0.03863 0.04032,0.07712 0.06066,0.115611 0.02107,0.03969 0.04261,0.07911 0.06407,0.118576 0.02202,0.04053 0.04437,0.08092 0.06679,0.121244 0.02224,0.04008 0.04491,0.07992 0.06739,0.119854 0.02287,0.04074 0.0456,0.08157 0.06816,0.122467 0.02287,0.04074 0.04522,0.08178 0.0678,0.122664 0.02336,0.04243 0.04657,0.08494 0.06893,0.127905 0.02428,0.04677 0.0484,0.09361 0.07205,0.140703 0.02469,0.04858 0.04897,0.09733 0.07335,0.146046 0.02407,0.04809 0.04759,0.09643 0.07143,0.14465 0.0237,0.04788 0.04711,0.09591 0.07051,0.143934 0.0242,0.04995 0.04773,0.100211 0.07159,0.150311 0.02407,0.05047 0.04829,0.100888 0.07272,0.151188 0.02456,0.05086 0.04904,0.101716 0.07332,0.152693 0.02367,0.05019 0.04774,0.100202 0.07124,0.150464 0.02375,0.0505 0.04758,0.100972 0.07118,0.151544 0.02416,0.05132 0.04794,0.102812 0.07193,0.154208 0.02349,0.05087 0.04693,0.101744 0.07037,0.152627 0.02342,0.05008 0.04661,0.100283 0.06985,0.150444 0.02297,0.04959 0.04637,0.09899 0.0696,0.148468 0.02379,0.05044 0.04731,0.100999 0.07093,0.151502 0.02422,0.0512 0.04809,0.102575 0.07177,0.154028 0.02409,0.05139 0.04767,0.103037 0.07135,0.154613 0.02357,0.05167 0.0475,0.103205 0.07102,0.154914 0.02409,0.0531 0.04861,0.106029 0.07302,0.158982 0.02428,0.05263 0.04952,0.10482 0.07562,0.156576 0.02685,0.05268 0.05628,0.103964 0.08757,0.154109 0.03342,0.05285 0.07002,0.103529 0.10773,0.15337 0.04021,0.0527 0.08353,0.102882 0.128044,0.151944 0.04614,0.05035 0.09606,0.09701 0.146581,0.142894 0.05082,0.04634 0.105679,0.08785 0.16179,0.127497 0.05817,0.04097 0.119671,0.07673 0.181762,0.111313 0.06286,0.03499 0.127735,0.06607 0.193404,0.09538 0.06594,0.02908 0.133946,0.053 0.202576,0.07481 0.06883,0.02165 0.138863,0.03897 0.209424,0.05396 0.07095,0.0147 0.142586,0.02554 0.214456,0.0345 0.07289,0.0088 0.146237,0.01236 0.219585,0.01414 0.07485,0.0012 0.149664,-9.6e-4 0.224405,-0.0043 0.07684,-0.0038 0.153289,-0.01251 0.229524,-0.02259 0.08041,-0.01096 0.160083,-0.02633 0.239487,-0.04291 0.08255,-0.01765 0.164517,-0.03794 0.24624,-0.05908 0.08168,-0.02098 0.162497,-0.04505 0.242693,-0.0711 0.08,-0.02643 0.159219,-0.05512 0.238412,-0.08384 0.07759,-0.02801 0.155274,-0.05576 0.232544,-0.08465 0.0753,-0.02851 0.150162,-0.05817 0.225036,-0.08778 0.03617,-0.01443 0.07225,-0.02905 0.10832,-0.04368 0,0 -2.919798,1.387157 -2.919798,1.387157 v 0 c -0.03608,0.01461 -0.07216,0.02928 -0.10832,0.04371 -0.07487,0.0296 -0.149725,0.05929 -0.225037,0.08778 -0.07727,0.02887 -0.15495,0.05663 -0.232539,0.08465 -0.07919,0.02872 -0.158415,0.05744 -0.238417,0.08384 -0.0802,0.02606 -0.161004,0.05013 -0.242686,0.0711 -0.08172,0.02113 -0.163688,0.0414 -0.246244,0.05908 -0.0794,0.01656 -0.159081,0.03197 -0.239486,0.04291 -0.07623,0.01011 -0.152685,0.01874 -0.229525,0.02259 -0.07474,0.0036 -0.149566,0.0057 -0.224403,0.0043 -0.07337,-0.0015 -0.146699,-0.0052 -0.219586,-0.01415 -0.07187,-0.009 -0.143513,-0.01978 -0.214456,-0.0345 -0.07055,-0.01498 -0.140589,-0.03232 -0.209422,-0.05397 -0.06864,-0.0218 -0.136644,-0.04572 -0.202577,-0.07481 -0.06567,-0.02931 -0.130547,-0.0604 -0.193406,-0.09538 -0.06208,-0.03458 -0.123605,-0.07034 -0.181761,-0.111313 -0.05611,-0.03964 -0.110961,-0.08116 -0.161795,-0.127496 -0.05052,-0.04588 -0.100438,-0.09253 -0.146571,-0.142896 -0.04452,-0.04906 -0.08784,-0.09924 -0.128045,-0.15194 -0.03769,-0.04985 -0.07432,-0.100536 -0.107729,-0.153367 -0.03128,-0.05016 -0.06073,-0.101436 -0.08757,-0.15411 -0.02612,-0.05176 -0.05134,-0.103949 -0.07562,-0.156581 -0.02441,-0.05296 -0.04893,-0.105875 -0.07303,-0.158984 -0.02351,-0.05171 -0.04743,-0.103234 -0.07102,-0.15491 -0.0237,-0.05159 -0.04724,-0.103219 -0.07135,-0.15461 -0.02367,-0.05146 -0.04754,-0.102826 -0.07178,-0.154029 -0.02365,-0.05051 -0.04715,-0.10107 -0.07093,-0.151503 -0.02321,-0.04949 -0.04664,-0.09887 -0.0696,-0.14847 -0.02323,-0.05016 -0.04644,-0.100354 -0.06985,-0.150442 -0.02342,-0.05088 -0.0469,-0.101758 -0.07037,-0.152628 -0.02399,-0.05139 -0.04777,-0.102896 -0.07192,-0.15421 -0.0236,-0.05058 -0.04742,-0.101057 -0.07121,-0.151543 -0.02349,-0.05026 -0.04756,-0.100271 -0.07124,-0.150461 -0.02424,-0.05097 -0.04878,-0.101843 -0.07333,-0.152694 -0.02443,-0.0503 -0.04865,-0.100705 -0.07272,-0.151186 -0.02388,-0.0501 -0.0474,-0.100369 -0.07159,-0.150312 -0.02342,-0.04802 -0.0468,-0.09607 -0.07051,-0.143934 -0.02379,-0.04822 -0.04738,-0.09656 -0.07143,-0.144654 -0.02437,-0.04872 -0.04869,-0.09747 -0.07335,-0.146046 -0.02367,-0.0471 -0.04777,-0.09393 -0.07205,-0.1407 -0.02235,-0.04297 -0.04556,-0.08548 -0.06893,-0.127904 -0.02259,-0.0409 -0.04494,-0.08192 -0.0678,-0.122663 -0.02256,-0.04091 -0.04529,-0.08172 -0.06816,-0.122467 -0.02248,-0.03996 -0.04515,-0.07978 -0.06738,-0.119856 -0.02245,-0.04032 -0.04476,-0.0807 -0.0668,-0.121244 -0.02147,-0.03947 -0.04304,-0.07888 -0.06408,-0.118576 -0.02032,-0.03848 -0.04062,-0.07698 -0.06066,-0.115611 -0.01978,-0.03862 -0.0394,-0.07731 -0.05924,-0.115893 -0.01991,-0.03891 -0.0399,-0.0778 -0.05958,-0.116832 -0.01913,-0.03794 -0.03772,-0.07615 -0.05649,-0.114278 -0.01768,-0.03661 -0.03544,-0.0732 -0.0525,-0.110103 -0.01693,-0.03608 -0.03376,-0.07222 -0.05092,-0.10818 -0.0165,-0.03512 -0.03281,-0.07034 -0.04872,-0.105748 -0.01561,-0.03445 -0.03169,-0.06869 -0.04732,-0.103122 -0.01589,-0.0344 -0.03204,-0.0687 -0.04801,-0.103065 -0.01573,-0.03346 -0.03135,-0.06698 -0.0469,-0.100522 -0.01542,-0.03333 -0.03073,-0.06675 -0.04628,-0.100041 -0.01513,-0.03328 -0.03034,-0.06649 -0.04567,-0.09967 -0.01521,-0.03264 -0.03034,-0.06532 -0.04588,-0.0978 -0.01495,-0.03158 -0.03009,-0.06305 -0.0454,-0.09447 -0.01456,-0.02985 -0.02933,-0.05962 -0.04428,-0.08927 -0.01418,-0.02812 -0.02802,-0.05639 -0.04252,-0.08432 -0.01377,-0.02679 -0.02742,-0.05367 -0.04095,-0.08057 -0.01223,-0.02445 -0.02469,-0.04883 -0.03747,-0.07303 -0.01138,-0.0214 -0.02313,-0.04254 -0.03526,-0.06347 -0.01124,-0.01944 -0.02245,-0.03893 -0.03351,-0.05849 -0.0098,-0.01742 -0.01948,-0.03494 -0.03019,-0.05181 -0.0095,-0.01475 -0.01942,-0.02928 -0.02931,-0.04378 -0.0086,-0.01264 -0.01719,-0.02518 -0.0256,-0.03782 -0.0065,-0.0099 -0.0132,-0.01978 -0.01942,-0.02988 -0.0052,-0.0085 -0.01054,-0.01688 -0.01516,-0.02565 -0.0045,-0.0081 -0.0086,-0.01662 -0.01223,-0.02521 0,0 2.919794,-1.387155 2.919794,-1.387155 z"
       inkscape:connector-curvature="0" />
    <path
       style="fill:#000000;stroke-width:0.08101432"
       id="path985-1"
       d="m 31.636531,12.383752 c 0.01513,-0.0049 0.02985,-0.01096 0.04445,-0.01724 0.01882,-0.0081 0.03759,-0.01643 0.05646,-0.0245 0.0226,-0.0099 0.04557,-0.0191 0.06856,-0.02819 0.02697,-0.01068 0.05394,-0.02126 0.08085,-0.03202 0.0298,-0.0118 0.05969,-0.02329 0.08949,-0.03509 0.03126,-0.01237 0.06255,-0.02456 0.09398,-0.03644 0.03312,-0.01292 0.06648,-0.02529 0.09986,-0.03754 0.03443,-0.01264 0.06901,-0.0248 0.10367,-0.03682 0.03531,-0.01223 0.07098,-0.02342 0.106774,-0.03417 0.03822,-0.01152 0.07688,-0.02144 0.115709,-0.03059 0.03985,-0.0095 0.0802,-0.01693 0.120599,-0.02388 0.04028,-0.007 0.08078,-0.01265 0.121343,-0.01766 0.04001,-0.005 0.08021,-0.0086 0.120473,-0.0111 0.04,-0.0024 0.08006,-0.0032 0.120107,-0.0043 0.03987,-9.59e-4 0.07974,-3.06e-4 0.119602,6.13e-4 0.03916,9.6e-4 0.07829,0.0032 0.117352,0.006 0.03833,0.0031 0.07657,0.007 0.114698,0.01195 0.03731,0.0052 0.0744,0.01166 0.111396,0.01871 0.03643,0.0066 0.07254,0.01464 0.10832,0.02422 0.03525,0.0094 0.06945,0.02216 0.103473,0.03525 0.03372,0.0132 0.06701,0.02742 0.09975,0.0429 0.03174,0.01448 0.06185,0.03206 0.09117,0.05093 0.02929,0.01881 0.05652,0.04048 0.08297,0.06305 0.02685,0.02313 0.05221,0.04781 0.07717,0.0729 0.02532,0.02518 0.04866,0.05215 0.07117,0.07985 0.02313,0.02855 0.04299,0.05953 0.06176,0.09107 0.01957,0.03324 0.03705,0.06765 0.054,0.102277 0.01695,0.03494 0.03334,0.07015 0.0489,0.105735 0.01575,0.03637 0.02988,0.07339 0.04337,0.110653 0.01405,0.03936 0.02697,0.07907 0.03961,0.118884 0.01279,0.04027 0.02484,0.08075 0.03665,0.12133 0.01194,0.04123 0.02302,0.08276 0.03382,0.124335 0.01082,0.04176 0.02118,0.08364 0.03128,0.125586 0.01026,0.0434 0.02007,0.08692 0.02939,0.130546 0.0098,0.04782 0.01899,0.09577 0.02834,0.143695 0.0097,0.04945 0.01869,0.09905 0.0272,0.148731 0.0094,0.05381 0.0165,0.107969 0.02315,0.162186 0.0069,0.05657 0.01306,0.113195 0.01911,0.169847 0.0062,0.05901 0.01025,0.118196 0.01391,0.17742 0.0041,0.0633 0.0062,0.12671 0.0083,0.190108 0.0021,0.06519 0.0038,0.130376 0.0055,0.195569 0.002,0.06753 0.0027,0.135071 0.0028,0.202625 -3.36e-4,0.07167 -0.0014,0.143347 -0.0025,0.215015 -0.0011,0.07212 -0.0024,0.144228 -0.0039,0.216336 -0.0017,0.07453 -0.0035,0.149072 -0.0048,0.223615 -0.0012,0.07458 -0.0025,0.149151 -0.0038,0.223726 -0.0015,0.07461 -0.0024,0.149245 -0.0034,0.223874 -9.6e-4,0.07664 -0.0022,0.153295 -0.0035,0.229938 -0.0014,0.07734 -0.0021,0.154684 -0.0029,0.232027 -9.6e-4,0.07801 -0.0021,0.156015 -0.0032,0.234022 -0.0012,0.07715 -0.0025,0.154289 -0.0039,0.231429 -0.0017,0.07881 -0.0028,0.157621 -0.0039,0.236435 -0.0012,0.08007 -0.0025,0.160125 -0.0041,0.240185 -0.0015,0.08 -0.0022,0.160001 -0.0032,0.240007 -0.0014,0.08235 -0.0021,0.164715 -0.0028,0.247075 -9.6e-4,0.08252 -0.0014,0.165021 -0.002,0.247532 -3.97e-4,0.08484 -0.0011,0.169694 -0.002,0.254538 -5.82e-4,0.08632 -9.6e-4,0.17263 -0.0014,0.258943 -4.89e-4,0.08512 -0.0011,0.170257 -0.0018,0.255383 -3.99e-4,0.08439 -4.9e-4,0.168794 -7.96e-4,0.25319 -2.44e-4,0.08313 -7.35e-4,0.166246 -0.0012,0.249369 -4.9e-4,0.08207 -0.0012,0.164158 -0.002,0.246233 -4.9e-4,0.08369 -8.72e-4,0.167389 -0.0014,0.251079 -5.81e-4,0.0835 -0.0013,0.167023 -0.0021,0.250528 -6.42e-4,0.08128 -0.0018,0.162555 -0.0024,0.243828 -3.97e-4,0.08106 -8.25e-4,0.162142 -0.0014,0.243208 -5.81e-4,0.08064 -0.0013,0.16128 -0.0021,0.241917 -6.42e-4,0.07859 -0.0018,0.157168 -0.0024,0.235755 -3.97e-4,0.07693 -6.41e-4,0.153857 -9.6e-4,0.230785 -3.99e-4,0.0761 -9.6e-4,0.152201 -0.0015,0.228303 -7.35e-4,0.07395 -4.9e-4,0.147924 -4.9e-4,0.221888 2.9e-5,0.07196 -3.8e-5,0.143918 -1.62e-4,0.215878 -2.44e-4,0.07034 -5.82e-4,0.140688 -2.44e-4,0.211033 3.37e-4,0.0688 6.44e-4,0.137598 8.73e-4,0.206404 2.43e-4,0.07043 -3.3e-5,0.140842 -3.98e-4,0.211268 -7.35e-4,0.07151 -4.9e-4,0.143031 -3.97e-4,0.214552 2.43e-4,0.07051 -8.2e-5,0.141024 1.62e-4,0.211538 4.9e-4,0.06905 9.59e-4,0.138104 0.0015,0.207157 4.9e-4,0.06904 5.81e-4,0.138119 7.35e-4,0.207184 8.1e-5,0.06792 8.1e-5,0.135814 10e-7,0.20373 -8.1e-5,0.06669 -3.37e-4,0.133384 -6.42e-4,0.200075 -3.37e-4,0.06546 -7.36e-4,0.130911 -0.0012,0.196358 -7.37e-4,0.06392 -8.73e-4,0.127848 -7.98e-4,0.191779 1.62e-4,0.06207 2.43e-4,0.124153 2.43e-4,0.186219 2.5e-5,0.06046 -4.8e-5,0.120894 -1.61e-4,0.181339 -3.99e-4,0.05909 8e-5,0.118183 5.82e-4,0.177263 3.97e-4,0.05881 6.41e-4,0.117634 8.56e-4,0.17644 1.62e-4,0.05821 2.44e-4,0.116411 2.44e-4,0.174611 1.7e-5,0.05712 -1.62e-4,0.114234 -3.37e-4,0.171356 -2.44e-4,0.05624 -4.89e-4,0.112464 -8.57e-4,0.168698 -3.37e-4,0.05493 -7.98e-4,0.109851 -0.0013,0.164773 -4.89e-4,0.0537 -9.6e-4,0.10742 -0.0017,0.161133 -6.43e-4,0.05307 -0.0013,0.106129 -0.0021,0.159188 -7.36e-4,0.05186 -0.0015,0.103698 -0.0024,0.155539 -8.27e-4,0.05073 -0.0018,0.101478 -0.0027,0.15221 -9.6e-4,0.05001 -0.002,0.100031 -0.0031,0.150053 -0.0011,0.04951 -0.0022,0.09901 -0.0035,0.148516 -0.0015,0.04879 -0.0036,0.09755 -0.0056,0.146322 -0.002,0.04822 -0.0041,0.09643 -0.0062,0.144646 -0.0021,0.04774 -0.0042,0.09549 -0.0065,0.143229 -0.0021,0.04774 -0.0045,0.09548 -0.0067,0.143216 -0.0022,0.04714 -0.0045,0.09429 -0.0069,0.141423 -0.0022,0.04671 -0.0046,0.09341 -0.007,0.140128 -0.0024,0.0468 -0.0048,0.09358 -0.0073,0.14038 -0.0025,0.04671 -0.0041,0.09345 -0.0059,0.140211 -0.0017,0.0463 -0.0035,0.09261 -0.0053,0.138919 -0.0018,0.04555 -0.0036,0.09109 -0.0055,0.136629 -0.0018,0.04474 -0.0036,0.08948 -0.0056,0.134226 -0.0022,0.04277 -0.0045,0.08553 -0.008,0.128214 -6.42e-4,0.0065 -0.0013,0.01292 -0.002,0.01947 0,0 -2.919796,1.387159 -2.919796,1.387159 v 0 c 6.75e-4,-0.0065 0.0013,-0.01292 0.002,-0.01947 0.0036,-0.04269 0.0057,-0.08545 0.008,-0.128214 0.002,-0.04473 0.0038,-0.08948 0.0056,-0.134227 0.0018,-0.04554 0.0036,-0.09108 0.0055,-0.136629 0.0018,-0.0463 0.0036,-0.09261 0.0053,-0.138919 0.0018,-0.04675 0.0034,-0.09349 0.0059,-0.140211 0.0024,-0.04679 0.0049,-0.09359 0.0073,-0.14038 0.0024,-0.0467 0.0046,-0.09341 0.007,-0.140127 0.0022,-0.04714 0.0046,-0.09427 0.0069,-0.14142 0.0022,-0.04774 0.0045,-0.09548 0.0067,-0.143217 0.0021,-0.04774 0.0043,-0.09548 0.0065,-0.143229 0.0021,-0.04822 0.0042,-0.09643 0.0062,-0.14465 0.0021,-0.04876 0.0041,-0.09753 0.0056,-0.146322 0.0012,-0.0495 0.0024,-0.09901 0.0034,-0.14851 0.0011,-0.05001 0.0021,-0.100042 0.0031,-0.150058 9.6e-4,-0.05073 0.002,-0.101477 0.0027,-0.152207 8.56e-4,-0.05184 0.0017,-0.103697 0.0024,-0.155538 7.66e-4,-0.05307 0.0015,-0.106128 0.0021,-0.159191 6.13e-4,-0.05371 0.0012,-0.10742 0.0017,-0.161133 4.6e-4,-0.05491 9.6e-4,-0.10985 0.0013,-0.16477 3.37e-4,-0.05622 6.43e-4,-0.112465 8.58e-4,-0.168698 1.86e-4,-0.05712 3.36e-4,-0.114248 3.36e-4,-0.17136 5e-6,-0.05821 -2.7e-5,-0.116412 -2.02e-4,-0.174609 -1.86e-4,-0.05881 -4.3e-4,-0.117633 -8.57e-4,-0.176442 -4.29e-4,-0.05909 -9.6e-4,-0.118168 -5.51e-4,-0.177257 1.2e-4,-0.06045 1.85e-4,-0.120894 1.61e-4,-0.181344 -4.1e-5,-0.06207 -1.05e-4,-0.124138 -2.42e-4,-0.186216 -8e-5,-0.06392 1.12e-4,-0.127848 7.96e-4,-0.191779 4.59e-4,-0.06546 8.72e-4,-0.130911 0.0012,-0.196356 3.06e-4,-0.06669 5.51e-4,-0.133382 6.13e-4,-0.200077 7.7e-5,-0.06792 8.8e-5,-0.135814 -2e-6,-0.203733 -1.13e-4,-0.06904 -2.35e-4,-0.138118 -7.05e-4,-0.207182 -4.59e-4,-0.06904 -0.0011,-0.138104 -0.0015,-0.207153 -2.83e-4,-0.07051 3.5e-5,-0.141032 -1.93e-4,-0.211546 -1.07e-4,-0.07151 -2.93e-4,-0.143034 3.97e-4,-0.21455 3.67e-4,-0.07041 6.12e-4,-0.140845 3.99e-4,-0.21127 -1.96e-4,-0.0688 -5.22e-4,-0.137599 -8.73e-4,-0.206404 -2.68e-4,-0.07034 4.8e-5,-0.140687 2.68e-4,-0.211033 1.61e-4,-0.07196 2.25e-4,-0.143913 2.01e-4,-0.215874 -2.9e-5,-0.07397 -2.43e-4,-0.147932 4.6e-4,-0.221891 6.12e-4,-0.0761 0.0012,-0.152201 0.0015,-0.228302 3.67e-4,-0.07693 6.12e-4,-0.153857 9.6e-4,-0.230786 5.2e-4,-0.07859 0.0017,-0.157169 0.0024,-0.235752 7.96e-4,-0.08064 0.0015,-0.161277 0.0021,-0.241913 5.51e-4,-0.08108 9.59e-4,-0.162141 0.0014,-0.243209 5.5e-4,-0.08127 0.0017,-0.162553 0.0024,-0.24383 7.66e-4,-0.0835 0.0015,-0.167021 0.0021,-0.250529 5.82e-4,-0.08369 9.59e-4,-0.167385 0.0014,-0.251078 7.97e-4,-0.08207 0.0015,-0.164154 0.002,-0.24623 4.89e-4,-0.08313 9.6e-4,-0.166249 0.0012,-0.24937 2.67e-4,-0.0844 3.97e-4,-0.168799 7.95e-4,-0.253196 7.35e-4,-0.08512 0.0013,-0.170252 0.0018,-0.255379 4.91e-4,-0.08632 8.56e-4,-0.172631 0.0014,-0.258941 8.73e-4,-0.08484 0.0017,-0.169691 0.002,-0.254537 3.99e-4,-0.08252 9.6e-4,-0.165028 0.002,-0.247535 7.64e-4,-0.08235 0.0014,-0.164725 0.0028,-0.247079 9.6e-4,-0.08 0.0018,-0.160008 0.0032,-0.240003 0.0014,-0.08006 0.0028,-0.160122 0.0041,-0.240188 0.0012,-0.07882 0.0022,-0.157628 0.0039,-0.236432 0.0014,-0.07715 0.0027,-0.154287 0.0039,-0.23143 0.0012,-0.07801 0.0024,-0.156012 0.0032,-0.234022 9.6e-4,-0.07734 0.0015,-0.154691 0.0029,-0.232029 0.0013,-0.07664 0.0025,-0.153288 0.0035,-0.229938 9.6e-4,-0.07463 0.0017,-0.149253 0.0034,-0.22387 0.0013,-0.07457 0.0025,-0.149153 0.0038,-0.223731 0.0013,-0.07454 0.0031,-0.149074 0.0048,-0.223611 0.0015,-0.07212 0.0028,-0.144221 0.0039,-0.216338 0.0011,-0.07166 0.0022,-0.143335 0.0025,-0.21501 -1.78e-4,-0.06756 -8.72e-4,-0.135098 -0.0028,-0.202625 -0.0015,-0.0652 -0.0032,-0.130391 -0.0055,-0.195577 -0.0021,-0.06339 -0.0043,-0.126793 -0.0083,-0.190105 -0.0035,-0.05922 -0.0077,-0.118407 -0.01391,-0.177417 -0.006,-0.05666 -0.01223,-0.113294 -0.01909,-0.169852 -0.0066,-0.0542 -0.01377,-0.108361 -0.02315,-0.162181 -0.0086,-0.04967 -0.01747,-0.09927 -0.02718,-0.148735 -0.0094,-0.04791 -0.01856,-0.09587 -0.02834,-0.143695 -0.0092,-0.04361 -0.01911,-0.08713 -0.02939,-0.130545 -0.01011,-0.04193 -0.02043,-0.08384 -0.03128,-0.125587 -0.01082,-0.04157 -0.02182,-0.0831 -0.03383,-0.124335 -0.0118,-0.04056 -0.02386,-0.08105 -0.03665,-0.121316 -0.01264,-0.03982 -0.02557,-0.07954 -0.03961,-0.118884 -0.01348,-0.03726 -0.02763,-0.07428 -0.04337,-0.110652 -0.01555,-0.03559 -0.03196,-0.07079 -0.0489,-0.105735 -0.01697,-0.03464 -0.03444,-0.06903 -0.05402,-0.102278 -0.01877,-0.03154 -0.03863,-0.06248 -0.06176,-0.09107 -0.02249,-0.02771 -0.04582,-0.05468 -0.07116,-0.07986 -0.02497,-0.02511 -0.05033,-0.04979 -0.07717,-0.0729 -0.02644,-0.02256 -0.05369,-0.04424 -0.08297,-0.06307 -0.02931,-0.01882 -0.05941,-0.03642 -0.09117,-0.05093 -0.03272,-0.01549 -0.06603,-0.02973 -0.09975,-0.0429 -0.03402,-0.01306 -0.06823,-0.02578 -0.103487,-0.03525 -0.03577,-0.0095 -0.07189,-0.01758 -0.10832,-0.0242 -0.03699,-0.007 -0.0741,-0.01363 -0.111396,-0.01871 -0.03813,-0.0049 -0.07637,-0.0088 -0.114698,-0.01194 -0.03908,-0.0028 -0.0782,-0.005 -0.117353,-0.006 -0.03985,-9.6e-4 -0.07974,-0.0015 -0.119601,-6.12e-4 -0.04004,9.6e-4 -0.08011,0.0018 -0.120108,0.0043 -0.04025,0.0024 -0.08045,0.006 -0.120472,0.0111 -0.04056,0.005 -0.08107,0.01068 -0.121344,0.01768 -0.04039,0.0069 -0.08074,0.01429 -0.120598,0.02388 -0.03884,0.0091 -0.0775,0.0191 -0.115709,0.03059 -0.0358,0.01068 -0.07149,0.02189 -0.106775,0.03416 -0.03464,0.01195 -0.06923,0.0242 -0.103669,0.03684 -0.03338,0.01223 -0.06675,0.02458 -0.09988,0.03754 -0.03142,0.01195 -0.06272,0.02413 -0.09398,0.03643 -0.0298,0.0118 -0.05968,0.0233 -0.08948,0.03509 -0.02692,0.01068 -0.05388,0.0214 -0.08085,0.03202 -0.02298,0.0091 -0.04595,0.01819 -0.06855,0.0282 -0.01885,0.0081 -0.03762,0.01633 -0.05646,0.0245 -0.0146,0.0063 -0.02934,0.01237 -0.04445,0.01723 0,0 2.919794,-1.387158 2.919794,-1.387158 z"
       inkscape:connector-curvature="0" />
    <path
       style="fill:#000000;stroke-width:0.07888627"
       id="path991-8"
       d="m 36.932104,27.628848 c -0.0069,0.01068 -0.01391,0.02134 -0.0207,0.03211 -0.0076,0.01223 -0.01532,0.02423 -0.02334,0.03597 -0.0091,0.0132 -0.01815,0.02651 -0.02734,0.03971 -0.01026,0.01449 -0.02048,0.02903 -0.03103,0.0432 -0.01124,0.01519 -0.02297,0.02964 -0.03471,0.04413 -0.01237,0.0157 -0.02493,0.03116 -0.03747,0.04664 -0.01306,0.01568 -0.02621,0.03139 -0.03943,0.047 -0.01408,0.01662 -0.02813,0.03325 -0.04215,0.04991 -0.0151,0.01789 -0.02998,0.03604 -0.04499,0.05402 -0.01516,0.01835 -0.03053,0.03635 -0.04601,0.05423 -0.01626,0.01892 -0.03268,0.03765 -0.04906,0.05642 -0.01696,0.01944 -0.03436,0.03829 -0.0519,0.05691 -0.01838,0.01944 -0.03731,0.03811 -0.05624,0.05671 -0.01923,0.01923 -0.03916,0.03733 -0.05919,0.05521 -0.02032,0.01786 -0.04091,0.03532 -0.06189,0.05197 -0.821543,0.630126 -1.637344,1.278781 -2.496086,1.823392 -0.02182,0.01391 -0.04436,0.02591 -0.06726,0.03665 -0.02288,0.01096 -0.04648,0.01909 -0.07008,0.027 -0.02395,0.0083 -0.04819,0.01504 -0.07257,0.02103 -0.0245,0.0062 -0.04918,0.01082 -0.07389,0.01549 -0.02497,0.0048 -0.05012,0.0081 -0.07527,0.0111 -0.02557,0.0031 -0.05118,0.005 -0.07682,0.0069 -0.02543,0.0018 -0.0509,0.0028 -0.07636,0.0034 -0.02558,0.0012 -0.0512,0.0012 -0.0768,6.43e-4 -0.02578,-6.43e-4 -0.0515,-0.0015 -0.07721,-0.0039 -0.02546,-0.0018 -0.05086,-0.0052 -0.07624,-0.0085 -0.02514,-0.0034 -0.05019,-0.0077 -0.07514,-0.01306 -0.02556,-0.0052 -0.05093,-0.01195 -0.07621,-0.01916 -0.02644,-0.0074 -0.05268,-0.01605 -0.07884,-0.02502 -0.02585,-0.0087 -0.05146,-0.0184 -0.07714,-0.02784 -0.02713,-0.0099 -0.0541,-0.0207 -0.08105,-0.03149 -0.02939,-0.01166 -0.05877,-0.02346 -0.08809,-0.03545 -0.03041,-0.01209 -0.06066,-0.02498 -0.09093,-0.03758 -0.03058,-0.01306 -0.06115,-0.02591 -0.09159,-0.03941 -0.03042,-0.01334 -0.06077,-0.027 -0.09101,-0.04102 -0.0309,-0.01464 -0.06168,-0.0298 -0.09239,-0.0451 -0.03076,-0.01519 -0.06133,-0.03108 -0.09204,-0.04646 -0.0309,-0.01583 -0.06184,-0.03162 -0.09278,-0.04735 -0.03225,-0.01635 -0.06476,-0.03184 -0.09737,-0.047 -0.03302,-0.01527 -0.0662,-0.03001 -0.09945,-0.04448 -0.03332,-0.01475 -0.06696,-0.02833 -0.10079,-0.04111 -0.03565,-0.01363 -0.07182,-0.02493 -0.108024,-0.03597 -0.03715,-0.01152 -0.07456,-0.02147 -0.111972,-0.03142 -0.03685,-0.0098 -0.07377,-0.01916 -0.110708,-0.02845 -0.03665,-0.0095 -0.07352,-0.01755 -0.110399,-0.0256 -0.0365,-0.008 -0.07318,-0.01461 -0.109838,-0.02124 -0.03752,-0.0069 -0.07526,-0.01138 -0.113025,-0.01534 -0.04035,-0.0038 -0.0808,-0.0059 -0.121246,-0.0074 -0.04136,-0.0015 -0.08273,-0.0021 -0.124068,-0.0031 -0.041,-6.44e-4 -0.082,-6.44e-4 -0.123002,-6.44e-4 -0.04304,-6.41e-4 -0.08605,0.0012 -0.129056,0.0031 -0.0471,0.0021 -0.09414,0.0065 -0.141128,0.01082 -0.04938,0.0046 -0.0987,0.01026 -0.148026,0.01559 -0.04873,0.005 -0.09744,0.01068 -0.146124,0.0166 -0.0492,0.0059 -0.09842,0.01166 -0.147588,0.01776 -0.05065,0.0063 -0.101308,0.01236 -0.151932,0.0192 -0.0503,0.0067 -0.100606,0.01334 -0.15087,0.02064 -0.05045,0.0076 -0.100831,0.0157 -0.151139,0.02469 -0.05079,0.009 -0.101393,0.01944 -0.151986,0.03001 -0.04992,0.0104 -0.0998,0.02144 -0.149609,0.03288 -0.04893,0.01124 -0.09772,0.0236 -0.14645,0.03619 -0.04841,0.01264 -0.09661,0.02661 -0.144731,0.04098 -0.0477,0.01428 -0.0951,0.03005 -0.142442,0.04617 -0.0474,0.01599 -0.09462,0.03278 -0.141755,0.05 -0.04778,0.01739 -0.09535,0.03566 -0.142911,0.05402 -0.04761,0.01849 -0.09495,0.03814 -0.142249,0.05784 -0.04915,0.02045 -0.09786,0.0425 -0.146455,0.06491 -0.05136,0.02363 -0.102334,0.04862 -0.153297,0.0736 -0.05057,0.02504 -0.101098,0.05021 -0.15153,0.07568 -0.04956,0.02498 -0.09895,0.05044 -0.148309,0.07603 -0.04952,0.02559 -0.09877,0.05207 -0.147832,0.07905 -0.04899,0.02687 -0.09786,0.05416 -0.146701,0.0815 -0.0492,0.02765 -0.09829,0.05569 -0.14709,0.08445 -0.0509,0.03016 -0.10138,0.06143 -0.151839,0.09279 -0.05081,0.03142 -0.101394,0.06344 -0.151755,0.096 -0.04998,0.03234 -0.0998,0.06506 -0.149509,0.09807 -0.05069,0.03398 -0.101196,0.06842 -0.151677,0.10291 -0.05068,0.03474 -0.101112,0.07006 -0.151674,0.105075 -0.04943,0.03447 -0.09892,0.06886 -0.148471,0.103051 -0.04868,0.03363 -0.09722,0.06757 -0.145948,0.101113 -0.03899,0.02683 -0.07789,0.0538 -0.117283,0.07958 0,0 2.421822,-1.771454 2.421822,-1.771454 v 0 c 0.03941,-0.02581 0.07831,-0.05279 0.117282,-0.07958 0.04872,-0.03352 0.09727,-0.06746 0.145948,-0.101127 0.04956,-0.03422 0.09905,-0.06855 0.148472,-0.103051 0.05057,-0.03501 0.100986,-0.07036 0.151673,-0.105074 0.05047,-0.03447 0.100987,-0.06893 0.151677,-0.102896 0.04971,-0.03299 0.09954,-0.06571 0.14951,-0.09807 0.05037,-0.03257 0.100929,-0.06459 0.151755,-0.096 0.05045,-0.03134 0.100943,-0.06263 0.151838,-0.09279 0.0488,-0.02875 0.09788,-0.0568 0.14709,-0.08444 0.04883,-0.02735 0.09772,-0.05461 0.146702,-0.0815 0.04906,-0.027 0.09831,-0.05344 0.14783,-0.07905 0.04936,-0.02559 0.09875,-0.05107 0.14831,-0.07603 0.05044,-0.02547 0.100971,-0.05061 0.151531,-0.07568 0.05096,-0.02502 0.101941,-0.04994 0.153297,-0.0736 0.04862,-0.02238 0.0973,-0.04448 0.146453,-0.06491 0.0473,-0.01969 0.09464,-0.03936 0.14225,-0.05784 0.04756,-0.01835 0.09513,-0.03661 0.142911,-0.05401 0.04714,-0.01721 0.09436,-0.03405 0.141755,-0.05 0.04733,-0.0161 0.09474,-0.03191 0.142442,-0.04617 0.04812,-0.01439 0.09632,-0.0283 0.144732,-0.04098 0.04873,-0.01264 0.09751,-0.02493 0.146449,-0.03619 0.0498,-0.01138 0.09968,-0.02241 0.14961,-0.03283 0.05059,-0.01054 0.101197,-0.02111 0.151985,-0.03001 0.05031,-0.009 0.100691,-0.01709 0.151141,-0.02469 0.05026,-0.0072 0.100563,-0.01391 0.150869,-0.02064 0.05061,-0.0067 0.101281,-0.01292 0.151932,-0.01916 0.04917,-0.0062 0.0984,-0.0118 0.147589,-0.01773 0.04868,-0.0059 0.09737,-0.01152 0.146123,-0.0166 0.04932,-0.0053 0.09864,-0.01096 0.148025,-0.01559 0.04701,-0.0043 0.09403,-0.0085 0.141129,-0.01082 0.043,-0.0018 0.08602,-0.0034 0.129055,-0.0031 0.04101,8.3e-5 0.082,8.3e-5 0.123002,6.44e-4 0.04136,0.0012 0.08273,0.0018 0.124068,0.0031 0.04045,0.0015 0.08088,0.0034 0.121247,0.0074 0.03778,0.0039 0.0755,0.0086 0.113039,0.01534 0.03666,0.0066 0.07335,0.0132 0.109836,0.02124 0.03688,0.008 0.07374,0.01605 0.1104,0.02554 0.03694,0.0092 0.07386,0.01867 0.110708,0.02845 0.03741,0.0099 0.07482,0.01999 0.111973,0.03146 0.03621,0.0111 0.07238,0.02225 0.108024,0.03597 0.03383,0.01278 0.06746,0.02637 0.100789,0.04111 0.03325,0.01446 0.06644,0.02918 0.09945,0.04448 0.03262,0.01513 0.06513,0.03062 0.09737,0.047 0.03093,0.01573 0.06188,0.03149 0.09277,0.04736 0.03072,0.0154 0.06127,0.03128 0.09204,0.04646 0.03072,0.01527 0.06147,0.03043 0.09239,0.0451 0.03022,0.01405 0.0606,0.02764 0.09101,0.04101 0.03043,0.01348 0.06102,0.02642 0.09159,0.03941 0.03027,0.01264 0.06052,0.02544 0.09093,0.03758 0.02933,0.01194 0.0587,0.02375 0.08809,0.03546 0.02697,0.01068 0.05393,0.02147 0.08105,0.03149 0.0257,0.0094 0.05129,0.01916 0.07715,0.02784 0.02614,0.009 0.05241,0.01751 0.07885,0.02502 0.02526,0.0072 0.05064,0.01391 0.07621,0.01916 0.02495,0.0052 0.05,0.0095 0.07513,0.01306 0.02538,0.0034 0.05078,0.0063 0.07623,0.0085 0.02572,0.0018 0.05146,0.0034 0.07721,0.0039 0.0256,6.43e-4 0.0512,3.38e-4 0.0768,-6.43e-4 0.02547,-6.42e-4 0.05093,-0.0015 0.07636,-0.0034 0.02565,-0.0015 0.05125,-0.0038 0.07682,-0.0069 0.02518,-0.0028 0.0503,-0.0063 0.07527,-0.01096 0.02471,-0.0046 0.04939,-0.0092 0.07388,-0.01543 0.02437,-0.006 0.04862,-0.01278 0.07257,-0.02103 0.02357,-0.008 0.04718,-0.0161 0.07008,-0.027 0.02287,-0.01068 0.04542,-0.02279 0.06725,-0.03665 0.912177,-0.578503 -3.196713,2.369122 -2.347564,1.719511 0.02098,-0.01661 0.04154,-0.03412 0.06189,-0.05198 0.02002,-0.01789 0.03996,-0.03597 0.05919,-0.0552 0.01891,-0.01861 0.03786,-0.03726 0.05625,-0.05671 0.01754,-0.01861 0.03491,-0.03748 0.0519,-0.05691 0.01639,-0.01877 0.03278,-0.03748 0.04906,-0.05642 0.01548,-0.01789 0.03088,-0.03588 0.04602,-0.05423 0.015,-0.01801 0.0299,-0.03612 0.04497,-0.05402 0.01405,-0.01662 0.0281,-0.0333 0.04215,-0.04991 0.0132,-0.01559 0.02627,-0.03135 0.03943,-0.047 0.01251,-0.01549 0.02511,-0.03093 0.03747,-0.04664 0.01166,-0.01449 0.0235,-0.02894 0.0347,-0.04413 0.01054,-0.01414 0.02079,-0.02868 0.03103,-0.0432 0.0091,-0.0132 0.01814,-0.02656 0.02736,-0.03971 0.008,-0.0118 0.01572,-0.02378 0.02333,-0.03597 0.0069,-0.01082 0.01377,-0.02147 0.0207,-0.03211 0,0 2.421821,-1.771451 2.421821,-1.771451 z"
       inkscape:connector-curvature="0" />
  </g>
</svg>
