<?xml version="1.0" encoding="UTF-8" standalone="no"?>
<!-- Created with Inkscape (http://www.inkscape.org/) -->

<svg
   xmlns:dc="http://purl.org/dc/elements/1.1/"
   xmlns:cc="http://creativecommons.org/ns#"
   xmlns:rdf="http://www.w3.org/1999/02/22-rdf-syntax-ns#"
   xmlns:svg="http://www.w3.org/2000/svg"
   xmlns="http://www.w3.org/2000/svg"
   xmlns:sodipodi="http://sodipodi.sourceforge.net/DTD/sodipodi-0.dtd"
   xmlns:inkscape="http://www.inkscape.org/namespaces/inkscape"
   width="104mm"
   height="104mm"
   viewBox="0 0 104 104"
   version="1.1"
   id="svg8"
   inkscape:version="0.92.3 (2405546, 2018-03-11)"
   sodipodi:docname="R13.svg">
  <defs
     id="defs2" />
  <sodipodi:namedview
     id="base"
     pagecolor="#ffffff"
     bordercolor="#666666"
     borderopacity="1.0"
     inkscape:pageopacity="0.0"
     inkscape:pageshadow="2"
     inkscape:zoom="1.4"
     inkscape:cx="109.47423"
     inkscape:cy="211.13168"
     inkscape:document-units="mm"
     inkscape:current-layer="layer2"
     showgrid="false"
     fit-margin-top="2"
     fit-margin-left="2"
     fit-margin-right="2"
     fit-margin-bottom="2"
     inkscape:window-width="1600"
     inkscape:window-height="845"
     inkscape:window-x="0"
     inkscape:window-y="27"
     inkscape:window-maximized="1" />
  <metadata
     id="metadata5">
    <rdf:RDF>
      <cc:Work
         rdf:about="">
        <dc:format>image/svg+xml</dc:format>
        <dc:type
           rdf:resource="http://purl.org/dc/dcmitype/StillImage" />
        <dc:title></dc:title>
      </cc:Work>
    </rdf:RDF>
  </metadata>
  <g
     inkscape:label="Layer 1"
     inkscape:groupmode="layer"
     id="layer1"
     style="opacity:1"
     transform="translate(-47.136902,-70.26786)">
    <circle
       style="fill:#dedede;stroke-width:0.17248914"
       id="path10"
       cx="99.136902"
       cy="122.26786"
       r="50" />
  </g>
  <g
     inkscape:groupmode="layer"
     id="layer2"
     inkscape:label="Layer 2">
    <path
       style="fill:#000000;stroke-width:0.26458332"
       id="path23"
       d="m 3.4829025,30.755777 c 0.1912223,-0.227507 0.2954676,-0.513651 0.4661863,-0.754292 0.2277186,-0.320987 0.030721,0.06201 0.2117039,-0.335407 0.037247,-0.06161 0.066883,-0.128524 0.1117402,-0.184838 0.035877,-0.04504 0.08843,-0.07419 0.1279483,-0.116073 0.2081622,-0.220625 0.364128,-0.476234 0.5806278,-0.691385 0.214253,-0.286414 0.4632031,-0.551998 0.6605894,-0.851035 0.1966474,-0.297918 0.01924,-0.114316 0.2435749,-0.316135 0.043577,-0.04307 0.092904,-0.081 0.1307309,-0.129196 0.04212,-0.05366 0.065789,-0.120152 0.1074055,-0.174207 0.1980398,-0.25723 0.4625948,-0.437517 0.7285127,-0.615646 0.4101595,-0.292418 0.8345281,-0.579524 1.2010004,-0.925768 0.272601,-0.35682 0.5902936,-0.668592 0.8891886,-1.005961 0.4424887,-0.465226 0.8882774,-0.926831 1.3085546,-1.415403 0.612923,-0.640593 1.27822,-1.227205 1.948095,-1.807247 0.820453,-0.704756 1.603836,-1.449982 2.376271,-2.20652 0.712253,-0.70923 1.418606,-1.426887 2.179265,-2.084753 0.78351,-0.742655 1.706541,-1.297254 2.623113,-1.85528 0.995431,-0.608134 1.978141,-1.236799 2.974467,-1.843492 4.596343,-2.881262 9.273771,-5.579683 14.113101,-7.9982337 0.740264,-0.4243395 1.563904,-0.6368772 2.367983,-0.903533 1.195311,-0.3434659 -0.383804,0.1272066 0.691198,-0.244085 0.199615,-0.068945 0.425442,-0.094215 0.623207,-0.1714836 0.301244,-0.1573191 0.148297,-0.090781 0.457944,-0.2016784 0.07555,-0.01611 0.157176,-0.014563 0.226655,-0.048334 0.05842,-0.028396 0.08996,-0.09512 0.143658,-0.1316644 0.179679,-0.1222758 0.453623,-0.1455864 0.663565,-0.1414462 0.02014,-0.042356 0.02781,-0.09334 0.06039,-0.1270667 0.07961,-0.082402 0.163296,-0.035659 0.25926,-0.0554 0.143674,-0.029555 0.152974,-0.091951 0.301189,-0.1345459 0.08113,-0.023315 0.166843,-0.02576 0.250266,-0.03864 0.610249,-0.2715837 -0.165504,0.054341 0.528831,-0.1695434 0.0924,-0.029793 0.174773,-0.086019 0.266999,-0.1163431 0.297955,-0.097967 0.618961,-0.1316797 0.929108,-0.1580701 0.36984,-0.07438 0.761079,0.00106 1.130808,-0.053631 0.151781,-0.022447 0.296,-0.081851 0.446355,-0.1124284 0.299215,-0.091395 0.626835,-0.022883 0.928137,-0.07862 0.06537,-0.012094 0.124809,-0.04586 0.187214,-0.06879 0.07958,-0.010615 0.159165,-0.021231 0.238749,-0.031846 1.051066,0.015087 2.099178,-0.1013269 3.138305,-0.2581972 1.47033,-0.2008239 2.934356,-0.4417471 4.410541,-0.5982275 0.957093,-0.058287 1.893459,0.1491839 2.842178,0.2296788 0.936852,0.145196 1.865688,0.333173 2.800829,0.4883308 0.910074,0.1246331 1.812517,0.3421416 2.692098,0.6077798 0.881682,0.1818609 1.761448,0.3802079 2.648495,0.5361168 0.628825,0.1886566 1.294691,0.2571348 1.920438,0.4550965 0.287978,0.091104 0.680474,0.2716536 0.95802,0.3933235 0.881427,0.3355549 1.519668,0.9818365 2.15461,1.6495562 0.801074,0.8304548 1.619533,1.6438165 2.484996,2.4074328 0.883303,0.8117946 1.971355,1.3210432 3.034059,1.8491454 0.709747,0.327237 1.347406,0.775741 1.972855,1.23858 0.574455,0.450197 1.226905,0.7746 1.823178,1.195148 0.895302,0.649398 1.651261,1.465418 2.394836,2.278521 0.793811,0.836223 1.618879,1.644503 2.34243,2.543491 0.684237,0.916221 1.383141,1.817185 2.123919,2.688612 0.855652,1.029386 1.804808,1.973 2.763994,2.904651 0.819716,0.776216 1.65994,1.528119 2.285526,2.47409 0.521025,0.821865 0.889564,1.72483 1.342107,2.5838 0.449146,0.886137 1.102529,1.64043 1.65754,2.459411 0.548135,0.78854 0.879121,1.693553 1.16613,2.602523 0.33355,1.296019 0.471064,2.633028 0.591934,3.962755 0.100716,1.158668 0.273256,2.317197 0.180636,3.480633 -0.120165,1.106109 -0.80037,1.983491 -1.371764,2.896177 -0.639619,0.983451 -1.047088,2.087195 -1.468395,3.175024 -0.382116,1.110022 -0.916882,2.15401 -1.484416,3.178003 -0.549566,0.923734 -0.907631,1.940647 -1.350229,2.915742 -0.373348,0.990246 -1.054217,1.779096 -1.731936,2.570277 -0.696981,0.838419 -1.385562,1.683189 -2.061279,2.538804 -0.313621,0.351702 -0.611621,0.756568 -1.026776,1.000191 -7.941585,4.660281 -8.275035,5.311346 -13.182852,7.49191 -1.18537,0.545335 -2.295374,1.233797 -3.449828,1.837266 -1.233797,0.596234 -2.561365,0.978662 -3.89034,1.296863 -1.905455,0.479857 -3.811082,0.958644 -5.717246,1.435741 -1.94496,0.450799 -3.944538,0.562615 -5.934385,0.531675 -2.213451,-0.156398 -4.428712,-0.260057 -6.646415,-0.329102 -1.614559,-0.03566 -3.232116,-0.0312 -4.842484,-0.171728 -0.858411,-0.07491 -1.724236,-0.200131 -2.577846,-0.313733 -1.760958,-0.280503 -3.523215,-0.597934 -5.245232,-1.067956 -0.853517,-0.232968 -1.524087,-0.47085 -2.359842,-0.751239 -1.730137,-0.624607 -3.483404,-1.25035 -5.081212,-2.177545 -0.315365,-0.183004 -0.614175,-0.393155 -0.921263,-0.58973 -1.749602,-1.227907 -3.117087,-2.884722 -3.812193,-4.925866 -0.17195,-0.504921 -0.270664,-1.031886 -0.405996,-1.547831 -0.05924,-0.575355 -0.168374,-1.147744 -0.177711,-1.726068 -0.04546,-2.815767 0.964906,-5.554443 2.472601,-7.898947 0.44192,-0.687197 0.965946,-1.317985 1.448919,-1.976978 1.520894,-1.648642 1.888578,-2.180722 3.666861,-3.571181 0.668604,-0.522791 1.393695,-0.969008 2.090544,-1.453513 0,0 10.588162,-4.135937 10.588162,-4.135937 v 0 c -0.710973,0.442571 -1.449795,0.843259 -2.132915,1.327716 -1.772169,1.256789 -2.090989,1.720178 -3.584162,3.252271 -0.453665,0.590751 -0.946965,1.153076 -1.360993,1.772251 -1.359043,2.032426 -2.320052,4.451779 -2.2235,6.931853 0.01937,0.497179 0.136774,0.985666 0.20516,1.4785 0.142174,0.435512 0.249333,0.884055 0.426517,1.306533 0.743532,1.772867 2.126194,3.097536 3.723714,4.109876 1.82313,1.054346 3.747058,1.902135 5.731301,2.608527 2.371084,0.82858 4.807598,1.44888 7.316131,1.680475 1.04489,0.09605 1.549622,0.153694 2.590284,0.205777 1.631058,0.08163 3.26495,0.04673 4.896776,0.09885 2.251035,0.05298 4.500422,0.187238 6.752307,0.183327 1.944362,-0.09226 3.884972,-0.283792 5.773727,-0.77964 1.957437,-0.474945 3.904906,-0.994584 5.829104,-1.590976 1.344681,-0.458891 2.682528,-0.952857 3.91383,-1.672418 1.131057,-0.625793 2.287387,-1.202423 3.451942,-1.763168 0.202552,-0.104941 0.407514,-0.205356 0.607658,-0.314822 0.181335,-0.09918 0.715097,-0.414893 0.536461,-0.310936 -3.724343,2.167369 -7.44974,4.332931 -11.173576,6.501172 -0.131813,0.07675 0.264409,-0.152167 0.397499,-0.226681 0.127281,-0.07126 0.261462,-0.130866 0.383585,-0.210643 0.125826,-0.08219 0.238771,-0.182592 0.358156,-0.273889 0.816647,-0.756888 1.470038,-1.665295 2.200683,-2.502204 0.235968,-0.307745 0.41933,-0.555919 0.67007,-0.849072 0.389578,-0.455475 0.816983,-0.883303 1.104191,-1.417045 0.06648,-0.120914 0.42609,-0.771099 0.484047,-0.892336 0.332291,-0.695092 0.56996,-1.435076 0.923777,-2.121133 0.557996,-0.976331 1.125834,-1.944383 1.559468,-2.984783 0.420981,-1.153834 0.87485,-2.298218 1.39434,-3.411378 0.264227,-0.459262 0.497965,-0.946854 0.793605,-1.38715 0.07541,-0.11231 0.170291,-0.210759 0.245036,-0.323517 0.07054,-0.106412 0.312261,-0.555376 0.375608,-0.67157 0.113257,-0.353441 0.15971,-0.456285 0.222096,-0.832065 0.134573,-0.810556 0.04782,-1.63582 0.0346,-2.451708 -0.10872,-1.212326 -0.281897,-2.420848 -0.6825,-3.576127 C 83.909724,38.967248 83.581123,38.193485 83.15568,37.482131 82.614811,36.613806 82.032829,35.772013 81.49646,34.900883 81.040456,34.089549 80.631135,33.253748 80.16967,32.445822 79.601853,31.59602 78.951441,30.804151 78.221159,30.087882 77.263695,29.111778 76.310844,28.132002 75.374324,27.135611 74.582471,26.277804 73.84688,25.374146 73.137415,24.447241 72.433084,23.591004 71.691666,22.763112 70.900847,21.98568 70.167528,21.286449 69.459186,20.547578 68.560097,20.056014 67.869593,19.683097 67.140973,19.36544 66.5413,18.846758 65.989316,18.428137 65.439591,18.004937 64.848149,17.642311 63.792763,16.976259 62.739177,16.298829 61.799932,15.472041 60.893774,14.68936 59.997646,13.895473 59.077727,13.128868 58.516585,12.632129 57.93152,12.174243 57.217494,11.915612 56.34289,11.597894 55.412758,11.455591 54.50129,11.281771 53.591224,11.096572 52.678488,10.920962 51.784286,10.666824 50.916106,10.462279 50.040029,10.304138 49.16226,10.148947 48.24522,9.9658481 47.318165,9.8423229 46.385598,9.7714706 45.541403,9.6669655 44.694808,9.5576196 43.843074,9.6540972 c -1.404868,0.1071094 -2.799958,0.2961492 -4.188669,0.5342718 -1.201158,0.18748 -2.411129,0.343701 -3.597552,0.60884 -0.452171,0.08086 -0.918954,0.07045 -1.370658,0.17548 -0.495419,0.04735 -0.999242,0.02345 -1.477569,0.196467 -0.555979,0.199109 -1.102648,0.416883 -1.662535,0.600855 -0.07987,0.04206 -0.15674,0.09042 -0.239623,0.126187 -0.135337,0.05841 -0.287504,0.07453 -0.419248,0.140643 -0.101008,0.05069 -0.08854,0.1194 -0.215554,0.124045 -0.05696,0.0021 -0.11173,-0.02259 -0.167595,-0.03389 -0.138832,0.09958 -0.328348,0.230749 -0.49784,0.26337 -0.06579,0.01266 -0.135411,-0.0043 -0.200707,0.01068 -0.06366,0.01463 -0.120179,0.05123 -0.180269,0.07685 -0.465018,0.156754 0.07208,-0.01399 -0.453374,0.117099 -0.39942,0.09965 -0.779682,0.277201 -1.177364,0.384026 -0.772631,0.276311 -1.49842,0.642168 -2.222057,1.027253 -4.39969,2.254025 -10.461865,6.109553 9.263792,-5.4326563 -1.042959,0.5728152 -2.060536,1.189043 -3.060931,1.8332593 -0.852765,0.53627 -1.744718,1.009318 -2.553213,1.611301 -0.794258,0.656754 -1.60996,1.292948 -2.330532,2.033205 -0.745195,0.74191 -1.479332,1.495088 -2.239839,2.221343 -0.622975,0.578903 -1.271323,1.125372 -1.903307,1.692084 -0.08924,0.07868 -0.184447,0.151071 -0.267718,0.236044 -0.418353,0.4269 -0.0236,0.08632 -0.405224,0.505302 -0.05864,0.06438 -0.138919,0.107261 -0.194918,0.173952 -0.653156,0.77787 0.323883,-0.254048 -0.298598,0.388825 -0.148566,0.157607 -0.294926,0.315551 -0.431359,0.48396 -0.04922,0.06075 -0.08776,0.131126 -0.145062,0.184316 -0.05547,0.05149 -0.133422,0.07444 -0.189025,0.125789 -0.06155,0.05683 -0.105633,0.130057 -0.158449,0.195085 -0.108792,0.147708 -0.201442,0.307552 -0.318337,0.448933 -0.227947,0.275698 -0.527587,0.492764 -0.777439,0.746938 -0.105692,0.0886 -0.253499,0.220997 -0.375477,0.291559 -0.111145,0.0643 -0.391696,0.172219 -0.487695,0.243926 -0.05188,0.03875 -0.08474,0.09793 -0.127115,0.146894 -0.340159,0.400667 0.08424,-0.05895 -0.330275,0.265055 -0.273721,0.213953 -0.463825,0.539413 -0.687233,0.799386 -0.11931,0.19958 -0.255868,0.335726 -0.399877,0.51456 -0.08415,0.104496 -0.13396,0.23446 -0.221833,0.33584 -0.03877,0.04473 -0.09479,0.07091 -0.142182,0.106368 -0.27358,0.203185 -0.03002,-0.01083 -0.24683,0.308619 -0.138297,0.203774 -0.358453,0.36033 -0.436287,0.605577 0,0 -12.8245945,5.684049 -12.8245945,5.684049 z"
       inkscape:connector-curvature="0" />
    <path
       style="fill:#000000;stroke-width:0.26458332"
       id="path25"
       d="m 41.188478,14.632459 c 0.04447,-0.233546 0.06843,-0.473425 0.04791,-0.711198 -0.0047,-0.05456 -0.01027,-0.110055 -0.02789,-0.161913 -0.008,-0.02347 -0.06879,-0.04657 -0.04672,-0.05784 4.174461,-2.132289 8.370874,-4.22132 12.556313,-6.3319803 -0.03477,0.08874 -0.08356,0.1731973 -0.10431,0.2662206 -0.07321,0.3282627 -0.16919,1.28026 -0.189468,1.5342753 -0.112093,1.4042024 -0.09994,2.7973374 -0.07021,4.2043704 0.121761,2.646643 0.355221,5.2867 0.46669,7.933998 0.08609,2.044491 0.08368,2.90704 0.113372,4.975236 0.106423,5.259134 -0.369102,10.497607 -0.840785,15.728363 -0.417476,4.417002 -0.463614,8.852128 -0.485093,13.284571 -0.0075,4.20498 -0.383558,8.394745 -0.728832,12.581612 -0.184028,2.489528 -0.367329,4.982297 -0.32204,7.480625 0.01897,1.046591 0.07001,1.609561 0.140785,2.634644 0.30829,2.375966 0.369358,4.765299 0.308499,7.157156 -0.150503,2.655573 -0.361014,5.306693 -0.489834,7.963646 -0.02479,1.743867 -0.0078,3.493109 0.165833,5.22963 0.844262,5.622885 3.853971,0.778783 -11.57755,8.643285 -0.387522,0.1975 -0.452909,-0.74268 -0.679363,-1.11403 0,0 12.211098,-6.886735 12.211098,-6.886735 v 0 c -0.188291,-0.286502 -0.262536,-1.021152 -0.564875,-0.85951 -4.072885,2.177505 -7.801515,4.945305 -11.702272,7.417955 0.06219,-0.0454 0.148357,-0.0694 0.186581,-0.13629 0.127577,-0.22317 0.149765,-0.74911 0.171837,-0.9569 0.130307,-1.86313 0.114588,-3.73386 0.298209,-5.594049 0.277818,-2.641762 0.622707,-5.282073 0.64148,-7.942958 -0.0089,-1.166498 0.0059,-1.335371 -0.06458,-2.483642 -0.09492,-1.547169 -0.28444,-3.090825 -0.241075,-4.644413 0.142055,-3.567909 0.687067,-7.101922 0.991047,-10.657494 0.171125,-1.93757 0.226679,-2.368084 0.328184,-4.30749 0.141756,-2.70849 0.184716,-5.421524 0.286173,-8.13154 0.167966,-4.549706 0.474335,-9.094819 0.959173,-13.622319 0.546211,-5.171543 1.224669,-10.36157 0.881438,-15.573616 -0.0546,-0.819242 -0.09449,-1.639596 -0.163785,-2.457725 C 43.36265,25.709845 42.820323,22.41389 42.315533,19.116298 42.059691,17.423064 42.142006,17.8828 41.855488,16.29381 41.702244,15.44395 41.584116,14.535541 41.153932,13.771287 69.223864,-0.67810923 52.691485,3.2045924 53.683543,8.265909 c 0,0 -12.495064,6.366553 -12.495064,6.366553 z"
       inkscape:connector-curvature="0" />
    <path
       style="fill:#000000;stroke-width:0.26458332"
       id="path33"
       d="m 75.789392,63.556646 c -0.498112,0.159661 -0.932304,0.53792 -1.303941,0.89897 -0.490976,0.473549 -0.897964,1.027515 -1.268105,1.598544 -0.459179,0.692427 -0.803029,1.442873 -1.104048,2.214173 -0.194546,0.593394 -0.331147,1.20283 -0.442156,1.81659 -0.10278,0.571502 -0.267269,1.128056 -0.433932,1.683324 -0.178676,0.532667 -0.342419,1.069567 -0.504693,1.607309 -0.145926,0.433155 -0.2164,0.880777 -0.282983,1.331024 0.01048,0.564575 0.136012,1.119245 0.231894,1.674439 0.08275,0.511387 0.201213,1.014225 0.380588,1.50019 0.121052,0.416489 0.324088,0.794128 0.529944,1.17275 0.298146,0.507211 0.590177,1.017471 0.89933,1.518618 0.266401,0.431398 0.487912,0.883129 0.792157,1.291114 0.304146,0.347612 0.686477,0.614222 1.006893,0.950174 0.324292,0.358984 0.624324,0.740633 0.979715,1.069864 0.20752,0.23816 0.479467,0.375272 0.720857,0.567648 0.177583,0.101311 0.308115,0.269888 0.476578,0.382021 0.05363,0.0357 0.118155,0.05174 0.174914,0.08222 0.174355,0.09364 0.290819,0.176823 0.45711,0.287099 0.378547,0.227827 0.73021,0.395772 1.176147,0.397904 0.164308,-0.03628 0.356441,0.0149 0.518239,-0.03007 0.05924,-0.01646 0.104841,-0.06629 0.162904,-0.08652 0.09646,-0.03361 0.361802,-0.06565 0.455491,-0.07887 0.501753,-0.09222 1.03252,0.03794 1.518208,-0.117316 0.326496,-0.116906 0.682567,-0.05773 1.016923,-0.117099 0.161005,-0.02859 0.315005,-0.08876 0.474922,-0.122915 0.302485,-0.215704 0.673759,-0.167952 1.015431,-0.233426 0.08538,-0.01635 0.164579,-0.05606 0.24687,-0.08409 0.09269,-0.01558 0.185369,-0.03119 0.278056,-0.04679 0.24783,-0.02527 0.545049,-0.111385 0.775507,-0.208751 0.07298,-0.03083 0.133847,-0.08555 0.205351,-0.119661 0.426542,-0.20347 0.02828,0.04859 0.404317,-0.209508 0.06933,-0.02796 0.138663,-0.05592 0.207995,-0.08389 0.0733,-0.01691 0.149767,-0.02352 0.219903,-0.05072 0.417597,-0.161949 -0.07742,-0.05748 0.377417,-0.166907 0.07036,-0.01693 0.148543,-0.0053 0.214141,-0.03583 0.05626,-0.02622 0.09059,-0.08486 0.13589,-0.127299 0.05388,-0.02371 0.107765,-0.04742 0.161647,-0.07113 0.06058,-0.0099 0.124545,-0.0075 0.181748,-0.02974 0.05108,-0.0199 0.08541,-0.07068 0.135162,-0.09371 0.05507,-0.02548 0.120584,-0.02318 0.175072,-0.04987 0.100671,-0.04933 0.202263,-0.166447 0.277646,-0.242928 -3.90521,2.254436 -7.810423,4.508873 -11.715634,6.763309 0.235702,-0.0871 0.295778,-0.09 0.500658,-0.244518 0.213202,-0.160792 0.409633,-0.355542 0.620856,-0.521494 0.125605,-0.202176 0.35974,-0.258717 0.527497,-0.409519 0.217469,-0.19549 0.223443,-0.25673 0.503378,-0.40612 0.377195,-0.292015 0.646125,-0.684392 1.004495,-0.99873 0.113716,-0.240107 0.339929,-0.304218 0.531178,-0.448683 0.534657,-0.403863 -0.280062,0.121991 0.299207,-0.239229 0.378261,-0.277495 0.82025,-0.45557 1.157213,-0.786952 0.155773,-0.03804 0.315463,-0.283779 0.429876,-0.359111 0.03949,-0.02601 0.09661,-0.01085 0.137637,-0.03436 0.259969,-0.148971 -0.04763,-0.09151 0.240048,-0.119057 0.367861,-0.157589 0.599192,-0.511615 0.905775,-0.757402 0.295193,-0.209709 0.429337,-0.556755 0.6483,-0.831347 0.421574,-0.528677 -0.07136,0.192915 0.32444,-0.410901 0.272082,-0.502801 0.637236,-0.954122 0.896078,-1.462614 0.153638,-0.152328 0.22547,-0.370975 0.366109,-0.531778 0.04446,-0.05083 0.110972,-0.07909 0.155451,-0.129897 0.111681,-0.127564 0.187679,-0.282411 0.281501,-0.42363 0.458142,-0.649999 0.714896,-1.426342 1.002186,-2.163167 0.46446,-1.092703 0.749326,-2.243156 1.068329,-3.382835 0.403839,-1.340144 0.65078,-2.715821 0.668253,-4.115118 -0.03627,-1.074184 -0.279974,-2.125683 -0.48872,-3.175733 0,0 11.818064,-6.330367 11.818064,-6.330367 v 0 c 0.246902,1.133395 0.575715,2.256784 0.60552,3.425335 0.0154,1.47896 -0.169666,2.936526 -0.444492,4.388887 -0.279799,1.142958 -0.545237,2.291792 -0.889939,3.416882 -0.232135,0.756089 -0.477274,1.50849 -0.667607,2.27616 -0.07099,0.152861 -0.158536,0.298104 -0.222427,0.45406 -0.03463,0.08452 -0.04026,0.180535 -0.08358,0.260945 -0.100824,0.187166 -0.341587,0.309777 -0.408106,0.524716 -0.32693,0.307581 -0.04692,0.0136 -0.333388,0.424284 -0.216279,0.310062 -0.457454,0.601882 -0.645359,0.932195 -0.09728,0.173236 -0.158625,0.36552 -0.2604,0.536152 -0.0446,0.07478 -0.114845,0.130977 -0.169347,0.198877 -0.165872,0.206645 -0.315243,0.424786 -0.406384,0.675769 -0.204838,0.348033 -0.534889,0.595675 -0.715605,0.961364 -0.183867,0.366323 0.03945,0.01283 -0.220025,0.2164 -0.04822,0.03784 -0.06219,0.111321 -0.113742,0.144476 -0.05007,0.03221 -0.119673,0.01606 -0.173926,0.04055 -0.02143,0.0097 -0.324639,0.225224 -0.338074,0.234712 -0.417044,0.203364 -0.694351,0.615109 -1.119831,0.812692 -0.04972,0.0357 -0.09944,0.07139 -0.149164,0.107085 -0.05383,0.01945 -0.113419,0.02727 -0.161483,0.05834 -0.04962,0.03208 -0.07984,0.08747 -0.124296,0.126394 -0.139814,0.122391 -0.308332,0.173336 -0.479364,0.237561 -0.361183,0.313024 -0.794332,0.537351 -1.052774,0.952752 -0.141748,0.224647 -0.08935,0.19785 -0.298633,0.333586 -0.05808,0.03766 -0.127511,0.0579 -0.180925,0.101923 -0.192815,0.158925 -0.28748,0.41383 -0.555289,0.481179 -0.20016,0.176239 -0.459197,0.345223 -0.643604,0.514062 -0.112969,0.103431 -0.269544,0.324006 -0.361262,0.446466 -4.040092,2.334075 -8.080182,4.668147 -12.120271,7.002221 -0.362691,0.101114 -0.709912,0.210596 -1.040432,0.387067 -0.2779,0.02281 -0.29804,0.101457 -0.54261,0.188741 -0.198869,0.07097 -0.394314,0.129016 -0.582639,0.231248 -0.07881,0.01646 -0.157612,0.03294 -0.236418,0.04941 -0.07264,0.02199 -0.143648,0.05036 -0.217927,0.06594 -0.344826,0.07232 -0.700913,0.08332 -1.041297,0.17803 -1.189159,0.300845 0.638837,-0.149492 -0.560088,0.105283 -0.345337,0.07338 -0.668703,0.260993 -1.032444,0.236448 -0.511546,0.06914 -1.029452,0.101523 -1.540542,0.176014 -0.510789,-0.02394 -1.014725,0.0584 -1.519671,0.129347 -0.130541,0.01326 -0.398817,0.04637 -0.528011,0.0348 -0.324101,-0.02903 -0.652573,-0.128961 -0.957434,-0.237366 -0.471924,-0.215966 -0.902952,-0.504155 -1.341387,-0.77988 -0.444122,-0.251775 -0.869141,-0.532003 -1.298954,-0.807109 -0.297111,-0.225105 -0.524793,-0.517827 -0.768771,-0.796885 -0.298547,-0.366313 -0.637323,-0.698511 -0.954058,-1.049036 -0.377198,-0.368112 -0.795898,-0.695987 -1.085405,-1.145625 -0.319397,-0.452101 -0.582377,-0.934254 -0.860388,-1.411832 -0.277643,-0.505415 -0.531421,-1.026914 -0.86351,-1.500055 -0.30135,-0.439323 -0.620639,-0.88936 -0.733113,-1.419569 -0.170508,-0.557433 -0.32185,-1.115325 -0.398269,-1.695091 -0.06465,-0.297804 -0.105786,-0.596474 -0.16519,-0.895114 -0.0431,-0.216644 -0.10789,-0.428649 -0.149464,-0.645591 -0.0196,-0.102344 -0.02635,-0.20674 -0.03954,-0.310111 -0.09308,-0.574077 -0.06503,-1.158253 0.07925,-1.723442 0.151472,-0.559602 0.320313,-1.113534 0.503458,-1.663499 0.181832,-0.510913 0.340936,-1.031674 0.473477,-1.557158 0.182986,-0.668475 0.303345,-1.354883 0.524359,-2.01426 0.244192,-0.839763 0.56135,-1.660273 0.951812,-2.442964 0.321358,-0.63175 0.654018,-1.253572 1.071271,-1.8279 0.126371,-0.161065 0.233844,-0.336531 0.362493,-0.495784 0.19695,-0.243808 0.477634,-0.424786 0.610354,-0.718648 0,0 13.087585,-5.049129 13.087585,-5.049129 z"
       inkscape:connector-curvature="0" />
    <path
       style="fill:#000000;stroke-width:0.26458332"
       id="path37"
       d="m 33.755962,13.989078 c 0.279104,1.368834 0.316764,2.760222 0.328861,4.152304 -0.02405,2.486822 -0.265356,4.964071 -0.498261,7.437899 -0.250539,2.675644 -0.377946,5.359488 -0.396263,8.046159 0.01622,1.998345 0.07451,3.993962 -0.01834,5.991096 -0.126966,1.929947 -0.299265,3.855497 -0.39348,5.787588 -0.0656,1.600666 0.02498,3.198839 0.0798,4.797536 0.03847,1.691973 -0.05383,3.381872 -0.02357,5.07492 0.02725,1.35219 0.281204,2.680351 0.470474,4.014944 0.212699,1.278715 0.20556,2.577036 0.213691,3.86884 2e-6,1.507847 0.01804,3.015509 0.02858,4.523245 0.01474,1.406599 0.111503,2.810394 0.183171,4.21471 0.0492,1.323747 0.187065,2.641398 0.285271,3.961799 0.06061,0.758846 0.04206,1.520955 0.07977,2.280983 0.05356,0.789419 0.08441,1.579182 0.09539,2.370611 0.0034,0.929402 -0.08716,1.855121 -0.02788,2.783917 -0.05318,0.2324 0.136504,0.487447 0.101851,0.713261 0.0181,0.198406 -0.05001,0.01921 -0.08065,0.08302 -0.03196,0.06657 0.05679,0.455091 0.06991,0.51119 0.06489,0.301419 0.0223,0.154562 0.127053,0.440775 0,0 -12.177977,6.720335 -12.177977,6.720335 v 0 c -0.104286,-0.32398 -0.04389,-0.161407 -0.182985,-0.487053 -0.10482,-0.298429 -0.292394,-0.585518 -0.345265,-0.891863 -0.01746,-0.294516 0.188254,-0.590151 0.172656,-0.888952 0.134161,-0.908027 0.183621,-1.82507 0.20935,-2.741981 -0.05209,-0.780806 -0.141838,-1.556636 -0.243855,-2.332408 0.01502,-0.790064 -0.04474,-1.589243 0.09814,-2.370454 0.05468,-1.338618 0.113394,-2.68115 -0.01134,-4.018114 -0.132874,-1.424921 -0.330897,-2.849165 -0.257041,-4.284167 0.01041,-1.496526 0.03242,-2.993438 -0.02208,-4.489556 -0.0538,-1.225696 -0.147559,-2.449111 -0.302723,-3.666482 -0.165723,-1.430248 -0.1725,-2.87346 -0.220718,-4.311113 -0.0266,-1.658546 -0.0794,-3.31656 -0.111988,-4.974868 -0.06795,-1.675871 -0.02537,-3.348236 0.111252,-5.020445 0.08853,-1.923626 0.20378,-3.846218 0.314343,-5.76849 0.156625,-2.037173 0.240217,-4.077854 0.34889,-6.117974 0.164734,-2.718287 0.361772,-5.434655 0.496798,-8.154487 0.130078,-2.352477 0.327056,-4.713182 0.158738,-7.068942 -0.112012,-0.941476 -0.193081,-2.256958 -0.673872,-3.10168 -0.04906,-0.0862 -0.118306,-0.15923 -0.177459,-0.238845 0,0 12.191764,-6.847257 12.191764,-6.847257 z"
       inkscape:connector-curvature="0" />
  </g>
</svg>
