<?xml version="1.0" encoding="UTF-8" standalone="no"?>
<!-- Created with Inkscape (http://www.inkscape.org/) -->

<svg
   xmlns:dc="http://purl.org/dc/elements/1.1/"
   xmlns:cc="http://creativecommons.org/ns#"
   xmlns:rdf="http://www.w3.org/1999/02/22-rdf-syntax-ns#"
   xmlns:svg="http://www.w3.org/2000/svg"
   xmlns="http://www.w3.org/2000/svg"
   xmlns:sodipodi="http://sodipodi.sourceforge.net/DTD/sodipodi-0.dtd"
   xmlns:inkscape="http://www.inkscape.org/namespaces/inkscape"
   width="104mm"
   height="104mm"
   viewBox="0 0 104 104"
   version="1.1"
   id="svg8"
   inkscape:version="0.92.3 (2405546, 2018-03-11)"
   sodipodi:docname="R14.svg">
  <defs
     id="defs2" />
  <sodipodi:namedview
     id="base"
     pagecolor="#ffffff"
     bordercolor="#666666"
     borderopacity="1.0"
     inkscape:pageopacity="0.0"
     inkscape:pageshadow="2"
     inkscape:zoom="1.4"
     inkscape:cx="109.47423"
     inkscape:cy="211.13168"
     inkscape:document-units="mm"
     inkscape:current-layer="layer3"
     showgrid="false"
     fit-margin-top="2"
     fit-margin-left="2"
     fit-margin-right="2"
     fit-margin-bottom="2"
     inkscape:window-width="1600"
     inkscape:window-height="845"
     inkscape:window-x="0"
     inkscape:window-y="27"
     inkscape:window-maximized="1" />
  <metadata
     id="metadata5">
    <rdf:RDF>
      <cc:Work
         rdf:about="">
        <dc:format>image/svg+xml</dc:format>
        <dc:type
           rdf:resource="http://purl.org/dc/dcmitype/StillImage" />
        <dc:title></dc:title>
      </cc:Work>
    </rdf:RDF>
  </metadata>
  <g
     inkscape:label="Layer 1"
     inkscape:groupmode="layer"
     id="layer1"
     style="opacity:1"
     transform="translate(-47.136902,-70.26786)"
     sodipodi:insensitive="true">
    <circle
       style="fill:#dedede;stroke-width:0.17248914"
       id="path10"
       cx="99.136902"
       cy="122.26786"
       r="50" />
  </g>
  <g
     inkscape:groupmode="layer"
     id="layer3"
     inkscape:label="Layer 2">
    <path
       style="fill:#000000;stroke-width:0.26458332"
       id="path141"
       d="m 26.58618,34.3648 c 0.115511,-0.147389 0.242509,-0.285525 0.365389,-0.426773 0.227764,-0.265078 0.471131,-0.516072 0.712237,-0.768877 0.300985,-0.31565 0.613977,-0.619352 0.929781,-0.920048 0.346292,-0.32525 0.692491,-0.650717 1.043413,-0.970981 0.372483,-0.333542 0.748527,-0.662959 1.130755,-0.985277 0.38916,-0.327967 0.789302,-0.642625 1.185185,-0.962393 0.393026,-0.322503 0.789313,-0.640916 1.188212,-0.956109 0.397352,-0.317471 0.806882,-0.619236 1.213432,-0.924713 0.418489,-0.312391 0.836055,-0.625996 1.257724,-0.934093 0.405474,-0.297227 0.813223,-0.591315 1.219983,-0.886776 0.403138,-0.298932 0.79743,-0.609516 1.194641,-0.91622 0.376796,-0.29646 0.755306,-0.590729 1.131906,-0.887439 0.353105,-0.280697 0.702315,-0.566036 1.047417,-0.856503 0.338606,-0.286807 0.671698,-0.580031 1.005459,-0.872437 0.311555,-0.279871 0.628914,-0.553145 0.944549,-0.828366 0.30548,-0.263624 0.612423,-0.525538 0.920721,-0.785858 0.292206,-0.248496 0.590402,-0.489757 0.887783,-0.73199 0.279492,-0.229764 0.559795,-0.458543 0.839033,-0.688611 0.260533,-0.216152 0.522634,-0.430403 0.784207,-0.6453 0.270221,-0.219616 0.543766,-0.435029 0.817872,-0.649754 0.276669,-0.217834 0.552648,-0.436531 0.830289,-0.653127 0.262511,-0.207015 0.521374,-0.418542 0.781111,-0.629003 0.263747,-0.217778 0.533087,-0.428499 0.806063,-0.634547 0.278617,-0.209106 0.559065,-0.415693 0.837076,-0.625612 0.243964,-0.190769 0.496856,-0.369272 0.750176,-0.547237 0.239008,-0.166548 0.48325,-0.325424 0.730263,-0.479796 4.269864,-2.604485 8.68757,-5.0306621 12.991536,-7.5153512 0.247843,-0.1403749 0.497644,-0.2770251 0.749144,-0.4107338 0.236146,-0.1245437 0.47621,-0.2413606 0.719614,-0.3509894 0.242657,-0.1130551 0.487955,-0.2193788 0.739772,-0.31026 0.239414,-0.088537 0.485849,-0.1551045 0.732504,-0.2197753 0.21984,-0.05797 0.440862,-0.1112597 0.661858,-0.1646047 0.200358,-0.047905 0.401561,-0.092082 0.602943,-0.1354257 0.196337,-0.04361 0.393687,-0.08027 0.59332,-0.1045876 0.236154,-0.024291 0.473488,-0.014613 0.709018,0.010184 0.258172,0.027523 0.51237,0.080929 0.766595,0.132066 0.28026,0.053818 0.548968,0.1501031 0.808604,0.2666375 0.29373,0.1347925 0.562703,0.3131249 0.825069,0.5000667 0.272507,0.2015493 0.532913,0.4187712 0.791416,0.6377975 0.26964,0.2319321 0.529828,0.474373 0.784006,0.723061 0.277793,0.2765422 0.559993,0.5486185 0.840986,0.8219014 0.308514,0.3000441 0.616421,0.6007129 0.924123,0.9015899 0.315783,0.3073762 0.628057,0.6183196 0.937993,0.9315799 0.298794,0.2981288 0.584782,0.6085678 0.870397,0.9192138 0.283157,0.311426 0.558713,0.629676 0.830987,0.950627 0.275905,0.32749 0.553337,0.653666 0.82758,0.982551 0.281662,0.332953 0.555387,0.67249 0.836213,1.006128 0.279437,0.326595 0.555654,0.655954 0.836848,0.981042 0.28053,0.318068 0.557654,0.639082 0.840518,0.955084 0.283241,0.319892 0.563512,0.64241 0.850762,0.958719 0.301615,0.327622 0.599564,0.658594 0.89939,0.987851 0.328097,0.356462 0.661144,0.708281 0.999517,1.054999 0.382349,0.391457 0.77725,0.770318 1.169858,1.151389 0.377388,0.367299 0.753689,0.735715 1.129964,1.104155 0.355062,0.342147 0.706088,0.688401 1.062085,1.029579 0.345112,0.332032 0.68249,0.671912 1.02267,1.008953 0.324059,0.325539 0.644821,0.654341 0.966327,0.982397 0.346882,0.352499 0.692475,0.70625 1.036106,1.06192 0.368702,0.376691 0.738687,0.752113 1.105701,1.130453 0.351203,0.353051 0.692952,0.715072 1.028565,1.082904 0.325925,0.36173 0.655635,0.719968 0.985676,1.077928 0.310246,0.342649 0.621147,0.684689 0.9299,1.028687 0.306834,0.341987 0.611227,0.686229 0.907483,1.037437 0.284102,0.333893 0.563248,0.67197 0.843683,1.008941 0.262628,0.315036 0.527592,0.628097 0.790175,0.943173 0.266404,0.317347 0.530376,0.636715 0.797608,0.953365 0.244919,0.289042 0.48714,0.580348 0.728959,0.87199 0.238548,0.289968 0.465521,0.589137 0.693102,0.887706 0.216371,0.289878 0.433194,0.579335 0.645507,0.872202 0.228781,0.301469 0.412001,0.631256 0.577491,0.970465 0.17673,0.387141 0.31217,0.79067 0.44014,1.195927 0.14767,0.442479 0.21139,0.901277 0.2464,1.364314 0.0308,0.65881 -0.005,1.318268 -0.0469,1.975723 -0.0428,0.757597 -0.14696,1.508548 -0.28317,2.254364 -0.15211,0.771374 -0.34405,1.534096 -0.53977,2.295326 -0.17623,0.724543 -0.402867,1.432928 -0.694252,2.119037 -0.314537,0.705435 -0.772523,1.32836 -1.247069,1.932342 -0.505584,0.632754 -1.07124,1.212824 -1.657744,1.770007 -0.639231,0.591984 -1.341244,1.109427 -2.044999,1.620846 -0.732737,0.52189 -1.466096,1.042866 -2.207376,1.552575 -0.746874,0.519194 -1.515084,1.005792 -2.298513,1.467604 -4.924734,2.67594 -9.590833,5.84885 -14.629465,8.320939 -0.764368,0.374393 -1.534417,0.736896 -2.307606,1.09265 -0.818065,0.374343 -1.638239,0.744014 -2.458472,1.113573 -0.797864,0.357637 -1.595778,0.715166 -2.392452,1.075449 -0.748787,0.336254 -1.498957,0.669415 -2.246609,1.008187 -0.741299,0.336672 -1.480076,0.678841 -2.219354,1.019921 -0.697322,0.320429 -1.394568,0.641041 -2.090698,0.964057 -0.679053,0.311423 -1.351076,0.637567 -2.017855,0.974371 -0.693314,0.357581 -1.381712,0.724593 -2.068229,1.095031 -0.648915,0.349218 -1.297424,0.699135 -1.949426,1.042566 -0.614802,0.319733 -1.228736,0.641155 -1.846162,0.955802 -0.594956,0.306729 -1.192522,0.608238 -1.791417,0.907177 -0.58728,0.289925 -1.172964,0.583068 -1.758868,0.875758 -0.641869,0.325932 -1.283071,0.653129 -1.926662,0.975656 -0.666848,0.332838 -1.335249,0.662543 -2.001012,0.997548 -0.609581,0.307152 -1.221486,0.609764 -1.826688,0.925489 -0.584603,0.302117 -1.164744,0.612722 -1.748513,0.916432 -0.358616,0.188246 -0.718089,0.374822 -1.0781,0.560377 0,0 12.275137,-7.087053 12.275137,-7.087053 v 0 c 0.360011,-0.185557 0.719484,-0.372133 1.078098,-0.560377 0.583771,-0.30371 1.163913,-0.614317 1.748512,-0.916432 0.605205,-0.315727 1.21711,-0.618339 1.826691,-0.925488 0.665764,-0.335005 1.334165,-0.664713 2.00101,-0.997548 0.643593,-0.32253 1.284795,-0.649727 1.926664,-0.975657 0.585904,-0.29269 1.171585,-0.585835 1.758865,-0.875757 0.598895,-0.29894 1.196464,-0.600451 1.791417,-0.907177 0.617429,-0.314648 1.23136,-0.636069 1.846165,-0.955802 0.652002,-0.343434 1.300511,-0.693349 1.949426,-1.042569 0.686517,-0.370436 1.374915,-0.737447 2.068229,-1.095029 0.666779,-0.336806 1.338802,-0.66295 2.017856,-0.97437 0.696129,-0.323017 1.393375,-0.643628 2.090697,-0.964057 0.739278,-0.34108 1.478053,-0.68325 2.219354,-1.019921 0.747652,-0.338773 1.49782,-0.671936 2.246609,-1.008187 0.796674,-0.360286 1.594588,-0.717812 2.392453,-1.075452 0.820232,-0.369557 1.640406,-0.739227 2.458471,-1.11357 0.773189,-0.355757 1.543238,-0.718257 2.307606,-1.09265 4.678868,-2.295581 10.977843,-6.277092 -9.920809,5.853165 0.783429,-0.461812 1.551639,-0.948409 2.298512,-1.467601 0.741281,-0.509712 1.47464,-1.030685 2.207377,-1.552578 0.703754,-0.511416 1.405771,-1.028859 2.045001,-1.620845 0.586502,-0.557184 1.152158,-1.137251 1.657742,-1.770005 0.474546,-0.603985 0.932532,-1.226907 1.247068,-1.932344 0.291386,-0.68611 0.51802,-1.394492 0.694249,-2.119035 0.195722,-0.76123 0.387667,-1.523955 0.539776,-2.295326 0.136208,-0.745819 0.240392,-1.496769 0.28317,-2.254364 0.04165,-0.657455 0.07776,-1.316913 0.04694,-1.975726 -0.03501,-0.463037 -0.09874,-0.921832 -0.246409,-1.364311 C 88.569503,44.787698 88.43406,44.384168 88.257334,43.99703 88.091845,43.657818 87.908621,43.328034 87.679838,43.026565 87.467526,42.733695 87.250703,42.444238 87.034332,42.154361 86.80675,41.855794 86.579778,41.556622 86.341229,41.266655 86.099411,40.975012 85.857193,40.683706 85.612271,40.394665 85.345002,40.078014 85.08103,39.758646 84.814626,39.441299 84.552045,39.126226 84.287081,38.813163 84.02445,38.498129 83.744016,38.161155 83.46487,37.823079 83.180771,37.489185 82.884512,37.137977 82.580119,36.793736 82.273284,36.451751 81.964532,36.107753 81.65363,35.76571 81.343385,35.423062 81.013344,35.065102 80.683633,34.706864 80.357709,34.345136 80.022096,33.977304 79.680349,33.61528 79.329144,33.262231 78.96213,32.88389 78.592145,32.508467 78.223442,32.131777 77.879812,31.776109 77.534219,31.422355 77.187337,31.069856 76.865831,30.741802 76.545069,30.412999 76.22101,30.087461 75.88083,29.750419 75.543454,29.410538 75.198339,29.078507 74.842343,28.737329 74.491317,28.391075 74.136257,28.048929 73.75998,27.680488 73.383681,27.312072 73.00629,26.944775 72.613683,26.563703 72.218782,26.184842 71.836433,25.793384 71.49806,25.446666 71.165015,25.094847 70.836916,24.738385 70.53709,24.409128 70.239143,24.078156 69.937529,23.750535 69.650276,23.434225 69.370005,23.111708 69.086764,22.791815 68.8039,22.475814 68.526776,22.154799 68.246248,21.836731 67.965052,21.511644 67.688838,21.182284 67.4094,20.855689 67.128572,20.522051 66.854847,20.182514 66.573187,19.849561 66.298942,19.520677 66.02151,19.1945 65.745605,18.86701 65.47333,18.54606 65.197775,18.22781 64.91462,17.916383 64.629005,17.605738 64.343015,17.295299 64.044223,16.997169 63.734285,16.683909 63.422011,16.372966 63.106228,16.065589 62.798525,15.764712 62.490619,15.464044 62.182104,15.164 61.901112,14.890717 61.618912,14.61864 61.341118,14.342098 61.086944,14.09341 60.826752,13.850969 60.557113,13.619037 60.29861,13.400011 60.038204,13.182789 59.765699,12.98124 59.50333,12.794298 59.234358,12.615966 58.940628,12.481173 c -0.259633,-0.116534 -0.528344,-0.21282 -0.808604,-0.266638 -0.254225,-0.05114 -0.508423,-0.104542 -0.766596,-0.132065 -0.235529,-0.0248 -0.472863,-0.03448 -0.709017,-0.01018 -0.199633,0.02432 -0.396981,0.06098 -0.59332,0.104588 -0.201382,0.04334 -0.402585,0.08752 -0.602943,0.135425 -0.220996,0.05335 -0.442018,0.106635 -0.661858,0.164605 -0.246655,0.06467 -0.493091,0.131238 -0.732502,0.219775 -0.251819,0.09088 -0.497117,0.197205 -0.739775,0.310261 -0.243403,0.109628 -0.483465,0.226445 -0.719613,0.350989 -0.251497,0.133709 -0.501301,0.270359 -0.749144,0.410734 C 72.504188,1.8471395 67.595985,4.5597979 63.415994,7.1099068 63.168982,7.264279 62.924739,7.4231541 62.685731,7.5897025 c -0.25332,0.1779653 -0.506212,0.3564683 -0.750176,0.5472374 -0.278011,0.2099186 -0.558459,0.4165058 -0.837075,0.6256115 -0.272976,0.2060488 -0.542317,0.4167698 -0.806064,0.6345468 -0.259736,0.2104617 -0.518599,0.421989 -0.781111,0.6290028 -0.277641,0.216597 -0.553619,0.435294 -0.830289,0.653128 -0.274106,0.214725 -0.54765,0.430138 -0.817872,0.649753 -0.261572,0.214898 -0.523674,0.429148 -0.784207,0.645301 -0.279238,0.230067 -0.559543,0.458846 -0.839033,0.688611 -0.297381,0.242233 -0.59558,0.483494 -0.887783,0.73199 -0.308298,0.26032 -0.615241,0.522234 -0.920721,0.785857 -0.315634,0.275222 -0.632994,0.548496 -0.944552,0.828367 -0.333758,0.292406 -0.66685,0.58563 -1.005456,0.872437 -0.345104,0.290467 -0.694312,0.575805 -1.047419,0.856503 -0.3766,0.29671 -0.755108,0.590978 -1.131904,0.887439 -0.397211,0.306704 -0.791506,0.617288 -1.194644,0.91622 -0.406757,0.295461 -0.814506,0.589549 -1.219983,0.886774 -0.421666,0.308098 -0.839232,0.621703 -1.25772,0.934095 -0.406551,0.305477 -0.816081,0.607243 -1.213432,0.924712 -0.398902,0.315195 -0.795187,0.633606 -1.188212,0.956109 -0.395883,0.319769 -0.796026,0.634426 -1.185186,0.962395 -0.38223,0.322317 -0.758272,0.651735 -1.130755,0.985275 -0.350925,0.320266 -0.697121,0.645731 -1.043413,0.970982 -0.315804,0.300696 -0.628796,0.604397 -0.92978,0.920048 -0.241107,0.252803 -0.484476,0.5038 -0.712238,0.768878 -0.12288,0.141245 -0.249877,0.279384 -0.365389,0.42677 0,0 -12.275137,7.087055 -12.275137,7.087055 z"
       inkscape:connector-curvature="0" />
    <path
       style="fill:#000000;stroke-width:0.26458332"
       id="path143"
       d="m 73.022067,64.208209 c -0.04938,0.136906 -0.04815,0.283179 -0.04877,0.426646 0.0079,0.281946 0.04028,0.562661 0.07415,0.842471 0.04575,0.371641 0.101703,0.741944 0.156361,1.112356 0.06669,0.434411 0.147767,0.866497 0.23264,1.297678 0.09213,0.473781 0.181756,0.948076 0.269076,1.42277 0.08453,0.488177 0.183272,0.973664 0.280586,1.459397 0.09784,0.473829 0.201138,0.946488 0.302604,1.419545 0.09637,0.472792 0.196863,0.944732 0.293473,1.417479 0.09214,0.461192 0.189642,0.921297 0.288033,1.381191 0.10926,0.489254 0.214167,0.979469 0.312536,1.471027 0.103199,0.527289 0.203761,1.055127 0.310433,1.581727 0.10155,0.510456 0.208032,1.019903 0.312002,1.529866 0.09343,0.475956 0.189633,0.951317 0.287952,1.426287 0.08916,0.441928 0.182631,0.882928 0.285527,1.321866 0.113041,0.464796 0.242129,0.925642 0.380757,1.383411 0.134213,0.444976 0.282345,0.885627 0.439132,1.323112 0.144711,0.408112 0.321013,0.803336 0.524639,1.185167 0.214675,0.378637 0.470109,0.731994 0.730914,1.079736 0.251238,0.334115 0.530657,0.645027 0.821325,0.944917 0.279255,0.295536 0.61163,0.524663 0.965645,0.720087 0.3655,0.189698 0.760166,0.29918 1.165114,0.361791 0.466566,0.07027 0.918561,-0.02548 1.362289,-0.162891 0.532881,-0.184269 1.034732,-0.443375 1.528585,-0.712615 4.432067,-2.555499 -7.846295,4.530307 -11.772924,6.789412 -0.08523,0.04904 0.166373,-0.104913 0.24832,-0.159271 0.253852,-0.1684 0.495329,-0.352021 0.736997,-0.537181 0.498906,-0.392086 0.970343,-0.817094 1.433417,-1.250403 0.459237,-0.435276 0.911556,-0.877842 1.358328,-1.32589 0.453494,-0.452252 0.884296,-0.925933 1.304163,-1.409303 0.39642,-0.459751 0.777158,-0.932458 1.147845,-1.413092 0.358651,-0.468347 0.690761,-0.955749 1.012769,-1.449729 0.314373,-0.487376 0.598345,-0.993034 0.872228,-1.503945 0.265594,-0.497435 0.499465,-1.010533 0.721429,-1.528606 0.23114,-0.535651 0.437941,-1.081275 0.634979,-1.630238 0.209889,-0.591553 0.384537,-1.194491 0.549577,-1.799802 0.162639,-0.610184 0.309496,-1.224409 0.454358,-1.839007 0.13127,-0.552665 0.256233,-1.106721 0.367795,-1.6637 0.102571,-0.509064 0.180609,-1.022591 0.24952,-1.537147 0.06375,-0.48446 0.108564,-0.971344 0.144341,-1.458609 0.03119,-0.466682 0.05529,-0.933804 0.07971,-1.400878 0.0214,-0.410975 0.04176,-0.822005 0.06278,-1.233001 0,0 12.275135,-7.087052 12.275135,-7.087052 v 0 c -0.02103,0.410995 -0.04137,0.822023 -0.06278,1.232998 -0.02442,0.467077 -0.04852,0.934196 -0.07971,1.400881 -0.03578,0.487262 -0.08059,0.974146 -0.144343,1.458608 -0.06891,0.514557 -0.146947,1.028081 -0.249518,1.537145 -0.111564,0.556979 -0.236524,1.111038 -0.367795,1.663702 -0.144862,0.614598 -0.291719,1.228823 -0.454358,1.839008 -0.165039,0.605308 -0.339688,1.208249 -0.549577,1.799799 -0.19704,0.548965 -0.403841,1.094587 -0.634981,1.630241 -0.221962,0.51807 -0.455832,1.031171 -0.721429,1.528606 -0.273881,0.510908 -0.557853,1.016566 -0.872225,1.503945 -0.322009,0.493979 -0.654119,0.981379 -1.01277,1.449729 -0.370686,0.480634 -0.751424,0.953338 -1.147844,1.413091 -0.419868,0.48337 -0.85067,0.957049 -1.304163,1.409301 -0.446773,0.448048 -0.899092,0.890617 -1.358329,1.325893 -0.463074,0.433308 -0.934511,0.858316 -1.433417,1.2504 -0.318011,0.243655 -0.637805,0.49517 -0.985316,0.696455 -6.742634,3.905421 -8.465624,4.898712 -12.777351,7.384695 -0.493853,0.26924 -0.995704,0.528344 -1.528583,0.712615 -0.44373,0.137412 -0.895723,0.233154 -1.362292,0.162888 -0.404947,-0.06261 -0.799613,-0.17209 -1.165114,-0.361791 -0.354015,-0.195421 -0.68639,-0.42455 -0.965641,-0.720087 -0.290672,-0.299887 -0.57009,-0.610801 -0.821328,-0.944917 -0.260805,-0.347739 -0.516239,-0.701096 -0.730914,-1.079736 -0.203623,-0.38183 -0.379928,-0.777052 -0.52464,-1.185166 C 64.766633,91.674605 64.6185,91.233955 64.48429,90.788978 64.345659,90.331212 64.216572,89.870364 64.103534,89.40557 64.000635,88.966629 63.90716,88.525629 63.818003,88.083701 63.719683,87.608732 63.623484,87.133373 63.530055,86.657414 63.426084,86.147451 63.3196,85.638004 63.21805,85.127549 63.111378,84.600951 63.010815,84.07311 62.907617,83.545824 c -0.09837,-0.491561 -0.203274,-0.981773 -0.312536,-1.471027 -0.09839,-0.459894 -0.195898,-0.920002 -0.288034,-1.381194 -0.09661,-0.472747 -0.197098,-0.944684 -0.293473,-1.417479 -0.101465,-0.473054 -0.204766,-0.945716 -0.302604,-1.419542 -0.09731,-0.485733 -0.196056,-0.971222 -0.280585,-1.459397 -0.08732,-0.474697 -0.176945,-0.948992 -0.269076,-1.422773 -0.08487,-0.431181 -0.165955,-0.863267 -0.232637,-1.297678 -0.05466,-0.370411 -0.110617,-0.740712 -0.156361,-1.112356 -0.03388,-0.27981 -0.06621,-0.560525 -0.07415,-0.84247 5.29e-4,-0.143468 -5.29e-4,-0.28974 0.04876,-0.426646 0,0 12.275137,-7.087053 12.275137,-7.087053 z"
       inkscape:connector-curvature="0" />
    <path
       style="fill:#000000;stroke-width:0.26458332"
       id="path149"
       d="m 19.962955,17.74249 c 0.0769,-0.11693 0.171468,-0.22035 0.266225,-0.322764 0.194533,-0.209052 0.398396,-0.409171 0.604375,-0.606864 0.256893,-0.245883 0.516714,-0.4886 0.782225,-0.725157 0.279575,-0.251712 0.567742,-0.493444 0.860092,-0.730107 0.312337,-0.253731 0.642017,-0.484447 0.973022,-0.712809 0.328999,-0.227783 0.670808,-0.435987 1.015533,-0.638854 4.310968,-2.533322 -0.938809,0.551109 12.610645,-7.28245 4.034161,-2.3323323 -16.146959,9.311441 -12.106781,6.989551 4.209591,-2.419252 8.501429,-4.9576421 12.783583,-7.3765798 0.330811,-0.184925 0.668134,-0.3578458 1.007766,-0.5258996 0.3371,-0.1644984 0.682347,-0.3115617 1.029589,-0.4531148 0.348136,-0.1451499 0.69908,-0.2832384 1.051751,-0.4169252 0.319675,-0.1213027 0.641508,-0.2367936 0.964192,-0.3498096 0.293065,-0.1021416 0.588647,-0.1967243 0.88501,-0.2887741 0.270033,-0.084459 0.541842,-0.163067 0.814578,-0.2383002 0.27328,-0.079928 0.553243,-0.1311894 0.833458,-0.1794256 0.28719,-0.048096 0.576784,-0.082142 0.866836,-0.107343 0.270881,-0.024728 0.542854,-0.028895 0.814631,-0.033237 0.243258,-0.00778 0.486444,1.373e-4 0.729562,0.0082 0.220586,0.00542 0.440418,0.025442 0.659323,0.052202 0.211643,0.028329 0.418582,0.082485 0.622909,0.1432168 0.211042,0.061586 0.403164,0.1643746 0.585819,0.2845166 0.196051,0.1279728 0.367019,0.2874176 0.532929,0.4513064 0.174175,0.1665702 0.32848,0.3513425 0.472927,0.5437772 0.162232,0.2138031 0.292989,0.4481695 0.420703,0.6834595 0.138703,0.2457598 0.263409,0.4987805 0.380151,0.7555761 0.136885,0.2911928 0.239173,0.5953702 0.329528,0.9035759 0.101894,0.3452209 0.178885,0.6965754 0.250171,1.0491221 0.0707,0.3498895 0.129884,0.7018989 0.185693,1.0544178 0.05546,0.3611555 0.108558,0.7227575 0.149601,1.0858585 0.03728,0.358754 0.06721,0.718221 0.09612,1.07773 0.02947,0.354295 0.04083,0.7098 0.05412,1.064983 0.01381,0.338084 0.01172,0.676577 0.01177,1.014874 0.0028,0.338681 -0.0057,0.67731 -0.02101,1.01562 -0.02167,0.404636 -0.04192,0.809339 -0.06028,1.214139 -0.01897,0.420557 -0.03605,0.841195 -0.0529,1.261841 -0.01106,0.403801 -0.03683,0.80678 -0.06809,1.209439 -0.03586,0.482645 -0.085,0.964149 -0.130516,1.445942 -0.05122,0.558573 -0.109231,1.116494 -0.162563,1.67487 -0.05678,0.62196 -0.117935,1.243525 -0.182901,1.864683 -0.07694,0.722934 -0.14424,1.446832 -0.209098,2.170933 -0.06637,0.739111 -0.132815,1.478235 -0.201565,2.217132 -0.07239,0.758272 -0.139573,1.517018 -0.204141,2.275991 -0.06082,0.715415 -0.117756,1.431147 -0.171435,2.14713 -0.05493,0.73442 -0.0994,1.469552 -0.141525,2.204797 -0.04219,0.750171 -0.07987,1.500587 -0.116787,2.251033 -0.03686,0.71778 -0.05514,1.436365 -0.07396,2.154798 -0.02021,0.781683 -0.04508,1.563299 -0.07591,2.34464 -0.03275,0.77021 -0.0672,1.540348 -0.100184,2.31055 -0.03227,0.723162 -0.05687,1.446636 -0.08853,2.169817 -0.03402,0.768469 -0.07973,1.536366 -0.130003,2.303922 -0.0499,0.749578 -0.09849,1.499243 -0.144888,2.249046 -0.0453,0.72454 -0.08483,1.449417 -0.121248,2.174452 -0.03746,0.782306 -0.08172,1.564275 -0.1225,2.346417 -0.03969,0.760691 -0.07688,1.521508 -0.111508,2.282447 -0.03593,0.786553 -0.06466,1.573406 -0.09221,2.360287 -0.02659,0.772078 -0.05167,1.544206 -0.0761,2.316353 -0.02175,0.720622 -0.05529,1.440831 -0.08521,2.161148 -0.02908,0.702903 -0.0554,1.405914 -0.08073,2.108957 -0.02339,0.649637 -0.04556,1.299316 -0.06682,1.949027 -0.01963,0.602347 -0.0377,1.204745 -0.05515,1.807159 -0.01648,0.567357 -0.0313,1.134761 -0.04551,1.702179 -0.01347,0.541962 -0.02585,1.08395 -0.03755,1.625954 -0.01154,0.535104 -0.02154,1.070237 -0.03099,1.605381 -0.0093,0.532976 -0.01752,1.065974 -0.02558,1.598972 -0.0067,0.493379 -0.01289,0.986708 -0.02826,1.479902 -0.01746,0.474961 -0.02965,0.950129 -0.05061,1.424953 -0.02278,0.468204 -0.04742,0.936316 -0.07052,1.404504 -0.02146,0.434321 -0.04174,0.868701 -0.061,1.303125 -0.01844,0.417428 -0.03478,0.834943 -0.05039,1.252485 -0.01479,0.402265 -0.02837,0.804571 -0.04158,1.206892 -0.01767,0.382529 -0.04065,0.764791 -0.06187,1.147132 -0.01961,0.352918 -0.03821,0.705885 -0.05643,1.058873 -0.01733,0.333018 -0.03221,0.666155 -0.04667,0.999308 -0.0092,0.31542 -0.03282,0.630052 -0.05573,0.944692 -0.02162,0.296646 -0.04216,0.593368 -0.06142,0.890177 -0.01865,0.285761 -0.03504,0.571667 -0.05106,0.857586 -0.01479,0.267402 -0.02857,0.534858 -0.04215,0.802326 -0.01249,0.247192 -0.02384,0.49444 -0.03478,0.741706 -0.0096,0.219382 -0.01916,0.438772 -0.0287,0.658159 -0.0056,0.125666 -0.0028,0.06358 -0.0084,0.186259 0,0 -12.275138,7.087052 -12.275138,7.087052 v 0 c 0.0056,-0.122677 0.0028,-0.06059 0.0084,-0.186259 0.0096,-0.219387 0.01905,-0.438774 0.0287,-0.658159 0.01095,-0.247263 0.02228,-0.494514 0.03478,-0.741706 0.01357,-0.267465 0.02735,-0.534921 0.04215,-0.802325 0.01603,-0.28592 0.03241,-0.571823 0.05106,-0.857586 0.01926,-0.296807 0.03979,-0.593532 0.06142,-0.890178 0.02291,-0.314637 0.04653,-0.629269 0.05573,-0.944692 0.01445,-0.333153 0.02935,-0.666287 0.04667,-0.999307 0.0182,-0.352989 0.03684,-0.705956 0.05643,-1.058871 0.02122,-0.382344 0.0442,-0.764606 0.06187,-1.147132 0.0132,-0.402321 0.02679,-0.80463 0.04158,-1.206895 0.01561,-0.417541 0.03195,-0.835056 0.05039,-1.252484 0.01926,-0.434425 0.03954,-0.868805 0.061,-1.303126 0.0231,-0.468188 0.04775,-0.936297 0.07052,-1.404504 0.02098,-0.474821 0.03314,-0.949991 0.05062,-1.424953 0.01537,-0.493194 0.02156,-0.986523 0.02826,-1.479902 0.0081,-0.532997 0.01625,-1.065995 0.02559,-1.598972 0.0095,-0.535144 0.01947,-1.070277 0.03099,-1.60538 0.01169,-0.542002 0.02408,-1.083993 0.03755,-1.625955 0.01421,-0.567417 0.02903,-1.134819 0.04551,-1.702178 0.01744,-0.602414 0.03551,-1.204812 0.05514,-1.80716 0.02127,-0.649708 0.04343,-1.299387 0.06682,-1.949024 0.02535,-0.703046 0.05165,-1.406057 0.08073,-2.108959 0.02993,-0.720315 0.06345,-1.440524 0.08521,-2.161146 0.02442,-0.77215 0.04951,-1.544278 0.0761,-2.316353 0.02755,-0.786884 0.05628,-1.573736 0.09221,-2.36029 0.03462,-0.760939 0.07181,-1.521753 0.111506,-2.282446 0.04078,-0.782143 0.08504,-1.564109 0.1225,-2.346418 0.03642,-0.725035 0.07594,-1.449909 0.121248,-2.174449 0.0464,-0.749805 0.09499,-1.499468 0.144888,-2.249048 0.05027,-0.767556 0.09599,-1.535454 0.130006,-2.30392 0.03165,-0.723181 0.05626,-1.446657 0.08852,-2.169817 0.03299,-0.770202 0.06744,-1.54034 0.100188,-2.310553 0.03083,-0.781338 0.05571,-1.562954 0.07591,-2.344637 0.01881,-0.718433 0.03709,-1.437018 0.07396,-2.154801 0.03692,-0.750445 0.0746,-1.500859 0.116788,-2.251032 0.04212,-0.735246 0.0866,-1.470377 0.141525,-2.204795 0.05368,-0.715986 0.110617,-1.431718 0.171434,-2.147133 0.06457,-0.75897 0.131755,-1.517719 0.204142,-2.275988 0.06875,-0.738897 0.135197,-1.478023 0.201565,-2.217134 0.06486,-0.724101 0.132159,-1.447999 0.209098,-2.170933 0.06496,-0.621157 0.126116,-1.242721 0.182901,-1.864683 0.05333,-0.558376 0.111347,-1.116295 0.162562,-1.67487 0.04551,-0.481793 0.09465,-0.963296 0.130517,-1.445941 0.03127,-0.402659 0.05705,-0.805639 0.0681,-1.20944 0.01685,-0.420646 0.03394,-0.841284 0.0529,-1.261841 0.01836,-0.4048 0.0386,-0.809502 0.06028,-1.214138 0.01529,-0.33831 0.02384,-0.67694 0.02101,-1.015621 -5.3e-5,-0.338297 0.0021,-0.67679 -0.01177,-1.014873 -0.01328,-0.355184 -0.02466,-0.710688 -0.05412,-1.064984 -0.0289,-0.359509 -0.05884,-0.718976 -0.09612,-1.077729 -0.04104,-0.363101 -0.09414,-0.724703 -0.149603,-1.085859 -0.05581,-0.352519 -0.114996,-0.704528 -0.18569,-1.054417 -0.07129,-0.352547 -0.14828,-0.703902 -0.250171,-1.049123 -0.09036,-0.308205 -0.192646,-0.612383 -0.329531,-0.903576 -0.116742,-0.256795 -0.241448,-0.509816 -0.380151,-0.755576 -0.127714,-0.23529 -0.258471,-0.469656 -0.4207,-0.683459 -0.14445,-0.192435 -0.298755,-0.377207 -0.47293,-0.543778 -0.165909,-0.163888 -0.336878,-0.323333 -0.532926,-0.451306 -0.182658,-0.120142 -0.37478,-0.222931 -0.585822,-0.284516 -0.204327,-0.06073 -0.411266,-0.114888 -0.622909,-0.143217 -0.218905,-0.02676 -0.438737,-0.04678 -0.659323,-0.0522 -0.243117,-0.0081 -0.486304,-0.01597 -0.729562,-0.0082 -0.271777,0.0043 -0.54375,0.0085 -0.814631,0.03324 -0.290052,0.0252 -0.579646,0.05925 -0.866836,0.107343 -0.280215,0.04824 -0.560178,0.0995 -0.833458,0.179426 -0.272735,0.07523 -0.544542,0.153842 -0.814578,0.2383 -0.296363,0.09205 -0.591945,0.186633 -0.88501,0.288774 -0.322683,0.113016 -0.644517,0.228507 -0.96419,0.34981 -0.352673,0.133687 -0.703617,0.271775 -1.05175,0.416925 -0.347245,0.141553 -0.692491,0.288616 -1.029592,0.453115 -0.339631,0.168054 -0.676953,0.340974 -1.007765,0.5259 -3.94392,2.227873 15.694,-9.0545534 11.766689,-6.7975282 -41.5163736,23.8594602 8.167817,-4.6026942 -0.503862,0.2928993 -0.344725,0.2028674 -0.686535,0.411071 -1.015534,0.6388537 -0.331004,0.2283616 -0.660686,0.4590785 -0.973021,0.7128089 -0.292351,0.2366637 -0.580517,0.4783947 -0.860092,0.7301076 -0.265512,0.2365566 -0.525333,0.479274 -0.782227,0.7251565 -0.205978,0.1976938 -0.40984,0.3978122 -0.604375,0.6068652 -0.09476,0.102413 -0.189325,0.205833 -0.266223,0.322763 0,0 -12.275138,7.087054 -12.275138,7.087054 z"
       inkscape:connector-curvature="0" />
    <path
       style="fill:#000000;stroke-width:0.26458332"
       id="path151"
       d="M 2.3985859,36.452312 C 2.548989,36.300187 2.7058763,36.154664 2.8608636,36.007254 3.1055109,35.773418 3.3608539,35.551633 3.6178392,35.331603 3.9121757,35.080146 4.2033983,34.825101 4.4970469,34.572844 4.8316999,34.290119 5.1707242,34.01252 5.5144278,33.74087 5.878051,33.4519 6.2511312,33.175022 6.6293036,32.905456 c 0.3996222,-0.28312 0.8116581,-0.547925 1.229047,-0.803902 0.410981,-0.24524 0.8241763,-0.486751 1.23718,-0.728567 0.4142975,-0.243274 0.8271933,-0.488921 1.2421064,-0.731144 4.454648,-2.668233 8.964126,-5.241169 13.496694,-7.772791 0.400102,-0.220474 0.807189,-0.428075 1.215801,-0.632252 0.412671,-0.204086 0.835859,-0.385458 1.260256,-0.563433 0.393198,-0.167493 0.793928,-0.315248 1.197746,-0.45473 0.37275,-0.131563 0.75234,-0.241009 1.134041,-0.343001 0.356952,-0.09754 0.719338,-0.172406 1.082019,-0.244875 0.323823,-0.06287 0.647157,-0.128591 0.972531,-0.183014 0.289137,-0.04905 0.581467,-0.07448 0.8743,-0.08594 0.265983,-0.01265 0.531349,0.0035 0.795713,0.03146 0.246616,0.0226 0.481576,0.09314 0.709713,0.186136 0.22547,0.09697 0.433491,0.227854 0.638477,0.36156 0.204811,0.130677 0.393888,0.283405 0.574574,0.445276 0.191765,0.172779 0.349531,0.377138 0.496001,0.588424 0.163232,0.235173 0.291764,0.490758 0.41007,0.75065 0.144166,0.316387 0.237633,0.651585 0.318307,0.988747 0.09087,0.414381 0.159837,0.833262 0.217043,1.253494 0.06926,0.476214 0.09679,0.956064 0.112173,1.436525 0.01217,0.51831 5.29e-4,1.036703 -0.02514,1.554392 -0.02752,0.554088 -0.07961,1.106466 -0.13037,1.658779 -0.05372,0.546065 -0.114695,1.09135 -0.185457,1.635466 -0.06895,0.546954 -0.150808,1.09206 -0.239152,1.636181 -0.0932,0.580805 -0.197199,1.159785 -0.298426,1.739222 -0.09839,0.571453 -0.204565,1.141516 -0.303276,1.712918 -0.09564,0.566761 -0.195247,1.132864 -0.299059,1.698188 -0.109103,0.603999 -0.226012,1.20654 -0.339439,1.809734 -0.108315,0.598319 -0.222663,1.195512 -0.331674,1.793703 -0.108172,0.608129 -0.21709,1.216126 -0.327496,1.823855 -0.11439,0.64297 -0.226787,1.286285 -0.340672,1.92935 -0.10873,0.608285 -0.209738,1.217888 -0.305057,1.828406 -0.100248,0.641919 -0.209581,1.282327 -0.321738,1.922253 -0.121544,0.664591 -0.239623,1.329804 -0.360648,1.994488 -0.109527,0.62667 -0.206793,1.255405 -0.302324,1.884333 -0.09166,0.589232 -0.173236,1.179891 -0.245681,1.771774 -0.07435,0.633728 -0.138383,1.268609 -0.202669,1.903418 -0.05966,0.575424 -0.115787,1.151125 -0.16008,1.727943 -0.03989,0.538351 -0.07429,1.077085 -0.107688,1.615866 -0.03421,0.548106 -0.06177,1.096587 -0.08743,1.645148 -0.0263,0.571251 -0.04934,1.142648 -0.07212,1.714047 -0.02069,0.522878 -0.04026,1.0458 -0.05951,1.568731 -0.01458,0.487243 -0.03661,0.974122 -0.06118,1.460944 -0.02513,0.5118 -0.06085,1.023014 -0.09311,1.534398 -0.03036,0.488593 -0.05827,0.977279 -0.09515,1.46543 -0.03665,0.451911 -0.06727,0.904308 -0.106026,1.356042 -0.03653,0.439902 -0.08667,0.87847 -0.133475,1.31735 -0.04736,0.442111 -0.08864,0.884838 -0.128373,1.32769 -0.03817,0.430739 -0.07288,0.861777 -0.106368,1.292905 -0.03156,0.410847 -0.06021,0.821914 -0.08779,1.233048 -0.02479,0.387202 -0.06144,0.773536 -0.09485,1.160065 -0.03224,0.37238 -0.06089,0.745056 -0.08869,1.117791 -0.02633,0.350583 -0.05009,0.701349 -0.07339,1.052147 -0.02553,0.316365 -0.05774,0.63214 -0.08812,0.948066 -0.02826,0.289457 -0.05348,0.579194 -0.07809,0.868979 -0.02302,0.269118 -0.04426,0.538382 -0.06454,0.80772 -0.01876,0.246893 -0.03562,0.493924 -0.05326,0.740897 -0.0067,0.09909 -0.01463,0.198085 -0.02304,0.297042 0,0 -12.275137,7.087055 -12.275137,7.087055 v 0 c 0.0084,-0.09896 0.01636,-0.197951 0.02303,-0.297045 0.01765,-0.246973 0.0345,-0.494004 0.05326,-0.740897 0.02028,-0.269335 0.04153,-0.538602 0.06454,-0.80772 0.02461,-0.289785 0.04983,-0.579522 0.07809,-0.868979 0.03038,-0.315923 0.06257,-0.6317 0.08812,-0.948065 0.02329,-0.350796 0.04705,-0.701564 0.07339,-1.052148 0.02781,-0.372732 0.05645,-0.74541 0.08869,-1.11779 0.03342,-0.386527 0.07007,-0.772861 0.09486,-1.160066 0.02758,-0.411133 0.05622,-0.822198 0.08778,-1.233048 0.03349,-0.431125 0.0682,-0.862163 0.106369,-1.292905 0.03973,-0.442852 0.08101,-0.885579 0.128372,-1.327687 0.04681,-0.438883 0.09694,-0.877451 0.133476,-1.31735 0.03875,-0.451734 0.06937,-0.904134 0.106027,-1.356042 0.03689,-0.488151 0.0648,-0.976839 0.09515,-1.46543 0.03227,-0.511386 0.06798,-1.022601 0.09311,-1.534398 0.02457,-0.486822 0.04659,-0.973701 0.06118,-1.460944 0.01925,-0.522933 0.03882,-1.045853 0.05951,-1.568731 0.02278,-0.571402 0.04582,-1.142796 0.07212,-1.714047 0.02566,-0.548563 0.05322,-1.097042 0.08743,-1.645148 0.0334,-0.538784 0.06779,-1.077518 0.107686,-1.615866 0.04429,-0.576818 0.100417,-1.152519 0.160082,-1.727946 0.06429,-0.634809 0.128314,-1.26969 0.202667,-1.903415 0.07245,-0.591883 0.154019,-1.182542 0.245682,-1.771774 0.09553,-0.628931 0.192798,-1.257665 0.302323,-1.884333 0.121026,-0.664687 0.239105,-1.329897 0.360649,-1.994488 0.112158,-0.639926 0.221492,-1.280334 0.32174,-1.922253 0.09532,-0.610521 0.196325,-1.220121 0.305057,-1.828406 0.113884,-0.643065 0.226281,-1.286383 0.340672,-1.929352 0.110404,-0.60773 0.219322,-1.215726 0.327496,-1.823855 0.109009,-0.598191 0.223358,-1.195385 0.331673,-1.793703 0.113427,-0.603192 0.230334,-1.205733 0.339438,-1.809734 0.103813,-0.565322 0.203419,-1.131427 0.29906,-1.698189 0.09871,-0.571402 0.204881,-1.141462 0.303275,-1.712915 0.101227,-0.57944 0.205226,-1.15842 0.298428,-1.739225 0.08834,-0.544121 0.170201,-1.089224 0.239149,-1.636181 0.07077,-0.544115 0.131739,-1.0894 0.185457,-1.635466 0.05076,-0.55231 0.102846,-1.104691 0.130371,-1.658776 0.02579,-0.517689 0.03731,-1.036082 0.02513,-1.554393 -0.01538,-0.480462 -0.04291,-0.96031 -0.112174,-1.436526 -0.0572,-0.420232 -0.126173,-0.839113 -0.217041,-1.253493 -0.08067,-0.337163 -0.174142,-0.672361 -0.318306,-0.988747 -0.118308,-0.259893 -0.246838,-0.515478 -0.410073,-0.75065 -0.146469,-0.211288 -0.304236,-0.415644 -0.495999,-0.588425 -0.180688,-0.16187 -0.369763,-0.314598 -0.574574,-0.445275 -0.204987,-0.133708 -0.413008,-0.264589 -0.638479,-0.361561 -0.228136,-0.093 -0.463095,-0.163534 -0.709711,-0.186135 -0.264365,-0.02801 -0.529731,-0.04411 -0.795713,-0.03146 -0.292835,0.01146 -0.585163,0.03689 -0.8743,0.08594 -0.325375,0.05442 -0.64871,0.120147 -0.972532,0.183015 -0.362682,0.07247 -0.725068,0.147336 -1.082019,0.244874 -0.381702,0.101992 -0.761292,0.211437 -1.134041,0.343001 -0.403818,0.139483 -0.804547,0.287237 -1.197746,0.454729 -0.424396,0.177977 -0.847585,0.359346 -1.260256,0.563432 -0.408612,0.204179 -0.815699,0.411779 -1.215801,0.632254 -4.3691976,2.440374 -9.7122203,5.486421 11.05358,-6.401316 -0.414913,0.242224 -0.827809,0.487871 -1.242107,0.731144 -0.413003,0.241815 -0.826199,0.483328 -1.23718,0.728568 -0.417389,0.255975 -0.829425,0.520781 -1.229047,0.803902 -0.378172,0.269564 -0.751252,0.546443 -1.114876,0.835414 -0.343703,0.271647 -0.682728,0.549248 -1.01738,0.831974 -0.293649,0.252256 -0.584872,0.507302 -0.879208,0.758759 -0.256985,0.220027 -0.512329,0.441814 -0.756976,0.675651 -0.154987,0.147407 -0.311874,0.29293 -0.462277,0.445055 0,0 -12.2751372,7.087055 -12.2751372,7.087055 z"
       inkscape:connector-curvature="0" />
  </g>
</svg>
