<?xml version="1.0" encoding="UTF-8" standalone="no"?>
<!-- Created with Inkscape (http://www.inkscape.org/) -->

<svg
   xmlns:dc="http://purl.org/dc/elements/1.1/"
   xmlns:cc="http://creativecommons.org/ns#"
   xmlns:rdf="http://www.w3.org/1999/02/22-rdf-syntax-ns#"
   xmlns:svg="http://www.w3.org/2000/svg"
   xmlns="http://www.w3.org/2000/svg"
   xmlns:sodipodi="http://sodipodi.sourceforge.net/DTD/sodipodi-0.dtd"
   xmlns:inkscape="http://www.inkscape.org/namespaces/inkscape"
   width="104mm"
   height="104mm"
   viewBox="0 0 104 104"
   version="1.1"
   id="svg8"
   inkscape:version="0.92.3 (2405546, 2018-03-11)"
   sodipodi:docname="R15.svg">
  <defs
     id="defs2" />
  <sodipodi:namedview
     id="base"
     pagecolor="#ffffff"
     bordercolor="#666666"
     borderopacity="1.0"
     inkscape:pageopacity="0.0"
     inkscape:pageshadow="2"
     inkscape:zoom="1.4"
     inkscape:cx="179.12412"
     inkscape:cy="182.45898"
     inkscape:document-units="mm"
     inkscape:current-layer="layer3"
     showgrid="false"
     fit-margin-top="2"
     fit-margin-left="2"
     fit-margin-right="2"
     fit-margin-bottom="2"
     inkscape:window-width="800"
     inkscape:window-height="845"
     inkscape:window-x="0"
     inkscape:window-y="27"
     inkscape:window-maximized="0" />
  <metadata
     id="metadata5">
    <rdf:RDF>
      <cc:Work
         rdf:about="">
        <dc:format>image/svg+xml</dc:format>
        <dc:type
           rdf:resource="http://purl.org/dc/dcmitype/StillImage" />
        <dc:title></dc:title>
      </cc:Work>
    </rdf:RDF>
  </metadata>
  <g
     inkscape:label="Layer 1"
     inkscape:groupmode="layer"
     id="layer1"
     style="opacity:1"
     transform="translate(-47.136902,-70.26786)"
     sodipodi:insensitive="true">
    <circle
       style="fill:#dedede;stroke-width:0.17248914"
       id="path10"
       cx="99.136902"
       cy="122.26786"
       r="50" />
  </g>
  <g
     inkscape:groupmode="layer"
     id="layer3"
     inkscape:label="Layer 2">
    <path
       style="fill:#000000;stroke-width:0.26458332"
       id="path252"
       d="m 74.362269,44.919899 c 0,0.0963 0,0.192596 0,0.288894 0,0.170849 0,0.341696 0,0.512545 0,0.219866 0,0.43973 0,0.659596 -0.0011,0.232029 -0.0011,0.463912 0.0072,0.695809 0.01,0.27314 0.02074,0.546161 0.03748,0.818975 0.02005,0.32198 0.05167,0.643123 0.07919,0.964531 0.03545,0.345996 0.07187,0.691877 0.104781,1.038127 0.03487,0.380955 0.07709,0.76119 0.114485,1.14191 0.03745,0.397267 0.08513,0.793475 0.12741,1.190247 0.04391,0.410839 0.08092,0.822359 0.115758,1.234053 0.03593,0.425165 0.06643,0.850757 0.09573,1.276424 0.02892,0.423733 0.0548,0.847665 0.079,1.271691 0.02397,0.425 0.04502,0.850157 0.06519,1.275353 0.02003,0.421735 0.03737,0.843592 0.05379,1.265483 0.01659,0.428326 0.03075,0.856739 0.04439,1.285169 0.01331,0.420878 0.02511,0.841801 0.03663,1.262732 0.01109,0.405315 0.02088,0.810659 0.03023,1.216017 0.0093,0.402444 0.01736,0.804915 0.02495,1.207394 0.0069,0.428035 0.01331,0.856006 0.02774,1.283859 0.01656,0.448905 0.03252,0.897829 0.04731,1.346795 0.01548,0.474096 0.02831,0.948272 0.04047,1.422461 0.0177,0.483957 0.04033,0.967721 0.06098,1.45156 0.01775,0.49214 0.04171,0.983953 0.06777,1.475713 0.02706,0.503687 0.05194,1.007486 0.07623,1.511311 0.02748,0.47068 0.06044,0.941019 0.0912,1.411494 0.02969,0.451511 0.0561,0.903224 0.08065,1.355042 0.0311,0.476795 0.06369,0.953489 0.09421,1.430324 0.02522,0.457499 0.06296,0.914114 0.100344,1.370738 0.03454,0.419846 0.06728,0.839837 0.09833,1.259956 0.03741,0.415372 0.07216,0.831011 0.111959,1.246161 0.03977,0.429353 0.08697,0.857861 0.137165,1.286095 0.04967,0.393073 0.107873,0.784952 0.178782,1.17475 0.06169,0.373692 0.15726,0.739589 0.270142,1.100666 0.13054,0.389332 0.291729,0.767284 0.458451,1.142217 0.162396,0.34965 0.343146,0.69052 0.526603,1.029483 0.164171,0.299085 0.341958,0.590299 0.534014,0.872226 0.170905,0.256913 0.367601,0.494286 0.57677,0.720553 0.19489,0.212061 0.40871,0.405206 0.625266,0.594619 0.199996,0.171603 0.408083,0.333478 0.619504,0.490683 0.19141,0.140909 0.396446,0.261001 0.611134,0.362413 0.20088,0.09411 0.41284,0.16011 0.626835,0.21658 0.212993,0.0542 0.429948,0.07833 0.64924,0.07051 0.225433,-0.01601 0.444241,-0.07556 0.660445,-0.137935 0.215673,-0.06011 0.426612,-0.135482 0.635741,-0.215066 0.222837,-0.08689 0.4376,-0.19103 0.647869,-0.304576 4.406588,-2.570694 -16.467243,9.796532 -11.603405,6.679486 0.232786,-0.150786 0.463614,-0.304639 0.693478,-0.459846 0.237062,-0.166047 0.473573,-0.332862 0.709322,-0.500769 0.218712,-0.156263 0.433115,-0.318473 0.656293,-0.468365 0.13597,-0.08869 0.06752,-0.04602 0.205272,-0.128125 0,0 12.275137,-7.087052 12.275137,-7.087052 v 0 c -0.137747,0.08211 -0.0693,0.03943 -0.205271,0.128122 -0.223179,0.149894 -0.437581,0.312102 -0.656294,0.468365 -0.235749,0.16791 -0.47226,0.334725 -0.709324,0.500772 -0.229862,0.155204 -0.460693,0.309057 -0.693478,0.459843 -4.198305,2.690535 -8.623165,5.013365 -12.946867,7.494622 -0.21027,0.113548 -0.425029,0.217683 -0.647869,0.304578 -0.20913,0.07958 -0.420069,0.15495 -0.635738,0.215063 -0.216207,0.06238 -0.435012,0.121934 -0.660448,0.137936 -0.219292,0.0078 -0.436248,-0.01632 -0.649237,-0.07051 -0.213998,-0.05647 -0.425956,-0.12247 -0.626838,-0.21658 -0.214688,-0.101415 -0.419722,-0.221504 -0.611134,-0.362413 -0.211421,-0.157208 -0.419505,-0.319082 -0.619504,-0.490683 -0.216553,-0.189415 -0.430374,-0.382559 -0.625266,-0.594619 -0.209169,-0.226267 -0.405865,-0.463643 -0.57677,-0.720553 -0.192056,-0.281927 -0.369843,-0.573143 -0.534014,-0.872226 -0.183457,-0.338965 -0.364207,-0.679833 -0.526603,-1.029486 -0.166722,-0.37493 -0.327911,-0.752882 -0.458451,-1.142214 -0.112882,-0.361079 -0.208452,-0.726977 -0.27014,-1.100666 -0.07091,-0.3898 -0.129117,-0.78168 -0.178784,-1.17475 -0.0502,-0.428236 -0.09739,-0.856745 -0.137166,-1.286098 -0.0398,-0.415149 -0.07454,-0.830789 -0.111958,-1.246161 -0.03105,-0.420118 -0.06379,-0.840107 -0.09833,-1.259956 -0.03739,-0.456623 -0.07512,-0.913236 -0.100343,-1.370735 -0.03052,-0.476835 -0.06311,-0.953529 -0.09421,-1.430327 -0.02455,-0.451816 -0.05096,-0.903531 -0.08065,-1.355042 -0.03076,-0.470472 -0.06372,-0.940811 -0.0912,-1.411491 -0.02429,-0.503828 -0.04917,-1.007626 -0.07623,-1.511311 -0.02606,-0.491762 -0.05,-0.983573 -0.06777,-1.475716 -0.02064,-0.483838 -0.04329,-0.9676 -0.06098,-1.451557 -0.01217,-0.474192 -0.025,-0.948367 -0.04047,-1.422464 -0.01479,-0.448966 -0.03075,-0.89789 -0.04731,-1.346792 -0.01445,-0.427855 -0.0209,-0.855824 -0.02774,-1.283859 -0.0076,-0.402482 -0.01569,-0.804953 -0.02495,-1.207397 -0.0093,-0.405355 -0.01916,-0.810702 -0.03023,-1.216014 -0.01151,-0.420931 -0.02334,-0.841854 -0.03663,-1.262735 -0.01365,-0.428427 -0.0278,-0.856843 -0.04439,-1.285169 -0.01643,-0.421888 -0.03375,-0.843745 -0.05379,-1.265483 -0.02016,-0.425196 -0.04122,-0.85035 -0.06519,-1.27535 -0.02421,-0.424026 -0.05007,-0.847958 -0.079,-1.271691 -0.02929,-0.425667 -0.05979,-0.851259 -0.09573,-1.276426 -0.03484,-0.411695 -0.07185,-0.823212 -0.115755,-1.234054 -0.04228,-0.396769 -0.08997,-0.79298 -0.127412,-1.190247 -0.03739,-0.380719 -0.07961,-0.760952 -0.114486,-1.14191 -0.03291,-0.346249 -0.06933,-0.692131 -0.104777,-1.038127 -0.02752,-0.321405 -0.05913,-0.642548 -0.07919,-0.96453 -0.01675,-0.272812 -0.02747,-0.545836 -0.03748,-0.818976 -0.0083,-0.231894 -0.0083,-0.463777 -0.0072,-0.695809 0,-0.219863 0,-0.439729 0,-0.659593 0,-0.170849 0,-0.341699 0,-0.512545 0,-0.0963 0,-0.192596 0,-0.288894 0,0 12.275137,-7.087055 12.275137,-7.087055 z"
       inkscape:connector-curvature="0" />
    <path
       style="fill:#000000;stroke-width:0.26458332"
       id="path262"
       d="m 57.754366,54.721352 c 0.07983,-0.0074 0.156993,-0.03055 0.23391,-0.05193 0.141303,-0.03979 0.271187,-0.108841 0.401614,-0.174484 0.163242,-0.0816 0.323884,-0.16845 0.48225,-0.259115 8.180986,-4.848852 -40.734339,23.627728 0.261398,-0.149423 3.995023,-2.317075 -15.966448,9.291047 -12.00056,6.924447 0.186176,-0.109752 0.371755,-0.22044 0.557297,-0.331279 0.193307,-0.114441 0.381323,-0.237223 0.566534,-0.36425 0.200871,-0.139697 0.399634,-0.282379 0.59935,-0.423716 0.217278,-0.153509 0.43635,-0.304478 0.654457,-0.456817 0.245766,-0.169103 0.494258,-0.334147 0.741534,-0.501023 0.237795,-0.160663 0.480182,-0.314388 0.72212,-0.468699 0.256471,-0.167886 0.513379,-0.335071 0.771152,-0.500956 0.25758,-0.167437 0.520237,-0.326848 0.782108,-0.487429 0.257643,-0.153977 0.515956,-0.3068 0.773996,-0.460102 C 94.702967,33.11439 24.895536,73.408838 66.319889,49.496284 25.875253,72.844308 95.303688,32.760145 54.76958,56.16109 c 3.956397,-3.234782 8.70372,-5.034113 13.06635,-7.533708 0.291692,-0.169207 0.587007,-0.332023 0.881047,-0.497084 0.295095,-0.160578 0.589142,-0.322955 0.882015,-0.48755 7.072256,-4.071773 -38.490578,22.225256 0.884883,-0.505243 -20.591825,12.035314 -15.630911,9.07995 -11.385929,6.560288 0.286975,-0.169788 0.570929,-0.344585 0.856777,-0.516247 0.284075,-0.170241 0.566243,-0.343675 0.851598,-0.511765 0.273302,-0.165399 0.549289,-0.326321 0.822214,-0.492337 0.27753,-0.171622 0.5544,-0.34417 0.824749,-0.526952 0.272132,-0.185314 0.54479,-0.36989 0.816017,-0.556524 0.26171,-0.178128 0.521655,-0.358794 0.776219,-0.547013 0.272378,-0.200009 0.543951,-0.400987 0.812562,-0.606039 0.262773,-0.196347 0.525875,-0.392239 0.787505,-0.590111 0.245931,-0.18997 0.496311,-0.373993 0.742141,-0.564083 0.224033,-0.174856 0.456242,-0.338556 0.689991,-0.500023 0.23945,-0.159599 0.473667,-0.326967 0.706445,-0.496102 0.226949,-0.168688 0.458753,-0.330684 0.69046,-0.492725 0.233291,-0.161888 0.4715,-0.316651 0.709435,-0.471612 0.257289,-0.164812 0.507799,-0.339707 0.759534,-0.512773 0.235005,-0.168008 0.472583,-0.332357 0.710329,-0.496446 0.250063,-0.172929 0.497189,-0.350065 0.744451,-0.526965 0.264234,-0.18973 0.529158,-0.378519 0.794236,-0.567069 0.298726,-0.21423 0.599279,-0.425841 0.903177,-0.632669 0.345731,-0.237228 0.700423,-0.460668 1.057695,-0.679965 0.334971,-0.209926 0.67454,-0.412213 1.01499,-0.613061 41.964619,-24.226479 -28.167245,16.256841 13.265284,-7.660548 0.313595,-0.176424 0.628613,-0.350318 0.942145,-0.526867 0.311631,-0.171998 0.620969,-0.348128 0.932574,-0.520155 0.327398,-0.183351 0.659625,-0.35778 0.99028,-0.535109 0.32903,-0.177009 0.659812,-0.350787 0.987925,-0.529495 0.315288,-0.171053 0.626843,-0.348861 0.941752,-0.520615 0.280604,-0.158872 0.562071,-0.316188 0.84313,-0.474245 0.251216,-0.145372 0.506565,-0.283429 0.758671,-0.427199 -24.610782,14.273422 -7.505115,4.261419 0.67423,-0.385611 8.444728,-4.930021 -40.922022,23.679745 0.314915,-0.181298 3.987017,-2.307018 -15.952282,9.220771 -11.968647,6.907916 0.19776,-0.116803 0.389586,-0.243096 0.584028,-0.365246 0.17376,-0.107784 0.346171,-0.21779 0.521507,-0.322999 4.234154,-2.476582 8.430636,-5.022757 12.746546,-7.354093 0.138898,-0.07507 0.27796,-0.149757 0.419184,-0.220372 0.127728,-0.06985 0.254656,-0.141023 0.383194,-0.209404 0.112511,-0.05961 0.2252,-0.118872 0.33787,-0.178178 4.319251,-2.397702 -16.242953,9.513696 -12.119303,6.997924 0,0 12.275137,-7.087052 12.275137,-7.087052 v 0 c -4.084441,2.491851 -8.246282,4.856731 -12.430971,7.17618 -0.11267,0.05931 -0.225359,0.118576 -0.337871,0.178181 -0.128537,0.06838 -0.255465,0.139552 -0.38319,0.209404 -0.141227,0.07061 -0.280287,0.145299 -0.419188,0.220372 -4.538178,2.451396 16.397407,-9.503558 11.80373,-6.820014 -0.17534,0.105209 -0.347748,0.215215 -0.521507,0.322998 -0.194443,0.12215 -0.386268,0.248444 -0.584031,0.365247 -4.188439,2.431761 -8.380428,4.835239 -12.581625,7.266191 -4.054957,2.34633 16.232589,-9.363207 12.171211,-7.028013 -4.166383,2.395569 -8.32354,4.807146 -12.486126,7.209308 -8.60071,4.886428 40.032685,-23.045746 -0.67423,0.385614 -0.252106,0.143767 -0.507455,0.281827 -0.758672,0.427199 -0.281059,0.158055 -0.562525,0.315373 -0.843126,0.474242 -0.31491,0.171754 -0.626467,0.349565 -0.941755,0.520615 -0.328113,0.178711 -0.658895,0.352489 -0.987926,0.529498 -0.330652,0.177329 -0.662879,0.351755 -0.990279,0.535109 -0.311605,0.172024 -0.620943,0.348155 -0.932572,0.520155 -0.313534,0.176546 -0.628549,0.350441 -0.942147,0.526867 40.373212,-23.313181 -28.792495,16.623422 11.616706,-6.706324 0.110755,-0.06394 -0.44141,0.256603 -0.331716,0.192764 -0.34045,0.200848 -0.680022,0.403135 -1.014989,0.613061 -0.357273,0.219295 -0.711965,0.442738 -1.057696,0.679966 -0.303898,0.206828 -0.604451,0.418439 -0.903176,0.632666 -0.265079,0.18855 -0.530003,0.377339 -0.794237,0.567069 -0.247261,0.1769 -0.494387,0.354039 -0.74445,0.526968 -0.237747,0.164086 -0.475324,0.328435 -0.71033,0.496443 -0.251735,0.173069 -0.502245,0.347961 -0.759534,0.512775 -0.237935,0.154959 -0.476144,0.309724 -0.709435,0.471612 -0.231709,0.162042 -0.463511,0.324035 -0.69046,0.492726 -0.232777,0.169135 -0.466994,0.3365 -0.706445,0.496102 -0.233749,0.161464 -0.465958,0.325167 -0.689994,0.50002 -0.245827,0.190092 -0.496207,0.374115 -0.742137,0.564083 -0.261631,0.197874 -0.524733,0.393767 -0.787509,0.590114 -0.268607,0.205052 -0.540181,0.406029 -0.812559,0.606036 -0.254564,0.188222 -0.514511,0.368887 -0.776219,0.547015 -0.271227,0.186632 -0.543888,0.371211 -0.81602,0.556525 -0.270346,0.182779 -0.547219,0.35533 -0.824748,0.526952 -0.272923,0.166015 -0.54891,0.326935 -0.822211,0.492337 -0.285356,0.168089 -0.567524,0.341524 -0.851599,0.511765 -0.285851,0.171661 -0.569804,0.346458 -0.856776,0.516244 -4.359164,2.587437 -8.709404,5.18749 -13.164347,7.613819 -4.352438,2.512558 12.681596,-7.320769 11.975513,-6.914882 -4.292216,2.467353 -8.552516,4.983546 -12.860393,7.420125 -0.292875,0.164595 -0.586923,0.326975 -0.882018,0.487551 -0.294036,0.165063 -0.589351,0.327877 -0.881046,0.497083 -4.269177,2.446054 -9.571067,4.592084 11.483924,-6.640399 -41.0412,23.69657 8.421331,-4.859808 -0.604575,0.351994 -4.131778,2.385801 -8.263594,4.771538 -12.395391,7.15731 4.051023,-2.33924 8.101942,-4.678659 12.153067,-7.017718 0.08221,-0.04747 -0.163637,0.09628 -0.24584,0.143758 -4.132832,2.387055 -8.277892,4.753052 -12.39896,7.160363 -3.99583,2.334157 16.343196,-9.492416 12.023645,-6.940219 -0.25804,0.153302 -0.516352,0.306126 -0.773998,0.4601 -0.261872,0.160584 -0.524529,0.319995 -0.782106,0.487431 -0.257773,0.165886 -0.514683,0.333068 -0.771155,0.500957 -0.241935,0.15431 -0.484322,0.308036 -0.722119,0.468696 -0.247274,0.166878 -0.495766,0.33192 -0.741532,0.501026 -0.218106,0.152336 -0.437179,0.303305 -0.654457,0.456816 -0.199716,0.141335 -0.398479,0.284017 -0.59935,0.423717 -0.185211,0.127027 -0.373227,0.249809 -0.566537,0.364249 -0.185539,0.11084 -0.371117,0.221528 -0.557297,0.331277 -4.145751,2.473936 -8.578617,4.946465 -12.549711,7.249663 -4.05728,2.353183 16.254198,-9.369325 12.185377,-7.036155 -21.195215,12.153898 -8.164507,4.753766 -12.446775,7.185576 -0.158366,0.09067 -0.319008,0.177519 -0.482248,0.259114 -0.130429,0.06564 -0.26031,0.134699 -0.401614,0.174487 -0.07692,0.02138 -0.15408,0.04456 -0.233912,0.05193 0,0 12.275137,-7.087055 12.275137,-7.087055 z"
       inkscape:connector-curvature="0" />
    <path
       style="fill:#000000;stroke-width:0.26458332"
       id="path270"
       d="m 73.804395,43.642502 c -0.0075,-0.07056 -0.01953,-0.140269 -0.03471,-0.209534 -0.02167,-0.110919 -0.05768,-0.218276 -0.0958,-0.324435 C 73.611015,42.952095 73.53753,42.800158 73.466148,42.647486 73.378178,42.457555 73.29471,42.265512 73.20526,42.076282 73.1184,41.888394 73.024967,41.70363 72.92959,41.519943 72.830824,41.332869 72.72693,41.148576 72.626761,40.962251 72.527037,40.769259 72.422868,40.57864 72.321599,40.38646 72.219671,40.201191 72.117298,40.016215 72.010158,39.833899 71.900565,39.639216 71.788847,39.445819 71.675449,39.253326 71.565338,39.060958 71.452522,38.870228 71.335682,38.681861 71.222242,38.497933 71.104955,38.316413 70.993452,38.131292 70.880927,37.945708 70.769514,37.759475 70.657711,37.57346 70.543467,37.379431 70.429955,37.184898 70.313057,36.992448 70.191039,36.788365 70.071072,36.583053 69.949049,36.378962 69.82598,36.171227 69.70147,35.964349 69.577798,35.756974 69.447377,35.545307 69.316824,35.33372 69.188752,35.120619 69.058167,34.906439 68.927794,34.6921 68.800622,34.475867 68.665579,34.257464 68.539065,34.033994 68.411367,33.81127 c -0.136686,-0.246377 -0.27918,-0.489428 -0.42178,-0.732403 -0.145585,-0.247695 -0.286271,-0.498131 -0.427244,-0.748464 -0.144791,-0.259011 -0.286875,-0.51951 -0.42975,-0.779576 -0.152249,-0.279273 -0.302125,-0.559822 -0.452964,-0.839854 -0.153723,-0.291341 -0.306951,-0.582922 -0.455609,-0.876887 -0.156671,-0.316865 -0.314053,-0.633371 -0.469303,-0.950937 -0.158014,-0.323138 -0.321381,-0.643607 -0.480374,-0.966253 -0.15398,-0.311271 -0.304956,-0.62398 -0.453647,-0.937813 -0.13934,-0.305803 -0.279458,-0.611169 -0.425013,-0.914077 -0.145699,-0.299004 -0.291002,-0.598196 -0.434388,-0.898318 -0.140986,-0.287113 -0.279942,-0.575261 -0.423071,-0.86131 -0.13443,-0.273808 -0.279901,-0.541941 -0.424469,-0.810465 -0.14877,-0.278593 -0.303747,-0.553706 -0.460145,-0.828061 -0.143663,-0.255305 -0.289316,-0.509428 -0.442306,-0.759272 -0.148463,-0.251656 -0.309933,-0.494975 -0.473353,-0.737029 -0.165751,-0.240997 -0.33551,-0.47914 -0.504256,-0.718034 -0.161438,-0.227093 -0.321792,-0.454878 -0.487027,-0.679238 -0.162798,-0.215106 -0.32979,-0.426932 -0.495323,-0.639921 -0.161542,-0.205931 -0.321123,-0.413374 -0.480471,-0.621004 -0.157223,-0.208861 -0.32204,-0.411742 -0.484796,-0.616262 -0.151836,-0.190157 -0.30063,-0.3827 -0.449267,-0.575361 -0.153678,-0.196607 -0.303477,-0.396179 -0.453766,-0.595378 -0.137441,-0.192884 -0.279638,-0.382188 -0.42068,-0.572418 -0.123584,-0.168245 -0.245898,-0.337415 -0.368363,-0.506472 -0.11149,-0.15136 -0.224335,-0.30164 -0.332288,-0.455558 -0.107468,-0.153063 -0.21813,-0.303787 -0.324371,-0.457709 -0.09983,-0.149276 -0.1979,-0.299543 -0.300643,-0.446872 -0.09402,-0.12868 -0.180528,-0.262546 -0.271674,-0.393194 -0.08833,-0.120164 -0.167855,-0.246451 -0.255138,-0.367327 -0.0787,-0.105911 -0.15983,-0.209991 -0.240655,-0.314282 -0.07278,-0.09057 -0.134609,-0.189137 -0.2043,-0.281974 -0.06948,-0.08611 -0.130517,-0.178561 -0.198848,-0.265523 -0.07118,-0.08751 -0.141996,-0.175278 -0.21141,-0.264211 -0.06879,-0.08963 -0.139359,-0.177856 -0.209934,-0.266079 -0.06299,-0.07868 -0.126047,-0.157301 -0.189095,-0.235934 -0.05214,-0.06503 -0.104288,-0.130063 -0.156434,-0.195094 -0.04303,-0.05367 -0.08606,-0.107333 -0.129096,-0.161 -0.03551,-0.04429 -0.07102,-0.08857 -0.106532,-0.132859 -0.02931,-0.03655 -0.05861,-0.07309 -0.08791,-0.109635 -0.02418,-0.03016 -0.04836,-0.06032 -0.07255,-0.09047 -0.01995,-0.02489 -0.03991,-0.04977 -0.05987,-0.07466 -0.01757,-0.02326 -0.04536,-0.03007 -0.07182,-0.03919 -0.02819,-0.01017 -0.05767,-0.01571 -0.0869,-0.02192 -0.03803,-0.0077 -0.07642,-0.01226 -0.114884,-0.01501 -0.04114,0.0036 -0.08206,0.0095 -0.122984,0.01494 -0.04622,0.0069 -0.09271,0.01143 -0.139271,0.0151 -0.09537,0.0071 -0.189728,0.02461 -0.283655,0.04209 -0.136829,0.02471 -0.271695,0.0594 -0.406821,0.09198 -0.13662,0.03142 -0.272893,0.06362 -0.407495,0.102901 -0.176096,0.0548 -0.342458,0.135646 -0.508537,0.214815 -0.186203,0.08679 -0.368472,0.181411 -0.550386,0.276762 C 46.659726,14.417139 67.599377,2.409307 63.278078,5.0364334 63.074629,5.1607611 62.87554,5.2920312 62.67805,5.4255659 62.47893,5.5603005 62.278971,5.6939217 62.077314,5.8248404 61.886229,5.9541285 61.694687,6.082729 61.49962,6.2059547 c -0.19725,0.1296048 -0.396693,0.2557206 -0.597067,0.3804121 -0.23477,0.1465334 -0.467008,0.2970686 -0.701265,0.4444077 -0.23219,0.1450551 -0.462309,0.2934816 -0.690935,0.444102 -0.244131,0.1647219 -0.485603,0.3334192 -0.726551,0.5027697 -0.256326,0.1755423 -0.505463,0.361201 -0.75863,0.5412169 -0.248666,0.1729491 -0.497554,0.3455942 -0.743828,0.5219416 -0.262345,0.1922987 -0.525134,0.3839864 -0.787847,0.5757847 -0.236921,0.176924 -0.479645,0.345799 -0.719106,0.5191886 -0.213079,0.15721 -0.429821,0.309359 -0.644721,0.464055 -0.214709,0.148516 -0.426505,0.301147 -0.639701,0.451797 -0.233627,0.163632 -0.463,0.333191 -0.691624,0.503701 -0.227679,0.167994 -0.45588,0.335288 -0.683577,0.503264 -0.224539,0.163969 -0.452562,0.322996 -0.680718,0.481862 -0.218127,0.151888 -0.434117,0.306744 -0.653685,0.456555 -0.193002,0.129921 -0.38469,0.261847 -0.579649,0.388831 -0.193098,0.128346 -0.38709,0.255166 -0.579136,0.385094 -0.198503,0.133457 -0.395089,0.269739 -0.591931,0.40563 -0.182512,0.125214 -0.366178,0.248736 -0.547936,0.375063 -0.187978,0.137416 -0.376859,0.273583 -0.564383,0.411623 -0.158334,0.12081 -0.322971,0.233324 -0.480726,0.354836 -0.01802,0.01433 -0.03603,0.02866 -0.05404,0.04299 0,0 -12.275137,7.087053 -12.275137,7.087053 v 0 c 0.01802,-0.01433 0.03603,-0.02866 0.05404,-0.04299 0.157756,-0.121512 0.322393,-0.234026 0.480727,-0.354836 0.187524,-0.13804 0.376404,-0.274207 0.564383,-0.411623 0.181758,-0.126327 0.365424,-0.249849 0.547936,-0.375063 0.196842,-0.13589 0.393428,-0.272173 0.591931,-0.405629 0.192045,-0.129928 0.386038,-0.256748 0.579136,-0.385095 0.194958,-0.126983 0.386646,-0.258909 0.579649,-0.388831 0.21957,-0.149811 0.435557,-0.304666 0.653685,-0.456554 0.228156,-0.158867 0.456179,-0.317893 0.680717,-0.481862 0.227698,-0.167977 0.455899,-0.33527 0.683578,-0.503264 0.228624,-0.170511 0.457996,-0.34007 0.691623,-0.503702 0.213199,-0.15065 0.424993,-0.303281 0.639702,-0.451796 0.214903,-0.154696 0.431644,-0.306845 0.644721,-0.464056 0.239461,-0.173389 0.482187,-0.342264 0.719106,-0.519188 0.262712,-0.191798 0.525504,-0.383486 0.787847,-0.575785 0.246277,-0.176347 0.495165,-0.348992 0.743828,-0.521942 0.253169,-0.180015 0.502304,-0.365674 0.758632,-0.541216 0.240945,-0.169351 0.482417,-0.338048 0.726551,-0.50277 0.228624,-0.15062 0.458743,-0.299047 0.690936,-0.444102 0.234254,-0.147339 0.466492,-0.297874 0.701262,-0.444408 0.200374,-0.124691 0.399817,-0.250807 0.597067,-0.380412 0.195066,-0.123226 0.386609,-0.251826 0.577693,-0.381114 0.201658,-0.130919 0.401617,-0.26454 0.600737,-0.399274 0.197493,-0.133535 0.396579,-0.264805 0.600027,-0.389133 4.215792,-2.5629821 8.455668,-5.0991186 12.822695,-7.3939909 0.181917,-0.095351 0.364186,-0.1899719 0.550389,-0.2767613 0.166079,-0.07917 0.332441,-0.1600179 0.508537,-0.2148149 0.134602,-0.039283 0.270875,-0.07148 0.407493,-0.1029013 0.135128,-0.032586 0.269991,-0.067273 0.406821,-0.091981 0.09393,-0.017478 0.18829,-0.035011 0.283657,-0.042089 0.04657,-0.00367 0.09305,-0.00824 0.139271,-0.015102 0.04093,-0.00547 0.08184,-0.011335 0.122984,-0.014936 0.03847,0.00276 0.07686,0.00734 0.114885,0.015015 0.02923,0.00622 0.05871,0.011761 0.0869,0.021923 0.02646,0.00913 0.05425,0.015931 0.07182,0.039193 0.01995,0.024887 0.03991,0.049772 0.05987,0.074658 0.02418,0.030157 0.04836,0.060315 0.07254,0.090472 0.02931,0.036545 0.05861,0.073091 0.08791,0.1096357 0.03551,0.044286 0.07102,0.088572 0.106532,0.1328587 0.04303,0.053667 0.08606,0.1073335 0.129096,0.1610003 0.05214,0.065031 0.104291,0.130062 0.156435,0.1950939 0.06305,0.078632 0.1261,0.1572591 0.189095,0.2359343 0.07057,0.088222 0.141144,0.1764506 0.209931,0.2660784 0.06942,0.088933 0.140234,0.1767004 0.211412,0.2642108 0.06833,0.086963 0.129366,0.1794095 0.198848,0.2655237 0.06969,0.092836 0.131522,0.1914006 0.204301,0.2819741 0.08082,0.1042906 0.161951,0.208371 0.240654,0.3142819 0.08728,0.1208757 0.166807,0.2471624 0.255138,0.3673263 0.09114,0.1306481 0.177649,0.2645146 0.271671,0.3931941 0.102746,0.1473296 0.200808,0.2975965 0.300646,0.446872 0.106241,0.1539222 0.216903,0.304646 0.324372,0.4577088 0.10795,0.1539182 0.220797,0.3041978 0.332287,0.4555585 0.122465,0.1690571 0.244779,0.3382275 0.368364,0.5064713 0.141041,0.1902309 0.283239,0.3795347 0.420679,0.5724189 0.150289,0.1991987 0.300088,0.3987717 0.453763,0.5953787 0.14864,0.19266 0.297434,0.385204 0.449271,0.575361 0.162755,0.204519 0.327572,0.4074 0.484793,0.616262 0.159351,0.207629 0.318931,0.415072 0.480473,0.621003 0.165534,0.212989 0.332525,0.424815 0.495324,0.639921 0.165234,0.22436 0.325588,0.452145 0.487026,0.679238 0.168746,0.238894 0.338505,0.477038 0.504256,0.718035 0.163417,0.242054 0.32489,0.485372 0.473353,0.737028 0.15299,0.249845 0.298643,0.503967 0.442307,0.759272 0.156395,0.274355 0.311372,0.549469 0.460144,0.828061 0.144569,0.268524 0.290039,0.536657 0.424469,0.810466 0.143129,0.286048 0.282085,0.574196 0.423069,0.86131 0.143388,0.300121 0.288692,0.599314 0.43439,0.898318 0.145555,0.302907 0.285673,0.608273 0.425013,0.914078 0.148691,0.313831 0.299667,0.62654 0.453647,0.937811 0.158991,0.322647 0.32236,0.643117 0.480375,0.966255 0.155247,0.317565 0.312629,0.634071 0.469299,0.950936 0.148662,0.293964 0.30189,0.585547 0.455613,0.876886 0.150839,0.280033 0.300714,0.560582 0.452961,0.839855 0.142878,0.260066 0.284961,0.520564 0.429752,0.779575 0.140973,0.250333 0.281657,0.500768 0.427241,0.748465 0.142603,0.242974 0.285097,0.486024 0.421783,0.732404 0.127699,0.222724 0.254212,0.446191 0.389255,0.664596 0.127169,0.216231 0.257543,0.430573 0.388131,0.644753 0.128071,0.213101 0.258625,0.424685 0.389046,0.636355 0.123671,0.207375 0.248181,0.414252 0.37125,0.621985 0.122023,0.204091 0.24199,0.409403 0.364008,0.613489 0.116898,0.192447 0.23041,0.386982 0.344654,0.581009 0.111803,0.186018 0.223216,0.372248 0.335738,0.557834 0.111506,0.185121 0.228793,0.366642 0.342233,0.550569 0.11684,0.188368 0.229656,0.379095 0.339768,0.571466 0.113397,0.192492 0.225115,0.385887 0.334708,0.580572 0.107138,0.182317 0.209513,0.36729 0.311439,0.552559 0.101271,0.192183 0.205441,0.382802 0.305165,0.575791 0.100166,0.186325 0.204062,0.370621 0.302826,0.557694 0.09538,0.183685 0.188812,0.368451 0.275672,0.55634 0.08945,0.189227 0.172918,0.381272 0.260887,0.571201 0.07138,0.152672 0.144862,0.304612 0.207735,0.461047 0.03813,0.106159 0.07414,0.213519 0.0958,0.324437 0.01519,0.06926 0.02725,0.138975 0.03471,0.209532 0,0 -12.275138,7.087055 -12.275138,7.087055 z"
       inkscape:connector-curvature="0" />
    <path
       style="fill:#000000;stroke-width:0.26458332"
       id="path278"
       d="m 19.765324,13.788145 c 0.04665,-0.06587 0.100303,-0.126455 0.155875,-0.184843 0.110281,-0.107768 0.223621,-0.212284 0.333816,-0.320226 0.126924,-0.123228 0.256789,-0.243012 0.391447,-0.357736 0.145078,-0.127376 0.302713,-0.239097 0.459811,-0.350889 0.173867,-0.126485 0.351053,-0.24805 0.531362,-0.365133 4.122379,-2.5159693 8.527233,-4.9303639 12.552498,-7.2521792 4.061243,-2.3425687 -16.250867,9.3599982 -12.18097,7.0324952 14.558894,-8.3259767 8.166476,-4.8665922 12.47009,-7.1947887 0.204351,-0.1064525 0.412734,-0.2049386 0.621329,-0.3027339 0.209873,-0.095136 0.41623,-0.1976813 0.625944,-0.2931893 0.206486,-0.093738 0.412482,-0.1884063 0.621876,-0.2755283 0.211979,-0.090988 0.432679,-0.157593 0.654148,-0.2207758 0.221959,-0.063007 0.446029,-0.1170347 0.672724,-0.1598046 0.233162,-0.044004 0.468144,-0.075496 0.704792,-0.092129 0.240025,-0.018 0.480425,-0.014605 0.720564,-0.00267 0.235908,0.011356 0.470657,0.038671 0.704522,0.070751 0.232778,0.03166 0.463603,0.076076 0.693364,0.124673 0.239252,0.053221 0.475507,0.118224 0.708478,0.1941914 0.252171,0.07737 0.494829,0.1807777 0.734962,0.2890359 0.260347,0.116949 0.508164,0.258232 0.751988,0.405911 0.271661,0.1637306 0.518186,0.3624977 0.754208,0.5732526 0.262223,0.2417374 0.502576,0.5058236 0.73732,0.7739229 0.256889,0.2942773 0.486714,0.6096781 0.696103,0.9390269 0.232092,0.3728157 0.418983,0.7704706 0.593891,1.1724772 0.18941,0.4369316 0.346342,0.8866431 0.490543,1.3401755 0.157006,0.5002135 0.271931,1.0122072 0.382389,1.5242912 0.115163,0.544961 0.213836,1.093194 0.305136,1.642596 0.100626,0.598306 0.166153,1.201609 0.222028,1.805482 0.05547,0.640674 0.114705,1.281012 0.170796,1.921632 0.0548,0.622218 0.103796,1.244918 0.149731,1.867846 0.04355,0.635292 0.09004,1.270388 0.143827,1.9049 0.05429,0.648108 0.113776,1.295731 0.173503,1.943352 0.06172,0.665683 0.115618,1.332046 0.166548,1.998629 0.05052,0.681518 0.09892,1.363234 0.135355,2.045662 0.03981,0.711526 0.05401,1.423943 0.06001,2.136432 0.0043,0.729882 0.0054,1.459777 0.0069,2.189668 0.0016,0.734081 0.0027,1.468162 0.0038,2.202246 -0.0082,0.760833 -0.0082,1.52169 -0.0072,2.282557 0.0013,0.728171 0.0027,1.456339 0.0041,2.184509 2.65e-4,0.74037 0.0013,1.480696 0.01082,2.221008 0.01053,0.720701 0.02223,1.441386 0.03335,2.162079 0.01508,0.662972 0.03666,1.325775 0.05651,1.988617 0.01373,0.630539 0.01876,1.261229 0.02447,1.891882 1.24e-4,0.682709 -0.0071,1.3654 -0.01262,2.048084 -0.0057,0.695936 -0.0109,1.391877 -0.0159,2.087819 -0.0049,0.680873 -0.0092,1.361749 -0.01323,2.042625 -0.0098,0.723331 -0.02495,1.446575 -0.03847,2.169843 -0.01352,0.688123 -0.02693,1.376204 -0.02996,2.064462 -0.0013,0.624424 -7.94e-4,1.248849 -5.3e-4,1.873273 0.0013,0.603076 0.0021,1.206096 -0.0061,1.809123 -0.0094,0.600261 -0.0196,1.200505 -0.02939,1.80076 -0.009,0.551812 -0.01749,1.103632 -0.02569,1.655455 -0.0067,0.516504 -0.01312,1.03295 -0.02839,1.549279 -0.01257,0.501501 -0.03447,1.002585 -0.05991,1.503571 -0.02455,0.473059 -0.04846,0.946153 -0.07108,1.419312 -0.02254,0.466011 -0.04174,0.932172 -0.05942,1.398392 -0.01934,0.513472 -0.03468,1.027078 -0.04905,1.540708 -0.015,0.549387 -0.0279,1.098831 -0.04048,1.648278 -0.01595,0.51689 -0.01622,1.033997 -0.01619,1.551069 -5.29e-4,0.499438 0.004,0.998884 -7.93e-4,1.498307 -0.0079,0.548981 -0.01805,1.097931 -0.02761,1.646885 -0.01048,0.510032 -0.0058,1.020228 -0.0031,1.530319 0.0026,0.467169 0.0052,0.934339 0.0078,1.401508 0.0024,0.433205 0.0046,0.866413 0.0066,1.299623 -0.0013,0.450993 0.0059,0.901811 0.01751,1.352632 0.0067,0.417076 0.0065,0.834223 0.0071,1.251341 -7.93e-4,0.369689 0.004,0.739413 -0.0016,1.109068 -0.0029,0.357393 -0.03195,0.713422 -0.07041,1.068482 -0.01921,0.167048 -0.03906,0.333976 -0.0568,0.501185 0,0 -12.275137,7.087055 -12.275137,7.087055 v 0 c 0.01773,-0.167209 0.03759,-0.33414 0.0568,-0.501185 0.03845,-0.355063 0.06749,-0.711091 0.07041,-1.068482 0.0057,-0.369658 7.93e-4,-0.739381 0.0016,-1.10907 -7.94e-4,-0.417116 -5.29e-4,-0.834266 -0.0071,-1.251342 -0.01162,-0.450818 -0.01889,-0.901639 -0.01752,-1.352632 -0.0021,-0.433207 -0.0042,-0.866415 -0.0066,-1.299623 -0.0026,-0.467169 -0.0052,-0.934336 -0.0078,-1.401505 -0.0026,-0.510091 -0.0074,-1.020289 0.0031,-1.530319 0.0096,-0.548957 0.01974,-1.097904 0.02761,-1.646888 0.0048,-0.49942 2.09e-4,-0.998868 7.94e-4,-1.498306 -4.5e-5,-0.517073 2.3e-4,-1.03418 0.01617,-1.551067 0.01257,-0.54945 0.02545,-1.098891 0.04048,-1.64828 0.01437,-0.51363 0.02971,-1.027237 0.04905,-1.540706 0.01767,-0.46622 0.03688,-0.932381 0.05942,-1.398394 0.02262,-0.473157 0.04652,-0.946251 0.07108,-1.419313 0.02543,-0.500985 0.04733,-1.002069 0.0599,-1.503571 0.01527,-0.516326 0.02164,-1.032775 0.02839,-1.549276 0.0082,-0.551825 0.01672,-1.103646 0.02569,-1.655458 0.0098,-0.600252 0.02,-1.200499 0.0294,-1.800757 0.0081,-0.603027 0.0074,-1.20605 0.0061,-1.809125 -2.65e-4,-0.624425 -0.0011,-1.248849 5.29e-4,-1.873271 0.003,-0.688258 0.01643,-1.376339 0.02996,-2.064465 0.01352,-0.723265 0.0287,-1.446511 0.03846,-2.16984 0.004,-0.680878 0.0084,-1.361755 0.01323,-2.042625 0.005,-0.695944 0.01019,-1.391886 0.0159,-2.087822 0.0056,-0.682683 0.01275,-1.365372 0.01262,-2.048084 -0.0057,-0.63065 -0.01074,-1.261343 -0.02447,-1.891879 -0.01984,-0.662842 -0.04142,-1.325645 -0.05651,-1.988617 -0.01111,-0.720693 -0.02283,-1.441378 -0.03335,-2.162082 -0.0096,-0.740312 -0.01042,-1.480637 -0.01082,-2.221008 -0.0013,-0.728167 -0.0029,-1.456338 -0.0041,-2.184508 -0.0011,-0.760868 -0.0011,-1.521722 0.0072,-2.282558 -0.0011,-0.734081 -0.0024,-1.468162 -0.0038,-2.202243 -0.0016,-0.729893 -0.0026,-1.459789 -0.0069,-2.189671 -0.006,-0.712486 -0.02019,-1.424905 -0.06001,-2.136431 -0.03643,-0.682426 -0.08483,-1.364144 -0.135356,-2.04566 -0.05093,-0.666584 -0.104822,-1.332947 -0.166544,-1.998631 -0.05973,-0.647621 -0.119222,-1.295244 -0.173506,-1.943351 -0.05379,-0.634513 -0.10028,-1.269609 -0.143828,-1.904901 -0.04593,-0.622927 -0.09493,-1.245628 -0.14973,-1.867845 -0.05609,-0.640621 -0.115329,-1.280959 -0.170797,-1.921632 -0.05587,-0.603873 -0.121401,-1.207176 -0.222027,-1.805482 -0.0913,-0.549403 -0.189974,-1.097635 -0.305134,-1.642597 -0.110461,-0.512084 -0.225385,-1.024077 -0.382391,-1.524291 -0.144201,-0.453532 -0.301133,-0.903244 -0.490543,-1.340175 -0.174908,-0.402007 -0.361799,-0.799662 -0.593892,-1.172477 -0.209388,-0.329349 -0.439211,-0.64475 -0.696103,-0.939027 -0.234743,-0.2681 -0.475096,-0.532186 -0.737319,-0.773923 -0.236022,-0.210755 -0.482547,-0.409522 -0.754208,-0.573253 -0.243822,-0.147679 -0.491641,-0.288962 -0.751989,-0.405911 -0.24013,-0.108258 -0.48279,-0.211666 -0.734962,-0.289036 -0.232968,-0.07597 -0.469222,-0.14097 -0.708477,-0.194191 -0.229762,-0.0486 -0.460587,-0.09301 -0.693365,-0.124673 -0.233865,-0.03208 -0.468614,-0.0594 -0.704522,-0.07075 -0.240138,-0.01194 -0.480539,-0.01533 -0.720563,0.0027 -0.236648,0.01663 -0.471629,0.04813 -0.704792,0.09213 -0.226694,0.04277 -0.450764,0.0968 -0.672724,0.159805 -0.22147,0.06318 -0.442168,0.129788 -0.654149,0.220775 -0.209393,0.08712 -0.415388,0.181791 -0.621876,0.275529 -0.209712,0.09551 -0.41607,0.198053 -0.625943,0.293189 -0.208595,0.09779 -0.416977,0.196281 -0.621328,0.302734 C 18.113833,14.094686 38.321247,2.5939203 34.2843,4.9025801 30.151422,7.2661014 26.039088,9.6653722 21.914996,12.044192 17.915523,14.351131 37.85857,2.7246762 33.912773,5.1222645 33.732462,5.2393474 33.555275,5.3609126 33.38141,5.4873974 c -0.157099,0.111792 -0.314733,0.2235131 -0.459812,0.3508894 -0.134657,0.1147236 -0.264522,0.2345076 -0.391445,0.3577359 -0.110197,0.1079413 -0.223536,0.2124578 -0.333817,0.320226 -0.05557,0.058387 -0.109225,0.1189715 -0.155874,0.1848425 0,0 -12.275138,7.0870538 -12.275138,7.0870538 z"
       inkscape:connector-curvature="0" />
    <path
       style="fill:#000000;stroke-width:0.26458332"
       id="path290"
       d="m 60.737842,89.506686 c -0.05019,0.03905 -0.09715,0.08182 -0.145222,0.12342 -0.08594,0.07083 -0.176665,0.135297 -0.267137,0.200104 -4.07357,2.659896 -8.197659,5.332024 -12.650094,7.291023 -0.184785,0.07666 -0.379365,0.124626 -0.573643,0.170021 -0.256921,0.0538 -0.513855,0.107569 -0.771557,0.157557 -0.277352,0.05568 -0.556945,0.09887 -0.835406,0.148322 -0.293602,0.05451 -0.588076,0.103966 -0.883097,0.150101 -0.322656,0.05063 -0.646837,0.09043 -0.97138,0.126648 -0.356323,0.03856 -0.713158,0.07217 -1.070086,0.104564 -0.3453,0.0358 -0.691992,0.05286 -1.038633,0.06907 -0.349641,0.0093 -0.699508,0.0145 -1.049269,0.01114 -0.353091,-0.0016 -0.705125,-0.02955 -1.056793,-0.05838 -0.349094,-0.025 -0.696164,-0.07025 -1.042977,-0.116171 -0.344546,-0.04845 -0.687308,-0.107926 -1.030121,-0.167105 -0.360825,-0.06501 -0.721172,-0.13248 -1.080172,-0.206944 -0.389644,-0.07993 -0.777647,-0.167714 -1.164079,-0.261911 -0.396055,-0.09604 -0.789424,-0.20278 -1.181148,-0.315079 -0.408575,-0.119452 -0.813882,-0.248836 -1.215924,-0.38862 -0.426715,-0.147103 -0.84918,-0.306134 -1.271985,-0.464024 -0.417541,-0.157231 -0.829818,-0.327681 -1.241962,-0.498398 -0.418576,-0.176536 -0.833032,-0.362635 -1.248351,-0.546651 -0.419963,-0.184115 -0.839761,-0.368622 -1.258356,-0.555836 -0.419359,-0.186344 -0.838412,-0.373322 -1.256655,-0.562163 -0.42475,-0.194096 -0.847584,-0.392345 -1.273096,-0.584769 -0.430445,-0.193212 -0.855634,-0.397687 -1.276792,-0.610298 -0.428375,-0.223079 -0.855292,-0.449067 -1.279518,-0.679953 -0.430247,-0.229169 -0.854439,-0.469257 -1.274665,-0.71624 -0.414307,-0.247672 -0.821716,-0.506998 -1.225517,-0.77142 -0.395171,-0.255463 -0.785042,-0.5189 -1.171781,-0.78691 -0.385795,-0.274452 -0.755526,-0.570243 -1.122571,-0.869 -0.361663,-0.296934 -0.711692,-0.607431 -1.059289,-0.92057 -0.348517,-0.318299 -0.683892,-0.650587 -1.01633,-0.985518 C 15.40827,86.663701 15.097425,86.320417 14.784972,85.978737 14.484186,85.649852 14.195057,85.310675 13.915209,84.963875 13.625729,84.603742 13.358449,84.226738 13.08893,83.85168 12.826612,83.480599 12.569305,83.10591 12.317484,82.727624 12.05794,82.343674 11.826522,81.942108 11.59469,81.541167 11.370302,81.143855 11.145723,80.74661 10.926215,80.34657 10.709982,79.965996 10.510395,79.576855 10.327956,79.17907 10.136398,78.752895 9.9709419,78.315935 9.8031434,77.880095 9.6334825,77.438789 9.4728034,76.994029 9.3201452,76.546571 9.1556479,76.064337 9.0226736,75.572481 8.8983856,75.078637 8.7720055,74.568459 8.6588369,74.055165 8.549551,73.541098 8.4260213,73.006677 8.3535614,72.463892 8.2981238,71.918879 8.2446494,71.301003 8.2247713,70.680791 8.2006608,70.06124 c -0.026262,-0.579739 -0.040549,-1.159799 -0.034815,-1.740107 0.008,-0.60013 0.060732,-1.19812 0.1280755,-1.794097 0.068859,-0.580861 0.1507792,-1.160206 0.2459096,-1.737333 0.093493,-0.581658 0.2557999,-1.146763 0.4361653,-1.706354 0.197398,-0.575138 0.4184158,-1.141886 0.6457164,-1.705763 0.2214928,-0.550646 0.4988534,-1.075375 0.7993034,-1.58632 0.329907,-0.544457 0.70257,-1.061389 1.083433,-1.570942 0.362413,-0.47915 0.743079,-0.943846 1.141202,-1.393648 0.422792,-0.473549 0.894528,-0.89893 1.376159,-1.311103 0.472763,-0.397031 0.963355,-0.772203 1.455977,-1.144082 0.442397,-0.32806 0.886548,-0.653762 1.34197,-0.963563 0.420781,-0.284371 0.84811,-0.558805 1.27368,-0.835898 0.378441,-0.247647 0.759,-0.492111 1.144947,-0.727911 4.420788,-2.489485 8.585056,-5.496515 13.218648,-7.572676 0,0 -12.275135,7.087055 -12.275135,7.087055 v 0 c -0.197391,0.08844 -0.194059,0.08422 -0.386726,0.181398 -0.06283,0.03169 -0.248339,0.132427 -0.187431,0.09717 0.526326,-0.304642 16.295144,-9.416302 11.90578,-6.880006 -0.385945,0.235802 -0.766506,0.480264 -1.144947,0.727914 -0.425569,0.277093 -0.852898,0.551527 -1.27368,0.835898 -0.455422,0.309801 -0.899573,0.6355 -1.34197,0.963562 -0.492622,0.37188 -0.983212,0.747051 -1.455977,1.144082 -0.481631,0.412171 -0.953366,0.837555 -1.376159,1.311103 -0.398123,0.4498 -0.778788,0.914498 -1.141202,1.393648 -0.380862,0.509553 -0.753525,1.026486 -1.083432,1.570943 -0.30045,0.510942 -0.577811,1.035671 -0.799304,1.586317 -0.227301,0.56388 -0.448319,1.130625 -0.645716,1.705763 -0.180366,0.559591 -0.342673,1.124696 -0.436166,1.706354 -0.09513,0.57713 -0.177051,1.156475 -0.245909,1.737336 -0.06734,0.595976 -0.120076,1.193967 -0.128076,1.794097 -0.0057,0.580308 0.0086,1.160365 0.03482,1.740106 0.02411,0.619551 0.04399,1.239764 0.09746,1.85764 0.05544,0.545013 0.127898,1.087795 0.251428,1.622219 0.109286,0.514064 0.222454,1.027361 0.348834,1.537536 0.124288,0.493844 0.257263,0.985702 0.42176,1.467937 0.152658,0.447458 0.313337,0.892217 0.482998,1.333521 0.167799,0.43584 0.333255,0.872802 0.524813,1.298977 0.182439,0.397786 0.382026,0.786924 0.598259,1.167498 0.219507,0.400042 0.444087,0.797285 0.668475,1.194597 0.231832,0.400944 0.463249,0.802507 0.722793,1.186457 0.251822,0.378286 0.509128,0.752975 0.771447,1.124056 0.269519,0.37506 0.536798,0.752062 0.826279,1.112195 0.279848,0.346802 0.568977,0.68598 0.869763,1.014865 0.312452,0.34168 0.623298,0.684964 0.949264,1.013957 0.332439,0.334931 0.667811,0.667218 1.016328,0.985515 0.347599,0.313142 0.697627,0.623639 1.059292,0.92057 0.367043,0.298757 0.736774,0.59455 1.122568,0.869 0.386742,0.268012 0.776611,0.53145 1.171782,0.786913 0.403802,0.264419 0.81121,0.523745 1.225518,0.771419 0.420227,0.246983 0.844418,0.487072 1.274665,0.716241 0.424225,0.230886 0.851143,0.456874 1.279517,0.67995 0.421158,0.212613 0.846346,0.417086 1.276792,0.610301 0.425513,0.192421 0.848346,0.390673 1.273098,0.584766 0.41824,0.188844 0.837292,0.375819 1.256654,0.562165 0.418592,0.187214 0.838393,0.371721 1.258356,0.555834 0.415319,0.184018 0.829775,0.370118 1.248349,0.546653 0.412147,0.170718 0.824423,0.341167 1.241965,0.498399 0.422801,0.15789 0.845267,0.316918 1.271984,0.464021 0.402042,0.139787 0.80735,0.269168 1.215925,0.388622 0.39172,0.112297 0.785092,0.219041 1.181144,0.315079 0.386435,0.09419 0.774439,0.181978 1.164082,0.261909 0.359,0.07447 0.719347,0.141938 1.080172,0.206944 0.342813,0.05918 0.685576,0.118663 1.030121,0.167108 0.346811,0.04592 0.693883,0.09116 1.042977,0.11617 0.351666,0.02883 0.703702,0.05683 1.056794,0.05838 0.34976,0.0034 0.699627,-0.0019 1.049268,-0.01114 0.346642,-0.01619 0.693333,-0.03326 1.03863,-0.06907 0.356931,-0.03239 0.713767,-0.066 1.070089,-0.104563 0.324543,-0.03621 0.648724,-0.07601 0.971381,-0.126646 0.295021,-0.04614 0.589494,-0.09559 0.883094,-0.150103 0.278463,-0.04946 0.558057,-0.09264 0.835409,-0.14832 0.257701,-0.04999 0.514635,-0.103762 0.771556,-0.157557 0.194279,-0.0454 0.388859,-0.09336 0.573641,-0.170021 4.762955,-2.095622 -16.139636,9.632918 -11.900175,6.883085 0.09047,-0.06481 0.181197,-0.129281 0.267134,-0.200107 0.04808,-0.0416 0.09503,-0.08437 0.145222,-0.12342 0,0 12.275137,-7.087053 12.275137,-7.087053 z"
       inkscape:connector-curvature="0" />
    <path
       style="fill:#000000;stroke-width:0.26458332"
       id="path312"
       d="m 8.8097764,53.100549 c 0.040943,-0.03608 0.078214,-0.07562 0.1127667,-0.117777 0.058024,-0.07505 0.097623,-0.161671 0.1385782,-0.246674 0.059197,-0.12614 0.1168273,-0.252888 0.171995,-0.380862 0.057145,-0.137374 0.1080339,-0.277207 0.1611453,-0.416166 0.06103,-0.161044 0.1098574,-0.326297 0.1576207,-0.491643 0.049064,-0.1709 0.1052365,-0.339561 0.1539227,-0.510588 0.057345,-0.190323 0.1231649,-0.377872 0.182236,-0.567653 0.067357,-0.20602 0.134829,-0.412001 0.198934,-0.619061 0.06962,-0.20116 0.132689,-0.404495 0.200459,-0.606251 0.07065,-0.214005 0.144917,-0.426786 0.215454,-0.640828 0.06934,-0.219507 0.142332,-0.43782 0.213319,-0.656797 0.06872,-0.217029 0.143743,-0.431985 0.214308,-0.648425 0.0715,-0.224189 0.144159,-0.448005 0.21723,-0.671689 0.07595,-0.24497 0.154617,-0.48908 0.231517,-0.733754 0.08335,-0.243326 0.160153,-0.488743 0.238539,-0.733681 0.08569,-0.270452 0.159649,-0.544391 0.237118,-0.817258 0.07899,-0.271643 0.14854,-0.545907 0.225852,-0.818002 0.07597,-0.267309 0.151104,-0.534842 0.227254,-0.802106 0.07481,-0.268954 0.156462,-0.535926 0.232963,-0.804404 0.06977,-0.256395 0.14203,-0.51203 0.215522,-0.767382 0.07422,-0.259924 0.137838,-0.522676 0.205431,-0.784365 0.06851,-0.273198 0.149436,-0.543015 0.229166,-0.813083 0.07701,-0.265346 0.15138,-0.531429 0.228343,-0.796788 0.08614,-0.283448 0.172499,-0.56684 0.261464,-0.849415 0.09375,-0.296985 0.193475,-0.592003 0.287753,-0.888828 0.09764,-0.296463 0.19272,-0.593744 0.293662,-0.889109 0.101558,-0.307348 0.209341,-0.612468 0.319884,-0.916678 0.109448,-0.295823 0.211065,-0.594447 0.30743,-0.89476 0.09639,-0.28448 0.190543,-0.569687 0.28313,-0.855424 0.08282,-0.266557 0.1692,-0.531993 0.259156,-0.796224 0.08789,-0.264631 0.183197,-0.526688 0.273928,-0.790342 0.09233,-0.266639 0.189936,-0.531387 0.284251,-0.797317 0.09387,-0.270012 0.191426,-0.538691 0.283012,-0.809508 0.08216,-0.255702 0.17357,-0.508231 0.262033,-0.761775 0.07969,-0.238779 0.166328,-0.475123 0.249088,-0.712836 0.07509,-0.227891 0.157919,-0.453048 0.23858,-0.678997 0.07754,-0.209193 0.142298,-0.422762 0.215571,-0.633402 0.06955,-0.192114 0.137472,-0.384815 0.205603,-0.577435 0.06101,-0.171333 0.119136,-0.343633 0.179607,-0.515149 0.05676,-0.158172 0.119487,-0.314053 0.180397,-0.470642 0,0 12.275138,-7.087054 12.275138,-7.087054 v 0 c -0.06091,0.156589 -0.123637,0.31247 -0.180398,0.470642 -0.06047,0.171518 -0.118602,0.343817 -0.179607,0.515149 -0.06813,0.192621 -0.136049,0.385322 -0.205602,0.577434 -0.07327,0.210641 -0.138036,0.42421 -0.215572,0.633404 -0.08066,0.225947 -0.163492,0.451107 -0.23858,0.678996 -0.08276,0.237714 -0.169397,0.474058 -0.24909,0.712835 -0.08846,0.253545 -0.179869,0.506074 -0.26203,0.761775 -0.09159,0.270817 -0.18914,0.539496 -0.283014,0.809509 -0.09431,0.26593 -0.191921,0.530678 -0.28425,0.797318 -0.09073,0.263654 -0.186042,0.52571 -0.273928,0.790342 -0.08996,0.264231 -0.176337,0.529667 -0.259157,0.796224 -0.09259,0.285737 -0.186743,0.570942 -0.283128,0.855422 -0.09637,0.300315 -0.197982,0.59894 -0.307433,0.894763 -0.11054,0.304207 -0.218323,0.609327 -0.319881,0.916678 -0.100943,0.295362 -0.196025,0.592645 -0.293663,0.889108 -0.09428,0.296823 -0.194007,0.591841 -0.287754,0.888828 -0.08896,0.282573 -0.175327,0.565968 -0.261463,0.849413 -0.07696,0.265359 -0.15133,0.531442 -0.228343,0.79679 -0.07973,0.270066 -0.160657,0.539883 -0.229167,0.813083 -0.06759,0.261687 -0.131212,0.524439 -0.205431,0.784366 -0.07349,0.255352 -0.145751,0.510984 -0.215521,0.767381 -0.0765,0.268476 -0.158155,0.535448 -0.232963,0.804405 -0.07615,0.267264 -0.15128,0.534794 -0.227254,0.802103 -0.07731,0.272097 -0.146865,0.546362 -0.225853,0.818004 -0.07747,0.272868 -0.151431,0.546807 -0.237117,0.817259 -0.07839,0.244935 -0.155188,0.490354 -0.23854,0.733678 -0.0769,0.244677 -0.155568,0.488786 -0.231517,0.733756 -0.07307,0.223684 -0.145732,0.447501 -0.217229,0.67169 -0.07057,0.21644 -0.145592,0.431395 -0.214308,0.648422 -0.07099,0.218977 -0.143981,0.43729 -0.213319,0.656799 -0.07054,0.214043 -0.144808,0.426823 -0.215454,0.640829 -0.06777,0.201755 -0.130838,0.40509 -0.20046,0.606248 -0.0641,0.207063 -0.131577,0.413043 -0.198933,0.619064 -0.05907,0.18978 -0.124892,0.37733 -0.182236,0.567653 -0.04869,0.171027 -0.104859,0.339688 -0.153923,0.510585 -0.04776,0.165349 -0.09659,0.330599 -0.157621,0.491646 -0.05311,0.138959 -0.104,0.278791 -0.161145,0.416166 -0.05517,0.127973 -0.112798,0.254719 -0.171995,0.380862 -0.04096,0.085 -0.08055,0.171619 -0.138578,0.246674 -0.03455,0.04216 -0.07182,0.08169 -0.112767,0.117776 0,0 -12.2751366,7.087053 -12.2751366,7.087053 z"
       inkscape:connector-curvature="0" />
    <path
       style="fill:#000000;stroke-width:0.26458332"
       id="path314"
       d="m 77.784668,82.009966 c 0.03234,-0.06567 0.06795,-0.129688 0.101063,-0.195009 0.06772,-0.130376 0.130596,-0.2633 0.19363,-0.396009 0.08262,-0.177898 0.160888,-0.357728 0.238294,-0.537943 0.09341,-0.215845 0.191437,-0.429649 0.285396,-0.645245 0.11327,-0.247579 0.213458,-0.500631 0.309943,-0.75511 0.103378,-0.25604 0.198104,-0.515311 0.293529,-0.774364 0.103375,-0.28071 0.206076,-0.561689 0.312428,-0.841293 0.112292,-0.300027 0.22606,-0.599509 0.33587,-0.900459 0.110162,-0.287624 0.219551,-0.575517 0.323905,-0.865302 0.106326,-0.277984 0.206751,-0.558143 0.30783,-0.838062 0.105381,-0.290949 0.205528,-0.58375 0.309224,-0.875294 0.105211,-0.284277 0.200998,-0.571852 0.297333,-0.859211 0.101037,-0.30489 0.19563,-0.611907 0.287753,-0.919596 0.09189,-0.313196 0.176289,-0.628471 0.267661,-0.941814 0.08832,-0.307811 0.174876,-0.616159 0.258151,-0.925375 0.09093,-0.32254 0.178964,-0.645877 0.262239,-0.970478 0.08249,-0.317569 0.164071,-0.63541 0.247843,-0.952648 0.08491,-0.326054 0.170164,-0.652021 0.254447,-0.978242 0.08341,-0.327149 0.172053,-0.652912 0.255574,-0.980045 0.08484,-0.323721 0.174242,-0.646195 0.261734,-0.969198 0.09262,-0.315246 0.179761,-0.632087 0.272222,-0.947365 0.0914,-0.311002 0.183401,-0.621839 0.278286,-0.931796 0.09354,-0.313862 0.19005,-0.626772 0.287354,-0.939485 0.09002,-0.298786 0.186343,-0.595604 0.27777,-0.893951 0.09398,-0.29691 0.186169,-0.594367 0.280154,-0.891272 0.08907,-0.289158 0.180911,-0.577393 0.273444,-0.865455 0.08588,-0.276466 0.177737,-0.551005 0.26462,-0.827148 0.08403,-0.269066 0.173136,-0.53647 0.256974,-0.805604 0.0875,-0.259516 0.166754,-0.521729 0.253307,-0.781534 0.08483,-0.241975 0.165378,-0.485338 0.241932,-0.730043 0.07802,-0.238205 0.155425,-0.4766 0.230082,-0.715878 0.07416,-0.221025 0.150117,-0.441423 0.222848,-0.662924 0.06929,-0.208982 0.129572,-0.420733 0.196535,-0.630455 0.06506,-0.20307 0.126508,-0.407239 0.186698,-0.611793 0.06465,-0.193204 0.123701,-0.388197 0.185936,-0.582168 0.06655,-0.198081 0.126164,-0.39837 0.186161,-0.598501 0.05059,-0.186759 0.10854,-0.371091 0.168571,-0.554969 0.05315,-0.164729 0.107802,-0.32898 0.159369,-0.494212 0.04747,-0.151723 0.0911,-0.304605 0.132255,-0.458148 0.03889,-0.14461 0.07452,-0.290033 0.109151,-0.435707 0.02633,-0.119891 0.06136,-0.237705 0.08719,-0.35768 0.01765,-0.07723 0.02832,-0.154874 0.02024,-0.233836 -0.01093,-0.05457 -0.045,-0.08483 -0.09798,-0.09536 -0.08229,-0.01008 -0.161999,0.01318 -0.239662,0.03736 -0.119137,0.04088 -0.229915,0.100786 -0.340702,0.159801 -7.753897,4.962922 40.08546,-23.589094 -0.272714,0.157514 -4.022325,2.366725 16.134834,-9.388379 12.126585,-6.997885 -0.168723,0.099 -0.330251,0.209071 -0.490866,0.320493 -0.175525,0.123859 -0.350716,0.248245 -0.524513,0.374515 -0.188195,0.137416 -0.373798,0.278214 -0.55917,0.419407 -0.193495,0.14715 -0.385091,0.296772 -0.575953,0.447315 -0.184968,0.145267 -0.367337,0.293782 -0.549524,0.442505 -0.180858,0.147881 -0.359595,0.298317 -0.537755,0.449426 -0.183589,0.154244 -0.358362,0.318495 -0.529566,0.486251 -0.169484,0.161246 -0.334028,0.327589 -0.499234,0.493186 -0.15561,0.157264 -0.31373,0.312055 -0.467024,0.471583 -0.158605,0.161147 -0.312034,0.327292 -0.4664,0.492477 -0.147008,0.159274 -0.297034,0.31564 -0.447021,0.472078 -0.143219,0.149849 -0.290425,0.295875 -0.43692,0.442515 -0.158554,0.156591 -0.313682,0.316569 -0.467707,0.477608 -0.150399,0.156268 -0.298836,0.31438 -0.444978,0.47463 -0.140825,0.156179 -0.277027,0.316439 -0.412166,0.477547 -0.127756,0.153278 -0.258831,0.303797 -0.384595,0.458724 -0.116203,0.145473 -0.224661,0.296963 -0.335227,0.44673 -0.09874,0.135197 -0.20043,0.268256 -0.29695,0.405053 -0.09448,0.1366 -0.182576,0.277144 -0.268206,0.41941 -0.07943,0.13512 -0.16089,0.268978 -0.243821,0.401973 -0.0737,0.117841 -0.147675,0.235511 -0.221615,0.353201 -0.0612,0.09741 -0.122412,0.19482 -0.183618,0.292227 -0.02572,0.03832 -0.04856,0.07808 -0.06937,0.11921 0,0 -12.275134,7.087053 -12.275134,7.087053 v 0 c 0.0208,-0.04113 0.04364,-0.08089 0.06937,-0.119208 0.06121,-0.09741 0.122418,-0.194816 0.183621,-0.292227 0.07394,-0.117692 0.14791,-0.23536 0.221613,-0.353201 0.08293,-0.132995 0.16439,-0.266856 0.243824,-0.401976 0.08563,-0.142263 0.17372,-0.28281 0.268202,-0.419409 0.09652,-0.136795 0.198213,-0.269854 0.296953,-0.405051 0.110564,-0.14977 0.219022,-0.301257 0.335227,-0.446733 0.125762,-0.154927 0.256836,-0.305446 0.384593,-0.458724 0.135139,-0.161105 0.271343,-0.321368 0.412168,-0.477544 0.14614,-0.160253 0.294576,-0.318365 0.444979,-0.474633 0.154022,-0.161039 0.30915,-0.321014 0.467704,-0.477605 0.146497,-0.146642 0.293703,-0.292669 0.436919,-0.442515 0.149987,-0.156438 0.300014,-0.312807 0.447022,-0.472081 0.154366,-0.165184 0.307798,-0.331329 0.4664,-0.492476 0.153294,-0.159528 0.311417,-0.31432 0.467023,-0.471581 0.165206,-0.1656 0.329751,-0.33194 0.499235,-0.493188 0.171204,-0.167754 0.34598,-0.332005 0.529566,-0.486249 0.178162,-0.151109 0.356896,-0.301548 0.537755,-0.449426 0.182187,-0.148723 0.364556,-0.297241 0.549524,-0.442508 0.190862,-0.150543 0.38246,-0.300162 0.575953,-0.447315 0.185372,-0.141192 0.370975,-0.281988 0.55917,-0.419407 0.173797,-0.12627 0.348991,-0.250656 0.524515,-0.374512 0.160613,-0.111422 0.322144,-0.221499 0.490863,-0.320496 4.261192,-2.541349 -16.793646,10.015159 12.42369,-7.176219 4.048023,-2.381845 -16.26472,9.402855 -12.202427,7.045428 4.158208,-2.41309 8.312394,-4.80944 12.475139,-7.202943 0.110789,-0.05902 0.221567,-0.118916 0.340704,-0.1598 0.07766,-0.02421 0.157369,-0.04744 0.239662,-0.03737 0.05298,0.01053 0.08706,0.04079 0.09799,0.09536 0.008,0.07896 -0.003,0.156609 -0.0203,0.233839 -0.02581,0.119975 -0.06085,0.237789 -0.08719,0.357677 -0.03463,0.145676 -0.07026,0.291099 -0.109151,0.43571 -0.04116,0.15354 -0.08479,0.306425 -0.132255,0.458145 -0.05157,0.165235 -0.106222,0.329485 -0.159369,0.494215 -0.06003,0.183875 -0.117986,0.36821 -0.168571,0.554966 -0.06,0.200133 -0.119618,0.40042 -0.186161,0.598503 -0.06224,0.193969 -0.121288,0.388962 -0.185936,0.582166 -0.06019,0.204554 -0.121637,0.408725 -0.186701,0.611796 -0.06696,0.209722 -0.127238,0.42147 -0.196535,0.630452 -0.07273,0.221503 -0.148685,0.441901 -0.222848,0.662926 -0.07465,0.239279 -0.152056,0.477674 -0.230079,0.715876 -0.07655,0.244705 -0.157107,0.488068 -0.241935,0.730046 -0.08655,0.259805 -0.165803,0.522017 -0.253304,0.781534 -0.08384,0.269134 -0.172945,0.536538 -0.256974,0.805603 -0.08688,0.276141 -0.178744,0.550683 -0.264623,0.827146 -0.09253,0.288065 -0.184375,0.576297 -0.273441,0.865455 -0.09399,0.296907 -0.186174,0.594362 -0.280154,0.891272 -0.09143,0.29835 -0.187754,0.595167 -0.277771,0.893953 -0.0973,0.312711 -0.193812,0.625621 -0.287353,0.939486 -0.09488,0.309956 -0.186891,0.620794 -0.278286,0.931793 -0.09246,0.315278 -0.179599,0.632122 -0.272222,0.947365 -0.0875,0.323003 -0.176898,0.64548 -0.261736,0.9692 -0.08352,0.327134 -0.172165,0.652894 -0.255572,0.980043 -0.08429,0.326221 -0.169534,0.652188 -0.254447,0.978244 -0.08377,0.317238 -0.165354,0.635077 -0.247846,0.952648 -0.08327,0.324602 -0.171304,0.647936 -0.262239,0.970476 -0.08327,0.309219 -0.169833,0.617567 -0.258149,0.925378 -0.09137,0.313343 -0.175773,0.628618 -0.26766,0.941813 -0.09212,0.307689 -0.186717,0.614707 -0.287756,0.919597 -0.09633,0.287356 -0.192119,0.574931 -0.29733,0.85921 -0.103696,0.291542 -0.203843,0.584343 -0.309224,0.875295 -0.101079,0.279916 -0.201504,0.560078 -0.30783,0.838059 -0.104354,0.289788 -0.213743,0.577681 -0.323905,0.865302 -0.10981,0.30095 -0.223581,0.600432 -0.33587,0.900461 -0.106352,0.279604 -0.209053,0.560584 -0.312428,0.841293 -0.09542,0.259054 -0.190151,0.518322 -0.293529,0.774364 -0.09649,0.254477 -0.196675,0.507532 -0.309943,0.755111 -0.09396,0.215593 -0.191987,0.4294 -0.285396,0.645244 -0.07741,0.180216 -0.15567,0.360045 -0.238294,0.537943 -0.06303,0.132707 -0.125905,0.265634 -0.19363,0.39601 -0.03312,0.06532 -0.06872,0.129334 -0.101063,0.195006 0,0 -12.275137,7.087055 -12.275137,7.087055 z"
       inkscape:connector-curvature="0" />
    <path
       style="fill:#000000;stroke-width:0.26458332"
       id="path316"
       d="m 89.114864,60.027422 c 0.05411,0.05054 0.136991,0.03736 0.204677,0.03368 0.208142,-0.03399 0.413244,-0.08465 0.619829,-0.127011 0.30785,-0.06344 0.615031,-0.129839 0.920257,-0.204946 0.357855,-0.08517 0.710645,-0.189677 1.062215,-0.297466 0.380672,-0.116996 0.760196,-0.237718 1.138896,-0.360926 0.393166,-0.126828 0.784289,-0.259927 1.173875,-0.397341 0.392678,-0.143179 0.781108,-0.297807 1.168537,-0.454549 0.393229,-0.157339 0.78522,-0.317711 1.17778,-0.476697 0.378719,-0.148955 0.758293,-0.295862 1.138896,-0.439957 0.361797,-0.134339 0.722024,-0.27282 1.084003,-0.406691 0.3302,-0.121687 0.663147,-0.235609 0.997008,-0.346781 0.305503,-0.101177 0.613353,-0.194993 0.921903,-0.286377 0.28515,-0.07889 0.56723,-0.16808 0.85043,-0.253548 0.26226,-0.07993 0.52662,-0.152614 0.79113,-0.22465 0.23585,-0.06444 0.47278,-0.124846 0.70955,-0.185764 0.17062,-0.0449 0.34225,-0.0859 0.51237,-0.132635 0,0 -12.275139,7.087055 -12.275139,7.087055 v 0 c -0.17012,0.04674 -0.341749,0.08773 -0.512366,0.132633 -0.236776,0.06092 -0.473702,0.121324 -0.709549,0.185764 -0.264509,0.07204 -0.528873,0.144719 -0.791131,0.224652 -0.283202,0.08547 -0.565287,0.174654 -0.850434,0.253545 -0.308552,0.09139 -0.616392,0.1852 -0.921901,0.286377 -0.333859,0.111173 -0.666808,0.225094 -0.997008,0.346781 -0.361979,0.133874 -0.722204,0.272352 -1.084003,0.406694 -0.380603,0.144092 -0.760177,0.291002 -1.138897,0.439957 -0.392559,0.158983 -0.78455,0.319358 -1.177776,0.476695 -0.387432,0.156744 -0.775862,0.311369 -1.168541,0.454551 -0.389583,0.137412 -0.780708,0.270513 -1.173871,0.397341 -0.378704,0.123208 -0.758227,0.24393 -1.138896,0.360926 -0.351573,0.107786 -0.704361,0.212291 -1.062215,0.297463 -0.305229,0.07511 -0.61241,0.141505 -0.920261,0.204949 -0.206584,0.04236 -0.411686,0.09302 -0.619828,0.127008 -0.06768,0.0037 -0.150562,0.01685 -0.204677,-0.03367 0,0 12.275137,-7.087055 12.275137,-7.087055 z"
       inkscape:connector-curvature="0" />
    <path
       style="fill:#000000;stroke-width:0.26458332"
       id="path318"
       d="m 33.072865,15.315722 c -0.04164,0.05638 -0.08854,0.108184 -0.135041,0.160464 -0.08933,0.09838 -0.175133,0.199793 -0.261784,0.300516 -0.146444,0.174477 -0.290319,0.351044 -0.43824,0.524273 -0.169545,0.204424 -0.346181,0.402833 -0.522938,0.601009 -0.210645,0.224976 -0.422145,0.449111 -0.631748,0.675075 -0.227029,0.249342 -0.454504,0.498304 -0.684446,0.744969 -0.244374,0.260038 -0.488444,0.520404 -0.737507,0.775967 -0.263112,0.272214 -0.536586,0.533921 -0.813118,0.792375 -0.294722,0.277355 -0.5936,0.550153 -0.893593,0.821777 -0.297018,0.272122 -0.600075,0.537495 -0.902324,0.803762 -0.299255,0.264386 -0.597181,0.530242 -0.897784,0.793093 -0.335563,0.290273 -0.674643,0.576403 -1.013561,0.862736 -0.347775,0.288997 -0.696496,0.576852 -1.044554,0.865509 -0.305295,0.254206 -0.61178,0.506963 -0.919729,0.757943 -0.2896,0.239523 -0.580723,0.477178 -0.869413,0.717805 -0.291491,0.24131 -0.587644,0.47686 -0.880808,0.716113 -0.273872,0.22096 -0.546674,0.443242 -0.823264,0.660809 -0.273438,0.212483 -0.549135,0.42201 -0.823116,0.6338 -0.249936,0.194438 -0.50376,0.383757 -0.754566,0.577055 -0.230496,0.175006 -0.459387,0.352176 -0.686051,0.532125 -0.217392,0.168886 -0.43181,0.341535 -0.647342,0.512781 -0.221551,0.178146 -0.444307,0.354777 -0.664429,0.534691 -0.199909,0.169108 -0.408079,0.327985 -0.611234,0.493072 -0.182325,0.150477 -0.366816,0.298429 -0.553586,0.443355 -0.185428,0.147113 -0.370943,0.2941 -0.556749,0.440742 -0.174972,0.138632 -0.350346,0.276763 -0.524679,0.416195 -0.171533,0.135972 -0.341461,0.273818 -0.515772,0.406231 -0.189124,0.151688 -0.386451,0.292611 -0.582041,0.435729 -0.179083,0.131077 -0.358137,0.262197 -0.537194,0.393311 -0.142796,0.104124 -0.286172,0.207486 -0.423325,0.319016 0,0 -12.27513594,7.087052 -12.27513594,7.087052 v 0 C 0.58494643,40.003545 0.72832223,39.900183 0.87111863,39.796059 1.0501755,39.664945 1.2292289,39.533825 1.4083124,39.402748 1.6039019,39.25963 1.8012295,39.118705 1.9903536,38.967016 2.1646646,38.834606 2.3345924,38.696758 2.5061247,38.560788 2.6804581,38.421353 2.8558319,38.283224 3.0308043,38.144593 3.2166098,37.997948 3.402125,37.850964 3.5875535,37.703851 3.7743237,37.558922 3.9588142,37.410973 4.1411388,37.260494 4.3442944,37.095409 4.5524643,36.93653 4.7523732,36.767421 4.9724954,36.58751 5.195251,36.410879 5.416802,36.23273 5.6323339,36.061484 5.8467517,35.888835 6.064144,35.719949 6.2908085,35.540003 6.5196996,35.36283 6.7501953,35.187824 7.0010007,34.994528 7.254825,34.805208 7.5047616,34.610771 7.7787424,34.39898 8.0544393,34.189454 8.3278774,33.976969 c 0.2765895,-0.217566 0.5493925,-0.439848 0.8232632,-0.660807 0.293164,-0.239252 0.5893177,-0.474803 0.8808084,-0.716113 0.288689,-0.240628 0.579812,-0.478282 0.869412,-0.717804 0.30795,-0.250981 0.614435,-0.503738 0.91973,-0.757944 0.348057,-0.288658 0.696778,-0.576511 1.044553,-0.865511 0.338918,-0.286332 0.677998,-0.572463 1.01356,-0.862734 0.300605,-0.262851 0.598532,-0.528707 0.897785,-0.793094 0.302248,-0.266266 0.605305,-0.531638 0.902325,-0.803762 0.299991,-0.271624 0.59887,-0.544422 0.893592,-0.821777 0.276531,-0.258454 0.550006,-0.520161 0.813119,-0.792375 0.249063,-0.255562 0.493133,-0.515929 0.737507,-0.775967 0.229942,-0.246664 0.457415,-0.495626 0.684444,-0.744969 0.209603,-0.225964 0.421103,-0.450098 0.631749,-0.675075 0.176757,-0.198175 0.353394,-0.396584 0.522938,-0.601008 0.147922,-0.17323 0.291798,-0.349797 0.438242,-0.524274 0.08665,-0.100722 0.172454,-0.202137 0.261783,-0.300516 0.0465,-0.05228 0.0934,-0.104086 0.13504,-0.160463 0,0 12.275137,-7.087054 12.275137,-7.087054 z"
       inkscape:connector-curvature="0" />
    <path
       style="fill:#000000;stroke-width:0.26458332"
       id="path320"
       d="m 34.468498,25.829221 c -0.09535,0.118008 -0.202136,0.225957 -0.308851,0.33354 -0.227642,0.218724 -0.483341,0.405321 -0.739306,0.589019 -0.361358,0.260199 -0.736719,0.499888 -1.11301,0.737666 -4.490172,2.685603 -9.066442,5.24978 -13.588927,7.860586 20.837947,-11.903289 15.234524,-8.840518 10.88582,-6.275994 -0.470673,0.279281 -0.937078,0.565695 -1.403681,0.851705 -0.436155,0.26675 -0.866579,0.542644 -1.298512,0.81612 -0.41284,0.26343 -0.825352,0.527518 -1.23353,0.798134 -0.389858,0.255111 -0.773562,0.51948 -1.155637,0.786059 -0.356419,0.247766 -0.711259,0.49784 -1.063675,0.751276 -0.344358,0.250778 -0.688086,0.502431 -1.02913,0.757703 -0.319083,0.238795 -0.640065,0.475041 -0.959725,0.713055 -0.311272,0.228592 -0.621323,0.458907 -0.935954,0.682871 -0.300352,0.213998 -0.597772,0.432009 -0.895358,0.649819 -0.283767,0.208447 -0.568156,0.416042 -0.85368,0.622081 -0.268509,0.190733 -0.532273,0.387977 -0.798009,0.582512 -0.267397,0.197736 -0.529397,0.402518 -0.792552,0.605808 -0.260831,0.205349 -0.522909,0.409099 -0.783578,0.614656 -0.249749,0.192718 -0.496126,0.389742 -0.744257,0.584528 -0.234551,0.186913 -0.467479,0.375857 -0.698757,0.566804 -0.216772,0.178507 -0.428623,0.362757 -0.640404,0.547098 -0.197006,0.177837 -0.395987,0.353478 -0.592286,0.532095 -0.202262,0.184711 -0.398966,0.37538 -0.593638,0.568039 -0.170917,0.170419 -0.343862,0.339125 -0.527752,0.495578 -0.09807,0.07984 -0.04966,0.04229 -0.14489,0.113059 0,0 -12.27513633,7.087053 -12.27513633,7.087053 v 0 c 0.0952273,-0.07077 0.0468246,-0.03322 0.14488969,-0.113059 0.18388991,-0.156451 0.35683485,-0.32516 0.52775225,-0.495578 C 1.0513962,47.998795 1.2481001,47.808125 1.4503626,47.623415 1.6466614,47.444797 1.8456421,47.269159 2.042648,47.091322 2.2544287,46.906981 2.4662808,46.722728 2.6830528,46.544224 2.9143303,46.353274 3.1472579,46.16433 3.3818094,45.977418 3.6299399,45.782632 3.8763172,45.585607 4.1260667,45.392892 4.386735,45.187335 4.6488132,44.983582 4.909644,44.778236 c 0.2631554,-0.20329 0.5251553,-0.408075 0.7925525,-0.605811 0.2657361,-0.194532 0.5294995,-0.391776 0.798009,-0.582512 0.2855235,-0.206036 0.5699127,-0.413634 0.8536797,-0.62208 0.2975861,-0.217808 0.5950061,-0.435822 0.8953584,-0.64982 0.3146309,-0.223961 0.6246813,-0.454276 0.9359532,-0.682868 0.3196606,-0.238017 0.6406428,-0.474263 0.9597252,-0.713057 0.341044,-0.25527 0.684772,-0.506923 1.029131,-0.757704 0.352415,-0.253436 0.707255,-0.50351 1.063674,-0.751276 0.382076,-0.266578 0.765779,-0.530947 1.155638,-0.786058 0.408178,-0.270616 0.82069,-0.534702 1.233529,-0.798135 0.431934,-0.273473 0.862358,-0.549367 1.298511,-0.81612 0.466605,-0.286007 0.933009,-0.572424 1.403682,-0.851704 4.531685,-2.672432 9.171439,-5.159132 13.664453,-7.898112 -20.74988,11.981143 -15.273625,8.893633 -10.961346,6.313519 0.376292,-0.237775 0.751653,-0.477464 1.11301,-0.737666 0.255965,-0.183695 0.511665,-0.370295 0.739306,-0.589018 0.106716,-0.107582 0.213503,-0.215532 0.30885,-0.333539 0,0 12.275138,-7.087054 12.275138,-7.087054 z"
       inkscape:connector-curvature="0" />
    <path
       style="fill:#000000;stroke-width:0.26458332"
       id="path324"
       d="m 99.486163,31.757685 c -0.02461,0.0409 -0.04686,0.08199 -0.07865,0.117962 -0.05661,0.06303 -0.117539,0.122327 -0.177409,0.182324 -0.118149,0.126569 -0.238389,0.250883 -0.364331,0.369726 -0.16198,0.149649 -0.327221,0.29563 -0.489418,0.445059 -0.213231,0.192534 -0.424662,0.387088 -0.633844,0.584017 -0.259591,0.248536 -0.50746,0.508802 -0.748512,0.775235 -0.272838,0.297878 -0.522067,0.615942 -0.767876,0.936119 -0.258545,0.343845 -0.501327,0.69886 -0.734004,1.060582 -0.215824,0.331145 -0.408292,0.676569 -0.583552,1.030645 -0.150029,0.305356 -0.267375,0.623935 -0.357008,0.951725 -0.07709,0.28675 -0.106579,0.580736 -0.10169,0.876718 0.0049,0.265388 0.07376,0.519097 0.175834,0.762092 0.100939,0.233027 0.252191,0.435052 0.419902,0.623428 0.169783,0.189404 0.374917,0.339058 0.586293,0.478004 0.217638,0.136951 0.451847,0.24243 0.692886,0.330306 0.237281,0.08654 0.481708,0.149764 0.730562,0.191629 0.258336,0.04111 0.517975,0.02783 0.775483,-0.0091 0.273341,-0.04456 0.536604,-0.131961 0.797674,-0.2219 0.265186,-0.08948 0.523113,-0.197634 0.778914,-0.310664 0.254964,-0.115953 0.504995,-0.242104 0.755293,-0.36767 0.24345,-0.12663 0.48735,-0.25219 0.72707,-0.385781 -4.05574,2.341515 -8.111477,4.683027 -12.167211,7.024542 0,0 12.275141,-7.087052 12.275141,-7.087052 v 0 c -4.127694,2.383186 -8.255382,4.766376 -12.383073,7.149562 -0.239717,0.133591 -0.483621,0.259152 -0.727069,0.385781 -0.250293,0.125569 -0.500325,0.251717 -0.755288,0.367671 -0.255802,0.11303 -0.513725,0.221183 -0.778915,0.310663 -0.261067,0.08994 -0.52433,0.177345 -0.797673,0.221903 -0.257506,0.03695 -0.517147,0.05022 -0.775483,0.0091 -0.248854,-0.04187 -0.493282,-0.105089 -0.730563,-0.191632 -0.241038,-0.08788 -0.475247,-0.193352 -0.692885,-0.330306 -0.211376,-0.138946 -0.416507,-0.288597 -0.58629,-0.478004 -0.167714,-0.188373 -0.318966,-0.390401 -0.419905,-0.623427 -0.102073,-0.242996 -0.170947,-0.496705 -0.175834,-0.762093 -0.0049,-0.295979 0.02461,-0.589968 0.10169,-0.876718 0.08963,-0.327789 0.206978,-0.646366 0.357008,-0.951725 0.17526,-0.354076 0.367731,-0.699497 0.583551,-1.030644 0.232678,-0.36172 0.475459,-0.716738 0.734005,-1.06058 0.245811,-0.32018 0.495041,-0.638241 0.767876,-0.936119 0.241052,-0.266433 0.488921,-0.526701 0.748512,-0.775235 0.209182,-0.196932 0.420613,-0.391485 0.633844,-0.58402 0.162197,-0.149429 0.327437,-0.295407 0.489418,-0.445058 0.125942,-0.118843 0.246181,-0.243158 0.364331,-0.369726 0.05987,-0.06 0.120796,-0.119296 0.177409,-0.182325 0.03178,-0.03597 0.05405,-0.07706 0.07865,-0.117962 0,0 12.275137,-7.087052 12.275137,-7.087052 z"
       inkscape:connector-curvature="0" />
    <path
       style="fill:#000000;stroke-width:0.26458332"
       id="path326"
       d="m 25.371009,11.938584 c -37.24631,21.682053 4.339896,-2.6901344 -0.232471,0.137657 -0.123566,0.07559 -0.235913,0.167712 -0.348092,0.258899 -0.167284,0.137389 -0.332512,0.277017 -0.491886,0.423537 -0.205257,0.193739 -0.409411,0.38873 -0.60929,0.588024 -0.200199,0.198763 -0.393814,0.403817 -0.585636,0.610614 -0.199068,0.214546 -0.375597,0.448089 -0.542648,0.687958 -0.182859,0.266559 -0.338799,0.550179 -0.493546,0.833588 -0.144878,0.256485 -0.268632,0.523505 -0.365969,0.801409 -0.07758,0.238766 -0.104649,0.486386 -0.09569,0.736122 0.0089,0.204798 0.07678,0.395224 0.170857,0.574934 0.0835,0.156781 0.213707,0.262361 0.368359,0.342981 0.158216,0.07851 0.33239,0.108414 0.505757,0.131208 0.180418,0.02492 0.361942,0.03477 0.543801,0.04028 0.193924,0.0098 0.387571,0.002 0.580902,-0.01347 0.205561,-0.01609 0.40967,-0.0465 0.612788,-0.08131 0.218875,-0.04033 0.434479,-0.0958 0.647875,-0.15857 0.241007,-0.07566 0.47831,-0.162577 0.714227,-0.252711 0.221395,-0.08556 0.441076,-0.175466 0.662326,-0.261388 0.165148,-0.06207 0.330031,-0.124185 0.491461,-0.195429 0,0 -12.275137,7.087053 -12.275137,7.087053 v 0 c -0.16143,0.07124 -0.326314,0.133363 -0.49146,0.195429 -0.22125,0.08592 -0.440932,0.175827 -0.662326,0.261389 -0.235918,0.09013 -0.473221,0.177049 -0.714227,0.252711 -0.213397,0.06277 -0.429001,0.118239 -0.647876,0.158569 -0.203118,0.03481 -0.407226,0.06522 -0.612788,0.08131 -0.193331,0.01543 -0.386978,0.0233 -0.580901,0.01347 -0.18186,-0.0055 -0.363384,-0.01536 -0.543802,-0.04028 -0.173367,-0.02279 -0.34754,-0.05269 -0.5057567,-0.131207 -0.154652,-0.08062 -0.28486,-0.186201 -0.368358,-0.342981 -0.09408,-0.17971 -0.1619107,-0.370136 -0.1708567,-0.574934 -0.009,-0.249737 0.01811,-0.497356 0.09569,-0.736122 0.09734,-0.277905 0.2210917,-0.544925 0.3659687,-0.801409 0.154747,-0.283409 0.3106867,-0.56703 0.4935457,-0.833589 0.167051,-0.239869 0.343581,-0.473411 0.542649,-0.687958 0.191821,-0.206796 0.385436,-0.41185 0.585635,-0.610614 0.199879,-0.199293 0.404033,-0.394285 0.609291,-0.588023 0.159373,-0.14652 0.324601,-0.286149 0.491885,-0.423538 0.112179,-0.09119 0.224527,-0.183308 0.348092,-0.258898 4.078514,-2.522368 5.652484,-3.26882 12.404403,-7.167016 0.01177,-0.0068 0.0474,-0.0266 0.03564,-0.01981 -12.424051,7.175116 -16.3135564,9.439029 -12.207568,7.049166 0,0 12.275137,-7.087054 12.275137,-7.087054 z"
       inkscape:connector-curvature="0" />
  </g>
</svg>
