<?xml version="1.0" encoding="UTF-8" standalone="no"?>
<!-- Created with Inkscape (http://www.inkscape.org/) -->

<svg
   xmlns:dc="http://purl.org/dc/elements/1.1/"
   xmlns:cc="http://creativecommons.org/ns#"
   xmlns:rdf="http://www.w3.org/1999/02/22-rdf-syntax-ns#"
   xmlns:svg="http://www.w3.org/2000/svg"
   xmlns="http://www.w3.org/2000/svg"
   xmlns:sodipodi="http://sodipodi.sourceforge.net/DTD/sodipodi-0.dtd"
   xmlns:inkscape="http://www.inkscape.org/namespaces/inkscape"
   width="104mm"
   height="104mm"
   viewBox="0 0 104 104"
   version="1.1"
   id="svg8"
   inkscape:version="0.92.3 (2405546, 2018-03-11)"
   sodipodi:docname="R16.svg">
  <defs
     id="defs2" />
  <sodipodi:namedview
     id="base"
     pagecolor="#ffffff"
     bordercolor="#666666"
     borderopacity="1.0"
     inkscape:pageopacity="0.0"
     inkscape:pageshadow="2"
     inkscape:zoom="1.4"
     inkscape:cx="179.12412"
     inkscape:cy="182.45898"
     inkscape:document-units="mm"
     inkscape:current-layer="layer3"
     showgrid="false"
     fit-margin-top="2"
     fit-margin-left="2"
     fit-margin-right="2"
     fit-margin-bottom="2"
     inkscape:window-width="800"
     inkscape:window-height="845"
     inkscape:window-x="0"
     inkscape:window-y="27"
     inkscape:window-maximized="0" />
  <metadata
     id="metadata5">
    <rdf:RDF>
      <cc:Work
         rdf:about="">
        <dc:format>image/svg+xml</dc:format>
        <dc:type
           rdf:resource="http://purl.org/dc/dcmitype/StillImage" />
        <dc:title></dc:title>
      </cc:Work>
    </rdf:RDF>
  </metadata>
  <g
     inkscape:groupmode="layer"
     id="layer3"
     inkscape:label="Layer 2">
    <path
       style="fill:#000000;stroke-width:0.26458332"
       id="path252"
       d="m 74.362269,44.919899 c 0,0.0963 0,0.192596 0,0.288894 0,0.170849 0,0.341696 0,0.512545 0,0.219866 0,0.43973 0,0.659596 -0.0011,0.232029 -0.0011,0.463912 0.0072,0.695809 0.01,0.27314 0.02074,0.546161 0.03748,0.818975 0.02005,0.32198 0.05167,0.643123 0.07919,0.964531 0.03545,0.345996 0.07187,0.691877 0.104781,1.038127 0.03487,0.380955 0.07709,0.76119 0.114485,1.14191 0.03745,0.397267 0.08513,0.793475 0.12741,1.190247 0.04391,0.410839 0.08092,0.822359 0.115758,1.234053 0.03593,0.425165 0.06643,0.850757 0.09573,1.276424 0.02892,0.423733 0.0548,0.847665 0.079,1.271691 0.02397,0.425 0.04502,0.850157 0.06519,1.275353 0.02003,0.421735 0.03737,0.843592 0.05379,1.265483 0.01659,0.428326 0.03075,0.856739 0.04439,1.285169 0.01331,0.420878 0.02511,0.841801 0.03663,1.262732 0.01109,0.405315 0.02088,0.810659 0.03023,1.216017 0.0093,0.402444 0.01736,0.804915 0.02495,1.207394 0.0069,0.428035 0.01331,0.856006 0.02774,1.283859 0.01656,0.448905 0.03252,0.897829 0.04731,1.346795 0.01548,0.474096 0.02831,0.948272 0.04047,1.422461 0.0177,0.483957 0.04033,0.967721 0.06098,1.45156 0.01775,0.49214 0.04171,0.983953 0.06777,1.475713 0.02706,0.503687 0.05194,1.007486 0.07623,1.511311 0.02748,0.47068 0.06044,0.941019 0.0912,1.411494 0.02969,0.451511 0.0561,0.903224 0.08065,1.355042 0.0311,0.476795 0.06369,0.953489 0.09421,1.430324 0.02522,0.457499 0.06296,0.914114 0.100344,1.370738 0.03454,0.419846 0.06728,0.839837 0.09833,1.259956 0.03741,0.415372 0.07216,0.831011 0.111959,1.246161 0.03977,0.429353 0.08697,0.857861 0.137165,1.286095 0.04967,0.393073 0.107873,0.784952 0.178782,1.17475 0.06169,0.373692 0.15726,0.739589 0.270142,1.100666 0.13054,0.389332 0.291729,0.767284 0.458451,1.142217 0.162396,0.34965 0.343146,0.69052 0.526603,1.029483 0.164171,0.299085 0.341958,0.590299 0.534014,0.872226 0.170905,0.256913 0.367601,0.494286 0.57677,0.720553 0.19489,0.212061 0.40871,0.405206 0.625266,0.594619 0.199996,0.171603 0.408083,0.333478 0.619504,0.490683 0.19141,0.140909 0.396446,0.261001 0.611134,0.362413 0.20088,0.09411 0.41284,0.16011 0.626835,0.21658 0.212993,0.0542 0.429948,0.07833 0.64924,0.07051 0.225433,-0.01601 0.444241,-0.07556 0.660445,-0.137935 0.215673,-0.06011 0.426612,-0.135482 0.635741,-0.215066 0.222837,-0.08689 0.4376,-0.19103 0.647869,-0.304576 4.406588,-2.570694 -16.467243,9.796532 -11.603405,6.679486 0.232786,-0.150786 0.463614,-0.304639 0.693478,-0.459846 0.237062,-0.166047 0.473573,-0.332862 0.709322,-0.500769 0.218712,-0.156263 0.433115,-0.318473 0.656293,-0.468365 0.13597,-0.08869 0.06752,-0.04602 0.205272,-0.128125 0,0 12.275137,-7.087052 12.275137,-7.087052 v 0 c -0.137747,0.08211 -0.0693,0.03943 -0.205271,0.128122 -0.223179,0.149894 -0.437581,0.312102 -0.656294,0.468365 -0.235749,0.16791 -0.47226,0.334725 -0.709324,0.500772 -0.229862,0.155204 -0.460693,0.309057 -0.693478,0.459843 -4.198305,2.690535 -8.623165,5.013365 -12.946867,7.494622 -0.21027,0.113548 -0.425029,0.217683 -0.647869,0.304578 -0.20913,0.07958 -0.420069,0.15495 -0.635738,0.215063 -0.216207,0.06238 -0.435012,0.121934 -0.660448,0.137936 -0.219292,0.0078 -0.436248,-0.01632 -0.649237,-0.07051 -0.213998,-0.05647 -0.425956,-0.12247 -0.626838,-0.21658 -0.214688,-0.101415 -0.419722,-0.221504 -0.611134,-0.362413 -0.211421,-0.157208 -0.419505,-0.319082 -0.619504,-0.490683 -0.216553,-0.189415 -0.430374,-0.382559 -0.625266,-0.594619 -0.209169,-0.226267 -0.405865,-0.463643 -0.57677,-0.720553 -0.192056,-0.281927 -0.369843,-0.573143 -0.534014,-0.872226 -0.183457,-0.338965 -0.364207,-0.679833 -0.526603,-1.029486 -0.166722,-0.37493 -0.327911,-0.752882 -0.458451,-1.142214 -0.112882,-0.361079 -0.208452,-0.726977 -0.27014,-1.100666 -0.07091,-0.3898 -0.129117,-0.78168 -0.178784,-1.17475 -0.0502,-0.428236 -0.09739,-0.856745 -0.137166,-1.286098 -0.0398,-0.415149 -0.07454,-0.830789 -0.111958,-1.246161 -0.03105,-0.420118 -0.06379,-0.840107 -0.09833,-1.259956 -0.03739,-0.456623 -0.07512,-0.913236 -0.100343,-1.370735 -0.03052,-0.476835 -0.06311,-0.953529 -0.09421,-1.430327 -0.02455,-0.451816 -0.05096,-0.903531 -0.08065,-1.355042 -0.03076,-0.470472 -0.06372,-0.940811 -0.0912,-1.411491 -0.02429,-0.503828 -0.04917,-1.007626 -0.07623,-1.511311 -0.02606,-0.491762 -0.05,-0.983573 -0.06777,-1.475716 -0.02064,-0.483838 -0.04329,-0.9676 -0.06098,-1.451557 -0.01217,-0.474192 -0.025,-0.948367 -0.04047,-1.422464 -0.01479,-0.448966 -0.03075,-0.89789 -0.04731,-1.346792 -0.01445,-0.427855 -0.0209,-0.855824 -0.02774,-1.283859 -0.0076,-0.402482 -0.01569,-0.804953 -0.02495,-1.207397 -0.0093,-0.405355 -0.01916,-0.810702 -0.03023,-1.216014 -0.01151,-0.420931 -0.02334,-0.841854 -0.03663,-1.262735 -0.01365,-0.428427 -0.0278,-0.856843 -0.04439,-1.285169 -0.01643,-0.421888 -0.03375,-0.843745 -0.05379,-1.265483 -0.02016,-0.425196 -0.04122,-0.85035 -0.06519,-1.27535 -0.02421,-0.424026 -0.05007,-0.847958 -0.079,-1.271691 -0.02929,-0.425667 -0.05979,-0.851259 -0.09573,-1.276426 -0.03484,-0.411695 -0.07185,-0.823212 -0.115755,-1.234054 -0.04228,-0.396769 -0.08997,-0.79298 -0.127412,-1.190247 -0.03739,-0.380719 -0.07961,-0.760952 -0.114486,-1.14191 -0.03291,-0.346249 -0.06933,-0.692131 -0.104777,-1.038127 -0.02752,-0.321405 -0.05913,-0.642548 -0.07919,-0.96453 -0.01675,-0.272812 -0.02747,-0.545836 -0.03748,-0.818976 -0.0083,-0.231894 -0.0083,-0.463777 -0.0072,-0.695809 0,-0.219863 0,-0.439729 0,-0.659593 0,-0.170849 0,-0.341699 0,-0.512545 0,-0.0963 0,-0.192596 0,-0.288894 0,0 12.275137,-7.087055 12.275137,-7.087055 z"
       inkscape:connector-curvature="0" />
    <path
       style="fill:#000000;stroke-width:0.26458332"
       id="path262"
       d="m 57.754366,54.721352 c 0.07983,-0.0074 0.156993,-0.03055 0.23391,-0.05193 0.141303,-0.03979 0.271187,-0.108841 0.401614,-0.174484 0.163242,-0.0816 0.323884,-0.16845 0.48225,-0.259115 8.180986,-4.848852 -40.734339,23.627728 0.261398,-0.149423 3.995023,-2.317075 -15.966448,9.291047 -12.00056,6.924447 0.186176,-0.109752 0.371755,-0.22044 0.557297,-0.331279 0.193307,-0.114441 0.381323,-0.237223 0.566534,-0.36425 0.200871,-0.139697 0.399634,-0.282379 0.59935,-0.423716 0.217278,-0.153509 0.43635,-0.304478 0.654457,-0.456817 0.245766,-0.169103 0.494258,-0.334147 0.741534,-0.501023 0.237795,-0.160663 0.480182,-0.314388 0.72212,-0.468699 0.256471,-0.167886 0.513379,-0.335071 0.771152,-0.500956 0.25758,-0.167437 0.520237,-0.326848 0.782108,-0.487429 0.257643,-0.153977 0.515956,-0.3068 0.773996,-0.460102 C 94.702967,33.11439 24.895536,73.408838 66.319889,49.496284 25.875253,72.844308 95.303688,32.760145 54.76958,56.16109 c 3.956397,-3.234782 8.70372,-5.034113 13.06635,-7.533708 0.291692,-0.169207 0.587007,-0.332023 0.881047,-0.497084 0.295095,-0.160578 0.589142,-0.322955 0.882015,-0.48755 7.072256,-4.071773 -38.490578,22.225256 0.884883,-0.505243 -20.591825,12.035314 -15.630911,9.07995 -11.385929,6.560288 0.286975,-0.169788 0.570929,-0.344585 0.856777,-0.516247 0.284075,-0.170241 0.566243,-0.343675 0.851598,-0.511765 0.273302,-0.165399 0.549289,-0.326321 0.822214,-0.492337 0.27753,-0.171622 0.5544,-0.34417 0.824749,-0.526952 0.272132,-0.185314 0.54479,-0.36989 0.816017,-0.556524 0.26171,-0.178128 0.521655,-0.358794 0.776219,-0.547013 0.272378,-0.200009 0.543951,-0.400987 0.812562,-0.606039 0.262773,-0.196347 0.525875,-0.392239 0.787505,-0.590111 0.245931,-0.18997 0.496311,-0.373993 0.742141,-0.564083 0.224033,-0.174856 0.456242,-0.338556 0.689991,-0.500023 0.23945,-0.159599 0.473667,-0.326967 0.706445,-0.496102 0.226949,-0.168688 0.458753,-0.330684 0.69046,-0.492725 0.233291,-0.161888 0.4715,-0.316651 0.709435,-0.471612 0.257289,-0.164812 0.507799,-0.339707 0.759534,-0.512773 0.235005,-0.168008 0.472583,-0.332357 0.710329,-0.496446 0.250063,-0.172929 0.497189,-0.350065 0.744451,-0.526965 0.264234,-0.18973 0.529158,-0.378519 0.794236,-0.567069 0.298726,-0.21423 0.599279,-0.425841 0.903177,-0.632669 0.345731,-0.237228 0.700423,-0.460668 1.057695,-0.679965 0.334971,-0.209926 0.67454,-0.412213 1.01499,-0.613061 41.964619,-24.226479 -28.167245,16.256841 13.265284,-7.660548 0.313595,-0.176424 0.628613,-0.350318 0.942145,-0.526867 0.311631,-0.171998 0.620969,-0.348128 0.932574,-0.520155 0.327398,-0.183351 0.659625,-0.35778 0.99028,-0.535109 0.32903,-0.177009 0.659812,-0.350787 0.987925,-0.529495 0.315288,-0.171053 0.626843,-0.348861 0.941752,-0.520615 0.280604,-0.158872 0.562071,-0.316188 0.84313,-0.474245 0.251216,-0.145372 0.506565,-0.283429 0.758671,-0.427199 -24.610782,14.273422 -7.505115,4.261419 0.67423,-0.385611 8.444728,-4.930021 -40.922022,23.679745 0.314915,-0.181298 3.987017,-2.307018 -15.952282,9.220771 -11.968647,6.907916 0.19776,-0.116803 0.389586,-0.243096 0.584028,-0.365246 0.17376,-0.107784 0.346171,-0.21779 0.521507,-0.322999 4.234154,-2.476582 8.430636,-5.022757 12.746546,-7.354093 0.138898,-0.07507 0.27796,-0.149757 0.419184,-0.220372 0.127728,-0.06985 0.254656,-0.141023 0.383194,-0.209404 0.112511,-0.05961 0.2252,-0.118872 0.33787,-0.178178 4.319251,-2.397702 -16.242953,9.513696 -12.119303,6.997924 0,0 12.275137,-7.087052 12.275137,-7.087052 v 0 c -4.084441,2.491851 -8.246282,4.856731 -12.430971,7.17618 -0.11267,0.05931 -0.225359,0.118576 -0.337871,0.178181 -0.128537,0.06838 -0.255465,0.139552 -0.38319,0.209404 -0.141227,0.07061 -0.280287,0.145299 -0.419188,0.220372 -4.538178,2.451396 16.397407,-9.503558 11.80373,-6.820014 -0.17534,0.105209 -0.347748,0.215215 -0.521507,0.322998 -0.194443,0.12215 -0.386268,0.248444 -0.584031,0.365247 -4.188439,2.431761 -8.380428,4.835239 -12.581625,7.266191 -4.054957,2.34633 16.232589,-9.363207 12.171211,-7.028013 -4.166383,2.395569 -8.32354,4.807146 -12.486126,7.209308 -8.60071,4.886428 40.032685,-23.045746 -0.67423,0.385614 -0.252106,0.143767 -0.507455,0.281827 -0.758672,0.427199 -0.281059,0.158055 -0.562525,0.315373 -0.843126,0.474242 -0.31491,0.171754 -0.626467,0.349565 -0.941755,0.520615 -0.328113,0.178711 -0.658895,0.352489 -0.987926,0.529498 -0.330652,0.177329 -0.662879,0.351755 -0.990279,0.535109 -0.311605,0.172024 -0.620943,0.348155 -0.932572,0.520155 -0.313534,0.176546 -0.628549,0.350441 -0.942147,0.526867 40.373212,-23.313181 -28.792495,16.623422 11.616706,-6.706324 0.110755,-0.06394 -0.44141,0.256603 -0.331716,0.192764 -0.34045,0.200848 -0.680022,0.403135 -1.014989,0.613061 -0.357273,0.219295 -0.711965,0.442738 -1.057696,0.679966 -0.303898,0.206828 -0.604451,0.418439 -0.903176,0.632666 -0.265079,0.18855 -0.530003,0.377339 -0.794237,0.567069 -0.247261,0.1769 -0.494387,0.354039 -0.74445,0.526968 -0.237747,0.164086 -0.475324,0.328435 -0.71033,0.496443 -0.251735,0.173069 -0.502245,0.347961 -0.759534,0.512775 -0.237935,0.154959 -0.476144,0.309724 -0.709435,0.471612 -0.231709,0.162042 -0.463511,0.324035 -0.69046,0.492726 -0.232777,0.169135 -0.466994,0.3365 -0.706445,0.496102 -0.233749,0.161464 -0.465958,0.325167 -0.689994,0.50002 -0.245827,0.190092 -0.496207,0.374115 -0.742137,0.564083 -0.261631,0.197874 -0.524733,0.393767 -0.787509,0.590114 -0.268607,0.205052 -0.540181,0.406029 -0.812559,0.606036 -0.254564,0.188222 -0.514511,0.368887 -0.776219,0.547015 -0.271227,0.186632 -0.543888,0.371211 -0.81602,0.556525 -0.270346,0.182779 -0.547219,0.35533 -0.824748,0.526952 -0.272923,0.166015 -0.54891,0.326935 -0.822211,0.492337 -0.285356,0.168089 -0.567524,0.341524 -0.851599,0.511765 -0.285851,0.171661 -0.569804,0.346458 -0.856776,0.516244 -4.359164,2.587437 -8.709404,5.18749 -13.164347,7.613819 -4.352438,2.512558 12.681596,-7.320769 11.975513,-6.914882 -4.292216,2.467353 -8.552516,4.983546 -12.860393,7.420125 -0.292875,0.164595 -0.586923,0.326975 -0.882018,0.487551 -0.294036,0.165063 -0.589351,0.327877 -0.881046,0.497083 -4.269177,2.446054 -9.571067,4.592084 11.483924,-6.640399 -41.0412,23.69657 8.421331,-4.859808 -0.604575,0.351994 -4.131778,2.385801 -8.263594,4.771538 -12.395391,7.15731 4.051023,-2.33924 8.101942,-4.678659 12.153067,-7.017718 0.08221,-0.04747 -0.163637,0.09628 -0.24584,0.143758 -4.132832,2.387055 -8.277892,4.753052 -12.39896,7.160363 -3.99583,2.334157 16.343196,-9.492416 12.023645,-6.940219 -0.25804,0.153302 -0.516352,0.306126 -0.773998,0.4601 -0.261872,0.160584 -0.524529,0.319995 -0.782106,0.487431 -0.257773,0.165886 -0.514683,0.333068 -0.771155,0.500957 -0.241935,0.15431 -0.484322,0.308036 -0.722119,0.468696 -0.247274,0.166878 -0.495766,0.33192 -0.741532,0.501026 -0.218106,0.152336 -0.437179,0.303305 -0.654457,0.456816 -0.199716,0.141335 -0.398479,0.284017 -0.59935,0.423717 -0.185211,0.127027 -0.373227,0.249809 -0.566537,0.364249 -0.185539,0.11084 -0.371117,0.221528 -0.557297,0.331277 -4.145751,2.473936 -8.578617,4.946465 -12.549711,7.249663 -4.05728,2.353183 16.254198,-9.369325 12.185377,-7.036155 -21.195215,12.153898 -8.164507,4.753766 -12.446775,7.185576 -0.158366,0.09067 -0.319008,0.177519 -0.482248,0.259114 -0.130429,0.06564 -0.26031,0.134699 -0.401614,0.174487 -0.07692,0.02138 -0.15408,0.04456 -0.233912,0.05193 0,0 12.275137,-7.087055 12.275137,-7.087055 z"
       inkscape:connector-curvature="0" />
    <path
       style="fill:#000000;stroke-width:0.26458332"
       id="path270"
       d="m 73.804395,43.642502 c -0.0075,-0.07056 -0.01953,-0.140269 -0.03471,-0.209534 -0.02167,-0.110919 -0.05768,-0.218276 -0.0958,-0.324435 C 73.611015,42.952095 73.53753,42.800158 73.466148,42.647486 73.378178,42.457555 73.29471,42.265512 73.20526,42.076282 73.1184,41.888394 73.024967,41.70363 72.92959,41.519943 72.830824,41.332869 72.72693,41.148576 72.626761,40.962251 72.527037,40.769259 72.422868,40.57864 72.321599,40.38646 72.219671,40.201191 72.117298,40.016215 72.010158,39.833899 71.900565,39.639216 71.788847,39.445819 71.675449,39.253326 71.565338,39.060958 71.452522,38.870228 71.335682,38.681861 71.222242,38.497933 71.104955,38.316413 70.993452,38.131292 70.880927,37.945708 70.769514,37.759475 70.657711,37.57346 70.543467,37.379431 70.429955,37.184898 70.313057,36.992448 70.191039,36.788365 70.071072,36.583053 69.949049,36.378962 69.82598,36.171227 69.70147,35.964349 69.577798,35.756974 69.447377,35.545307 69.316824,35.33372 69.188752,35.120619 69.058167,34.906439 68.927794,34.6921 68.800622,34.475867 68.665579,34.257464 68.539065,34.033994 68.411367,33.81127 c -0.136686,-0.246377 -0.27918,-0.489428 -0.42178,-0.732403 -0.145585,-0.247695 -0.286271,-0.498131 -0.427244,-0.748464 -0.144791,-0.259011 -0.286875,-0.51951 -0.42975,-0.779576 -0.152249,-0.279273 -0.302125,-0.559822 -0.452964,-0.839854 -0.153723,-0.291341 -0.306951,-0.582922 -0.455609,-0.876887 -0.156671,-0.316865 -0.314053,-0.633371 -0.469303,-0.950937 -0.158014,-0.323138 -0.321381,-0.643607 -0.480374,-0.966253 -0.15398,-0.311271 -0.304956,-0.62398 -0.453647,-0.937813 -0.13934,-0.305803 -0.279458,-0.611169 -0.425013,-0.914077 -0.145699,-0.299004 -0.291002,-0.598196 -0.434388,-0.898318 -0.140986,-0.287113 -0.279942,-0.575261 -0.423071,-0.86131 -0.13443,-0.273808 -0.279901,-0.541941 -0.424469,-0.810465 -0.14877,-0.278593 -0.303747,-0.553706 -0.460145,-0.828061 -0.143663,-0.255305 -0.289316,-0.509428 -0.442306,-0.759272 -0.148463,-0.251656 -0.309933,-0.494975 -0.473353,-0.737029 -0.165751,-0.240997 -0.33551,-0.47914 -0.504256,-0.718034 -0.161438,-0.227093 -0.321792,-0.454878 -0.487027,-0.679238 -0.162798,-0.215106 -0.32979,-0.426932 -0.495323,-0.639921 -0.161542,-0.205931 -0.321123,-0.413374 -0.480471,-0.621004 -0.157223,-0.208861 -0.32204,-0.411742 -0.484796,-0.616262 -0.151836,-0.190157 -0.30063,-0.3827 -0.449267,-0.575361 -0.153678,-0.196607 -0.303477,-0.396179 -0.453766,-0.595378 -0.137441,-0.192884 -0.279638,-0.382188 -0.42068,-0.572418 -0.123584,-0.168245 -0.245898,-0.337415 -0.368363,-0.506472 -0.11149,-0.15136 -0.224335,-0.30164 -0.332288,-0.455558 -0.107468,-0.153063 -0.21813,-0.303787 -0.324371,-0.457709 -0.09983,-0.149276 -0.1979,-0.299543 -0.300643,-0.446872 -0.09402,-0.12868 -0.180528,-0.262546 -0.271674,-0.393194 -0.08833,-0.120164 -0.167855,-0.246451 -0.255138,-0.367327 -0.0787,-0.105911 -0.15983,-0.209991 -0.240655,-0.314282 -0.07278,-0.09057 -0.134609,-0.189137 -0.2043,-0.281974 -0.06948,-0.08611 -0.130517,-0.178561 -0.198848,-0.265523 -0.07118,-0.08751 -0.141996,-0.175278 -0.21141,-0.264211 -0.06879,-0.08963 -0.139359,-0.177856 -0.209934,-0.266079 -0.06299,-0.07868 -0.126047,-0.157301 -0.189095,-0.235934 -0.05214,-0.06503 -0.104288,-0.130063 -0.156434,-0.195094 -0.04303,-0.05367 -0.08606,-0.107333 -0.129096,-0.161 -0.03551,-0.04429 -0.07102,-0.08857 -0.106532,-0.132859 -0.02931,-0.03655 -0.05861,-0.07309 -0.08791,-0.109635 -0.02418,-0.03016 -0.04836,-0.06032 -0.07255,-0.09047 -0.01995,-0.02489 -0.03991,-0.04977 -0.05987,-0.07466 -0.01757,-0.02326 -0.04536,-0.03007 -0.07182,-0.03919 -0.02819,-0.01017 -0.05767,-0.01571 -0.0869,-0.02192 -0.03803,-0.0077 -0.07642,-0.01226 -0.114884,-0.01501 -0.04114,0.0036 -0.08206,0.0095 -0.122984,0.01494 -0.04622,0.0069 -0.09271,0.01143 -0.139271,0.0151 -0.09537,0.0071 -0.189728,0.02461 -0.283655,0.04209 -0.136829,0.02471 -0.271695,0.0594 -0.406821,0.09198 -0.13662,0.03142 -0.272893,0.06362 -0.407495,0.102901 -0.176096,0.0548 -0.342458,0.135646 -0.508537,0.214815 -0.186203,0.08679 -0.368472,0.181411 -0.550386,0.276762 C 46.659726,14.417139 67.599377,2.409307 63.278078,5.0364334 63.074629,5.1607611 62.87554,5.2920312 62.67805,5.4255659 62.47893,5.5603005 62.278971,5.6939217 62.077314,5.8248404 61.886229,5.9541285 61.694687,6.082729 61.49962,6.2059547 c -0.19725,0.1296048 -0.396693,0.2557206 -0.597067,0.3804121 -0.23477,0.1465334 -0.467008,0.2970686 -0.701265,0.4444077 -0.23219,0.1450551 -0.462309,0.2934816 -0.690935,0.444102 -0.244131,0.1647219 -0.485603,0.3334192 -0.726551,0.5027697 -0.256326,0.1755423 -0.505463,0.361201 -0.75863,0.5412169 -0.248666,0.1729491 -0.497554,0.3455942 -0.743828,0.5219416 -0.262345,0.1922987 -0.525134,0.3839864 -0.787847,0.5757847 -0.236921,0.176924 -0.479645,0.345799 -0.719106,0.5191886 -0.213079,0.15721 -0.429821,0.309359 -0.644721,0.464055 -0.214709,0.148516 -0.426505,0.301147 -0.639701,0.451797 -0.233627,0.163632 -0.463,0.333191 -0.691624,0.503701 -0.227679,0.167994 -0.45588,0.335288 -0.683577,0.503264 -0.224539,0.163969 -0.452562,0.322996 -0.680718,0.481862 -0.218127,0.151888 -0.434117,0.306744 -0.653685,0.456555 -0.193002,0.129921 -0.38469,0.261847 -0.579649,0.388831 -0.193098,0.128346 -0.38709,0.255166 -0.579136,0.385094 -0.198503,0.133457 -0.395089,0.269739 -0.591931,0.40563 -0.182512,0.125214 -0.366178,0.248736 -0.547936,0.375063 -0.187978,0.137416 -0.376859,0.273583 -0.564383,0.411623 -0.158334,0.12081 -0.322971,0.233324 -0.480726,0.354836 -0.01802,0.01433 -0.03603,0.02866 -0.05404,0.04299 0,0 -12.275137,7.087053 -12.275137,7.087053 v 0 c 0.01802,-0.01433 0.03603,-0.02866 0.05404,-0.04299 0.157756,-0.121512 0.322393,-0.234026 0.480727,-0.354836 0.187524,-0.13804 0.376404,-0.274207 0.564383,-0.411623 0.181758,-0.126327 0.365424,-0.249849 0.547936,-0.375063 0.196842,-0.13589 0.393428,-0.272173 0.591931,-0.405629 0.192045,-0.129928 0.386038,-0.256748 0.579136,-0.385095 0.194958,-0.126983 0.386646,-0.258909 0.579649,-0.388831 0.21957,-0.149811 0.435557,-0.304666 0.653685,-0.456554 0.228156,-0.158867 0.456179,-0.317893 0.680717,-0.481862 0.227698,-0.167977 0.455899,-0.33527 0.683578,-0.503264 0.228624,-0.170511 0.457996,-0.34007 0.691623,-0.503702 0.213199,-0.15065 0.424993,-0.303281 0.639702,-0.451796 0.214903,-0.154696 0.431644,-0.306845 0.644721,-0.464056 0.239461,-0.173389 0.482187,-0.342264 0.719106,-0.519188 0.262712,-0.191798 0.525504,-0.383486 0.787847,-0.575785 0.246277,-0.176347 0.495165,-0.348992 0.743828,-0.521942 0.253169,-0.180015 0.502304,-0.365674 0.758632,-0.541216 0.240945,-0.169351 0.482417,-0.338048 0.726551,-0.50277 0.228624,-0.15062 0.458743,-0.299047 0.690936,-0.444102 0.234254,-0.147339 0.466492,-0.297874 0.701262,-0.444408 0.200374,-0.124691 0.399817,-0.250807 0.597067,-0.380412 0.195066,-0.123226 0.386609,-0.251826 0.577693,-0.381114 0.201658,-0.130919 0.401617,-0.26454 0.600737,-0.399274 0.197493,-0.133535 0.396579,-0.264805 0.600027,-0.389133 4.215792,-2.5629821 8.455668,-5.0991186 12.822695,-7.3939909 0.181917,-0.095351 0.364186,-0.1899719 0.550389,-0.2767613 0.166079,-0.07917 0.332441,-0.1600179 0.508537,-0.2148149 0.134602,-0.039283 0.270875,-0.07148 0.407493,-0.1029013 0.135128,-0.032586 0.269991,-0.067273 0.406821,-0.091981 0.09393,-0.017478 0.18829,-0.035011 0.283657,-0.042089 0.04657,-0.00367 0.09305,-0.00824 0.139271,-0.015102 0.04093,-0.00547 0.08184,-0.011335 0.122984,-0.014936 0.03847,0.00276 0.07686,0.00734 0.114885,0.015015 0.02923,0.00622 0.05871,0.011761 0.0869,0.021923 0.02646,0.00913 0.05425,0.015931 0.07182,0.039193 0.01995,0.024887 0.03991,0.049772 0.05987,0.074658 0.02418,0.030157 0.04836,0.060315 0.07254,0.090472 0.02931,0.036545 0.05861,0.073091 0.08791,0.1096357 0.03551,0.044286 0.07102,0.088572 0.106532,0.1328587 0.04303,0.053667 0.08606,0.1073335 0.129096,0.1610003 0.05214,0.065031 0.104291,0.130062 0.156435,0.1950939 0.06305,0.078632 0.1261,0.1572591 0.189095,0.2359343 0.07057,0.088222 0.141144,0.1764506 0.209931,0.2660784 0.06942,0.088933 0.140234,0.1767004 0.211412,0.2642108 0.06833,0.086963 0.129366,0.1794095 0.198848,0.2655237 0.06969,0.092836 0.131522,0.1914006 0.204301,0.2819741 0.08082,0.1042906 0.161951,0.208371 0.240654,0.3142819 0.08728,0.1208757 0.166807,0.2471624 0.255138,0.3673263 0.09114,0.1306481 0.177649,0.2645146 0.271671,0.3931941 0.102746,0.1473296 0.200808,0.2975965 0.300646,0.446872 0.106241,0.1539222 0.216903,0.304646 0.324372,0.4577088 0.10795,0.1539182 0.220797,0.3041978 0.332287,0.4555585 0.122465,0.1690571 0.244779,0.3382275 0.368364,0.5064713 0.141041,0.1902309 0.283239,0.3795347 0.420679,0.5724189 0.150289,0.1991987 0.300088,0.3987717 0.453763,0.5953787 0.14864,0.19266 0.297434,0.385204 0.449271,0.575361 0.162755,0.204519 0.327572,0.4074 0.484793,0.616262 0.159351,0.207629 0.318931,0.415072 0.480473,0.621003 0.165534,0.212989 0.332525,0.424815 0.495324,0.639921 0.165234,0.22436 0.325588,0.452145 0.487026,0.679238 0.168746,0.238894 0.338505,0.477038 0.504256,0.718035 0.163417,0.242054 0.32489,0.485372 0.473353,0.737028 0.15299,0.249845 0.298643,0.503967 0.442307,0.759272 0.156395,0.274355 0.311372,0.549469 0.460144,0.828061 0.144569,0.268524 0.290039,0.536657 0.424469,0.810466 0.143129,0.286048 0.282085,0.574196 0.423069,0.86131 0.143388,0.300121 0.288692,0.599314 0.43439,0.898318 0.145555,0.302907 0.285673,0.608273 0.425013,0.914078 0.148691,0.313831 0.299667,0.62654 0.453647,0.937811 0.158991,0.322647 0.32236,0.643117 0.480375,0.966255 0.155247,0.317565 0.312629,0.634071 0.469299,0.950936 0.148662,0.293964 0.30189,0.585547 0.455613,0.876886 0.150839,0.280033 0.300714,0.560582 0.452961,0.839855 0.142878,0.260066 0.284961,0.520564 0.429752,0.779575 0.140973,0.250333 0.281657,0.500768 0.427241,0.748465 0.142603,0.242974 0.285097,0.486024 0.421783,0.732404 0.127699,0.222724 0.254212,0.446191 0.389255,0.664596 0.127169,0.216231 0.257543,0.430573 0.388131,0.644753 0.128071,0.213101 0.258625,0.424685 0.389046,0.636355 0.123671,0.207375 0.248181,0.414252 0.37125,0.621985 0.122023,0.204091 0.24199,0.409403 0.364008,0.613489 0.116898,0.192447 0.23041,0.386982 0.344654,0.581009 0.111803,0.186018 0.223216,0.372248 0.335738,0.557834 0.111506,0.185121 0.228793,0.366642 0.342233,0.550569 0.11684,0.188368 0.229656,0.379095 0.339768,0.571466 0.113397,0.192492 0.225115,0.385887 0.334708,0.580572 0.107138,0.182317 0.209513,0.36729 0.311439,0.552559 0.101271,0.192183 0.205441,0.382802 0.305165,0.575791 0.100166,0.186325 0.204062,0.370621 0.302826,0.557694 0.09538,0.183685 0.188812,0.368451 0.275672,0.55634 0.08945,0.189227 0.172918,0.381272 0.260887,0.571201 0.07138,0.152672 0.144862,0.304612 0.207735,0.461047 0.03813,0.106159 0.07414,0.213519 0.0958,0.324437 0.01519,0.06926 0.02725,0.138975 0.03471,0.209532 0,0 -12.275138,7.087055 -12.275138,7.087055 z"
       inkscape:connector-curvature="0" />
    <path
       style="fill:#000000;stroke-width:0.26458332"
       id="path278"
       d="m 19.765324,13.788145 c 0.04665,-0.06587 0.100303,-0.126455 0.155875,-0.184843 0.110281,-0.107768 0.223621,-0.212284 0.333816,-0.320226 0.126924,-0.123228 0.256789,-0.243012 0.391447,-0.357736 0.145078,-0.127376 0.302713,-0.239097 0.459811,-0.350889 0.173867,-0.126485 0.351053,-0.24805 0.531362,-0.365133 4.122379,-2.5159693 8.527233,-4.9303639 12.552498,-7.2521792 4.061243,-2.3425687 -16.250867,9.3599982 -12.18097,7.0324952 14.558894,-8.3259767 8.166476,-4.8665922 12.47009,-7.1947887 0.204351,-0.1064525 0.412734,-0.2049386 0.621329,-0.3027339 0.209873,-0.095136 0.41623,-0.1976813 0.625944,-0.2931893 0.206486,-0.093738 0.412482,-0.1884063 0.621876,-0.2755283 0.211979,-0.090988 0.432679,-0.157593 0.654148,-0.2207758 0.221959,-0.063007 0.446029,-0.1170347 0.672724,-0.1598046 0.233162,-0.044004 0.468144,-0.075496 0.704792,-0.092129 0.240025,-0.018 0.480425,-0.014605 0.720564,-0.00267 0.235908,0.011356 0.470657,0.038671 0.704522,0.070751 0.232778,0.03166 0.463603,0.076076 0.693364,0.124673 0.239252,0.053221 0.475507,0.118224 0.708478,0.1941914 0.252171,0.07737 0.494829,0.1807777 0.734962,0.2890359 0.260347,0.116949 0.508164,0.258232 0.751988,0.405911 0.271661,0.1637306 0.518186,0.3624977 0.754208,0.5732526 0.262223,0.2417374 0.502576,0.5058236 0.73732,0.7739229 0.256889,0.2942773 0.486714,0.6096781 0.696103,0.9390269 0.232092,0.3728157 0.418983,0.7704706 0.593891,1.1724772 0.18941,0.4369316 0.346342,0.8866431 0.490543,1.3401755 0.157006,0.5002135 0.271931,1.0122072 0.382389,1.5242912 0.115163,0.544961 0.213836,1.093194 0.305136,1.642596 0.100626,0.598306 0.166153,1.201609 0.222028,1.805482 0.05547,0.640674 0.114705,1.281012 0.170796,1.921632 0.0548,0.622218 0.103796,1.244918 0.149731,1.867846 0.04355,0.635292 0.09004,1.270388 0.143827,1.9049 0.05429,0.648108 0.113776,1.295731 0.173503,1.943352 0.06172,0.665683 0.115618,1.332046 0.166548,1.998629 0.05052,0.681518 0.09892,1.363234 0.135355,2.045662 0.03981,0.711526 0.05401,1.423943 0.06001,2.136432 0.0043,0.729882 0.0054,1.459777 0.0069,2.189668 0.0016,0.734081 0.0027,1.468162 0.0038,2.202246 -0.0082,0.760833 -0.0082,1.52169 -0.0072,2.282557 0.0013,0.728171 0.0027,1.456339 0.0041,2.184509 2.65e-4,0.74037 0.0013,1.480696 0.01082,2.221008 0.01053,0.720701 0.02223,1.441386 0.03335,2.162079 0.01508,0.662972 0.03666,1.325775 0.05651,1.988617 0.01373,0.630539 0.01876,1.261229 0.02447,1.891882 1.24e-4,0.682709 -0.0071,1.3654 -0.01262,2.048084 -0.0057,0.695936 -0.0109,1.391877 -0.0159,2.087819 -0.0049,0.680873 -0.0092,1.361749 -0.01323,2.042625 -0.0098,0.723331 -0.02495,1.446575 -0.03847,2.169843 -0.01352,0.688123 -0.02693,1.376204 -0.02996,2.064462 -0.0013,0.624424 -7.94e-4,1.248849 -5.3e-4,1.873273 0.0013,0.603076 0.0021,1.206096 -0.0061,1.809123 -0.0094,0.600261 -0.0196,1.200505 -0.02939,1.80076 -0.009,0.551812 -0.01749,1.103632 -0.02569,1.655455 -0.0067,0.516504 -0.01312,1.03295 -0.02839,1.549279 -0.01257,0.501501 -0.03447,1.002585 -0.05991,1.503571 -0.02455,0.473059 -0.04846,0.946153 -0.07108,1.419312 -0.02254,0.466011 -0.04174,0.932172 -0.05942,1.398392 -0.01934,0.513472 -0.03468,1.027078 -0.04905,1.540708 -0.015,0.549387 -0.0279,1.098831 -0.04048,1.648278 -0.01595,0.51689 -0.01622,1.033997 -0.01619,1.551069 -5.29e-4,0.499438 0.004,0.998884 -7.93e-4,1.498307 -0.0079,0.548981 -0.01805,1.097931 -0.02761,1.646885 -0.01048,0.510032 -0.0058,1.020228 -0.0031,1.530319 0.0026,0.467169 0.0052,0.934339 0.0078,1.401508 0.0024,0.433205 0.0046,0.866413 0.0066,1.299623 -0.0013,0.450993 0.0059,0.901811 0.01751,1.352632 0.0067,0.417076 0.0065,0.834223 0.0071,1.251341 -7.93e-4,0.369689 0.004,0.739413 -0.0016,1.109068 -0.0029,0.357393 -0.03195,0.713422 -0.07041,1.068482 -0.01921,0.167048 -0.03906,0.333976 -0.0568,0.501185 0,0 -12.275137,7.087055 -12.275137,7.087055 v 0 c 0.01773,-0.167209 0.03759,-0.33414 0.0568,-0.501185 0.03845,-0.355063 0.06749,-0.711091 0.07041,-1.068482 0.0057,-0.369658 7.93e-4,-0.739381 0.0016,-1.10907 -7.94e-4,-0.417116 -5.29e-4,-0.834266 -0.0071,-1.251342 -0.01162,-0.450818 -0.01889,-0.901639 -0.01752,-1.352632 -0.0021,-0.433207 -0.0042,-0.866415 -0.0066,-1.299623 -0.0026,-0.467169 -0.0052,-0.934336 -0.0078,-1.401505 -0.0026,-0.510091 -0.0074,-1.020289 0.0031,-1.530319 0.0096,-0.548957 0.01974,-1.097904 0.02761,-1.646888 0.0048,-0.49942 2.09e-4,-0.998868 7.94e-4,-1.498306 -4.5e-5,-0.517073 2.3e-4,-1.03418 0.01617,-1.551067 0.01257,-0.54945 0.02545,-1.098891 0.04048,-1.64828 0.01437,-0.51363 0.02971,-1.027237 0.04905,-1.540706 0.01767,-0.46622 0.03688,-0.932381 0.05942,-1.398394 0.02262,-0.473157 0.04652,-0.946251 0.07108,-1.419313 0.02543,-0.500985 0.04733,-1.002069 0.0599,-1.503571 0.01527,-0.516326 0.02164,-1.032775 0.02839,-1.549276 0.0082,-0.551825 0.01672,-1.103646 0.02569,-1.655458 0.0098,-0.600252 0.02,-1.200499 0.0294,-1.800757 0.0081,-0.603027 0.0074,-1.20605 0.0061,-1.809125 -2.65e-4,-0.624425 -0.0011,-1.248849 5.29e-4,-1.873271 0.003,-0.688258 0.01643,-1.376339 0.02996,-2.064465 0.01352,-0.723265 0.0287,-1.446511 0.03846,-2.16984 0.004,-0.680878 0.0084,-1.361755 0.01323,-2.042625 0.005,-0.695944 0.01019,-1.391886 0.0159,-2.087822 0.0056,-0.682683 0.01275,-1.365372 0.01262,-2.048084 -0.0057,-0.63065 -0.01074,-1.261343 -0.02447,-1.891879 -0.01984,-0.662842 -0.04142,-1.325645 -0.05651,-1.988617 -0.01111,-0.720693 -0.02283,-1.441378 -0.03335,-2.162082 -0.0096,-0.740312 -0.01042,-1.480637 -0.01082,-2.221008 -0.0013,-0.728167 -0.0029,-1.456338 -0.0041,-2.184508 -0.0011,-0.760868 -0.0011,-1.521722 0.0072,-2.282558 -0.0011,-0.734081 -0.0024,-1.468162 -0.0038,-2.202243 -0.0016,-0.729893 -0.0026,-1.459789 -0.0069,-2.189671 -0.006,-0.712486 -0.02019,-1.424905 -0.06001,-2.136431 -0.03643,-0.682426 -0.08483,-1.364144 -0.135356,-2.04566 -0.05093,-0.666584 -0.104822,-1.332947 -0.166544,-1.998631 -0.05973,-0.647621 -0.119222,-1.295244 -0.173506,-1.943351 -0.05379,-0.634513 -0.10028,-1.269609 -0.143828,-1.904901 -0.04593,-0.622927 -0.09493,-1.245628 -0.14973,-1.867845 -0.05609,-0.640621 -0.115329,-1.280959 -0.170797,-1.921632 -0.05587,-0.603873 -0.121401,-1.207176 -0.222027,-1.805482 -0.0913,-0.549403 -0.189974,-1.097635 -0.305134,-1.642597 -0.110461,-0.512084 -0.225385,-1.024077 -0.382391,-1.524291 -0.144201,-0.453532 -0.301133,-0.903244 -0.490543,-1.340175 -0.174908,-0.402007 -0.361799,-0.799662 -0.593892,-1.172477 -0.209388,-0.329349 -0.439211,-0.64475 -0.696103,-0.939027 -0.234743,-0.2681 -0.475096,-0.532186 -0.737319,-0.773923 -0.236022,-0.210755 -0.482547,-0.409522 -0.754208,-0.573253 -0.243822,-0.147679 -0.491641,-0.288962 -0.751989,-0.405911 -0.24013,-0.108258 -0.48279,-0.211666 -0.734962,-0.289036 -0.232968,-0.07597 -0.469222,-0.14097 -0.708477,-0.194191 -0.229762,-0.0486 -0.460587,-0.09301 -0.693365,-0.124673 -0.233865,-0.03208 -0.468614,-0.0594 -0.704522,-0.07075 -0.240138,-0.01194 -0.480539,-0.01533 -0.720563,0.0027 -0.236648,0.01663 -0.471629,0.04813 -0.704792,0.09213 -0.226694,0.04277 -0.450764,0.0968 -0.672724,0.159805 -0.22147,0.06318 -0.442168,0.129788 -0.654149,0.220775 -0.209393,0.08712 -0.415388,0.181791 -0.621876,0.275529 -0.209712,0.09551 -0.41607,0.198053 -0.625943,0.293189 -0.208595,0.09779 -0.416977,0.196281 -0.621328,0.302734 C 18.113833,14.094686 38.321247,2.5939203 34.2843,4.9025801 30.151422,7.2661014 26.039088,9.6653722 21.914996,12.044192 17.915523,14.351131 37.85857,2.7246762 33.912773,5.1222645 33.732462,5.2393474 33.555275,5.3609126 33.38141,5.4873974 c -0.157099,0.111792 -0.314733,0.2235131 -0.459812,0.3508894 -0.134657,0.1147236 -0.264522,0.2345076 -0.391445,0.3577359 -0.110197,0.1079413 -0.223536,0.2124578 -0.333817,0.320226 -0.05557,0.058387 -0.109225,0.1189715 -0.155874,0.1848425 0,0 -12.275138,7.0870538 -12.275138,7.0870538 z"
       inkscape:connector-curvature="0" />
    <path
       style="fill:#000000;stroke-width:0.26458332"
       id="path290"
       d="m 60.737842,89.506686 c -0.05019,0.03905 -0.09715,0.08182 -0.145222,0.12342 -0.08594,0.07083 -0.176665,0.135297 -0.267137,0.200104 -4.07357,2.659896 -8.197659,5.332024 -12.650094,7.291023 -0.184785,0.07666 -0.379365,0.124626 -0.573643,0.170021 -0.256921,0.0538 -0.513855,0.107569 -0.771557,0.157557 -0.277352,0.05568 -0.556945,0.09887 -0.835406,0.148322 -0.293602,0.05451 -0.588076,0.103966 -0.883097,0.150101 -0.322656,0.05063 -0.646837,0.09043 -0.97138,0.126648 -0.356323,0.03856 -0.713158,0.07217 -1.070086,0.104564 -0.3453,0.0358 -0.691992,0.05286 -1.038633,0.06907 -0.349641,0.0093 -0.699508,0.0145 -1.049269,0.01114 -0.353091,-0.0016 -0.705125,-0.02955 -1.056793,-0.05838 -0.349094,-0.025 -0.696164,-0.07025 -1.042977,-0.116171 -0.344546,-0.04845 -0.687308,-0.107926 -1.030121,-0.167105 -0.360825,-0.06501 -0.721172,-0.13248 -1.080172,-0.206944 -0.389644,-0.07993 -0.777647,-0.167714 -1.164079,-0.261911 -0.396055,-0.09604 -0.789424,-0.20278 -1.181148,-0.315079 -0.408575,-0.119452 -0.813882,-0.248836 -1.215924,-0.38862 -0.426715,-0.147103 -0.84918,-0.306134 -1.271985,-0.464024 -0.417541,-0.157231 -0.829818,-0.327681 -1.241962,-0.498398 -0.418576,-0.176536 -0.833032,-0.362635 -1.248351,-0.546651 -0.419963,-0.184115 -0.839761,-0.368622 -1.258356,-0.555836 -0.419359,-0.186344 -0.838412,-0.373322 -1.256655,-0.562163 -0.42475,-0.194096 -0.847584,-0.392345 -1.273096,-0.584769 -0.430445,-0.193212 -0.855634,-0.397687 -1.276792,-0.610298 -0.428375,-0.223079 -0.855292,-0.449067 -1.279518,-0.679953 -0.430247,-0.229169 -0.854439,-0.469257 -1.274665,-0.71624 -0.414307,-0.247672 -0.821716,-0.506998 -1.225517,-0.77142 -0.395171,-0.255463 -0.785042,-0.5189 -1.171781,-0.78691 -0.385795,-0.274452 -0.755526,-0.570243 -1.122571,-0.869 -0.361663,-0.296934 -0.711692,-0.607431 -1.059289,-0.92057 -0.348517,-0.318299 -0.683892,-0.650587 -1.01633,-0.985518 C 15.40827,86.663701 15.097425,86.320417 14.784972,85.978737 14.484186,85.649852 14.195057,85.310675 13.915209,84.963875 13.625729,84.603742 13.358449,84.226738 13.08893,83.85168 12.826612,83.480599 12.569305,83.10591 12.317484,82.727624 12.05794,82.343674 11.826522,81.942108 11.59469,81.541167 11.370302,81.143855 11.145723,80.74661 10.926215,80.34657 10.709982,79.965996 10.510395,79.576855 10.327956,79.17907 10.136398,78.752895 9.9709419,78.315935 9.8031434,77.880095 9.6334825,77.438789 9.4728034,76.994029 9.3201452,76.546571 9.1556479,76.064337 9.0226736,75.572481 8.8983856,75.078637 8.7720055,74.568459 8.6588369,74.055165 8.549551,73.541098 8.4260213,73.006677 8.3535614,72.463892 8.2981238,71.918879 8.2446494,71.301003 8.2247713,70.680791 8.2006608,70.06124 c -0.026262,-0.579739 -0.040549,-1.159799 -0.034815,-1.740107 0.008,-0.60013 0.060732,-1.19812 0.1280755,-1.794097 0.068859,-0.580861 0.1507792,-1.160206 0.2459096,-1.737333 0.093493,-0.581658 0.2557999,-1.146763 0.4361653,-1.706354 0.197398,-0.575138 0.4184158,-1.141886 0.6457164,-1.705763 0.2214928,-0.550646 0.4988534,-1.075375 0.7993034,-1.58632 0.329907,-0.544457 0.70257,-1.061389 1.083433,-1.570942 0.362413,-0.47915 0.743079,-0.943846 1.141202,-1.393648 0.422792,-0.473549 0.894528,-0.89893 1.376159,-1.311103 0.472763,-0.397031 0.963355,-0.772203 1.455977,-1.144082 0.442397,-0.32806 0.886548,-0.653762 1.34197,-0.963563 0.420781,-0.284371 0.84811,-0.558805 1.27368,-0.835898 0.378441,-0.247647 0.759,-0.492111 1.144947,-0.727911 4.420788,-2.489485 8.585056,-5.496515 13.218648,-7.572676 0,0 -12.275135,7.087055 -12.275135,7.087055 v 0 c -0.197391,0.08844 -0.194059,0.08422 -0.386726,0.181398 -0.06283,0.03169 -0.248339,0.132427 -0.187431,0.09717 0.526326,-0.304642 16.295144,-9.416302 11.90578,-6.880006 -0.385945,0.235802 -0.766506,0.480264 -1.144947,0.727914 -0.425569,0.277093 -0.852898,0.551527 -1.27368,0.835898 -0.455422,0.309801 -0.899573,0.6355 -1.34197,0.963562 -0.492622,0.37188 -0.983212,0.747051 -1.455977,1.144082 -0.481631,0.412171 -0.953366,0.837555 -1.376159,1.311103 -0.398123,0.4498 -0.778788,0.914498 -1.141202,1.393648 -0.380862,0.509553 -0.753525,1.026486 -1.083432,1.570943 -0.30045,0.510942 -0.577811,1.035671 -0.799304,1.586317 -0.227301,0.56388 -0.448319,1.130625 -0.645716,1.705763 -0.180366,0.559591 -0.342673,1.124696 -0.436166,1.706354 -0.09513,0.57713 -0.177051,1.156475 -0.245909,1.737336 -0.06734,0.595976 -0.120076,1.193967 -0.128076,1.794097 -0.0057,0.580308 0.0086,1.160365 0.03482,1.740106 0.02411,0.619551 0.04399,1.239764 0.09746,1.85764 0.05544,0.545013 0.127898,1.087795 0.251428,1.622219 0.109286,0.514064 0.222454,1.027361 0.348834,1.537536 0.124288,0.493844 0.257263,0.985702 0.42176,1.467937 0.152658,0.447458 0.313337,0.892217 0.482998,1.333521 0.167799,0.43584 0.333255,0.872802 0.524813,1.298977 0.182439,0.397786 0.382026,0.786924 0.598259,1.167498 0.219507,0.400042 0.444087,0.797285 0.668475,1.194597 0.231832,0.400944 0.463249,0.802507 0.722793,1.186457 0.251822,0.378286 0.509128,0.752975 0.771447,1.124056 0.269519,0.37506 0.536798,0.752062 0.826279,1.112195 0.279848,0.346802 0.568977,0.68598 0.869763,1.014865 0.312452,0.34168 0.623298,0.684964 0.949264,1.013957 0.332439,0.334931 0.667811,0.667218 1.016328,0.985515 0.347599,0.313142 0.697627,0.623639 1.059292,0.92057 0.367043,0.298757 0.736774,0.59455 1.122568,0.869 0.386742,0.268012 0.776611,0.53145 1.171782,0.786913 0.403802,0.264419 0.81121,0.523745 1.225518,0.771419 0.420227,0.246983 0.844418,0.487072 1.274665,0.716241 0.424225,0.230886 0.851143,0.456874 1.279517,0.67995 0.421158,0.212613 0.846346,0.417086 1.276792,0.610301 0.425513,0.192421 0.848346,0.390673 1.273098,0.584766 0.41824,0.188844 0.837292,0.375819 1.256654,0.562165 0.418592,0.187214 0.838393,0.371721 1.258356,0.555834 0.415319,0.184018 0.829775,0.370118 1.248349,0.546653 0.412147,0.170718 0.824423,0.341167 1.241965,0.498399 0.422801,0.15789 0.845267,0.316918 1.271984,0.464021 0.402042,0.139787 0.80735,0.269168 1.215925,0.388622 0.39172,0.112297 0.785092,0.219041 1.181144,0.315079 0.386435,0.09419 0.774439,0.181978 1.164082,0.261909 0.359,0.07447 0.719347,0.141938 1.080172,0.206944 0.342813,0.05918 0.685576,0.118663 1.030121,0.167108 0.346811,0.04592 0.693883,0.09116 1.042977,0.11617 0.351666,0.02883 0.703702,0.05683 1.056794,0.05838 0.34976,0.0034 0.699627,-0.0019 1.049268,-0.01114 0.346642,-0.01619 0.693333,-0.03326 1.03863,-0.06907 0.356931,-0.03239 0.713767,-0.066 1.070089,-0.104563 0.324543,-0.03621 0.648724,-0.07601 0.971381,-0.126646 0.295021,-0.04614 0.589494,-0.09559 0.883094,-0.150103 0.278463,-0.04946 0.558057,-0.09264 0.835409,-0.14832 0.257701,-0.04999 0.514635,-0.103762 0.771556,-0.157557 0.194279,-0.0454 0.388859,-0.09336 0.573641,-0.170021 4.762955,-2.095622 -16.139636,9.632918 -11.900175,6.883085 0.09047,-0.06481 0.181197,-0.129281 0.267134,-0.200107 0.04808,-0.0416 0.09503,-0.08437 0.145222,-0.12342 0,0 12.275137,-7.087053 12.275137,-7.087053 z"
       inkscape:connector-curvature="0" />
  </g>
</svg>
