<?xml version="1.0" encoding="UTF-8" standalone="no"?>
<!-- Created with Inkscape (http://www.inkscape.org/) -->

<svg
   xmlns:dc="http://purl.org/dc/elements/1.1/"
   xmlns:cc="http://creativecommons.org/ns#"
   xmlns:rdf="http://www.w3.org/1999/02/22-rdf-syntax-ns#"
   xmlns:svg="http://www.w3.org/2000/svg"
   xmlns="http://www.w3.org/2000/svg"
   xmlns:sodipodi="http://sodipodi.sourceforge.net/DTD/sodipodi-0.dtd"
   xmlns:inkscape="http://www.inkscape.org/namespaces/inkscape"
   width="104mm"
   height="104mm"
   viewBox="0 0 104 104"
   version="1.1"
   id="svg8"
   inkscape:version="0.92.3 (2405546, 2018-03-11)"
   sodipodi:docname="R21.svg">
  <defs
     id="defs2" />
  <sodipodi:namedview
     id="base"
     pagecolor="#ffffff"
     bordercolor="#666666"
     borderopacity="1.0"
     inkscape:pageopacity="0.0"
     inkscape:pageshadow="2"
     inkscape:zoom="0.90509668"
     inkscape:cx="-49.035455"
     inkscape:cy="285.99688"
     inkscape:document-units="mm"
     inkscape:current-layer="g419"
     showgrid="false"
     fit-margin-top="2"
     fit-margin-left="2"
     fit-margin-right="2"
     fit-margin-bottom="2"
     inkscape:window-width="1600"
     inkscape:window-height="845"
     inkscape:window-x="0"
     inkscape:window-y="27"
     inkscape:window-maximized="1" />
  <metadata
     id="metadata5">
    <rdf:RDF>
      <cc:Work
         rdf:about="">
        <dc:format>image/svg+xml</dc:format>
        <dc:type
           rdf:resource="http://purl.org/dc/dcmitype/StillImage" />
        <dc:title></dc:title>
      </cc:Work>
    </rdf:RDF>
  </metadata>
  <g
     style="display:inline"
     inkscape:label="Layer 4 copy"
     id="g419"
     inkscape:groupmode="layer">
    <path
       inkscape:connector-curvature="0"
       d="m 36.836089,15.391959 c 0.13032,-0.07289 0.25779,-0.15062 0.38625,-0.226723 0.1519,-0.09941 0.30851,-0.191138 0.4666,-0.280114 0.22604,-0.117242 0.45719,-0.22417 0.68649,-0.334764 6.84445,-2.849362 13.38644,-6.368652 20.13039,-9.4418874 0.21919,-0.10043 0.43909,-0.1989334 0.66087,-0.2934915 0.26155,-0.1087974 0.52101,-0.2225225 0.78096,-0.3350889 0.24328,-0.108774 0.49221,-0.203761 0.73898,-0.3040018 0.26219,-0.1004303 0.52037,-0.2107837 0.78034,-0.3167721 0.25983,-0.1121357 0.51869,-0.2264741 0.77891,-0.3377166 0.24961,-0.1030745 0.50068,-0.2025922 0.74942,-0.3078025 0.24852,-0.1021249 0.49343,-0.2126956 0.73827,-0.3233763 0.22768,-0.1031209 0.45942,-0.1965394 0.69254,-0.2863631 0.23675,-0.088808 0.47294,-0.1789554 0.71202,-0.2612858 0.24058,-0.080402 0.47833,-0.1690034 0.71775,-0.252748 0.22384,-0.080868 0.45205,-0.1483662 0.67806,-0.2225913 0.21904,-0.074565 0.43906,-0.1461482 0.66,-0.2147621 0.21065,-0.063905 0.42257,-0.1233644 0.63557,-0.1787401 0.22495,-0.052554 0.44857,-0.1104588 0.67263,-0.166702 0.21392,-0.054401 0.42856,-0.105884 0.64384,-0.1546065 0.20227,-0.047334 0.40882,-0.072911 0.61454,-0.099859 0.19762,-0.026053 0.39531,-0.049321 0.59434,-0.060504 0.19316,-0.0076 0.38638,-0.017889 0.57973,-0.016486 0.19679,0.00478 0.39347,0.013444 0.59017,0.020988 0.19857,0.015167 0.39731,0.031381 0.59485,0.056979 0.19515,0.024332 0.38812,0.060695 0.58067,0.1002556 0.19615,0.038259 0.38961,0.089176 0.58146,0.1449967 0.20368,0.0618 0.40182,0.1397437 0.596,0.2267994 0.21246,0.1010653 0.41628,0.2186938 0.61993,0.3363323 0.20983,0.1155689 0.41439,0.2401059 0.61955,0.3637574 0.2208,0.1344543 0.42811,0.289666 0.63413,0.445676 0.22806,0.1659901 0.44825,0.3424751 0.66259,0.525984 0.22721,0.1963076 0.45157,0.3958214 0.66934,0.6027171 0.23128,0.222894 0.45438,0.4541515 0.6766,0.6861498 0.21037,0.221044 0.42035,0.4425683 0.62721,0.6669712 0.20614,0.2169842 0.40483,0.4409723 0.6021,0.6660986 0.19752,0.2364386 0.39488,0.4731245 0.58759,0.7135664 0.18413,0.2334209 0.36828,0.4668198 0.55385,0.6990815 0.179,0.226021 0.35078,0.457355 0.51548,0.694083 0.16399,0.23684 0.32973,0.472529 0.48849,0.712972 0.16542,0.244946 0.32839,0.491535 0.49175,0.737869 0.17253,0.249755 0.34117,0.502201 0.51318,0.752302 0.16873,0.247037 0.34228,0.490712 0.51394,0.735699 0.16888,0.245644 0.33811,0.491074 0.50963,0.734862 0.17178,0.249218 0.34251,0.49913 0.51115,0.750505 0.16457,0.24397 0.32094,0.493392 0.48133,0.740143 0.15214,0.226578 0.28977,0.462338 0.42944,0.696742 0.1447,0.24222 0.26964,0.495517 0.40286,0.744117 0.13559,0.247635 0.26023,0.501079 0.39236,0.750527 0.12692,0.229689 0.24503,0.464087 0.36576,0.697086 0.11992,0.23532 0.23342,0.473887 0.34556,0.713042 0.10992,0.239454 0.22338,0.477357 0.33816,0.71451 0.1122,0.226638 0.22147,0.454716 0.33055,0.682886 0.10881,0.232359 0.21749,0.464802 0.32309,0.698674 0.10879,0.222958 0.21175,0.448759 0.32023,0.671848 0.10575,0.223271 0.2111,0.446772 0.31534,0.670769 0.10128,0.225605 0.20834,0.448516 0.31172,0.673167 0.099,0.215918 0.19656,0.432589 0.29806,0.647315 0.10515,0.227841 0.2098,0.455839 0.31765,0.682399 0.11855,0.234378 0.22785,0.473369 0.34661,0.707611 0.1116,0.218148 0.21871,0.438539 0.33277,0.655413 0.10503,0.20962 0.21727,0.415441 0.32481,0.623738 0.10571,0.200346 0.22003,0.395743 0.33259,0.592192 0.11239,0.192507 0.21957,0.388093 0.33271,0.580133 0.11659,0.19428 0.22297,0.394445 0.33546,0.591081 0.11502,0.208323 0.23737,0.412388 0.35463,0.619403 0.11277,0.200022 0.23151,0.396388 0.33894,0.599445 0.11581,0.213937 0.23299,0.427062 0.35159,0.639443 0.11698,0.214172 0.23927,0.425299 0.36171,0.636338 0.12145,0.200433 0.23791,0.403839 0.35738,0.605462 0.13425,0.221531 0.26842,0.443085 0.40172,0.665192 0.13428,0.221356 0.26849,0.442666 0.39946,0.666022 0.12057,0.214998 0.24259,0.429168 0.36044,0.645705 0.12023,0.216689 0.2358,0.435851 0.3482,0.656749 0.12052,0.234717 0.2365,0.471757 0.35643,0.706771 0.11635,0.221993 0.22981,0.445516 0.33795,0.671692 0.10202,0.207569 0.1894,0.421804 0.28304,0.633183 0.0976,0.212344 0.18491,0.428879 0.26374,0.648901 0.0862,0.255103 0.17572,0.509024 0.25982,0.764839 0.0956,0.282892 0.18929,0.566338 0.29,0.847423 0.0971,0.268084 0.18687,0.53865 0.27343,0.810308 0.0833,0.254164 0.15814,0.510524 0.21664,0.771578 0.0567,0.256825 0.10441,0.515268 0.13938,0.775943 0.0376,0.245875 0.0516,0.493631 0.0541,0.742059 -0.004,0.263038 -0.0283,0.52534 -0.0618,0.786074 -0.0271,0.267494 -0.10027,0.525354 -0.18005,0.780783 -0.0866,0.273857 -0.19967,0.537636 -0.3172,0.799147 -0.12158,0.262319 -0.25416,0.519147 -0.3996,0.768826 -0.15274,0.260245 -0.3333,0.502042 -0.52206,0.736556 -0.2046,0.253907 -0.42917,0.490008 -0.66458,0.714875 -0.26155,0.249848 -0.55277,0.463277 -0.84957,0.667948 -0.33535,0.227428 -0.68465,0.432798 -1.03471,0.636138 -0.36388,0.209545 -0.73341,0.408609 -1.10669,0.600585 -6.80844,3.380097 -13.73271,6.519582 -20.63671,9.697162 -13.84568,6.495508 63.301321,-29.708907 -1.18659,0.556493 -0.37786,0.175752 -0.75973,0.342738 -1.14488,0.501621 -0.38561,0.152265 -0.77045,0.306533 -1.1573,0.455586 -0.36263,0.143949 -0.72535,0.287435 -1.09064,0.424466 -0.35026,0.130331 -0.69561,0.27319 -1.04102,0.415858 -0.35115,0.146035 -0.69856,0.300861 -1.04941,0.447575 -0.34355,0.144076 -0.68845,0.284771 -1.03225,0.428225 -0.33485,0.140272 -0.6738,0.270195 -1.0125,0.400664 -0.33612,0.129707 -0.67459,0.253148 -1.01082,0.382553 -0.35194,0.1319 -0.70145,0.270256 -1.05166,0.406736 -0.35843,0.139653 -0.71496,0.284343 -1.07485,0.420174 -0.37424,0.142058 -0.74999,0.279858 -1.12271,0.425958 -0.36452,0.140002 -0.72713,0.284877 -1.09091,0.426776 -0.3589,0.137496 -0.71933,0.270992 -1.0753,0.416041 -0.37488,0.153665 -0.74902,0.309124 -1.12151,0.468601 -0.40792,0.181391 -0.81465,0.365594 -1.21892,0.55512 -0.38473,0.177808 -0.76986,0.354729 -1.15487,0.531932 -0.0625,0.02894 -0.2499,0.116085 -0.18754,0.08682 39.00269,-18.306486 12.04071,-5.625793 -0.9561,0.445828 6.41725,-3.011252 12.83429,-6.022967 19.25176,-9.033753 0.0656,-0.03075 -0.13044,0.06288 -0.19598,0.09364 -6.54767,3.073638 -13.09933,6.138682 -19.64364,9.219559 -6.41302,3.019066 25.66421,-12.050069 19.24975,-9.034121 -18.50918,8.702628 -13.07621,6.223109 -19.84326,9.31041 -0.40072,0.176411 -0.80079,0.354089 -1.1977,0.539009 -13.82881,6.708008 64.369211,-30.430157 -0.77795,0.362969 -6.34892,3.000944 25.40559,-11.982096 19.07237,-8.947743 -0.37027,0.179102 -0.73854,0.362305 -1.10878,0.541457 -6.80558,3.292985 -13.70128,6.439767 -20.52975,9.644086 -7.93894,3.671827 25.36279,-11.925787 18.38061,-8.632637 -6.80671,3.260217 -13.62017,6.508768 -20.49451,9.621948 -6.8407,3.18679 25.46994,-11.954361 19.10244,-8.965831 -65.379757,30.685369 45.051131,-21.145183 -20.11151,9.438068 32.55416,-15.547586 25.11362,-11.822972 18.43024,-8.643199 -0.33072,0.154305 -0.65822,0.315417 -0.98781,0.472149 -6.53514,3.066941 -13.07026,6.133906 -19.6054,9.200827 -0.10624,0.04986 -0.42543,0.198342 -0.31921,0.148476 6.42829,-3.017528 25.73259,-12.027844 19.28535,-9.051547 -6.6123,3.052498 -13.18188,6.197921 -19.7802,9.280925 -0.0557,0.02588 -0.22283,0.103732 -0.16721,0.07762 43.44909,-20.393054 7.35502,-3.418011 -0.82245,0.387668 -10.50897,4.857043 60.99403,-28.56938 -0.94451,0.435557 33.06428,-14.535504 25.03801,-12.01102 18.45866,-8.633767 -0.32183,0.160428 -0.64253,0.322998 -0.95856,0.494742 -0.33105,0.175482 -0.65492,0.364117 -0.97889,0.552349 -0.25889,0.160237 -0.52094,0.314841 -0.78992,0.457269 0,0 -19.44701,9.12745 -19.44701,9.12745 v 0 c 0.26898,-0.142428 0.53103,-0.297029 0.78992,-0.457269 0.32398,-0.188232 0.64785,-0.376867 0.9789,-0.552349 0.31602,-0.171744 0.63672,-0.334314 0.95855,-0.494742 6.6977,-3.437995 14.12433,-5.548595 20.43536,-9.621133 6.37756,-2.986519 -25.50101,11.965958 -19.12445,8.977302 6.68719,-3.134244 13.33728,-6.36782 20.06895,-9.412859 6.59613,-3.069738 0.28863,-0.134533 -19.12489,8.977219 -0.11092,0.05206 0.22113,-0.105619 0.33203,-0.157686 19.37833,-9.09747 13.06659,-6.16704 19.78253,-9.284824 6.83239,-3.192375 -26.85183,12.54615 -19.11382,8.973976 6.55534,-3.026199 13.07229,-6.13591 19.60867,-9.203354 0.10624,-0.04985 0.42543,-0.19834 0.3192,-0.148476 -6.42952,3.018049 -12.85907,6.036048 -19.2886,9.054073 0.32958,-0.156731 0.65708,-0.317844 0.9878,-0.472149 6.80542,-3.23783 13.53606,-6.633257 20.46378,-9.611698 -6.4273,3.016739 -25.70692,12.071908 -19.28192,9.050215 65.379641,-30.748173 -45.316489,21.332648 20.29097,-9.522457 7.04497,-3.190446 -26.24805,12.380907 -18.3995,8.632952 6.83111,-3.221897 13.65548,-6.458725 20.5134,-9.622263 -32.67631,15.339684 -25.03661,11.839545 -18.36426,8.610814 0.37024,-0.179149 0.73852,-0.362352 1.10878,-0.541457 6.80116,-3.258547 -9.70155,4.647573 19.82165,-9.307157 6.41038,-3.030001 -25.67571,12.046534 -19.25525,9.038232 6.67339,-3.126803 13.34147,-6.298189 20.03319,-9.401201 0.39692,-0.18492 0.79698,-0.362598 1.1977,-0.539009 6.38214,-2.911697 -25.39938,11.929483 -19.05075,8.944491 65.206511,-30.658766 -45.223356,21.261384 20.23212,-9.500225 11.26053,-5.26049 -61.351192,28.779512 1.14365,-0.532646 0.38501,-0.177202 0.77014,-0.354123 1.15486,-0.531931 0.40428,-0.189527 0.81101,-0.373729 1.21893,-0.55512 0.37248,-0.159477 0.74663,-0.314936 1.12151,-0.468601 0.35597,-0.14505 0.71639,-0.278545 1.07529,-0.416041 0.36378,-0.141899 0.7264,-0.286774 1.09092,-0.426776 0.37271,-0.1461 0.74846,-0.283903 1.1227,-0.425958 0.3599,-0.135832 0.71641,-0.280522 1.07486,-0.420174 0.35021,-0.13648 0.69971,-0.274836 1.05166,-0.406736 0.33622,-0.129405 0.6747,-0.252846 1.01082,-0.382553 0.33869,-0.130469 0.67764,-0.260392 1.01249,-0.400664 0.3438,-0.143454 0.68871,-0.284149 1.03225,-0.428225 0.35085,-0.146714 0.69827,-0.301541 1.04941,-0.447575 0.34542,-0.142668 0.69077,-0.285528 1.04103,-0.415859 0.36528,-0.13703 0.72801,-0.280516 1.09064,-0.424465 0.38684,-0.149053 0.77169,-0.303321 1.15729,-0.455586 0.38516,-0.158883 0.76702,-0.325869 1.14489,-0.501621 -39.05303,18.330769 -11.74955,5.512826 1.18658,-0.556493 7.49335,-3.448839 -25.94194,12.345424 -18.25729,8.557739 0.37328,-0.191977 0.7428,-0.391041 1.10668,-0.600586 0.35007,-0.20334 0.69936,-0.40871 1.03472,-0.636138 0.29681,-0.204671 0.58803,-0.4181 0.84958,-0.667948 0.2354,-0.224867 0.45997,-0.460968 0.66458,-0.714875 0.18876,-0.234514 0.36932,-0.476311 0.52207,-0.736555 0.14544,-0.24968 0.27801,-0.506508 0.39959,-0.768827 0.11754,-0.261511 0.23053,-0.52529 0.31721,-0.799147 0.0798,-0.255429 0.15287,-0.513289 0.18004,-0.780783 0.0334,-0.260733 0.058,-0.523036 0.0617,-0.786074 -0.003,-0.248428 -0.0165,-0.496184 -0.054,-0.742059 -0.035,-0.260675 -0.0828,-0.519117 -0.13938,-0.775943 -0.0585,-0.261054 -0.1334,-0.517411 -0.21663,-0.771578 -0.0865,-0.271656 -0.17642,-0.542224 -0.27343,-0.810308 -0.10072,-0.281085 -0.19445,-0.56453 -0.29002,-0.84742 -0.0841,-0.255818 -0.17363,-0.509739 -0.25981,-0.764842 -0.0788,-0.220022 -0.16618,-0.436557 -0.26374,-0.648901 -0.0936,-0.211378 -0.18101,-0.425614 -0.28305,-0.633182 -0.10813,-0.226177 -0.22158,-0.449697 -0.33795,-0.671693 -0.11993,-0.235013 -0.23591,-0.472054 -0.35641,-0.706771 -0.11241,-0.220898 -0.22798,-0.44006 -0.34823,-0.656748 -0.11784,-0.216538 -0.23985,-0.430708 -0.36044,-0.645706 -0.13098,-0.223355 -0.26519,-0.444666 -0.39946,-0.666022 -0.1333,-0.222107 -0.26748,-0.443661 -0.40172,-0.665191 -0.11947,-0.201624 -0.23593,-0.40503 -0.35738,-0.605462 -0.12244,-0.21104 -0.24473,-0.422167 -0.36171,-0.636339 -0.1186,-0.212381 -0.23579,-0.425506 -0.3516,-0.639443 -0.10741,-0.203057 -0.22617,-0.39942 -0.33893,-0.599445 -0.11725,-0.207015 -0.23961,-0.41108 -0.35462,-0.619403 -0.1125,-0.196635 -0.21888,-0.396801 -0.33548,-0.591081 -0.11312,-0.19204 -0.22032,-0.387626 -0.33269,-0.580131 -0.11256,-0.196451 -0.22689,-0.391848 -0.3326,-0.592193 -0.10754,-0.208299 -0.21978,-0.414118 -0.32482,-0.62374 -0.11404,-0.216873 -0.22115,-0.437263 -0.33277,-0.655412 -0.11875,-0.234241 -0.22806,-0.473234 -0.3466,-0.707612 -0.10785,-0.226558 -0.2125,-0.454557 -0.31765,-0.682398 -0.10151,-0.214725 -0.19911,-0.431398 -0.29806,-0.647316 -0.10338,-0.22465 -0.21044,-0.447561 -0.31172,-0.673166 -0.10425,-0.223997 -0.20959,-0.447498 -0.31534,-0.670769 -0.10848,-0.223089 -0.21144,-0.44889 -0.32024,-0.671849 -0.10559,-0.23387 -0.21427,-0.466315 -0.32309,-0.698672 -0.10907,-0.228171 -0.21834,-0.45625 -0.33054,-0.682887 -0.11477,-0.237154 -0.22822,-0.475056 -0.33816,-0.71451 -0.11214,-0.239154 -0.22564,-0.477721 -0.34556,-0.713042 -0.12071,-0.232999 -0.23884,-0.467397 -0.36575,-0.697086 -0.13213,-0.249448 -0.25678,-0.502892 -0.39236,-0.750527 -0.13323,-0.2486 -0.25817,-0.501897 -0.40287,-0.744117 -0.13966,-0.234404 -0.2773,-0.470163 -0.42944,-0.696742 -0.16039,-0.246751 -0.31676,-0.496173 -0.48133,-0.740143 -0.16864,-0.251375 -0.33937,-0.501287 -0.51114,-0.750504 -0.17153,-0.243789 -0.34076,-0.489218 -0.50963,-0.734862 -0.17167,-0.244988 -0.34522,-0.488663 -0.51394,-0.7357 -0.17201,-0.250102 -0.34065,-0.502548 -0.51318,-0.752302 -0.16337,-0.246335 -0.32635,-0.492924 -0.49176,-0.737871 -0.15876,-0.240443 -0.3245,-0.476132 -0.48849,-0.712972 -0.1647,-0.236728 -0.33648,-0.468063 -0.51547,-0.694083 -0.18558,-0.232263 -0.36973,-0.465661 -0.55386,-0.699082 -0.19271,-0.240442 -0.39006,-0.477128 -0.58759,-0.713567 -0.19727,-0.225126 -0.39596,-0.449114 -0.6021,-0.666098 -0.20686,-0.224403 -0.41683,-0.445927 -0.62722,-0.666971 -0.2222,-0.231999 -0.44531,-0.463256 -0.67659,-0.68615 -0.21777,-0.206896 -0.44212,-0.40641 -0.66934,-0.602718 -0.21434,-0.183508 -0.43452,-0.359993 -0.6626,-0.525983 -0.206,-0.15601 -0.41333,-0.311222 -0.63411,-0.445677 -0.20517,-0.123651 -0.40973,-0.248188 -0.61957,-0.363757 -0.20363,-0.117638 -0.40745,-0.235267 -0.61992,-0.336332 -0.19418,-0.08706 -0.39231,-0.164999 -0.59599,-0.2268 -0.19186,-0.05582 -0.38532,-0.106737 -0.58147,-0.144996 -0.19254,-0.03956 -0.38551,-0.07592 -0.58066,-0.100256 -0.19756,-0.0256 -0.39628,-0.04181 -0.59486,-0.05698 -0.1967,-0.0075 -0.39337,-0.0162 -0.59017,-0.02099 -0.19334,-0.0014 -0.38656,0.0089 -0.57973,0.01649 -0.19903,0.01118 -0.39672,0.03445 -0.59434,0.0605 -0.20572,0.02695 -0.41226,0.05253 -0.61454,0.09986 -0.21527,0.04872 -0.42992,0.100206 -0.64384,0.154607 -0.22405,0.05624 -0.44769,0.114148 -0.67263,0.166702 -0.213,0.05538 -0.42493,0.114835 -0.63557,0.17874 -0.22095,0.06861 -0.44096,0.140197 -0.66,0.214762 -0.226,0.07423 -0.45422,0.141723 -0.67805,0.222591 -0.23944,0.08375 -0.47718,0.172346 -0.71776,0.252749 -0.23907,0.08233 -0.47526,0.172477 -0.71202,0.261285 -0.23312,0.08982 -0.46485,0.183242 -0.69255,0.286363 -0.24483,0.110681 -0.48974,0.221252 -0.73826,0.323377 -0.24873,0.10521 -0.49981,0.204727 -0.74942,0.307802 -0.26022,0.111243 -0.51908,0.225581 -0.7789,0.337717 -0.25999,0.105988 -0.51816,0.216342 -0.78036,0.316772 -0.24676,0.100241 -0.49569,0.195228 -0.73897,0.304002 -0.25995,0.112566 -0.51941,0.226291 -0.78095,0.335089 -0.22178,0.09456 -0.44169,0.193061 -0.66088,0.293491 -6.65843,3.034264 -13.66242,6.753119 18.76362,-8.8130072 -0.2293,0.1105937 -0.46044,0.2175219 -0.68648,0.3347635 -0.15809,0.088975 -0.31471,0.1807065 -0.46661,0.2801141 -0.12845,0.076103 -0.25593,0.1538373 -0.38624,0.2267232 0,0 -19.44701,9.1274474 -19.44701,9.1274474 z"
       id="path415"
       style="fill:#000000;stroke-width:0.26372463" />
    <path
       inkscape:connector-curvature="0"
       d="m 73.511392,53.907322 c 0,0.116049 0,0.232098 0,0.348147 0,0.179983 0,0.359965 0,0.539946 0.0096,0.244712 0.02596,0.489188 0.03932,0.733766 0.01658,0.28136 0.02401,0.563094 0.04391,0.844292 0.02152,0.318891 0.06324,0.636293 0.09958,0.954062 0.03889,0.345754 0.07376,0.69184 0.107284,1.038014 0.03324,0.337229 0.06172,0.674784 0.08825,1.012458 0.02726,0.351635 0.05003,0.70352 0.07209,1.05543 0.02089,0.333519 0.04056,0.667095 0.05888,1.000728 0.01926,0.3575 0.03398,0.715169 0.04808,1.072848 0.01455,0.377314 0.02719,0.754681 0.03927,1.132061 0.01241,0.388313 0.02269,0.776674 0.03207,1.165053 0.0096,0.41245 0.018,0.824924 0.02619,1.237399 0.0063,0.392636 0.03253,0.784791 0.0534,1.176983 0.03006,0.415457 0.06516,0.830624 0.09778,1.245931 0.03,0.407429 0.07797,0.813667 0.119823,1.220264 0.0412,0.404245 0.07788,0.80883 0.112869,1.213514 0.03297,0.382373 0.0633,0.76491 0.09247,1.147516 0.0271,0.359897 0.05165,0.719929 0.07552,1.079995 0.01623,0.336626 0.05168,0.672084 0.08629,1.007551 0.03329,0.318423 0.06368,0.637059 0.09244,0.955814 0.023,0.316888 0.05558,0.632907 0.0933,0.948687 0.03753,0.304416 0.07278,0.609036 0.105021,0.913914 0.0332,0.318271 0.06047,0.63698 0.08683,0.955726 0.02442,0.316298 0.06652,0.631322 0.102948,0.94669 0.04466,0.322606 0.09274,0.644841 0.138244,0.967356 0.04218,0.311349 0.08159,0.622861 0.131105,0.933404 0.04588,0.310798 0.100996,0.620297 0.159291,0.929476 0.05344,0.300319 0.116359,0.599282 0.18969,0.896392 0.07296,0.288394 0.14822,0.576272 0.238346,0.860998 0.09062,0.283606 0.197548,0.563086 0.309231,0.84086 0.114775,0.277753 0.240101,0.551948 0.3639,0.82669 0.123685,0.264937 0.258472,0.525676 0.392696,0.786634 0.12533,0.259583 0.26745,0.512246 0.417958,0.761322 0.156763,0.253142 0.321577,0.502496 0.499333,0.744891 0.189794,0.251926 0.38627,0.499869 0.588838,0.744109 0.199934,0.234983 0.40634,0.465349 0.618979,0.691677 0.210815,0.219213 0.426511,0.434525 0.657988,0.637389 0.228741,0.202207 0.480183,0.38286 0.742608,0.55059 0.30474,0.194946 0.635967,0.354322 0.968733,0.509301 0.324448,0.161017 0.656903,0.307991 0.996619,0.442794 0.324013,0.126418 0.655362,0.237467 0.988784,0.343382 0.329982,0.10029 0.661072,0.197977 0.995739,0.285762 0.319598,0.08336 0.642667,0.155983 0.965778,0.228145 0.307246,0.06812 0.617038,0.12696 0.92684,0.185467 0.296094,0.05489 0.593581,0.103871 0.89132,0.151458 0.286205,0.04532 0.573461,0.08527 0.860974,0.1237 0.279821,0.04127 0.56153,0.067 0.844317,0.086 0.286372,0.01803 0.573048,0.03208 0.859771,0.04515 0.325966,0.007 0.652104,0.0034 0.978127,0.0017 0.339524,-8.23e-4 0.678861,-0.0017 1.018099,-0.01422 0.314681,-0.01266 0.629157,-0.02602 0.942892,-0.05098 0.302523,-0.02322 0.602751,-0.06427 0.901602,-0.110548 0.305964,-0.05078 0.607865,-0.117011 0.909348,-0.184633 0.297704,-0.06203 0.591954,-0.135476 0.887066,-0.206073 0.282881,-0.06437 0.564186,-0.133314 0.845195,-0.203571 0.268742,-0.06859 0.539219,-0.131668 0.810577,-0.19185 0.259032,-0.06448 0.517433,-0.130769 0.777555,-0.191867 0.253013,-0.06534 0.505239,-0.132894 0.755215,-0.206568 0.240042,-0.07385 0.47806,-0.153549 0.713807,-0.237309 0.231374,-0.08858 0.468948,-0.163865 0.703218,-0.246206 8.0198,-3.000011 16.66575,-6.753208 -22.630689,9.204533 0.22214,-0.09104 0.438534,-0.191809 0.654413,-0.29349 7.732452,-3.48 16.655897,-6.773234 23.693676,-9.630604 0,0 -23.312192,9.468322 -23.312192,9.468322 v 0 c 40.170092,-16.321254 30.595722,-12.76324 22.930722,-9.306095 -0.21588,0.101681 -0.43228,0.202453 -0.65442,0.29349 -7.706417,3.130494 -15.893614,6.701904 -23.9937,9.732111 -0.234275,0.0823 -0.47183,0.15762 -0.703206,0.2462 -0.23574,0.0838 -0.473762,0.16347 -0.713803,0.23731 -0.24998,0.0737 -0.502204,0.14123 -0.755216,0.20657 -0.26012,0.0611 -0.518517,0.12738 -0.777548,0.19187 -0.271357,0.0602 -0.541829,0.12326 -0.810565,0.19185 -0.281009,0.0703 -0.562314,0.1392 -0.845196,0.20357 -0.295111,0.0706 -0.589361,0.14403 -0.887065,0.20607 -0.301484,0.0676 -0.603385,0.13385 -0.909352,0.18463 -0.298847,0.0463 -0.599076,0.0873 -0.901598,0.11055 -0.313735,0.025 -0.628211,0.0383 -0.942892,0.0509 -0.339238,0.0126 -0.678576,0.0134 -1.018099,0.0142 -0.326023,0.002 -0.652161,0.005 -0.978128,-0.002 -0.286722,-0.0131 -0.573398,-0.0271 -0.85977,-0.0451 -0.282787,-0.019 -0.564496,-0.0447 -0.844318,-0.086 -0.287512,-0.0384 -0.574768,-0.0784 -0.860973,-0.12371 -0.297739,-0.0476 -0.595226,-0.0966 -0.891324,-0.15145 -0.309798,-0.0585 -0.61959,-0.11734 -0.926838,-0.18546 -0.323109,-0.0722 -0.646178,-0.14478 -0.965776,-0.22815 -0.334667,-0.0878 -0.665761,-0.18546 -0.995739,-0.28576 -0.333422,-0.10591 -0.664771,-0.21696 -0.988784,-0.34338 -0.339716,-0.1348 -0.672171,-0.28177 -0.996619,-0.44279 -0.33277,-0.154983 -0.663993,-0.314359 -0.968737,-0.509305 C 57.158633,99.326084 56.907191,99.145431 56.67845,98.943226 56.446972,98.74036 56.231277,98.525049 56.020462,98.305837 55.807819,98.079508 55.601417,97.849141 55.401483,97.614159 55.198912,97.369919 55.002438,97.121976 54.812644,96.87005 54.634889,96.627654 54.470071,96.3783 54.313312,96.12516 54.162804,95.876083 54.020683,95.62342 53.895354,95.363836 53.76113,95.102879 53.626343,94.84214 53.502658,94.577203 c -0.123799,-0.274739 -0.249124,-0.548938 -0.3639,-0.82669 -0.111678,-0.277774 -0.218614,-0.557251 -0.309232,-0.84086 -0.09012,-0.284727 -0.16539,-0.572605 -0.238345,-0.860997 -0.07333,-0.297111 -0.136253,-0.596074 -0.18969,-0.896393 -0.0583,-0.309179 -0.113418,-0.618678 -0.159291,-0.929477 -0.04951,-0.310543 -0.08892,-0.622053 -0.131106,-0.9334 -0.04551,-0.322568 -0.09359,-0.644803 -0.138243,-0.967408 -0.03643,-0.315369 -0.07851,-0.630393 -0.102949,-0.946691 -0.02638,-0.318746 -0.05364,-0.637454 -0.08683,-0.955727 -0.03224,-0.304878 -0.06749,-0.609497 -0.105021,-0.913914 -0.03772,-0.315779 -0.07029,-0.631797 -0.0933,-0.948685 -0.02877,-0.318753 -0.05917,-0.637392 -0.09246,-0.955815 -0.0346,-0.335467 -0.07006,-0.670925 -0.08629,-1.00755 -0.02389,-0.360068 -0.04844,-0.720098 -0.07552,-1.079996 -0.02914,-0.382603 -0.0595,-0.765143 -0.09247,-1.147516 -0.03499,-0.404684 -0.07166,-0.80927 -0.112857,-1.213514 -0.04185,-0.406597 -0.08981,-0.812835 -0.119823,-1.220263 -0.03262,-0.415309 -0.06772,-0.830475 -0.09778,-1.245929 -0.02086,-0.392195 -0.04714,-0.784351 -0.0534,-1.176985 -0.0082,-0.412476 -0.01648,-0.82495 -0.02619,-1.237401 -0.0094,-0.388378 -0.01966,-0.776739 -0.03207,-1.165052 -0.01206,-0.37738 -0.0247,-0.754747 -0.03927,-1.132061 -0.01409,-0.35768 -0.02883,-0.715348 -0.04809,-1.072848 -0.0183,-0.333634 -0.03797,-0.66721 -0.05887,-1.000728 -0.02206,-0.35191 -0.04483,-0.703795 -0.07209,-1.055431 -0.02653,-0.337673 -0.055,-0.675229 -0.08825,-1.012457 -0.03354,-0.346174 -0.0684,-0.69226 -0.107284,-1.038014 -0.03634,-0.317769 -0.07807,-0.635171 -0.09958,-0.954063 -0.01991,-0.281197 -0.02732,-0.562932 -0.04391,-0.844291 -0.01333,-0.244575 -0.02965,-0.489054 -0.03931,-0.733767 0,-0.179979 0,-0.359963 0,-0.539945 0,-0.116049 0,-0.232098 0,-0.348147 0,0 23.312166,-9.468321 23.312166,-9.468321 z"
       id="path417"
       style="fill:#000000;stroke-width:0.29408783" />
    <path
       style="fill:#000000;stroke-width:0.35826933"
       id="path441"
       d="M 7.8128763,17.101131 C 7.9364326,16.963002 8.0963479,16.866878 8.2590859,16.78073 17.443983,12.688333 26.041594,6.8551122 35.781992,4.1855853 c 0.356876,-0.1034836 0.715094,-0.2020684 1.075062,-0.2944752 0.365667,-0.088308 0.736919,-0.1466855 1.111493,-0.1806016 0.435831,-0.033031 0.852616,0.05113 1.256534,0.2060732 0.546621,0.229828 0.955824,0.6391088 1.325198,1.0857852 0.535205,0.7103664 0.924126,1.5139336 1.294877,2.3164194 0.503896,1.1017744 0.901633,2.2444151 1.245277,3.4035317 0.476882,1.623997 0.683498,3.304898 0.853528,4.982235 0.215667,2.437647 0.227832,4.886313 0.229889,7.331354 -0.01199,3.144573 -0.0929,6.288362 -0.172297,9.431819 -0.08611,3.238512 -0.12824,6.477803 -0.145055,9.71732 -0.0043,3.17964 -0.01321,6.359232 -0.03047,9.53883 -0.0155,2.897667 -0.03091,5.795314 -0.06305,8.69285 -0.0295,2.48878 -0.06128,4.977532 -0.09239,7.466291 -0.02677,2.125425 -0.05265,4.250858 -0.07782,6.376302 -0.02215,1.872358 -0.04297,3.744732 -0.06361,5.617107 -0.01786,1.613527 -0.03514,3.227062 -0.05194,4.840603 -0.0089,1.387112 -0.03067,2.773972 -0.06215,4.160745 -0.01808,0.777419 -0.03745,1.554812 -0.05728,2.332192 0,0 -26.652837,12.290714 -26.652837,12.290714 v 0 c 0.01981,-0.77737 0.03915,-1.55477 0.05725,-2.33218 0.03149,-1.386782 0.05323,-2.773637 0.06214,-4.16075 0.01683,-1.613539 0.03404,-3.227077 0.05194,-4.840604 0.02064,-1.872375 0.04143,-3.744749 0.0636,-5.617107 0.02517,-2.125444 0.05106,-4.250875 0.07782,-6.376302 0.03109,-2.488759 0.06289,-4.977511 0.09238,-7.466292 0.03213,-2.897535 0.04753,-5.795181 0.06305,-8.692849 0.0173,-3.179598 0.02611,-6.35919 0.03047,-9.53883 0.01683,-3.239518 0.05896,-6.478808 0.145057,-9.717321 0.07939,-3.143457 0.160331,-6.287246 0.172295,-9.431819 -0.0021,-2.44504 -0.01423,-4.893706 -0.229888,-7.331353 -0.17002,-1.677337 -0.376637,-3.358238 -0.853523,-4.982236 -0.343641,-1.159117 -0.741377,-2.301759 -1.245273,-3.403531 -0.370743,-0.802486 -0.759666,-1.606052 -1.29487,-2.316419 -0.369374,-0.446678 -0.778577,-0.855957 -1.325198,-1.085785 -0.403918,-0.154946 -0.820703,-0.239099 -1.256537,-0.206076 -0.374575,0.03393 -0.745822,0.09229 -1.11149,0.180601 -0.3599684,0.09242 -0.7181853,0.190999 -1.0750622,0.294476 -0.1628959,0.04466 -0.3250688,0.08981 -0.4846791,0.145135 -0.047549,0.01649 -0.1874928,0.07266 -0.1418461,0.05159 C 36.348872,3.8110931 43.823983,0.27664113 34.91189,4.4900158 c -0.162738,0.08614 -0.32265,0.1822726 -0.446209,0.3204021 0,0 -26.6528347,12.2907181 -26.6528347,12.2907181 z"
       inkscape:connector-curvature="0" />
    <path
       style="fill:#000000;stroke-width:0.26458332"
       id="path443"
       d="m 40.51994,13.73965 c 0.11173,-0.01455 0.218455,-0.04682 0.323712,-0.08587 0.169029,-0.06611 0.325697,-0.159492 0.478877,-0.255873 0.174728,-0.113746 0.344088,-0.235417 0.514781,-0.35506 0.189289,-0.134013 0.377413,-0.269589 0.564714,-0.406355 0.18075,-0.13711 0.361529,-0.274178 0.545814,-0.40652 0.166375,-0.117476 0.343794,-0.217835 0.521901,-0.316119 0.162785,-0.08693 0.327486,-0.170218 0.491935,-0.253941 0.135922,-0.06915 0.271875,-0.138229 0.407829,-0.207317 0.131077,-0.06197 0.261244,-0.125808 0.391683,-0.189116 0.155898,-0.07851 0.313614,-0.153258 0.470927,-0.228864 0.176041,-0.08716 0.352459,-0.173614 0.527026,-0.263695 0.16886,-0.09077 0.340019,-0.176913 0.514668,-0.255956 0.173312,-0.08316 0.349541,-0.159882 0.526841,-0.234068 0.172908,-0.07737 0.348803,-0.147578 0.523679,-0.220264 0.171979,-0.074517 0.347004,-0.1415566 0.522777,-0.2064894 0.166666,-0.063702 0.332279,-0.1300678 0.499115,-0.1933257 0.171286,-0.066406 0.341027,-0.136674 0.511773,-0.204438 0.205367,-0.081185 0.410324,-0.1633582 0.617437,-0.2400088 0.219514,-0.079084 0.43829,-0.1601687 0.658103,-0.2384417 0.237205,-0.083605 0.473994,-0.1682295 0.709867,-0.255528 0.216011,-0.079826 0.433361,-0.1558816 0.651124,-0.2307661 0.195447,-0.06682 0.388794,-0.1395323 0.583893,-0.2073709 0.193572,-0.069889 0.388948,-0.1341821 0.584467,-0.1983436 0.202832,-0.065377 0.404582,-0.1338638 0.606311,-0.2025393 0.208685,-0.067519 0.417084,-0.1359207 0.625589,-0.2040067 0.221985,-0.073637 0.447249,-0.1364269 0.671703,-0.2018808 0.232503,-0.068691 0.465608,-0.1353468 0.697873,-0.2048396 0.234775,-0.068833 0.466516,-0.147315 0.700656,-0.2181987 0.250127,-0.071143 0.500274,-0.1422355 0.750483,-0.2131071 0.261956,-0.07242 0.522346,-0.1503497 0.783714,-0.2248699 0.249463,-0.067462 0.497732,-0.1392092 0.746948,-0.2075601 0.252775,-0.073635 0.507188,-0.1413354 0.761243,-0.2103551 0.267989,-0.075105 0.536679,-0.1476131 0.804186,-0.2244196 0.262321,-0.073867 0.524965,-0.1466291 0.787844,-0.2184929 0.178043,-0.053475 0.357881,-0.099794 0.538631,-0.1430478 0,0 0,3.6540755 0,3.6540755 v 0 c -0.18075,0.043253 -0.360588,0.089573 -0.538631,0.1430478 -0.262879,0.071864 -0.525523,0.144626 -0.787844,0.2184929 -0.267507,0.076807 -0.536197,0.1493147 -0.804186,0.2244195 -0.254055,0.06902 -0.508468,0.1367206 -0.761243,0.2103551 -0.249216,0.06835 -0.497485,0.140098 -0.746948,0.20756 -0.261368,0.07452 -0.521758,0.15245 -0.783714,0.22487 -0.250209,0.07087 -0.500356,0.141964 -0.750483,0.213107 -0.23414,0.07088 -0.465881,0.149366 -0.700656,0.218199 -0.232265,0.06949 -0.46537,0.136148 -0.697873,0.20484 -0.224454,0.06545 -0.449718,0.128243 -0.671703,0.20188 -0.208505,0.06809 -0.416904,0.136488 -0.625589,0.204007 -0.201729,0.06868 -0.403479,0.137162 -0.606311,0.202539 -0.195519,0.06416 -0.390895,0.128454 -0.584467,0.198344 -0.195099,0.06784 -0.388446,0.140551 -0.583893,0.207371 -0.217763,0.07488 -0.435113,0.15094 -0.651124,0.230766 -0.235873,0.0873 -0.472662,0.171923 -0.709867,0.255528 -0.219813,0.07827 -0.438589,0.159358 -0.658103,0.238442 -0.207113,0.07665 -0.41207,0.158824 -0.617437,0.240009 -0.170746,0.06776 -0.340487,0.138031 -0.511773,0.204438 -0.166836,0.06326 -0.332449,0.129623 -0.499115,0.193325 -0.175773,0.06493 -0.350798,0.131973 -0.522777,0.206489 -0.174876,0.07269 -0.350771,0.142899 -0.523679,0.220265 -0.1773,0.07419 -0.353529,0.150904 -0.526841,0.234068 -0.174649,0.07904 -0.345808,0.165188 -0.514668,0.255956 -0.174567,0.09008 -0.350985,0.176538 -0.527026,0.263694 -0.157313,0.07561 -0.315029,0.15035 -0.470927,0.228864 -0.130439,0.06331 -0.260606,0.127151 -0.391683,0.189116 -0.135954,0.06909 -0.271907,0.138169 -0.407829,0.207318 -0.164449,0.08372 -0.32915,0.167008 -0.491935,0.253941 -0.178107,0.09828 -0.355526,0.198642 -0.521901,0.316118 -0.184285,0.132342 -0.365064,0.269411 -0.545814,0.406521 -0.187301,0.136765 -0.375425,0.272342 -0.564714,0.406354 -0.170693,0.119644 -0.340053,0.241314 -0.514781,0.355061 -0.15318,0.09638 -0.309848,0.189764 -0.478877,0.255872 -0.105257,0.03906 -0.211982,0.07132 -0.323712,0.08587 0,0 0,-3.654075 0,-3.654075 z"
       inkscape:connector-curvature="0" />
    <path
       style="fill:#000000;stroke-width:0.26458332"
       id="path449"
       d="m 42.001009,65.924455 c 0.12478,-0.03198 0.246107,-0.07595 0.367675,-0.118205 0.192188,-0.06667 0.382255,-0.138912 0.571836,-0.212585 0.233596,-0.09267 0.465908,-0.188553 0.698905,-0.282726 0.269386,-0.107844 0.540473,-0.211344 0.809292,-0.320601 0.305644,-0.125873 0.608827,-0.257696 0.909778,-0.394393 0.305773,-0.140102 0.611759,-0.27972 0.918553,-0.417579 0.316495,-0.140893 0.633267,-0.281162 0.949881,-0.421793 0.318662,-0.141785 0.636315,-0.285853 0.953185,-0.431594 0.314593,-0.147058 0.625716,-0.301331 0.935165,-0.458875 0.292872,-0.147476 0.583194,-0.299955 0.874331,-0.450815 0.279456,-0.143973 0.55616,-0.293151 0.833774,-0.440619 0.261477,-0.136953 0.522491,-0.274785 0.783913,-0.41185 0.245025,-0.127439 0.489328,-0.256172 0.735819,-0.380775 0.273653,-0.137332 0.54778,-0.273744 0.822656,-0.408612 0.254704,-0.124955 0.511402,-0.24574 0.76559,-0.371742 0.235236,-0.114602 0.469368,-0.231434 0.705543,-0.344094 0.24905,-0.120438 0.496891,-0.243406 0.744313,-0.367154 0.250637,-0.129323 0.498896,-0.263186 0.744874,-0.401148 0.246385,-0.136036 0.492879,-0.271783 0.736777,-0.412255 0.23672,-0.135822 0.472289,-0.273617 0.70821,-0.410816 0.236815,-0.138264 0.474419,-0.275148 0.711377,-0.413168 0.23509,-0.134385 0.470419,-0.268335 0.707255,-0.399622 0.234088,-0.132834 0.467567,-0.266737 0.702353,-0.39833 0.229179,-0.125756 0.457178,-0.253677 0.687525,-0.377298 0.224848,-0.118915 0.448484,-0.240115 0.673679,-0.358376 0.272098,-0.142954 0.546161,-0.281966 0.823592,-0.414276 0.267867,-0.131535 0.536679,-0.261118 0.805747,-0.390176 0.239035,-0.111832 0.478671,-0.222343 0.718036,-0.333468 0.228481,-0.107243 0.455494,-0.217548 0.683811,-0.325138 0.226099,-0.110046 0.4543,-0.215654 0.681543,-0.323308 0.267956,-0.128016 0.535037,-0.257728 0.804936,-0.381627 0.258567,-0.114758 0.513609,-0.237154 0.770726,-0.355073 0.238686,-0.109538 0.477975,-0.217718 0.716719,-0.327123 0.220536,-0.101809 0.442434,-0.200602 0.663369,-0.301533 0.2213,-0.102298 0.440238,-0.209521 0.659614,-0.315846 0.234291,-0.11511 0.466064,-0.235164 0.700074,-0.350843 0.217432,-0.113458 0.437595,-0.221488 0.656836,-0.331356 0.199385,-0.100838 0.398825,-0.201533 0.597678,-0.303408 0.19907,-0.102836 0.398844,-0.204309 0.599639,-0.303739 0.219157,-0.108239 0.437689,-0.217739 0.656828,-0.326012 0.220639,-0.110236 0.442537,-0.217853 0.660448,-0.333431 0.223223,-0.116019 0.442936,-0.238482 0.663281,-0.359814 0.210383,-0.116602 0.425283,-0.224812 0.640416,-0.332314 0.213029,-0.106093 0.423193,-0.217766 0.635675,-0.324935 0.216405,-0.10776 0.432548,-0.216025 0.649255,-0.323181 0.250034,-0.125497 0.501777,-0.247599 0.753658,-0.369347 0.247523,-0.118129 0.496207,-0.233776 0.743691,-0.352 0.229883,-0.108529 0.460523,-0.215381 0.69138,-0.321812 0.225935,-0.105008 0.45044,-0.213114 0.674481,-0.322109 0.224218,-0.10786 0.448651,-0.215286 0.672362,-0.324202 0.25087,-0.12777 0.502073,-0.254622 0.75733,-0.373438 0.274878,-0.128998 0.552894,-0.251132 0.828839,-0.377799 0.243967,-0.114557 0.489418,-0.225875 0.735031,-0.336849 0.129204,-0.05828 0.256471,-0.120719 0.383786,-0.182986 0,0 0,3.654076 0,3.654076 v 0 c -0.127315,0.06227 -0.254582,0.124701 -0.383786,0.182986 -0.245613,0.110974 -0.491064,0.222292 -0.735031,0.336849 -0.275945,0.126666 -0.553961,0.248801 -0.828839,0.377798 -0.255257,0.118817 -0.50646,0.245669 -0.75733,0.373439 -0.223711,0.108915 -0.448144,0.216341 -0.672362,0.324201 -0.224041,0.108996 -0.448546,0.217102 -0.674481,0.322109 -0.230857,0.106432 -0.461497,0.213284 -0.69138,0.321813 -0.247484,0.118224 -0.496168,0.233871 -0.743691,0.351999 -0.251881,0.121748 -0.503624,0.243851 -0.753658,0.369348 -0.216707,0.107156 -0.43285,0.215421 -0.649255,0.323181 -0.212482,0.107169 -0.422646,0.218842 -0.635675,0.324934 -0.215133,0.107503 -0.430033,0.215712 -0.640416,0.332314 -0.220345,0.121333 -0.440058,0.243793 -0.663281,0.359815 -0.217911,0.115578 -0.439809,0.223195 -0.660448,0.333431 -0.219139,0.108273 -0.437671,0.217773 -0.656828,0.326011 -0.200795,0.09943 -0.400569,0.200904 -0.599639,0.303739 -0.198853,0.101876 -0.398293,0.202571 -0.597678,0.303409 -0.219241,0.109868 -0.439404,0.217897 -0.656836,0.331356 -0.23401,0.115678 -0.465783,0.235733 -0.700074,0.350843 -0.219376,0.106325 -0.438314,0.213545 -0.659614,0.315846 -0.220935,0.100931 -0.442833,0.199723 -0.663369,0.30153 -0.238744,0.109408 -0.478033,0.217585 -0.716719,0.327125 -0.257117,0.11792 -0.512159,0.240316 -0.770726,0.355074 -0.269899,0.123899 -0.53698,0.253611 -0.804936,0.381627 -0.227243,0.107654 -0.455444,0.213262 -0.681543,0.323307 -0.228317,0.107591 -0.45533,0.217895 -0.683811,0.325136 -0.239365,0.111125 -0.479001,0.221639 -0.718036,0.333471 -0.269068,0.129058 -0.53788,0.25864 -0.805747,0.390175 -0.277431,0.13231 -0.551494,0.271323 -0.823592,0.414277 -0.225195,0.118261 -0.448831,0.239458 -0.673679,0.358375 -0.230347,0.123622 -0.458346,0.251542 -0.687525,0.377299 -0.234786,0.131593 -0.468265,0.265496 -0.702353,0.398327 -0.236836,0.131289 -0.472165,0.26524 -0.707255,0.399624 -0.236958,0.13802 -0.474562,0.274905 -0.711377,0.413169 -0.235921,0.137199 -0.47149,0.274994 -0.70821,0.410815 -0.243898,0.140473 -0.490392,0.27622 -0.736777,0.412256 -0.245978,0.137961 -0.494237,0.271825 -0.744874,0.401148 -0.247422,0.123748 -0.495263,0.246716 -0.744313,0.367154 -0.236175,0.11266 -0.470307,0.229492 -0.705543,0.344093 -0.254188,0.126003 -0.510886,0.246788 -0.76559,0.371742 -0.274876,0.134869 -0.549003,0.27128 -0.822656,0.408612 -0.246491,0.124601 -0.490794,0.253334 -0.735819,0.380775 -0.261422,0.137065 -0.522436,0.274897 -0.783913,0.411848 -0.277614,0.147471 -0.554318,0.296648 -0.833774,0.440621 -0.291137,0.150861 -0.581459,0.30334 -0.874331,0.450816 -0.309449,0.157544 -0.620572,0.311817 -0.935165,0.458875 -0.31687,0.14574 -0.634523,0.289809 -0.953185,0.431593 -0.316614,0.140632 -0.633386,0.280898 -0.949881,0.421794 -0.306794,0.137858 -0.61278,0.277476 -0.918553,0.417579 -0.300951,0.136697 -0.604134,0.268517 -0.909778,0.394393 -0.268819,0.109257 -0.539906,0.212757 -0.809292,0.320601 -0.232997,0.09417 -0.465309,0.190055 -0.698905,0.282726 -0.189581,0.07367 -0.379648,0.145915 -0.571836,0.212584 -0.121568,0.04226 -0.242895,0.08622 -0.367675,0.118206 0,0 0,-3.654076 0,-3.654076 z"
       inkscape:connector-curvature="0" />
  </g>
</svg>
