<?xml version="1.0" encoding="UTF-8" standalone="no"?>
<!-- Created with Inkscape (http://www.inkscape.org/) -->

<svg
   xmlns:dc="http://purl.org/dc/elements/1.1/"
   xmlns:cc="http://creativecommons.org/ns#"
   xmlns:rdf="http://www.w3.org/1999/02/22-rdf-syntax-ns#"
   xmlns:svg="http://www.w3.org/2000/svg"
   xmlns="http://www.w3.org/2000/svg"
   xmlns:sodipodi="http://sodipodi.sourceforge.net/DTD/sodipodi-0.dtd"
   xmlns:inkscape="http://www.inkscape.org/namespaces/inkscape"
   width="101mm"
   height="101mm"
   viewBox="0 0 101 101"
   version="1.1"
   id="svg8"
   inkscape:version="0.92.3 (2405546, 2018-03-11)"
   sodipodi:docname="r.svg"
   inkscape:export-filename="/home/rflec028/ryanfleck.github.io/assets/r.png"
   inkscape:export-xdpi="502.97031"
   inkscape:export-ydpi="502.97031">
  <defs
     id="defs2" />
  <sodipodi:namedview
     id="base"
     pagecolor="#ffffff"
     bordercolor="#666666"
     borderopacity="1.0"
     inkscape:pageopacity="0.0"
     inkscape:pageshadow="2"
     inkscape:zoom="1.8018125"
     inkscape:cx="157.29075"
     inkscape:cy="188.89149"
     inkscape:document-units="mm"
     inkscape:current-layer="layer4"
     showgrid="false"
     fit-margin-top="0"
     fit-margin-left="0"
     fit-margin-right="0"
     fit-margin-bottom="0"
     inkscape:window-width="1600"
     inkscape:window-height="845"
     inkscape:window-x="0"
     inkscape:window-y="27"
     inkscape:window-maximized="1" />
  <metadata
     id="metadata5">
    <rdf:RDF>
      <cc:Work
         rdf:about="">
        <dc:format>image/svg+xml</dc:format>
        <dc:type
           rdf:resource="http://purl.org/dc/dcmitype/StillImage" />
        <dc:title></dc:title>
      </cc:Work>
    </rdf:RDF>
  </metadata>
  <g
     inkscape:groupmode="layer"
     id="layer4"
     inkscape:label="Layer 3"
     style="display:inline"
     transform="translate(0.05997547,1.0224552)">
    <path
       style="fill:#000000;stroke-width:0.26458332"
       id="path299"
       d="m 47.305208,83.591724 c 5.29e-4,0.02693 0.0052,0.05348 0.0094,0.08 0,0 -16.366847,9.449406 -16.366847,9.449406 v 0 c -0.0042,-0.02652 -0.0089,-0.05307 -0.0094,-0.08 0,0 16.36685,-9.449406 16.36685,-9.449406 z"
       inkscape:connector-curvature="0" />
    <path
       style="fill:#000000;stroke-width:0.26458332"
       id="path345"
       d="m 73.036287,43.487569 c 0.05989,-0.0085 0.120335,-0.01246 0.180655,-0.01664 0.07197,-0.0048 0.143989,-0.0091 0.216016,-0.01304 0.08538,-0.0047 0.170805,-0.0085 0.256242,-0.01199 0.106796,-0.0021 0.213576,-2.56e-4 0.320278,0.0043 0.120803,0.0058 0.241601,0.0117 0.362415,0.0173 0.130824,0.0068 0.261099,0.02011 0.391301,0.03415 0.136226,0.01582 0.271531,0.03795 0.406762,0.06051 0.141769,0.02352 0.283099,0.04997 0.423886,0.07879 0.142214,0.029 0.283583,0.06172 0.424797,0.09519 0.144155,0.03596 0.287102,0.07666 0.429424,0.119256 0.146161,0.04391 0.291655,0.0899 0.436771,0.137136 0.150053,0.04876 0.297548,0.104722 0.443987,0.163327 0.15793,0.06236 0.31409,0.129056 0.469228,0.198036 0.160459,0.07141 0.318677,0.147685 0.477136,0.223385 0.164942,0.0798 0.328121,0.163129 0.491411,0.246229 0.171606,0.08774 0.339299,0.1827 0.506394,0.278654 0.173807,0.100436 0.344977,0.205229 0.513424,0.314396 0.177858,0.113543 0.350901,0.23436 0.522843,0.3566 0.175752,0.127305 0.351816,0.254175 0.526478,0.382974 0.177864,0.132125 0.353883,0.2667 0.529625,0.40163 0.179821,0.138017 0.35656,0.279966 0.532524,0.422849 0.177684,0.145021 0.354351,0.291306 0.529796,0.439026 0.174924,0.146409 0.349208,0.293592 0.520764,0.443941 0.171958,0.152591 0.343506,0.305668 0.512945,0.461058 0.171622,0.157805 0.340622,0.318429 0.508765,0.47993 0.166002,0.159494 0.331488,0.319506 0.494998,0.481555 0.165595,0.162364 0.326684,0.329189 0.486868,0.496866 0.160586,0.167606 0.318693,0.337524 0.475887,0.50831 0.154361,0.168532 0.306382,0.339159 0.457343,0.510738 0.15712,0.176882 0.308761,0.358447 0.458621,0.541481 0.153114,0.186825 0.305676,0.374081 0.455139,0.563843 0.147087,0.186121 0.293158,0.372988 0.435798,0.562549 0.142504,0.191677 0.281373,0.386001 0.416647,0.582837 0.135856,0.19902 0.263401,0.403466 0.390305,0.608243 0.128511,0.205428 0.251955,0.413956 0.372277,0.624266 0.120285,0.210751 0.233431,0.425389 0.344562,0.641064 0.112598,0.215633 0.214204,0.436584 0.312549,0.658987 0.09921,0.225333 0.1905,0.453999 0.279175,0.683641 0.09431,0.246219 0.18297,0.494461 0.267089,0.744326 0.09192,0.276701 0.1719,0.557141 0.254138,0.836814 0.08493,0.288393 0.165499,0.578043 0.245425,0.867854 0.07877,0.286393 0.153664,0.573831 0.226973,0.861663 0.07522,0.288857 0.139289,0.580382 0.201789,0.872197 0.06502,0.302072 0.123548,0.605459 0.179158,0.909386 0.05825,0.324289 0.117321,0.648427 0.174992,0.972822 0.05667,0.32879 0.116594,0.657003 0.173649,0.985724 0.05978,0.344363 0.114102,0.689631 0.167198,1.035077 0.05241,0.348088 0.109384,0.69547 0.164277,1.043172 0.05374,0.339516 0.105492,0.679342 0.15621,1.019323 0.05064,0.339874 0.09847,0.680157 0.144159,1.020728 0.0455,0.357299 0.09321,0.714312 0.14052,1.071375 0.04659,0.352859 0.09207,0.705866 0.136567,1.058992 0.04359,0.346282 0.08515,0.692812 0.126114,1.039411 0.04021,0.34123 0.07863,0.68267 0.116319,1.024186 0.03769,0.341609 0.07308,0.683461 0.107285,1.025435 0.03484,0.35207 0.06722,0.704376 0.09895,1.05674 0.03174,0.351036 0.06186,0.702218 0.09127,1.053457 0.02901,0.346538 0.05686,0.693174 0.08417,1.03985 0.02432,0.335902 0.04485,0.67206 0.06538,1.008208 0.02215,0.337923 0.03854,0.676135 0.05265,1.014473 0.0141,0.349332 0.02679,0.69872 0.03943,1.04811 0.0145,0.341389 0.03177,0.682657 0.04831,1.023953 0.01606,0.330317 0.03158,0.66066 0.04693,0.991011 0.01498,0.323744 0.02934,0.64752 0.04333,0.971309 0.01381,0.329708 0.02676,0.659434 0.04308,0.989028 0.01691,0.333108 0.03393,0.66621 0.05067,0.999326 0.01542,0.321501 0.037,0.64267 0.05726,0.963896 0.02035,0.309954 0.04696,0.619408 0.07504,0.928737 0.02768,0.294019 0.06234,0.587301 0.104949,0.879515 0.03643,0.276291 0.09484,0.548489 0.16741,0.817324 0.06884,0.249725 0.165161,0.489657 0.278233,0.722257 0.105344,0.209484 0.237504,0.403151 0.380106,0.588648 0.133543,0.170923 0.292084,0.318296 0.459544,0.45506 0.165021,0.132453 0.351073,0.232994 0.542237,0.321728 0.200094,0.09153 0.413332,0.146841 0.627407,0.194056 0.227851,0.04871 0.459846,0.07134 0.692007,0.08613 0.245811,0.01206 0.49171,-0.0016 0.736714,-0.02098 0.260403,-0.02278 0.519557,-0.05696 0.778338,-0.09339 0.255585,-0.03735 0.510069,-0.08147 0.764399,-0.126436 0.205711,-0.03606 0.411311,-0.07264 0.616567,-0.11122 0,0 -16.36685,9.449403 -16.36685,9.449403 v 0 c -0.205253,0.03858 -0.410855,0.07516 -0.616566,0.11122 -0.254331,0.04497 -0.508812,0.08908 -0.7644,0.126436 -0.258781,0.03643 -0.517935,0.07061 -0.778338,0.09339 -0.245004,0.01953 -0.490903,0.03307 -0.736714,0.02098 -0.232158,-0.01479 -0.464156,-0.03741 -0.692007,-0.08613 -0.214074,-0.04721 -0.427312,-0.102526 -0.627406,-0.194054 -0.191164,-0.08874 -0.377217,-0.189275 -0.542237,-0.321728 -0.16746,-0.136763 -0.326001,-0.284136 -0.459542,-0.455062 -0.142612,-0.185488 -0.274774,-0.379155 -0.380116,-0.588642 -0.113075,-0.232597 -0.209393,-0.472532 -0.278235,-0.722256 -0.07257,-0.268836 -0.130985,-0.541031 -0.16741,-0.817322 -0.04261,-0.292217 -0.07727,-0.585499 -0.10495,-0.879515 -0.02808,-0.309332 -0.0547,-0.618786 -0.07504,-0.92874 -0.02027,-0.321223 -0.04182,-0.642393 -0.05725,-0.963893 -0.01675,-0.333116 -0.03377,-0.666218 -0.05068,-0.999326 -0.01633,-0.329594 -0.02926,-0.659323 -0.04307,-0.989028 -0.014,-0.323792 -0.02835,-0.647566 -0.04333,-0.971312 -0.01535,-0.330351 -0.03087,-0.660694 -0.04693,-0.99101 -0.01654,-0.341297 -0.03382,-0.682562 -0.04831,-1.023954 -0.01265,-0.349387 -0.02532,-0.698775 -0.03943,-1.048107 -0.0141,-0.338339 -0.0305,-0.676553 -0.05265,-1.014473 -0.02053,-0.336148 -0.04108,-0.672309 -0.06538,-1.008208 -0.02731,-0.346679 -0.05517,-0.693312 -0.08418,-1.03985 -0.0294,-0.351242 -0.05952,-0.702421 -0.09126,-1.05346 -0.03173,-0.352361 -0.06411,-0.704667 -0.09895,-1.056737 -0.0342,-0.341974 -0.06959,-0.683829 -0.107286,-1.025435 -0.03769,-0.341519 -0.07611,-0.682956 -0.116319,-1.024187 -0.04096,-0.346601 -0.08253,-0.693129 -0.126113,-1.03941 -0.0445,-0.353129 -0.08997,-0.706133 -0.136565,-1.058992 -0.04731,-0.357066 -0.09502,-0.714076 -0.140523,-1.071377 -0.04569,-0.340572 -0.09352,-0.680853 -0.144156,-1.020728 -0.05072,-0.339979 -0.102478,-0.679805 -0.156212,-1.019324 -0.05489,-0.347702 -0.111866,-0.695084 -0.164275,-1.043172 -0.0531,-0.345443 -0.107418,-0.690714 -0.167201,-1.035074 -0.05705,-0.328724 -0.116977,-0.656937 -0.173648,-0.985724 -0.05767,-0.324395 -0.116745,-0.648533 -0.17499,-0.972825 -0.05561,-0.303924 -0.114136,-0.607314 -0.179158,-0.909384 -0.0625,-0.291814 -0.126568,-0.583342 -0.201789,-0.872196 -0.07331,-0.287832 -0.148209,-0.57527 -0.226973,-0.861663 -0.07993,-0.289814 -0.160494,-0.579461 -0.245425,-0.867857 -0.08224,-0.27967 -0.162221,-0.560113 -0.25414,-0.836811 -0.08412,-0.249865 -0.172784,-0.49811 -0.267087,-0.744329 -0.08868,-0.22964 -0.179969,-0.458306 -0.279177,-0.683641 -0.09835,-0.2224 -0.199951,-0.443351 -0.312547,-0.658984 -0.111133,-0.215678 -0.22428,-0.430313 -0.344565,-0.641067 C 71.926865,63.524354 71.803421,63.315825 71.674912,63.110397 71.548008,62.90562 71.42046,62.701174 71.284607,62.502157 71.149331,62.30532 71.010462,62.110997 70.867957,61.91932 70.72532,61.729759 70.579249,61.542889 70.432159,61.356768 70.282696,61.167006 70.130137,60.97975 69.977023,60.792928 69.827163,60.609894 69.67552,60.428329 69.5184,60.251445 69.367439,60.079865 69.21542,59.90924 69.061057,59.740706 68.903865,59.569923 68.745755,59.400005 68.585169,59.232399 68.424985,59.064722 68.263899,58.897897 68.098301,58.735533 67.934792,58.573481 67.769305,58.413472 67.603303,58.253978 67.435163,58.092476 67.26616,57.931853 67.094538,57.774045 66.925099,57.618655 66.753551,57.465581 66.581593,57.31299 66.410038,57.162638 66.235756,57.015456 66.06083,56.869046 65.885385,56.721326 65.708717,56.575043 65.531033,56.430023 65.35507,56.28714 65.178331,56.145188 64.998509,56.007173 64.822768,55.872244 64.646748,55.737666 64.468885,55.605541 64.294225,55.476745 64.118158,55.349872 63.942409,55.22257 63.770464,55.100327 63.597421,54.979511 63.419566,54.865967 63.251116,54.7568 63.079947,54.652009 62.906139,54.551574 c -0.167092,-0.09595 -0.334788,-0.190913 -0.506394,-0.278654 -0.16329,-0.0831 -0.326466,-0.166429 -0.49141,-0.246232 -0.158459,-0.0757 -0.316677,-0.151974 -0.477137,-0.223383 C 61.27606,53.734325 61.1199,53.66763 60.96197,53.605267 60.815531,53.546667 60.668037,53.4907 60.517984,53.44194 60.372868,53.3947 60.227373,53.34872 60.081212,53.304807 c -0.142322,-0.04259 -0.285268,-0.08329 -0.429424,-0.119256 -0.141213,-0.03347 -0.28258,-0.06619 -0.424796,-0.09519 -0.140788,-0.02882 -0.282118,-0.05526 -0.423884,-0.07879 -0.135231,-0.02257 -0.270536,-0.04469 -0.406765,-0.06051 -0.130199,-0.01405 -0.260477,-0.02731 -0.3913,-0.03414 -0.120814,-0.0056 -0.24161,-0.01151 -0.362416,-0.0173 -0.106701,-0.0046 -0.213479,-0.0064 -0.320278,-0.0043 -0.08543,0.0035 -0.170863,0.0072 -0.256238,0.01199 -0.07203,0.0039 -0.144042,0.0082 -0.21602,0.01304 -0.06032,0.0042 -0.120763,0.0081 -0.180654,0.01664 0,0 16.366849,-9.449403 16.366849,-9.449403 z"
       inkscape:connector-curvature="0" />
    <path
       style="fill:#000000;stroke-width:0.26458332"
       id="path351"
       d="m 55.461643,52.366267 c 0.07231,-0.01897 0.14447,-0.03844 0.216474,-0.05854 0.120348,-0.03436 0.238445,-0.076 0.356497,-0.117422 0.143997,-0.05121 0.288033,-0.102322 0.431829,-0.154096 0.171008,-0.06196 0.339336,-0.130984 0.507849,-0.199358 0.18633,-0.07546 0.372589,-0.151117 0.559208,-0.225864 0.199051,-0.08045 0.396629,-0.164476 0.594434,-0.247917 0.211198,-0.0892 0.422584,-0.17794 0.634703,-0.264935 0.209193,-0.08385 0.416227,-0.172892 0.623848,-0.260517 0.206965,-0.08737 0.411951,-0.179295 0.61576,-0.273765 0.20987,-0.09588 0.418507,-0.194362 0.626626,-0.29397 0.213407,-0.102558 0.424074,-0.210564 0.63455,-0.318961 0.226922,-0.11834 0.452929,-0.23845 0.678981,-0.358449 0.250614,-0.133834 0.499655,-0.270571 0.749859,-0.405167 0.272124,-0.146556 0.544525,-0.292569 0.815856,-0.440592 0.29066,-0.159737 0.578379,-0.324755 0.865798,-0.490236 -54.011452,31.180986 38.558665,-22.262596 -15.482824,8.936564 5.602018,-3.242069 11.215563,-6.46462 16.816023,-9.708999 5.301276,-3.071061 -21.209693,12.276216 -15.918286,9.188185 0.29931,-0.174482 0.59645,-0.352642 0.89472,-0.528889 0.301609,-0.178805 0.603864,-0.356521 0.907503,-0.531855 5.755129,-3.32509 11.476556,-6.709484 17.271039,-9.965531 0.297407,-0.165888 0.595429,-0.330687 0.893797,-0.494839 0.293425,-0.160671 0.589187,-0.316998 0.885282,-0.472671 0.312677,-0.166613 0.628941,-0.326286 0.945042,-0.486264 0.319542,-0.161708 0.637751,-0.326028 0.957014,-0.488289 0.30631,-0.157522 0.61341,-0.313507 0.920133,-0.470222 0.301038,-0.153668 0.60062,-0.310153 0.900179,-0.466678 0.301979,-0.158186 0.603456,-0.317341 0.904406,-0.47748 0.299453,-0.160557 0.598186,-0.322448 0.897758,-0.482777 0.295315,-0.156689 0.590571,-0.313479 0.886471,-0.469051 0.29887,-0.157514 0.597834,-0.314857 0.897207,-0.471413 0.299236,-0.157867 0.599485,-0.313791 0.898988,-0.471144 0.290317,-0.151889 0.582052,-0.301035 0.87295,-0.451803 0.279469,-0.144989 0.55988,-0.288165 0.841801,-0.428323 0.275334,-0.136401 0.551146,-0.271835 0.826254,-0.408689 0.275924,-0.135747 0.55104,-0.273102 0.82595,-0.410882 0.279406,-0.140205 0.557742,-0.282514 0.836388,-0.424214 0.270343,-0.137335 0.541205,-0.273651 0.811831,-0.410422 0.267187,-0.13486 0.534131,-0.270203 0.800468,-0.40673 0.26126,-0.1342 0.522806,-0.267849 0.784633,-0.400937 0.253783,-0.127653 0.505872,-0.258622 0.758859,-0.387834 0.244449,-0.126656 0.489209,-0.25269 0.733123,-0.380373 0.232223,-0.122592 0.465106,-0.243903 0.698463,-0.364315 0.223547,-0.115411 0.446236,-0.23245 0.670444,-0.346575 0.216643,-0.111646 0.431871,-0.225991 0.649039,-0.336619 0.214423,-0.108416 0.428371,-0.217765 0.642913,-0.325946 0.215443,-0.106928 0.429803,-0.216003 0.644774,-0.323873 0.206237,-0.10341 0.412845,-0.206068 0.619085,-0.309476 0.20147,-0.100988 0.404265,-0.199292 0.606044,-0.299661 0.193249,-0.0971 0.38711,-0.192958 0.581404,-0.287946 0.186515,-0.09046 0.37134,-0.184341 0.55721,-0.276109 0.179723,-0.08719 0.358489,-0.176324 0.537662,-0.264634 0.174268,-0.08485 0.346226,-0.174341 0.518491,-0.263159 0.163473,-0.08597 0.329975,-0.165942 0.494929,-0.248968 0.157115,-0.07996 0.313669,-0.161017 0.4703,-0.241922 0.144724,-0.07477 0.289438,-0.14955 0.434155,-0.224335 0.131365,-0.06935 0.264099,-0.135972 0.400439,-0.195006 0,0 -16.36685,9.449404 -16.36685,9.449404 v 0 c -0.136337,0.05903 -0.269073,0.125653 -0.400439,0.195008 -0.144717,0.07478 -0.28943,0.149569 -0.434155,0.224335 -0.156631,0.0809 -0.313184,0.161957 -0.470297,0.241922 -0.164957,0.08302 -0.331459,0.162996 -0.494929,0.248967 -0.172265,0.08882 -0.344223,0.178311 -0.518491,0.26316 -0.179173,0.08831 -0.357942,0.177438 -0.537665,0.264634 -0.18587,0.09176 -0.370695,0.185645 -0.557207,0.276106 -0.194297,0.09499 -0.388157,0.190844 -0.581406,0.287948 -0.201779,0.100368 -0.404572,0.198673 -0.606044,0.299662 -0.206238,0.103407 -0.412845,0.206063 -0.619086,0.309475 -0.214971,0.107871 -0.429331,0.216946 -0.644773,0.323872 -0.214543,0.108182 -0.42849,0.217532 -0.642914,0.325948 -0.217167,0.110627 -0.432395,0.224972 -0.649039,0.336619 -0.224208,0.114122 -0.446897,0.231163 -0.670441,0.346575 -0.233359,0.120411 -0.466243,0.241723 -0.698465,0.364315 -0.243912,0.12768 -0.488675,0.253717 -0.733121,0.38037 -0.252987,0.129215 -0.505076,0.260184 -0.758859,0.387837 -0.261829,0.133085 -0.523375,0.266734 -0.784633,0.400936 -0.26634,0.136525 -0.533283,0.27187 -0.80047,0.406729 -0.270627,0.136773 -0.541486,0.273087 -0.811829,0.410421 -0.278649,0.1417 -0.556985,0.284012 -0.836388,0.424217 -0.274912,0.137777 -0.550029,0.275132 -0.825952,0.410882 -0.275109,0.136853 -0.550921,0.272286 -0.826254,0.408689 -0.281922,0.140158 -0.562332,0.283334 -0.841799,0.428321 -0.290901,0.15077 -0.582633,0.299913 -0.872953,0.451802 -0.299503,0.157356 -0.599752,0.31328 -0.898988,0.471146 -0.299373,0.156554 -0.598336,0.313897 -0.897204,0.471411 -0.295902,0.155575 -0.591159,0.312364 -0.886471,0.469051 -0.299574,0.160332 -0.598307,0.322223 -0.897758,0.482777 -0.300953,0.160142 -0.602427,0.319294 -0.904409,0.477483 -0.299558,0.156522 -0.599138,0.313007 -0.900179,0.466675 -0.306723,0.156718 -0.61382,0.3127 -0.920133,0.470222 -0.319262,0.162261 -0.637471,0.326581 -0.957014,0.488292 -0.316098,0.159975 -0.632365,0.319648 -0.945041,0.486261 -0.296095,0.155673 -0.591855,0.312 -0.88528,0.472671 -0.298371,0.164152 -0.596392,0.328953 -0.8938,0.494842 -6.468279,3.634668 21.656993,-12.510939 15.46266,-8.933281 -0.303641,0.175337 -0.605893,0.353053 -0.907502,0.531855 -0.29827,0.17625 -0.59541,0.354407 -0.89472,0.528889 -5.59004,3.262313 -11.229943,6.474931 -16.815414,9.710626 -5.400982,3.12882 10.81101,-6.241994 16.216598,-9.362847 0.09971,-0.05756 -0.397568,0.230397 -0.298921,0.173038 -54.8134,31.64823 37.754599,-21.79771 -17.250875,9.962245 -0.287417,0.165481 -0.575138,0.330496 -0.865799,0.490235 -0.27133,0.148022 -0.543732,0.294037 -0.815856,0.44059 -0.250203,0.134599 -0.499245,0.271335 -0.749858,0.40517 -0.226052,0.119999 -0.452057,0.240106 -0.678982,0.358449 -0.210476,0.108397 -0.42114,0.216403 -0.63455,0.318961 -0.208119,0.09961 -0.416756,0.198088 -0.626623,0.29397 -0.203809,0.09447 -0.408797,0.186397 -0.615763,0.273765 -0.207621,0.08762 -0.414652,0.17667 -0.623847,0.260516 -0.212117,0.08699 -0.423506,0.175731 -0.634701,0.264933 -0.197808,0.08344 -0.395386,0.167471 -0.594434,0.247917 -0.186622,0.07475 -0.37288,0.150402 -0.55921,0.225867 -0.168514,0.06837 -0.336842,0.137401 -0.50785,0.199358 -0.143795,0.05177 -0.287829,0.102886 -0.431829,0.154096 -0.118052,0.04142 -0.236148,0.08306 -0.356497,0.117422 -0.072,0.02011 -0.144166,0.03958 -0.216474,0.05854 0,0 16.36685,-9.449403 16.36685,-9.449403 z"
       inkscape:connector-curvature="0" />
    <path
       style="fill:#000000;stroke-width:0.26458332"
       id="path355"
       d="m 58.292721,2.0966807 c 0.0087,-0.00248 0.01736,-0.00496 0.02604,-0.00744 0,0 -16.366849,9.4494043 -16.366849,9.4494043 v 0 c -0.0087,0.0025 -0.01736,0.005 -0.02601,0.0074 0,0 16.36685,-9.4494048 16.36685,-9.4494048 z"
       inkscape:connector-curvature="0" />
    <path
       style="fill:#000000;stroke-width:0.26458332"
       id="path369"
       d="m 68.05896,2.8838273 c -0.08625,0.06138 -0.171026,0.1247849 -0.256698,0.1869625 -0.152877,0.1087398 -0.31014,0.2109161 -0.46921,0.3102878 -0.25509,0.1570955 -0.511529,0.3119614 -0.768559,0.4658595 -5.739685,3.3955241 -11.55587,6.6797929 -17.323853,10.0095699 -0.355515,0.203385 -0.714753,0.400119 -1.075131,0.594724 -0.364699,0.197409 -0.730787,0.392239 -1.096473,0.587812 -0.382186,0.20344 -0.763646,0.408237 -1.145011,0.613213 -0.419873,0.225348 -0.83942,0.451294 -1.259742,0.675803 -0.429123,0.230162 -0.858277,0.460261 -1.287383,0.690449 -0.426546,0.228226 -0.851538,0.459332 -1.273887,0.695235 -0.451427,0.253102 -0.900091,0.511077 -1.350359,0.76623 -0.456441,0.257265 -0.913464,0.513493 -1.371301,0.768265 -0.464315,0.258436 -0.929807,0.514736 -1.395529,0.770629 -0.473295,0.262408 -0.948481,0.521379 -1.423101,0.781375 -0.483299,0.265996 -0.967941,0.52952 -1.45447,0.789558 -0.478012,0.256475 -0.958266,0.508732 -1.437953,0.762046 -0.462653,0.243285 -0.92502,0.487114 -1.388057,0.729664 -0.453863,0.237539 -0.907182,0.476113 -1.360006,0.715626 -0.449588,0.237749 -0.897162,0.479259 -1.345374,0.719581 -0.442243,0.23849 -0.882502,0.480631 -1.322364,0.723475 -0.42686,0.235617 -0.85195,0.474425 -1.27704,0.71322 -0.414928,0.234063 -0.829871,0.468095 -1.244325,0.702999 -0.391073,0.222128 -0.783635,0.441621 -1.175982,0.661484 -0.366319,0.205809 -0.734191,0.408835 -1.102812,0.610482 -0.352449,0.194055 -0.706715,0.384765 -1.059974,0.577331 -0.349056,0.189958 -0.695884,0.383953 -1.044058,0.575511 -0.335512,0.183481 -0.668721,0.371126 -1.003246,0.556395 -0.317357,0.173744 -0.633039,0.350509 -0.949512,0.525851 -0.303483,0.16722 -0.60754,0.333428 -0.912836,0.497319 -0.302243,0.161041 -0.605752,0.31968 -0.908852,0.479097 -0.298688,0.157504 -0.600126,0.309708 -0.902943,0.459092 -0.292901,0.143827 -0.587114,0.28494 -0.88047,0.427834 -0.28078,0.137395 -0.562826,0.272169 -0.844036,0.40868 -0.276715,0.134268 -0.550966,0.273487 -0.824118,0.414835 -0.271864,0.140814 -0.541828,0.285237 -0.812112,0.429046 -0.260861,0.142063 -0.521878,0.283816 -0.784027,0.423492 -0.255787,0.134668 -0.510729,0.270936 -0.766089,0.406408 -0.252628,0.133514 -0.504513,0.26842 -0.756279,0.403548 -0.246243,0.13272 -0.492351,0.26576 -0.736227,0.402796 -6.2514533,3.58861 21.626084,-12.629327 15.637298,-9.023007 -0.236942,0.143118 -0.474412,0.285338 -0.711065,0.428933 -0.232999,0.143328 -0.46566,0.287195 -0.698213,0.431242 -0.231163,0.144224 -0.461119,0.290348 -0.691258,0.436197 -0.226077,0.14595 -0.454669,0.287899 -0.683181,0.429983 -0.227123,0.140057 -0.456867,0.275799 -0.685491,0.413379 -0.220758,0.131734 -0.442259,0.262216 -0.663653,0.392875 -0.205069,0.121007 -0.41015,0.241993 -0.615229,0.362979 -0.189164,0.111599 -0.378329,0.223197 -0.567493,0.334796 -0.175297,0.106071 -0.35026,0.212749 -0.523411,0.322297 -0.1683,0.106727 -0.332226,0.220144 -0.496835,0.332425 -0.169638,0.116668 -0.340329,0.231791 -0.509436,0.349229 -0.167771,0.115919 -0.335956,0.23124 -0.504081,0.346649 -0.156508,0.107029 -0.31224,0.215196 -0.469386,0.321289 -0.15172,0.100732 -0.302225,0.203276 -0.453997,0.303924 -0.14835,0.09718 -0.296551,0.194566 -0.444373,0.292544 -0.141358,0.09497 -0.284622,0.187032 -0.427894,0.27907 -0.132814,0.08548 -0.266563,0.169494 -0.397589,0.257706 -0.01913,0.01365 -0.03826,0.02731 -0.0574,0.04096 0,0 -16.36684947,9.449403 -16.36684947,9.449403 v 0 c 0.01913228,-0.01365 0.03826458,-0.02731 0.05739687,-0.04096 0.13102602,-0.08821 0.26477493,-0.172228 0.39758854,-0.257707 0.14327211,-0.09204 0.28653642,-0.184102 0.42789456,-0.279072 0.14782104,-0.09798 0.2960231,-0.195368 0.4443722,-0.292541 0.1517719,-0.100651 0.3022779,-0.203195 0.453997,-0.303925 0.1571461,-0.106092 0.3128788,-0.214259 0.4693868,-0.321291 0.1681249,-0.115406 0.3363091,-0.230727 0.5040807,-0.346647 0.1691069,-0.11744 0.3397983,-0.23256 0.5094359,-0.349228 C 3.3687898,39.114835 3.5327156,39.001419 3.7010157,38.894689 3.8741664,38.785143 4.0491306,38.678466 4.2244271,38.572392 4.4135915,38.460796 4.6027556,38.349197 4.7919198,38.237599 4.9969991,38.11661 5.2020803,37.995624 5.407149,37.87462 5.6285434,37.74396 5.8500443,37.613478 6.0708021,37.481745 6.2994261,37.344162 6.5291702,37.20842 6.756293,37.068363 6.9848052,36.926279 7.2133967,36.78433 7.4394739,36.638383 7.6696127,36.492534 7.8995684,36.34641 8.1307315,36.202183 8.3632851,36.058139 8.5959462,35.914271 8.8289446,35.770944 9.065598,35.627347 9.3030682,35.485128 9.5400105,35.342009 15.177975,31.946947 20.927699,28.740883 26.636411,25.466207 c 0.243874,-0.137034 0.489984,-0.270076 0.736227,-0.402797 0.251764,-0.135127 0.50365,-0.270033 0.756277,-0.403546 0.255362,-0.135474 0.510304,-0.271741 0.76609,-0.406409 0.262149,-0.139676 0.523166,-0.281428 0.784027,-0.423491 0.270285,-0.143811 0.540247,-0.288234 0.812112,-0.429047 0.273153,-0.141348 0.547404,-0.280566 0.824119,-0.414835 0.281209,-0.13651 0.563255,-0.271286 0.844034,-0.40868 0.293357,-0.142893 0.587571,-0.284006 0.880472,-0.427833 0.302816,-0.149384 0.604253,-0.30159 0.902941,-0.459092 0.303102,-0.159417 0.60661,-0.318055 0.908854,-0.479097 0.305295,-0.163891 0.609352,-0.330099 0.912834,-0.497319 0.316474,-0.175342 0.632156,-0.352108 0.949513,-0.525852 0.334526,-0.18527 0.667734,-0.372913 1.003247,-0.556395 0.348173,-0.191558 0.695,-0.385554 1.044056,-0.57551 0.353259,-0.192566 0.707525,-0.383277 1.059974,-0.577331 0.368623,-0.201648 0.736494,-0.404673 1.102813,-0.610481 0.392348,-0.219864 0.78491,-0.439359 1.175983,-0.661486 0.414453,-0.234904 0.829397,-0.468936 1.244324,-0.702998 0.425091,-0.238796 0.850178,-0.477604 1.277041,-0.713221 0.439862,-0.242844 0.88012,-0.484985 1.322364,-0.723474 0.448212,-0.240323 0.895786,-0.481832 1.345374,-0.719582 0.452824,-0.239513 0.906142,-0.478086 1.360003,-0.715626 0.46304,-0.242549 0.925407,-0.486379 1.388057,-0.729663 0.47969,-0.253314 0.959943,-0.505572 1.437955,-0.762047 0.486529,-0.260038 0.971172,-0.523561 1.45447,-0.789558 0.474621,-0.259996 0.949804,-0.518967 1.423102,-0.781375 0.465719,-0.255893 0.931211,-0.512193 1.395528,-0.7706287 0.457835,-0.2547723 0.914861,-0.5110001 1.371301,-0.7682651 0.450266,-0.255153 0.89893,-0.5131276 1.350357,-0.7662301 0.422349,-0.2359022 0.847344,-0.4670086 1.273889,-0.695235 C 60.172856,7.3389153 60.60201,7.1088159 61.03113,6.8786546 61.451455,6.6541448 61.871002,6.4281994 62.290875,6.2028519 62.67224,5.9978758 63.0537,5.7930782 63.435885,5.5896382 63.801571,5.3940659 64.167659,5.1992349 64.532358,5.0018267 64.892734,4.8072217 65.251975,4.610487 65.60749,4.4071026 38.121563,20.277901 44.581492,16.619007 50.197644,13.296342 c 0.257029,-0.153898 0.513469,-0.308764 0.768559,-0.46586 0.159072,-0.09937 0.316335,-0.201548 0.469209,-0.310287 0.08567,-0.06218 0.170453,-0.125583 0.256699,-0.186963 0,0 16.366849,-9.4494047 16.366849,-9.4494047 z"
       inkscape:connector-curvature="0" />
    <path
       style="fill:#000000;stroke-width:0.26458332"
       id="path383"
       d="m 25.409005,87.436588 c 0.01485,-0.05622 0.03039,-0.112258 0.04647,-0.168143 0.02531,-0.0779 0.04717,-0.156858 0.06928,-0.235712 0.02893,-0.110069 0.05552,-0.220747 0.08311,-0.331168 0.03188,-0.125624 0.05874,-0.25241 0.08766,-0.378722 0.03339,-0.143791 0.06405,-0.288179 0.09648,-0.432184 0.0357,-0.155509 0.0687,-0.311613 0.101148,-0.467828 0.03529,-0.159846 0.07131,-0.319524 0.106184,-0.479462 0.03363,-0.163653 0.0694,-0.326816 0.105594,-0.489919 0.03761,-0.167796 0.07273,-0.336137 0.106528,-0.504737 0.03514,-0.177599 0.06752,-0.355727 0.09856,-0.534083 0.03216,-0.186476 0.06191,-0.373353 0.09091,-0.560345 0.032,-0.195477 0.05445,-0.392279 0.07629,-0.589095 0.02303,-0.210047 0.04354,-0.420357 0.0634,-0.630724 0.02097,-0.223131 0.03995,-0.446442 0.05832,-0.669798 0.01926,-0.235183 0.0368,-0.470498 0.05379,-0.705853 0.01783,-0.25037 0.03394,-0.500856 0.04961,-0.751366 0.01641,-0.263351 0.03116,-0.526802 0.04576,-0.790258 0.01478,-0.268451 0.02865,-0.53695 0.0422,-0.805465 0.01421,-0.273696 0.0271,-0.547429 0.03581,-0.821357 0.0081,-0.272971 0.01506,-0.545976 0.02208,-0.818975 0.0063,-0.265086 0.01464,-0.53013 0.01851,-0.795267 0.0045,-0.268425 6.88e-4,-0.536866 -0.0027,-0.805275 -0.0017,-0.265604 -0.01009,-0.531079 -0.01822,-0.796544 -0.0064,-0.263099 -0.01913,-0.525965 -0.03151,-0.788831 -0.01093,-0.262213 -0.02539,-0.524222 -0.04145,-0.786162 -0.01604,-0.264536 -0.03159,-0.529085 -0.05059,-0.793424 -0.01997,-0.269143 -0.03915,-0.538343 -0.05792,-0.807572 -0.01731,-0.270148 -0.03773,-0.540055 -0.05931,-0.809892 -0.02059,-0.274836 -0.04419,-0.549402 -0.06908,-0.823879 -0.02519,-0.277341 -0.05358,-0.554415 -0.08427,-0.831204 -0.03171,-0.280847 -0.06342,-0.561679 -0.09805,-0.842182 -0.03551,-0.278061 -0.06793,-0.556514 -0.10392,-0.834514 -0.03626,-0.280072 -0.07589,-0.559702 -0.117498,-0.839028 -0.04363,-0.2862 -0.09035,-0.571971 -0.139905,-0.857211 -0.04908,-0.27895 -0.09861,-0.55781 -0.150431,-0.836268 -0.05081,-0.27754 -0.105601,-0.554321 -0.158565,-0.831453 -0.05381,-0.281811 -0.114666,-0.562174 -0.176773,-0.842246 -0.0614,-0.285313 -0.130616,-0.56883 -0.19867,-0.852601 -0.06987,-0.290079 -0.144806,-0.578882 -0.220771,-0.867413 -0.07635,-0.291925 -0.156829,-0.58275 -0.240734,-0.872588 -0.08242,-0.289353 -0.170352,-0.577053 -0.259517,-0.86438 -0.08987,-0.292214 -0.187482,-0.581872 -0.287077,-0.870881 -0.102437,-0.289687 -0.20568,-0.579083 -0.310324,-0.867979 -0.104758,-0.285502 -0.213578,-0.569471 -0.32361,-0.852975 -0.111151,-0.282921 -0.227468,-0.563792 -0.344706,-0.844237 -0.116665,-0.278228 -0.241268,-0.552998 -0.367316,-0.827067 -0.125466,-0.274444 -0.257685,-0.54566 -0.392985,-0.815366 -0.135137,-0.264261 -0.274642,-0.526272 -0.418331,-0.785974 -0.14134,-0.255857 -0.289735,-0.507725 -0.441884,-0.757277 -0.149445,-0.246147 -0.306999,-0.487199 -0.464988,-0.727903 -0.155287,-0.234175 -0.314705,-0.465548 -0.476489,-0.695267 -0.159266,-0.226132 -0.324515,-0.44795 -0.492439,-0.6677 -0.170346,-0.218932 -0.34531,-0.434255 -0.523017,-0.647245 -0.17363,-0.205811 -0.349024,-0.410138 -0.52604,-0.613047 -0.17267,-0.195215 -0.348102,-0.388004 -0.526673,-0.577837 -0.176409,-0.185976 -0.356314,-0.368641 -0.537688,-0.54977 C 17.975997,47.615762 17.794546,47.44291 17.610044,47.273328 17.422921,47.103055 17.231932,46.937122 17.037787,46.774922 16.84263,46.613592 16.644981,46.455384 16.444821,46.300317 16.244862,46.146764 16.043023,45.99575 15.838816,45.847896 15.637594,45.70438 15.436509,45.560664 15.23448,45.418281 15.033915,45.276642 14.8274,45.14376 14.620347,45.011886 14.413375,44.880275 14.204015,44.752476 13.993902,44.625955 13.787633,44.49933 13.579423,44.376029 13.368611,44.257128 13.153406,44.139137 12.937632,44.022149 12.720889,43.907 12.508629,43.793811 12.293593,43.685964 12.079755,43.575821 11.86818,43.465656 11.653766,43.361154 11.439312,43.256757 11.224884,43.151493 11.009,43.049242 10.792154,42.949063 10.577726,42.851288 10.362971,42.754189 10.147479,42.658775 9.9319462,42.565036 9.7164796,42.471172 9.5012874,42.376647 9.2931785,42.284802 9.0840275,42.195347 8.8744,42.107031 8.6736173,42.022703 8.4744119,41.934669 8.2745695,41.848137 8.0869095,41.766933 7.8992201,41.685799 7.7115347,41.604656 7.5356598,41.527673 7.3587528,41.453122 7.1812402,41.380007 7.0095837,41.309334 6.8368718,41.241257 6.6643201,41.172809 6.5035884,41.109079 6.3428394,41.045396 6.1820929,40.981703 6.033806,40.92295 5.8855189,40.864196 5.7372317,40.805443 5.5993102,40.752283 5.4627588,40.69586 5.326925,40.637604 5.2006842,40.583194 5.0745978,40.528427 4.9484901,40.473708 4.8321423,40.423218 4.715797,40.372727 4.5994514,40.322234 4.4921426,40.275664 4.384834,40.229094 4.2775253,40.182521 4.1785523,40.139571 4.079579,40.096611 3.9806058,40.053658 c -0.091285,-0.03962 -0.1825702,-0.07923 -0.2738552,-0.11885 -0.082959,-0.03537 -0.1653303,-0.07205 -0.2473126,-0.10962 -0.073048,-0.0336 -0.1460224,-0.06736 -0.2190066,-0.101103 -0.067229,-0.03108 -0.134457,-0.06217 -0.201685,-0.09325 -0.060442,-0.0298 -0.1232066,-0.05421 -0.1860132,-0.07844 -0.025274,-0.01021 -0.051457,-0.01738 -0.077887,-0.02379 0,0 16.3668478,-9.449403 16.3668478,-9.449403 v 0 c 0.02643,0.0064 0.05261,0.01357 0.07789,0.02379 0.06281,0.02424 0.125571,0.04865 0.186013,0.07844 0.06723,0.03108 0.134456,0.06217 0.201685,0.09325 0.07298,0.03374 0.145958,0.0675 0.219006,0.101105 0.08198,0.03757 0.164354,0.07424 0.247313,0.109619 0.09129,0.03962 0.18257,0.07923 0.273855,0.118851 0.09897,0.04295 0.197947,0.08591 0.29692,0.12886 0.107309,0.04657 0.214617,0.09314 0.321926,0.139713 0.116346,0.05049 0.232691,0.100989 0.349039,0.151477 0.126107,0.05472 0.252194,0.109485 0.378435,0.163896 0.135833,0.05826 0.272385,0.114676 0.410306,0.167839 0.148287,0.05875 0.296574,0.117506 0.444861,0.17626 0.160747,0.06369 0.321496,0.127375 0.482227,0.191103 0.172552,0.06845 0.345264,0.136525 0.516921,0.207201 0.177512,0.07311 0.354419,0.147663 0.530294,0.224647 0.187686,0.08114 0.375375,0.162279 0.563035,0.243482 0.199843,0.08653 0.399048,0.174565 0.599831,0.258895 0.209627,0.08832 0.418778,0.177771 0.626887,0.269616 0.215192,0.09452 0.430659,0.188386 0.646191,0.282125 0.215492,0.09542 0.430247,0.192514 0.644676,0.29029 0.216846,0.100177 0.43273,0.20243 0.647159,0.307695 0.214453,0.104394 0.428868,0.208896 0.640443,0.319064 0.213838,0.11014 0.428873,0.21799 0.641134,0.331176 0.216743,0.115152 0.432517,0.232137 0.647722,0.350131 0.210812,0.118901 0.419022,0.2422 0.625291,0.368826 0.210113,0.126519 0.419473,0.254321 0.626445,0.385932 0.207052,0.131874 0.413568,0.264753 0.614133,0.406392 0.202029,0.142383 0.403114,0.2861 0.604334,0.429615 0.204209,0.147854 0.406049,0.298868 0.606007,0.452422 0.20016,0.155069 0.397809,0.313277 0.592966,0.474604 0.194143,0.1622 0.385133,0.328136 0.572257,0.498409 0.184502,0.169579 0.365953,0.342434 0.543203,0.519604 0.181374,0.181129 0.36128,0.363794 0.537688,0.54977 0.178573,0.189833 0.354005,0.382622 0.526675,0.577839 0.177014,0.202907 0.352409,0.407237 0.526039,0.613048 0.177707,0.21299 0.352671,0.42831 0.523015,0.647245 0.167926,0.21975 0.333174,0.441568 0.49244,0.6677 0.161785,0.229719 0.321201,0.461092 0.476488,0.695267 0.157991,0.240704 0.315545,0.481755 0.464989,0.727903 0.152149,0.249549 0.300543,0.501419 0.441884,0.757274 0.14369,0.259702 0.283194,0.521716 0.418332,0.785974 0.135298,0.269706 0.267518,0.540922 0.392983,0.815369 0.126048,0.274069 0.250651,0.548836 0.367316,0.827064 0.11724,0.280445 0.233556,0.561319 0.344707,0.84424 0.110032,0.283501 0.21885,0.567471 0.323609,0.852975 0.104646,0.288895 0.207889,0.578289 0.310325,0.867976 0.09959,0.289009 0.197204,0.578667 0.287078,0.870881 0.08917,0.287327 0.177102,0.57503 0.259517,0.864383 0.0839,0.289838 0.16438,0.58066 0.240733,0.872586 0.07597,0.28853 0.150898,0.577334 0.220771,0.867415 0.06805,0.283768 0.137272,0.567288 0.198671,0.852598 0.0621,0.280072 0.12296,0.560438 0.176773,0.842246 0.05296,0.277132 0.107754,0.553916 0.158562,0.831456 0.05182,0.278455 0.101349,0.557315 0.150432,0.836268 0.04955,0.285237 0.09627,0.571008 0.139906,0.85721 0.04161,0.279326 0.08123,0.558954 0.117496,0.839029 0.03599,0.278 0.06841,0.55645 0.103921,0.834514 0.03463,0.280501 0.06635,0.561332 0.09805,0.842179 0.03069,0.276789 0.05909,0.553863 0.08427,0.831205 0.0249,0.274476 0.0485,0.549042 0.06908,0.82388 0.02159,0.269836 0.04199,0.539742 0.05931,0.809893 0.01879,0.269226 0.03795,0.538427 0.05792,0.807569 0.019,0.264342 0.03455,0.528889 0.05059,0.793424 0.01606,0.261943 0.03051,0.523949 0.04145,0.786162 0.01238,0.262869 0.02511,0.525732 0.0315,0.788831 0.0082,0.265468 0.01651,0.53094 0.01823,0.796544 0.0034,0.268412 0.0072,0.536851 0.0027,0.805278 -0.0039,0.265134 -0.01217,0.53018 -0.01852,0.795266 -0.007,0.273 -0.014,0.546003 -0.02209,0.818976 -0.0087,0.273926 -0.02159,0.547658 -0.03581,0.821354 -0.01355,0.268515 -0.02742,0.537017 -0.0422,0.805468 -0.0146,0.263456 -0.02935,0.526905 -0.04576,0.790255 -0.01566,0.250513 -0.03178,0.500999 -0.04961,0.751366 -0.01699,0.235355 -0.03453,0.470673 -0.05379,0.705853 -0.01836,0.223359 -0.03736,0.44667 -0.05832,0.669801 -0.01987,0.210365 -0.04038,0.420677 -0.06341,0.630724 -0.02183,0.196813 -0.04428,0.393615 -0.07629,0.589095 -0.029,0.186991 -0.05875,0.373867 -0.09091,0.560342 -0.03105,0.178356 -0.06343,0.356484 -0.09856,0.534083 -0.0338,0.168603 -0.06891,0.336944 -0.10653,0.50474 -0.03619,0.1631 -0.07196,0.326263 -0.105592,0.489919 -0.03487,0.159935 -0.0709,0.319614 -0.106185,0.479462 -0.03244,0.156212 -0.06545,0.312319 -0.101148,0.467825 -0.03243,0.144005 -0.0631,0.288396 -0.09649,0.432184 -0.02891,0.126312 -0.05578,0.2531 -0.08765,0.378722 -0.02758,0.110421 -0.05417,0.221102 -0.08311,0.331168 -0.02212,0.07886 -0.04397,0.157811 -0.06928,0.235715 -0.01609,0.05589 -0.03162,0.111919 -0.04647,0.168143 0,0 -16.36685,9.449403 -16.36685,9.449403 z"
       inkscape:connector-curvature="0" />
    <path
       style="fill:#000000;stroke-width:0.26458332"
       id="path385"
       d="m 73.29962,-0.21807289 c 0.04152,0.0317632 0.08071,0.0664067 0.119854,0.10101308 0.04357,0.0379472 0.08786,0.0750984 0.132392,0.11193004 0.05664,0.047435 0.111223,0.0973355 0.16528,0.1476861 0.06703,0.06412 0.131932,0.13037737 0.196805,0.19666317 0.07313,0.072406 0.145643,0.1454769 0.216413,0.2201936 0.07613,0.080608 0.149826,0.1634439 0.224817,0.2451041 0.077,0.086729 0.155376,0.1722217 0.230915,0.2602403 0.08378,0.093331 0.160917,0.1922465 0.239414,0.2899722 0.08533,0.1072238 0.168962,0.2157754 0.253473,0.3236383 0.08985,0.1152835 0.177911,0.2319376 0.267525,0.3474038 0.09169,0.1199062 0.182629,0.2403789 0.272585,0.3615948 0.09921,0.1348385 0.193767,0.272995 0.289576,0.4102516 0.107413,0.1562039 0.219437,0.3091395 0.328191,0.464397 0.116097,0.1645557 0.232905,0.3286048 0.349782,0.4926068 0.124394,0.1715166 0.246825,0.344429 0.368779,0.5176845 0.128646,0.1832179 0.25617,0.367216 0.38531,0.5500904 0.135112,0.1904651 0.270603,0.3806643 0.405051,0.5715987 0.143102,0.2034109 0.284803,0.4078087 0.426389,0.6122797 0.147204,0.2161977 0.295111,0.4319013 0.443222,0.6474793 0.155297,0.2249549 0.31005,0.4502838 0.465807,0.6749219 0.156797,0.2273017 0.313587,0.4546111 0.470786,0.6816363 0.153199,0.2226707 0.307306,0.4447074 0.461587,0.6666296 0.16229,0.2355149 0.328012,0.4686411 0.492366,0.7027172 0.171828,0.2436662 0.34213,0.4884143 0.514734,0.7315334 0.167888,0.234604 0.333742,0.470655 0.500694,0.705926 0.15996,0.228555 0.320419,0.456768 0.479444,0.685973 0.158925,0.230749 0.319429,0.460402 0.479031,0.690683 0.170492,0.244544 0.338079,0.491091 0.507111,0.736642 0.166888,0.241106 0.332504,0.483099 0.500441,0.723478 0.162168,0.233937 0.326398,0.466431 0.489738,0.699552 0.157723,0.228597 0.317413,0.455805 0.479573,0.681273 0.164251,0.232576 0.329867,0.464181 0.494623,0.696397 0.162356,0.228806 0.325885,0.456773 0.489728,0.684514 0.158866,0.222161 0.318267,0.443943 0.477853,0.665589 0.164764,0.229624 0.329332,0.459387 0.491874,0.690593 0.165579,0.238214 0.334343,0.474149 0.504055,0.709427 0.170288,0.233114 0.341931,0.465232 0.512651,0.698031 0.164174,0.225612 0.329327,0.450509 0.492998,0.676486 0.15716,0.217929 0.312815,0.436965 0.467299,0.656799 0.149522,0.214217 0.299572,0.428056 0.447824,0.643154 0.144388,0.209332 0.288022,0.419182 0.433324,0.627882 0.140237,0.204694 0.283043,0.407606 0.423029,0.612472 0.139295,0.200317 0.275198,0.402948 0.413191,0.604155 0.13493,0.196245 0.265608,0.395329 0.394592,0.595511 0.128053,0.196082 0.253384,0.393894 0.376857,0.592886 0.121457,0.197554 0.241099,0.396197 0.359875,0.59537 0.11779,0.193906 0.232876,0.389438 0.350166,0.583641 0.114977,0.188771 0.229465,0.377854 0.34644,0.565398 0.11494,0.184438 0.228917,0.369468 0.343053,0.554403 0.111244,0.179846 0.220483,0.360912 0.331846,0.540683 0.10777,0.176726 0.215493,0.353478 0.322921,0.530413 0.104672,0.173246 0.212786,0.344363 0.317461,0.517609 0.104365,0.168611 0.20733,0.338072 0.310076,0.507672 0.09971,0.16332 0.200273,0.326123 0.300712,0.488998 0.09679,0.155623 0.194479,0.31069 0.292036,0.465833 0.09051,0.144489 0.182142,0.28828 0.27177,0.433319 0.08402,0.137025 0.167309,0.274497 0.250698,0.411906 0.07853,0.127929 0.155329,0.256884 0.231227,0.386387 0.07052,0.123685 0.14565,0.244607 0.220829,0.365487 0.07012,0.112528 0.140385,0.224962 0.210632,0.337408 0.06481,0.103735 0.12962,0.20747 0.194429,0.311202 0.06206,0.09547 0.119251,0.193763 0.170516,0.295413 0,0 -16.366849,9.449406 -16.366849,9.449406 v 0 c -0.05127,-0.10165 -0.108456,-0.199946 -0.170516,-0.295413 -0.06481,-0.103735 -0.12962,-0.207467 -0.194429,-0.311203 -0.07025,-0.112448 -0.140515,-0.22488 -0.210632,-0.337407 -0.07518,-0.12088 -0.15031,-0.241805 -0.22083,-0.36549 -0.0759,-0.129503 -0.152693,-0.258456 -0.231224,-0.386384 C 78.22342,39.695855 78.14013,39.558383 78.056109,39.421358 77.966479,39.276319 77.874851,39.132531 77.78434,38.988042 77.68678,38.832896 77.589098,38.677831 77.492303,38.522206 77.391865,38.359331 77.291304,38.19653 77.191591,38.033211 77.088845,37.86361 76.98588,37.694148 76.881515,37.525536 76.776841,37.352293 76.668727,37.181173 76.564055,37.007929 76.456629,36.830995 76.348904,36.654242 76.241134,36.477517 76.12977,36.297745 76.020532,36.116678 75.909288,35.936833 75.795152,35.751897 75.681175,35.566868 75.566237,35.38243 75.449262,35.194885 75.334774,35.005804 75.219797,34.817031 75.102504,34.62283 74.987419,34.427297 74.869631,34.23339 74.750852,34.034219 74.63121,33.835575 74.509753,33.638022 74.386283,33.439028 74.26095,33.241218 74.132896,33.045135 74.003912,32.844952 73.873234,32.645868 73.738308,32.449624 73.600311,32.248417 73.464408,32.045786 73.325113,31.845469 73.185127,31.640603 73.042321,31.437691 72.902084,31.232996 72.756783,31.024295 72.613148,30.814446 72.46876,30.605113 72.320509,30.390018 72.170458,30.176179 72.020939,29.961962 71.866452,29.742127 71.7108,29.523092 71.553638,29.30516 71.389966,29.079185 71.224813,28.854286 71.06064,28.628676 c -0.17072,-0.232799 -0.342361,-0.464918 -0.512652,-0.698032 -0.169709,-0.235278 -0.338473,-0.471212 -0.504055,-0.709427 -0.162541,-0.231206 -0.327107,-0.460968 -0.491874,-0.690593 -0.159586,-0.221645 -0.318986,-0.443427 -0.47785,-0.665588 -0.163846,-0.227741 -0.327374,-0.455708 -0.489728,-0.684515 -0.164759,-0.232215 -0.330375,-0.46382 -0.494623,-0.696396 -0.162163,-0.225468 -0.321852,-0.452677 -0.479576,-0.681274 -0.16334,-0.23312 -0.327567,-0.465615 -0.489738,-0.699552 -0.167936,-0.240378 -0.33355,-0.482371 -0.500441,-0.723478 -0.169029,-0.24555 -0.336619,-0.492097 -0.507111,-0.736642 -0.159599,-0.23028 -0.320103,-0.459934 -0.479031,-0.690682 -0.159025,-0.229205 -0.319484,-0.457418 -0.479443,-0.685974 -0.166952,-0.23527 -0.332804,-0.471321 -0.500692,-0.705925 -0.172607,-0.243119 -0.342906,-0.487867 -0.514737,-0.731533 -0.164351,-0.234076 -0.330075,-0.467202 -0.492363,-0.702717 -0.154281,-0.221922 -0.30839,-0.443959 -0.461589,-0.66663 -0.1572,-0.227025 -0.313989,-0.454334 -0.470787,-0.681636 -0.155757,-0.224638 -0.310509,-0.449967 -0.465806,-0.674922 -0.148112,-0.215578 -0.296019,-0.431281 -0.443222,-0.647479 -0.141587,-0.204471 -0.283285,-0.408869 -0.42639,-0.61228 -0.134448,-0.190934 -0.269938,-0.381133 -0.40505,-0.571598 -0.129138,-0.182875 -0.256662,-0.366873 -0.38531,-0.550091 -0.121955,-0.173255 -0.244383,-0.346168 -0.368777,-0.517684 -0.116879,-0.164002 -0.233688,-0.328051 -0.349781,-0.492607 -0.108757,-0.155258 -0.220779,-0.308193 -0.328195,-0.464397 -0.09581,-0.137257 -0.190368,-0.275413 -0.289576,-0.410252 -0.08995,-0.121216 -0.18089,-0.241688 -0.272584,-0.361595 -0.08962,-0.115466 -0.17767,-0.23212 -0.267526,-0.347403 -0.08451,-0.107863 -0.168142,-0.216415 -0.253473,-0.323639 -0.0785,-0.09773 -0.155631,-0.196641 -0.239414,-0.289972 -0.07554,-0.08802 -0.15391,-0.173511 -0.230915,-0.260241 -0.07499,-0.08166 -0.148682,-0.164496 -0.224814,-0.245104 -0.07077,-0.07472 -0.143287,-0.1477871 -0.216415,-0.2201932 -0.06487,-0.06629 -0.129776,-0.132543 -0.196805,-0.1966641 -0.05406,-0.05035 -0.108641,-0.100251 -0.16528,-0.147686 -0.04453,-0.03683 -0.08882,-0.07398 -0.132393,-0.1119301 -0.03914,-0.03461 -0.07833,-0.06925 -0.119851,-0.1010128 0,0 16.366847,-9.44940469 16.366847,-9.44940469 z"
       inkscape:connector-curvature="0" />
  </g>
  <path
     style="fill:#000000;stroke-width:0.25839797"
     id="path282"
     d="m 6.8328138,17.616617 c 0.039069,-0.03617 0.078544,-0.0719 0.1171681,-0.108522 0.048669,-0.04543 0.09542,-0.09262 0.1432369,-0.138855 0.056011,-0.05383 0.1122413,-0.107457 0.1684388,-0.161114 0.062727,-0.06238 0.1241028,-0.125974 0.1859243,-0.189166 0.069695,-0.07042 0.1396735,-0.1406 0.2111594,-0.209376 0.074905,-0.07385 0.1508422,-0.146763 0.2284275,-0.218041 0.087107,-0.07953 0.1741078,-0.159178 0.2603304,-0.239583 0.095415,-0.08727 0.1932385,-0.172076 0.2894367,-0.258551 0.1009272,-0.08963 0.2018819,-0.179238 0.3050265,-0.266559 0.1047083,-0.08904 0.2105748,-0.176783 0.3173995,-0.263504 0.117444,-0.09367 0.2332021,-0.189178 0.3487555,-0.284944 0.1249531,-0.103413 0.2485162,-0.208279 0.374641,-0.310399 0.130011,-0.104607 0.2600176,-0.20923 0.3907726,-0.312992 0.131343,-0.105084 0.265402,-0.206996 0.398127,-0.310467 0.132879,-0.104546 0.269312,-0.204801 0.406592,-0.303996 0.140801,-0.101426 0.283284,-0.200708 0.425381,-0.300467 0.140927,-0.09789 0.284338,-0.192454 0.427081,-0.287904 0.140004,-0.09414 0.281616,-0.186081 0.42453,-0.276151 0.142184,-0.08923 0.284422,-0.178368 0.428549,-0.264735 5.525696,-3.216817 11.262123,-6.2116028 16.817695,-9.2708634 0.158073,-0.087259 0.321178,-0.1656382 0.484934,-0.2426074 0.171119,-0.08051 0.345919,-0.1534948 0.52184,-0.2238397 0.179348,-0.0738 0.359056,-0.1467599 0.539475,-0.2181476 0.181488,-0.071366 0.365048,-0.1378197 0.548876,-0.2034709 0.181374,-0.064495 0.363466,-0.1271174 0.545203,-0.1906713 0.185732,-0.064398 0.372615,-0.125714 0.559742,-0.1863029 0.187462,-0.060787 0.3762,-0.1178191 0.565732,-0.1724138 0.194942,-0.055501 0.390908,-0.1076251 0.58707,-0.1590311 0.191958,-0.05036 0.38444,-0.098864 0.577107,-0.1466779 0.187113,-0.048795 0.376325,-0.089371 0.565959,-0.128071 0.193839,-0.039508 0.389438,-0.070538 0.584841,-0.1020371 0.194286,-0.032544 0.389419,-0.059625 0.584927,-0.084459 0.193273,-0.025786 0.387488,-0.04398 0.581692,-0.061932 0.188619,-0.015267 0.377555,-0.026627 0.566436,-0.038494 0.184393,-0.010844 0.369057,-0.014316 0.553744,-0.01636 0.18266,-0.00103 0.365167,0.00525 0.547618,0.012618 0.182095,0.00806 0.363498,0.025366 0.544907,0.041822 0.178205,0.017041 0.355592,0.040307 0.532845,0.064538 0.176061,0.024608 0.350657,0.057497 0.525343,0.089571 0.170267,0.032026 0.339138,0.069991 0.507865,0.1085752 0.165828,0.038448 0.328456,0.088018 0.490948,0.1374484 0.159858,0.049762 0.318616,0.1025582 0.476705,0.1571898 0.155596,0.054529 0.308223,0.1162294 0.459864,0.1799797 0.14822,0.064706 0.294936,0.1325257 0.439756,0.2038854 0.141192,0.070615 0.281781,0.1423348 0.420296,0.2176315 0.13743,0.074972 0.271208,0.1557716 0.404619,0.2370156 0.128625,0.081577 0.256733,0.1638733 0.385731,0.2449204 0.124743,0.080347 0.248563,0.1620277 0.370298,0.2464705 0.119578,0.083422 0.237513,0.1689359 0.354052,0.2561728 0.117639,0.087821 0.234773,0.1761617 0.347721,0.2694458 0.114596,0.095392 0.226663,0.1934559 0.335922,0.2943723 0.113332,0.1020171 0.221888,0.2086414 0.329986,0.3156487 0.109437,0.1099462 0.214964,0.2233488 0.320871,0.336373 0.104923,0.1113943 0.207272,0.2249604 0.307546,0.3401746 0.101756,0.1140867 0.200491,0.2305586 0.29654,0.3490495 0.09641,0.1199176 0.189225,0.2424349 0.281162,0.365494 0.09471,0.1281746 0.183632,0.2601158 0.271571,0.3925662 0.09092,0.1366115 0.177406,0.2758361 0.261734,0.4162214 0.08594,0.1436501 0.165732,0.290447 0.24202,0.4389332 0.07883,0.1551317 0.151937,0.3127954 0.223229,0.4711834 0.0719,0.1613749 0.139408,0.3244635 0.205888,0.4879219 0.06718,0.1646262 0.129309,0.3310248 0.189896,0.4979401 0.06079,0.1718465 0.121111,0.3438533 0.180417,0.5161737 0.06136,0.1776264 0.119629,0.3561933 0.175496,0.5354546 0.05496,0.1855744 0.102634,0.3730082 0.149913,0.5604682 0.04724,0.188906 0.09235,0.378288 0.135895,0.567998 0.04368,0.192607 0.08518,0.385652 0.125299,0.578961 0.04064,0.195526 0.07868,0.391534 0.115564,0.587733 0.03782,0.204095 0.07388,0.4085 0.105339,0.613581 0.03098,0.210639 0.05821,0.421759 0.08495,0.63292 0.02765,0.2195 0.053,0.439255 0.07715,0.659128 0.02758,0.237423 0.0458,0.475672 0.06357,0.713905 0.01873,0.251652 0.03542,0.503437 0.05168,0.755243 0.01778,0.270936 0.02734,0.542294 0.0376,0.813562 0.01259,0.28986 0.01749,0.579929 0.02241,0.869976 0.0066,0.308266 0.0083,0.61656 0.0084,0.92488 -2.65e-4,0.33326 -0.0011,0.66652 -0.0016,0.999781 -1.82e-4,0.342913 -5.29e-4,0.685809 -0.0048,1.028701 -0.0049,0.347312 -0.01027,0.694617 -0.01543,1.041926 -0.0052,0.350836 -0.01008,0.701676 -0.01482,1.052518 -0.0043,0.360823 -0.01469,0.721553 -0.0236,1.082293 -0.0096,0.389961 -0.0181,0.779948 -0.02646,1.169936 -0.0085,0.402267 -0.01662,0.804542 -0.02447,1.206822 -0.0076,0.411952 -0.01492,0.823891 -0.02569,1.235779 -0.01212,0.442526 -0.02352,0.88507 -0.03464,1.327621 -0.01371,0.457331 -0.02977,0.914595 -0.04482,1.371888 -0.01545,0.471256 -0.0298,0.942548 -0.04373,1.413851 -0.01418,0.479954 -0.02738,0.959931 -0.04037,1.439915 -0.01506,0.476194 -0.03273,0.952306 -0.0495,1.428445 -0.01688,0.4777 -0.03263,0.955433 -0.04803,1.433179 -0.01548,0.480705 -0.03012,0.961435 -0.04434,1.442176 -0.01445,0.504229 -0.03341,1.008333 -0.0508,1.512475 -0.01797,0.52087 -0.03496,1.041771 -0.05155,1.562684 -0.01744,0.530829 -0.03155,1.06175 -0.04887,1.592581 -0.01926,0.586579 -0.04384,1.172984 -0.0703,1.759303 -0.02724,0.609204 -0.06019,1.218159 -0.0947,1.827024 -0.03506,0.632533 -0.07585,1.264762 -0.120123,1.896763 -0.04775,0.655609 -0.10369,1.310635 -0.157316,1.965823 -0.05926,0.668373 -0.111286,1.337278 -0.160734,2.006368 -0.05044,0.709099 -0.09947,1.418286 -0.149165,2.127436 -0.05101,0.728804 -0.09929,1.457779 -0.14656,2.186814 -0.04775,0.744007 -0.08186,1.488708 -0.115658,2.233381 -0.03414,0.760597 -0.06589,1.521288 -0.09735,2.281988 -0.0303,0.745051 -0.06175,1.490062 -0.08834,2.235243 -0.02471,0.725953 -0.04694,1.45198 -0.06927,2.178002 -0.02122,0.69004 -0.04202,1.380091 -0.06268,2.070147 -0.01955,0.65339 -0.03875,1.306789 -0.05779,1.960195 -0.01802,0.620746 -0.03569,1.2415 -0.0533,1.862255 -0.01664,0.585015 -0.03303,1.170037 -0.04916,1.755064 -0.01363,0.561041 -0.03343,1.121912 -0.0529,1.682789 -0.01876,0.536102 -0.03728,1.072215 -0.05575,1.608328 -0.01693,0.508687 -0.0398,1.017179 -0.06149,1.525696 -0.02037,0.486629 -0.04043,0.973253 -0.06452,1.459729 -0.02368,0.466383 -0.04728,0.932767 -0.07053,1.399169 -0.0222,0.445759 -0.04401,0.891535 -0.06567,1.337317 -0.01812,0.414952 -0.04256,0.829597 -0.06814,1.244179 -0.02183,0.353886 -0.04938,0.707466 -0.08096,1.060678 -0.02743,0.301499 -0.0572,0.602777 -0.09484,0.90328 -0.02938,0.219304 -0.06671,0.43752 -0.115075,0.653729 -0.03174,0.141113 -0.07037,0.281067 -0.139634,0.409889 -4.063508,4.618944 -10.446925,7.50208 -16.587377,9.160868 -0.064,0.01449 -0.125389,0.03688 -0.186947,0.05857 -0.01101,0.0035 -0.02201,0.0072 -0.033,0.01064 0,0 16.366847,-9.012759 16.366847,-9.012759 v 0 c 0.01101,-0.0035 0.02201,-0.0072 0.033,-0.01065 0.06156,-0.02168 0.122952,-0.04407 0.186947,-0.05857 6.183923,-1.670529 -20.436204,13.593329 -16.14632,8.864652 0.06926,-0.128823 0.107897,-0.268776 0.139634,-0.409888 0.04836,-0.216213 0.0857,-0.434429 0.115078,-0.653731 0.03763,-0.300503 0.0674,-0.60178 0.09483,-0.903278 0.03158,-0.353212 0.05912,-0.706793 0.08096,-1.060681 0.02558,-0.414579 0.05002,-0.829228 0.06814,-1.24418 0.02167,-0.445781 0.04346,-0.891557 0.06567,-1.337313 0.02326,-0.466402 0.04686,-0.932789 0.07053,-1.39917 0.02408,-0.486475 0.04413,-0.973103 0.06452,-1.459728 0.0217,-0.50852 0.04455,-1.017009 0.06149,-1.525699 0.01847,-0.536112 0.03699,-1.072223 0.05575,-1.608325 0.01947,-0.560877 0.03927,-1.121749 0.0529,-1.682789 0.01614,-0.585027 0.03253,-1.170049 0.04916,-1.755066 0.01762,-0.620756 0.03529,-1.241511 0.0533,-1.862257 0.01905,-0.653402 0.03824,-1.306804 0.05779,-1.960195 0.02066,-0.690052 0.04146,-1.380103 0.06268,-2.070143 0.02233,-0.726022 0.04456,-1.45205 0.06926,-2.178003 0.02659,-0.74518 0.05803,-1.490192 0.08834,-2.235242 0.03145,-0.7607 0.0632,-1.521393 0.09734,-2.281988 0.0338,-0.744677 0.0679,-1.489378 0.11566,-2.233382 0.04727,-0.729034 0.09555,-1.45801 0.146558,-2.186817 0.04969,-0.709146 0.09872,-1.418335 0.149164,-2.127434 0.04945,-0.66909 0.101476,-1.337996 0.160737,-2.006369 0.05363,-0.655185 0.109561,-1.310211 0.157313,-1.965821 0.04428,-0.632003 0.08507,-1.264231 0.120124,-1.896762 0.03451,-0.608865 0.06747,-1.217821 0.0947,-1.827026 0.02647,-0.586317 0.05105,-1.172724 0.07031,-1.759304 0.01733,-0.53083 0.03143,-1.061753 0.04887,-1.592578 0.01659,-0.520914 0.03357,-1.041814 0.05155,-1.562685 0.01738,-0.504144 0.03635,-1.008245 0.05081,-1.512475 0.01421,-0.480741 0.02887,-0.961472 0.04434,-1.442179 0.0154,-0.477742 0.03115,-0.955478 0.04803,-1.433175 0.01677,-0.47614 0.03445,-0.952255 0.0495,-1.428448 0.01299,-0.479983 0.02622,-0.959962 0.04037,-1.439915 0.01394,-0.471302 0.02827,-0.942591 0.04373,-1.413852 0.01505,-0.457291 0.03111,-0.914555 0.04482,-1.371885 0.01111,-0.442551 0.02254,-0.885094 0.03464,-1.327623 0.01077,-0.411885 0.01807,-0.823828 0.02569,-1.235776 0.0079,-0.402281 0.01593,-0.804555 0.02447,-1.206823 0.0084,-0.389987 0.01685,-0.779976 0.02646,-1.169938 0.0089,-0.36074 0.01926,-0.721469 0.0236,-1.082292 0.0047,-0.350843 0.0096,-0.701683 0.01482,-1.052517 0.0052,-0.347309 0.01056,-0.694613 0.01543,-1.041928 0.0043,-0.34289 0.0047,-0.685788 0.0048,-1.028701 5.29e-4,-0.333258 0.0013,-0.666518 0.0016,-0.999779 -2.3e-5,-0.30832 -0.0019,-0.616615 -0.0084,-0.924882 -0.0049,-0.290047 -0.0098,-0.580114 -0.02241,-0.869974 -0.01027,-0.271268 -0.01982,-0.542626 -0.0376,-0.813562 -0.01624,-0.251806 -0.03294,-0.503591 -0.05168,-0.755243 -0.01775,-0.238234 -0.03599,-0.476482 -0.06357,-0.713906 -0.02416,-0.219874 -0.0495,-0.439627 -0.07715,-0.659128 -0.02674,-0.21116 -0.05397,-0.42228 -0.08495,-0.63292 -0.03146,-0.20508 -0.06752,-0.409485 -0.105341,-0.61358 -0.03689,-0.1962 -0.07493,-0.392207 -0.115565,-0.587735 -0.04012,-0.193307 -0.08162,-0.386352 -0.125299,-0.57896 -0.04355,-0.189711 -0.08865,-0.379091 -0.135895,-0.567999 -0.04728,-0.187458 -0.09495,-0.374892 -0.149913,-0.560466 -0.05587,-0.179263 -0.114139,-0.357829 -0.175495,-0.535455 -0.0593,-0.172321 -0.119624,-0.344327 -0.180417,-0.516173 -0.06059,-0.166916 -0.122714,-0.333314 -0.189897,-0.497941 -0.06648,-0.163458 -0.13399,-0.326547 -0.205888,-0.487922 -0.07129,-0.158387 -0.144396,-0.316051 -0.223229,-0.471183 -0.07629,-0.148486 -0.156083,-0.295283 -0.24202,-0.438934 -0.08433,-0.140385 -0.170812,-0.279609 -0.261731,-0.416221 -0.08794,-0.132451 -0.176866,-0.264392 -0.271571,-0.392567 -0.09194,-0.123059 -0.18475,-0.245575 -0.281165,-0.365493 -0.09605,-0.118491 -0.194783,-0.234963 -0.296539,-0.34905 -0.100275,-0.115214 -0.202624,-0.22878 -0.307547,-0.340174 -0.105907,-0.113025 -0.211434,-0.226427 -0.32087,-0.336373 -0.108099,-0.107008 -0.216655,-0.213632 -0.329986,-0.315648 -0.10926,-0.100922 -0.221327,-0.198982 -0.335923,-0.294372 -0.112948,-0.09328 -0.230082,-0.181626 -0.347721,-0.269446 -0.116538,-0.08724 -0.234474,-0.172752 -0.354049,-0.256174 -0.121738,-0.08444 -0.245555,-0.166124 -0.370298,-0.246471 -0.129,-0.08104 -0.257106,-0.163342 -0.385733,-0.244919 -0.133411,-0.08125 -0.26719,-0.162045 -0.40462,-0.237017 -0.138513,-0.07529 -0.279103,-0.147015 -0.420294,-0.217631 -0.144821,-0.07136 -0.291537,-0.139178 -0.439758,-0.203885 -0.151638,-0.06375 -0.304267,-0.125451 -0.459862,-0.17998 -0.158089,-0.05463 -0.316848,-0.107428 -0.476706,-0.15719 -0.162492,-0.04942 -0.32512,-0.099 -0.490947,-0.137448 -0.168729,-0.03858 -0.337598,-0.07655 -0.507866,-0.108575 -0.174686,-0.03208 -0.349281,-0.06496 -0.525343,-0.08957 -0.177252,-0.02424 -0.35464,-0.0475 -0.532845,-0.06453 -0.181409,-0.01645 -0.362813,-0.03376 -0.544905,-0.04182 -0.182454,-0.0074 -0.36496,-0.01365 -0.54762,-0.01262 -0.184687,0.002 -0.36935,0.0055 -0.553745,0.01636 -0.188879,0.01187 -0.377816,0.02322 -0.566435,0.03849 -0.194204,0.01795 -0.388419,0.03615 -0.581692,0.06193 -0.195507,0.02484 -0.39064,0.05192 -0.584926,0.08446 -0.195404,0.0315 -0.391002,0.06253 -0.584842,0.102038 -0.189634,0.03871 -0.378846,0.07928 -0.565958,0.128071 -0.192668,0.04781 -0.385151,0.09632 -0.577106,0.146677 -0.196164,0.05141 -0.39213,0.103531 -0.587072,0.159031 -0.189533,0.0546 -0.37827,0.111627 -0.565732,0.172414 -0.187127,0.06059 -0.374011,0.121906 -0.559741,0.186303 -0.181738,0.06355 -0.363831,0.126177 -0.545206,0.190672 -0.183827,0.06564 -0.367386,0.132104 -0.548875,0.203471 -0.180417,0.07139 -0.360127,0.144347 -0.539474,0.218147 -0.175922,0.07034 -0.350721,0.14333 -0.521841,0.22384 -0.163754,0.07696 -0.32686,0.155348 -0.484933,0.242608 27.43416,-15.1073712 21.38846,-11.94060081 15.916012,-8.7546434 -0.144127,0.086366 -0.286364,0.175495 -0.428548,0.2647343 -0.142912,0.09007 -0.284525,0.1820091 -0.42453,0.2761508 -0.142742,0.095449 -0.286154,0.1900128 -0.427079,0.2879032 -0.1421,0.09976 -0.284581,0.1990458 -0.425382,0.3004687 -0.137281,0.099195 -0.273714,0.1994491 -0.406593,0.3039961 -0.132725,0.1034705 -0.266784,0.205382 -0.398126,0.3104671 -0.130755,0.1037617 -0.260763,0.2083842 -0.390774,0.3129909 -0.126125,0.10212 -0.249688,0.2069859 -0.374641,0.3103991 -0.115554,0.095764 -0.231311,0.1912806 -0.348756,0.2849439 -0.106824,0.086721 -0.212691,0.1744674 -0.317399,0.2635044 -0.103145,0.087321 -0.204099,0.176923 -0.305027,0.2665595 -0.0962,0.086475 -0.194021,0.17129 -0.289436,0.258551 -0.08622,0.080404 -0.173224,0.1600533 -0.260331,0.2395827 -0.07759,0.071277 -0.153522,0.1442032 -0.228427,0.2180399 -0.07149,0.068777 -0.141464,0.1389553 -0.21116,0.2093766 -0.06182,0.063192 -0.123197,0.1267895 -0.185924,0.1891667 -0.0562,0.053655 -0.112427,0.1072817 -0.168438,0.1611145 -0.04782,0.046226 -0.09457,0.093429 -0.143238,0.1388533 -0.03862,0.036616 -0.0781,0.072346 -0.117168,0.1085224 0,0 -16.3668482,9.0127593 -16.3668482,9.0127603 z"
     inkscape:connector-curvature="0" />
  <path
     style="fill:#000000;stroke-width:0.27710205"
     id="path290"
     d="m 38.728128,100.99999 c -0.03385,-0.0483 -0.07374,-0.0908 -0.1129,-0.1338 -0.05244,-0.0565 -0.10617,-0.11159 -0.160211,-0.16625 -0.06458,-0.066 -0.133297,-0.12691 -0.201589,-0.18818 -0.08691,-0.0794 -0.17549,-0.15655 -0.263231,-0.23483 -0.102743,-0.0925 -0.207584,-0.18225 -0.312994,-0.2711 C 37.556217,99.905513 37.43385,99.807254 37.311916,99.708338 37.166343,99.589701 37.018554,99.47442 36.869742,99.360736 36.703266,99.23204 36.5327,99.109924 36.362367,98.987515 c -0.182714,-0.129667 -0.365263,-0.259619 -0.55008,-0.385661 -0.199294,-0.137413 -0.402807,-0.267182 -0.607205,-0.39518 -0.22519,-0.139143 -0.452213,-0.274711 -0.680376,-0.407892 -0.239612,-0.140835 -0.481222,-0.277528 -0.72308,-0.413649 -0.260207,-0.147217 -0.525468,-0.283165 -0.791292,-0.417611 -0.285644,-0.142875 -0.573254,-0.280985 -0.861975,-0.4162 -0.296731,-0.139114 -0.597131,-0.268422 -0.897946,-0.39644 -0.31514,-0.13549 -0.635831,-0.254326 -0.957501,-0.369555 -0.329607,-0.116561 -0.660765,-0.227835 -0.993669,-0.33252 -0.337084,-0.105113 -0.676582,-0.200474 -1.016656,-0.293142 -0.346112,-0.09451 -0.69488,-0.176719 -1.043694,-0.258183 -0.355044,-0.08095 -0.712025,-0.150771 -1.070253,-0.212357 -0.370811,-0.06429 -0.743968,-0.109643 -1.117179,-0.153151 -0.379495,-0.04102 -0.759513,-0.07597 -1.139502,-0.110978 -0.370531,-0.03178 -0.741392,-0.05864 -1.112219,-0.08584 -0.359952,-0.02804 -0.720256,-0.05006 -1.080785,-0.06685 -0.36602,-0.01779 -0.732404,-0.02121 -1.098717,-0.02395 -0.356886,-0.0026 -0.713759,-0.0046 -1.070647,-0.0021 -0.349785,0.0021 -0.699474,0.01196 -1.049049,0.02484 -0.341892,0.01164 -0.683591,0.02818 -1.025232,0.04653 -0.340272,0.01878 -0.679714,0.05199 -1.018495,0.09105 -0.340325,0.03904 -0.679278,0.09061 -1.018217,0.141764 -0.33239,0.05314 -0.664781,0.106374 -0.996204,0.166405 -0.331348,0.05938 -0.661061,0.128895 -0.9907,0.198599 -0.322075,0.06909 -0.643059,0.143945 -0.963898,0.219567 -0.317172,0.07192 -0.63229,0.154091 -0.944958,0.246649 -0.321414,0.09673 -0.63923,0.206588 -0.955901,0.320364 -0.310688,0.111368 -0.6204919,0.225652 -0.9288059,0.344697 -0.310812,0.121899 -0.61878,0.252297 -0.92633,0.383708 -0.304642,0.129415 -0.608561,0.260855 -0.913447,0.389577 -0.289458,0.123154 -0.581184,0.239515 -0.8737787,0.353331 -0.275342,0.106934 -0.551574,0.211073 -0.827675,0.31561 -0.256135,0.09694 -0.512284,0.193845 -0.768431,0.29075 -0.241834,0.09145 -0.482507,0.186563 -0.722907,0.282438 -0.236627,0.09571 -0.472252,0.194353 -0.708524,0.291105 -0.2238,0.09353 -0.446711,0.189595 -0.669742,0.285305 -0.20634,0.08857 -0.412665,0.177196 -0.618992,0.265809 -0.195021,0.08312 -0.390343,0.16532 -0.58395,0.252355 -0.192391,0.08566 -0.383863,0.173719 -0.575301,0.261899 -0.124626,0.05863 -0.248442,0.119278 -0.37308,0.177875 0,0 16.3668486,-10.364753 16.3668486,-10.364753 v 0 c 0.124637,-0.05861 0.248454,-0.119246 0.373079,-0.177877 0.191439,-0.08818 0.38291,-0.176235 0.575302,-0.2619 0.193606,-0.08704 0.388929,-0.169235 0.583951,-0.252355 0.206325,-0.08862 0.412649,-0.177233 0.61899,-0.265809 0.223033,-0.0957 0.445942,-0.191776 0.669742,-0.285306 0.236273,-0.09674 0.471898,-0.195392 0.708525,-0.291101 0.240401,-0.09588 0.481074,-0.190989 0.722906,-0.282438 0.256148,-0.09691 0.512296,-0.193805 0.768432,-0.29075 0.2761,-0.104543 0.552333,-0.208684 0.827674,-0.315613 0.292595,-0.113816 0.584322,-0.230174 0.873779,-0.353331 0.304887,-0.128721 0.608806,-0.260159 0.913447,-0.389577 0.307549,-0.131409 0.615519,-0.26181 0.92633,-0.383708 0.308314,-0.119045 0.618117,-0.233326 0.928807,-0.344698 0.316672,-0.113776 0.634487,-0.223627 0.9559,-0.320361 0.312669,-0.09257 0.627787,-0.174728 0.944957,-0.246652 0.320839,-0.07562 0.641826,-0.150475 0.963901,-0.219566 0.329639,-0.06971 0.659352,-0.139213 0.9907,-0.198598 0.331422,-0.06003 0.663813,-0.113262 0.996204,-0.166406 0.338939,-0.05116 0.677889,-0.102722 1.018214,-0.141761 0.338781,-0.03906 0.678225,-0.07228 1.018498,-0.09105 0.341641,-0.01834 0.683337,-0.03488 1.025231,-0.04653 0.349573,-0.01289 0.699262,-0.02287 1.049047,-0.02484 0.356888,-0.0026 0.713764,-5.8e-4 1.07065,0.0021 0.366313,0.0026 0.732697,0.0061 1.098716,0.02394 0.360527,0.0168 0.720831,0.03883 1.080786,0.06685 0.370827,0.02722 0.741688,0.05408 1.112218,0.08584 0.37999,0.03501 0.760005,0.06995 1.139503,0.110978 0.37321,0.0435 0.746368,0.08887 1.117179,0.153153 0.358225,0.06159 0.715206,0.131412 1.07025,0.212358 0.348816,0.08146 0.697585,0.163677 1.043697,0.25818 0.340074,0.09266 0.679571,0.188029 1.016656,0.293142 0.332901,0.104685 0.664062,0.215961 0.993669,0.332523 0.32167,0.115226 0.642361,0.234062 0.957501,0.369554 0.300812,0.128016 0.601215,0.257323 0.897945,0.39644 0.288719,0.135213 0.576331,0.273323 0.861976,0.4162 0.265824,0.134448 0.531084,0.270392 0.791292,0.417609 0.241855,0.136124 0.483467,0.272817 0.723079,0.413648 0.228164,0.133182 0.455184,0.268753 0.680376,0.407893 0.204396,0.127998 0.407911,0.25777 0.607206,0.395183 0.184817,0.126039 0.367366,0.255994 0.550079,0.385658 0.170334,0.122409 0.3409,0.244528 0.507376,0.37322 0.148812,0.113685 0.2966,0.228966 0.442174,0.347606 0.121931,0.09891 0.2443,0.197176 0.365284,0.297491 0.105413,0.08886 0.210254,0.178542 0.312997,0.271095 0.08774,0.07828 0.176315,0.15544 0.263231,0.234832 0.06829,0.06127 0.137009,0.122187 0.201589,0.188185 0.05404,0.05466 0.107772,0.109749 0.16021,0.166251 0.03916,0.043 0.07905,0.0855 0.112901,0.133801 0,0 -16.36685,10.364757 -16.36685,10.364757 z"
     inkscape:connector-curvature="0" />
</svg>
