<?xml version="1.0" encoding="UTF-8" standalone="no"?>
<!-- Created with Inkscape (http://www.inkscape.org/) -->

<svg
   xmlns:dc="http://purl.org/dc/elements/1.1/"
   xmlns:cc="http://creativecommons.org/ns#"
   xmlns:rdf="http://www.w3.org/1999/02/22-rdf-syntax-ns#"
   xmlns:svg="http://www.w3.org/2000/svg"
   xmlns="http://www.w3.org/2000/svg"
   xmlns:sodipodi="http://sodipodi.sourceforge.net/DTD/sodipodi-0.dtd"
   xmlns:inkscape="http://www.inkscape.org/namespaces/inkscape"
   width="102mm"
   height="102mm"
   viewBox="0 0 102 102.00001"
   version="1.1"
   id="svg8"
   inkscape:version="0.92.3 (2405546, 2018-03-11)"
   sodipodi:docname="R25.svg"
   inkscape:export-filename="/home/rflec028/ryanfleck.github.io/assets/r.png"
   inkscape:export-xdpi="502.97031"
   inkscape:export-ydpi="502.97031">
  <defs
     id="defs2" />
  <sodipodi:namedview
     id="base"
     pagecolor="#ffffff"
     bordercolor="#666666"
     borderopacity="1.0"
     inkscape:pageopacity="0.0"
     inkscape:pageshadow="2"
     inkscape:zoom="1.7664828"
     inkscape:cx="199.54907"
     inkscape:cy="191.05761"
     inkscape:document-units="mm"
     inkscape:current-layer="layer4"
     showgrid="false"
     fit-margin-top="0"
     fit-margin-left="2"
     fit-margin-right="2"
     fit-margin-bottom="0"
     inkscape:window-width="1600"
     inkscape:window-height="845"
     inkscape:window-x="0"
     inkscape:window-y="27"
     inkscape:window-maximized="1"
     inkscape:object-nodes="false" />
  <metadata
     id="metadata5">
    <rdf:RDF>
      <cc:Work
         rdf:about="">
        <dc:format>image/svg+xml</dc:format>
        <dc:type
           rdf:resource="http://purl.org/dc/dcmitype/StillImage" />
        <dc:title></dc:title>
      </cc:Work>
    </rdf:RDF>
  </metadata>
  <g
     inkscape:groupmode="layer"
     id="layer5"
     inkscape:label="red"
     transform="translate(-0.8348217,0.11014558)">
    <path
       style="fill:#000000;fill-opacity:1;stroke-width:0.26967004"
       id="path42"
       d="m 26.505519,88.419852 c 0.0288,-0.0472 0.04777,-0.09883 0.06547,-0.150524 0.02018,-0.06167 0.03756,-0.124107 0.05379,-0.186803 0.01869,-0.07431 0.03459,-0.149208 0.04949,-0.224276 0.01687,-0.08481 0.03136,-0.170021 0.04565,-0.255257 0.01508,-0.0911 0.02897,-0.182379 0.0421,-0.273757 0.01398,-0.09502 0.02189,-0.190754 0.03072,-0.28631 0.0085,-0.09375 0.01659,-0.187533 0.02449,-0.28133 0.0087,-0.09724 0.0159,-0.194511 0.01999,-0.292013 0.0037,-0.100971 0.0066,-0.20197 0.0095,-0.302965 0.0027,-0.0975 0.0056,-0.19502 0.0082,-0.29253 0.0025,-0.09093 0.0052,-0.181861 0.0076,-0.272795 0.0025,-0.09269 0.0048,-0.185387 0.007,-0.278085 0.0022,-0.09582 0.0044,-0.191649 0.0065,-0.287479 0.0022,-0.09786 0.004,-0.195733 0.006,-0.293602 0.0025,-0.102461 -5.52e-4,-0.20496 -0.0027,-0.307405 -0.0025,-0.100586 -0.0031,-0.201226 -0.0073,-0.301769 -0.0056,-0.100691 -0.0101,-0.201449 -0.01781,-0.302015 -0.0087,-0.102776 -0.0182,-0.205489 -0.02742,-0.308225 -0.0086,-0.101141 -0.02203,-0.201831 -0.03439,-0.302595 -0.01212,-0.103311 -0.02826,-0.206143 -0.04624,-0.308658 -0.01858,-0.102474 -0.03724,-0.204936 -0.05552,-0.307462 -0.01735,-0.101141 -0.03898,-0.20154 -0.06243,-0.301536 -0.02294,-0.102602 -0.0498,-0.204338 -0.0766,-0.30607 -0.02513,-0.09965 -0.05459,-0.198217 -0.0831,-0.297019 -0.02892,-0.100182 -0.05938,-0.199997 -0.09162,-0.299254 -0.0324,-0.101576 -0.06714,-0.202418 -0.102777,-0.302992 -0.03522,-0.102144 -0.07431,-0.203011 -0.113962,-0.303648 -0.0408,-0.102505 -0.08354,-0.204346 -0.127323,-0.305729 -0.04448,-0.100553 -0.08849,-0.201283 -0.131841,-0.302289 -0.04132,-0.0974 -0.08699,-0.193035 -0.130774,-0.289429 -0.04526,-0.0949 -0.0906,-0.189745 -0.137063,-0.284101 -0.04933,-0.09587 -0.09904,-0.191567 -0.149982,-0.286674 -0.05014,-0.09731 -0.103689,-0.192969 -0.155972,-0.289241 -0.0537,-0.09439 -0.107053,-0.188943 -0.160136,-0.283643 -0.04928,-0.09061 -0.101798,-0.179506 -0.154098,-0.268541 -0.05123,-0.0875 -0.104695,-0.173836 -0.158745,-0.25978 -0.05305,-0.0833 -0.106828,-0.166168 -0.160506,-0.249096 -0.05041,-0.07945 -0.103385,-0.15737 -0.157835,-0.234359 -0.05447,-0.07706 -0.1105,-0.153092 -0.166449,-0.229175 -0.0552,-0.07586 -0.113503,-0.149596 -0.172273,-0.222961 -0.06106,-0.0735 -0.12346,-0.146017 -0.187575,-0.217113 -0.06617,-0.07342 -0.135461,-0.144221 -0.206293,-0.21355 -0.07171,-0.07013 -0.144308,-0.139426 -0.217151,-0.208492 -0.07296,-0.07121 -0.149603,-0.138752 -0.225963,-0.206579 -0.07808,-0.06924 -0.156782,-0.137868 -0.235829,-0.206111 -0.08053,-0.06938 -0.162435,-0.137272 -0.24443,-0.205062 -0.0862,-0.0709 -0.172612,-0.141577 -0.260757,-0.210274 -0.09048,-0.07242 -0.183605,-0.141731 -0.27553,-0.212453 -0.09417,-0.07144 -0.189715,-0.141205 -0.285526,-0.210624 -0.09789,-0.06909 -0.196459,-0.137298 -0.294655,-0.205992 -0.09722,-0.06703 -0.195333,-0.132855 -0.294417,-0.19735 -0.0997,-0.06332 -0.200597,-0.124892 -0.301537,-0.186384 -0.104346,-0.06386 -0.212669,-0.121385 -0.320279,-0.179992 -0.112326,-0.0617 -0.227345,-0.118723 -0.341762,-0.176762 -0.114416,-0.0587 -0.228962,-0.117132 -0.344651,-0.173514 -0.115015,-0.05631 -0.232024,-0.108747 -0.349102,-0.160992 -0.117538,-0.05388 -0.235324,-0.107235 -0.35434,-0.158083 -0.122021,-0.05201 -0.245693,-0.100361 -0.368738,-0.150095 -0.126744,-0.05093 -0.254589,-0.09933 -0.382704,-0.147019 -0.127027,-0.04654 -0.25323,-0.09507 -0.380108,-0.141984 -0.126285,-0.04687 -0.253423,-0.0916 -0.380528,-0.1364 -0.121331,-0.04309 -0.243101,-0.08503 -0.365261,-0.125927 -0.12209,-0.04107 -0.245092,-0.07956 -0.368731,-0.116147 -0.129149,-0.03857 -0.259624,-0.07285 -0.390078,-0.107124 -0.130179,-0.0337 -0.260587,-0.06659 -0.391178,-0.09881 -0.129925,-0.03191 -0.260376,-0.0618 -0.390964,-0.09113 -0.131424,-0.02735 -0.26374,-0.05061 -0.395897,-0.07447 -0.127517,-0.02215 -0.254743,-0.04594 -0.382667,-0.06586 -0.122924,-0.01789 -0.245886,-0.03573 -0.369312,-0.0502 -0.120041,-0.01472 -0.24082,-0.0222 -0.36152,-0.02991 -0.115788,-0.0076 -0.231557,-0.01483 -0.347548,-0.01876 -0.124311,-0.0056 -0.248607,-0.0011 -0.372728,0.0057 -0.136704,0.0077 -0.273006,0.02073 -0.409342,0.03278 -0.131952,0.01035 -0.263358,0.02578 -0.394817,0.0406 -0.133159,0.01343 -0.265667,0.03147 -0.397919,0.05129 -0.144402,0.0235 -0.288656,0.04778 -0.432656,0.07343 -0.149613,0.02712 -0.299463,0.05301 -0.449344,0.07874 -0.146985,0.02431 -0.293659,0.05011 -0.440091,0.07726 -0.144416,0.02645 -0.288882,0.05258 -0.432927,0.08081 -0.146327,0.02754 -0.291778,0.05885 -0.436887,0.09166 -0.150578,0.03268 -0.300181,0.0692 -0.4499852,0.104923 -0.1461896,0.03362 -0.2916467,0.06991 -0.4369223,0.106933 -0.1418759,0.03441 -0.2825384,0.07304 -0.4231641,0.111776 -0.1351354,0.03543 -0.2689887,0.07501 -0.4028019,0.11468 -0.1256153,0.03714 -0.2511541,0.07448 -0.3760496,0.113766 -0.1264143,0.04012 -0.2506195,0.08578 -0.3726902,0.136618 -0.1255124,0.05177 -0.249436,0.106825 -0.3727863,0.163095 -0.1169747,0.05385 -0.2343686,0.106856 -0.3507942,0.161782 -0.1171708,0.0562 -0.2334177,0.114107 -0.3498188,0.171739 -0.1136331,0.05594 -0.2272708,0.111821 -0.3395094,0.170273 -0.1060245,0.05642 -0.2129893,0.111187 -0.3199957,0.165884 -0.1006286,0.05115 -0.2008537,0.103029 -0.3018699,0.15348 -0.1060477,0.05331 -0.2156592,0.09939 -0.3296342,0.134754 0,0 13.4023248,-7.382602 13.4023248,-7.382602 v 0 c 0.113974,-0.03537 0.223586,-0.08144 0.329634,-0.134753 0.101015,-0.05045 0.201241,-0.102331 0.301869,-0.15348 0.107008,-0.0547 0.213973,-0.109467 0.319996,-0.165883 0.112239,-0.05846 0.225876,-0.114335 0.33951,-0.170275 0.116401,-0.05763 0.232648,-0.115538 0.349819,-0.171738 0.116425,-0.05493 0.233819,-0.107931 0.350793,-0.161785 0.123351,-0.05627 0.247275,-0.111319 0.372786,-0.163092 0.122072,-0.05084 0.246277,-0.09649 0.372692,-0.136619 0.124894,-0.03929 0.250434,-0.07663 0.376049,-0.113765 0.133813,-0.03967 0.267667,-0.07926 0.402802,-0.114682 0.140626,-0.03873 0.281287,-0.07737 0.423164,-0.111775 0.145275,-0.03702 0.290731,-0.07331 0.436922,-0.106932 0.149805,-0.03572 0.299409,-0.07224 0.449985,-0.104923 0.145109,-0.03282 0.290559,-0.06413 0.436887,-0.09166 0.144045,-0.02823 0.28851,-0.05436 0.432926,-0.08081 0.146433,-0.02716 0.293108,-0.05295 0.440093,-0.07726 0.14988,-0.02573 0.299731,-0.05162 0.449344,-0.07874 0.143999,-0.02566 0.288253,-0.04993 0.432655,-0.07343 0.132252,-0.01983 0.264761,-0.03786 0.397919,-0.05129 0.13146,-0.0148 0.262865,-0.03023 0.394819,-0.0406 0.136335,-0.01207 0.272636,-0.02513 0.409341,-0.03277 0.124121,-0.0069 0.248416,-0.01125 0.372727,-0.0057 0.11599,0.0039 0.23176,0.0112 0.347548,0.01876 0.1207,0.0077 0.241478,0.0152 0.361521,0.02991 0.123425,0.01447 0.246389,0.0323 0.369312,0.0502 0.127925,0.01991 0.255148,0.04371 0.382666,0.06586 0.132156,0.02386 0.264473,0.04712 0.395898,0.07447 0.130587,0.02933 0.261038,0.05921 0.390962,0.09113 0.130592,0.03222 0.261,0.0651 0.39118,0.0988 0.130451,0.03427 0.260928,0.06855 0.390077,0.107125 0.12364,0.03659 0.246643,0.07507 0.368732,0.116149 0.122159,0.04089 0.243929,0.08284 0.365261,0.125928 0.127106,0.0448 0.254241,0.08952 0.380529,0.1364 0.126876,0.04691 0.253082,0.09544 0.380106,0.141984 0.128117,0.0477 0.255961,0.09608 0.382705,0.147018 0.123045,0.04974 0.246715,0.09808 0.368737,0.150092 0.119017,0.05085 0.236802,0.104207 0.35434,0.158084 0.117078,0.05225 0.234087,0.104691 0.349103,0.160994 0.11569,0.05638 0.230236,0.11482 0.34465,0.173515 0.11442,0.05804 0.229437,0.115061 0.341764,0.176761 0.107608,0.05861 0.215934,0.116124 0.320277,0.179992 0.100943,0.0615 0.201844,0.123064 0.301536,0.186382 0.09909,0.06449 0.1972,0.130318 0.29442,0.197349 0.09819,0.06869 0.196763,0.136906 0.294654,0.205996 0.09581,0.06942 0.191357,0.139184 0.285526,0.21062 0.09192,0.07072 0.18505,0.140033 0.27553,0.212457 0.08814,0.06869 0.174559,0.139371 0.260756,0.210272 0.082,0.06779 0.16391,0.135679 0.244431,0.205063 0.07904,0.06825 0.157743,0.136869 0.235829,0.206108 0.07636,0.06783 0.153008,0.135367 0.225962,0.206582 0.07285,0.06906 0.14543,0.138366 0.217152,0.208493 0.07083,0.06933 0.140123,0.140124 0.206292,0.213549 0.06411,0.07109 0.126519,0.14361 0.187576,0.217114 0.05877,0.07336 0.117069,0.147094 0.172275,0.22296 0.05595,0.07608 0.111978,0.152115 0.166446,0.229175 0.05445,0.07699 0.107421,0.154899 0.157837,0.234358 0.05368,0.08293 0.107458,0.165797 0.160506,0.249097 0.05405,0.08595 0.107508,0.172279 0.158743,0.25978 0.0523,0.08903 0.104822,0.177927 0.154097,0.268538 0.05308,0.09471 0.106442,0.189258 0.160136,0.283646 0.05229,0.09627 0.105839,0.191918 0.155973,0.289241 0.05095,0.09511 0.100655,0.190797 0.149982,0.286674 0.04647,0.09436 0.09181,0.189209 0.137066,0.284101 0.04378,0.09639 0.08945,0.192034 0.130772,0.28943 0.04334,0.101006 0.08736,0.201735 0.13184,0.302288 0.04378,0.101383 0.08651,0.203224 0.127323,0.305729 0.03964,0.100634 0.07875,0.201504 0.113964,0.303648 0.03564,0.100571 0.07038,0.201417 0.102778,0.302992 0.03224,0.09926 0.06269,0.19907 0.09161,0.299252 0.02851,0.0988 0.05797,0.197366 0.0831,0.29702 0.02681,0.101734 0.05365,0.203466 0.0766,0.306071 0.02344,0.09999 0.04509,0.200392 0.06244,0.301536 0.01828,0.102523 0.03693,0.204989 0.05552,0.307462 0.018,0.102515 0.03411,0.205344 0.04625,0.308655 0.01237,0.100767 0.02584,0.201454 0.03439,0.302597 0.0092,0.102737 0.01872,0.205449 0.02742,0.308227 0.0077,0.100563 0.01228,0.201322 0.0178,0.302011 0.0041,0.100543 0.0047,0.201183 0.0073,0.301771 0.002,0.102446 0.0051,0.204944 0.0027,0.307406 -0.002,0.09787 -0.0038,0.195735 -0.006,0.293601 -0.002,0.09583 -0.0041,0.191655 -0.0065,0.287481 -0.0022,0.0927 -0.0045,0.185394 -0.007,0.278084 -0.0025,0.09093 -0.0051,0.181862 -0.0075,0.272792 -0.0027,0.09752 -0.0055,0.195022 -0.0082,0.292533 -0.0029,0.100995 -0.0058,0.201993 -0.0095,0.302962 -0.004,0.09751 -0.01138,0.194782 -0.01999,0.292014 -0.0079,0.0938 -0.01604,0.187578 -0.02449,0.281332 -0.0089,0.09555 -0.01676,0.191281 -0.03072,0.286308 -0.01312,0.09138 -0.02702,0.182654 -0.0421,0.273758 -0.01427,0.08523 -0.02879,0.170446 -0.04565,0.255256 -0.01491,0.07507 -0.03081,0.14997 -0.04949,0.224275 -0.01623,0.0627 -0.03361,0.125143 -0.05378,0.186803 -0.0177,0.0517 -0.03666,0.103322 -0.06546,0.150527 0,0 -13.402327,7.382601 -13.402327,7.382601 z"
       inkscape:connector-curvature="0" />
    <path
       style="fill:#000000;fill-opacity:1;stroke-width:0.26967004"
       id="path42-3"
       d="m 27.472192,80.40926 c 0.0288,-0.0472 0.04777,-0.09883 0.06547,-0.150524 0.02018,-0.06166 0.03756,-0.124107 0.05379,-0.186803 0.01869,-0.07431 0.03459,-0.149208 0.04949,-0.224275 0.01687,-0.08481 0.03136,-0.170022 0.04565,-0.255258 0.01508,-0.0911 0.02897,-0.182378 0.0421,-0.273756 0.01398,-0.09503 0.02189,-0.190755 0.03072,-0.286311 0.0085,-0.09375 0.01659,-0.187533 0.02449,-0.28133 0.0087,-0.09724 0.0159,-0.19451 0.01999,-0.292013 0.0037,-0.100971 0.0066,-0.20197 0.0095,-0.302965 0.0027,-0.0975 0.0056,-0.195019 0.0082,-0.29253 0.0025,-0.09093 0.0052,-0.181861 0.0076,-0.272795 0.0025,-0.09269 0.0048,-0.185386 0.007,-0.278084 0.0022,-0.09582 0.0044,-0.19165 0.0065,-0.28748 0.0022,-0.09786 0.004,-0.195733 0.006,-0.293602 0.0025,-0.10246 -5.52e-4,-0.20496 -0.0027,-0.307404 -0.0025,-0.100587 -0.0031,-0.201227 -0.0073,-0.30177 -0.0056,-0.10069 -0.0101,-0.201448 -0.01781,-0.302014 -0.0087,-0.102777 -0.0182,-0.20549 -0.02742,-0.308226 -0.0086,-0.101141 -0.02202,-0.201831 -0.03439,-0.302595 -0.01212,-0.103311 -0.02826,-0.206143 -0.04625,-0.308658 -0.01858,-0.102473 -0.03724,-0.204936 -0.05552,-0.307462 -0.01735,-0.101141 -0.03898,-0.20154 -0.06243,-0.301536 -0.02294,-0.102602 -0.0498,-0.204337 -0.0766,-0.30607 -0.02513,-0.09965 -0.05459,-0.198217 -0.0831,-0.297019 -0.02892,-0.100182 -0.05938,-0.199997 -0.09162,-0.299254 -0.0324,-0.101575 -0.06714,-0.202418 -0.102778,-0.302992 -0.03522,-0.102144 -0.07431,-0.203011 -0.113963,-0.303648 -0.0408,-0.102505 -0.08354,-0.204346 -0.127323,-0.305729 -0.04448,-0.100553 -0.08849,-0.201282 -0.131841,-0.302288 -0.04132,-0.0974 -0.08699,-0.193036 -0.130773,-0.28943 -0.04526,-0.0949 -0.0906,-0.189745 -0.137064,-0.284101 -0.04933,-0.09587 -0.09904,-0.191567 -0.149981,-0.286674 -0.05014,-0.09731 -0.103689,-0.192969 -0.155972,-0.289241 -0.0537,-0.09439 -0.107053,-0.188943 -0.160136,-0.283643 -0.04928,-0.09061 -0.101799,-0.179506 -0.154099,-0.268541 -0.05123,-0.0875 -0.104694,-0.173835 -0.158744,-0.25978 -0.05305,-0.0833 -0.106828,-0.166168 -0.160506,-0.249096 -0.05041,-0.07946 -0.103386,-0.15737 -0.157835,-0.234359 -0.05447,-0.07706 -0.110501,-0.153092 -0.166449,-0.229175 -0.0552,-0.07586 -0.113504,-0.149596 -0.172272,-0.22296 -0.06106,-0.0735 -0.123462,-0.146017 -0.187576,-0.217114 -0.06617,-0.07342 -0.13546,-0.144221 -0.206293,-0.213549 -0.07171,-0.07013 -0.144308,-0.139427 -0.217151,-0.208493 -0.07296,-0.07121 -0.149604,-0.138752 -0.225963,-0.206579 -0.07808,-0.06924 -0.156783,-0.137868 -0.235829,-0.206111 -0.08053,-0.06938 -0.162435,-0.137272 -0.244431,-0.205062 -0.0862,-0.0709 -0.172612,-0.141577 -0.260756,-0.210273 -0.09048,-0.07242 -0.183605,-0.141732 -0.275531,-0.212454 -0.09417,-0.07144 -0.189715,-0.141204 -0.285526,-0.210623 -0.09789,-0.06909 -0.196458,-0.137298 -0.294655,-0.205993 -0.09722,-0.06703 -0.195333,-0.132854 -0.294416,-0.197349 -0.0997,-0.06332 -0.200598,-0.124893 -0.301538,-0.186385 -0.104346,-0.06386 -0.212668,-0.121385 -0.320278,-0.179992 -0.112326,-0.0617 -0.227346,-0.118722 -0.341763,-0.176761 -0.114415,-0.0587 -0.228961,-0.117132 -0.344651,-0.173515 -0.115014,-0.05631 -0.232023,-0.108747 -0.349101,-0.160992 -0.117539,-0.05388 -0.235325,-0.107235 -0.35434,-0.158083 -0.122021,-0.05201 -0.245695,-0.100361 -0.368738,-0.150095 -0.126746,-0.05093 -0.25459,-0.09933 -0.382704,-0.147018 -0.127027,-0.04654 -0.25323,-0.09508 -0.380108,-0.141984 -0.126286,-0.04687 -0.253423,-0.0916 -0.380528,-0.136401 -0.121332,-0.04309 -0.243101,-0.08503 -0.365261,-0.125927 -0.122091,-0.04107 -0.245093,-0.07957 -0.368732,-0.116146 -0.129149,-0.03857 -0.259623,-0.07286 -0.390077,-0.107125 -0.130179,-0.0337 -0.260587,-0.06659 -0.391178,-0.09881 -0.129926,-0.03191 -0.260376,-0.0618 -0.390965,-0.09113 -0.131424,-0.02735 -0.26374,-0.05061 -0.395898,-0.07447 -0.127516,-0.02215 -0.254742,-0.04593 -0.382667,-0.06586 -0.122924,-0.01789 -0.245886,-0.03573 -0.369311,-0.0502 -0.120042,-0.01472 -0.240821,-0.0222 -0.36152,-0.02991 -0.115789,-0.0076 -0.231558,-0.01483 -0.347548,-0.01876 -0.124312,-0.0056 -0.248607,-0.0011 -0.372729,0.0057 -0.136704,0.0077 -0.273006,0.02073 -0.409341,0.03278 -0.131953,0.01035 -0.263358,0.02578 -0.394818,0.0406 -0.133158,0.01343 -0.265666,0.03147 -0.397919,0.05129 -0.144401,0.02349 -0.288656,0.04778 -0.432655,0.07343 -0.149613,0.02712 -0.299463,0.05301 -0.449344,0.07874 -0.146986,0.02431 -0.293659,0.05011 -0.440091,0.07726 -0.144417,0.02645 -0.288882,0.05258 -0.432928,0.08081 -0.146327,0.02754 -0.291778,0.05885 -0.436887,0.09166 -0.150577,0.03268 -0.300181,0.0692 -0.449985,0.104923 -0.146189,0.03362 -0.291646,0.06991 -0.436922,0.106933 -0.141876,0.03441 -0.282538,0.07304 -0.423164,0.111776 -0.1351311,0.03543 -0.2689839,0.07501 -0.4027982,0.114679 -0.1256188,0.03714 -0.2511573,0.07448 -0.376053,0.113768 -0.126414,0.04012 -0.2506198,0.08578 -0.3726898,0.136618 -0.1255125,0.05177 -0.2494367,0.106825 -0.3727871,0.163095 -0.1169739,0.05385 -0.2343681,0.106856 -0.3507941,0.161782 -0.11717,0.0562 -0.2334175,0.114107 -0.3498184,0.171739 -0.1136327,0.05594 -0.2272706,0.111822 -0.3395092,0.170274 -0.1060247,0.05642 -0.2129897,0.111186 -0.3199964,0.165883 -0.1006317,0.05115 -0.2008533,0.103029 -0.3018694,0.15348 -0.1060478,0.05331 -0.215659,0.09939 -0.3296338,0.134754 0,0 13.4023244,-7.382602 13.4023244,-7.382602 v 0 c 0.113975,-0.03537 0.223587,-0.08144 0.329634,-0.134753 0.101016,-0.05045 0.201241,-0.102331 0.30187,-0.15348 0.107007,-0.0547 0.213972,-0.109467 0.319995,-0.165883 0.112239,-0.05846 0.225877,-0.114335 0.33951,-0.170275 0.116401,-0.05763 0.232648,-0.115538 0.349819,-0.171738 0.116426,-0.05493 0.233819,-0.107931 0.350794,-0.161785 0.123351,-0.05627 0.247274,-0.111319 0.372786,-0.163091 0.122072,-0.05084 0.246276,-0.09649 0.372691,-0.136619 0.124895,-0.0393 0.250434,-0.07663 0.376049,-0.113765 0.133813,-0.03967 0.267667,-0.07926 0.402802,-0.114682 0.140627,-0.03873 0.281287,-0.07737 0.423165,-0.111775 0.145275,-0.03702 0.290731,-0.07331 0.436922,-0.106933 0.149805,-0.03572 0.299408,-0.07224 0.449985,-0.104923 0.145108,-0.03282 0.290558,-0.06413 0.436887,-0.09166 0.144045,-0.02823 0.288511,-0.05436 0.432926,-0.08081 0.146434,-0.02716 0.293107,-0.05295 0.440093,-0.07727 0.14988,-0.02573 0.299731,-0.05162 0.449344,-0.07874 0.143999,-0.02566 0.288253,-0.04993 0.432655,-0.07343 0.132252,-0.01983 0.264761,-0.03786 0.397918,-0.05129 0.13146,-0.0148 0.262865,-0.03023 0.39482,-0.0406 0.136335,-0.01207 0.272636,-0.02513 0.40934,-0.03277 0.124122,-0.0069 0.248416,-0.01125 0.372728,-0.0057 0.115989,0.0039 0.231759,0.0112 0.347548,0.01876 0.1207,0.0077 0.241478,0.0152 0.361521,0.02991 0.123425,0.01447 0.246389,0.0323 0.369311,0.0502 0.127926,0.01991 0.255149,0.0437 0.382666,0.06586 0.132157,0.02386 0.264473,0.04712 0.395899,0.07447 0.130587,0.02933 0.261038,0.05922 0.390962,0.09113 0.130592,0.03222 0.260999,0.0651 0.39118,0.0988 0.130451,0.03427 0.260927,0.06855 0.390076,0.107125 0.12364,0.03659 0.246644,0.07508 0.368733,0.116149 0.122159,0.04089 0.243928,0.08284 0.365261,0.125928 0.127105,0.0448 0.25424,0.08952 0.380528,0.1364 0.126877,0.04691 0.253082,0.09544 0.380107,0.141985 0.128116,0.0477 0.255961,0.09608 0.382704,0.147018 0.123046,0.04974 0.246716,0.09808 0.368738,0.150092 0.119016,0.05085 0.236801,0.104207 0.354339,0.158084 0.117078,0.05225 0.234087,0.104691 0.349102,0.160995 0.11569,0.05638 0.230237,0.114819 0.34465,0.173514 0.11442,0.05804 0.229438,0.115061 0.341765,0.176762 0.107608,0.05861 0.215933,0.116123 0.320277,0.179991 0.100942,0.0615 0.201843,0.123064 0.301536,0.186382 0.09909,0.06449 0.197199,0.130318 0.29442,0.19735 0.09819,0.06869 0.196762,0.136905 0.294653,0.205994 0.09581,0.06942 0.191358,0.139185 0.285526,0.210621 0.09192,0.07072 0.18505,0.140033 0.27553,0.212457 0.08814,0.06869 0.174559,0.139371 0.260756,0.210272 0.082,0.06779 0.163911,0.135679 0.244432,0.205062 0.07904,0.06825 0.157743,0.13687 0.235829,0.206108 0.07636,0.06783 0.153008,0.135369 0.225962,0.206584 0.07285,0.06906 0.145429,0.138365 0.217152,0.208492 0.07083,0.06933 0.140122,0.140124 0.206292,0.213549 0.06411,0.07109 0.126519,0.14361 0.187575,0.217114 0.05877,0.07336 0.11707,0.147094 0.172275,0.22296 0.05596,0.07608 0.111978,0.152115 0.166447,0.229174 0.05445,0.07699 0.10742,0.1549 0.157836,0.23436 0.05368,0.08293 0.10746,0.165795 0.160506,0.249096 0.05405,0.08595 0.107508,0.172279 0.158744,0.259781 0.0523,0.08903 0.104822,0.177926 0.154097,0.268537 0.05308,0.09471 0.106441,0.189258 0.160136,0.283646 0.05229,0.09627 0.105838,0.191918 0.155973,0.289242 0.05094,0.09511 0.100654,0.190797 0.149982,0.286674 0.04647,0.09436 0.09181,0.189208 0.137065,0.2841 0.04378,0.09639 0.08945,0.192035 0.130772,0.28943 0.04334,0.101006 0.08736,0.201735 0.131841,0.302288 0.04378,0.101383 0.08651,0.203225 0.127322,0.305729 0.03964,0.100635 0.07875,0.201503 0.113965,0.303648 0.03564,0.100571 0.07038,0.201417 0.102777,0.302992 0.03224,0.09926 0.06269,0.199071 0.09162,0.299252 0.02851,0.0988 0.05797,0.197366 0.0831,0.29702 0.02681,0.101734 0.05365,0.203467 0.0766,0.306071 0.02344,0.09999 0.04509,0.200393 0.06244,0.301536 0.01828,0.102523 0.03693,0.204989 0.05552,0.307462 0.01799,0.102516 0.03411,0.205344 0.04625,0.308655 0.01237,0.100767 0.02585,0.201455 0.03439,0.302597 0.0092,0.102737 0.01872,0.20545 0.02741,0.308227 0.0077,0.100563 0.01229,0.201322 0.0178,0.302011 0.0042,0.100543 0.0047,0.201183 0.0073,0.301771 0.002,0.102446 0.0051,0.204944 0.0027,0.307406 -0.002,0.09787 -0.0038,0.195735 -0.006,0.293601 -0.002,0.09583 -0.0041,0.191656 -0.0065,0.287481 -0.0022,0.0927 -0.0045,0.185394 -0.007,0.278084 -0.0025,0.09093 -0.0051,0.181862 -0.0075,0.272792 -0.0027,0.09752 -0.0055,0.195022 -0.0082,0.292533 -0.0029,0.100995 -0.0058,0.201993 -0.0095,0.302962 -0.004,0.0975 -0.01138,0.194783 -0.02,0.292014 -0.0079,0.0938 -0.01604,0.187578 -0.02449,0.281332 -0.0089,0.09555 -0.01676,0.191281 -0.03071,0.286308 -0.01312,0.09138 -0.02702,0.182654 -0.0421,0.273759 -0.01427,0.08523 -0.02879,0.170446 -0.04565,0.255255 -0.01491,0.07507 -0.03081,0.14997 -0.04949,0.224275 -0.01623,0.0627 -0.03361,0.125143 -0.05378,0.186803 -0.0177,0.0517 -0.03666,0.103322 -0.06546,0.150527 0,0 -13.402325,7.382601 -13.402325,7.382601 z"
       inkscape:connector-curvature="0" />
    <rect
       style="fill:#000000;fill-opacity:1;stroke-width:0.27418661"
       id="rect59"
       width="2.7854512"
       height="76.782295"
       x="54.333794"
       y="10.320004"
       transform="matrix(0.99892367,0.0463842,-0.04842535,0.9988268,0,0)" />
    <rect
       style="fill:#000000;fill-opacity:1;stroke-width:0.26978281"
       id="rect63"
       width="46.813461"
       height="1.7938416"
       x="17.221943"
       y="73.899117"
       transform="matrix(0.87386288,-0.48617247,0.52149108,0.85325674,0,0)" />
  </g>
  <g
     inkscape:groupmode="layer"
     id="layer4"
     inkscape:label="Layer 3"
     style="display:inline"
     transform="translate(-0.7748462,1.1326008)">
    <path
       style="fill:#000000;stroke-width:0.26967004"
       id="path299"
       d="m 48.042199,83.219178 c 5.52e-4,0.02681 0.0055,0.05324 0.0098,0.07964 0,0 -17.078128,9.407402 -17.078128,9.407402 v 0 c -0.0044,-0.0264 -0.0093,-0.05283 -0.0098,-0.07964 0,0 17.078131,-9.407402 17.078131,-9.407402 z"
       inkscape:connector-curvature="0" />
    <path
       style="fill:#000000;stroke-width:0.26967004"
       id="path345"
       d="m 74.891515,43.293291 c 0.06249,-0.0085 0.125565,-0.0124 0.188506,-0.01657 0.07509,-0.0048 0.150247,-0.0091 0.225404,-0.01298 0.08909,-0.0047 0.178228,-0.0085 0.267378,-0.01194 0.111437,-0.0021 0.222858,-2.54e-4 0.334197,0.0043 0.126053,0.0058 0.252101,0.01165 0.378165,0.01722 0.136509,0.0068 0.272446,0.02002 0.408307,0.034 0.142146,0.01575 0.283331,0.03778 0.424438,0.06024 0.147931,0.02341 0.295402,0.04975 0.442308,0.07844 0.148394,0.02887 0.295908,0.06145 0.443258,0.09477 0.15042,0.0358 0.299579,0.07632 0.448086,0.118726 0.152513,0.04372 0.304331,0.0895 0.455753,0.136527 0.156574,0.04854 0.310479,0.104256 0.463282,0.162601 0.164793,0.06208 0.32774,0.128482 0.48962,0.197155 0.167432,0.07109 0.332527,0.147029 0.497872,0.222392 0.17211,0.07945 0.34238,0.162404 0.512767,0.245135 0.179064,0.08735 0.354044,0.181888 0.528401,0.277415 0.181361,0.09999 0.359969,0.204317 0.535737,0.312999 0.185587,0.113038 0.366151,0.233318 0.545565,0.355014 0.18339,0.12674 0.367105,0.253046 0.549358,0.381272 0.185593,0.131538 0.369262,0.265515 0.552641,0.399845 0.187636,0.137403 0.372056,0.278721 0.555667,0.420969 0.185406,0.144377 0.369751,0.290011 0.552821,0.437075 0.182526,0.145758 0.364384,0.292287 0.543395,0.441967 0.179431,0.151913 0.358434,0.30431 0.535237,0.459009 0.179081,0.157103 0.355425,0.317013 0.530875,0.477796 0.173216,0.158785 0.345894,0.318086 0.51651,0.479415 0.172792,0.161642 0.340882,0.327726 0.508027,0.494657 0.167565,0.166861 0.332543,0.336024 0.496569,0.506051 0.161068,0.167783 0.319696,0.337651 0.477217,0.508467 0.163949,0.176096 0.32218,0.356854 0.478553,0.539074 0.159768,0.185995 0.31896,0.372419 0.474918,0.561337 0.15348,0.185294 0.305898,0.37133 0.454737,0.560048 0.148698,0.190825 0.293602,0.384286 0.434755,0.580247 0.14176,0.198135 0.274847,0.401672 0.407267,0.605539 0.134096,0.204515 0.262905,0.412116 0.388456,0.621491 0.125512,0.209814 0.243575,0.423498 0.359536,0.638214 0.117491,0.214675 0.223513,0.434644 0.326132,0.656058 0.103521,0.224331 0.198778,0.451981 0.291307,0.680602 0.09841,0.245125 0.190922,0.492263 0.278697,0.741018 0.09591,0.275471 0.17937,0.554664 0.265182,0.833094 0.08863,0.287111 0.172691,0.575473 0.256091,0.863996 0.08219,0.28512 0.160342,0.57128 0.236837,0.857833 0.07849,0.287573 0.145342,0.577802 0.210558,0.86832 0.06785,0.300729 0.128918,0.602767 0.186944,0.905343 0.06078,0.322848 0.12242,0.645545 0.182597,0.968498 0.05913,0.327329 0.121661,0.654083 0.181196,0.981342 0.06238,0.342833 0.119061,0.686566 0.174464,1.030476 0.05469,0.346541 0.114137,0.692379 0.171416,1.038535 0.05608,0.338007 0.110077,0.676323 0.162998,1.014792 0.05284,0.338364 0.102747,0.677134 0.150424,1.016191 0.04748,0.355711 0.09726,0.711137 0.146627,1.066613 0.04862,0.35129 0.09607,0.702728 0.142502,1.054284 0.04548,0.344743 0.08885,0.689733 0.131595,1.034791 0.04196,0.339713 0.08205,0.679635 0.121374,1.019633 0.03933,0.340091 0.07626,0.680423 0.111947,1.020877 0.03635,0.350505 0.07015,0.701245 0.103251,1.052043 0.03311,0.349475 0.06455,0.699096 0.09523,1.048774 0.03027,0.344998 0.05934,0.690093 0.08782,1.035228 0.02537,0.334409 0.0468,0.669072 0.06822,1.003726 0.02311,0.336421 0.04022,0.67313 0.05493,1.009964 0.01471,0.347779 0.02795,0.695614 0.04114,1.043451 0.01513,0.339871 0.03315,0.679622 0.05041,1.019401 0.01676,0.328849 0.03295,0.657723 0.04897,0.986606 0.01563,0.322305 0.03061,0.644641 0.04521,0.966991 0.01441,0.328243 0.02792,0.656503 0.04496,0.984632 0.01765,0.331627 0.0354,0.663248 0.05287,0.994884 0.01609,0.320072 0.03861,0.639813 0.05975,0.959611 0.02123,0.308576 0.049,0.616655 0.0783,0.924609 0.02888,0.292712 0.06504,0.58469 0.10951,0.875605 0.03801,0.275063 0.09896,0.546051 0.174686,0.813691 0.07183,0.248615 0.172337,0.48748 0.290323,0.719046 0.109923,0.208553 0.247827,0.401359 0.396626,0.586032 0.139346,0.170163 0.304777,0.316881 0.479515,0.453037 0.172192,0.131864 0.36633,0.231958 0.565802,0.320298 0.20879,0.09112 0.431294,0.146188 0.654673,0.193193 0.237754,0.04849 0.47983,0.07102 0.722081,0.08575 0.256493,0.01201 0.513078,-0.0016 0.768727,-0.02089 0.27173,-0.02268 0.54214,-0.05671 0.81217,-0.09297 0.26669,-0.03718 0.53223,-0.08111 0.79762,-0.125874 0.21465,-0.0359 0.42918,-0.07232 0.64336,-0.110726 0,0 -17.078133,9.407399 -17.078133,9.407399 v 0 c -0.214174,0.03841 -0.428711,0.07483 -0.643361,0.110726 -0.265384,0.04477 -0.530925,0.08868 -0.79762,0.125874 -0.270027,0.03627 -0.540444,0.0703 -0.812164,0.09297 -0.255651,0.01944 -0.512237,0.03292 -0.76873,0.02089 -0.242248,-0.01472 -0.484328,-0.03724 -0.722081,-0.08575 -0.223377,-0.047 -0.445883,-0.10207 -0.654672,-0.193191 -0.199472,-0.08835 -0.393611,-0.188434 -0.565802,-0.320298 -0.174737,-0.136155 -0.340169,-0.282873 -0.479513,-0.453039 -0.14881,-0.184664 -0.286716,-0.37747 -0.396636,-0.586026 -0.117989,-0.231563 -0.218493,-0.470431 -0.290326,-0.719045 -0.07572,-0.267641 -0.136678,-0.538626 -0.174685,-0.813689 -0.04446,-0.290918 -0.08063,-0.582896 -0.109511,-0.875605 -0.0293,-0.307957 -0.05708,-0.616036 -0.0783,-0.924612 -0.02115,-0.319795 -0.04364,-0.639537 -0.05974,-0.959608 -0.01748,-0.331636 -0.03524,-0.663257 -0.05288,-0.994884 -0.01704,-0.328129 -0.03053,-0.656392 -0.04494,-0.984632 -0.0146,-0.322352 -0.02958,-0.644687 -0.04521,-0.966994 -0.01602,-0.328883 -0.03221,-0.657757 -0.04897,-0.986605 -0.01726,-0.33978 -0.03529,-0.679528 -0.05041,-1.019402 -0.0132,-0.347834 -0.02642,-0.695669 -0.04114,-1.043448 -0.01471,-0.336835 -0.03183,-0.673546 -0.05493,-1.009964 -0.02143,-0.334654 -0.04287,-0.66932 -0.06822,-1.003726 -0.0285,-0.345138 -0.05756,-0.69023 -0.08783,-1.035228 -0.03068,-0.349681 -0.06211,-0.699299 -0.09522,-1.048777 -0.0331,-0.350795 -0.0669,-0.701535 -0.10325,-1.05204 -0.03568,-0.340454 -0.07261,-0.680789 -0.111948,-1.020877 -0.03933,-0.340001 -0.07942,-0.67992 -0.121374,-1.019634 -0.04274,-0.34506 -0.08612,-0.690048 -0.131594,-1.03479 -0.04643,-0.351559 -0.09388,-0.702994 -0.1425,-1.054284 -0.04937,-0.355479 -0.09915,-0.710902 -0.14663,-1.066615 -0.04768,-0.339058 -0.09758,-0.677826 -0.150421,-1.016191 -0.05293,-0.338467 -0.106931,-0.676783 -0.163,-1.014793 -0.05727,-0.346156 -0.116728,-0.691994 -0.171415,-1.038535 -0.05541,-0.343907 -0.112086,-0.687643 -0.174467,-1.030472 -0.05953,-0.327263 -0.122061,-0.654017 -0.181194,-0.981343 -0.06018,-0.322953 -0.121819,-0.64565 -0.182595,-0.9685 -0.05803,-0.302573 -0.119096,-0.604615 -0.186945,-0.905342 -0.06522,-0.290517 -0.132068,-0.580749 -0.210558,-0.868319 -0.0765,-0.286553 -0.154649,-0.572713 -0.236836,-0.857833 -0.0834,-0.288526 -0.167469,-0.576885 -0.256092,-0.863999 -0.08581,-0.278427 -0.16927,-0.557623 -0.265184,-0.833091 -0.08777,-0.248755 -0.180293,-0.495896 -0.278695,-0.741021 -0.09253,-0.228619 -0.187789,-0.456269 -0.291309,-0.680602 -0.102623,-0.221411 -0.208641,-0.44138 -0.32613,-0.656055 -0.115963,-0.214719 -0.234027,-0.4284 -0.359539,-0.638217 C 73.73389,63.241025 73.605081,63.033423 73.470987,62.828908 73.338568,62.625041 73.205477,62.421504 73.06372,62.223372 72.922565,62.02741 72.777661,61.83395 72.628963,61.643126 72.480127,61.454407 72.327709,61.268368 72.174226,61.083074 72.018267,60.894156 71.859078,60.707732 71.69931,60.52174 71.542937,60.33952 71.384704,60.158762 71.220756,59.982664 71.063235,59.811847 70.904609,59.641981 70.743538,59.474196 70.579515,59.304172 70.414534,59.135009 70.246969,58.968148 70.079823,58.801217 69.911736,58.635133 69.738941,58.473491 69.568327,58.312159 69.395648,58.152861 69.222432,57.994076 69.046984,57.833292 68.870637,57.673383 68.691557,57.516277 68.514754,57.361578 68.335751,57.209184 68.15632,57.057271 67.977308,56.907588 67.795452,56.76106 67.612924,56.615301 67.429855,56.468237 67.245509,56.322605 67.060103,56.178229 66.876493,56.035981 66.692074,55.89466 66.504437,55.757259 66.321059,55.62293 66.137389,55.48895 65.951796,55.357412 c -0.18225,-0.128223 -0.365969,-0.254532 -0.549355,-0.381268 -0.179418,-0.1217 -0.359981,-0.241979 -0.545565,-0.355018 -0.175771,-0.108682 -0.354379,-0.213007 -0.535741,-0.312996 -0.174353,-0.09552 -0.349338,-0.190064 -0.528401,-0.277415 -0.170386,-0.08273 -0.340654,-0.165689 -0.512766,-0.245138 -0.165346,-0.07536 -0.330439,-0.151298 -0.497873,-0.22239 -0.16188,-0.06867 -0.324826,-0.135072 -0.48962,-0.197157 -0.152803,-0.05834 -0.306707,-0.114058 -0.463281,-0.162601 -0.151423,-0.04703 -0.30324,-0.09281 -0.455753,-0.136524 -0.148507,-0.0424 -0.297665,-0.08292 -0.448086,-0.118726 -0.14735,-0.03332 -0.294861,-0.06589 -0.443258,-0.09477 -0.146906,-0.02869 -0.294378,-0.05501 -0.442305,-0.07844 -0.141108,-0.02247 -0.282293,-0.04449 -0.424443,-0.06024 -0.135856,-0.01399 -0.271796,-0.02719 -0.408304,-0.03399 -0.126065,-0.0056 -0.25211,-0.01146 -0.378166,-0.01722 -0.111339,-0.0046 -0.222757,-0.0064 -0.334198,-0.0043 -0.08914,0.0035 -0.178288,0.0072 -0.267374,0.01194 -0.07516,0.0039 -0.150301,0.0082 -0.225407,0.01298 -0.06294,0.0042 -0.126011,0.0081 -0.188505,0.01657 0,0 17.07813,-9.407399 17.07813,-9.407399 z"
       inkscape:connector-curvature="0" />
    <path
       style="fill:#000000;stroke-width:0.26967004"
       id="path383"
       d="m 25.194417,87.046951 c 0.01549,-0.05597 0.03171,-0.111759 0.04849,-0.167396 0.02641,-0.07755 0.04922,-0.156161 0.07229,-0.234664 0.03019,-0.10958 0.05793,-0.219766 0.08672,-0.329696 0.03327,-0.125066 0.06129,-0.251288 0.09147,-0.377039 0.03484,-0.143151 0.06684,-0.286898 0.100675,-0.430262 0.03725,-0.154818 0.07168,-0.310228 0.105544,-0.465749 0.03683,-0.159135 0.07441,-0.318104 0.110799,-0.477331 0.03509,-0.162925 0.07241,-0.325363 0.110183,-0.487741 0.03925,-0.16705 0.07589,-0.334643 0.111158,-0.502493 0.03667,-0.17681 0.07046,-0.354146 0.102839,-0.531709 0.03356,-0.185647 0.0646,-0.371694 0.09486,-0.557854 0.03339,-0.194608 0.05682,-0.390536 0.07961,-0.586477 0.02403,-0.209113 0.04543,-0.418488 0.06616,-0.62792 0.02188,-0.222139 0.04169,-0.444458 0.06085,-0.666821 0.0201,-0.234137 0.0384,-0.468406 0.05613,-0.702715 0.0186,-0.249257 0.03541,-0.49863 0.05177,-0.748026 0.01712,-0.262181 0.03252,-0.524461 0.04775,-0.786745 0.01542,-0.267258 0.0299,-0.534564 0.04403,-0.801885 0.01483,-0.272479 0.02828,-0.544996 0.03737,-0.817706 0.0085,-0.271758 0.01572,-0.543549 0.02304,-0.815334 0.0066,-0.263908 0.01527,-0.527774 0.01931,-0.791732 0.0047,-0.267232 7.17e-4,-0.53448 -0.0028,-0.801696 -0.0018,-0.264423 -0.01053,-0.528718 -0.01902,-0.793003 -0.0067,-0.26193 -0.01996,-0.523627 -0.03288,-0.785325 -0.01141,-0.261047 -0.0265,-0.521891 -0.04325,-0.782667 -0.01674,-0.26336 -0.03296,-0.526733 -0.05279,-0.789897 -0.02084,-0.267947 -0.04086,-0.53595 -0.06044,-0.803982 -0.01806,-0.268948 -0.03937,-0.537655 -0.06189,-0.806292 -0.02148,-0.273615 -0.04611,-0.54696 -0.07208,-0.820217 -0.02628,-0.276108 -0.0559,-0.551951 -0.08794,-0.827509 -0.03308,-0.279599 -0.06618,-0.559182 -0.102314,-0.838439 -0.03705,-0.276825 -0.07088,-0.55404 -0.108437,-0.830804 -0.03784,-0.278827 -0.07919,-0.557214 -0.122604,-0.835298 -0.04552,-0.284928 -0.09427,-0.569429 -0.145985,-0.853401 -0.05121,-0.27771 -0.102891,-0.555331 -0.156969,-0.832551 -0.05302,-0.276306 -0.11019,-0.551857 -0.165456,-0.827757 -0.05615,-0.280558 -0.119649,-0.559675 -0.184455,-0.838502 -0.06406,-0.284045 -0.136292,-0.566301 -0.207304,-0.848811 -0.07291,-0.28879 -0.151099,-0.576309 -0.230366,-0.863557 -0.07967,-0.290628 -0.163644,-0.58016 -0.251196,-0.868709 -0.086,-0.288067 -0.177755,-0.574488 -0.270795,-0.860538 -0.09378,-0.290915 -0.195629,-0.579286 -0.299553,-0.86701 C 23.930021,57.475292 23.822291,57.187182 23.7131,56.89957 23.603789,56.615337 23.49024,56.332631 23.375427,56.050387 23.259445,55.768724 23.138074,55.489101 23.01574,55.209903 22.894005,54.932911 22.763987,54.659363 22.632461,54.386512 22.501542,54.113288 22.363577,53.843278 22.222397,53.574771 22.081387,53.311684 21.93582,53.050838 21.785886,52.79229 21.638404,52.537571 21.483559,52.286822 21.324798,52.03838 21.168859,51.793327 21.004458,51.553346 20.839603,51.313712 20.677567,51.080578 20.511221,50.850234 20.342406,50.621536 20.176219,50.396409 20.003789,50.175577 19.828567,49.956804 19.65085,49.738845 19.468282,49.524479 19.282853,49.312436 19.101677,49.10754 18.91866,48.904121 18.733951,48.702114 18.553777,48.507767 18.370722,48.315835 18.184389,48.126845 18.000314,47.941696 17.812591,47.759843 17.623335,47.579519 17.43838,47.403134 17.249044,47.23105 17.056523,47.062222 16.861269,46.892706 16.661979,46.72751 16.459398,46.566031 16.255758,46.405419 16.04952,46.247914 15.840662,46.093536 15.632013,45.940666 15.421402,45.790323 15.20832,45.643126 14.998354,45.500248 14.78853,45.357171 14.57772,45.215421 14.36844,45.074412 14.15295,44.94212 13.936899,44.810832 13.720932,44.679806 13.502473,44.552576 13.283229,44.426617 13.067996,44.300555 12.850737,44.177802 12.630763,44.059429 12.406206,43.941963 12.181055,43.825495 11.954893,43.710858 11.733408,43.598172 11.509027,43.490804 11.285896,43.381151 11.065126,43.271476 10.841393,43.167438 10.61762,43.063505 10.393873,42.958709 10.168607,42.856913 9.9423373,42.757179 9.7185906,42.659839 9.4945027,42.563171 9.2696457,42.468181 9.0447461,42.374859 8.8199157,42.281412 8.5953715,42.187307 8.3782184,42.095871 8.1599781,42.006813 7.9412404,41.91889 7.731732,41.834937 7.5238693,41.747294 7.3153421,41.661147 7.1195266,41.580304 6.9236805,41.49953 6.7278385,41.418748 6.5443204,41.342107 6.3597252,41.267888 6.1744982,41.195098 5.9953817,41.124739 5.815164,41.056964 5.6351134,40.988821 5.4673966,40.925374 5.2996616,40.861974 5.1319294,40.798564 4.977198,40.740072 4.8224666,40.68158 4.667735,40.623088 4.5238197,40.570164 4.381334,40.513992 4.2395969,40.455995 4.1078699,40.401827 3.976304,40.347303 3.8447158,40.292827 3.7233116,40.242562 3.6019102,40.192295 3.4805084,40.142027 3.3685361,40.095664 3.2565639,40.049301 3.1445918,40.002935 3.0413176,39.960176 2.9380431,39.917407 2.8347685,39.874644 2.7395165,39.835201 2.6442641,39.795767 2.549012,39.756323 2.462448,39.72111 2.3764967,39.684593 2.2909515,39.64719 2.2147295,39.61374 2.1385832,39.58013 2.0624272,39.546536 c -0.070151,-0.03094 -0.1403003,-0.06189 -0.2104499,-0.09284 -0.063068,-0.02967 -0.128561,-0.05397 -0.1940971,-0.07809 -0.026373,-0.01017 -0.053693,-0.0173 -0.081272,-0.02369 0,0 17.0781288,-9.407399 17.0781288,-9.407399 v 0 c 0.02758,0.0064 0.05489,0.01351 0.08128,0.02369 0.06554,0.02413 0.131029,0.04843 0.194097,0.07809 0.07016,0.03094 0.1403,0.06189 0.21045,0.09284 0.07615,0.03359 0.152301,0.0672 0.228524,0.100656 0.08554,0.0374 0.171496,0.07391 0.25806,0.109132 0.09525,0.03944 0.190504,0.07888 0.285757,0.118322 0.103271,0.04276 0.20655,0.08553 0.309824,0.128288 0.111972,0.04636 0.223943,0.09273 0.335916,0.139092 0.121403,0.05026 0.242803,0.10054 0.364208,0.150803 0.131588,0.05448 0.263154,0.108999 0.394881,0.163168 0.141736,0.058 0.284223,0.114166 0.428137,0.167093 0.154732,0.05849 0.309463,0.116983 0.464194,0.175476 0.167733,0.06341 0.335468,0.126809 0.503185,0.190254 0.18005,0.06815 0.360268,0.135918 0.539385,0.20628 0.185226,0.07279 0.369822,0.147006 0.55334,0.223648 0.195842,0.08078 0.391688,0.161558 0.587504,0.2424 0.208527,0.08615 0.41639,0.173789 0.625899,0.257744 0.218737,0.08793 0.436977,0.176981 0.65413,0.268417 0.224544,0.0941 0.449375,0.187549 0.674273,0.280871 0.224858,0.095 0.448946,0.191659 0.672693,0.289 0.226271,0.09973 0.451536,0.20153 0.675284,0.306327 0.223773,0.10393 0.447506,0.207968 0.668276,0.317646 0.223131,0.10965 0.447511,0.217021 0.668997,0.329704 0.226162,0.11464 0.451313,0.231105 0.67587,0.348574 0.219974,0.118373 0.437233,0.241124 0.652466,0.367187 0.219244,0.125956 0.437703,0.25319 0.65367,0.384216 0.21605,0.131288 0.431541,0.263576 0.640821,0.404586 0.21081,0.14175 0.420634,0.284828 0.630598,0.427705 0.213084,0.147197 0.423696,0.29754 0.632344,0.450411 0.208858,0.15438 0.415096,0.311885 0.618736,0.472494 0.202579,0.161479 0.40187,0.326678 0.597125,0.496194 0.192521,0.168825 0.381857,0.340912 0.56681,0.517294 0.189257,0.180324 0.376981,0.362177 0.561055,0.547326 0.186335,0.18899 0.36939,0.380922 0.549564,0.575271 0.184707,0.202005 0.367725,0.405427 0.548901,0.610323 0.185429,0.212043 0.367997,0.426406 0.545744,0.644368 0.175224,0.218773 0.347653,0.439605 0.51384,0.664732 0.168816,0.228698 0.335161,0.459042 0.497196,0.692176 0.164857,0.239634 0.329258,0.479614 0.485196,0.724667 0.158762,0.24844 0.313605,0.499191 0.461088,0.753908 0.149935,0.258548 0.295502,0.519397 0.436512,0.78248 0.141178,0.268508 0.279144,0.538518 0.410062,0.811745 0.131526,0.272851 0.261544,0.546396 0.383279,0.823388 0.122336,0.279198 0.243706,0.558824 0.359688,0.840487 0.114813,0.282241 0.22836,0.564948 0.337672,0.849183 0.109194,0.287611 0.216924,0.575719 0.323811,0.864118 0.103919,0.287724 0.205775,0.576095 0.299555,0.86701 0.09305,0.28605 0.184798,0.572474 0.270794,0.860541 0.08754,0.288549 0.171524,0.578078 0.251196,0.868707 0.07927,0.287247 0.157455,0.574767 0.230365,0.863559 0.071,0.282507 0.143238,0.564766 0.207306,0.848808 0.0648,0.278827 0.128302,0.557947 0.184455,0.838502 0.05526,0.2759 0.112437,0.551454 0.165452,0.82776 0.05407,0.277217 0.105754,0.554838 0.15697,0.832551 0.05171,0.283969 0.100458,0.56847 0.145986,0.853399 0.04342,0.278085 0.08476,0.55647 0.122602,0.8353 0.03756,0.276764 0.07138,0.553976 0.108438,0.830804 0.03614,0.279254 0.06923,0.558837 0.102314,0.838436 0.03202,0.275558 0.06165,0.551401 0.08794,0.82751 0.02598,0.273256 0.05061,0.546601 0.07208,0.820218 0.02253,0.268636 0.04381,0.537342 0.06189,0.806293 0.0196,0.268029 0.0396,0.536033 0.06044,0.803979 0.01983,0.263167 0.03605,0.526538 0.05279,0.789897 0.01676,0.260779 0.03184,0.52162 0.04326,0.782667 0.01291,0.261701 0.0262,0.523395 0.03287,0.785325 0.0086,0.264288 0.01723,0.52858 0.01903,0.793003 0.0035,0.267219 0.0075,0.534465 0.0028,0.801699 -0.004,0.263955 -0.0127,0.527823 -0.01932,0.79173 -0.0073,0.271787 -0.0146,0.543576 -0.02305,0.815336 -0.0091,0.272708 -0.02253,0.545224 -0.03737,0.817703 -0.01414,0.267321 -0.02861,0.53463 -0.04403,0.801888 -0.01523,0.262284 -0.03062,0.524562 -0.04775,0.786742 -0.01635,0.249399 -0.03317,0.498772 -0.05177,0.748026 -0.01773,0.234309 -0.03603,0.468581 -0.05613,0.702715 -0.01916,0.222366 -0.03898,0.444685 -0.06085,0.666824 -0.02074,0.20943 -0.04213,0.418807 -0.06617,0.62792 -0.02278,0.195938 -0.04621,0.391865 -0.07961,0.586477 -0.03026,0.186159 -0.0613,0.372205 -0.09486,0.557851 -0.0324,0.177563 -0.06619,0.354899 -0.10284,0.531709 -0.03527,0.167853 -0.07191,0.335446 -0.111159,0.502496 -0.03776,0.162375 -0.07508,0.324813 -0.110181,0.487741 -0.03638,0.159224 -0.07398,0.318194 -0.1108,0.477331 -0.03385,0.155518 -0.06829,0.310931 -0.105544,0.465745 -0.03384,0.143365 -0.06584,0.287114 -0.100685,0.430263 -0.03017,0.125751 -0.0582,0.251975 -0.09146,0.377039 -0.02878,0.10993 -0.05652,0.220119 -0.08672,0.329696 -0.02309,0.07851 -0.04588,0.157109 -0.07229,0.234667 -0.01679,0.05564 -0.03299,0.111421 -0.04849,0.167396 0,0 -17.078132,9.407399 -17.078132,9.407399 z"
       inkscape:connector-curvature="0" />
    <path
       style="fill:#000000;stroke-width:0.26967004"
       id="path385"
       d="m 75.166293,-0.21807289 c 0.04332,0.031622 0.08422,0.0661115 0.125062,0.10056406 0.04546,0.03777852 0.09168,0.07476458 0.138146,0.1114325 0.0591,0.04722414 0.116057,0.09690283 0.172463,0.14702961 0.06994,0.063835 0.137665,0.12979783 0.205358,0.19578898 0.07631,0.0720841 0.151972,0.14483023 0.225818,0.2192148 0.07944,0.0802497 0.156336,0.16271737 0.234586,0.24401458 0.08035,0.0863435 0.16213,0.17145615 0.240951,0.25908346 0.08742,0.092916 0.167911,0.191392 0.249818,0.2886833 0.08904,0.1067471 0.176305,0.2148162 0.26449,0.3221997 0.09376,0.114771 0.185642,0.2309066 0.27915,0.3458595 0.09568,0.1193732 0.190566,0.2393104 0.284432,0.3599875 0.103521,0.1342391 0.202187,0.2717815 0.302161,0.4084279 0.11208,0.1555096 0.228972,0.3077654 0.342453,0.4623327 0.121142,0.1638242 0.243027,0.3271441 0.364983,0.4904171 0.1298,0.1707542 0.257552,0.342898 0.384806,0.5153833 0.134236,0.1824035 0.267303,0.3655837 0.402054,0.5476452 0.140985,0.1896185 0.282363,0.3789722 0.422655,0.5690579 0.14932,0.2025067 0.29718,0.4059959 0.444919,0.609558 0.153601,0.2152367 0.307936,0.4299814 0.462483,0.6446012 0.162047,0.2239549 0.323525,0.4482822 0.486051,0.6719217 0.163611,0.2262913 0.327215,0.4525903 0.491246,0.6786064 0.159857,0.2216809 0.320661,0.4427306 0.481646,0.6636663 0.169343,0.234468 0.342268,0.4665579 0.513764,0.6995935 0.179295,0.2425831 0.356999,0.4862433 0.537104,0.7282817 0.175184,0.233561 0.348246,0.468563 0.522453,0.702788 0.166912,0.227539 0.334345,0.454738 0.50028,0.682924 0.165832,0.229723 0.333312,0.458355 0.499849,0.687613 0.177902,0.243457 0.352772,0.488908 0.52915,0.733367 0.17414,0.240034 0.346954,0.480952 0.522189,0.720262 0.169215,0.232897 0.340583,0.464358 0.511022,0.696443 0.164577,0.22758 0.331207,0.453778 0.500414,0.678244 0.171389,0.231542 0.344202,0.462118 0.516119,0.693302 0.169412,0.227789 0.340048,0.454742 0.511011,0.681471 0.16577,0.221173 0.332098,0.441969 0.498619,0.66263 0.171925,0.228603 0.343645,0.457345 0.513251,0.687523 0.172775,0.237156 0.348873,0.472042 0.52596,0.706274 0.177689,0.232078 0.356791,0.463164 0.53493,0.694928 0.171309,0.224609 0.343639,0.448506 0.514423,0.673479 0.163991,0.21696 0.32641,0.435023 0.487608,0.653879 0.156019,0.213265 0.31259,0.426154 0.467285,0.640296 0.150663,0.208401 0.30054,0.417318 0.452156,0.62509 0.146332,0.203785 0.295343,0.405795 0.441413,0.60975 0.145349,0.199427 0.287158,0.401157 0.431148,0.601469 0.140794,0.195373 0.277151,0.393572 0.41174,0.592864 0.133618,0.195211 0.264397,0.392143 0.393235,0.590251 0.126736,0.196676 0.251577,0.394436 0.375515,0.592723 0.122909,0.193044 0.242996,0.387707 0.365383,0.581047 0.119975,0.187932 0.239437,0.376174 0.361497,0.562885 0.119934,0.183618 0.238865,0.367825 0.357961,0.551938 0.116079,0.179047 0.230065,0.359308 0.346268,0.53828 0.112453,0.17594 0.224858,0.351907 0.336954,0.528055 0.109221,0.172476 0.222034,0.342832 0.331257,0.515308 0.108901,0.167862 0.216341,0.336569 0.323552,0.505416 0.104044,0.162594 0.208977,0.324673 0.31378,0.486824 0.100995,0.154931 0.202931,0.309309 0.304728,0.463762 0.09444,0.143847 0.190058,0.286999 0.283581,0.431393 0.08767,0.136416 0.17458,0.273277 0.261593,0.410075 0.08194,0.12736 0.16208,0.255742 0.241276,0.38467 0.07359,0.123135 0.151979,0.243519 0.230426,0.363862 0.07317,0.112028 0.146486,0.223962 0.219785,0.335908 0.06763,0.103274 0.135254,0.206548 0.202879,0.309819 0.06476,0.09504 0.124433,0.192901 0.177927,0.2941 0,0 -17.07813,9.407402 -17.07813,9.407402 v 0 c -0.0535,-0.101199 -0.11317,-0.199058 -0.177927,-0.2941 -0.06762,-0.103274 -0.135253,-0.206545 -0.202879,-0.30982 -0.0733,-0.111948 -0.146621,-0.22388 -0.219785,-0.335907 -0.07844,-0.120343 -0.156843,-0.24073 -0.230427,-0.363865 -0.0792,-0.128928 -0.159329,-0.257308 -0.241273,-0.384667 -0.08702,-0.136801 -0.173924,-0.273662 -0.261596,-0.410078 -0.09352,-0.144394 -0.189135,-0.287543 -0.28358,-0.43139 C 79.744112,38.659309 79.642185,38.504933 79.541184,38.35 79.436381,38.187849 79.331449,38.025772 79.227403,37.863179 79.120192,37.694332 79.012752,37.525623 78.903852,37.35776 78.794629,37.185287 78.681816,37.014928 78.572595,36.842454 78.460501,36.666307 78.348094,36.490339 78.235641,36.3144 78.119437,36.135427 78.005452,35.955165 77.889373,35.776119 77.770277,35.592005 77.651347,35.407799 77.531414,35.224181 77.409355,35.037469 77.289892,34.849229 77.169918,34.661295 77.047528,34.467957 76.927441,34.273293 76.804534,34.080248 76.680593,33.881963 76.555752,33.684202 76.429017,33.487527 76.300181,33.289417 76.1694,33.092487 76.035781,32.897275 75.901192,32.697982 75.764835,32.499783 75.624045,32.304411 75.480051,32.104099 75.338242,31.902369 75.192893,31.702942 75.046824,31.498987 74.897812,31.296977 74.75148,31.093192 74.599864,30.885418 74.449987,30.676502 74.299324,30.4681 74.14463,30.253961 73.988058,30.041072 73.832042,29.827807 73.67084,29.60895 73.508425,29.390888 73.344432,29.173925 c -0.170785,-0.22497 -0.343115,-0.44887 -0.514422,-0.673477 -0.17814,-0.231764 -0.35724,-0.462851 -0.534932,-0.694929 -0.177084,-0.234232 -0.353182,-0.469117 -0.52596,-0.706274 -0.169606,-0.230178 -0.341323,-0.458918 -0.513251,-0.687523 -0.16652,-0.220659 -0.332849,-0.441456 -0.498616,-0.662629 -0.170967,-0.226729 -0.341601,-0.453682 -0.511011,-0.681472 -0.171919,-0.231183 -0.344733,-0.461759 -0.516119,-0.693301 -0.16921,-0.224466 -0.335839,-0.450665 -0.500417,-0.678245 -0.170439,-0.232084 -0.341803,-0.463546 -0.511021,-0.696443 -0.175235,-0.239309 -0.348046,-0.480227 -0.52219,-0.720262 -0.176375,-0.244458 -0.351248,-0.489909 -0.52915,-0.733367 -0.166535,-0.229257 -0.334014,-0.45789 -0.499849,-0.687612 -0.165935,-0.228186 -0.333368,-0.455385 -0.500279,-0.682925 -0.174207,-0.234224 -0.347266,-0.469226 -0.522451,-0.702787 -0.180108,-0.242038 -0.357808,-0.485698 -0.537106,-0.728281 -0.171494,-0.233036 -0.344421,-0.465125 -0.513761,-0.699594 -0.160986,-0.220935 -0.321792,-0.441985 -0.481649,-0.663666 -0.164032,-0.226016 -0.327635,-0.452315 -0.491247,-0.678606 -0.162526,-0.22364 -0.324003,-0.447967 -0.486049,-0.671922 -0.154549,-0.21462 -0.308883,-0.429364 -0.462484,-0.644601 -0.14774,-0.203562 -0.295597,-0.407052 -0.444921,-0.609558 -0.14029,-0.190086 -0.281668,-0.379439 -0.422652,-0.569058 -0.13475,-0.182062 -0.267817,-0.365242 -0.402055,-0.547645 -0.127255,-0.172485 -0.255004,-0.34463 -0.384804,-0.515383 -0.121958,-0.163273 -0.243844,-0.326593 -0.364981,-0.490417 -0.113485,-0.154568 -0.230375,-0.306823 -0.342458,-0.462333 -0.09997,-0.136647 -0.198642,-0.274189 -0.302161,-0.408428 -0.09386,-0.120678 -0.188751,-0.240614 -0.284431,-0.359988 -0.09351,-0.114953 -0.185391,-0.231088 -0.279151,-0.345859 -0.08818,-0.107383 -0.17545,-0.215453 -0.26449,-0.3222 -0.08191,-0.0973 -0.162394,-0.195767 -0.249818,-0.288683 -0.07883,-0.08763 -0.160599,-0.17274 -0.24095,-0.259084 -0.07825,-0.0813 -0.155144,-0.163765 -0.234584,-0.244015 -0.07385,-0.074388 -0.149514,-0.1471301 -0.22582,-0.2192144 -0.06769,-0.065995 -0.135417,-0.1319538 -0.205358,-0.1957899 -0.05641,-0.050126 -0.113363,-0.099805 -0.172463,-0.1470295 -0.04646,-0.036666 -0.09268,-0.073651 -0.138147,-0.1114326 -0.04084,-0.034456 -0.08173,-0.068942 -0.125059,-0.1005637 0,0 17.078128,-9.40740079 17.078128,-9.40740079 z"
       inkscape:connector-curvature="0" />
    <rect
       style="fill:#000000;fill-opacity:1;stroke-width:0.20153508"
       id="rect4797"
       width="64.247711"
       height="2.078897"
       x="0.81290668"
       y="35.233673"
       transform="matrix(0.88294662,-0.46947339,0.50908642,0.86071541,0,0)" />
    <rect
       style="display:inline;fill:#000000;fill-opacity:1;stroke-width:0.1674642"
       id="rect4797-6"
       width="52.419628"
       height="1.7592976"
       x="18.943926"
       y="74.069717"
       transform="matrix(0.87378135,-0.48631899,0.47426024,0.8803847,0,0)" />
  </g>
  <path
     style="fill:#000000;stroke-width:0.26336575"
     id="path282"
     d="m 4.9735015,17.65203 c 0.040767,-0.03601 0.081957,-0.07158 0.12226,-0.108039 0.050784,-0.04523 0.099567,-0.09221 0.1494619,-0.138238 0.058445,-0.05359 0.117119,-0.106979 0.1757588,-0.160398 0.065453,-0.0621 0.1294962,-0.125414 0.1940044,-0.188325 0.072723,-0.07011 0.1457435,-0.139975 0.220336,-0.208445 0.07816,-0.07352 0.1573977,-0.146111 0.2383548,-0.217072 0.090893,-0.07918 0.1816742,-0.158471 0.2716439,-0.238518 0.099562,-0.08688 0.2016364,-0.171311 0.3020153,-0.257402 0.1053133,-0.08923 0.2106554,-0.178441 0.3182825,-0.265374 0.1092588,-0.08864 0.2197261,-0.175997 0.3311932,-0.262333 0.122548,-0.09325 0.2433368,-0.188337 0.363912,-0.283677 0.1303833,-0.102953 0.2593164,-0.207353 0.3909223,-0.309019 0.1356611,-0.104142 0.2713177,-0.2083 0.407755,-0.311601 0.1370511,-0.104617 0.2769361,-0.206076 0.4154292,-0.309087 0.1386537,-0.104081 0.2810156,-0.203891 0.4242615,-0.302645 0.1469201,-0.100975 0.2955952,-0.199815 0.4438676,-0.299131 0.1470514,-0.09746 0.2966951,-0.191599 0.4456411,-0.286624 0.146088,-0.09372 0.293855,-0.185254 0.44298,-0.274924 0.148363,-0.08883 0.296783,-0.177575 0.447173,-0.263558 5.765836,-3.2025181 11.751559,-6.1839917 17.548568,-9.2296534 0.164943,-0.086871 0.335136,-0.1649019 0.50601,-0.241529 0.178556,-0.080152 0.360952,-0.1528125 0.544518,-0.2228447 0.187142,-0.073472 0.37466,-0.1461075 0.56292,-0.2171779 0.189375,-0.071049 0.380913,-0.1372071 0.572729,-0.2025664 0.189256,-0.064208 0.379262,-0.1265524 0.568897,-0.1898238 0.193804,-0.064112 0.388808,-0.1251552 0.584068,-0.1854747 0.195609,-0.060517 0.392549,-0.1172954 0.590317,-0.1716474 0.203414,-0.055254 0.407897,-0.1071467 0.612584,-0.1583242 0.2003,-0.050136 0.401147,-0.098425 0.602187,-0.1460259 0.195245,-0.048578 0.39268,-0.088974 0.590555,-0.1275017 0.202263,-0.039332 0.406363,-0.070224 0.610257,-0.1015836 0.202729,-0.032399 0.406343,-0.05936 0.610348,-0.084083 0.201672,-0.025671 0.404327,-0.043785 0.606971,-0.061657 0.196816,-0.015199 0.393963,-0.026509 0.591053,-0.038323 0.192405,-0.010796 0.385095,-0.014252 0.577809,-0.016287 0.190598,-0.00103 0.381036,0.00523 0.571416,0.012562 0.190008,0.00802 0.379296,0.025253 0.568588,0.041636 0.18595,0.016965 0.371046,0.040128 0.556001,0.064251 0.183714,0.024499 0.365896,0.057242 0.548174,0.089173 0.177667,0.031884 0.353876,0.06968 0.529936,0.1080925 0.173036,0.038277 0.342731,0.087627 0.512284,0.1368375 0.166805,0.049541 0.332463,0.1021023 0.497423,0.156491 0.162358,0.054287 0.321618,0.1157128 0.479849,0.1791797 0.154661,0.064418 0.307753,0.1319366 0.458867,0.2029791 0.147328,0.070301 0.294027,0.1417021 0.438562,0.2166641 0.143402,0.074639 0.282993,0.1550792 0.422203,0.235962 0.134214,0.081214 0.26789,0.1631449 0.402493,0.2438317 0.130165,0.07999 0.259366,0.1613075 0.386391,0.2453749 0.124775,0.083051 0.247835,0.168185 0.369439,0.2550341 0.122751,0.087431 0.244975,0.1753786 0.362833,0.2682481 0.119576,0.094968 0.236513,0.1925959 0.35052,0.2930638 0.118257,0.1015636 0.231531,0.2077139 0.344327,0.3142456 0.114193,0.1094574 0.224306,0.2223559 0.334815,0.3348777 0.109483,0.1108992 0.21628,0.2239604 0.320912,0.3386625 0.106179,0.1135796 0.209205,0.2295337 0.309427,0.3474979 0.100603,0.1193846 0.197449,0.2413573 0.293381,0.3638694 0.09883,0.1276048 0.191613,0.2589595 0.283373,0.3908211 0.09487,0.1360043 0.185116,0.27461 0.273109,0.4143713 0.08968,0.1430115 0.172934,0.2891559 0.252537,0.4369821 0.08226,0.1544421 0.158541,0.3114049 0.232931,0.4690889 0.07502,0.1606575 0.145466,0.3230212 0.214836,0.485753 0.0701,0.1638944 0.134928,0.3295533 0.198149,0.4957267 0.06343,0.1710826 0.126373,0.3423248 0.188257,0.5138792 0.06403,0.1768368 0.124828,0.35461 0.183123,0.5330744 0.05735,0.1847495 0.107094,0.3713504 0.156427,0.5579774 0.0493,0.188066 0.09637,0.376606 0.141802,0.565473 0.04558,0.191751 0.08888,0.383938 0.130743,0.576387 0.04241,0.194657 0.0821,0.389794 0.120587,0.585121 0.03946,0.203188 0.07709,0.406684 0.109917,0.610853 0.03233,0.209703 0.06074,0.419885 0.08865,0.630107 0.02885,0.218524 0.0553,0.437302 0.0805,0.656198 0.02878,0.236368 0.04779,0.473558 0.06633,0.710732 0.01954,0.250533 0.03696,0.501199 0.05392,0.751885 0.01855,0.269732 0.02853,0.539884 0.03924,0.809946 0.01314,0.288572 0.01825,0.577351 0.02339,0.866109 0.0069,0.306896 0.0087,0.613819 0.0088,0.920769 -2.77e-4,0.331778 -0.0011,0.663557 -0.0016,0.995336 -1.91e-4,0.341389 -5.53e-4,0.682761 -0.0051,1.024129 -0.0052,0.345768 -0.01072,0.691529 -0.0161,1.037294 -0.0055,0.349277 -0.01051,0.698557 -0.01546,1.04784 -0.0045,0.359219 -0.01533,0.718345 -0.02462,1.077482 -0.01,0.388227 -0.01888,0.776481 -0.02761,1.164735 -0.0089,0.400479 -0.01735,0.800966 -0.02553,1.201458 -0.0079,0.41012 -0.01556,0.820228 -0.02681,1.230285 -0.01265,0.440559 -0.02454,0.881136 -0.03614,1.32172 -0.01431,0.455298 -0.03106,0.910529 -0.04677,1.36579 -0.01612,0.469161 -0.0311,0.938358 -0.04563,1.407566 -0.0148,0.47782 -0.02857,0.955664 -0.04212,1.433514 -0.01572,0.474078 -0.03416,0.948073 -0.05165,1.422096 -0.01761,0.475576 -0.03405,0.951186 -0.05012,1.426808 -0.01615,0.478568 -0.03143,0.957161 -0.04627,1.435765 -0.01508,0.501988 -0.03487,1.003851 -0.05301,1.505752 -0.01875,0.518555 -0.03647,1.03714 -0.05379,1.555738 -0.0182,0.528469 -0.03292,1.05703 -0.051,1.585502 -0.0201,0.583971 -0.04574,1.167769 -0.07335,1.751482 -0.02842,0.606496 -0.06281,1.212744 -0.09882,1.818903 -0.03658,0.629721 -0.07915,1.25914 -0.125343,1.888331 -0.04982,0.652695 -0.108197,1.304809 -0.164154,1.957085 -0.06184,0.665402 -0.116122,1.331334 -0.167718,1.99745 -0.05264,0.705946 -0.103794,1.411981 -0.155648,2.117979 -0.05322,0.725564 -0.103605,1.451299 -0.152929,2.177093 -0.04982,0.7407 -0.08542,1.482091 -0.120685,2.223453 -0.03562,0.757216 -0.06876,1.514526 -0.101582,2.271845 -0.03162,0.741739 -0.06444,1.483438 -0.09218,2.225307 -0.02579,0.722726 -0.04898,1.445525 -0.07228,2.16832 -0.02214,0.686973 -0.04384,1.373956 -0.06541,2.060945 -0.0204,0.650486 -0.04043,1.30098 -0.0603,1.951482 -0.0188,0.617986 -0.03724,1.235981 -0.05562,1.853977 -0.01737,0.582414 -0.03446,1.164836 -0.0513,1.747262 -0.01422,0.558547 -0.03488,1.116925 -0.0552,1.675309 -0.01957,0.533719 -0.0389,1.067449 -0.05817,1.601179 -0.01767,0.506426 -0.04154,1.012657 -0.06416,1.518914 -0.02125,0.484466 -0.04218,0.968927 -0.06732,1.45324 -0.02471,0.46431 -0.04934,0.928621 -0.0736,1.39295 -0.02317,0.443777 -0.04593,0.887572 -0.06853,1.331372 -0.01891,0.413107 -0.04441,0.825909 -0.07111,1.238648 -0.02278,0.352313 -0.05152,0.704322 -0.08448,1.055964 -0.02862,0.300158 -0.05969,0.600097 -0.09896,0.899264 -0.03066,0.21833 -0.06961,0.435576 -0.120076,0.650823 -0.03311,0.140486 -0.07342,0.279818 -0.145703,0.408067 -4.240102,4.598413 -10.900934,7.468733 -17.308241,9.120147 -0.06679,0.01443 -0.130838,0.03672 -0.195071,0.05831 -0.01149,0.0035 -0.02296,0.0072 -0.03444,0.01059 0,0 17.078128,-8.972696 17.078128,-8.972696 v 0 c 0.01149,-0.0035 0.02296,-0.0072 0.03443,-0.0106 0.06423,-0.02158 0.128294,-0.04387 0.195071,-0.05831 6.452667,-1.663103 -21.324334,13.532905 -16.848017,8.825247 0.07227,-0.12825 0.112586,-0.267581 0.145702,-0.408066 0.05046,-0.215251 0.08942,-0.432497 0.120079,-0.650825 0.03927,-0.299167 0.07033,-0.599105 0.09895,-0.899262 0.03295,-0.351642 0.06169,-0.703652 0.08447,-1.055967 0.02669,-0.412736 0.05219,-0.825541 0.0711,-1.238649 0.02261,-0.443799 0.04535,-0.887594 0.06853,-1.331368 0.02427,-0.464329 0.04889,-0.928643 0.0736,-1.392951 0.02513,-0.484312 0.04605,-0.968777 0.06732,-1.453239 0.02264,-0.50626 0.04648,-1.012488 0.06416,-1.518917 0.01927,-0.533729 0.0386,-1.067457 0.05817,-1.601176 0.02031,-0.558384 0.04098,-1.116763 0.0552,-1.675309 0.01684,-0.582426 0.03394,-1.164848 0.0513,-1.747264 0.01839,-0.617997 0.03683,-1.235993 0.05561,-1.853979 0.01988,-0.650498 0.0399,-1.300995 0.0603,-1.951482 0.02156,-0.686985 0.04327,-1.373968 0.06541,-2.060941 0.0233,-0.722795 0.04649,-1.445595 0.07227,-2.168321 0.02774,-0.741868 0.06055,-1.483568 0.09218,-2.225306 0.03282,-0.757319 0.06594,-1.514631 0.101572,-2.271845 0.03527,-0.741366 0.07085,-1.482757 0.120686,-2.223454 0.04933,-0.725793 0.09971,-1.451529 0.152928,-2.177096 0.05185,-0.705994 0.103014,-1.41203 0.155646,-2.117977 0.05159,-0.666116 0.105886,-1.332049 0.167723,-1.997451 0.05596,-0.652272 0.114322,-1.304387 0.164149,-1.957082 0.0462,-0.629194 0.08877,-1.258612 0.125345,-1.888331 0.03601,-0.606159 0.0704,-1.212408 0.09882,-1.818905 0.02762,-0.58371 0.05326,-1.167511 0.07336,-1.751483 0.01808,-0.528471 0.0328,-1.057034 0.051,-1.585499 0.01731,-0.518599 0.03503,-1.037183 0.05379,-1.555739 0.01814,-0.501903 0.03793,-1.003763 0.05302,-1.505752 0.01483,-0.478604 0.03013,-0.957198 0.04627,-1.435768 0.01607,-0.475618 0.03251,-0.951231 0.05012,-1.426804 0.0175,-0.474024 0.03595,-0.948022 0.05165,-1.422099 0.01355,-0.477849 0.02736,-0.955694 0.04212,-1.433514 0.01454,-0.469207 0.0295,-0.938401 0.04563,-1.407567 0.01571,-0.455258 0.03247,-0.91049 0.04677,-1.365787 0.01159,-0.440584 0.02352,-0.88116 0.03615,-1.321722 0.01123,-0.410054 0.01885,-0.820165 0.02681,-1.230282 0.0082,-0.400493 0.01662,-0.800979 0.02553,-1.201459 0.0088,-0.388253 0.01758,-0.776509 0.02761,-1.164737 0.0093,-0.359137 0.0201,-0.718262 0.02462,-1.077481 0.0049,-0.349284 0.01,-0.698564 0.01546,-1.047839 0.0055,-0.345765 0.01102,-0.691525 0.0161,-1.037296 0.0045,-0.341366 0.0049,-0.68274 0.0051,-1.024129 5.52e-4,-0.331776 0.0013,-0.663555 0.0016,-0.995334 -2.4e-5,-0.30695 -0.002,-0.613874 -0.0088,-0.920771 -0.0052,-0.288758 -0.0102,-0.577535 -0.02339,-0.866107 -0.01072,-0.270062 -0.02069,-0.540214 -0.03924,-0.809946 -0.01694,-0.250686 -0.03437,-0.501352 -0.05392,-0.751885 -0.01852,-0.237175 -0.03756,-0.474364 -0.06633,-0.710733 -0.02521,-0.218897 -0.05166,-0.437673 -0.0805,-0.656198 -0.0279,-0.210221 -0.05632,-0.420403 -0.08865,-0.630107 -0.03283,-0.204168 -0.07046,-0.407664 -0.109919,-0.610852 -0.0385,-0.195328 -0.07819,-0.390464 -0.120587,-0.585123 -0.04187,-0.192447 -0.08516,-0.384634 -0.130745,-0.576386 -0.04544,-0.188868 -0.0925,-0.377406 -0.1418,-0.565474 -0.04934,-0.186625 -0.09908,-0.373226 -0.156428,-0.557975 -0.05829,-0.178466 -0.1191,-0.356238 -0.183121,-0.533075 -0.06188,-0.171555 -0.124824,-0.342796 -0.188259,-0.513878 -0.06322,-0.166174 -0.128046,-0.331833 -0.198149,-0.495728 -0.06936,-0.162731 -0.139813,-0.325095 -0.214836,-0.485753 -0.07438,-0.157683 -0.150671,-0.314646 -0.23293,-0.469088 -0.07961,-0.147826 -0.162866,-0.293971 -0.252538,-0.436983 -0.088,-0.139761 -0.178235,-0.278366 -0.273105,-0.414371 -0.09176,-0.131862 -0.184553,-0.263217 -0.283374,-0.390822 -0.09593,-0.122512 -0.192779,-0.244484 -0.293383,-0.363869 -0.100222,-0.117964 -0.203249,-0.233918 -0.309427,-0.347498 -0.104632,-0.114702 -0.211429,-0.227763 -0.320912,-0.338662 -0.11051,-0.112522 -0.220623,-0.22542 -0.334815,-0.334878 -0.112796,-0.106532 -0.22607,-0.212682 -0.344326,-0.314245 -0.114009,-0.100473 -0.230946,-0.198097 -0.350522,-0.293063 -0.117857,-0.09286 -0.240081,-0.180819 -0.362833,-0.268248 -0.121602,-0.08685 -0.244663,-0.171984 -0.369435,-0.255036 -0.127029,-0.08406 -0.256227,-0.165385 -0.386391,-0.245375 -0.134606,-0.08068 -0.268279,-0.162616 -0.402496,-0.24383 -0.139209,-0.08089 -0.278802,-0.161325 -0.422205,-0.235964 -0.144532,-0.07495 -0.291232,-0.146361 -0.438559,-0.216663 -0.151114,-0.07104 -0.304206,-0.13856 -0.45887,-0.202979 -0.158227,-0.06347 -0.31749,-0.124893 -0.479847,-0.17918 -0.164959,-0.05439 -0.330617,-0.10695 -0.497422,-0.156491 -0.169553,-0.0492 -0.33925,-0.09856 -0.512283,-0.136837 -0.176062,-0.03841 -0.35227,-0.07621 -0.529937,-0.108093 -0.182278,-0.03194 -0.364461,-0.06467 -0.548174,-0.08917 -0.184955,-0.02413 -0.370052,-0.04729 -0.556002,-0.06424 -0.189293,-0.01638 -0.37858,-0.03361 -0.568585,-0.04163 -0.190383,-0.0074 -0.380822,-0.01359 -0.57142,-0.01256 -0.192713,0.002 -0.385401,0.0055 -0.577809,0.01629 -0.197088,0.01182 -0.394236,0.02312 -0.591052,0.03832 -0.202644,0.01787 -0.405299,0.03599 -0.606971,0.06165 -0.204004,0.02473 -0.407617,0.05169 -0.610346,0.08408 -0.203897,0.03136 -0.407995,0.06225 -0.610259,0.101584 -0.197875,0.03854 -0.39531,0.07893 -0.590553,0.127502 -0.201042,0.0476 -0.40189,0.09589 -0.602187,0.146025 -0.204689,0.05118 -0.409171,0.103071 -0.612585,0.158324 -0.19777,0.05436 -0.39471,0.111131 -0.590318,0.171648 -0.19526,0.06032 -0.390265,0.121364 -0.584066,0.185475 -0.189637,0.06327 -0.379643,0.125616 -0.5689,0.189824 -0.191817,0.06535 -0.383353,0.131517 -0.572729,0.202567 -0.188258,0.07107 -0.375778,0.143705 -0.562919,0.217177 -0.183567,0.07003 -0.365963,0.142693 -0.544519,0.222845 -0.170871,0.07662 -0.341065,0.154657 -0.506008,0.241529 28.626421,-15.0402166 22.317983,-11.88752297 16.60771,-8.7157276 -0.15039,0.085982 -0.298808,0.1747149 -0.447172,0.2635575 -0.149122,0.08967 -0.29689,0.1812001 -0.442979,0.2749233 -0.148945,0.095025 -0.29859,0.1891682 -0.445639,0.2866234 -0.148275,0.099317 -0.296949,0.1981611 -0.443869,0.2991331 -0.143246,0.098754 -0.285608,0.1985625 -0.424262,0.3026448 -0.138493,0.1030106 -0.278379,0.2044691 -0.415429,0.309087 -0.136437,0.1033005 -0.272095,0.2074579 -0.407756,0.3115997 -0.131606,0.101666 -0.260539,0.2060658 -0.390923,0.3090193 -0.120576,0.095338 -0.241363,0.1904303 -0.363912,0.2836773 -0.111467,0.086335 -0.221934,0.1736918 -0.331192,0.2623331 -0.107628,0.086933 -0.21297,0.1761365 -0.318284,0.2653746 -0.100376,0.086091 -0.202453,0.1705286 -0.302015,0.2574017 -0.08997,0.080047 -0.180751,0.1593418 -0.271644,0.2385177 -0.08096,0.07096 -0.160193,0.1435622 -0.238354,0.2170707 -0.0746,0.068471 -0.147612,0.1383376 -0.220336,0.2084459 -0.06451,0.062911 -0.128552,0.1262259 -0.194005,0.1883258 -0.05864,0.053416 -0.117313,0.1068048 -0.175758,0.1603983 -0.04989,0.046021 -0.09868,0.093014 -0.149463,0.1382361 -0.0403,0.036453 -0.08149,0.072024 -0.12226,0.10804 0,0 -17.0781285,8.9726963 -17.0781285,8.9726973 z"
     inkscape:connector-curvature="0" />
  <path
     style="fill:#000000;stroke-width:0.29354376"
     id="path290"
     d="m 40.965581,101.55066 c -0.03485,-0.0527 -0.07589,-0.099 -0.11619,-0.1459 -0.05396,-0.0616 -0.109262,-0.12167 -0.164878,-0.18128 -0.06646,-0.072 -0.137179,-0.13838 -0.20746,-0.20519 -0.08944,-0.0866 -0.180601,-0.17071 -0.270899,-0.25607 -0.105735,-0.10087 -0.213631,-0.19873 -0.322111,-0.29562 -0.124511,-0.10938 -0.250441,-0.21652 -0.375928,-0.32439 -0.149813,-0.12936 -0.301907,-0.255062 -0.455053,-0.379028 -0.171326,-0.140334 -0.346861,-0.273495 -0.522156,-0.406973 -0.188035,-0.141393 -0.375902,-0.283096 -0.566103,-0.420535 -0.205099,-0.149839 -0.41454,-0.291342 -0.624891,-0.430915 -0.23175,-0.151725 -0.465386,-0.299552 -0.700195,-0.444776 C 36.393125,97.906412 36.144478,97.757359 35.895574,97.60893 35.627787,97.448399 35.3548,97.300158 35.081232,97.153555 34.787268,96.99776 34.491279,96.847162 34.194149,96.699719 33.888775,96.548026 33.579625,96.407025 33.270047,96.267431 32.945727,96.119689 32.615695,95.990108 32.284655,95.864459 31.945446,95.737357 31.604642,95.616021 31.262042,95.50187 30.915139,95.387251 30.565751,95.283268 30.21577,95.18222 c -0.356193,-0.103056 -0.71512,-0.192699 -1.074095,-0.281529 -0.365386,-0.08828 -0.732766,-0.164405 -1.101429,-0.23156 -0.381612,-0.07011 -0.765639,-0.119557 -1.149721,-0.167001 -0.390549,-0.04473 -0.781637,-0.08284 -1.172694,-0.121012 -0.381325,-0.03466 -0.762989,-0.06395 -1.144617,-0.0936 -0.370438,-0.03057 -0.741236,-0.05459 -1.112267,-0.0729 -0.376682,-0.0194 -0.753739,-0.02313 -1.130722,-0.02611 -0.367281,-0.0028 -0.73455,-0.005 -1.101834,-0.0023 -0.359974,0.0023 -0.719849,0.01304 -1.079607,0.02709 -0.351851,0.01269 -0.703503,0.03073 -1.055096,0.05073 -0.350184,0.02048 -0.699513,0.05669 -1.048163,0.09929 -0.350238,0.04257 -0.699064,0.0988 -1.047876,0.154583 -0.342072,0.05794 -0.684146,0.115993 -1.025222,0.181453 -0.341001,0.06475 -0.680317,0.14055 -1.019558,0.216557 -0.331457,0.07533 -0.661791,0.156961 -0.991976,0.239422 -0.326412,0.07842 -0.650709,0.168025 -0.972485,0.268952 -0.330776,0.105477 -0.657849,0.225269 -0.983745,0.349333 -0.319737,0.121439 -0.638565,0.246058 -0.95586,0.375867 -0.319866,0.132922 -0.636806,0.275112 -0.953314,0.418406 -0.3135163,0.141117 -0.6262878,0.284443 -0.9400548,0.424805 -0.2978894,0.13429 -0.5981134,0.261173 -0.8992307,0.385281 -0.283363,0.116604 -0.5676413,0.23016 -0.8517849,0.34415 -0.2635959,0.105705 -0.5272064,0.211373 -0.7908146,0.317042 -0.2488784,0.09972 -0.496562,0.203432 -0.7439647,0.307977 -0.2435196,0.104364 -0.4860081,0.211927 -0.7291627,0.317428 -0.230319,0.101988 -0.4597232,0.20674 -0.6892508,0.311105 -0.2123505,0.09658 -0.4246856,0.193219 -0.6370227,0.289845 -0.2007018,0.09063 -0.4017133,0.180269 -0.6009599,0.275174 -0.1979951,0.0934 -0.3950446,0.189432 -0.592059,0.285583 -0.1282563,0.06391 -0.2556788,0.130069 -0.3839474,0.193959 0,0 16.8436002,-11.302001 16.8436002,-11.302001 v 0 c 0.128267,-0.06391 0.255691,-0.130029 0.383946,-0.193962 0.197015,-0.09615 0.394064,-0.192172 0.59206,-0.285582 0.199245,-0.09492 0.400258,-0.184539 0.60096,-0.275175 0.212336,-0.09664 0.42467,-0.19326 0.637022,-0.289846 0.229529,-0.104353 0.458932,-0.209117 0.68925,-0.311105 0.243156,-0.105488 0.485644,-0.21306 0.729164,-0.317423 0.247403,-0.10455 0.495088,-0.20826 0.743963,-0.307978 0.263609,-0.105674 0.52722,-0.211331 0.790815,-0.317043 0.284144,-0.113996 0.568422,-0.227554 0.851784,-0.344152 0.301119,-0.124108 0.601343,-0.250987 0.899232,-0.385282 0.313769,-0.14036 0.626539,-0.283684 0.940055,-0.424804 0.316507,-0.143292 0.633449,-0.285485 0.953312,-0.418406 0.317295,-0.129809 0.636123,-0.254425 0.955863,-0.375867 0.325897,-0.124065 0.652969,-0.24385 0.983745,-0.349331 0.321776,-0.10094 0.646074,-0.190528 0.972482,-0.268956 0.330185,-0.08246 0.660522,-0.164081 0.991978,-0.23942 0.339242,-0.07601 0.678559,-0.151802 1.019558,-0.216557 0.341077,-0.06546 0.68315,-0.123503 1.025223,-0.181453 0.348813,-0.05579 0.697636,-0.112011 1.047874,-0.154581 0.348649,-0.04259 0.697981,-0.07882 1.048166,-0.09929 0.351592,-0.02 0.703243,-0.03803 1.055095,-0.05073 0.359755,-0.01406 0.719631,-0.02494 1.079604,-0.02709 0.367284,-0.0028 0.734555,-6.33e-4 1.101838,0.0023 0.376984,0.0028 0.75404,0.0067 1.130721,0.0261 0.371028,0.01832 0.741827,0.04234 1.112267,0.0729 0.38163,0.02968 0.763293,0.05897 1.144617,0.0936 0.391057,0.03818 0.782143,0.07628 1.172695,0.121013 0.384081,0.04744 0.768109,0.09691 1.149721,0.167002 0.368661,0.06716 0.736039,0.143295 1.101426,0.231561 0.358976,0.08882 0.717905,0.178477 1.074099,0.281526 0.34998,0.101039 0.699365,0.205032 1.04627,0.31965 0.342599,0.114151 0.683405,0.235489 1.022613,0.362592 0.33104,0.125646 0.661073,0.255227 0.985392,0.402972 0.309574,0.139591 0.618728,0.280591 0.924102,0.432289 0.297129,0.147439 0.593119,0.298038 0.887085,0.453834 0.273566,0.146607 0.546553,0.294843 0.814341,0.455373 0.2489,0.148433 0.49755,0.297487 0.744141,0.451052 0.234811,0.145226 0.468443,0.293056 0.700195,0.444777 0.21035,0.139573 0.419794,0.28108 0.624893,0.430918 0.190201,0.137436 0.378067,0.279143 0.566103,0.420532 0.175295,0.133478 0.350829,0.26664 0.522155,0.406969 0.153147,0.123966 0.305239,0.24967 0.455054,0.379039 0.125483,0.107854 0.251417,0.215006 0.375925,0.324392 0.108483,0.0969 0.216378,0.194687 0.322113,0.29561 0.09031,0.08536 0.181452,0.169495 0.270899,0.256066 0.07028,0.06681 0.141001,0.133236 0.207462,0.205202 0.05561,0.0596 0.11091,0.119674 0.164877,0.181285 0.0403,0.04689 0.08135,0.09323 0.116188,0.1459 0,0 -16.843599,11.302 -16.843599,11.302 z"
     inkscape:connector-curvature="0" />
  <g
     inkscape:groupmode="layer"
     id="layer3"
     inkscape:label="Layer 1"
     transform="translate(-0.8348217,0.11014558)" />
</svg>
